<?xml version="1.0" encoding="UTF-8"?>
<!DOCTYPE svg PUBLIC "-//W3C//DTD SVG 1.1//EN" "http://www.w3.org/Graphics/SVG/1.1/DTD/svg11.dtd">
<!-- Creator: CorelDRAW X6 -->
<svg xmlns="http://www.w3.org/2000/svg" xml:space="preserve" width="210mm" height="297mm" version="1.1" style="shape-rendering:geometricPrecision; text-rendering:geometricPrecision; image-rendering:optimizeQuality; fill-rule:evenodd; clip-rule:evenodd"
viewBox="0 0 21000 29700"
 xmlns:xlink="http://www.w3.org/1999/xlink">
 <defs>
  <style type="text/css">
   <![CDATA[
    .fil0 {fill:#2B2A29}
    .fil1 {fill:#FEFEFE}
   ]]>
  </style>
 </defs>
 <g id="Слой_x0020_1">
  <metadata id="CorelCorpID_0Corel-Layer"/>
  <path class="fil0" d="M2 29699c0,-18 0,-36 0,-72 24,34 37,53 51,72 -17,0 -34,0 -51,0z"/>
  <path class="fil0" d="M12324 18064c-4,3 -10,5 -12,9 -2,4 0,10 1,16 6,-3 12,-6 16,-10 2,-2 -3,-9 -5,-14zm2295 898c2,0 5,0 7,0 0,-12 0,-25 0,-37 -2,0 -5,0 -7,0 0,12 0,25 0,37zm-522 -2679c-4,-3 -8,-6 -11,-9 -3,4 -8,8 -7,12 0,3 7,6 10,9 3,-4 5,-8 8,-12zm-1443 2485c6,-2 11,-3 17,-5 -4,-11 -7,-21 -11,-32 -4,1 -7,2 -11,3 2,11 3,23 5,34zm1519 -2335c-10,-8 -16,-12 -21,-17 -4,6 -10,11 -12,17 -1,2 7,10 11,10 6,0 11,-5 22,-10zm-1895 1650c-15,-4 -22,-8 -30,-8 -4,0 -10,6 -11,9 0,6 3,12 5,19 6,-4 12,-7 35,-21zm2194 -135c3,7 4,12 6,16 7,-3 16,-4 20,-9 2,-2 -4,-12 -6,-18 -7,4 -13,7 -19,11zm-1521 -1868c-8,8 -14,13 -19,18 5,5 10,15 15,15 6,0 15,-7 17,-13 1,-4 -7,-12 -13,-20zm1341 225c-8,-2 -15,-7 -22,-5 -4,1 -6,11 -9,16 8,1 15,4 22,3 2,0 4,-8 8,-15zm-459 -628c-11,9 -22,16 -21,18 4,8 11,16 17,23 1,1 12,-5 12,-7 -1,-9 -4,-19 -8,-33zm578 1220c-5,2 -11,4 -16,7 6,15 11,30 17,44 4,-1 8,-3 12,-4 -4,-16 -8,-31 -13,-47zm-1907 -241c-3,6 -5,12 -8,18 13,6 27,11 40,17 2,-5 4,-9 6,-14 -13,-7 -26,-14 -39,-21zm32 -77c-8,7 -17,11 -18,17 -1,6 6,14 9,21 8,-5 17,-9 22,-16 1,-2 -7,-12 -13,-21zm-282 727c-1,-6 -2,-13 -3,-19 -16,3 -32,7 -49,10 1,4 1,8 2,13 17,-1 33,-3 50,-4zm258 -800c-12,-6 -20,-14 -29,-15 -5,-1 -11,9 -17,14 9,7 18,15 28,21 1,1 9,-10 18,-20zm516 -419c7,-1 14,-3 21,-4 -4,-17 -8,-33 -13,-49 -1,-3 -12,-2 -25,-4 7,23 12,40 17,58zm1291 946c0,6 1,12 1,18 29,-5 58,-10 87,-15 0,-3 -1,-5 -1,-8 -29,2 -58,3 -87,5zm-2041 962c-16,-3 -26,-8 -36,-7 -11,0 -22,5 -41,9 39,22 39,22 77,-2zm2310 948c-32,-24 -47,-18 -54,11 -2,9 1,19 2,31 19,-15 33,-26 52,-42zm-2287 -1003c18,-69 17,-69 -14,-109 5,36 8,64 14,109zm-6685 1381c-4,1 -8,1 -13,2 0,31 0,61 0,92 6,0 12,-1 17,-1 -2,-31 -3,-62 -5,-93zm9002 -1474c-19,45 -30,72 -46,112 63,-22 59,-55 46,-112zm-9730 -5178c-28,10 -50,18 -79,28 69,41 69,41 79,-28zm9347 4249c68,40 68,40 82,-12 -29,4 -55,8 -82,12zm-288 -1181c1,-54 -15,-83 -56,-105 -12,51 8,78 56,105zm-985 226c-7,-2 -13,-4 -20,-7 -38,33 -38,33 -4,102 10,-41 17,-68 23,-96zm101 218c-27,-20 -40,-36 -56,-39 -23,-5 -54,28 -45,47 7,14 28,31 41,30 17,-1 33,-19 59,-37zm-250 -79c22,-24 45,-42 42,-49 -8,-20 -26,-36 -41,-54 -14,12 -40,25 -39,34 3,20 20,39 37,69zm67 144c40,-47 46,-83 16,-105 -36,-27 -53,2 -69,27 18,27 33,49 53,78zm1412 -505c30,28 57,32 79,2 24,-33 21,-61 -22,-82 -18,26 -36,50 -57,79zm-9377 550c102,-21 204,-43 307,-64 -111,-20 -207,30 -307,64zm7248 1653c34,-5 56,-9 84,-13 -29,-53 -38,-108 -94,-160 4,67 7,114 10,173zm3353 2394c4,0 12,0 21,-1 25,-2 48,-15 41,-41 -5,-16 -28,-29 -44,-40 -6,-4 -17,-2 -25,-1 -29,4 -66,-5 -73,39 -4,30 22,45 80,44zm-2420 -4117c35,-13 59,-21 82,-30 60,-24 62,-32 29,-101 -37,7 -74,13 -111,20 0,36 0,68 0,111zm-8440 3940c47,-137 44,-221 -10,-282 4,102 -42,192 10,282zm-445 -323c-39,99 -32,301 1,357 5,-3 13,-6 13,-8 1,-98 1,-195 0,-293 0,-19 -9,-37 -14,-56zm8253 -2903c-4,-3 -8,-6 -12,-9 -15,29 -30,59 -44,89 -10,20 -12,49 -28,60 -89,62 -64,146 -52,230 60,-47 37,-122 63,-181 28,-61 49,-125 73,-188zm2897 3362c0,-7 1,-13 1,-20 -12,-6 -24,-15 -36,-17 -58,-8 -114,-26 -173,6 -27,15 -67,4 -100,9 -14,2 -25,16 -38,25 13,12 24,28 39,34 15,6 34,3 50,1 59,-6 118,-12 177,-20 27,-4 53,-13 80,-19zm-9753 -1095c24,-205 -3,-409 -24,-613 0,204 -32,409 24,613zm6752 -1835c-66,20 -125,35 -181,58 -13,5 -23,37 -22,55 1,13 23,29 39,34 14,5 33,1 50,-3 42,-10 84,-21 136,-34 -6,-29 -12,-63 -22,-109zm-6974 960c-46,32 -39,80 -38,123 2,121 4,242 11,363 5,89 17,178 26,267 15,-12 17,-23 15,-34 -19,-84 -20,-167 0,-251 4,-16 2,-34 1,-51 -5,-137 -10,-275 -16,-417zm8926 -1211c35,73 81,96 149,72 20,-7 44,0 67,0 33,0 66,0 97,0 32,-110 8,-139 -95,-119 -71,13 -142,31 -218,47zm919 3368c63,-4 112,-7 162,-10 39,-2 78,-6 116,-6 27,0 62,14 71,-24 9,-38 -29,-41 -54,-52 -10,-5 -21,-9 -32,-10 -72,-7 -145,-15 -217,-16 -15,0 -38,22 -45,39 -8,18 -2,43 -2,79zm-591 -3683c-45,19 -41,82 -87,62 -23,-10 -52,-36 -53,-57 -5,-49 44,-58 81,-76 -28,-25 -54,-49 -84,-77 -23,38 16,101 -54,103 -2,-99 -3,-99 -97,-98 14,31 27,58 40,85 19,38 41,74 58,113 44,106 43,107 150,76 18,-5 36,-14 57,-23 -3,-36 -6,-68 -10,-110zm-8455 -789c-135,-10 -692,112 -869,187 281,-15 806,-125 869,-187zm7184 -313c-66,11 -117,19 -178,28 13,102 5,202 86,262 -6,51 -13,91 -15,132 0,9 16,28 25,28 14,-1 33,-10 41,-21 8,-13 8,-32 9,-49 6,-73 10,-146 16,-219 4,-47 10,-94 17,-161zm-584 4404c-5,-56 -10,-92 -11,-129 -1,-42 -19,-63 -62,-61 -37,1 -73,2 -110,2 -44,0 -62,24 -60,64 2,56 6,111 10,168 81,-15 156,-29 234,-44zm289 -4220c-7,90 -8,114 21,147 15,16 43,33 62,30 31,-5 58,-30 49,-67 -20,-84 -44,-166 -68,-256 -121,53 -225,109 -314,196 63,66 82,-34 135,-19 15,13 37,31 62,53 20,-32 37,-57 53,-83zm1027 -143c-22,-25 -45,-52 -78,-90 -20,58 -36,105 -56,161 105,58 183,150 258,246 13,17 32,35 52,42 43,13 66,37 75,81 6,28 17,59 53,67 50,-102 37,-156 -57,-202 -37,-18 -58,-42 -68,-80 -5,-18 -14,-35 -21,-52 -151,14 -190,-30 -157,-174zm1926 4012c2,-7 7,-14 7,-22 2,-22 4,-45 4,-68 0,-61 -10,-72 -69,-62 -69,11 -134,4 -201,-13 -30,-7 -61,-10 -92,-11 -36,-2 -57,14 -58,55 -3,74 14,99 97,106 103,9 207,10 312,15zm-1859 -2810c-27,-7 -37,-14 -47,-12 -100,17 -200,35 -300,54 -183,35 -364,75 -548,107 -117,20 -235,28 -353,43 -50,6 -100,17 -150,26 -38,7 -56,31 -55,75 58,-7 112,-9 164,-21 170,-40 346,-47 512,-102 10,-3 22,-4 33,-4 107,4 210,-22 314,-45 99,-22 198,-41 298,-59 45,-8 87,-19 131,-64zm2077 2671c-4,-47 -6,-86 -10,-125 -7,-74 -19,-82 -96,-83 -84,-1 -168,-9 -252,-11 -86,-2 -172,0 -269,0 0,42 -1,75 0,108 1,30 19,48 48,48 115,0 228,38 345,16 29,-5 69,7 92,27 43,38 86,31 143,20zm-3456 -3478c-29,-35 -53,-65 -81,-99 -118,125 -226,252 -294,414 15,0 23,2 30,0 79,-23 78,-23 110,55 14,33 31,64 47,96 67,-62 125,-120 186,-173 62,-54 129,-103 193,-154 -37,-8 -70,6 -100,2 -53,-7 -75,17 -96,61 -27,57 -59,113 -127,153 0,-25 -5,-43 1,-55 9,-17 30,-27 40,-43 27,-46 70,-93 70,-139 0,-40 -1,-75 19,-116zm1550 -145c73,-25 79,-28 81,-86 1,-42 12,-65 57,-66 10,0 19,-8 17,-7 59,-78 7,-116 -54,-163 21,-13 39,-19 48,-32 30,-39 35,-83 15,-127 -7,-15 -26,-30 -42,-34 -10,-2 -27,16 -36,29 -13,19 -22,41 -36,70 -38,-51 -32,-131 -122,-112 -61,13 -72,54 -76,101 -11,1 -17,4 -22,2 -42,-19 -65,0 -76,38 -12,40 7,68 53,80 24,6 49,10 76,14 13,-20 23,-41 37,-57 35,-42 101,-50 136,-18 44,40 47,113 5,161 -35,40 -97,42 -143,5 -9,-7 -16,-23 -24,-23 -26,0 -59,-3 -77,11 -28,21 -20,56 -1,84 19,27 42,21 67,8 17,-9 35,-14 62,-25 20,53 38,101 56,148zm-8351 -3587c-3,-14 -3,-25 -7,-35 -30,-76 -45,-80 -117,-37 -11,7 -25,10 -38,12 -35,8 -72,11 -106,22 -70,22 -138,51 -208,72 -133,38 -264,76 -380,155 -20,13 -48,12 -72,20 -35,11 -70,21 -104,35 -8,4 -16,25 -13,34 3,10 19,19 31,23 10,3 22,-2 33,-5 133,-38 266,-76 399,-115 81,-24 162,-49 242,-74 113,-35 225,-70 341,-106zm6913 4132c-220,89 -501,531 -498,770 30,0 61,-2 91,0 88,5 100,-5 112,-95 15,-118 51,-230 102,-338 55,-117 110,-234 194,-337zm1453 285c4,-2 8,-4 12,-7 -4,-12 -8,-24 -13,-36 -37,-84 -98,-150 -160,-217 -150,-161 -330,-272 -535,-347 -107,-39 -214,-47 -323,-6 -37,14 -75,27 -114,33 -115,17 -215,71 -308,135 -134,92 -242,212 -340,341 -10,13 -16,29 -23,44 67,-58 125,-119 181,-183 64,-73 140,-132 228,-173 69,-33 140,-62 207,-97 150,-79 301,-80 455,-17 81,33 163,65 242,103 172,84 329,188 436,353 16,25 36,48 55,72zm888 3107c-170,-49 -332,-69 -489,-25 0,52 1,90 0,128 -1,51 -4,101 -4,152 0,29 14,49 46,50 154,3 310,14 459,-72 -4,-74 -8,-152 -12,-232zm-9589 -1548c-23,81 -24,159 -18,238 11,152 19,304 24,457 3,98 1,197 -1,295 0,31 -7,62 -8,92 -1,31 -5,63 3,92 21,72 17,82 -54,99 6,34 31,36 58,34 34,-3 67,-13 101,-12 50,0 75,-22 73,-70 -3,-96 -6,-192 -12,-287 -14,-228 -32,-456 -42,-685 -4,-88 -5,-174 -42,-257 -17,-1 -34,-3 -50,-4 -8,0 -16,3 -33,7zm-1567 1353c158,15 298,64 445,51 23,-2 48,-15 67,-31 108,-91 215,-182 321,-276 34,-30 73,-61 77,-123 -58,-5 -111,-11 -164,-13 -65,-2 -129,1 -194,1 -47,0 -86,12 -123,45 -51,45 -108,81 -163,122 -81,61 -162,121 -243,183 -8,6 -11,19 -23,41zm8101 -1662c-7,2 -14,4 -21,6 5,87 13,174 16,261 8,294 13,588 20,882 1,37 0,75 10,110 27,90 60,179 90,267 59,15 80,-16 90,-67 6,21 8,38 5,53 -6,37 -25,60 -67,63 -46,3 -59,-25 -67,-61 -6,-25 -9,-50 -17,-74 -4,-14 -15,-26 -30,-53 -8,30 -16,46 -16,61 0,65 0,130 5,195 2,27 1,47 -19,69 -14,16 -26,46 -22,66 7,35 43,30 71,30 68,-2 135,-3 203,-6 10,0 20,-8 38,-16 -47,-53 -35,-111 -29,-170 5,-53 3,-107 1,-161 -9,-195 -27,-389 -26,-584 1,-263 -49,-524 -25,-788 1,-11 -2,-23 -2,-34 -5,-161 -9,-322 -14,-483 -1,-24 -4,-49 -6,-71 -67,-8 -153,15 -231,59 -16,84 56,130 86,194 1,3 8,3 13,4 2,-25 5,-50 6,-61 33,-19 56,-32 90,-51 0,61 0,116 0,171 0,56 -7,112 22,166 11,20 8,61 -6,79 -28,38 -19,73 -10,112 17,76 11,115 -21,162 -20,-60 21,-134 -50,-194 -14,54 -26,97 -37,141 -36,-71 -18,-132 23,-196 -56,2 -84,-23 -74,-81zm469 1146c-46,-30 -37,-72 -38,-108 -3,-113 -1,-225 -1,-338 0,-164 -1,-327 0,-491 2,-192 28,-383 6,-575 -5,-44 -1,-88 -1,-139 -69,-6 -127,-11 -193,-17 -3,63 -7,119 -7,174 1,153 5,305 6,458 1,68 -5,136 -2,203 8,183 21,366 30,549 8,158 13,316 21,473 6,116 12,231 27,346 14,110 107,143 210,73 -53,-66 -46,-143 -44,-223 6,-181 2,-362 2,-543 0,-72 0,-144 0,-216 -6,0 -12,0 -17,0 0,124 0,249 0,373zm-6546 -6865c70,-12 128,-23 187,-33 53,-8 107,-11 159,-23 126,-31 251,-67 377,-99 71,-18 142,-36 214,-50 58,-11 118,-12 176,-26 214,-51 428,-105 642,-158 58,-14 116,-25 174,-38 121,-26 243,-50 364,-78 96,-23 191,-54 287,-75 169,-36 338,-67 508,-99 186,-35 372,-67 558,-104 147,-30 291,-68 438,-98 271,-56 543,-109 815,-164 12,-2 23,-12 36,-18 -23,-56 -62,-80 -116,-71 -114,19 -228,40 -341,65 -132,29 -259,81 -399,70 -24,-2 -50,9 -74,15 -69,17 -137,36 -206,50 -169,34 -339,61 -507,97 -135,29 -268,70 -402,104 -123,31 -247,62 -372,88 -155,32 -311,57 -466,91 -166,36 -329,81 -494,119 -140,32 -282,57 -422,90 -85,20 -167,52 -252,72 -93,22 -188,35 -282,55 -191,41 -381,83 -571,125 -11,2 -21,7 -32,12 -8,3 -15,8 -23,13 10,27 17,47 25,68zm9038 7013c-43,-12 -80,-28 -117,-31 -84,-7 -169,-7 -254,-10 -64,-2 -75,7 -76,72 -2,124 -2,248 1,372 2,75 10,80 87,78 93,-2 186,-6 279,-7 31,-1 48,-13 52,-44 2,-20 3,-40 3,-59 -2,-62 -7,-69 -67,-72 -79,-4 -158,-3 -236,-6 -31,-1 -67,11 -97,-36 97,-5 184,-9 270,-14 53,-3 107,-10 160,-10 104,0 208,3 312,7 11,0 22,16 33,24 -35,15 -65,15 -95,15 -51,0 -101,-3 -152,0 -70,4 -73,9 -77,82 -7,137 7,153 143,150 62,-2 124,-10 186,-13 21,-1 48,-2 44,32 -3,4 -5,8 -7,8 -59,5 -118,9 -177,14 -58,5 -68,10 -67,64 2,75 12,150 18,228 61,0 111,4 160,-1 105,-9 108,-14 107,-118 -5,-308 -11,-616 -17,-924 0,-3 0,-6 0,-9 -3,-18 -7,-36 -9,-48 -63,10 -117,21 -173,26 -72,6 -144,7 -213,10 -28,123 -19,135 91,136 65,0 130,-2 195,0 15,0 29,12 44,18 -1,7 -2,14 -4,21 -66,4 -132,10 -198,13 -56,3 -114,-6 -150,33zm-885 -2548c-50,-81 -100,-147 -170,-191 -120,-75 -244,-143 -368,-210 -51,-28 -107,-53 -170,-30 -11,4 -28,-1 -41,-6 -75,-29 -152,-26 -224,3 -83,34 -166,74 -241,123 -75,48 -132,123 -186,190 -69,86 -106,198 -153,301 -11,24 -5,56 -8,92 527,-85 1046,-141 1561,-272zm-8023 -895c-44,-154 4,-302 -30,-446 -4,-19 -3,-39 -2,-59 3,-147 6,-293 9,-440 0,-6 0,-11 -1,-17 -5,-175 -12,-350 -14,-526 -1,-90 20,-182 9,-270 -13,-96 -27,-189 -11,-286 2,-11 -1,-23 -1,-34 -5,-152 -10,-304 -14,-456 -1,-28 6,-56 8,-84 2,-25 6,-52 1,-76 -32,-159 -28,-320 -29,-481 -1,-85 -10,-169 -17,-254 -1,-11 -12,-20 -18,-30 -5,2 -11,3 -16,5 10,97 18,194 31,291 7,48 14,92 -18,137 -14,20 -13,54 -12,82 4,87 11,175 16,262 2,32 1,64 -33,103 -6,-79 -14,-143 -15,-206 -2,-118 3,-237 -3,-355 -6,-109 -23,-217 -36,-329 -67,11 -124,15 -177,31 -119,35 -237,77 -355,114 -100,31 -200,61 -300,89 -57,16 -115,30 -172,45 -83,21 -99,44 -94,130 7,118 14,237 21,355 3,45 7,90 9,135 7,138 16,277 18,415 2,121 -6,243 -6,364 0,79 8,158 8,237 0,101 -5,203 -7,304 -2,144 -2,288 -2,432 -1,141 -1,283 -1,424 0,113 7,226 -1,338 -7,109 -13,213 75,298 147,-9 295,-29 438,-78 158,-55 322,-85 488,-107 81,-11 159,-36 255,-59zm8203 66c12,7 29,10 35,21 54,93 52,197 35,295 -10,58 -14,102 22,148 18,22 32,47 44,72 6,12 2,29 3,44 -5,3 -11,6 -16,8 -77,-74 -113,-185 -209,-241 -24,18 -65,33 -70,55 -11,51 -37,83 -82,103 25,31 45,56 66,82 7,-3 13,-5 20,-8 6,-29 11,-59 17,-88 5,0 10,0 15,1 5,31 10,62 16,94 9,6 17,14 27,17 17,6 45,16 51,10 12,-15 23,-42 17,-58 -12,-34 -35,-63 -53,-95 -10,-17 -22,-33 -42,-64 102,49 150,130 144,225 55,-19 77,24 98,59 45,-14 49,-44 47,-77 -3,-56 -11,-113 -9,-169 9,-192 14,-384 -2,-576 -14,-175 -15,-350 -22,-525 -1,-22 -6,-43 -10,-74 -78,13 -151,23 -221,38 -122,26 -242,59 -364,84 -113,23 -228,39 -343,57 -176,27 -352,52 -528,79 -190,30 -380,60 -569,93 -100,17 -199,40 -299,56 -90,14 -112,34 -110,127 5,317 12,634 18,951 0,15 3,30 6,61 75,-141 109,-284 200,-398 42,-53 77,-112 117,-167 122,-168 258,-324 440,-430 95,-55 187,-119 301,-132 65,-8 129,-22 194,-24 73,-2 147,-1 218,10 84,13 160,-40 166,-126 1,-19 11,-38 14,-50 86,31 160,58 236,86 38,-31 78,-56 107,-89 54,-63 122,-70 193,-53 31,7 57,13 89,6 54,-11 88,12 103,64 8,29 15,62 9,91 -10,48 -4,94 -1,142 3,50 -19,102 -30,153 -59,16 -67,69 -84,115 -26,22 -26,42 6,71 -3,-30 -5,-51 -7,-71zm-678 205l-1 -1c84,42 169,84 256,127 6,-34 11,-64 16,-94l-1 1c46,-7 93,0 127,-49 20,-29 56,-20 78,11 12,16 24,33 36,49 5,-4 11,-7 16,-11 -11,-17 -20,-35 -33,-50 -32,-36 -69,-68 -97,-106 -54,-74 -119,-136 -195,-185 -69,-44 -136,-92 -207,-132 -82,-46 -170,-76 -267,-68 -59,5 -80,13 -91,68 -19,97 -33,195 -42,293 -5,58 17,80 75,77 116,-5 223,26 328,70zm-1429 832c7,-4 19,-6 22,-12 36,-88 124,-156 99,-266 -2,-9 10,-21 15,-31 -56,-39 -63,12 -79,39 -88,-69 -125,-57 -162,43 -46,122 -78,247 -60,379 2,14 -1,28 2,42 2,10 8,19 16,40 20,-38 28,-79 51,-92 58,-33 76,-87 97,-142l-1 1zm85 408c13,-43 46,-51 86,-48 25,2 49,4 74,6 0,-6 0,-12 0,-17 -53,-6 -106,-13 -173,-21 6,35 11,58 15,80 27,73 57,90 125,70 21,-6 43,-6 64,-11 16,-4 31,-13 46,-20 -51,-16 -98,-20 -146,-25 -30,-3 -60,-9 -90,-13zm-34 -833c7,-22 14,-43 25,-77 -36,28 -46,49 -24,77 -13,24 -25,48 -38,72 6,5 12,10 19,15 21,-41 85,-32 92,-91 -28,2 -51,4 -74,5zm3229 -6186c-145,41 -293,60 -442,71 -48,4 -95,14 -142,21 -131,21 -263,39 -393,64 -108,20 -214,46 -322,70 -25,5 -49,13 -74,17 -129,18 -258,33 -387,52 -95,14 -189,33 -284,46 -168,23 -337,40 -505,65 -151,22 -301,50 -452,75 -195,33 -390,63 -584,100 -175,33 -347,78 -522,112 -116,23 -234,36 -351,55 -24,4 -48,12 -74,19 25,72 74,86 135,77 266,-37 532,-74 799,-111 118,-16 236,-29 353,-47 170,-26 340,-57 510,-84 161,-26 323,-51 485,-74 179,-25 359,-43 538,-72 184,-30 366,-70 550,-103 114,-20 229,-34 344,-49 101,-13 202,-26 303,-35 113,-9 225,-14 338,-20 22,-1 44,0 65,0 28,-79 33,-82 105,-84 -12,44 -19,90 -39,129 -8,15 -43,22 -67,23 -87,4 -175,-2 -262,5 -194,17 -389,31 -581,61 -290,44 -579,102 -868,151 -144,24 -290,40 -435,62 -117,18 -233,42 -349,60 -64,10 -129,13 -194,23 -187,28 -374,60 -561,87 -232,34 -465,65 -697,99 -109,16 -218,34 -327,54 -25,5 -48,25 -76,40 -81,-47 -169,-15 -252,0 -145,26 -286,67 -430,100 -61,14 -122,24 -183,35 -122,22 -245,42 -367,64 -22,4 -44,12 -66,17 -178,43 -355,92 -535,128 -213,42 -429,69 -643,109 -97,18 -192,49 -286,77 -120,35 -238,71 -364,78 -36,2 -72,14 -108,23 -147,39 -293,85 -442,118 -152,33 -307,50 -459,81 -110,22 -219,57 -328,85 -134,35 -266,79 -406,83 -74,2 -93,19 -94,90 -2,158 -3,316 3,474 3,87 19,174 28,261 2,17 3,34 1,51 -24,217 6,434 0,652 -2,64 16,129 16,193 -1,133 -10,265 -12,398 -1,59 7,118 8,178 3,226 3,453 8,679 4,184 12,367 17,550 1,30 -8,60 -15,89 -9,40 -20,79 -28,110 -154,28 -301,54 -448,80 -161,29 -322,58 -483,87 -67,12 -134,22 -200,38 -76,18 -109,142 -52,198 20,20 28,37 27,65 -2,112 -1,225 0,337 0,23 4,45 4,68 1,181 0,362 4,543 4,192 15,384 19,577 4,198 1,395 6,593 5,181 15,362 25,543 11,218 25,435 36,653 6,113 10,226 15,339 1,22 5,44 8,65 68,0 132,1 196,0 31,-1 46,-21 45,-51 -1,-57 -3,-113 -7,-170 -14,-214 -28,-429 -44,-643 -12,-163 -30,-326 -43,-489 -5,-65 -5,-130 -6,-195 -3,-130 -2,-260 -8,-390 -6,-138 205,-302 353,-246 59,22 88,66 102,125 8,35 24,68 34,103 7,24 15,49 15,73 -2,326 31,649 53,974 7,101 8,203 13,305 2,36 -11,58 -49,67 -78,19 -156,12 -233,1 -21,-3 -40,-19 -58,-28 30,-227 17,-449 -7,-671 -7,-67 0,-135 -1,-203 -1,-104 -2,-209 -6,-313 -2,-56 -6,-110 24,-176 17,32 28,53 48,91 -3,-95 38,-133 114,-132 23,-113 -18,-166 -126,-168 -20,0 -40,0 -59,3 -56,9 -81,32 -85,88 -13,166 -32,333 -5,500 2,14 4,29 2,42 -38,197 18,387 39,580 6,51 10,101 14,152 11,135 21,271 31,406 7,96 12,191 16,287 0,6 -9,12 -16,21 -31,-13 -31,-39 -33,-63 -12,-192 -23,-384 -37,-575 -9,-124 -23,-248 -35,-371 -1,-7 -6,-15 -23,-20 25,360 51,720 76,1087 103,-5 195,-11 287,-15 138,-6 277,-11 415,-17 17,-1 34,2 51,1 90,-2 95,-10 88,-98 -12,-144 -20,-288 -27,-432 -8,-178 -15,-356 -18,-535 -3,-156 0,-311 0,-467 0,-61 -17,-123 22,-196 2,35 3,55 4,76 4,115 17,232 11,346 -16,286 31,569 24,855 -3,143 25,286 39,440 161,-2 315,0 469,-7 135,-7 269,-25 404,-37 70,-6 140,-12 211,-15 212,-7 424,-13 635,-18 158,-4 316,-6 475,-7 84,-1 169,6 253,5 96,-1 193,-18 288,-10 180,15 361,4 541,36 112,20 231,5 347,5 51,0 101,-2 152,-1 132,1 265,5 397,2 144,-3 287,-13 432,0 183,16 367,17 551,22 139,3 277,3 416,4 54,0 109,2 145,-52l-1 1c68,-6 135,-17 203,-16 63,1 126,15 199,24 0,-89 0,-169 0,-251 -132,-4 -268,32 -394,-23 -2,-15 -5,-23 -3,-26 66,-82 94,-172 67,-277 -3,-13 -3,-28 -2,-42 33,-268 4,-537 0,-805 -2,-147 0,-294 -6,-441 -8,-209 -21,-418 -32,-626 0,-6 0,-12 -1,-17 -15,-54 -52,-104 -12,-159 -106,-53 -107,-55 -86,-148 10,3 19,6 28,10 8,3 15,7 25,12 37,-33 60,-68 58,-123 -5,-167 -5,-334 -8,-500 -4,-204 -10,-407 -14,-611 -2,-130 -3,-260 -2,-390 1,-103 31,-139 128,-158 191,-38 382,-78 574,-110 164,-27 331,-42 496,-67 251,-39 503,-80 753,-124 83,-15 165,-42 247,-61 58,-14 117,-22 174,-36 54,-13 106,-31 165,-48 3,12 10,30 10,48 1,141 -1,282 1,423 1,85 11,169 12,254 3,181 -1,362 4,543 3,138 11,277 23,415 4,44 27,85 40,128 16,55 47,111 -22,156 -11,7 -17,40 -10,52 29,48 23,90 -4,135 -7,11 -7,27 -7,41 1,124 4,249 5,373 1,98 -1,196 -1,294 1,127 5,254 6,381 1,167 0,334 0,501 0,104 2,209 5,313 0,19 8,38 13,63 132,0 260,0 399,0 5,-52 10,-102 16,-157 71,-18 143,-33 220,-32 50,1 101,-7 150,-18 44,-9 66,-39 63,-87 -5,-76 -8,-152 -10,-229 -5,-201 -12,-401 -13,-602 -1,-189 7,-379 7,-568 0,-104 -14,-209 -13,-313 1,-164 12,-328 14,-492 3,-388 5,-775 4,-1163 0,-119 -13,-237 -16,-356 -2,-102 1,-204 3,-305 0,-19 9,-37 28,-57 3,23 10,46 8,69 -18,187 14,373 20,559 2,82 2,164 1,246 -1,121 -5,243 -5,364 0,379 0,758 1,1138 0,20 1,40 1,59 1,36 18,56 54,65 59,15 116,22 176,6 91,-25 103,-41 93,-141 -94,-38 -204,-32 -294,-99 17,0 35,-5 50,1 117,43 237,45 359,33 40,-4 64,-18 67,-60 1,-22 4,-45 6,-78 41,10 80,19 118,29 -78,12 -89,22 -105,98 -5,25 -8,50 -12,74 -43,-9 -84,-17 -126,-26 -8,21 -13,31 -15,42 -23,131 21,185 154,192 17,1 36,-3 50,3 16,7 40,24 40,36 -1,59 -9,119 -23,178 -35,-30 -19,-68 -20,-102 -1,-66 -5,-71 -70,-80 -20,-3 -42,-1 -58,-11 -83,-51 -174,-42 -264,-39 -50,2 -101,0 -153,0 -26,85 -18,103 67,118 125,23 251,42 377,63 24,4 47,10 75,24 -73,11 -99,56 -108,125 126,53 261,63 394,94 -25,-1 -49,-2 -74,-4 -25,-2 -51,-6 -76,-9 -36,-5 -73,-10 -109,-15 -81,-12 -91,-4 -101,81 -1,8 0,17 -2,25 -8,45 -14,47 -69,21 0,-10 -4,-27 1,-30 41,-26 30,-61 25,-97 -39,-7 -74,-13 -110,-21 -37,-7 -73,-16 -112,-24 7,-13 9,-17 10,-17 30,2 61,4 91,8 55,6 103,-34 107,-90 2,-27 -10,-44 -36,-49 -100,-18 -199,-38 -300,-52 -51,-7 -62,8 -65,64 -2,56 0,113 -3,169 -2,44 15,69 59,77 111,20 221,41 332,61 -15,9 -30,24 -46,27 -21,3 -44,-3 -76,-6 -10,38 -19,74 -31,122 156,26 301,50 447,74 -1,7 -2,14 -3,21 -35,-5 -71,-9 -106,-14 -48,-6 -95,-16 -143,-18 -60,-2 -67,8 -83,84 26,12 52,24 81,37 -41,8 -77,15 -124,24 -7,-5 -27,-19 -47,-33 -9,9 -17,14 -19,21 -6,19 -13,38 -14,57 -5,97 2,111 87,119 33,3 65,14 96,36 -61,-9 -121,-19 -182,-25 -64,-7 -128,-9 -192,-14 0,-7 -1,-13 -1,-20 16,-2 32,-6 48,-5 102,6 103,6 104,-99 0,-22 0,-45 0,-72 -52,-15 -103,-31 -155,-46 1,-6 3,-12 4,-18 15,0 29,-2 43,0 47,9 93,24 141,31 76,11 87,0 103,-87 -94,-43 -204,-20 -297,-78 43,-2 86,-7 129,-5 35,1 53,-14 61,-45 7,-32 -3,-56 -35,-67 -8,-3 -16,-6 -24,-8 -166,-49 -153,-26 -156,110 -8,305 13,610 7,916 -2,101 11,203 16,305 2,40 18,66 60,67 59,2 119,2 178,0 38,-1 48,-26 39,-59 -16,-57 -34,-114 -53,-179 -57,-9 -116,-19 -193,-32 59,-28 103,-18 145,-13 108,12 108,13 124,-92 2,-11 4,-22 8,-33 2,-4 8,-7 18,-14 22,29 -2,58 1,86 3,29 12,58 20,91 -20,7 -44,15 -69,23 -10,74 21,136 46,197 8,20 50,34 79,38 53,6 107,2 161,3 81,2 92,14 96,94 1,20 1,40 4,59 12,82 32,103 115,102 136,-2 271,-8 407,-10 33,-1 67,7 101,23 -19,2 -38,7 -57,7 -167,0 -334,1 -501,-2 -65,-1 -129,-12 -194,-13 -59,-1 -73,14 -76,57 -3,48 14,69 70,75 95,10 191,17 286,27 16,2 31,10 34,11 9,77 17,143 25,210 57,22 110,43 172,16 41,-18 71,6 64,49 -17,112 -14,222 3,334 -47,-45 -46,-103 -46,-161 0,-56 0,-112 0,-162 -67,-6 -125,-15 -182,-16 -23,0 -47,15 -70,23 -18,-11 -40,-28 -64,-38 -22,-8 -47,-8 -77,-13 31,-58 93,-25 126,-65 -44,-48 -103,-11 -157,-36 38,-10 70,-19 103,-26 42,-10 61,-35 63,-84 -262,-9 -513,-85 -784,-74 -2,37 -7,73 -5,108 3,57 9,63 65,66 87,6 175,11 263,15 104,4 114,15 101,123 -1,8 1,17 3,37 49,-11 97,-21 148,-32 10,87 19,169 28,251 -5,1 -9,2 -13,3 -16,-70 -32,-139 -50,-213 -63,-6 -102,31 -136,78 -69,-63 -184,-26 -253,-122 81,17 142,74 217,49 32,-104 20,-129 -76,-141 -76,-9 -152,-12 -229,-13 -55,0 -65,12 -67,65 -1,31 -7,65 3,93 23,65 13,129 7,193 -8,88 9,180 -33,267 -7,-3 -19,-5 -20,-10 -12,-56 -55,-72 -101,-72 -91,1 -182,9 -274,25 122,15 238,49 364,84 -41,41 -80,39 -119,34 -171,-22 -342,-43 -512,-68 -47,-7 -94,-21 -139,-36 -18,-6 -31,-25 -46,-37 26,-39 52,-23 75,-17 96,28 191,2 287,-1 47,-1 53,-29 34,-107 -110,0 -221,0 -343,0 41,-57 100,-25 143,-59 -6,-16 -7,-41 -19,-48 -56,-29 -115,-15 -182,-7 -4,41 -8,81 -13,129 -33,-23 -31,-52 -31,-79 -2,-85 -2,-170 -5,-255 -2,-75 -25,-96 -99,-91 -68,5 -135,10 -203,18 -87,10 -99,31 -85,116 13,78 21,156 30,230 -61,39 -114,73 -167,107l0 0c18,-24 34,-51 55,-73 65,-68 81,-145 47,-233l-1 -1c-4,-22 -8,-45 -12,-67 -6,-40 12,-73 25,-110 34,-101 99,-110 187,-93 35,7 74,-3 113,2 -65,71 -151,46 -237,47 46,41 216,29 303,-16 -8,-292 -16,-585 -24,-888 -44,11 -75,20 -106,27 -94,-89 -124,-207 14,-320 20,8 43,17 66,27 -3,24 -6,47 -9,70 5,1 9,3 14,4 7,-13 19,-26 19,-38 -1,-76 -5,-152 -8,-228 -1,-34 -3,-67 -3,-101 4,-155 9,-310 13,-465 0,-5 -5,-10 -9,-19 -50,8 -102,16 -154,24 -37,5 -55,-17 -46,-59 8,-38 22,-75 32,-111 21,16 46,48 62,44 24,-6 42,-37 75,-71 -42,0 -62,0 -87,0 2,-31 3,-58 5,-92 -15,3 -29,6 -47,9 -15,-47 11,-71 43,-90 61,19 15,114 100,118 12,-136 35,-269 22,-404 -3,-30 -21,-46 -51,-46 -45,0 -91,-2 -136,3 -64,8 -80,42 -60,101 17,50 31,102 49,160 -20,-3 -30,-4 -45,-6 0,56 0,112 0,171 24,12 47,24 81,40 -27,16 -44,27 -61,37 -32,157 6,311 9,466 5,226 15,452 17,679 2,254 -2,509 -3,763 0,41 6,82 9,123 -34,16 -47,-5 -53,-27 -6,-24 -7,-50 -6,-75 5,-170 16,-339 17,-509 2,-229 3,-458 -5,-687 -7,-203 -28,-406 -39,-609 -7,-124 -6,-249 -10,-373 -3,-85 -5,-169 -12,-254 -4,-55 -23,-102 -78,-132 -62,-33 -60,-37 -31,-97 11,-23 21,-46 37,-83 -32,3 -58,-1 -77,8 -68,30 -140,40 -213,50 -86,12 -170,39 -256,58 -79,18 -162,56 -238,47 -104,-12 -190,43 -290,43 -98,0 -195,31 -292,47 -56,9 -112,15 -168,25 -23,4 -59,7 -51,42 3,15 32,26 55,43 -22,71 -48,150 -69,230 -9,32 -11,67 -11,101 -1,107 -8,215 3,321 11,97 6,191 -4,287 -3,28 -2,57 5,84 36,147 27,298 33,447 6,164 18,327 25,491 2,54 -1,107 -2,161 -1,82 -5,164 0,245 1,24 23,51 41,70 21,22 48,38 64,50 0,86 -2,164 1,242 1,30 -9,50 -35,60 -23,10 -48,16 -72,23 -52,14 -107,21 -154,43 -46,22 -91,27 -139,27 -71,0 -141,2 -212,2 -44,0 -88,-1 -98,43 -94,-5 -178,-12 -262,-12 -215,-2 -430,1 -645,-1 -79,-1 -158,-9 -237,-14 -271,-18 -543,2 -814,-2 -155,-2 -311,4 -466,1 -82,-2 -163,-15 -245,-22 -191,-16 -382,-32 -575,-17 -93,7 -186,2 -279,3 -149,2 -299,5 -448,5 -130,1 -260,-1 -390,-2 -6,0 -11,-1 -17,-1 -118,9 -235,19 -353,28 -101,8 -203,16 -304,24 -22,2 -45,4 -67,6 -84,8 -168,18 -252,23 -56,4 -113,3 -169,3 -42,-1 -84,-4 -125,-7 -14,-1 -29,-9 -41,-6 -137,35 -276,4 -413,11 -206,11 -412,27 -618,39 -53,3 -106,0 -163,0 -5,40 -8,69 -12,107 -34,-29 -65,-48 -85,-75 -13,-18 -16,-47 -16,-72 -9,-280 -17,-560 -26,-839 0,-5 -4,-10 -12,-25 -45,29 -92,54 -132,87 -41,34 -75,76 -114,113 -37,34 -41,95 -110,126 14,-40 23,-64 37,-103 -40,49 -71,87 -100,123 37,5 91,11 144,18 39,6 71,19 65,74 -46,0 -90,0 -145,0 0,107 0,213 0,320 -39,11 -71,19 -105,28 -38,-41 -28,-91 -28,-137 0,-51 8,-102 9,-152 2,-68 -8,-82 -75,-86 -81,-5 -163,-1 -253,-1 -17,97 -44,198 -3,301 18,44 17,88 0,139 -40,-5 -78,-10 -124,-15 -1,-88 -3,-172 -4,-257 0,-45 3,-91 3,-136 -1,-74 -3,-77 -76,-100 -13,-4 -26,-10 -40,-16 -2,-56 25,-95 63,-125 51,-41 105,-77 157,-116 95,-71 189,-143 285,-214 17,-12 39,-22 60,-23 119,-4 237,-6 356,-7 93,-1 113,-21 111,-117 -6,-269 -12,-537 -18,-806 -5,-212 -11,-424 -16,-635 -6,-252 -9,-503 -17,-755 -2,-79 -12,-158 -22,-236 -6,-49 -45,-72 -92,-55 -18,7 -33,21 -50,32 -102,66 -204,132 -306,198 -8,5 -19,7 -36,-2 49,-36 98,-72 148,-107 51,-36 102,-72 154,-105 47,-29 96,-55 163,-92 15,-74 -16,-166 -13,-256 -58,-25 -107,39 -162,-14 38,-39 74,-81 115,-116 25,-22 28,-43 27,-74 -4,-101 -5,-203 -6,-305 -1,-104 -2,-209 -2,-313 0,-110 0,-221 1,-331 2,-192 4,-385 7,-577 1,-42 3,-85 3,-127 1,-266 4,-532 1,-797 -2,-156 -12,-311 -21,-466 -8,-138 -18,-275 -27,-405 -78,-44 -144,-81 -211,-118 18,-47 40,-81 85,-104 125,-63 246,-132 369,-199 12,-7 31,-10 37,-20 46,-77 127,-85 201,-109 62,-20 120,-47 149,-114 8,-18 32,-31 51,-40 87,-41 174,-82 234,-163 13,-17 36,-27 54,-41 54,-40 107,-82 162,-121 25,-18 52,-34 79,-48 87,-44 119,-101 104,-199 -5,-31 1,-49 31,-57 5,6 10,11 15,17 30,51 53,108 17,159 -33,48 -75,97 -125,123 -96,51 -154,152 -261,184 -5,1 -7,9 -12,12 -123,93 -242,193 -371,277 -121,78 -252,140 -387,213 16,4 22,7 27,6 150,-51 299,-102 449,-153 112,-39 224,-79 337,-116 32,-11 72,-26 98,-15 51,22 94,6 140,-4 124,-27 249,-53 372,-82 226,-53 451,-107 676,-160 55,-13 110,-27 165,-39 116,-25 233,-47 348,-74 209,-48 418,-102 627,-148 107,-24 218,-33 325,-57 171,-39 340,-86 510,-127 104,-25 210,-45 315,-67 55,-12 110,-22 165,-35 41,-9 82,-28 123,-31 186,-14 360,-101 550,-91 6,0 11,-1 17,-3 138,-32 275,-65 413,-96 124,-28 247,-63 372,-82 315,-50 633,-90 942,-173 22,-6 44,-13 67,-13 186,1 361,-65 543,-89 171,-23 340,-62 510,-86 232,-33 465,-57 698,-87 126,-16 252,-34 377,-55 128,-21 255,-52 383,-70 294,-41 588,-75 879,-134 14,-3 29,-7 41,-2 11,4 18,18 27,28l1 -1z"/>
  <path class="fil0" d="M13193 14751c-3,-6 -6,-13 -10,-18 -1,-1 -12,4 -12,5 1,7 4,13 6,20 5,-2 9,-4 17,-6zm-1 77c-12,-9 -17,-16 -22,-15 -7,1 -16,6 -19,13 -2,3 6,17 7,17 9,-2 18,-7 34,-14zm21 158c-9,11 -13,17 -18,23 8,6 15,14 23,16 4,1 11,-10 17,-15 -7,-7 -13,-14 -22,-23zm-377 -444c4,5 8,11 11,16 12,-8 24,-15 36,-23 -4,-6 -11,-17 -12,-17 -12,7 -24,15 -36,23zm158 9c-18,-19 -35,-40 -62,-16 -5,4 -4,24 1,30 25,26 44,15 61,-14zm-408 374c-5,86 13,145 53,187 -26,-62 11,-129 -53,-187zm137 -167c-33,38 -66,58 -83,109 47,-12 80,-21 120,-31 -14,-29 -23,-48 -38,-78zm18 367c64,-70 68,-118 22,-179 -7,59 -14,109 -22,179zm545 -159c5,-4 9,-8 14,-12 -17,-36 -34,-73 -60,-130 -24,42 -37,66 -52,93 40,19 70,34 99,48zm-277 -321c34,39 60,68 91,102 26,-47 31,-79 1,-110 -30,-32 -54,0 -92,8zm-319 308c-40,63 -32,117 -13,177 55,-64 58,-103 13,-177zm8978 -2416c-21,62 22,69 50,85 36,20 72,28 103,-25 -51,-20 -97,-38 -153,-60zm-8629 2256c-23,-55 -42,-93 -89,-112 -27,-11 -50,-32 -76,-46 -11,-7 -27,-16 -36,-12 -10,3 -19,20 -21,32 -6,33 -6,67 -12,100 -9,47 8,71 55,66 56,-6 111,-17 179,-28zm-499 -5029c2,-56 -5,-95 -52,-115 -54,-23 -103,-5 -140,32 -33,33 -81,67 -43,137 79,-18 157,-36 235,-54zm3154 -527c-38,-23 -66,-38 -94,-56 -72,-47 -150,-98 -235,-70 -81,26 -164,33 -245,51 -203,46 -406,94 -609,141 -54,13 -74,31 -64,61 15,42 50,29 79,24 80,-14 160,-33 240,-48 97,-18 194,-33 291,-53 72,-14 143,-33 214,-52 29,-8 63,-16 85,-35 51,-44 100,-46 154,-11 35,22 70,45 103,70 28,21 49,53 95,52 -6,-31 -11,-55 -15,-75zm-2340 5748c111,-16 214,-31 317,-47 128,-20 256,-40 384,-60 89,-14 178,-28 268,-40 115,-15 230,-29 345,-42 98,-11 196,-18 294,-27 143,-14 286,-29 430,-43 79,-8 158,-12 236,-22 23,-3 60,-19 62,-33 11,-71 54,-138 29,-222 -26,6 -51,12 -79,18 26,45 6,63 -28,56 -44,-10 -75,-1 -103,47 -22,-62 -62,-59 -107,-60 -185,-7 -368,20 -549,45 -266,36 -530,86 -794,135 -228,42 -456,84 -688,98 -23,1 -46,11 -74,18 21,66 39,121 59,182zm8561 1001c-27,-9 -39,-15 -52,-18 -174,-39 -348,-77 -521,-117 -220,-51 -440,-103 -659,-159 -213,-55 -424,-121 -638,-170 -131,-31 -262,-66 -396,-87 -220,-34 -437,-90 -655,-139 -154,-35 -307,-73 -461,-110 -55,-13 -109,-37 -164,-41 -112,-7 -216,-39 -320,-77 -50,-18 -103,-30 -155,-44 -114,-31 -229,-63 -343,-94 -134,-36 -267,-73 -401,-106 -156,-39 -313,-72 -469,-113 -159,-41 -316,-89 -474,-130 -115,-30 -231,-55 -346,-82 -19,-4 -44,-12 -56,-4 -45,30 -66,77 -67,130 -1,50 29,96 76,111 56,18 114,34 171,49 216,57 432,114 648,170 161,42 323,84 485,122 140,32 282,58 424,87 227,46 454,95 682,137 289,54 580,97 868,154 211,41 419,96 628,145 113,27 224,57 337,83 96,22 194,37 291,58 213,47 425,95 637,143 77,17 155,32 232,52 182,49 365,99 553,101 14,-16 27,-29 39,-43 19,16 33,27 49,40 17,-15 32,-27 59,-51zm-15660 -4481c-5,-6 -10,-11 -15,-17 19,-19 35,-45 58,-56 193,-90 396,-150 598,-212 189,-58 377,-118 566,-177 19,-6 38,-12 57,-15 253,-36 496,-113 739,-187 192,-58 386,-110 580,-162 262,-71 523,-146 787,-207 213,-49 417,-126 628,-178 415,-101 823,-231 1247,-295 103,-16 204,-47 306,-70 113,-26 226,-51 340,-75 76,-17 77,-16 84,-91 11,-122 169,-222 284,-179 41,15 60,48 75,86 30,80 31,78 116,61 166,-33 334,-62 500,-95 152,-31 304,-67 456,-98 138,-28 277,-54 416,-79 97,-18 194,-33 295,-49 3,-22 4,-38 6,-54 8,-49 34,-83 84,-95 148,-36 296,-72 444,-109 58,-14 113,-38 171,-48 134,-22 266,-48 393,-97 20,-8 40,-12 58,-11 47,0 86,25 108,72 29,62 70,85 134,74 4,-1 9,5 18,11 -2,9 -1,20 -5,29 -43,93 -26,169 60,223 93,59 190,112 285,167 162,93 324,186 487,277 123,69 248,136 373,202 75,40 150,79 226,117 30,15 61,25 92,37 18,7 37,13 54,22 106,59 209,122 317,178 151,78 302,155 457,224 207,92 419,171 625,265 241,110 494,182 745,261 50,16 91,26 125,-28 18,-27 46,-30 76,1 -16,28 -32,56 -50,87 18,11 35,21 51,31 28,16 43,37 30,70 -16,41 2,71 34,96 64,51 128,102 194,151 61,46 124,89 186,133 9,7 20,14 24,23 41,85 117,127 194,170 49,28 94,63 139,98 50,39 105,63 169,73 50,7 101,22 145,46 126,67 259,112 393,157 147,49 292,103 438,156 7,3 16,4 21,9 93,87 166,113 299,112 14,0 28,12 42,19 -12,13 -22,34 -36,37 -73,15 -128,53 -165,124 -14,1 -30,0 -46,3 -67,10 -117,65 -116,133 2,96 11,192 14,288 3,90 -1,181 2,271 3,93 10,186 13,280 7,206 12,412 17,619 3,119 5,238 6,357 0,62 2,125 -7,186 -18,121 -17,242 -6,364 9,101 6,204 11,305 1,29 16,58 19,88 2,27 2,56 -6,81 -19,60 -17,117 11,184 53,9 110,20 169,27 59,7 108,26 140,94 -35,16 -67,31 -99,45 -58,26 -59,27 -47,100 -19,0 -37,0 -64,0 -6,26 -16,52 -19,79 -19,217 -17,433 6,652 22,207 13,418 17,627 2,121 2,243 3,364 0,47 0,95 0,143 22,7 37,14 54,17 219,40 439,79 658,119 27,5 58,5 60,51 -16,4 -31,11 -46,10 -197,-22 -392,-54 -583,-109 -44,-13 -93,-9 -149,-13 -5,94 -9,176 -14,276 -38,-43 -27,-77 -27,-109 0,-164 4,-328 0,-491 -4,-183 -16,-366 -22,-550 -5,-160 -8,-321 -9,-482 0,-178 5,-356 6,-534 1,-81 -6,-91 -87,-108 -105,-23 -211,-40 -316,-63 -152,-34 -302,-72 -454,-106 -201,-46 -402,-92 -604,-135 -110,-24 -223,-39 -333,-64 -124,-29 -245,-68 -368,-98 -179,-42 -358,-84 -538,-118 -406,-77 -813,-146 -1218,-223 -219,-42 -437,-93 -655,-141 -174,-39 -347,-79 -521,-119 -30,-7 -61,-20 -85,14 -24,34 -40,69 -6,108 7,7 7,20 10,29 -8,6 -14,13 -16,12 -96,-53 -210,-36 -308,-79 -37,-17 -86,-16 -105,-63l-1 1c33,7 66,13 98,22 49,13 97,33 147,40 98,14 109,5 147,-106 -75,-21 -150,-43 -225,-63 -199,-54 -398,-108 -598,-162 -16,-4 -33,-8 -49,-7 -158,10 -315,19 -473,33 -124,11 -247,26 -371,41 -199,24 -398,50 -596,75 -70,9 -140,16 -210,27 -187,27 -374,56 -561,84 -6,1 -11,1 -17,3 -71,16 -93,38 -72,105 21,65 -8,112 -28,171 -60,-35 -82,-113 -163,-113 -9,10 -22,24 -36,39 -8,-10 -16,-16 -17,-23 -4,-25 -5,-50 -7,-76 -5,-78 -16,-87 -93,-80 -53,5 -106,7 -163,-4 16,-5 31,-14 47,-16 42,-5 85,-11 127,-10 88,3 93,-47 56,-109 -13,-22 -27,-42 -45,-69 -41,5 -86,8 -129,18 -66,15 -90,73 -94,127 -6,91 -40,169 -78,248 -28,57 -59,59 -102,11 -44,-50 -76,-104 -91,-170 -11,-46 -30,-91 -49,-143 -98,17 -193,31 -286,49 -241,48 -482,97 -723,147 -29,6 -55,21 -87,33 13,31 30,53 31,75 4,59 -42,109 -107,105 -166,-8 -326,31 -488,51 -261,32 -521,69 -781,110 -246,39 -490,87 -735,129 -151,26 -302,46 -453,71 -173,29 -346,58 -518,91 -97,18 -192,46 -289,63 -153,27 -307,48 -460,73 -126,20 -250,47 -376,65 -213,30 -426,54 -639,84 -87,12 -172,34 -258,51 -23,5 -47,6 -73,1 24,-38 64,-44 99,-52 234,-54 472,-91 712,-111 118,-10 235,-33 352,-53 176,-30 351,-63 526,-93 250,-43 504,-70 751,-128 265,-63 536,-86 802,-136 417,-77 837,-141 1256,-206 176,-27 354,-41 531,-61 21,-2 42,-8 65,-12 -37,-86 -75,-108 -151,-91 -235,50 -470,105 -706,150 -244,47 -490,85 -735,128 -75,13 -150,30 -225,44 -300,56 -599,117 -903,149 -123,13 -244,46 -366,69 -89,17 -178,33 -267,46 -324,48 -649,98 -974,140 -247,32 -491,77 -733,132 -7,2 -16,-3 -27,-6 2,-47 41,-52 70,-61 68,-20 137,-38 206,-51 122,-23 245,-44 368,-61 252,-35 505,-63 757,-101 237,-36 473,-84 710,-123 145,-24 291,-41 437,-62 159,-24 319,-48 478,-76 301,-52 601,-105 901,-160 156,-28 311,-60 466,-90 164,-33 327,-66 491,-100 22,-5 46,-8 64,-20 28,-18 54,-19 87,-18 47,2 95,-10 142,-19 272,-56 543,-113 815,-169 25,-5 50,-8 76,-11 71,-7 136,-28 200,-63 99,-55 156,-133 176,-244 26,-139 163,-204 282,-128 66,42 121,101 179,155 58,54 82,57 145,8 16,-12 30,-26 47,-37 27,-17 27,-15 73,11 -57,37 -114,74 -171,111 1,4 2,8 3,11 77,-4 155,-2 232,-13 257,-38 514,-82 771,-123 226,-36 448,-92 679,-101 147,-6 293,-26 439,-41 83,-9 89,-16 90,-100 1,-85 -3,-170 0,-255 9,-296 22,-593 31,-889 8,-254 15,-509 16,-763 1,-178 -11,-356 -12,-534 -1,-85 14,-169 15,-254 1,-82 -7,-164 -9,-246 -3,-119 -6,-238 -6,-356 0,-32 5,-67 37,-89 0,96 3,189 -1,281 -4,84 27,137 107,172 69,30 131,76 198,112 27,14 57,24 87,30 45,9 79,28 99,71 -90,-29 -184,-44 -263,-108 -57,-46 -128,-76 -201,-100 -17,57 -9,97 37,118 122,56 245,108 367,162 24,-29 42,-50 60,-72 19,4 34,14 20,34 -26,40 -54,79 -91,133 1,-73 -45,-93 -89,-111 -47,-20 -96,-33 -144,-52 -47,-18 -92,-40 -149,-66 -12,85 -30,162 -31,240 -2,198 8,395 7,593 -1,198 -8,396 -13,594 -7,283 -15,565 -21,848 -3,147 -4,294 -4,440 0,44 8,89 13,143 40,-4 73,-5 105,-12 48,-11 91,-9 140,10 121,47 247,79 376,100 187,30 369,85 549,146 56,19 116,22 174,34 141,30 282,57 422,92 200,50 400,104 599,158 109,30 215,70 325,96 278,65 557,126 836,187 155,34 311,60 465,97 250,59 499,124 748,186 11,3 21,9 32,10 184,23 353,102 531,147 151,38 304,65 456,97 89,19 177,38 266,56 21,4 43,5 71,8 4,-31 10,-56 9,-80 -3,-201 -9,-402 -11,-602 -1,-90 4,-181 7,-271 3,-74 9,-147 9,-220 0,-153 0,-306 -5,-458 -6,-181 -19,-362 -26,-542 -5,-156 -5,-311 -8,-467 -1,-59 -8,-119 -8,-178 0,-85 2,-169 7,-254 7,-132 -2,-147 -126,-192 -194,-71 -387,-142 -582,-211 -216,-77 -432,-152 -649,-227 -133,-46 -266,-95 -400,-138 -94,-30 -189,-59 -286,-77 -168,-32 -325,-95 -487,-144 -162,-50 -326,-94 -489,-139 -41,-11 -83,-14 -125,-22 -178,-34 -354,-76 -519,-153 -8,-4 -15,-8 -24,-10 -281,-65 -545,-190 -831,-238 -63,-11 -124,-38 -186,-57 -168,-50 -336,-100 -504,-151 -200,-60 -401,-121 -601,-182 -46,-14 -92,-30 -136,-47 -26,-10 -54,-21 -52,-58 22,-29 47,-11 69,-3 105,35 207,76 313,108 243,74 488,144 732,216 38,11 75,24 112,39 193,75 398,108 598,160 82,22 161,54 242,80 65,21 130,38 195,59 75,24 149,54 225,77 111,33 222,64 334,93 197,51 396,95 592,150 144,40 284,96 427,139 162,49 328,86 490,138 296,95 591,195 884,298 194,69 385,148 578,221 63,24 128,41 192,61 27,-36 -3,-46 -22,-60 -20,-15 -37,-36 -59,-46 -96,-40 -193,-79 -291,-115 -151,-55 -308,-95 -449,-178 -29,-17 -63,-26 -96,-32 -165,-33 -314,-107 -465,-177 -97,-45 -202,-73 -304,-106 -194,-62 -388,-122 -582,-183 -218,-69 -436,-139 -653,-209 -124,-40 -245,-86 -369,-124 -135,-41 -271,-76 -407,-115 -32,-9 -64,-21 -96,-32 -11,-4 -20,-12 -31,-15 -242,-65 -474,-162 -723,-207 -152,-27 -300,-79 -449,-121 -54,-15 -108,-32 -162,-51 -186,-65 -373,-129 -558,-198 -79,-29 -155,-68 -232,-104 -29,-14 -51,-36 -50,-73 0,0 -1,1 -1,1 28,5 57,4 82,14 116,45 229,95 345,140 105,41 211,80 318,116 104,36 209,70 315,102 116,35 234,68 351,98 178,46 357,88 536,132 22,5 43,14 64,22 106,39 210,82 318,115 121,37 245,65 368,97 14,4 27,9 40,14 125,43 250,88 376,130 166,55 333,108 500,163 215,70 430,142 645,211 63,20 130,32 194,48 22,-53 12,-88 -24,-115 -106,-79 -212,-159 -319,-238 -9,-6 -21,-9 -32,-11 -117,-24 -228,-66 -338,-110 -100,-40 -207,-66 -300,-117 -97,-54 -199,-92 -300,-137 -62,-27 -119,-64 -179,-97 -32,-18 -64,-37 -97,-52 -158,-69 -316,-137 -484,-177 -22,-5 -43,-14 -64,-24 -195,-94 -392,-185 -585,-284 -125,-64 -248,-134 -381,-181 -52,-19 -97,-57 -146,-85 -184,-104 -393,-155 -572,-274 -106,-70 -207,-161 -343,-174 -3,0 -5,-2 -8,-4 -78,-45 -157,-90 -234,-136 -14,-8 -24,-23 -36,-34 4,-4 7,-9 11,-13 34,17 69,35 103,52 81,40 160,85 244,116 59,22 113,47 167,80 105,66 213,128 323,183 131,66 268,122 401,184 77,36 151,76 227,112 43,21 89,36 132,58 165,84 331,167 495,255 155,83 320,143 487,193 125,38 240,97 357,152 179,84 353,178 533,258 144,65 294,117 442,173 20,8 43,9 72,15 13,-26 25,-49 38,-77 -80,-40 -143,-88 -226,-110 -155,-41 -310,-89 -460,-149 -307,-123 -612,-250 -914,-386 -283,-127 -561,-266 -841,-401 -96,-47 -183,-109 -274,-165 -195,-120 -398,-226 -599,-337 -116,-64 -236,-123 -351,-189 -132,-76 -263,-155 -390,-239 -93,-61 -188,-63 -291,-40 -151,34 -304,63 -456,94 -108,22 -220,32 -323,67 -100,35 -204,35 -305,57 -212,47 -428,78 -642,117 -50,9 -98,27 -148,36 -236,45 -472,85 -708,132 -216,43 -432,90 -647,137 -262,57 -525,113 -786,174 -239,56 -478,115 -716,179 -210,56 -418,121 -626,182 -32,10 -63,25 -96,33 -102,23 -205,42 -306,66 -269,63 -538,130 -802,210 -252,76 -503,154 -755,227 -111,32 -225,55 -338,79 -61,13 -127,10 -183,34 -190,84 -396,117 -592,180 -161,52 -321,107 -482,161 -48,16 -97,30 -145,45z"/>
  <path class="fil0" d="M18431 20394c-5,-25 -6,-36 -9,-47 -46,-128 -44,-119 -153,-93 -16,4 -32,3 -56,5 50,-40 171,-60 254,-49 -7,30 -23,61 -20,90 11,90 29,103 120,105 181,3 362,3 541,-23 16,-2 31,-10 44,-14 20,-50 -25,-103 20,-159 6,26 10,41 13,56 11,76 41,105 118,101 82,-4 163,-15 245,-22 70,-6 140,-9 211,-15 27,-2 55,-9 83,-14 -7,-75 -14,-144 -20,-212 -82,-3 -82,-3 -102,97 -18,-6 -36,-12 -59,-20 -3,38 -6,72 -9,107 -5,1 -11,2 -16,3 -5,-19 -11,-37 -16,-56 -14,-56 -25,-63 -84,-52 -28,5 -55,15 -83,17 -29,2 -59,-3 -89,-5 -1,-6 -1,-12 -2,-18 17,-2 33,-4 50,-6 53,-6 108,-6 159,-20 33,-9 65,-34 88,-60 50,-56 28,-111 -46,-126 -8,-2 -16,-3 -33,-7 46,-20 101,-15 111,-77 -13,-12 -27,-24 -51,-45 25,-18 44,-38 67,-47 26,-10 55,-8 83,-14 35,-7 54,-29 50,-67 -1,-14 0,-28 1,-42 3,-125 -9,-136 -136,-121 -33,4 -66,13 -96,19 -18,91 -11,105 63,121 33,7 67,10 101,21 -39,0 -78,4 -117,-1 -101,-11 -115,3 -98,102 4,24 1,49 1,74 -9,-2 -16,-1 -19,-4 -59,-55 -66,-53 -88,23 -3,10 -8,19 -18,43 -12,-36 -20,-58 -31,-89 -42,6 -85,11 -128,17 -2,-5 -4,-10 -6,-16 18,-7 35,-18 54,-22 36,-6 73,-6 109,-13 74,-15 80,-27 70,-121 -37,-2 -75,-4 -123,-6 55,-45 119,-21 177,-42 0,-26 0,-52 0,-87 -184,-8 -367,34 -566,-17 30,-3 41,-5 52,-6 240,-6 479,-11 719,-17 70,-2 78,-8 79,-80 3,-136 0,-272 5,-408 5,-121 19,-242 26,-364 4,-79 1,-158 2,-237 1,-116 5,-232 4,-348 -1,-85 -11,-169 -11,-254 0,-88 9,-175 12,-262 6,-147 9,-294 15,-440 2,-38 10,-75 15,-113 7,1 14,1 21,2 0,20 1,41 0,61 -5,90 -12,180 -17,271 -7,138 -14,277 -17,415 -1,73 8,147 11,220 1,25 3,51 2,76 -4,133 -8,266 -13,398 -9,220 -20,441 -29,661 -2,45 0,90 1,136 2,54 9,107 8,161 -1,115 -8,230 -8,346 0,29 13,59 22,95 -51,4 -84,-77 -141,-33 -10,30 -23,61 -29,94 -5,30 -8,62 -2,92 10,49 27,56 79,40 13,-4 26,-7 51,-14 6,37 12,68 15,100 3,39 -1,80 5,118 9,50 26,61 77,56 132,-12 263,-28 395,-37 124,-8 248,-7 372,-12 54,-2 107,-9 160,-13 287,-26 575,-49 862,-78 107,-11 212,-33 318,-50 17,-3 34,-6 50,-8 24,-3 57,-14 63,22 6,38 -31,31 -54,36 -31,6 -62,9 -92,17 -230,64 -469,67 -704,96 -162,20 -327,24 -490,37 -202,15 -404,33 -606,48 -191,14 -383,25 -574,39 -59,4 -118,14 -177,19 -228,20 -456,44 -684,58 -129,8 -259,-3 -389,-2 -82,1 -164,10 -245,16 -28,2 -56,9 -84,11 -132,9 -265,18 -397,25 -186,9 -372,15 -558,26 -107,6 -214,19 -321,27 -79,5 -158,8 -237,9 -201,2 -400,15 -598,53 -97,19 -199,16 -311,24 17,-41 27,-66 36,-89 7,-4 13,-9 17,-9 174,13 343,-29 514,-47 118,-12 237,-9 355,-16 124,-6 247,-15 371,-23 84,-6 169,-12 253,-17 98,-6 196,-10 300,-15 0,-64 0,-125 0,-189 17,-7 33,-15 55,-25 -9,71 -41,132 -17,203 129,15 255,-8 381,-12 1,-102 -5,-109 -84,-111 -30,-1 -61,0 -91,0 0,-7 0,-14 0,-21 35,-1 69,-2 104,-3 112,-2 138,-37 105,-142 -11,-35 -28,-69 0,-110 48,73 116,5 177,25 -16,98 50,194 -6,306 -2,-33 -4,-52 -5,-72 -1,-23 0,-45 -3,-68 -5,-47 -20,-89 -72,-104 -35,-11 -60,4 -55,39 8,63 14,121 -24,179 -19,30 14,75 53,79 28,3 57,2 85,-1 109,-12 217,-25 334,-39z"/>
  <path class="fil0" d="M13372 12855c-96,21 -176,36 -255,55 -44,10 -66,38 -64,86 4,81 3,163 7,244 1,24 13,48 23,79 99,-14 190,-41 279,-72 14,-5 33,-29 32,-43 -5,-112 -13,-223 -22,-348zm60 1052c-10,-213 -20,-413 -29,-620 -83,21 -154,38 -224,56 -84,21 -94,24 -97,112 -3,112 6,225 11,337 2,49 4,99 7,159 115,-15 220,-29 333,-44zm78 60c98,-12 196,-24 294,-35 36,-4 58,-21 60,-58 4,-67 14,-135 11,-202 -6,-130 -18,-259 -28,-389 -5,-68 -14,-135 -15,-203 -2,-141 0,-283 0,-425 0,-56 -5,-113 -5,-169 0,-102 3,-204 3,-306 0,-18 -8,-36 -14,-65 -50,21 -92,45 -137,56 -148,36 -298,66 -446,102 -120,30 -239,65 -359,98 0,142 -1,277 0,412 0,45 7,90 8,135 5,164 9,328 14,492 2,64 5,129 6,193 3,95 -1,190 9,284 10,99 26,106 119,73 8,-3 13,-10 15,-11 0,-188 12,-373 -3,-555 -22,-280 -15,-559 -15,-839 0,-60 11,-70 71,-88 60,-18 119,-36 179,-54 113,-35 226,-72 340,-106 22,-7 45,-6 77,-9 -15,56 -45,69 -84,76 -58,11 -116,22 -172,39 -97,30 -193,66 -290,96 -70,22 -73,25 -79,99 -7,82 32,165 -8,246 -1,2 6,9 13,18 74,-15 152,-27 227,-48 62,-17 68,-32 70,-99 1,-54 -1,-108 1,-161 1,-15 12,-29 18,-44 6,2 11,3 17,5 0,58 -3,117 1,175 4,75 11,79 81,64 52,-11 104,-26 156,-37 15,-3 30,0 52,0 -14,42 -43,50 -73,57 -47,11 -94,18 -140,31 -69,20 -73,24 -72,94 1,56 12,112 14,169 7,146 6,146 144,113 28,-7 60,-17 82,31 -48,11 -91,20 -133,30 -74,18 -77,20 -74,97 5,147 11,294 20,441 2,35 17,69 28,112 92,-25 175,-47 268,-72 3,-95 11,-193 7,-291 -8,-206 -25,-412 -34,-618 -8,-172 -11,-344 -15,-517 -1,-54 -3,-108 5,-161 4,-28 9,-66 52,-88 3,27 8,46 6,64 -7,64 -25,127 -25,190 1,181 5,362 14,543 10,200 29,400 41,600 5,84 -2,169 2,254 4,84 4,89 -80,109 -74,18 -148,35 -222,52 -164,19 -329,36 -493,58 -35,5 -76,11 -100,49 26,4 50,2 74,-3 36,-7 71,-16 106,-23 137,-27 275,-54 412,-82zm375 -1924c-26,201 -36,386 -31,571 3,127 16,254 12,381 -6,230 39,456 44,684 1,59 -1,118 -1,177 0,28 0,56 0,91 -46,47 -114,43 -176,54 -156,26 -312,50 -468,75 -120,19 -239,39 -359,57 -13,2 -28,-1 -45,-2 -5,-20 -12,-39 -14,-57 -14,-197 -24,-394 9,-591 8,-46 -1,-96 -2,-144 -3,-136 -5,-271 -7,-407 0,-14 3,-30 -2,-42 -44,-116 -9,-234 -16,-351 -3,-48 -7,-96 -10,-144 -3,-36 2,-66 46,-78 175,-46 349,-94 523,-141 136,-37 272,-76 408,-113 26,-7 54,-11 91,-19z"/>
  <path class="fil0" d="M10164 17751c-9,0 -17,-1 -26,-2 -4,29 -10,58 -11,87 -1,85 11,172 -3,254 -23,140 8,277 8,415 0,29 -2,74 42,69 46,-5 27,-47 25,-76 -6,-121 -13,-243 -17,-364 -4,-113 -4,-226 -7,-338 0,-15 -7,-30 -11,-46zm738 -82c-102,20 -108,26 -108,108 0,17 3,34 4,51 11,135 24,270 31,406 7,124 7,249 11,373 1,16 8,31 11,46 95,3 113,-12 103,-98 -8,-63 -21,-126 -38,-188 -25,-90 -25,-191 -14,-285 16,-136 4,-270 -1,-412zm-756 1614c-13,39 -27,78 -45,131 -24,-50 -15,-90 -2,-123 34,-91 27,-184 24,-277 -4,-133 -8,-266 -15,-398 -6,-107 -16,-214 -23,-321 -3,-37 -5,-73 -4,-110 3,-158 15,-317 10,-475 -5,-166 -26,-332 -38,-499 -3,-41 0,-83 0,-124 6,-1 11,-3 17,-4 6,10 18,19 18,29 9,141 17,282 26,422 2,37 8,73 16,109 2,11 14,21 28,40 9,-26 19,-40 19,-55 -3,-130 -3,-260 -12,-389 -7,-101 9,-145 108,-170 145,-36 292,-63 439,-90 55,-10 79,18 80,80 2,133 3,266 6,399 1,53 7,107 10,160 83,-4 104,-21 102,-90 -4,-147 -12,-293 -16,-440 -2,-78 0,-156 0,-234 7,-1 13,-2 20,-3 5,13 15,25 16,38 2,116 2,232 5,348 2,90 11,180 12,271 3,172 0,344 3,516 1,44 14,89 18,133 7,93 9,186 16,279 13,158 17,316 11,474 -6,143 -12,287 -19,436 -39,-14 -35,-44 -35,-69 3,-93 8,-186 12,-280 3,-79 5,-158 6,-238 0,-13 -5,-27 -9,-46 -35,2 -68,4 -109,6 -25,160 27,321 13,479 -10,1 -19,1 -29,2 -5,-28 -15,-56 -16,-84 -3,-155 -1,-311 -6,-466 -7,-248 -1,-497 -41,-744 -12,-72 -8,-147 -4,-220 6,-111 -5,-220 -27,-329 -8,-37 -5,-69 11,-106 31,-70 13,-143 -12,-216 -59,-12 -113,7 -168,17 -80,14 -160,31 -240,44 -103,16 -129,52 -120,155 10,121 3,244 24,362 13,74 -17,140 -9,211 8,73 10,147 12,220 3,127 5,254 7,381 0,3 0,6 0,8 -10,72 37,137 25,212 -11,69 -12,140 -9,210 3,56 16,112 29,167 12,54 11,105 -21,169 -10,-26 -22,-40 -20,-51 13,-52 1,-100 -8,-150 -13,-81 -15,-163 -21,-244 -1,-14 1,-28 0,-42 -2,-24 5,-59 -32,-57 -34,2 -32,36 -31,60 2,88 4,175 10,263 7,104 17,209 -10,312l1 -1z"/>
  <path class="fil0" d="M8980 18716c7,0 13,0 20,1 2,-16 6,-32 6,-48 -1,-107 -3,-213 -6,-320 -3,-124 -7,-248 -11,-372 -1,-27 -3,-54 -4,-79 -37,-9 -57,3 -57,29 0,90 2,180 7,270 3,50 18,99 22,150 10,123 16,246 24,369zm516 31c24,-101 -3,-878 -32,-941 -46,18 -48,18 -50,51 -3,68 -6,135 -6,203 1,130 3,260 8,389 3,81 13,163 23,244 3,28 10,58 57,54zm-584 -907c70,-12 75,-16 68,-66 -11,-72 -33,-144 -39,-217 -12,-167 13,-176 154,-207 116,-26 233,-48 350,-71 -33,66 -27,135 -21,205 6,70 3,140 4,211 0,16 0,32 0,48 52,9 53,-23 56,-55 14,-147 15,-293 -7,-439 -9,-61 -24,-73 -84,-60 -80,17 -159,37 -238,56 -55,13 -111,22 -165,39 -83,26 -94,41 -83,129 6,54 5,105 1,159 -7,89 -3,178 5,268zm159 937c-31,27 -30,69 -14,115 6,15 7,33 7,50 1,76 2,152 2,228 0,29 -1,58 -14,88 -41,-69 -25,-144 -31,-217 -6,-75 -14,-151 -22,-246 -38,71 -20,129 -22,184 -3,62 -1,124 -1,187 0,59 0,118 0,185 -48,-22 -41,-55 -41,-83 -1,-73 4,-147 3,-221 -2,-93 -9,-186 -10,-279 -1,-47 12,-95 9,-142 -7,-127 -21,-253 -30,-380 -6,-79 0,-159 -13,-236 -23,-137 -10,-275 -23,-413 -8,-87 -6,-175 -9,-263 -2,-59 4,-64 62,-77 148,-34 296,-72 444,-105 50,-11 102,-14 152,-21 0,200 -2,389 1,578 3,223 11,447 16,670 3,110 3,220 8,330 2,49 14,98 16,148 3,82 -1,163 1,245 1,70 2,141 10,211 19,160 -35,185 -152,163 -91,-17 -185,-22 -278,-31 -50,-5 -100,-6 -151,-9 2,-39 29,-36 49,-35 96,7 191,16 287,24 42,3 85,7 127,6 58,-1 84,-19 75,-76 -23,-148 4,-293 3,-440 0,-25 -5,-52 -15,-74 -8,-17 -28,-27 -52,-36 -15,82 -16,159 -13,237 3,76 34,150 26,227 -6,2 -12,3 -18,5 -7,-13 -19,-25 -21,-38 -10,-73 -20,-146 -25,-219 -12,-169 -23,-338 -33,-507 -2,-39 1,-79 1,-119 -1,-232 -3,-464 -3,-696 0,-45 10,-90 10,-135 0,-59 -4,-118 -12,-176 -2,-13 -24,-30 -40,-34 -18,-4 -39,3 -58,7 -69,14 -137,30 -206,43 -68,13 -91,39 -94,109 -1,14 -2,29 2,42 67,212 40,431 48,647 6,158 11,316 19,473 2,32 16,63 27,104z"/>
  <path class="fil0" d="M18040 13868c-7,-6 -15,-9 -15,-12 -8,-144 -34,-289 -20,-431 25,-260 -1,-519 17,-778 2,-30 -8,-50 -37,-59 -48,-14 -97,-26 -154,-42 -8,76 -17,142 -21,209 -7,115 -6,115 99,155 21,8 42,17 61,29 7,4 9,17 13,25 -6,5 -9,9 -11,8 -30,-9 -59,-18 -88,-27 -60,-19 -75,-9 -78,56 0,6 0,11 0,17 0,169 1,339 1,508 0,89 0,179 0,268 27,-68 -13,-149 39,-198 -5,-46 -13,-81 -12,-116 6,-143 40,-286 7,-431 -7,-31 2,-60 40,-65 0,113 8,223 -2,331 -9,96 -22,189 3,285 16,62 14,129 18,194 0,6 -6,13 -19,37 -14,-47 -25,-80 -38,-123 0,22 0,34 0,45 1,81 1,81 76,110 50,19 100,40 151,55 36,10 75,12 107,18 8,-13 11,-15 11,-18 -1,-88 18,-172 -21,-264 -31,-72 -12,-167 -12,-251 1,-84 8,-169 10,-253 2,-101 -2,-203 1,-304 3,-93 9,-186 19,-279 5,-45 -10,-69 -51,-83 -75,-26 -149,-54 -224,-79 -23,-8 -48,-8 -71,-11 -24,49 -10,80 29,97 33,15 69,25 103,37 41,15 82,30 128,46 -45,144 -68,279 -39,418 6,29 -7,61 -8,92 -1,28 -6,61 6,82 21,35 12,62 3,96 -15,59 -30,121 -29,182 2,116 15,231 23,346 2,27 7,55 -18,77zm158 -463c6,-66 13,-132 19,-197 -6,0 -12,-1 -18,-1 0,66 0,133 0,199 -6,49 -11,98 -17,147 5,0 10,1 16,1 0,-49 0,-99 0,-148zm-442 -1056c60,-19 118,-21 176,-5 81,23 164,43 243,70 58,20 63,34 58,97 -2,22 -10,45 -9,67 1,23 11,45 17,68 3,10 9,20 8,30 -16,143 -18,285 -4,429 11,109 -4,220 -6,330 -3,161 -4,322 -6,483 0,28 0,55 0,96 -164,-38 -305,-110 -462,-135 0,-81 0,-157 0,-232 0,-212 0,-424 -2,-636 -1,-127 -6,-253 -11,-380 -1,-31 -9,-61 -14,-92 -10,-64 -19,-129 12,-190z"/>
  <path class="fil0" d="M7597 18571c-5,-16 -15,-32 -15,-48 -2,-107 -1,-214 -4,-321 -1,-33 -8,-66 -15,-99 -26,-133 -19,-265 -7,-399 37,110 -22,230 45,340 44,3 52,-25 48,-64 -8,-84 -16,-169 -23,-253 -2,-19 0,-38 0,-66 43,23 37,56 41,84 8,58 16,116 24,175 4,28 8,56 8,84 -2,130 -6,259 -8,389 0,48 7,96 10,143 6,96 1,194 19,287 22,117 -20,233 12,348 10,35 11,73 18,109 11,58 20,66 78,67 59,2 117,0 188,0 8,-110 -17,-223 -18,-337 -1,-113 -9,-226 -12,-339 -3,-116 -3,-232 -7,-348 -3,-113 -11,-226 -14,-339 -2,-115 -1,-230 -1,-346 -100,-41 -193,19 -291,10 45,-58 193,-87 323,-67 0,20 1,42 0,63 -5,70 -25,140 32,202 9,10 2,37 -1,55 -2,20 -11,39 -11,58 0,11 14,21 21,32 11,-10 31,-19 32,-29 2,-79 0,-158 -1,-237 -1,-47 -6,-95 -4,-142 4,-79 -19,-102 -98,-90 -89,13 -179,25 -268,37 -5,1 -10,-3 -20,-7 113,-48 232,-53 348,-69 57,-8 75,16 76,75 0,20 -1,40 -8,58 -16,42 -9,82 -1,124 8,40 5,84 4,125 -2,68 -3,135 37,186 -10,37 -27,70 -27,103 1,113 7,226 11,338 0,8 -3,16 -8,38 -29,-64 -27,-118 -26,-172 2,-76 4,-153 0,-229 -1,-17 -20,-45 -34,-48 -29,-5 -35,22 -35,46 0,70 -1,140 0,211 2,113 5,226 7,339 1,48 1,96 1,144 0,14 -4,31 3,42 11,17 26,40 43,43 30,6 34,-23 34,-46 1,-59 1,-119 2,-178 0,-28 0,-55 5,-84 26,106 -16,224 61,321 -45,79 -47,474 0,555 -52,48 -115,49 -180,48 -56,-1 -113,-4 -168,-1 -43,3 -82,4 -136,-24 27,-6 39,-11 51,-11 45,-2 90,-3 134,-3 42,0 84,0 126,6 60,8 113,-2 112,-87 0,-37 0,-73 1,-110 2,-76 6,-152 7,-227 0,-22 -3,-47 -14,-65 -8,-13 -32,-26 -47,-23 -11,2 -26,29 -25,43 9,104 19,208 33,312 15,109 -3,129 -112,101 -75,-19 -149,-18 -228,3 -5,-17 -12,-32 -14,-48 -12,-115 -24,-231 -34,-346 -3,-30 -6,-58 -49,-52 0,73 2,146 -1,218 -3,71 14,144 -12,213 -6,0 -13,0 -19,0 0,-275 0,-550 0,-826 6,39 14,77 17,116 4,66 4,132 5,199 58,-7 61,-40 60,-76 -7,-206 -13,-412 -23,-617 -1,-30 3,-67 -26,-94 -10,8 -22,13 -22,18 -4,152 -7,304 -10,457z"/>
  <path class="fil0" d="M7661 13547c-7,0 -13,0 -20,0 -15,95 13,186 42,277 -7,-93 -15,-185 -22,-278zm44 657c-60,88 -19,177 -18,265 2,145 11,204 41,244 -7,-164 -15,-336 -23,-508zm367 345c0,-41 1,-103 0,-165 -2,-119 -2,-237 -6,-356 -5,-149 -12,-298 -21,-446 -4,-67 -10,-135 -28,-199 -17,-61 -40,-67 -103,-55 -55,11 -111,21 -165,34 -41,9 -82,20 -122,33 -10,3 -17,17 -25,27 2,6 5,11 7,17 101,-17 203,-32 303,-53 69,-14 97,4 87,76 -26,187 11,372 18,558 7,183 37,364 55,530zm-49 158c-3,-427 -95,-838 -78,-1266 -87,17 -163,25 -234,49 0,56 -8,105 2,150 17,74 8,145 1,218 -7,66 -10,137 4,201 31,136 40,272 36,412 -3,95 7,191 43,288 81,-18 156,-36 226,-52zm-338 142c-8,-50 -14,-87 -21,-125 -5,-28 -13,-56 -14,-84 -7,-147 -11,-293 -18,-440 -8,-161 -15,-322 -28,-483 -8,-98 -26,-196 -39,-294 -7,-53 6,-66 55,-75 94,-18 188,-38 282,-55 41,-7 82,-10 125,-15 32,98 48,188 48,282 -1,164 7,327 26,491 14,126 4,254 6,381 1,59 7,118 9,177 2,61 0,122 0,184 -7,5 -15,10 -22,15 -5,-15 -11,-30 -12,-34 -138,26 -269,50 -396,74z"/>
  <path class="fil0" d="M7040 14352c3,0 6,0 9,0 0,-71 0,-142 0,-213 -3,0 -6,0 -9,0 0,71 0,142 0,213zm-323 560c8,-66 23,-134 -15,-197 5,66 10,132 15,197zm-25 -926c25,-81 23,-143 0,-196 0,67 0,131 0,196zm362 16c9,-130 24,-260 -13,-388 3,130 -15,260 13,388zm-80 -385c-62,16 -116,29 -170,43 -56,15 -65,24 -59,82 22,200 -17,400 5,600 15,134 -6,270 15,406 12,83 26,172 -28,255 86,20 163,13 240,-8 52,-14 52,-12 95,28 12,-25 27,-55 -3,-66 -43,-18 -32,-45 -30,-76 2,-25 -1,-50 -3,-75 -7,-79 -16,-157 -22,-236 -10,-127 -19,-253 -27,-380 -6,-84 -13,-169 -14,-253 -1,-79 7,-158 9,-236 1,-24 -5,-49 -9,-83zm117 -97c0,113 0,217 0,320 -1,87 5,176 -5,262 -17,139 9,275 19,412 11,154 15,309 21,464 1,24 0,49 0,82 -143,28 -280,56 -416,83 -2,-7 -5,-15 -7,-22 29,-22 67,-24 102,-29 35,-6 70,-9 103,-26 -50,-3 -99,-6 -149,-9 -54,-4 -69,-16 -79,-69 -8,-42 -15,-84 -16,-126 -1,-141 4,-283 2,-424 -2,-144 -11,-288 -15,-432 -4,-113 -4,-226 -7,-339 -1,-54 37,-66 77,-73 63,-12 128,-29 191,-28 50,1 92,-3 130,-38 7,-6 21,-4 49,-9z"/>
  <path class="fil0" d="M10578 13690c3,0 7,0 10,-1 -5,-96 -10,-192 -17,-288 -9,-126 -10,-126 -128,-88 -81,27 -79,26 -68,114 23,174 51,347 43,523 -5,96 0,192 1,289 0,20 -2,41 4,59 4,14 20,36 29,35 44,-4 92,-6 131,-25 16,-8 20,-55 18,-85 -6,-178 -15,-356 -23,-534zm-12 -441c-14,-143 0,-285 -23,-427 -26,0 -43,-3 -59,0 -102,20 -204,41 -306,63 -53,11 -67,30 -64,91 6,112 15,224 24,336 0,5 6,9 15,21 48,-7 101,-12 153,-22 31,-6 34,-31 33,-59 -2,-66 -1,-132 -1,-198 28,76 -13,165 49,241 57,-15 114,-30 180,-47zm-232 88c-54,7 -101,11 -147,19 -33,5 -46,27 -42,61 7,67 13,135 16,203 10,226 18,451 27,677 3,80 26,99 107,85 98,-16 102,-21 102,-119 0,-96 -3,-192 0,-288 8,-193 -29,-382 -49,-573 -2,-16 -7,-32 -15,-65zm256 1051c-62,-21 -118,-2 -176,11 -60,14 -122,25 -183,29 -57,3 -76,-16 -83,-74 -5,-39 -1,-79 -3,-119 -12,-251 -24,-503 -36,-754 0,-8 1,-18 -2,-25 -49,-137 -25,-280 -32,-420 -1,-20 -2,-40 -3,-59 -7,-84 9,-110 92,-132 76,-21 154,-36 231,-54 79,-18 158,-37 233,-54 36,536 71,1078 109,1638 -42,-32 -44,-59 -45,-87 -8,-203 -12,-407 -24,-610 -9,-160 -28,-319 -57,-476 0,134 -1,268 0,403 1,70 13,141 7,211 -13,165 30,326 26,490 -1,31 18,63 29,98 -175,76 -361,81 -545,101 148,-62 316,-51 462,-119z"/>
  <path class="fil0" d="M19852 15027c9,-6 16,-10 22,-14 -6,-5 -11,-11 -18,-13 -4,-1 -10,3 -15,5 3,7 6,13 10,23zm106 -132c14,-28 28,-52 38,-78 19,-48 10,-59 -58,-65 4,47 -38,97 20,143zm21 -241c-17,-26 -33,-56 -55,-81 -28,-33 -57,-32 -84,3 -22,28 -38,60 -65,103 43,-5 73,-9 103,-13 32,-4 63,-7 101,-12zm-235 97c8,133 47,183 130,147 3,-49 30,-99 4,-163 -45,5 -90,11 -134,16zm399 -16c-76,63 -111,137 -138,219 -16,47 -72,84 -115,119 -30,24 -63,17 -86,-20 -42,-69 -94,-131 -99,-220 -3,-50 -39,-97 -66,-158 16,-12 37,-39 63,-45 56,-13 76,-52 95,-98 18,-42 42,-82 68,-133 -1,-2 -8,-19 -17,-41 73,-44 66,-108 37,-170 -16,-34 -41,-69 -71,-90 -53,-37 -87,-27 -131,27 19,15 39,30 58,45 36,28 52,66 53,111 1,32 -12,55 -47,60 -39,6 -88,-29 -95,-69 -7,-41 23,-44 53,-49 -73,-33 -118,-23 -157,37 -34,52 -59,108 -56,174 3,59 1,119 -2,178 -1,20 -10,41 -16,61 -6,0 -12,0 -18,0 -4,-17 -12,-33 -12,-50 -1,-84 1,-169 2,-253 2,-148 62,-289 231,-349 96,-34 206,15 251,119 32,72 50,148 24,230 -27,86 33,220 108,274 30,22 52,55 84,89z"/>
  <path class="fil0" d="M7142 19099c3,0 6,0 10,-1 -1,-12 -1,-25 -2,-37 -3,0 -6,0 -10,1 1,12 1,25 2,37zm-26 -1019c-7,0 -15,1 -22,1 1,19 2,38 3,57 5,0 11,0 16,0 1,-19 2,-38 3,-57zm74 1389c-90,70 -197,58 -300,64 -40,2 -81,-9 -122,-22 91,-46 194,23 294,-38 -39,-3 -69,-8 -100,-8 -25,-1 -51,5 -76,4 -53,-2 -65,-11 -67,-66 -4,-90 -2,-181 -3,-271 0,-25 3,-52 -2,-76 -4,-15 -21,-28 -32,-41 -10,15 -26,29 -29,45 -4,21 1,45 4,67 2,22 6,44 5,66 -59,-101 -7,-207 -27,-310 6,-1 11,-2 17,-4 11,23 22,46 41,88 45,-122 6,-226 7,-329 1,-106 6,-212 -34,-314 -29,159 14,319 -10,498 -37,-185 -21,-351 -23,-516 0,-11 -1,-26 6,-33 77,-74 37,-169 45,-254 5,-58 -7,-118 -11,-184 81,-39 165,-64 256,-71 5,44 -23,49 -46,56 -43,13 -87,24 -131,35 -37,10 -52,33 -40,70 21,67 19,130 -3,199 -12,38 7,87 13,130 1,10 12,20 11,30 -12,206 13,411 25,616 8,126 -15,249 -7,374 6,87 3,92 91,112 41,9 83,18 124,27 5,1 11,-3 25,-7 1,-18 4,-39 3,-60 -8,-203 -18,-406 -25,-610 -5,-129 -8,-259 -11,-388 -1,-65 2,-130 -3,-194 -5,-61 -17,-122 -28,-183 -8,-47 -18,-93 11,-151 39,64 14,139 73,190 27,-91 -10,-183 33,-263 27,141 -40,285 18,423 -35,85 -87,165 -59,264 5,16 5,34 2,51 -20,144 10,287 2,431 -1,13 4,26 22,42 8,-49 16,-98 24,-147 5,0 9,1 14,1 -1,21 -3,41 -2,62 2,38 5,77 9,115 3,25 9,50 12,75 10,98 19,197 28,295 4,41 17,84 -26,115 -3,-94 11,-190 -43,-279 -5,94 -10,189 -15,285 21,-2 40,-5 59,-7z"/>
  <path class="fil0" d="M9204 13548c5,153 11,293 15,434 2,79 -1,157 1,236 3,104 7,208 13,312 1,20 16,39 24,57 93,-19 99,-25 106,-100 2,-28 3,-56 2,-85 -7,-169 -15,-338 -20,-507 -3,-87 1,-175 -1,-262 -1,-29 -8,-59 -13,-94 -45,3 -80,6 -126,9zm-1 1057c-4,-131 -8,-249 -10,-367 -2,-164 2,-328 -2,-492 -2,-66 -20,-132 -30,-199 -1,-9 -5,-21 -1,-28 33,-56 15,-115 11,-174 -5,-58 -8,-117 -12,-175 12,4 16,9 16,14 7,87 13,174 20,262 4,51 27,71 76,70 39,-1 55,-18 56,-67 1,-62 5,-125 -5,-186 -10,-62 3,-131 -45,-186 -63,10 -123,22 -185,28 -82,9 -98,14 -95,96 4,123 -55,246 2,368 3,6 -4,16 -4,24 -2,39 -6,79 -5,118 6,155 12,311 20,466 5,90 13,180 19,270 1,22 3,45 1,68 -12,110 15,120 121,109 19,-2 37,-11 51,-16zm161 -1591c-40,65 -36,132 -15,203 13,42 16,88 17,133 7,262 11,525 18,787 3,118 10,237 19,355 2,29 17,57 29,92 -121,35 -237,87 -367,82 -59,-2 -74,-17 -76,-77 -2,-67 0,-135 -3,-202 -5,-141 -10,-282 -17,-423 -9,-169 -24,-338 -31,-506 -3,-89 -21,-180 20,-267 2,-5 2,-11 2,-17 3,-94 3,-94 89,-109 83,-15 165,-33 248,-48 22,-4 44,-1 67,-1l-1 -1z"/>
  <path class="fil0" d="M17305 15684c25,-141 25,-141 -101,-171 -3,-1 -5,-2 -8,-2 -246,-63 -499,-94 -738,-188 -54,-21 -88,-4 -105,38 -20,51 2,120 46,136 48,17 96,34 146,45 182,40 364,78 547,114 68,13 139,18 213,27zm-1699 -541c72,9 143,19 221,29 63,-9 6,-122 99,-124 -10,41 -20,77 -30,118 84,36 163,67 248,71 81,4 163,-3 226,-73 -6,33 -12,67 -19,106 224,54 440,106 656,158 69,16 137,34 207,46 45,8 91,5 149,8 20,77 -4,166 11,266 -47,-12 -81,-22 -116,-29 -175,-35 -350,-68 -524,-105 -86,-18 -170,-43 -255,-62 -33,-8 -67,-17 -99,-13 -47,6 -65,-15 -68,-54 -5,-56 -4,-112 -5,-169 0,-14 0,-27 0,-40 -11,-6 -18,-14 -25,-13 -85,8 -168,8 -252,-15 -41,-11 -56,9 -84,88 -5,-22 -9,-34 -9,-45 0,-45 -20,-66 -67,-68 -30,-1 -60,-14 -90,-21 -59,-14 -118,-28 -177,-42 1,-6 2,-13 3,-19z"/>
  <path class="fil0" d="M11429 20121c-7,-12 -9,-14 -9,-17 -2,-215 -4,-429 -6,-644 -2,-178 24,-354 8,-533 -13,-145 6,-293 6,-440 0,-217 -4,-435 -5,-652 0,-107 4,-214 6,-321 2,-122 6,-243 5,-365 -2,-212 -5,-423 -11,-635 -3,-101 -13,-202 -18,-303 -6,-112 -9,-225 -5,-339 7,45 19,90 21,135 14,268 42,534 36,803 -4,197 10,395 11,593 1,135 -9,270 -10,405 -1,56 12,113 11,169 -6,240 -19,480 -23,720 -2,109 9,219 14,329 2,42 0,84 1,126 3,206 -36,412 1,617 1,8 2,17 1,25 -11,106 -22,212 -33,327z"/>
  <path class="fil0" d="M11926 17105c2,0 4,0 5,-1 -7,-61 -12,-123 -23,-184 -3,-16 -20,-39 -33,-42 -80,-15 -158,-7 -225,44 -12,9 -23,28 -24,42 -1,90 -2,181 4,270 3,44 48,80 89,73 63,-10 131,-20 185,-51 49,-29 16,-94 21,-143 0,-3 0,-6 0,-8zm-238 324c-29,-34 -52,-59 -70,-86 -12,-18 -24,-39 -25,-60 -9,-110 -16,-220 -21,-330 -1,-27 3,-55 4,-87 71,-16 131,-38 176,-97 29,-38 59,-30 103,-5 31,17 67,28 101,36 65,15 74,29 66,92 -14,112 -28,224 -36,336 -8,112 -103,201 -216,195 -14,-1 -28,-1 -42,0 -14,1 -28,3 -39,5z"/>
  <path class="fil0" d="M9364 13015c-5,-18 -9,-37 -14,-55 -125,15 -246,30 -366,45 -47,6 -71,27 -81,79 -21,115 -36,227 -21,345 15,114 17,230 20,346 3,98 -7,197 -2,294 10,195 27,389 40,583 1,20 -2,41 -14,61 -36,-110 -16,-225 -30,-336 -14,-112 -22,-225 -28,-338 -6,-115 -4,-231 -7,-347 -3,-113 -10,-226 -10,-339 0,-115 6,-230 9,-357 99,-17 195,-34 292,-49 82,-13 165,-24 259,-38 36,564 26,1120 66,1672 -39,-94 -34,-193 -42,-290 -4,-53 -4,-107 -6,-160 -5,-155 -11,-310 -17,-465 -7,-186 -13,-372 -22,-558 -2,-32 -19,-64 -30,-96l1 1z"/>
  <path class="fil0" d="M15819 15887c-62,-26 -123,-52 -181,-76 45,-11 69,-5 188,42 63,24 127,45 193,68 22,-33 40,-59 69,-103 -2,31 0,42 -3,51 -17,46 7,67 46,83 33,13 63,33 96,58 -73,13 -78,72 -96,125 -27,-7 -51,-13 -79,-21 -27,40 -53,78 -84,126 42,19 80,36 118,52 38,16 78,30 118,45 -32,77 -63,148 -96,228 -27,-8 -55,-17 -84,-26 -69,-20 -91,-8 -111,61 -5,16 -4,33 -6,50l0 0c-11,13 -21,26 -32,39 -45,-17 -87,-32 -128,-50 -38,-16 -91,7 -128,-60 56,15 96,23 134,37 103,38 145,-7 137,-133 48,6 95,14 142,19 55,5 124,-91 104,-143 -4,-10 -13,-19 -23,-24 -41,-19 -82,-41 -125,-53 -92,-26 -185,-45 -278,-68 -30,-7 -59,-16 -89,-38 13,-3 27,-10 39,-8 69,15 137,35 206,50 57,12 93,-5 114,-49 16,-34 9,-67 -27,-75 -62,-14 -121,-68 -190,-21 -5,4 -17,1 -24,-2 -39,-15 -77,-31 -113,-59 36,6 72,13 107,19 31,-51 60,-99 89,-147 -8,40 -17,80 -26,124 77,42 161,51 244,64 76,12 76,12 103,-71 -31,-40 -70,-39 -108,-16 -47,-53 -104,-79 -214,-100z"/>
  <path class="fil0" d="M4483 19284c-5,-15 -14,-30 -15,-45 -7,-152 -14,-305 -18,-458 -6,-209 -18,-419 -11,-627 6,-163 -15,-322 -33,-481 -18,-161 -21,-322 -23,-483 0,-26 4,-52 6,-78 7,0 13,0 20,0 3,23 9,46 8,69 -4,253 38,501 61,752 14,151 15,304 16,457 1,198 -6,396 -3,593 1,81 17,163 25,244 2,19 -5,38 -7,58 -9,0 -17,-1 -26,-1z"/>
  <path class="fil0" d="M13441 19980c-16,12 -32,35 -49,36 -81,5 -162,1 -243,5 -81,3 -100,-11 -101,-94 0,-45 4,-90 5,-136 5,-189 -15,-376 -46,-563 -12,-71 -2,-145 -2,-234 36,73 22,139 44,200 -4,-73 -8,-146 -11,-219 -3,-65 -5,-130 -9,-195 -2,-31 -8,-61 -11,-92 -10,-106 -19,-211 -29,-317 6,-1 13,-3 19,-5 7,15 19,30 20,46 5,53 7,107 10,161 1,23 -2,46 3,68 44,231 47,464 35,699 -5,92 11,185 15,278 3,79 1,157 1,236 0,17 -4,34 -3,51 3,59 21,75 79,71 48,-3 96,-5 143,-14 47,-9 89,-1 131,19l-1 -1z"/>
  <path class="fil0" d="M13412 18279c2,0 3,0 5,0 0,-42 0,-83 0,-125 -2,0 -3,0 -5,0 0,42 0,83 0,125zm30 1703c-10,-234 -29,-468 -28,-702 1,-174 -16,-348 4,-524 15,-139 23,-282 -22,-420 -7,-21 -5,-45 -6,-67 -4,-152 -11,-304 -11,-456 0,-90 12,-180 30,-270 0,57 -3,113 1,170 13,200 32,400 43,600 5,93 -4,186 -5,279 -1,147 -2,294 -2,441 0,116 0,232 2,347 2,133 4,265 10,397 3,59 16,117 23,176 4,32 -10,42 -40,28l1 1z"/>
  <path class="fil0" d="M20564 14512c-5,-19 -16,-38 -15,-56 3,-147 11,-294 11,-441 -1,-203 -7,-406 -12,-609 -1,-63 -5,-127 100,-155 -41,-21 -67,-35 -94,-48 63,-31 249,24 327,76 -18,68 -68,23 -111,28 9,27 17,51 28,82 -76,-5 -143,-17 -211,-67 -22,203 20,398 12,594 -8,196 -5,393 -6,590 -10,2 -19,4 -29,6z"/>
  <path class="fil0" d="M21789 20132c-52,-31 -46,-71 -41,-104 29,-177 18,-355 18,-533 0,-223 -5,-446 -3,-669 1,-129 11,-258 33,-390 6,12 16,25 17,38 3,25 2,51 1,76 -21,305 -13,609 -2,914 6,158 -4,316 -7,474 0,17 -4,37 3,50 28,51 -4,91 -19,145z"/>
  <path class="fil0" d="M20890 14683c-11,4 -26,15 -35,11 -96,-38 -192,-79 -300,-124 59,-44 97,-9 135,3 40,12 78,30 129,50 3,-38 7,-67 7,-97 3,-235 5,-470 6,-704 1,-110 -1,-220 -2,-330 0,-49 5,-98 27,-149 11,12 18,16 18,20 2,101 5,203 3,304 -2,116 -10,232 -12,348 -3,181 -4,361 -2,542 0,38 14,76 24,126z"/>
  <path class="fil0" d="M6189 16308c6,18 19,37 18,55 -2,85 -11,169 -11,254 0,76 6,151 12,227 7,87 21,174 26,262 10,175 15,350 24,525 5,112 13,225 19,337 1,25 4,49 6,81 -42,-17 -39,-49 -41,-74 -8,-104 -21,-209 -20,-313 2,-207 -16,-412 -32,-618 -17,-231 -18,-463 -26,-695 0,-12 5,-25 8,-38 6,-1 11,-2 17,-3z"/>
  <path class="fil0" d="M10002 12901c9,120 20,239 25,359 7,166 9,333 16,500 3,62 14,123 20,185 7,70 14,141 18,211 4,85 5,170 6,254 0,15 -5,29 -21,45 -3,-12 -9,-24 -9,-37 -4,-93 -6,-187 -11,-280 -5,-82 -11,-163 -21,-245 -15,-121 -13,-242 -7,-364 5,-104 -9,-209 -17,-313 -7,-90 -19,-180 -27,-269 -1,-15 4,-32 6,-47 8,0 16,0 24,0z"/>
  <path class="fil0" d="M15905 16651c94,2 246,38 328,83 -43,0 -68,4 -92,-1 -77,-16 -83,-14 -117,56 -17,34 -26,82 -54,98 -23,13 -67,-12 -102,-20 -43,91 -21,127 106,178 -88,13 -221,-20 -338,-93 50,10 100,19 149,29 22,-65 22,-81 5,-170 53,13 103,25 156,37 12,-16 24,-28 31,-43 41,-84 36,-96 -52,-138 -7,-4 -13,-11 -19,-16 0,0 0,0 0,0z"/>
  <path class="fil0" d="M22617 18506c-45,20 -336,32 -450,12 -100,-18 -208,6 -302,-44 0,-7 -1,-14 -1,-21 16,-6 33,-19 48,-17 199,28 400,30 601,35 32,1 75,-12 103,35z"/>
  <path class="fil0" d="M10145 19285c20,0 42,-6 59,1 141,61 296,36 441,77 67,19 140,13 210,21 41,4 41,6 63,50 -4,3 -9,10 -13,10 -199,-22 -393,-73 -595,-78 -52,-1 -103,-27 -153,-45 -8,-3 -8,-24 -12,-37l-1 1z"/>
  <path class="fil0" d="M12900 20139c70,-41 144,-29 213,-25 191,13 384,0 583,29 -24,47 -58,41 -86,40 -160,-8 -321,-19 -481,-28 -56,-3 -113,-3 -169,-6 -20,-1 -40,-7 -60,-11z"/>
  <path class="fil0" d="M11818 14099c-59,7 -113,14 -173,22 35,-61 124,-90 219,-77 3,58 9,116 8,174 0,18 -18,47 -33,51 -62,16 -125,28 -189,34 -13,1 -37,-24 -41,-41 -5,-22 4,-47 9,-78 30,27 48,53 73,64 17,7 44,-3 64,-10 69,-26 71,-33 65,-138z"/>
  <path class="fil0" d="M10080 17012c43,-43 87,-48 131,-57 38,-8 76,-19 113,-30 149,-41 298,-83 447,-124 11,-3 25,2 38,3 -3,11 -3,20 -6,21 -17,9 -35,18 -54,23 -211,59 -423,117 -634,174 -7,2 -15,-4 -36,-11z"/>
  <path class="fil0" d="M15883 15757c0,-57 -24,-57 -51,-48 -4,1 -6,9 -13,20 19,8 37,16 64,28zm154 -177c-14,1 -28,4 -42,3 -48,-3 -68,26 -71,67 -3,47 -1,94 -1,153 -102,-41 -191,-82 -285,-110 3,-7 5,-15 8,-22 18,2 37,7 55,7 45,0 91,3 134,-6 59,-12 63,-22 63,-107 -70,-8 -141,-16 -218,-25 67,-39 182,-26 356,41z"/>
  <path class="fil0" d="M4982 17011c-238,24 -465,47 -691,69 -1,-3 -3,-6 -4,-9 38,-14 76,-35 116,-42 103,-17 206,-28 309,-42 58,-8 117,-14 175,-25 49,-9 53,-10 95,48z"/>
  <path class="fil0" d="M20684 13604c26,65 25,137 26,205 3,112 -10,225 -9,338 1,101 11,202 19,303 2,23 9,45 -34,56 -5,-39 -12,-76 -14,-114 -4,-65 -6,-129 -6,-194 0,-45 8,-90 8,-135 1,-144 16,-288 -19,-430 -2,-8 6,-19 10,-29 7,0 13,-1 20,-1z"/>
  <path class="fil0" d="M17966 19621c-1,-44 9,-53 41,-43 57,19 116,15 176,3 24,-75 -24,-126 -56,-179 -7,-12 -47,-10 -71,-7 -49,6 -98,18 -150,12 51,-15 102,-29 153,-45 53,-16 98,-5 125,43 28,50 71,50 117,46 56,-4 111,-10 167,-16 1,5 1,11 2,16 -79,10 -159,21 -238,31 -19,53 -3,89 49,123 -111,32 -212,-19 -315,15z"/>
  <path class="fil0" d="M14291 20151c-4,34 -26,49 -57,52 -155,15 -309,17 -463,-14 -10,-2 -19,-10 -32,-17 25,-35 57,-26 86,-25 155,1 310,2 465,4l1 1z"/>
  <path class="fil0" d="M11578 15215c310,-54 620,-107 936,-162 -12,44 -48,51 -78,52 -157,5 -304,59 -457,81 -133,19 -267,29 -401,43 0,-5 1,-9 1,-14z"/>
  <path class="fil0" d="M10238 19240c80,-39 445,-23 606,27 -36,10 -56,23 -74,20 -168,-21 -338,7 -505,-28 -7,-2 -13,-8 -28,-18z"/>
  <path class="fil0" d="M17031 19298c-37,138 -37,138 52,159 46,45 -12,120 53,163 -33,8 -62,16 -115,29 50,-48 70,-88 37,-131 -32,-42 -79,-50 -135,-49 72,-31 53,-94 64,-152 -89,-51 -189,-17 -286,-42 63,-37 184,-27 330,23z"/>
  <path class="fil0" d="M16930 20078c61,4 102,7 143,9 0,3 1,7 1,10 -49,6 -99,15 -148,17 -47,2 -94,-4 -148,-7 31,-42 78,-19 121,-44 9,-40 19,-88 30,-139 -104,-31 -198,-2 -295,-15 28,-4 56,-10 84,-13 65,-6 129,-10 194,-16 56,-5 68,14 50,70 -12,37 -19,75 -31,126z"/>
  <path class="fil0" d="M19914 16653c-32,-210 -38,-702 14,-790 -5,263 -10,526 -14,790z"/>
  <path class="fil0" d="M9977 12801c212,-61 423,-128 648,-149 -14,8 -26,18 -41,23 -32,10 -65,17 -98,26 -168,42 -335,84 -503,126 -2,-9 -4,-17 -6,-26z"/>
  <path class="fil0" d="M14748 20488c-55,32 -97,26 -137,15 -78,-23 -165,-22 -247,-76 23,-14 35,-27 45,-26 111,15 224,20 339,87z"/>
  <path class="fil0" d="M19717 19254c-18,11 -35,23 -54,31 -31,15 -75,-2 -98,37 -2,3 -21,0 -30,-5 -44,-26 -80,1 -127,12 13,38 24,69 35,99 -2,2 -5,5 -7,7 -14,-14 -31,-27 -43,-43 -49,-71 -35,-102 51,-118 61,-11 122,-25 183,-36 27,-5 54,-6 81,-9 3,8 6,16 8,23z"/>
  <path class="fil0" d="M18911 19640c-13,14 -31,27 -39,44 -17,36 1,66 41,73 20,4 39,6 68,11 -39,45 -69,79 -101,115 -3,-25 -6,-51 -9,-82 -64,4 -127,9 -190,13 50,-34 137,4 153,-76 9,-43 41,-105 -27,-141 50,-19 80,5 104,44l-1 -1z"/>
  <path class="fil0" d="M17512 19622c-42,-63 -11,-121 -4,-180 7,0 13,-1 20,-1 3,20 7,40 10,61 8,57 16,68 75,69 45,1 90,-5 134,-12 66,-11 131,-26 203,-26 -15,7 -29,19 -44,21 -108,17 -217,31 -325,48 -21,3 -41,12 -67,21z"/>
  <path class="fil0" d="M9473 19341c-28,15 -41,26 -55,29 -25,4 -51,6 -76,4 -90,-6 -180,-14 -275,-22 22,-44 66,-43 101,-44 87,-2 175,5 262,9 9,0 18,10 44,24z"/>
  <path class="fil0" d="M8989 14720c168,-30 336,-60 504,-90 2,7 4,13 6,20 -22,8 -43,19 -65,24 -146,34 -295,50 -442,74 -1,-9 -2,-18 -2,-27z"/>
  <path class="fil0" d="M17366 19369c5,-18 10,-37 18,-65 -57,5 -106,13 -156,14 -48,1 -100,15 -143,-32 17,-3 38,-13 50,-6 57,30 115,20 174,11 140,-22 192,-20 281,16 -83,-6 -159,12 -225,62l0 0z"/>
  <path class="fil0" d="M16160 15035c-8,24 -15,47 -20,63 -31,-14 -63,-30 -96,-41 -51,-16 -103,-27 -155,-41 -9,-2 -15,-13 -16,-33 39,10 77,20 116,31 82,23 108,12 149,-64 6,-11 11,-22 21,-41 36,50 -3,89 2,128 0,0 1,-1 1,-1z"/>
  <path class="fil0" d="M13032 18308c101,-38 207,-27 328,-28 -65,50 -233,63 -328,28z"/>
  <path class="fil0" d="M7014 13498c-117,27 -233,54 -350,81 -3,-6 -5,-12 -8,-18 17,-11 33,-27 52,-31 100,-23 198,-53 301,-59 2,9 3,18 5,26z"/>
  <path class="fil0" d="M18802 20060c-48,61 -51,121 -11,192 -76,27 -145,19 -215,7 51,-37 111,15 167,-22 -17,-52 -24,-107 13,-155 9,-12 30,-15 46,-22z"/>
  <path class="fil0" d="M7669 14905c48,-27 349,-78 400,-69 -64,34 -334,81 -400,69z"/>
  <path class="fil0" d="M18207 19848c0,21 0,43 0,68 22,7 43,13 70,22 -37,17 -67,30 -96,43 -36,-64 -36,-63 -110,-55 -24,3 -49,0 -83,0 72,-38 162,-3 219,-78z"/>
  <path class="fil0" d="M17855 19436c-100,7 -174,11 -263,17 33,-48 69,-33 98,-35 33,-2 66,-1 103,-1 3,-52 6,-93 9,-153 59,62 2,119 53,172z"/>
  <path class="fil0" d="M6387 19433c-6,-179 -11,-358 -17,-537 5,0 9,0 13,0 8,179 17,358 25,536 -7,0 -14,0 -22,1z"/>
  <path class="fil0" d="M14130 20626c42,-48 81,-98 125,-143 23,-23 55,-37 91,-18 -97,104 -158,154 -217,161z"/>
  <path class="fil0" d="M15863 14826c-13,80 -24,145 -36,220 -57,-14 -111,-28 -166,-42 1,-5 1,-10 2,-15 20,0 41,-1 61,0 70,6 73,4 93,-65 8,-27 15,-54 22,-81 1,-2 4,-3 23,-17z"/>
  <path class="fil0" d="M16181 15598c-5,-35 -10,-69 -16,-105 -63,-18 -131,-16 -193,-80 36,7 53,9 70,13 38,9 76,22 114,26 40,4 57,20 52,59 -4,30 -12,59 -18,89 -3,0 -6,0 -9,-1z"/>
  <path class="fil0" d="M14597 18349c-16,-22 -32,-43 -51,-69 -18,2 -40,5 -69,9 4,-41 7,-78 11,-125 61,56 128,95 109,185l0 0z"/>
  <path class="fil0" d="M6743 17742c129,-30 258,-60 396,-92 -46,45 -101,54 -153,67 -71,17 -141,34 -212,49 -9,2 -20,-2 -30,-3 0,-7 0,-15 0,-22z"/>
  <path class="fil0" d="M6286 18465c-33,-115 -45,-232 0,-350 0,117 0,233 0,350z"/>
  <path class="fil0" d="M17366 19369c-13,43 -10,82 36,115 -79,22 -145,36 -226,14 44,-39 94,-16 137,-38 17,-27 3,-79 53,-90l0 0z"/>
  <path class="fil0" d="M18537 19630c31,-7 62,-14 99,-21 -4,-28 -8,-49 -10,-70 -2,-21 0,-42 0,-63 6,-1 12,-2 18,-3 7,29 9,62 23,87 13,24 39,41 61,63 -59,34 -125,19 -191,8z"/>
  <path class="fil0" d="M16768 20249c78,-5 155,-10 238,-16 0,57 0,104 0,153 -6,-4 -12,-6 -12,-9 -4,-98 5,-112 -120,-108 -36,1 -72,0 -108,0 0,-7 1,-14 1,-20z"/>
  <path class="fil0" d="M15981 18761c-104,-15 -209,-30 -327,-47 59,-27 144,-15 327,47z"/>
  <path class="fil0" d="M19132 20048c-13,14 -27,28 -50,53 0,-56 0,-100 0,-152 -61,0 -113,0 -165,0 0,-5 0,-9 -1,-14 65,-7 130,-15 194,-22 14,51 -45,103 22,135l-1 -1z"/>
  <path class="fil0" d="M16508 18984c-58,45 -42,102 -36,160 -35,-28 -33,-29 -42,-71 -6,-28 -20,-55 -33,-89 34,0 68,0 111,0z"/>
  <path class="fil0" d="M14568 19175c-76,12 -42,75 -71,118 -3,-55 -6,-98 -8,-139 105,-24 151,17 116,123 -13,-36 -23,-67 -36,-102z"/>
  <path class="fil0" d="M11563 17385c-4,31 -7,62 -12,98 15,-4 28,-8 57,-16 -21,41 -37,70 -55,104 -45,-63 -45,-98 -11,-187 7,0 13,0 20,1z"/>
  <path class="fil0" d="M17114 20296c100,0 201,0 307,0 -105,36 -205,28 -306,20 0,-7 -1,-13 -1,-20z"/>
  <path class="fil0" d="M6368 18115c0,101 0,201 0,302 -38,-100 -34,-201 0,-302z"/>
  <path class="fil0" d="M14599 17364c27,71 -43,123 -30,189 -45,-67 -33,-133 30,-189z"/>
  <path class="fil0" d="M18388 19698c7,95 94,68 163,100 -74,14 -127,27 -182,-2 7,-35 12,-66 18,-98z"/>
  <path class="fil0" d="M15684 18894c110,-6 219,-1 329,17 -109,0 -218,0 -326,0 -1,-6 -2,-11 -3,-17z"/>
  <path class="fil0" d="M16631 19202c8,72 16,144 25,225 -37,-37 -36,-38 -41,-115 -2,-36 -17,-73 -6,-109 7,0 15,-1 22,-1z"/>
  <path class="fil0" d="M16602 20405c-105,56 -162,57 -214,10 69,-3 133,-6 214,-10z"/>
  <path class="fil0" d="M16176 18813c19,46 35,83 51,123 -42,-4 -89,-9 -144,-14 61,-24 61,-24 92,-109z"/>
  <path class="fil0" d="M16461 19222c-83,34 -156,5 -233,-36 18,-25 41,-26 58,-11 52,43 112,44 175,47z"/>
  <path class="fil0" d="M6422 19750c0,75 0,151 0,246 -36,-95 -32,-172 0,-246z"/>
  <path class="fil0" d="M12082 20167c-63,-61 -32,-130 -18,-197 28,64 12,132 17,198l1 -1z"/>
  <path class="fil0" d="M15744 20137c0,39 0,78 0,121 -56,-35 -58,-66 0,-121z"/>
  <path class="fil0" d="M6334 17619c29,79 31,141 10,235 6,-73 -44,-142 -10,-235z"/>
  <path class="fil0" d="M18912 19641c107,-34 215,-46 324,-19 -108,6 -217,12 -325,18l1 1z"/>
  <path class="fil0" d="M16200 18406c36,50 21,90 -8,149 -13,-61 -36,-102 8,-149z"/>
  <path class="fil0" d="M17402 20178c-23,-27 -42,-49 -63,-73 40,-15 40,-15 112,-1 -17,25 -33,49 -49,74z"/>
  <path class="fil0" d="M15914 15395c-75,-14 -150,-28 -223,-42 61,-32 156,-15 223,42z"/>
  <path class="fil0" d="M18615 19916c-15,28 -29,55 -45,87 -27,-29 -20,-93 -82,-87 43,0 86,0 127,0z"/>
  <path class="fil0" d="M19387 20059c-105,18 -105,18 -151,95 0,-23 -8,-50 2,-69 18,-36 62,-43 149,-26z"/>
  <path class="fil0" d="M15913 20433c67,-13 117,-23 170,-33 -60,56 -93,64 -170,33z"/>
  <path class="fil0" d="M7136 18620c-7,-77 -13,-155 -20,-232 6,-1 11,-1 17,-2 7,77 14,155 20,232 -6,0 -12,1 -18,2z"/>
  <path class="fil0" d="M18690 20073c-63,30 -63,30 -74,84 -7,-6 -13,-11 -18,-17 -10,-13 -19,-27 -32,-45 38,-36 84,-19 124,-22z"/>
  <path class="fil0" d="M19205 19835c-38,-41 -45,-90 -41,-162 46,58 29,114 41,162z"/>
  <path class="fil0" d="M16314 19369c72,7 144,15 216,22 -74,17 -147,18 -216,-22z"/>
  <path class="fil0" d="M18062 19280c-46,0 -93,0 -140,0 42,-37 63,-39 140,0z"/>
  <path class="fil0" d="M6382 18589c-4,66 -8,133 -13,203 -21,-88 -17,-146 13,-203z"/>
  <path class="fil0" d="M18008 19813c-44,-9 -88,-17 -138,-27 115,-25 115,-25 138,27z"/>
  <path class="fil0" d="M6321 16281c4,51 7,102 11,152 -6,0 -13,1 -19,1 -19,-50 -4,-103 9,-154z"/>
  <path class="fil0" d="M17158 20086c-6,47 -11,90 -17,136 -35,-74 -33,-87 17,-136z"/>
  <path class="fil0" d="M18489 20074c-26,19 -45,30 -60,44 -15,14 -26,32 -42,52 -4,-66 5,-74 102,-96z"/>
  <path class="fil0" d="M13232 14623c26,-30 52,-60 78,-89 5,55 -29,79 -62,104 -5,-5 -10,-10 -16,-14z"/>
  <path class="fil0" d="M17402 19652c0,69 0,125 0,185 -26,-53 -27,-119 0,-185z"/>
  <path class="fil0" d="M7591 17527c2,45 4,74 6,109 -54,-52 -54,-52 -6,-109z"/>
  <path class="fil0" d="M6734 18038c0,-60 0,-120 0,-180 3,0 6,0 9,0 0,60 0,120 0,180 -3,0 -6,0 -9,0z"/>
  <path class="fil0" d="M17295 19880c-46,-2 -92,-4 -138,-7 0,-6 0,-11 0,-17 46,2 92,4 138,6 0,6 0,12 0,18z"/>
  <path class="fil0" d="M16049 18583c-20,49 -33,82 -49,121 -19,-80 -19,-80 49,-121z"/>
  <path class="fil0" d="M17381 19600c-67,6 -116,10 -162,14 39,-26 44,-26 162,-14z"/>
  <path class="fil0" d="M17867 19948c-62,17 -106,29 -158,43 43,-42 43,-42 158,-43z"/>
  <path class="fil0" d="M17536 19962c-43,7 -87,14 -130,20 -1,-5 -2,-10 -2,-14 43,-7 86,-14 130,-21 1,5 2,10 3,16z"/>
  <path class="fil0" d="M17633 19896c0,45 0,91 0,136 -3,0 -6,0 -9,0 0,-45 0,-91 0,-136 3,0 6,0 9,0z"/>
  <path class="fil0" d="M14189 20456c-14,60 -14,60 -52,80 -9,-46 25,-61 52,-80l0 0z"/>
  <path class="fil0" d="M14486 18451c3,28 6,55 9,83 -20,-25 -45,-50 -9,-83z"/>
  <path class="fil0" d="M16527 19464c-9,31 -17,62 -26,93 -5,-1 -11,-3 -16,-4 7,-32 15,-64 22,-96 7,2 13,5 20,7z"/>
  <path class="fil0" d="M14526 19474c12,27 21,51 32,76 -59,-21 -59,-21 -32,-76z"/>
  <path class="fil0" d="M14573 18627c32,24 29,44 7,72 -30,-24 -28,-44 -7,-72z"/>
  <path class="fil0" d="M18911 20083c34,-6 68,-12 101,-18 1,5 2,9 2,14 -34,7 -67,14 -101,21 -1,-6 -2,-11 -3,-17z"/>
  <path class="fil0" d="M18179 20077c11,-8 15,-13 19,-13 27,1 54,2 81,13 -31,0 -61,0 -100,0z"/>
  <path class="fil0" d="M18762 19956c-20,2 -34,4 -55,6 26,-26 26,-26 55,-6z"/>
  <path class="fil0" d="M17581 20341c25,-7 49,-15 74,-22 2,4 4,8 6,12 -12,7 -24,15 -38,19 -12,4 -26,2 -39,3 -1,-4 -2,-8 -2,-12z"/>
  <path class="fil0" d="M19879 16951c-3,12 -7,24 -11,35 0,1 -9,-2 -13,-2 2,-12 5,-24 7,-37 6,1 11,3 17,4z"/>
  <path class="fil0" d="M11391 15735c0,-23 0,-46 0,-69 2,0 4,0 7,0 0,23 0,46 0,69 -2,0 -4,0 -7,0z"/>
  <path class="fil0" d="M14596 18350c7,27 13,55 20,82 -6,1 -13,2 -19,2 0,-28 0,-57 0,-85 0,0 0,0 0,0z"/>
  <path class="fil0" d="M19133 20049c25,-9 49,-17 73,-26 1,6 3,12 4,19 -26,2 -52,4 -78,6l1 1z"/>
  <path class="fil0" d="M6753 19406c-5,-5 -12,-8 -12,-10 2,-7 6,-13 10,-19 3,3 10,6 9,9 -1,7 -4,13 -7,21z"/>
  <path class="fil0" d="M17547 20099c14,2 27,3 41,5 0,3 0,7 -1,11 -14,0 -27,0 -41,0 0,-5 0,-10 0,-16z"/>
  <path class="fil0" d="M18088 19794c-12,1 -24,2 -37,4 -1,-4 -1,-8 -2,-13 12,-3 25,-5 37,-8 1,6 1,11 2,17z"/>
  <path class="fil0" d="M17559 19825c-11,-7 -22,-13 -34,-19 2,-4 5,-8 7,-12 11,7 22,14 33,20 -2,4 -5,8 -7,12z"/>
  <path class="fil0" d="M6750 18166c-1,-13 -1,-25 -2,-38 4,0 7,0 11,-1 1,13 1,25 2,38 -4,0 -7,0 -11,1z"/>
  <path class="fil0" d="M6341 18010c1,-13 1,-25 2,-38 4,0 7,0 11,0 1,12 2,25 3,37 -5,0 -10,1 -15,1z"/>
  <path class="fil1" d="M14291 15739c21,-29 39,-54 57,-79 43,20 46,49 22,82 -22,30 -49,26 -79,-2z"/>
  <path class="fil1" d="M14617 17846c13,57 17,90 -46,112 16,-40 28,-67 46,-112z"/>
  <path class="fil1" d="M14587 18942c-19,16 -33,27 -52,42 -1,-12 -4,-22 -2,-31 6,-28 22,-34 54,-11z"/>
  <path class="fil1" d="M12496 16674c3,-6 5,-12 8,-18 13,7 26,14 39,21 -2,5 -4,9 -6,14l-40 -17z"/>
  <path class="fil1" d="M14472 17947c6,-3 13,-7 19,-11 2,6 9,16 6,18 -4,5 -13,6 -20,9 -2,-5 -3,-9 -6,-16z"/>
  <path class="fil1" d="M12243 18103c-2,-6 -6,-13 -5,-19 0,-3 7,-9 11,-9 7,0 14,3 30,8l-35 20z"/>
  <path class="fil1" d="M14619 18963c0,-12 0,-25 0,-37 2,0 5,0 7,0 0,12 0,25 0,37 -2,0 -5,0 -7,0z"/>
  <path class="fil1" d="M10902 17669c5,142 17,276 1,412 -11,94 -11,195 14,285 17,63 30,125 38,188 10,86 -8,101 -103,98 -4,-14 -11,-30 -11,-46 -4,-124 -5,-249 -11,-373 -7,-135 -20,-270 -31,-406 -1,-17 -4,-34 -4,-51 0,-82 5,-88 108,-108z"/>
  <path class="fil1" d="M10164 17751c4,15 11,30 11,46 3,113 3,226 7,338 4,122 12,243 17,364 1,29 21,71 -25,76 -44,4 -42,-40 -42,-69 0,-138 -31,-275 -8,-415 14,-83 1,-169 3,-254 1,-29 7,-58 11,-87 9,1 17,1 26,2z"/>
  <path class="fil1" d="M18199 13405c0,-66 0,-133 0,-199 6,0 12,1 18,1 -6,66 -13,132 -19,197l1 1z"/>
  <path class="fil1" d="M18198 13405c0,49 0,99 0,148 -5,0 -10,-1 -16,-1 6,-49 11,-98 16,-147l-1 -1z"/>
  <path class="fil1" d="M6861 13867c0,-63 0,-127 0,-190 -30,62 -44,125 0,190zm12 104c-8,0 -16,0 -25,-1 0,30 -1,59 0,89 5,124 13,248 16,372 3,137 2,275 4,412 0,11 12,21 25,43 35,-115 -15,-212 -9,-311 7,-101 1,-202 -2,-304 -3,-100 15,-202 -9,-301zm101 -355c4,34 10,59 9,83 -2,79 -10,158 -9,236 1,84 8,169 14,253 9,127 17,253 27,380 6,79 15,157 22,236 2,25 5,50 3,75 -2,31 -13,58 30,76 29,12 15,42 3,66 -43,-40 -44,-42 -95,-28 -77,21 -154,28 -240,8 53,-84 40,-172 28,-255 -20,-136 0,-272 -15,-406 -22,-201 17,-400 -5,-600 -6,-57 3,-67 59,-82 54,-14 108,-28 170,-43z"/>
  <path class="fil1" d="M7116 18081c-1,19 -2,38 -3,57 -5,0 -11,0 -16,0 -1,-19 -2,-38 -3,-57 7,0 15,-1 22,-1z"/>
  <path class="fil1" d="M7142 19099c-1,-12 -1,-25 -2,-37 3,0 6,0 10,-1 1,12 1,25 2,37 -3,0 -6,0 -10,1z"/>
  <path class="fil1" d="M15819 15887c110,21 167,47 214,100 38,-23 76,-24 108,16 -27,82 -27,83 -103,71 -83,-13 -167,-22 -244,-64 9,-44 18,-84 26,-124l-1 1z"/>
  <path class="fil1" d="M13412 18279c0,-42 0,-83 0,-125 2,0 3,0 5,0 0,42 0,83 0,125 -2,0 -3,0 -5,0z"/>
  <path class="fil1" d="M15883 15757c-27,-12 -45,-20 -64,-28 7,-11 9,-18 13,-20 27,-9 51,-10 51,48z"/>
  <path class="fil0" d="M11467 10354c91,-70 183,-141 274,-211 23,-18 46,-35 69,-52 5,4 9,7 14,11 -2,15 0,34 -8,43 -39,40 -80,80 -124,115 -83,67 -168,132 -259,202 32,26 58,14 83,7 84,-25 167,-52 252,-75 16,-4 44,-2 51,7 17,23 -1,42 -23,53 -20,10 -42,19 -63,24 -142,38 -284,74 -426,111 -5,1 -8,7 -19,15 87,31 173,59 237,124 62,64 154,92 210,166 -27,39 -53,27 -78,12 -53,-33 -110,-61 -155,-103 -117,-108 -256,-122 -404,-111 -164,12 -280,95 -357,237 -31,56 -60,114 -107,169 -4,-16 -15,-34 -11,-47 60,-193 168,-346 364,-420 151,-58 295,-130 426,-225 18,-13 32,-31 48,-47 3,-2 6,-5 8,-7z"/>
  <path class="fil0" d="M7470 11774c-39,35 -64,11 -90,-5 -58,-35 -115,-73 -175,-103 -165,-83 -291,-37 -367,130 -20,44 -35,90 -54,133 -6,14 -19,25 -41,54 -6,-38 -18,-60 -12,-77 46,-131 95,-263 222,-341 43,-27 91,-45 135,-70 89,-48 177,-98 266,-148 155,-86 311,-173 467,-259 11,-6 26,-8 48,-14 -3,23 0,43 -8,51 -37,35 -73,74 -116,96 -133,69 -270,128 -403,196 -67,34 -128,80 -200,126 66,37 127,65 180,105 51,38 123,56 149,124z"/>
  <path class="fil0" d="M11467 10354c-3,2 -6,5 -8,7 -90,24 -180,49 -271,71 -60,15 -121,26 -182,38 -47,9 -94,19 -142,27 -81,13 -161,26 -242,38 -28,4 -58,0 -84,10 -97,38 -199,39 -299,58 -103,20 -202,52 -304,75 -204,46 -409,88 -613,134 -94,21 -186,48 -279,72 -197,50 -395,99 -592,148 -99,25 -197,48 -296,71 -23,5 -47,8 -70,12 -1,-6 -3,-12 -4,-18 48,-14 95,-30 144,-41 312,-70 624,-137 929,-235 43,-14 88,-20 132,-30 300,-68 599,-146 902,-202 183,-34 362,-92 550,-92 8,0 17,-1 25,-3 173,-40 346,-80 519,-121 44,-10 87,-25 132,-33 17,-3 35,8 53,13z"/>
  <path class="fil0" d="M13476 9889c80,-27 160,-55 241,-80 167,-53 334,-108 502,-157 68,-20 138,-28 208,-43 99,-21 200,-39 297,-66 86,-23 171,-35 260,-15 -18,3 -37,5 -55,8 -22,3 -45,4 -67,10 -88,21 -175,43 -263,64 -44,10 -88,24 -132,26 -126,7 -244,47 -363,82 -157,47 -313,99 -470,145 -51,15 -105,18 -158,26l1 1z"/>
  <path class="fil0" d="M15534 9627c-86,-16 -86,-16 -79,-78 -27,-16 -53,-32 -79,-48 1,-7 3,-14 4,-21 37,-7 75,-13 124,-22 -61,-70 -148,-35 -203,-75 -1,-9 -3,-12 -1,-14 39,-74 101,-23 151,-24 41,-1 76,29 82,72 8,58 -7,118 15,176 3,7 -8,20 -14,33z"/>
  <path class="fil0" d="M13475 9888c-83,25 -166,55 -250,74 -187,43 -375,80 -562,119 -18,4 -37,5 -56,8 -1,-6 -2,-12 -3,-18 60,-12 119,-23 179,-36 192,-43 384,-88 577,-130 38,-8 78,-11 117,-16 0,0 -1,-1 -1,-1z"/>
  <path class="fil0" d="M7103 11366c-23,10 -45,24 -69,31 -208,62 -417,122 -626,183 -10,3 -20,2 -36,-9 14,-10 27,-24 43,-29 51,-17 103,-31 154,-44 153,-40 306,-80 459,-119 24,-6 50,-7 75,-10l-1 -1z"/>
  <path class="fil0" d="M15597 10089c-66,-37 -131,-54 -199,15 27,-77 61,-103 111,-97 56,7 80,27 88,82z"/>
  <path class="fil0" d="M15528 9790c-62,0 -114,0 -167,0 18,-51 26,-58 81,-55 34,2 81,-11 86,55z"/>
  <path class="fil0" d="M15463 10318c75,-85 147,-98 211,-38 -68,12 -137,25 -211,38z"/>
  <path class="fil0" d="M15645 10184c-62,6 -126,11 -185,17 25,-76 120,-88 185,-17z"/>
  <path class="fil0" d="M15565 9917c-69,-49 -119,-1 -187,18 31,-64 75,-83 125,-89 33,-4 52,17 61,71z"/>
  <path class="fil0" d="M7104 11367c74,-24 148,-48 222,-72 -42,45 -113,64 -223,71 0,0 1,1 1,1z"/>
  <path class="fil0" d="M12387 10129c28,-6 56,-13 83,-19 1,5 2,9 4,14 -27,7 -53,14 -80,21 -2,-5 -5,-10 -7,-15z"/>
  <path class="fil0" d="M5530 14085c5,-1 10,-1 14,-2 0,-50 0,-100 0,-150 -5,0 -10,0 -14,0 0,50 0,101 0,151zm-51 -145c-36,9 -60,18 -85,20 -17,1 -46,-2 -49,-12 -12,-31 17,-35 38,-42 35,-11 71,-18 105,-32 13,-5 20,-25 34,-45 -144,-2 -238,40 -279,118 -35,-61 -33,-80 25,-99 78,-26 157,-47 236,-68 15,-4 32,2 44,2 67,188 34,378 47,565 13,183 35,366 51,548 5,56 4,112 6,168 1,42 0,84 0,137 -80,22 -167,46 -254,69 1,7 3,14 4,21 39,-6 79,-11 118,-19 40,-8 80,-18 133,-30 -53,60 -124,77 -336,90 3,-17 12,-45 7,-48 -43,-25 -28,-60 -26,-97 5,-110 8,-220 5,-330 -3,-121 -13,-242 -21,-364 0,-7 -5,-13 -13,-35 -41,154 8,293 2,432 -6,139 -1,279 -1,425 -32,-16 -32,-42 -33,-66 -5,-189 -11,-378 -12,-567 -1,-163 6,-327 7,-490 0,-42 -7,-84 -9,-127 -1,-21 0,-42 0,-62 7,-1 14,-1 20,-2 7,61 15,123 22,184 4,0 9,0 13,-1 0,-73 0,-145 0,-218 5,-1 9,-2 14,-2 5,13 15,27 15,40 7,158 12,316 18,475 3,79 9,158 12,237 6,141 11,282 17,423 3,81 16,90 91,69 11,-3 22,-7 32,-10 74,-23 72,-23 75,-98 12,-312 -32,-620 -58,-930 -6,-73 -10,-146 -16,-232z"/>
  <path class="fil0" d="M6147 14179c2,26 7,53 7,79 0,221 0,441 -1,662 0,54 -7,107 -11,161 -13,148 19,293 34,439 11,104 21,208 29,312 1,14 -8,29 -30,46 -7,-19 -18,-37 -20,-56 -8,-90 -12,-180 -19,-271 -8,-90 -24,-180 -25,-270 -2,-192 6,-385 6,-577 0,-113 -8,-226 -8,-338 0,-62 6,-125 9,-187 10,0 21,0 31,0z"/>
  <path class="fil0" d="M6152 13979c-28,-104 -51,-452 -35,-498 28,61 56,406 35,498z"/>
  <path class="fil0" d="M6117 14124c4,-27 7,-54 11,-81 18,40 18,40 -11,81z"/>
  <path class="fil0" d="M12684 15792c0,6 1,13 1,19 12,-4 25,-7 37,-11 -1,-4 -2,-9 -3,-13 -12,2 -23,3 -35,5zm-309 89c-19,23 -38,37 -13,68 29,-17 31,-36 13,-68zm147 67c29,-59 30,-91 -3,-115 -15,-11 -42,-16 -59,-10 -12,4 -21,31 -21,48 1,49 39,62 83,77zm-87 38c-32,16 -80,13 -82,58 -2,51 48,52 83,65 10,3 21,2 35,3 27,-54 5,-91 -37,-126zm-174 -265c-8,22 -16,38 -20,54 -7,23 -17,47 -16,70 2,27 25,38 50,26 38,-18 76,-36 112,-57 35,-21 61,-49 60,-98 -75,-27 -98,51 -157,78 4,-25 2,-47 11,-53 38,-28 76,-59 119,-75 48,-17 71,1 81,54 6,28 11,51 45,48 35,-4 46,-27 44,-60 -2,-28 -19,-68 27,-75 44,-7 53,28 65,62 6,17 31,27 48,39 17,13 51,28 49,36 -6,25 -21,50 -40,68 -12,12 -36,13 -55,15 -48,7 -88,20 -96,77 -2,15 -13,34 -25,42 -34,23 -34,54 -32,89 3,45 -14,82 -58,111 -45,-17 -92,-35 -144,-55 -39,22 -80,62 -133,27 -11,-64 44,-34 68,-50 13,-55 37,-109 28,-184 -41,29 -72,50 -100,70 -8,-57 -16,-109 -21,-162 -4,-48 27,-84 89,-98z"/>
  <path class="fil0" d="M12294 16447c-29,-20 -53,-34 -73,-53 -11,-10 -23,-34 -18,-44 29,-60 62,-118 95,-177 3,-4 15,-3 33,-7 -23,44 -10,74 14,108 12,17 3,54 -5,79 -9,29 -27,55 -47,93z"/>
  <path class="fil0" d="M12249 19002c9,10 18,19 29,31 7,-53 15,-104 22,-155 6,0 12,-1 18,-1 4,13 12,26 12,39 2,90 -3,180 4,269 5,63 -49,83 -65,129 -5,-2 -11,-4 -16,-6 16,-58 32,-116 50,-182 -63,-18 -50,-73 -54,-124z"/>
  <path class="fil0" d="M12288 18471c12,86 67,149 35,229 -26,-24 -52,-49 -85,-79 16,-38 -12,-96 50,-149z"/>
  <path class="fil0" d="M12369 19335c-2,-21 -4,-41 -6,-62 6,-1 12,-1 18,-2 1,20 3,39 4,59 0,1 -8,2 -16,4z"/>
  <path class="fil0" d="M13779 16085c-18,-6 -29,-11 -39,-11 -5,0 -17,11 -16,14 3,9 10,17 18,24 1,1 11,-8 37,-27zm-92 -56c-1,-7 -3,-14 -4,-20 -14,3 -27,6 -41,11 -1,0 3,13 5,20 13,-4 27,-7 40,-11zm22 -122c30,5 56,9 95,15 -6,-25 -5,-51 -14,-54 -33,-12 -63,-6 -81,39zm126 158c27,-29 57,-46 30,-81 -7,-9 -35,-13 -44,-6 -33,26 -11,51 14,87zm-71 127c-68,-62 -132,-129 -229,-149 78,-108 72,-162 -27,-284 63,4 72,11 125,102 24,-12 49,-24 73,-36 71,-38 118,-18 140,57 6,19 18,38 33,52 56,51 64,94 2,129 -57,32 -85,82 -120,129l1 1z"/>
  <path class="fil0" d="M14036 16225c-8,2 -16,4 -24,7 -96,25 -128,1 -142,-105 8,3 19,3 21,8 21,52 50,87 114,70 8,-2 21,14 31,22l1 -1z"/>
  <path class="fil0" d="M13977 16039c88,16 111,46 109,127 -38,-45 -74,-86 -109,-127z"/>
  <path class="fil0" d="M15805 17653c21,70 -45,87 -47,143 -40,-15 -72,-27 -104,-39 83,-15 83,-15 151,-104z"/>
  <path class="fil0" d="M12709 16187c-62,45 -119,86 -179,130 -8,-36 17,-60 44,-84 52,-46 74,-54 135,-46z"/>
  <path class="fil0" d="M12337 17023c-38,33 -82,47 -137,38 6,-9 10,-19 14,-19 77,-1 108,-50 123,-117 8,-37 19,-73 32,-122 31,48 11,79 3,109 -10,38 -24,75 -36,113l1 -1z"/>
  <path class="fil0" d="M13282 15914c-4,3 -8,6 -12,9 -3,-6 -6,-13 -9,-19 5,-1 11,-4 15,-3 4,2 5,9 7,13z"/>
  <path class="fil0" d="M7890 14586c-6,-89 -11,-177 -17,-265 -3,-39 -6,-78 -11,-117 -13,-112 -26,-223 -39,-335 -4,-38 -14,-77 18,-121 11,21 24,34 24,48 18,262 35,525 52,787 -9,1 -18,2 -27,2z"/>
  <path class="fil0" d="M7806 13637c0,-39 0,-78 0,-116 5,0 10,-1 15,-1 4,39 7,77 11,116 -9,1 -17,1 -26,2z"/>
  <path class="fil0" d="M6873 13972c24,99 6,201 9,301 3,101 9,203 2,304 -6,100 44,197 9,311 -13,-22 -25,-33 -25,-43 -2,-137 -1,-275 -4,-412 -3,-124 -11,-248 -16,-372 -1,-30 0,-59 0,-89 8,0 16,1 25,1z"/>
  <path class="fil0" d="M6861 13867c-44,-64 -30,-127 0,-190 0,63 0,127 0,190z"/>
 </g>
</svg>
