<?xml version="1.0" encoding="UTF-8"?>
<!DOCTYPE svg PUBLIC "-//W3C//DTD SVG 1.1//EN" "http://www.w3.org/Graphics/SVG/1.1/DTD/svg11.dtd">
<!-- Creator: CorelDRAW X6 -->
<svg xmlns="http://www.w3.org/2000/svg" xml:space="preserve" width="210mm" height="297mm" version="1.1" style="shape-rendering:geometricPrecision; text-rendering:geometricPrecision; image-rendering:optimizeQuality; fill-rule:evenodd; clip-rule:evenodd"
viewBox="0 0 21000 29700"
 xmlns:xlink="http://www.w3.org/1999/xlink">
 <defs>
  <style type="text/css">
   <![CDATA[
    .fil0 {fill:#2B2A29}
    .fil1 {fill:#FEFEFE}
   ]]>
  </style>
 </defs>
 <g id="Слой_x0020_1">
  <metadata id="CorelCorpID_0Corel-Layer"/>
  <path class="fil0" d="M2 29699c5,-15 11,-29 20,-55 14,25 22,40 31,55 -17,0 -34,0 -51,0z"/>
  <path class="fil0" d="M9735 16182c-2,-4 -4,-9 -6,-13 -14,6 -28,11 -42,17 2,5 4,10 6,14 14,-6 27,-12 41,-18zm6150 -2000c0,-2 0,-4 0,-6 -26,0 -52,0 -78,0 0,2 0,4 0,6 26,0 52,0 78,0zm-4279 307c-2,-4 -3,-9 -5,-13 -22,5 -45,10 -67,14 1,4 2,8 3,13 23,-5 46,-9 70,-14zm11549 48c0,-2 0,-3 0,-5 -21,-2 -43,-4 -64,-6 -18,-2 -35,-3 -53,-4 0,5 0,10 -1,15 39,0 78,0 117,0zm-15083 -276c0,-6 -1,-13 -1,-19 -37,6 -75,13 -112,19 0,3 1,7 1,10 37,-3 75,-7 112,-10zm15797 799c-2,0 -3,0 -5,0 0,52 0,104 0,156 2,0 3,0 5,0 0,-52 0,-104 0,-156zm-398 -524c0,2 1,4 1,6 45,3 90,5 134,8 0,-5 0,-9 1,-14 -45,0 -91,0 -136,0zm-15491 -323c1,-10 2,-20 2,-30 -21,-3 -42,-6 -64,-9 -1,13 -3,26 -4,39 22,0 44,0 65,0zm1869 1811c-37,22 -72,45 -100,95 65,-16 86,-53 100,-95zm1849 -1564c0,6 -1,12 -1,18 73,-9 146,-18 219,-26 -1,-6 -1,-11 -2,-16 -72,8 -144,17 -216,25zm-225 95c135,8 195,-2 264,-46zm12221 9c15,-35 26,-65 -12,-82 -10,-4 -40,12 -44,24 -12,39 12,55 56,58zm-718 -50c46,2 77,5 108,3 9,-1 22,-19 22,-29 0,-9 -15,-25 -25,-26 -34,-3 -72,-9 -105,52zm-13755 1863c98,25 154,-12 143,-102 -50,35 -94,67 -143,102zm1956 -1716c127,16 266,-5 328,-50 -121,19 -224,34 -328,50zm-1864 1814c62,48 78,42 141,-57 -59,-9 -106,-1 -141,57zm13853 -1995c52,51 120,56 200,15 -69,-28 -126,-43 -200,-15zm261 37c43,29 83,38 126,33 11,-1 23,-15 28,-25 3,-7 -5,-22 -12,-28 -34,-28 -92,-21 -142,20zm-12671 479c1,9 3,19 4,28 119,-17 238,-34 357,-50 -1,-7 -2,-13 -3,-20 -119,14 -239,28 -358,42zm-2499 -701c1,-7 2,-14 3,-22 -58,-3 -116,-2 -173,-12 -58,-10 -109,-1 -161,33 114,0 223,0 332,0zm14872 27c-30,-2 -52,-3 -74,-4 -11,0 -25,-2 -33,4 -14,11 -30,25 -33,40 -2,9 16,29 29,34 53,21 87,-1 111,-75zm-11933 455c12,21 18,32 25,45 -60,10 -112,18 -163,26 44,7 87,-9 126,-3 80,12 122,-37 167,-92 -49,8 -97,15 -154,24zm-183 -18c75,13 308,-29 383,-65 -130,9 -260,18 -383,65zm12193 -438c-10,54 6,76 44,79 28,2 57,4 84,-3 15,-4 35,-25 35,-38 0,-13 -22,-35 -36,-36 -41,-5 -83,-2 -127,-2zm-13571 1789c5,7 10,15 15,22 33,-11 68,-19 99,-34 73,-35 74,-64 -3,-127 -37,46 -75,92 -112,138zm13936 -16c5,0 10,0 15,-1 8,-244 15,-487 23,-731 -6,0 -13,0 -19,0 -6,244 -13,488 -19,732zm124 -1707c19,-34 11,-59 -20,-62 -70,-6 -140,-5 -210,-4 -10,0 -28,22 -27,33 1,11 18,28 31,30 24,4 51,4 75,-1 51,-10 101,-22 150,4zm-13941 1765c-2,-3 -3,-6 -5,-10 -32,9 -63,23 -95,25 -67,5 -103,52 -142,95 -19,22 -24,50 2,65 13,8 45,4 58,-7 63,-54 122,-112 183,-169zm13163 -1647c-1,-8 -2,-16 -3,-25 -32,0 -64,3 -96,-1 -17,-2 -32,-14 -48,-22 12,-14 22,-31 36,-39 17,-9 38,-10 57,-14 14,-3 28,-4 41,-11 20,-10 19,-45 0,-46 -46,-4 -96,-8 -139,5 -15,5 -18,59 -21,91 -3,34 10,64 46,71 42,7 90,38 127,-9zm-12657 961c-47,40 -96,78 -141,120 -45,42 -107,67 -143,146 91,-44 165,-79 237,-116 79,-41 83,-57 47,-149zm-2038 -473c3,-188 5,-376 7,-564 0,-14 3,-30 -2,-42 -6,-15 -19,-28 -40,-55 -36,235 17,447 35,661zm-401 182c3,-269 7,-526 10,-780 -48,-14 -67,1 -72,35 -3,19 -1,39 -2,59 -6,194 -10,389 -18,583 -3,65 -7,64 81,103zm15240 932c0,-44 -1,-88 0,-133 5,-158 12,-316 17,-474 9,-268 18,-536 27,-805 2,-46 -11,-62 -55,-67 -57,-7 -77,19 -80,89 -7,186 -17,372 -25,558 -10,234 -22,468 -30,702 -3,93 38,126 145,129zm473 128c-5,-89 -14,-167 -12,-245 8,-265 20,-530 30,-795 6,-152 12,-305 18,-457 2,-66 -16,-84 -84,-88 -51,-3 -62,12 -64,84 0,6 0,11 0,17 -5,285 -11,570 -16,856 -1,56 -1,113 -7,169 -16,143 -8,286 1,435 45,8 88,16 134,24zm-13187 -642c-137,63 -260,125 -388,177 -56,23 -95,59 -130,104 -26,34 -14,99 21,130 28,25 55,22 98,-13 125,-102 251,-202 372,-308 200,-174 397,-352 595,-529 14,-13 21,-33 33,-54 -20,-7 -28,-12 -36,-11 -90,10 -180,18 -269,33 -29,5 -59,21 -81,41 -71,61 -137,127 -207,189 -33,30 -44,62 -33,106 11,43 16,88 25,136zm12980 606c3,-41 7,-68 7,-95 -1,-45 -9,-90 -7,-135 11,-206 25,-411 37,-617 2,-31 -3,-62 -4,-93 -1,-34 -1,-67 0,-101 3,-150 6,-299 8,-449 1,-41 -17,-64 -60,-65 -14,0 -28,-2 -42,-2 -85,-2 -95,2 -101,85 -13,205 -21,411 -31,617 -2,34 1,68 -3,102 -26,212 -13,423 3,634 2,29 7,58 39,69 47,17 95,31 153,50zm-4505 -1529c-3,6 -5,13 -8,19 19,20 36,42 56,61 88,84 178,166 264,252 101,99 199,200 297,303 88,92 178,182 259,280 130,157 263,309 418,444 113,98 219,204 327,309 71,69 137,142 207,213 153,154 307,307 467,467 45,-16 95,-34 145,-52 151,-57 300,-118 452,-170 209,-71 423,-127 630,-203 183,-68 365,-135 560,-163 165,-23 330,-50 494,-76 60,-9 120,-17 175,-47 -36,-14 -72,-18 -106,-29 -53,-17 -57,38 -88,64 -37,-97 -116,-114 -196,-128 -12,21 -23,38 -39,66 -22,-26 -38,-45 -54,-63 -15,-16 -29,-35 -48,-44 -67,-29 -134,-61 -204,-79 -142,-37 -286,-67 -430,-98 -21,-5 -45,-3 -66,2 -197,53 -394,103 -589,161 -203,60 -416,86 -613,169 -16,7 -35,4 -63,7 23,-45 58,-53 88,-61 150,-42 300,-81 450,-121 199,-53 399,-104 598,-159 31,-9 58,-32 86,-49 41,-12 86,-14 131,-12 45,2 85,-42 149,-17 -34,18 -55,29 -90,47 95,26 173,51 252,67 107,21 122,3 126,-105 11,-280 24,-559 37,-839 1,-17 6,-34 6,-50 2,-110 4,-220 5,-331 1,-43 -22,-62 -64,-60 -28,1 -57,4 -85,3 -43,-2 -59,-19 -62,-63 -2,-37 -6,-73 -5,-110 3,-104 12,-127 -135,-116 -19,1 -38,10 -58,13 -38,5 -77,10 -116,12 -19,1 -40,-7 -59,-5 -107,10 -214,20 -320,33 -202,25 -403,55 -606,78 -230,26 -461,47 -691,70 -48,5 -96,4 -144,7 -291,20 -581,41 -872,59 -257,16 -514,28 -771,42 -33,2 -65,3 -98,5zm-7871 260c39,-4 77,-7 116,-13 38,-5 75,-12 113,-18 -1,-5 -2,-11 -4,-16 -76,9 -152,19 -225,47 -27,0 -54,0 -81,0 1,5 1,10 2,16 26,-5 53,-11 79,-16zm1631 -1070c89,-7 180,5 277,-21 0,-100 0,-195 0,-290 0,-91 -21,-183 27,-273 4,14 12,27 12,41 5,138 8,277 12,416 1,17 2,34 5,51 6,35 25,57 62,57 178,-1 356,-3 535,-6 5,0 10,-5 23,-13 -2,-40 -4,-84 -7,-129 -4,-48 -5,-96 -14,-143 -11,-57 -30,-112 -48,-174 15,-23 37,-12 60,4 35,25 64,64 48,100 -40,94 -9,184 -3,276 5,71 21,80 90,83 237,9 474,22 711,32 96,4 192,3 289,4 198,4 396,11 594,11 181,0 362,-1 542,-15 64,-5 125,-2 187,3 65,5 130,3 195,4 23,0 45,1 68,-1 57,-4 65,-13 69,-73 0,-6 1,-11 0,-17 -5,-113 -8,-226 -18,-339 -3,-31 -23,-62 -39,-91 -15,-26 -9,-41 18,-56 22,18 50,31 63,53 13,21 22,53 17,77 -30,135 1,271 -2,406 -1,33 18,52 51,57 34,5 67,14 101,13 139,-1 277,-6 416,-6 76,0 152,7 228,6 212,-4 424,-8 636,-16 226,-9 452,-24 678,-34 277,-13 553,-24 830,-35 84,-3 99,-16 97,-101 -3,-119 -9,-237 -15,-356 -3,-71 -14,-143 68,-182 4,5 10,11 9,13 -43,78 -41,160 -30,247 11,86 2,175 5,263 1,35 -8,84 37,94 54,12 110,11 166,11 8,0 25,-26 23,-39 -9,-107 -19,-214 -34,-320 -4,-28 -25,-54 -38,-83 59,-10 93,18 147,118 -12,2 -21,3 -31,5 -8,1 -16,2 -27,3 -15,90 -1,175 19,261 7,30 25,46 57,55 74,21 148,33 225,32 187,-3 374,7 560,-4 512,-31 1024,-5 1536,-10 141,-1 282,17 424,20 124,3 249,-3 373,-5 38,-1 57,-21 57,-59 -1,-113 4,-227 -7,-339 -8,-78 -3,-151 18,-233 16,11 28,19 43,29 17,-25 33,-50 60,-91 2,29 6,42 3,51 -15,40 -30,80 -50,117 -23,42 -28,84 -27,131 3,99 3,197 2,296 -1,89 3,98 93,104 73,4 147,-3 220,-6 38,-2 56,-24 55,-61 -1,-48 -3,-96 -5,-144 -1,-20 -9,-41 -4,-59 16,-56 1,-99 -39,-138 -11,-11 -11,-33 -19,-62 69,25 125,41 153,100 -58,67 -52,253 -13,355 25,-2 52,-5 79,-5 224,-1 447,-3 671,-1 240,2 481,9 721,12 65,1 130,-9 194,-15 171,-18 344,13 516,-21 38,-8 82,19 123,21 124,8 248,15 373,17 215,2 430,1 645,-1 51,0 101,-7 152,-11 17,-1 36,-8 50,-2 18,8 31,26 46,40 -12,13 -23,36 -37,38 -64,11 -129,22 -194,22 -113,0 -226,-7 -339,-11 -28,-1 -57,-1 -85,0 -181,5 -362,10 -543,17 -119,4 -237,12 -356,17 -51,2 -102,3 -152,-3 -169,-22 -338,-17 -508,-6 -92,6 -186,-10 -279,-9 -277,0 -555,3 -832,6 -87,1 -174,12 -261,11 -78,-1 -157,-17 -235,-17 -240,2 -480,12 -720,14 -269,3 -539,15 -807,-2 -453,-29 -905,-3 -1358,-11 -123,-2 -247,24 -370,36 -39,4 -79,4 -118,3 -42,-1 -85,-9 -127,-7 -226,13 -452,-1 -678,-3 -204,-2 -406,2 -609,30 -103,15 -209,5 -314,8 -113,3 -226,9 -339,12 -124,3 -248,5 -372,5 -155,0 -311,2 -466,-5 -158,-7 -316,-23 -474,-34 -62,-4 -124,-10 -186,-10 -257,-2 -515,-4 -772,-2 -79,1 -158,9 -237,20 -167,22 -333,20 -499,0 -28,-3 -56,-4 -85,-4 -36,-1 -70,5 -69,61 -102,-100 -228,-81 -343,-92 -140,-13 -281,-6 -422,-6 -229,0 -458,-3 -686,2 -206,5 -412,21 -618,31 -20,1 -40,4 -59,3 -138,-8 -276,-17 -414,-25 -17,-1 -34,1 -51,3 -210,27 -417,-3 -626,-18 -53,-4 -108,-11 -161,-6 -229,19 -458,11 -687,1 -229,-10 -458,-5 -687,-3 -141,1 -283,7 -424,15 -116,6 -231,21 -346,26 -147,6 -294,8 -441,8 -79,0 -158,-12 -237,-14 -65,-2 -130,4 -195,5 -79,2 -158,1 -237,3 -31,1 -63,-2 -91,7 -16,5 -36,31 -35,47 1,16 23,40 40,44 46,12 95,17 142,21 253,24 507,47 760,69 172,15 343,34 515,44 144,8 289,4 433,9 164,6 328,18 491,27 124,7 249,11 373,21 41,3 84,15 122,32 57,26 65,85 14,121 -122,85 -197,208 -281,326 -108,152 -216,305 -331,451 -79,100 -167,193 -258,281 -156,151 -271,333 -399,506 -31,42 -61,85 -92,128 -6,-3 -12,-7 -18,-10 16,-36 33,-72 56,-125 -108,87 -181,182 -251,280 -18,25 -9,49 15,67 22,16 42,9 60,-9 81,-79 162,-157 245,-235 116,-108 232,-216 350,-321 211,-188 423,-374 635,-561 146,-130 297,-254 434,-392 112,-113 230,-217 347,-324 74,-67 151,-105 248,-110 119,-6 237,-9 356,-19 127,-10 253,-24 379,-40 78,-10 156,-29 234,-37 56,-6 113,-4 169,3 134,17 265,-8 397,-20 188,-17 376,-47 565,-52 144,-4 284,-29 427,-42 135,-12 270,-27 403,-50 181,-32 360,-15 540,9 28,4 56,6 84,8 186,15 373,20 558,45 384,52 766,116 1150,171 145,21 293,26 439,42 135,15 270,29 403,56 61,12 118,51 174,83 54,30 106,63 154,102 104,83 205,169 306,255 161,137 338,257 481,415 31,34 66,64 105,59 19,30 29,59 49,76 93,78 189,152 284,229 24,19 45,43 67,64 64,64 127,128 191,192 26,26 55,49 81,75 103,101 203,204 308,303 152,144 306,286 460,427 102,94 207,184 309,278 47,43 89,93 137,136 17,15 48,29 66,24 96,-29 191,-65 291,-101 -27,-62 -68,-95 -114,-122 -53,-30 -96,-67 -123,-125 -12,-25 -34,-45 -54,-65 -105,-107 -211,-212 -317,-318 -110,-110 -219,-220 -330,-329 -59,-57 -124,-108 -180,-167 -70,-73 -134,-153 -202,-229 -109,-122 -217,-246 -329,-366 -151,-161 -305,-319 -460,-476 -97,-98 -192,-201 -319,-263 -18,-9 -29,-30 -41,-43 22,-45 55,-50 90,-51 130,-6 260,-8 390,-18 214,-16 428,-38 642,-57 31,-3 62,-5 93,-8 282,-21 564,-41 845,-65 189,-16 377,-37 565,-57 70,-8 139,-26 209,-33 135,-13 270,-20 405,-34 109,-11 218,-28 327,-42 36,-5 73,-11 110,-9 115,6 225,-18 336,-39 108,-21 217,-40 327,-50 51,-5 105,12 158,21 58,10 116,31 173,31 192,-1 384,-10 576,-15 195,-6 389,-12 584,-16 48,-1 96,7 143,14 118,20 235,22 355,10 115,-11 231,-8 347,-9 155,-2 311,13 465,-24 71,-17 146,-19 219,-21 288,-9 577,-17 866,-22 50,-1 101,10 151,18 32,5 58,19 72,50 -21,37 -54,33 -84,36 -231,21 -463,22 -695,15 -76,-2 -152,10 -228,16 -40,3 -76,16 -106,47 -13,13 -33,27 -50,27 -64,0 -112,35 -162,66 -60,37 -120,75 -182,109 -24,13 -53,17 -80,25l0 0c59,-38 118,-76 177,-115 27,-18 53,-36 87,-60 -21,-9 -29,-15 -36,-15 -198,1 -396,3 -594,5 -367,5 -734,12 -1101,18 -37,1 -73,6 -110,12 -60,9 -67,15 -69,75 -2,82 1,164 2,246 0,13 0,27 0,39 -6,2 -10,4 -12,3 -103,-40 -110,-35 -111,79 0,31 1,62 3,93 1,8 6,15 13,31 23,-8 47,-13 69,-23 127,-59 260,-97 399,-111 44,-4 90,1 134,9 61,11 121,28 182,43 46,11 83,32 92,100 -104,-101 -240,-72 -351,-122 -97,16 -196,28 -292,51 -57,14 -110,45 -165,67 -48,19 -69,53 -67,105 2,102 3,204 0,306 -6,203 -18,406 -23,609 -2,90 4,181 8,271 2,41 26,60 65,64 84,8 163,-11 240,-41 25,-10 50,-22 91,-40 -41,66 -89,89 -145,102 -236,57 -471,119 -713,154 -218,31 -431,89 -647,135 -14,3 -27,7 -40,13 -223,100 -464,147 -693,229 -160,57 -319,116 -478,176 -172,65 -345,127 -513,201 -139,62 -271,139 -406,210 -40,21 -80,42 -119,64 -215,115 -429,230 -644,344 -11,6 -25,8 -42,4 97,-88 218,-137 330,-201 115,-66 232,-130 348,-195 115,-65 230,-130 356,-201 -62,-48 -116,-87 -166,-129 -34,-29 -63,-63 -93,-95 -12,-12 -20,-28 -32,-39 -70,-66 -141,-131 -211,-197 -164,-156 -327,-312 -490,-470 -187,-181 -370,-367 -560,-545 -117,-110 -244,-211 -368,-313 -22,-18 -56,-27 -85,-30 -53,-5 -108,-1 -161,-3 -17,-1 -34,-7 -51,-11 0,-7 1,-13 1,-20 62,-3 124,-6 196,-10 -53,-81 -117,-140 -184,-194 -207,-166 -417,-330 -627,-493 -28,-21 -66,-34 -101,-40 -195,-31 -390,-60 -585,-88 -22,-3 -45,-3 -68,-5 -155,-15 -309,-28 -464,-47 -272,-34 -544,-73 -816,-109 -168,-22 -337,-43 -506,-59 -186,-18 -372,-29 -558,-43 -65,-5 -130,-12 -195,-12 -59,0 -118,5 -177,11 -51,5 -101,20 -151,18 -196,-7 -389,26 -583,45 -200,19 -399,39 -598,62 -171,19 -342,43 -513,62 -126,14 -253,24 -380,37 -34,3 -67,14 -101,15 -149,9 -267,80 -376,176 -91,80 -188,154 -283,230 -231,183 -450,378 -665,580 -111,104 -233,197 -349,297 -131,113 -260,227 -389,341 -108,96 -215,192 -321,290 -48,44 -92,92 -139,136 -31,30 -65,51 -112,54 -28,2 -55,21 -98,40 12,-41 20,-68 29,-96 -22,-29 -46,-29 -69,-2 -14,17 -26,45 -53,25 -29,-21 -8,-45 5,-67 4,-7 5,-15 8,-28 -152,-75 -299,-163 -457,-221 -225,-83 -454,-157 -697,-175 -59,-4 -118,-13 -177,-22 -26,-4 -51,-12 -75,-29 93,-36 180,4 269,13 90,10 180,20 269,40 91,20 179,52 268,80 86,28 173,54 255,90 85,37 165,84 264,134 -15,-48 -40,-63 -65,-78 -23,-14 -49,-24 -88,-44 86,-26 124,-85 170,-137 73,-82 151,-160 226,-241 37,-39 71,-80 108,-120 82,-90 170,-175 246,-269 83,-103 155,-215 234,-322 59,-80 118,-159 180,-235 126,-153 255,-303 381,-455 20,-23 35,-50 53,-76 -24,-35 -57,-28 -86,-29 -65,-2 -130,3 -195,-1 -130,-7 -259,-18 -389,-25 -59,-3 -118,1 -177,0 -135,-2 -271,-1 -405,-9 -181,-11 -361,-29 -541,-43 -110,-8 -220,-16 -330,-22 -19,-1 -38,6 -59,10 0,42 0,80 0,122 -21,-3 -36,-6 -61,-9 0,150 -1,296 1,442 0,18 9,43 23,51 56,33 113,79 173,85 113,10 213,54 318,86 8,2 16,6 24,8 151,32 285,104 421,175 98,51 211,74 315,109 -32,27 -64,35 -113,15 -113,-45 -228,-86 -335,-143 -99,-53 -201,-88 -307,-118 -165,-47 -329,-99 -493,-149 -5,-1 -11,1 -24,3 2,24 7,48 5,72 -2,17 -11,40 -24,47 -12,6 -35,-3 -51,-10 -9,-4 -14,-21 -24,-23 -81,-23 -118,-74 -121,-159 -1,-19 -40,-44 -66,-55 -43,-18 -91,-26 -138,-66 78,-19 133,44 205,23 5,-38 16,-79 16,-120 -1,-93 -7,-186 -11,-280 -2,-35 -23,-52 -56,-49 -31,2 -61,10 -92,12 -49,3 -71,31 -73,76 -4,85 -8,169 -11,254 -2,65 -6,131 1,195 10,101 25,201 43,301 5,24 28,49 50,65 65,50 137,91 199,144 70,60 132,130 198,196 38,38 75,76 113,113 19,19 52,28 39,73 -14,-3 -33,0 -42,-9 -48,-44 -100,-86 -138,-138 -118,-163 -279,-272 -450,-368 -167,-94 -344,-170 -525,-236 -154,-57 -303,-126 -457,-182 -138,-51 -280,-91 -420,-137 -39,-13 -79,-26 -118,-69 25,0 36,-3 46,0 260,89 520,176 778,269 133,48 261,108 394,158 80,30 92,17 97,-69 3,-48 7,-96 10,-144 4,-69 -12,-84 -79,-107 -91,-32 -179,-69 -269,-104 -84,-33 -166,-75 -252,-100 -95,-27 -194,-36 -291,-57 -113,-25 -226,-52 -338,-82 -88,-23 -132,-54 -177,-122 26,8 45,10 59,19 71,43 147,68 230,83 103,19 203,51 305,74 66,15 133,24 199,39 38,9 76,22 113,36 87,33 174,67 260,103 31,13 59,33 90,47 28,13 57,28 86,31 16,2 49,-18 51,-30 10,-91 10,-183 0,-274 -6,-1 -13,-2 -19,-3 -10,15 -20,29 -35,51 -20,-32 -44,-59 -54,-91 -8,-25 2,-56 5,-84 4,-30 10,-60 18,-102 -77,-2 -144,-2 -211,-5 -73,-3 -147,-10 -220,-10 -107,1 -215,6 -322,10 -130,5 -260,10 -390,14 -25,1 -51,-5 -76,-6 -62,-1 -124,-1 -186,1 -54,1 -109,14 -161,6 -149,-22 -293,16 -439,22 -67,3 -134,7 -201,8 -33,1 -50,-22 -45,-57 6,-45 35,-73 75,-83 68,-17 138,-40 207,-39 263,4 526,19 789,24 195,3 390,-2 585,-5 96,-1 192,-4 289,-5 122,-2 243,-4 365,-7 36,-1 65,-14 75,-53 -70,-32 -211,-34 -264,-13 -54,-10 -94,-22 -134,-23 -127,-4 -255,2 -382,-6 -88,-6 -174,-4 -261,14 -55,11 -113,7 -169,5 -240,-9 -479,-25 -719,-30 -130,-3 -260,12 -389,20 -73,5 -145,14 -218,20 -70,6 -101,-12 -127,-71 11,-7 21,-20 33,-22 86,-14 173,-29 259,-36 141,-11 283,-8 423,-25 120,-15 237,6 355,11 169,8 338,20 507,28 22,1 46,-3 67,-9 106,-28 213,-28 320,-16 84,9 169,15 253,21 22,1 45,-2 67,-6 74,-13 86,-27 76,-102 -5,-41 -3,-77 13,-116 10,-25 9,-55 10,-83 1,-28 -2,-56 -4,-84 47,7 92,14 145,22 -12,13 -20,29 -32,33 -56,18 -72,59 -72,112 0,54 -3,108 -1,161 2,54 11,65 65,68 65,3 130,3 195,1 158,-4 316,-9 474,-15 70,-3 75,-11 78,-81 1,-31 2,-62 7,-93 9,-51 -1,-95 -35,-134 -24,-28 -42,-60 -31,-108 49,28 80,71 113,109 9,10 8,31 7,47 -2,64 -5,129 -7,193 -1,45 20,68 65,71 42,3 84,11 127,12 147,3 294,2 440,-23 35,-6 73,8 109,6 124,-4 249,-10 373,-16 39,-2 57,-25 55,-61 -7,-101 -16,-202 -24,-302 -3,-34 -10,-67 -9,-101 2,-52 69,-100 121,-88 11,2 21,8 35,13 -19,23 -24,34 -33,39 -67,34 -76,91 -70,158 8,90 13,180 19,270 4,65 19,80 83,78 121,-5 242,-16 363,-19 141,-3 282,-1 424,-1 129,0 136,-7 125,-134 -6,-73 -9,-147 -19,-219 -4,-29 -21,-56 -33,-84 67,9 75,20 79,78 6,96 14,191 26,286 10,79 22,88 105,88 127,0 255,-6 382,-2 150,5 299,19 448,26 99,5 198,9 297,3 104,-6 206,-9 311,-1 142,11 287,-5 430,-10l-1 1z"/>
  <path class="fil0" d="M20772 19483c-24,17 -47,41 -74,48 -152,43 -283,127 -417,207 -87,52 -177,101 -269,145 -221,105 -417,251 -617,389 -355,244 -717,475 -1092,686 -157,89 -304,197 -460,289 -129,76 -266,138 -398,209 -95,50 -187,106 -282,156 -207,110 -416,218 -623,328 -75,40 -147,85 -224,121 -117,56 -237,108 -355,161 -21,9 -42,18 -60,31 -229,152 -484,242 -742,329 -61,21 -118,54 -178,79 -83,35 -168,67 -254,101 1,23 3,43 4,74 -26,-7 -48,-7 -59,-18 -37,-37 -76,-32 -117,-14 -55,23 -109,48 -164,70 -65,26 -130,59 -198,74 -176,41 -335,120 -494,202 -126,64 -252,128 -379,190 -109,53 -220,104 -330,155 -40,18 -80,40 -146,27 26,-21 37,-36 52,-42 303,-126 602,-259 890,-420 117,-66 251,-101 378,-149 82,-31 164,-61 246,-92 71,-27 142,-55 214,-80 47,-16 85,-40 118,-78 126,-143 234,-298 340,-456 42,-63 92,-122 146,-175 91,-89 152,-197 213,-305 23,-40 17,-81 8,-123 -16,-77 -28,-156 -43,-233 -10,-54 3,-102 42,-140 54,-53 111,-104 166,-157 49,-47 101,-91 144,-143 52,-64 45,-109 -25,-145 -105,-54 -187,-135 -277,-208 -158,-128 -172,-302 -155,-485 0,-4 8,-6 18,-15 4,21 10,38 11,55 6,59 12,118 15,177 5,95 52,165 122,224 45,39 89,79 133,118 19,17 37,37 59,47 86,41 168,84 197,195 83,-43 156,-80 228,-117 25,-13 48,-31 74,-41 29,-11 60,-15 82,28 -18,8 -32,15 -46,21 -26,10 -54,17 -79,29 -71,35 -140,74 -212,105 -32,14 -44,32 -44,63 0,42 0,84 0,138 -62,-52 -8,-119 -47,-170 -15,14 -26,25 -38,35 -46,41 -92,82 -139,123 -8,7 -18,14 -27,20 -139,98 -177,232 -127,388 38,119 37,224 -50,323 -58,65 -108,138 -162,206 -61,78 -123,155 -183,233 -80,106 -159,213 -238,320 -11,15 -22,31 -35,50 36,29 67,12 97,-2 62,-28 122,-60 185,-85 107,-43 216,-85 325,-123 161,-56 311,-134 459,-218 74,-42 151,-77 228,-113 99,-48 200,-92 298,-141 162,-81 323,-163 483,-248 118,-62 232,-130 349,-193 226,-123 454,-242 679,-367 84,-46 161,-105 244,-155 230,-138 463,-273 692,-414 120,-74 233,-159 351,-238 289,-194 571,-397 886,-550 91,-44 177,-101 265,-152 105,-61 208,-126 330,-149 27,-5 51,-22 76,-33 5,6 9,12 14,18z"/>
  <path class="fil0" d="M16123 19769c-58,27 -59,68 -29,115 10,-38 20,-76 29,-115zm488 -2739c-14,23 -27,47 -43,69 -46,64 -96,127 -141,192 -21,30 -40,63 -50,97 -35,128 -63,258 -98,386 -18,68 -42,135 -69,199 -42,99 -89,195 -134,293 -26,57 -69,95 -127,118 -79,30 -158,61 -236,96 -104,46 -200,103 -278,190 -68,76 -143,146 -190,238 -24,47 -44,96 -72,156 34,-3 54,-1 71,-7 125,-48 244,-15 366,15 116,28 188,94 247,199 83,149 144,306 213,474 32,-42 69,-76 87,-118 17,-41 15,-90 24,-148 48,60 34,115 19,167 -26,90 -54,179 -87,266 -19,50 -21,98 -12,149 12,65 18,131 16,198 -33,-42 -40,-91 -46,-141 -16,-120 -30,-241 -50,-361 -10,-58 -30,-115 -51,-170 -46,-116 -102,-225 -165,-333 -41,-72 -95,-118 -175,-134 -36,-8 -73,-12 -108,-24 -134,-48 -256,-13 -375,49 -30,16 -55,33 -94,16 -18,-8 -47,10 -71,16 -54,14 -108,30 -163,41 -102,21 -207,34 -307,61 -113,30 -150,86 -151,205 0,56 -6,113 39,160 11,12 6,38 11,57 8,32 19,63 32,106 35,-25 61,-41 84,-59 22,-18 41,-39 63,-57 128,-105 181,-114 333,-53 39,16 74,36 69,93 -81,-58 -82,-55 -189,-78 -65,-14 -117,-1 -165,41 -24,20 -48,40 -72,59 -30,24 -46,52 -52,92 -7,47 -28,92 -42,138 -36,122 -58,247 -63,378 15,-1 25,-1 38,-2 -2,134 46,221 205,205 -32,52 -80,43 -124,41 43,129 134,155 229,69 20,-19 41,-37 76,-69 -9,52 -38,66 -56,87 -47,55 -48,69 -3,132 -19,0 -46,5 -49,-1 -24,-55 -83,-48 -122,-73 -127,-83 -224,-190 -234,-353 -1,-16 -3,-32 -6,-63 -51,67 -82,128 -111,191 -21,46 -41,94 -67,137 -59,96 -119,193 -184,285 -39,55 -91,99 -135,151 -68,79 -139,156 -200,240 -103,141 -199,289 -300,431 -85,120 -174,237 -263,354 -22,29 -52,52 -82,73 -120,84 -241,168 -363,249 -24,16 -53,33 -98,8 23,-17 38,-30 55,-41 68,-45 136,-90 204,-135 24,-16 45,-35 70,-48 88,-48 164,-111 222,-194 128,-183 254,-367 382,-550 44,-62 89,-125 137,-183 102,-124 201,-251 310,-370 101,-111 188,-240 250,-382 21,-46 42,-93 69,-136 80,-129 128,-270 161,-417 5,-21 4,-45 -2,-65 -17,-54 -35,-108 -59,-159 -57,-117 -60,-240 -50,-365 4,-55 25,-91 79,-118 73,-37 146,-62 227,-81 150,-36 310,-34 450,-114 42,-24 67,-52 89,-95 138,-272 321,-500 628,-594 22,-7 43,-14 64,-22 108,-45 199,-104 234,-227 16,-56 52,-107 75,-162 30,-73 66,-146 81,-222 26,-131 61,-258 99,-385 1,-3 1,-6 2,-8 16,-33 25,-72 50,-97 79,-79 101,-203 203,-264 6,5 13,9 19,14z"/>
  <path class="fil0" d="M14683 18385c-22,36 -42,73 -66,108 -32,46 -73,88 -101,136 -60,105 -154,160 -263,202 -191,74 -389,119 -591,147 -77,10 -137,42 -192,96 -91,88 -188,171 -286,253 -27,23 -63,37 -97,50 -193,71 -395,96 -596,129 -72,12 -144,20 -222,31 9,50 41,74 78,84 108,31 217,61 328,83 81,16 150,40 198,113 28,43 71,76 110,117 -88,65 -176,132 -298,150 -133,20 -262,71 -395,94 -122,22 -229,71 -338,125 -114,56 -206,139 -303,216 -130,103 -253,217 -380,324 -147,124 -294,247 -442,368 -48,39 -101,72 -150,110 -30,24 -56,53 -87,77 -44,35 -90,68 -136,101 -39,28 -79,54 -117,82 -64,46 -128,93 -191,141 -136,102 -268,209 -408,304 -210,143 -426,278 -639,417 -54,36 -107,75 -160,112 -22,15 -45,30 -67,45 -5,-4 -9,-9 -14,-13 9,-14 15,-32 28,-41 108,-77 216,-155 327,-228 209,-140 423,-274 630,-417 123,-85 239,-181 358,-272 11,-8 27,-18 29,-29 9,-65 63,-83 108,-110 205,-122 407,-249 579,-413 123,-118 268,-206 394,-319 99,-89 196,-180 296,-267 105,-90 211,-179 337,-239 23,-11 48,-20 67,-36 18,-15 30,-37 53,-68 80,-15 183,-19 275,-90 3,18 5,32 8,56 29,-6 58,-11 87,-17 99,-23 199,-45 297,-70 62,-16 126,-30 173,-88 -26,-42 -50,-83 -78,-122 -36,-50 -89,-64 -147,-73 -100,-17 -200,-36 -298,-60 -71,-17 -128,-60 -173,-117 -34,-43 -21,-75 34,-79 243,-20 481,-68 719,-121 97,-22 189,-55 266,-124 82,-74 175,-134 239,-227 35,-51 87,-78 150,-85 101,-12 202,-28 302,-42 14,-2 28,-3 42,-8 110,-37 219,-76 329,-112 85,-28 144,-86 197,-154 63,-80 131,-155 197,-233l4 3z"/>
  <path class="fil0" d="M18376 18218c14,6 28,13 41,19 43,21 84,47 129,62 60,20 96,56 111,116 23,93 59,185 2,282 6,3 13,6 19,9 29,-28 60,-54 86,-84 90,-105 177,-213 269,-316 25,-28 64,-46 99,-62 77,-35 156,-65 225,-94 -2,-105 -3,-200 -5,-295 -2,-84 -14,-94 -94,-116 -109,-30 -213,-37 -323,7 -95,38 -184,-28 -218,-155 145,75 287,106 429,2 2,6 4,12 6,17 -13,17 -27,35 -40,52 67,15 133,31 199,44 34,7 59,25 66,58 10,43 18,88 19,132 1,42 -10,84 -10,127 0,66 44,105 110,92 121,-24 239,-57 361,-126 -32,67 -73,97 -130,113 -139,38 -278,77 -416,119 -161,50 -297,136 -393,278 -33,49 -71,95 -105,143 -55,80 -137,126 -218,172 -145,81 -291,161 -436,243 -85,48 -133,129 -183,208 -45,71 -86,146 -124,222 -29,58 -53,119 -71,181 -13,45 -36,67 -80,75 -167,30 -335,55 -499,93 -154,36 -304,87 -455,132 -41,12 -80,27 -121,38 -49,13 -85,39 -111,84 -76,131 -129,270 -153,420 -14,89 -30,178 -46,272 -35,3 -59,-9 -50,-51 35,-154 66,-310 111,-461 25,-82 72,-159 119,-233 23,-36 63,-69 103,-83 141,-49 285,-93 429,-132 117,-32 237,-55 356,-80 91,-19 183,-35 275,-52 48,-9 70,-46 89,-84 61,-121 114,-246 181,-364 55,-98 123,-187 230,-241 96,-48 184,-110 277,-164 24,-14 50,-25 76,-37 101,-45 151,-138 131,-247 -9,-47 -21,-94 -32,-141 -10,-43 -38,-66 -78,-83 -47,-20 -92,-43 -136,-68 -13,-7 -21,-22 -32,-33 3,-3 5,-7 8,-10z"/>
  <path class="fil0" d="M21287 19096c62,-16 124,-34 187,-46 166,-33 315,-107 462,-187 389,-212 744,-476 1087,-753 240,-194 479,-389 742,-551 233,-143 435,-323 647,-494 63,-51 134,-96 209,-126 155,-63 285,-159 418,-256 189,-139 387,-265 599,-368 137,-67 270,-143 406,-212 192,-98 395,-149 613,-138 -25,5 -51,14 -76,15 -246,16 -466,104 -675,231 -225,136 -457,261 -683,395 -97,58 -190,124 -277,195 -114,93 -245,151 -379,205 -41,17 -83,38 -116,66 -135,113 -266,229 -399,343 -24,20 -49,39 -75,56 -179,119 -360,236 -537,357 -77,52 -151,110 -221,171 -262,230 -547,430 -832,629 -202,141 -411,271 -636,374 -145,67 -296,110 -463,94z"/>
  <path class="fil0" d="M16903 18578c-85,-6 -156,-11 -239,-17 29,166 28,327 -73,472 3,-17 2,-35 8,-49 43,-97 39,-199 33,-301 -4,-71 -32,-131 -97,-169 -24,-14 -45,-35 -65,-54 -54,-50 -115,-68 -187,-46 -27,8 -56,12 -90,18 5,-19 6,-28 8,-28 125,-39 211,-140 327,-194 31,-14 59,-38 91,-45 77,-17 130,-64 178,-123 66,-81 140,-157 154,-268 5,-39 6,-78 7,-118 1,-44 -17,-88 23,-128 11,-11 5,-53 -8,-69 -12,-15 -44,-18 -67,-17 -28,2 -54,15 -82,22 -40,10 -77,8 -121,-26 68,-21 140,2 197,-56 -22,-45 -46,-93 -69,-141 6,-4 13,-8 19,-12 21,27 43,54 63,81 38,52 49,59 105,28 121,-66 240,-131 339,-236 92,-98 209,-171 316,-254 31,-24 70,-39 101,-62 119,-87 254,-135 396,-167 47,-11 91,-31 138,-39 49,-9 100,-8 150,-11 32,-2 64,-5 101,-8 1,31 -19,55 -57,52 -116,-10 -222,35 -333,56 -130,25 -246,79 -359,146 -188,112 -356,249 -514,401 -34,33 -79,55 -120,80 -55,34 -111,67 -166,99 28,158 -5,310 -43,458 -13,51 -58,95 -91,141 -35,47 -74,92 -114,142 32,23 58,42 84,61 -1,5 -3,11 -4,16 -22,-4 -45,-7 -67,-12 -48,-11 -94,-14 -141,8 -57,27 -101,60 -90,132 -53,4 -43,-36 -50,-74 -44,31 -81,57 -119,84 0,5 1,11 1,16 70,-7 108,40 149,80 78,75 178,78 277,87 32,3 67,-7 99,43z"/>
  <path class="fil0" d="M12071 14730c106,-66 206,-51 304,-48 90,2 180,7 270,8 124,1 248,3 370,31 85,19 173,26 259,39 134,21 267,45 402,63 104,14 208,19 312,28 23,2 45,2 68,6 170,27 339,59 510,82 188,25 376,42 565,63 59,6 118,11 177,20 154,24 307,50 460,74 25,4 51,5 76,8 180,15 360,35 541,45 209,11 413,61 624,62 254,1 507,30 760,47 0,5 1,11 1,16 -31,1 -61,2 -92,2 -31,0 -62,1 -93,-1 -34,-1 -68,-3 -102,-6 -23,-2 -45,-7 -67,-8 -175,-7 -350,-11 -525,-22 -90,-6 -179,-26 -269,-36 -154,-17 -309,-32 -464,-45 -200,-17 -400,-22 -599,-56 -211,-35 -426,-52 -639,-80 -160,-21 -319,-48 -478,-71 -45,-7 -90,-11 -135,-15 -23,-2 -46,2 -68,-4 -226,-62 -460,-54 -689,-83 -39,-5 -78,-16 -117,-22 -115,-16 -229,-30 -344,-46 -72,-10 -144,-28 -217,-32 -172,-10 -345,-14 -517,-19 -89,-2 -177,0 -284,0z"/>
  <path class="fil0" d="M14271 16234c87,-70 173,-137 293,-148 77,-7 153,-27 248,-45 -33,-24 -48,-35 -67,-48 7,-22 15,-44 23,-68 10,1 20,-2 26,2 48,25 94,53 142,76 33,15 69,20 104,32 23,8 49,15 69,28 75,51 158,73 248,77 20,1 40,1 59,7 89,28 178,31 268,8 71,-18 140,-2 210,-1 209,1 419,-9 628,-6 72,1 144,23 216,38 58,12 114,29 172,42 45,10 96,-3 136,34 8,8 33,1 49,-2 109,-16 219,-28 327,-49 146,-29 293,-22 440,-18 170,5 339,9 509,17 99,4 197,18 296,21 66,2 133,-5 196,-8 -33,39 -97,60 -174,52 -53,-6 -107,-15 -160,-17 -98,-4 -197,-2 -296,-5 -99,-3 -198,-6 -296,-15 -193,-17 -383,-17 -574,29 -96,23 -196,31 -294,41 -33,3 -68,-5 -100,-13 -128,-33 -256,-69 -385,-103 -19,-5 -39,-8 -58,-8 -246,-1 -492,-2 -738,0 -56,0 -112,11 -169,18 -11,1 -23,7 -33,5 -150,-19 -304,-17 -449,-72 -81,-31 -166,-53 -251,-74 -23,-6 -50,2 -74,9 -93,25 -182,59 -281,62 -45,1 -89,32 -132,53 -40,20 -78,45 -116,68 -4,-6 -8,-12 -12,-18z"/>
  <path class="fil0" d="M17681 18522c-106,17 -199,32 -293,47 -94,14 -188,28 -282,41 -2,-7 -4,-14 -6,-21 15,-7 28,-18 44,-21 137,-24 273,-45 410,-68 91,-16 178,-38 258,-94 105,-74 234,-95 359,-123 11,-2 22,-4 44,-9 0,-33 1,-66 0,-99 -11,-293 28,-581 77,-868 12,-70 20,-140 21,-211 1,-76 27,-142 61,-218 8,14 16,22 14,26 -39,94 -33,194 -46,292 -30,213 -63,425 -82,639 -12,129 -4,260 1,390 3,85 -18,110 -103,108 -56,-1 -110,3 -151,57 -18,24 -56,36 -88,46 -90,30 -171,67 -225,154 -46,74 -64,150 -57,234 5,66 47,113 94,156 14,12 27,24 42,37 -11,6 -18,12 -21,10 -66,-33 -109,-1 -151,48 -53,62 -112,119 -173,183 33,67 102,132 65,234 -21,-63 -22,-129 -90,-179 4,43 6,73 11,120 -41,-47 -73,-84 -111,-128 7,-9 21,-29 39,-53 -15,-23 -30,-45 -44,-68 4,-2 10,-8 12,-7 77,38 77,38 129,-28 19,-24 44,-69 59,-66 81,17 94,-54 129,-93 11,-12 14,-46 5,-60 -78,-127 -41,-244 28,-359 7,-11 10,-24 21,-51z"/>
  <path class="fil0" d="M11510 18166c-31,35 -64,28 -82,-7 -35,-69 -82,-127 -132,-186 -31,-37 -36,-90 -5,-127 62,-74 41,-161 52,-243 10,-70 -9,-134 -40,-196 -39,-80 -44,-162 -13,-246 14,-37 24,-76 31,-115 21,-112 0,-214 -85,-296 -42,-41 -82,-86 -130,-119 -57,-38 -120,-33 -199,2 16,19 32,36 50,57 -12,-1 -21,0 -27,-4 -47,-27 -93,-34 -146,-14 -44,16 -87,8 -132,-40 41,-2 68,-3 106,-5 -95,-71 -179,-135 -264,-199 -56,-42 -95,-95 -118,-178 18,15 27,20 32,27 94,124 221,208 350,290 45,28 91,33 145,15 126,-41 232,-15 334,80 148,138 162,299 107,473 -28,90 -34,169 12,253 49,90 53,190 42,290 -3,27 -17,53 -27,79 -14,34 -34,66 -42,101 -5,25 -3,59 11,79 51,76 108,148 168,230z"/>
  <path class="fil0" d="M14680 18382c74,-99 143,-204 225,-296 69,-78 158,-137 230,-212 52,-54 93,-120 138,-180 29,-38 53,-80 86,-114 145,-153 311,-281 503,-370 125,-58 257,-103 385,-155 39,-16 77,-36 116,-52 42,-17 83,-39 127,-46 159,-26 299,-103 420,-195 116,-88 249,-113 368,-180 3,6 6,12 10,19 -73,33 -146,66 -219,99 2,6 4,12 6,17 40,-8 80,-13 119,-25 72,-22 138,-14 203,27 58,35 120,63 181,94 14,7 26,15 40,23 -2,6 -5,12 -7,17 -47,-16 -100,-22 -139,-49 -84,-59 -174,-48 -267,-45 -189,6 -363,67 -518,169 -64,42 -127,51 -195,62 -28,4 -56,10 -82,21 -177,74 -356,144 -530,225 -133,62 -256,141 -368,239 -117,102 -214,217 -290,351 -13,24 -36,44 -58,61 -134,101 -255,213 -344,359 -33,54 -90,93 -135,139 0,0 -4,-3 -4,-3z"/>
  <path class="fil0" d="M9304 16699c33,63 70,93 117,108 73,24 102,74 100,148 -1,90 -1,180 1,270 1,73 4,147 7,220 2,42 6,85 5,127 -5,201 -11,401 -18,602 -2,46 -9,92 -14,139 -7,1 -14,2 -21,3 -7,-15 -19,-30 -19,-45 -1,-62 3,-124 4,-187 5,-198 10,-395 14,-593 2,-115 2,-231 0,-346 -1,-65 -10,-129 -13,-194 -3,-55 -31,-88 -81,-107 -21,-8 -41,-19 -60,-31 -47,-28 -76,-67 -69,-129 122,-68 261,-57 393,-80 133,-23 264,-49 397,-74 2,6 4,12 6,18 -18,9 -36,20 -55,26 -171,52 -347,78 -525,97 -52,5 -104,18 -168,29z"/>
  <path class="fil0" d="M7996 18678c18,-51 60,-84 101,-117 31,-25 45,-50 48,-92 10,-110 38,-218 44,-327 11,-192 11,-384 17,-576 5,-141 6,-283 20,-423 6,-59 -6,-97 -53,-129 -28,-19 -55,-40 -80,-63 -15,-14 -24,-33 -43,-59 75,20 191,103 213,148 7,15 11,33 9,49 -39,293 -23,588 -31,882 -4,132 -25,264 -39,396 -3,27 -5,54 -7,86 69,1 121,-24 166,-54 96,-64 195,-48 294,-21 117,33 204,184 181,311 -11,58 -35,114 -43,173 -7,54 -2,110 -9,166 -38,-51 -40,-108 -27,-166 11,-47 28,-92 36,-140 13,-78 22,-155 -34,-227 -74,-95 -222,-136 -334,-90 -148,61 -285,137 -390,263 -7,8 -17,14 -25,21 -5,-3 -10,-6 -14,-10z"/>
  <path class="fil0" d="M10263 16584c120,-23 239,-43 356,31 -6,79 -32,153 -65,229 -68,160 -135,323 -120,504 6,70 2,141 2,212 0,24 -5,48 -23,74 -5,-11 -13,-21 -14,-32 -6,-138 -14,-276 -15,-415 0,-44 16,-87 26,-131 5,-25 18,-49 18,-73 1,-61 20,-109 70,-146 16,-12 25,-34 41,-58 -20,0 -30,0 -45,0 7,-17 13,-32 19,-47 13,-33 47,-64 23,-102 -27,-43 -70,-23 -109,-19 -37,4 -73,9 -110,10 -20,0 -39,-8 -59,-12 2,-9 3,-18 5,-27z"/>
  <path class="fil0" d="M12564 17859c44,-9 78,-15 121,-23 -17,45 -51,48 -77,60 -59,29 -65,40 -43,110 9,29 -1,42 -36,42 -4,-18 -8,-37 -12,-55 -12,-45 -30,-57 -74,-41 -106,39 -213,76 -316,123 -47,21 -86,62 -128,95 -47,38 -88,86 -168,88 12,-22 16,-38 27,-47 48,-39 96,-79 148,-112 52,-33 109,-60 165,-84 96,-41 194,-77 292,-115 34,-13 58,-33 55,-75 -13,-186 33,-365 68,-545 15,-75 32,-149 48,-223 2,-10 9,-19 25,-28 0,17 3,34 0,51 -30,158 -66,315 -90,474 -15,96 -31,195 -4,304z"/>
  <path class="fil0" d="M4808 17236c38,22 77,41 113,66 49,33 101,48 160,44 83,-6 161,13 241,35 133,37 269,62 409,26 79,-20 160,-34 241,-47 60,-10 103,-43 142,-86 18,-20 31,-38 19,-68 -5,-14 4,-33 10,-64 51,61 48,116 42,181 -15,-10 -25,-17 -40,-27 -55,70 -134,94 -219,109 -63,11 -125,35 -188,45 -170,27 -336,5 -500,-50 -36,-12 -79,-12 -116,-6 -120,18 -214,-40 -307,-99 -12,-7 -13,-31 -19,-47 4,-4 9,-8 13,-11z"/>
  <path class="fil0" d="M20194 16864c3,57 -38,86 -77,108 -140,79 -282,154 -423,231 -65,35 -127,75 -195,103 -193,81 -387,158 -582,233 -39,15 -81,39 -138,9 25,-15 39,-27 55,-33 89,-35 179,-69 269,-102 34,-13 71,-21 104,-35 107,-44 213,-89 319,-136 59,-26 117,-56 175,-86 80,-42 158,-86 237,-129 17,-9 33,-25 51,-30 82,-23 146,-72 206,-133z"/>
  <path class="fil0" d="M6590 17076c19,15 41,27 57,45 36,41 83,55 133,68 147,36 293,19 438,-3 84,-12 168,-25 251,-41 139,-27 277,-57 414,-87 48,-10 93,-9 155,18 -30,10 -44,17 -59,20 -100,17 -200,33 -300,50 -103,17 -206,36 -309,54 -75,13 -151,24 -226,38 -136,25 -271,17 -405,-11 -82,-17 -140,-68 -150,-150z"/>
  <path class="fil0" d="M18696 16505c39,39 28,81 30,118 4,77 -1,101 96,115 93,14 180,2 268,-20 81,-20 160,-36 242,-9 21,7 45,7 67,6 105,-5 207,12 310,36 102,23 186,79 282,122 -51,11 -75,9 -125,-19 -130,-70 -273,-89 -417,-101 -62,-5 -124,-13 -186,-13 -59,0 -118,2 -175,15 -97,21 -194,37 -294,30 -81,-6 -110,-35 -119,-115 -7,-65 -3,-105 20,-165z"/>
  <path class="fil0" d="M6398 19583c-9,-60 -23,-120 -24,-181 -2,-94 -28,-177 -88,-251 -31,-39 -53,-87 -78,-131 -31,-55 -76,-80 -140,-75 -42,3 -84,1 -145,1 31,48 52,82 84,132 -30,-18 -46,-25 -59,-36 -24,-19 -50,-38 -69,-62 -25,-31 -79,-26 -83,-85 -7,-98 -21,-195 34,-306 6,31 11,45 11,59 -2,56 -10,113 -7,169 4,68 29,89 97,91 42,1 85,-1 127,-4 81,-7 143,22 187,91 42,67 84,134 126,201 6,10 11,20 15,30 46,116 13,237 39,355 -9,1 -17,2 -26,3z"/>
  <path class="fil0" d="M13005 16480c-66,107 -128,205 -189,303 -5,-2 -11,-5 -16,-7 28,-64 56,-127 85,-194 -83,9 -158,70 -173,137 -18,77 -36,154 -55,231 -2,10 -10,19 -20,37 -36,-52 -1,-93 3,-134 4,-44 15,-88 25,-137 -67,-12 -117,26 -172,41 -57,15 -112,36 -173,56 32,-49 34,-49 124,-75 48,-14 96,-30 162,-51 -96,-55 -156,-122 -206,-197 3,-5 7,-10 10,-15 16,10 34,19 49,31 43,36 86,73 128,110 45,39 90,36 140,6 74,-46 151,-88 227,-131 13,-7 29,-7 51,-12z"/>
  <path class="fil0" d="M11411 15804c18,2 38,1 55,6 283,81 566,160 848,244 100,30 196,72 293,111 73,30 145,62 217,95 14,6 26,18 33,41 -81,-29 -166,-50 -241,-89 -145,-76 -300,-117 -455,-160 -212,-60 -425,-118 -637,-179 -41,-12 -79,-34 -119,-51 2,-6 4,-12 6,-17z"/>
  <path class="fil0" d="M8910 18195c-9,-37 -23,-74 -25,-111 -7,-220 -11,-441 -17,-661 -3,-121 -8,-243 -16,-364 -2,-32 -18,-65 -34,-94 -18,-32 -45,-58 -66,-88 -17,-24 -38,-49 -13,-89 15,13 29,22 38,34 27,36 51,75 78,111 39,50 44,111 46,169 5,138 0,276 4,414 8,217 20,434 30,651 0,8 -4,16 -6,24 -7,1 -14,2 -20,4z"/>
  <path class="fil0" d="M11803 16710c-65,8 -102,-13 -137,-42 -112,-94 -221,-192 -340,-277 -72,-52 -158,-86 -240,-122 -135,-59 -272,-112 -407,-168 -24,-10 -55,-15 -62,-63 30,8 54,13 75,22 164,68 328,137 493,205 95,39 182,89 253,166 32,35 73,62 111,91 80,61 160,120 254,190z"/>
  <path class="fil0" d="M5018 18135c110,-25 219,-51 329,-76 22,-5 46,-7 66,-16 125,-59 258,-57 391,-52 84,3 106,23 113,104 9,101 29,203 -3,303 -9,28 -22,56 -38,97 -31,-54 -11,-91 0,-127 26,-86 23,-173 6,-260 -12,-64 -27,-78 -90,-78 -118,1 -237,-12 -349,47 -43,23 -99,20 -148,31 -63,14 -126,31 -190,44 -28,6 -56,7 -85,10 -1,-9 -2,-18 -2,-26z"/>
  <path class="fil0" d="M9557 19277c41,-16 81,-34 123,-48 139,-47 279,-92 419,-139 190,-64 379,-130 570,-191 44,-14 94,-7 142,4 -208,63 -418,120 -622,192 -206,73 -414,140 -620,215 -4,-11 -8,-22 -12,-34z"/>
  <path class="fil0" d="M12034 16736c20,3 39,1 49,9 38,29 75,59 109,92 32,31 38,64 20,113 -25,70 -33,148 -40,223 -10,101 -18,203 -17,304 2,141 13,282 20,422 1,24 4,47 5,71 -6,1 -12,3 -17,4 -6,-13 -16,-25 -18,-39 -7,-53 -15,-106 -15,-160 -2,-183 -3,-366 1,-549 2,-96 12,-192 27,-286 10,-63 -10,-103 -61,-136 -24,-16 -59,-23 -65,-69z"/>
  <path class="fil0" d="M6293 17164c22,31 36,46 44,64 9,23 9,51 20,73 60,125 68,249 3,374 -6,12 -11,27 -12,41 -5,132 -10,265 -12,397 -1,48 4,96 6,144 4,89 7,178 11,274 -45,-23 -43,-62 -44,-96 -2,-212 -4,-423 -1,-635 1,-50 10,-103 30,-148 44,-104 38,-202 -12,-302 -20,-40 -32,-85 -44,-128 -3,-11 5,-24 13,-58z"/>
  <path class="fil0" d="M6522 17088c11,23 27,46 33,71 26,113 57,225 71,340 11,88 7,180 -6,269 -25,166 -25,332 -13,498 1,20 -3,40 -5,60 -6,0 -11,0 -17,0 -3,-15 -9,-29 -10,-44 -16,-158 -10,-315 1,-473 4,-62 18,-124 15,-185 -4,-92 -14,-185 -29,-276 -10,-61 -32,-120 -48,-180 -6,-23 -8,-47 -11,-71 6,-2 12,-5 19,-7z"/>
  <path class="fil0" d="M14128 16741c38,90 89,176 58,291 -16,-21 -29,-38 -43,-57 -43,-7 -80,12 -116,34 -188,114 -376,228 -565,342 -45,27 -89,57 -149,53 11,-9 21,-20 33,-27 213,-127 426,-254 640,-381 31,-19 64,-36 96,-53 53,-27 56,-33 44,-93 -7,-35 -14,-70 -22,-104 8,-2 16,-3 23,-5z"/>
  <path class="fil0" d="M10472 18741c-66,-67 -127,-48 -183,-19 -77,39 -137,15 -172,-76 -13,-34 -17,-71 -24,-107 -7,-39 -10,-79 -21,-116 -28,-98 -92,-163 -192,-183 -71,-15 -144,-19 -221,-29 8,-5 16,-14 24,-15 96,-9 192,-8 280,39 80,42 130,108 147,196 9,47 13,95 21,142 18,102 58,124 159,96 40,-11 83,-13 125,-11 31,1 60,16 56,83z"/>
  <path class="fil0" d="M5431 19221c-9,22 -18,44 -28,66 -18,39 -40,75 -54,115 -39,107 -32,210 26,310 41,71 77,145 114,218 29,57 67,105 129,140 -16,2 -37,10 -48,3 -32,-22 -71,-44 -88,-76 -61,-111 -119,-225 -170,-341 -52,-116 -11,-228 35,-335 16,-38 41,-72 62,-108 7,3 14,6 22,9z"/>
  <path class="fil0" d="M13317 16695c99,-28 197,-55 296,-82 101,-27 203,-49 302,-82 99,-33 194,-77 290,-118 95,-40 189,-82 296,-129 -25,49 -58,68 -94,83 -152,61 -304,122 -456,183 -31,13 -64,24 -96,33 -117,33 -234,66 -351,96 -60,16 -120,26 -181,39 -2,-7 -5,-14 -7,-22z"/>
  <path class="fil0" d="M25182 14732c-73,48 -144,99 -219,142 -179,102 -360,201 -540,300 -40,22 -76,55 -122,63 -4,-6 -7,-11 -11,-17 18,-15 34,-33 54,-44 172,-98 343,-198 517,-292 104,-56 213,-103 320,-155l2 2z"/>
  <path class="fil0" d="M10448 17843c-1,-16 -3,-20 -2,-21 90,-81 183,-161 301,-196 102,-30 204,3 295,47 36,17 54,72 80,110 -6,5 -13,11 -19,16 -15,-17 -31,-32 -44,-51 -24,-34 -57,-50 -96,-63 -139,-47 -259,-23 -370,72 -41,35 -82,75 -145,85z"/>
  <path class="fil0" d="M6593 18925c-10,-58 -26,-116 -30,-174 -6,-93 -5,-186 -5,-279 0,-30 0,-64 50,-66 7,72 16,141 18,210 3,104 1,208 2,312 -12,-1 -23,-2 -35,-2z"/>
  <path class="fil0" d="M12255 18355c-74,-12 -127,23 -174,60 -170,132 -370,191 -575,235 -10,2 -21,-1 -46,-3 22,-19 32,-33 46,-38 26,-10 54,-18 82,-22 189,-30 353,-116 509,-220 23,-16 48,-30 74,-42 31,-14 60,-12 85,30z"/>
  <path class="fil0" d="M10581 18399c-117,67 -207,35 -237,-70 -20,-72 -33,-81 -108,-76 -22,1 -43,2 -78,4 32,-41 67,-38 97,-43 82,-12 81,-11 95,-95 4,-24 12,-47 18,-71 6,0 13,0 19,1 2,20 8,40 5,58 -15,77 -6,151 22,225 23,60 25,64 90,67 21,1 42,0 77,0z"/>
  <path class="fil0" d="M7905 18824c-9,41 -16,73 -23,105 -15,66 -29,132 -47,198 -17,63 -8,124 9,184 26,96 95,137 193,118 16,-3 32,-7 53,-12 -46,58 -109,73 -169,43 -53,-26 -95,-67 -107,-125 -13,-60 -25,-123 -18,-183 9,-86 34,-171 55,-256 6,-25 10,-56 56,-71z"/>
  <path class="fil0" d="M11437 18278c-31,28 -44,47 -62,55 -112,49 -181,169 -306,195 -4,-5 -7,-11 -11,-16 47,-30 95,-59 140,-92 45,-33 87,-70 137,-110 -60,-108 -110,-223 -141,-352 50,3 53,31 61,54 18,56 33,114 53,169 19,51 36,107 130,97z"/>
  <path class="fil0" d="M7280 16472c63,-14 101,6 138,23 119,52 237,107 357,158 38,16 81,22 122,32 34,8 68,16 99,32 -96,7 -190,10 -276,-44 -45,-28 -98,-44 -146,-67 -92,-42 -183,-84 -294,-134z"/>
  <path class="fil0" d="M15271 21107c-50,-6 -52,-31 -48,-62 27,-193 46,-387 29,-582 -2,-21 3,-42 7,-81 54,134 48,252 34,372 -9,84 -10,169 -15,253 -2,32 -5,64 -8,99z"/>
  <path class="fil0" d="M14531 16533c68,-30 119,-39 172,-22 49,15 97,29 145,45 86,30 173,53 265,27 18,-5 38,-1 61,-1 -48,41 -137,66 -211,54 -44,-7 -89,-18 -129,-38 -76,-37 -153,-56 -237,-51 -16,1 -33,-7 -66,-15z"/>
  <path class="fil0" d="M11897 17898c-1,-75 -2,-150 -2,-225 0,-76 -1,-152 1,-228 2,-74 -34,-147 -3,-222 61,213 30,432 37,648 0,10 -9,20 -14,30 -6,-1 -13,-2 -19,-3z"/>
  <path class="fil0" d="M4756 19152c121,23 240,57 354,104 24,10 47,32 61,55 36,57 52,179 27,257 -5,-18 -12,-36 -14,-54 -20,-208 -33,-223 -238,-280 -67,-19 -132,-41 -199,-61 3,-7 5,-14 8,-21z"/>
  <path class="fil0" d="M15187 20881c-10,-12 -27,-22 -30,-36 -34,-130 -67,-261 -98,-391 -3,-14 5,-30 16,-47 66,150 98,307 112,474z"/>
  <path class="fil0" d="M8788 15606c96,40 191,78 282,134 90,55 190,93 300,146 -65,14 -64,13 -98,-4 -62,-32 -126,-60 -188,-92 -102,-53 -203,-108 -304,-162 3,-7 6,-14 8,-21z"/>
  <path class="fil0" d="M6593 18925c12,1 23,2 35,2 116,-13 230,-31 316,-126 -16,49 -41,87 -87,106 -71,28 -143,54 -215,80 -39,14 -79,15 -111,-16 -10,-10 -11,-28 -22,-55 36,4 59,7 83,9z"/>
  <path class="fil0" d="M11871 16784c-10,10 -19,25 -30,28 -27,6 -57,11 -84,7 -99,-17 -196,-6 -293,9 -12,2 -26,-5 -55,-11 25,-16 37,-29 49,-30 131,-8 263,-13 394,-19 4,0 8,7 18,16z"/>
  <path class="fil0" d="M17093 19756c-82,53 -171,88 -273,58 -113,-33 -151,-103 -123,-235 6,32 10,53 15,74 20,81 58,120 141,121 80,2 160,-11 240,-18z"/>
  <path class="fil0" d="M6702 19292c-7,30 -16,59 -22,89 -24,123 15,181 136,206 52,11 104,20 168,33 -90,26 -250,-4 -301,-52 -12,-11 -23,-25 -31,-39 -30,-60 -8,-185 51,-236z"/>
  <path class="fil0" d="M13194 17191c-10,-15 -21,-25 -22,-36 -1,-16 4,-33 9,-49 47,-143 43,-288 24,-435 -4,-33 -6,-66 -10,-107 71,68 68,369 -2,627z"/>
  <path class="fil0" d="M19713 16332c-130,7 -255,12 -381,20 -27,2 -55,12 -84,-25 28,-7 47,-14 68,-16 98,-7 197,-13 295,-19 40,-2 80,-3 102,40z"/>
  <path class="fil0" d="M9289 16918c-27,-4 -47,-1 -61,-9 -77,-40 -155,-45 -237,-15 -26,9 -53,17 -77,-9 93,-77 287,-64 375,32z"/>
  <path class="fil0" d="M16633 19181c-59,38 -123,44 -186,42 -39,-1 -73,-25 -80,-65 -12,-60 -29,-121 9,-200 6,58 9,98 15,138 10,68 25,81 93,85 25,1 51,0 76,0 25,0 49,0 74,0z"/>
  <path class="fil0" d="M8299 16925c19,-14 27,-24 36,-25 114,-7 228,-13 350,-19 -58,49 -275,74 -386,44z"/>
  <path class="fil0" d="M14463 16972c-67,-138 -60,-285 -43,-434 39,41 20,92 25,138 6,50 3,101 9,152 6,48 18,94 28,141 -7,1 -13,2 -20,3z"/>
  <path class="fil0" d="M13240 17731c-31,-32 -12,-67 -8,-101 5,-36 12,-73 13,-109 1,-34 -6,-67 -9,-101 -3,-35 -4,-70 4,-104 66,138 25,276 -1,415z"/>
  <path class="fil0" d="M15969 20791c2,-158 62,-303 96,-454 24,82 -5,158 -31,233 -26,73 -14,156 -65,221z"/>
  <path class="fil0" d="M18472 16973c-21,8 -43,16 -65,24 -5,-4 -10,-8 -15,-11 44,-100 35,-215 96,-311 27,101 -72,191 -16,299z"/>
  <path class="fil0" d="M14869 20588c108,-95 142,-228 195,-358 20,65 -9,148 -96,287 -23,37 -44,76 -99,71z"/>
  <path class="fil0" d="M7754 19175c-169,-32 -220,-149 -247,-291 31,-1 49,24 52,48 13,108 80,169 170,214 7,3 10,12 24,29z"/>
  <path class="fil0" d="M5095 20196c-28,8 -56,20 -84,23 -43,3 -66,-21 -56,-63 12,-53 33,-105 54,-168 33,37 17,63 10,88 -26,100 -27,100 76,121z"/>
  <path class="fil0" d="M6072 17532c35,153 -10,260 -112,276 90,-64 80,-171 112,-276z"/>
  <path class="fil0" d="M16153 13535c6,10 15,17 15,23 -7,63 -15,126 -24,197 -49,-30 -36,-69 -36,-102 0,-43 -3,-89 45,-118z"/>
  <path class="fil0" d="M8868 19315c-44,-64 -100,-123 -77,-217 32,69 65,138 97,208 -6,3 -13,6 -20,9z"/>
  <path class="fil0" d="M17590 19428c28,72 38,145 39,220 -45,-68 -45,-144 -39,-220z"/>
  <path class="fil0" d="M5976 13729c-46,30 -84,43 -131,20 65,-62 68,-62 131,-20z"/>
  <path class="fil0" d="M25181 14730c59,-62 136,-94 215,-120 -64,54 -134,96 -213,122 0,0 -2,-2 -2,-2z"/>
  <path class="fil0" d="M8218 16499c64,0 129,0 193,0 -65,51 -129,13 -193,0z"/>
  <path class="fil0" d="M16258 13112c-73,32 -73,32 -127,15 19,-20 39,-28 61,-28 19,0 40,5 65,13z"/>
  <path class="fil0" d="M12847 13813c-26,-2 -53,-4 -92,-7 49,-35 49,-35 134,-32 -18,17 -31,28 -43,40l1 -1z"/>
  <path class="fil0" d="M25674 14425c-53,37 -105,74 -157,112 -4,-6 -7,-12 -11,-17 50,-41 102,-79 168,-94l0 0z"/>
  <path class="fil0" d="M17802 16529c-64,0 -128,0 -192,0 0,-3 0,-5 0,-8 64,0 128,0 192,0 0,3 0,5 0,8z"/>
  <path class="fil0" d="M13244 13146c-18,42 -53,41 -89,47 28,-46 28,-46 89,-47z"/>
  <path class="fil0" d="M11503 18354c-33,-26 -47,-51 -34,-94 42,23 50,49 34,94z"/>
  <path class="fil0" d="M7308 18656c45,17 91,34 136,51l0 0c-52,1 -97,-16 -135,-51l-1 1z"/>
  <path class="fil0" d="M16142 13219c31,28 24,63 22,97 -6,1 -11,1 -17,2 -1,-33 -3,-66 -4,-99l-1 1z"/>
  <path class="fil0" d="M7444 18706c45,12 54,43 47,90 -18,-34 -33,-62 -47,-90l0 0z"/>
  <path class="fil0" d="M18135 16444c-19,5 -37,11 -56,16 -1,-4 -2,-8 -3,-12 18,-5 37,-11 56,-16 1,4 2,8 3,12z"/>
  <path class="fil0" d="M18043 14429c-6,7 -10,13 -15,18 -7,-6 -14,-12 -21,-18 5,-5 10,-14 16,-14 6,0 12,8 20,14z"/>
  <path class="fil0" d="M7308 18655c-28,0 -57,0 -85,0 1,-6 2,-13 2,-19 27,7 55,13 82,20l1 -1z"/>
  <path class="fil0" d="M16143 13218c-7,-4 -19,-8 -19,-13 -1,-8 5,-18 8,-27 5,5 14,10 15,16 2,7 -3,16 -4,24l1 -1z"/>
  <path class="fil1" d="M9485 16330c49,-35 94,-67 143,-102l-143 102z"/>
  <path class="fil1" d="M9848 16023c-14,42 -35,78 -100,95 28,-49 63,-73 100,-95z"/>
  <path class="fil1" d="M23471 14534c45,0 91,0 136,0 0,5 0,9 -1,14 -45,-3 -90,-5 -134,-8 0,-2 -1,-4 -1,-6z"/>
  <path class="fil1" d="M23869 15059c0,52 0,104 0,156 -1,0 -3,0 -5,0 0,-52 0,-104 0,-156 2,0 3,0 5,0z"/>
  <path class="fil1" d="M23155 14536c-39,0 -78,0 -117,0 0,-5 0,-10 1,-15 18,1 35,2 53,4 22,2 43,4 64,6 0,2 0,3 0,5z"/>
  <path class="fil1" d="M15885 14182c-26,0 -52,0 -78,0 0,-2 0,-4 0,-6 26,0 52,0 78,0 0,2 0,4 0,6z"/>
  <path class="fil1" d="M9735 16182c-14,6 -27,12 -41,18 -2,-5 -4,-10 -6,-14 14,-6 28,-11 42,-17 2,4 4,9 6,13z"/>
  <path class="fil1" d="M16123 19769c-10,38 -20,76 -29,115 -29,-47 -29,-87 29,-115z"/>
  <path class="fil0" d="M20706 15884c3,-55 35,-73 61,-90 117,-73 237,-144 355,-215 29,-18 60,-33 86,-54 25,-20 17,-48 -15,-56 -16,-4 -34,-7 -50,-4 -99,19 -197,-6 -295,-9 -87,-3 -175,0 -262,3 -46,1 -92,6 -137,-3 0,-6 -1,-11 -1,-17 15,-4 29,-11 44,-11 158,-1 314,-33 474,-5 82,14 169,0 254,4 29,1 58,19 90,30 151,-55 309,-117 469,-171 118,-40 237,-78 359,-103 138,-28 279,-38 421,-19 117,15 235,18 357,26 5,20 -4,40 -34,47 -13,3 -28,4 -42,2 -104,-12 -207,-28 -311,-36 -70,-6 -141,-6 -211,0 -297,25 -571,134 -846,236 -107,40 -203,110 -305,166 -77,42 -156,80 -231,125 -58,34 -112,76 -168,114 -17,11 -34,23 -60,41z"/>
 </g>
</svg>
