<?xml version="1.0" encoding="UTF-8"?>
<!DOCTYPE svg PUBLIC "-//W3C//DTD SVG 1.1//EN" "http://www.w3.org/Graphics/SVG/1.1/DTD/svg11.dtd">
<!-- Creator: CorelDRAW X6 -->
<svg xmlns="http://www.w3.org/2000/svg" xml:space="preserve" width="210mm" height="297mm" version="1.1" style="shape-rendering:geometricPrecision; text-rendering:geometricPrecision; image-rendering:optimizeQuality; fill-rule:evenodd; clip-rule:evenodd"
viewBox="0 0 21000 29700"
 xmlns:xlink="http://www.w3.org/1999/xlink">
 <defs>
  <style type="text/css">
   <![CDATA[
    .fil0 {fill:#2B2A29}
    .fil1 {fill:#FEFEFE}
   ]]>
  </style>
 </defs>
 <g id="Слой_x0020_1">
  <metadata id="CorelCorpID_0Corel-Layer"/>
  <path class="fil0" d="M2 14891c346,0 692,0 1038,0 0,4 0,9 0,13 -24,0 -48,0 -72,0 -231,0 -462,2 -692,1 -93,0 -186,2 -274,37 0,-17 0,-34 0,-51z"/>
  <path class="fil0" d="M7871 27673c-2,-4 -3,-7 -5,-11 -9,4 -18,7 -27,11 3,4 6,12 8,11 8,-3 16,-7 24,-11zm-1556 926c0,4 0,9 0,13 13,0 26,0 39,0 0,-4 0,-9 0,-13 -13,0 -26,0 -39,0zm5191 -795c-6,-2 -12,-3 -18,-5 -3,12 -7,23 -10,35 7,1 20,4 21,3 4,-10 5,-22 8,-33zm-4371 732c-11,15 -25,26 -24,35 1,8 17,16 26,24 8,-10 18,-20 21,-31 1,-5 -12,-14 -23,-27zm2427 -560c-7,1 -14,2 -21,3 0,51 0,103 0,154 4,0 7,0 11,0 4,-52 7,-105 11,-157zm100 323c-20,-36 -39,-71 -52,-94 -4,86 -4,86 52,94zm487 90c23,12 44,40 76,13 5,-4 5,-25 0,-29 -24,-23 -50,-18 -73,4 -2,1 -1,5 -3,13zm-1164 -1201c5,-41 33,-81 5,-133 -26,51 -36,91 -5,133zm-1551 1366c-34,0 -59,0 -88,0 37,63 48,63 88,0zm-121 33c-60,-60 -88,-57 -104,0 30,0 59,0 104,0zm-69 48c49,58 107,32 164,37 -48,-47 -98,-61 -164,-37zm-88 14c-156,-74 -156,-74 -214,-3 70,12 137,14 214,3zm4336 -1022c7,0 13,0 20,0 0,-37 0,-74 0,-112 0,-42 2,-84 1,-126 -1,-35 24,-73 -18,-114 -28,123 -1,237 -2,351zm-5023 887c-56,0 -111,-2 -166,2 -10,1 -19,25 -30,42 132,32 176,21 196,-44zm603 48c-23,-58 -23,-63 -54,-65 -53,-3 -111,-24 -162,42 74,24 139,33 216,23zm1640 -885c10,-32 17,-44 18,-58 12,-143 22,-285 34,-430 -28,1 -38,14 -40,42 -9,135 -19,270 -29,404 0,7 5,14 16,41zm-49 13c22,-150 24,-292 10,-436 -19,20 -30,41 -32,63 -7,87 -13,173 -16,260 -2,38 -3,77 38,112zm1057 -2966c28,47 71,51 104,31 51,-32 71,-88 69,-162 -74,49 -168,10 -240,69 38,49 73,-7 114,2 -18,23 -32,42 -47,60zm-3869 3876c117,0 233,0 349,0 0,-2 0,-3 1,-5 -22,-3 -44,-6 -74,-11 38,-22 82,8 108,-36 -13,-7 -22,-17 -31,-17 -70,-5 -140,-11 -210,-12 -36,-1 -73,7 -109,13 -31,6 -54,19 -34,68zm3567 -325c0,-135 0,-259 0,-382 0,-126 0,-253 0,-379 0,-104 -6,-209 39,-307 2,-5 -8,-16 -13,-25 -101,350 -74,705 -72,1069 -24,-18 -41,-31 -64,-48 10,67 53,66 111,72zm-147 -819c39,-66 12,-144 54,-204 -8,152 -21,304 -37,454 -16,152 -9,401 20,452 9,-12 22,-21 23,-31 6,-47 17,-96 12,-143 -27,-266 7,-529 42,-791 9,-67 0,-78 -78,-98 -32,56 -44,174 -36,362zm240 -196c-56,39 -59,87 -57,135 12,290 -27,580 -4,870 4,45 23,49 55,42 3,-8 6,-10 6,-13 -5,-154 -12,-309 38,-459 3,-10 0,-22 -1,-33 -10,-157 -20,-315 -30,-472 -2,-24 -5,-47 -8,-70zm-1719 -1261c6,9 12,17 18,26 102,-77 203,-155 305,-231 102,-76 206,-149 308,-224 105,-76 210,-152 314,-230 101,-77 202,-153 300,-235 97,-81 204,-150 295,-239 -544,337 -1047,727 -1539,1133zm1067 1118c6,26 17,52 16,78 -5,98 -15,197 -23,295 -6,83 -25,167 6,250 5,13 -12,35 -18,53 -6,-1 -12,-2 -18,-3 -7,-25 -14,-51 -21,-77 -17,5 -30,11 -43,13 -14,2 -28,0 -59,0 122,118 87,264 130,392 2,-81 4,-162 7,-244 8,0 15,0 23,0 0,74 0,148 0,222 8,0 15,0 23,-1 4,-168 6,-337 12,-505 6,-166 15,-332 24,-516 -29,22 -43,33 -58,44 -53,11 -61,57 -66,97 -15,131 -25,263 -36,395 -1,17 8,34 12,52 54,-21 52,-62 54,-101 5,-115 9,-231 15,-346 2,-33 12,-66 19,-99zm-1152 1458c-8,-37 -17,-74 -25,-109 -16,-3 -24,-5 -32,-5 -27,0 -54,9 -51,40 2,15 25,30 42,41 21,13 44,21 67,32 -32,42 -81,25 -107,8 -27,-17 -34,-64 -54,-105 -58,7 -122,15 -186,23 0,5 0,10 0,14 50,4 100,8 157,13 -27,37 -45,62 -72,99 106,6 195,11 284,17 0,6 0,11 -1,17 -39,0 -78,0 -117,0 -36,0 -72,-4 -106,9 100,0 200,0 299,0 8,-31 12,-53 19,-73 7,-19 17,-37 24,-54 -33,-23 -74,1 -98,-36 115,-26 115,-26 112,-72 -44,7 -87,15 -124,21 -12,46 -22,84 -32,121zm1898 -1035c2,94 -23,190 11,283 4,-81 5,-163 3,-244 0,-13 -10,-25 -16,-38 6,-30 11,-61 19,-90 39,-141 -5,-274 -124,-356 -46,-32 -97,-56 -147,-82 -13,-7 -29,-6 -44,-9 123,76 223,171 295,299 -53,70 -17,151 -25,227 0,2 17,7 27,10zm743 -2928c13,-34 24,-68 1,-118 -22,51 -20,84 0,117 -3,21 -5,41 -8,62 -21,-33 -30,-68 -32,-102 -3,-51 -31,-66 -79,-67 -19,53 -19,102 1,168 12,-30 18,-46 29,-73 10,158 15,164 107,150 -1,-46 17,-94 -18,-136zm-49 3741c-10,21 -21,41 -31,62 34,43 64,8 99,-13 7,21 12,38 17,56 4,1 10,4 14,3 139,-31 279,-61 418,-94 137,-33 272,-69 408,-103 37,-9 52,-38 68,-69 45,-84 93,-166 142,-247 8,-14 26,-23 39,-34 6,4 11,8 17,12 -13,25 -22,55 -41,75 -80,82 -115,184 -140,292 -10,4 -20,7 -29,11 -123,30 -246,60 -369,88 -137,31 -275,60 -412,91 -27,6 -53,16 -98,30 101,56 203,64 290,110 -19,41 -45,29 -68,22 -129,-39 -259,-77 -387,-120 -112,-38 -220,-86 -333,-123 -104,-34 -209,-67 -321,-24 -27,10 -67,0 -96,-12 -187,-83 -384,-77 -581,-80 -60,-1 -122,11 -184,-13 41,-37 41,-38 206,-38 69,0 138,6 214,9 -32,-234 7,-459 22,-686 0,161 0,323 0,484 5,1 9,3 14,4 12,-15 23,-30 38,-49 -7,199 -7,201 37,244 0,-383 0,-762 0,-1148 -25,-10 -52,-22 -76,-32 -38,22 -13,81 -65,86 -5,1 -10,36 -10,55 -8,248 -18,496 -22,743 -1,88 13,176 21,282 -31,-40 -52,-66 -72,-93 8,-101 16,-201 24,-302 19,-241 31,-482 23,-724 -1,-20 -5,-39 -8,-58 -22,24 -32,48 -34,72 -8,109 -14,218 -21,326 -4,73 -6,146 -13,219 -14,157 -8,313 29,466 -1,13 -1,27 -2,46 -51,-18 -61,-55 -62,-94 -2,-59 -3,-118 -1,-178 8,-200 18,-400 27,-600 1,-29 11,-66 -46,-71 -5,23 -12,47 -14,71 -7,121 -17,242 -17,363 0,106 14,212 20,318 1,22 5,50 -6,64 -37,50 -31,99 -8,161 -23,-6 -40,-11 -57,-14 -71,-10 -70,-10 -78,-78 -7,-67 -20,-134 -22,-202 -3,-73 -38,-125 -94,-161 -58,-37 -73,-84 -66,-149 9,-94 9,-189 13,-294 -63,43 -85,94 -73,157 29,141 8,281 -11,420 -14,98 -20,196 8,293 5,18 2,39 1,58 -1,47 -1,94 -5,141 -5,59 -21,112 -71,154 -125,105 -271,141 -428,147 -37,1 -74,5 -112,-1 33,-39 79,-39 121,-47 69,-13 140,-18 207,-38 209,-62 222,-126 232,-313 9,-154 -6,-309 19,-463 3,-21 -1,-44 -3,-73 -54,-11 -105,-21 -158,-31 7,-12 13,-23 23,-40 -123,-27 -244,-39 -368,-20 -13,2 -28,6 -39,14 -44,35 -89,69 -129,108 -27,27 -46,62 -80,109 0,0 -20,8 -37,3 -84,-24 -162,3 -239,25 -108,30 -217,35 -327,27 -78,-6 -157,-15 -236,-12 -81,3 -162,19 -242,32 -69,11 -139,38 -207,36 -60,-2 -103,19 -146,50 -21,15 -38,38 -60,61 -29,-29 -62,-14 -99,6 -117,61 -211,150 -300,245 -33,35 -14,67 -2,108 86,0 172,1 259,0 67,-1 132,16 201,-7 37,-12 83,8 124,6 115,-6 230,-18 346,-23 78,-3 157,2 236,3 149,1 300,17 446,-5 115,-17 231,-26 345,-50 30,-6 59,-16 91,-25 4,10 8,20 13,30 14,33 18,80 42,95 48,30 100,65 166,48 28,-8 60,-13 94,21 -55,27 -107,37 -158,27 -51,-10 -99,-35 -160,-58 -7,40 -15,71 -18,103 -5,54 -13,68 -63,72 -188,14 -376,34 -565,9 -103,-13 -209,-6 -313,-12 -135,-8 -271,3 -403,-27 -15,-3 -29,-11 -49,-18 56,-26 56,-26 191,-15 19,-18 39,-37 59,-55 4,2 8,4 12,6 -6,15 -12,31 -22,57 60,-26 131,32 184,-52 -64,-13 -118,-23 -186,-37 38,-8 62,-13 97,-20 -16,-18 -25,-38 -35,-38 -76,-3 -151,-3 -227,-2 -31,0 -52,17 -58,58 57,12 112,24 167,35 0,6 0,11 1,17 -151,-16 -296,-6 -422,93 -85,-50 -177,-31 -265,-34 -87,-3 -175,16 -261,10 -92,-6 -183,-27 -274,-46 -22,-5 -42,-24 -57,-50 39,10 78,22 117,30 41,8 83,12 125,19 22,4 44,12 66,15 69,8 90,-12 93,-83 1,-31 9,-63 3,-93 -23,-121 38,-219 83,-322 3,-6 11,-10 23,-20 14,57 -32,98 -28,153 14,-9 25,-12 32,-20 88,-104 204,-169 321,-230 57,-30 74,-67 76,-132 4,-138 23,-275 38,-412 21,-196 53,-391 49,-590 -1,-53 11,-107 26,-157 7,-23 32,-46 55,-57 42,-20 70,1 73,49 13,219 24,438 39,657 9,138 21,275 33,413 3,33 5,61 -42,84 -38,-384 -14,-767 -91,-1159 -17,28 -31,42 -34,57 -9,47 -15,95 -19,142 -23,238 -46,477 -68,715 -6,65 -15,129 -17,194 -1,35 11,71 18,112 29,0 54,3 78,-1 136,-21 271,-48 407,-65 69,-9 140,-5 210,-2 65,3 129,12 193,18 71,6 105,-17 124,-84 17,-57 31,-114 45,-172 6,-26 11,-51 52,-45 -23,88 -47,175 -73,274 37,-7 62,-12 91,-17 6,-170 44,-335 6,-500 -36,-158 -76,-315 -108,-474 68,161 119,327 147,500 0,-98 2,-196 -1,-294 -4,-141 -12,-282 -16,-423 -1,-35 -4,-75 41,-98 30,30 38,66 37,106 -6,180 -15,361 -15,541 0,93 13,185 21,278 4,40 9,70 -29,110 -43,46 -37,125 -27,188 38,10 69,20 100,26 54,11 90,-26 126,-56 29,-24 22,-53 7,-84 -37,-81 -20,-166 -10,-250 5,-47 15,-94 15,-140 5,-271 6,-541 11,-812 2,-123 9,-246 14,-381 -58,19 -107,41 -157,49 -148,25 -283,93 -426,134 -57,16 -112,38 -168,55 -185,58 -370,117 -556,173 -27,8 -60,2 -89,-2 -30,-4 -60,-12 -90,-18l1 1c3,-42 33,-64 64,-85 104,-72 212,-139 313,-215 97,-73 189,-151 281,-231 255,-222 510,-444 763,-668 91,-80 177,-165 265,-248 7,-7 9,-18 14,-28 -33,-21 -53,0 -71,15 -145,117 -294,227 -421,364 -76,82 -165,153 -251,225 -175,146 -353,290 -530,433 -97,78 -196,152 -294,228 -9,7 -19,11 -44,25 12,-28 14,-44 23,-52 40,-35 82,-69 124,-103 263,-213 527,-425 789,-638 50,-41 94,-89 141,-133 80,-75 160,-151 241,-224 22,-20 40,-37 34,-71 -3,-21 2,-45 7,-66 15,-69 36,-136 46,-205 16,-103 21,-207 39,-309 37,-212 9,-427 37,-640 16,-120 30,-241 35,-361 9,-188 10,-377 15,-568 -60,-52 -66,-60 -21,-129 45,-70 44,-145 40,-221 -5,-99 -4,-197 19,-294l-1 1c6,29 17,58 18,87 4,121 4,242 10,362 1,33 -4,53 -35,68 -16,8 -28,25 -49,45 26,16 46,28 67,41 1,7 3,16 2,24 -8,48 -15,93 12,140 11,20 7,49 7,74 1,104 6,208 1,312 -7,132 -22,264 -34,396 -15,157 -34,313 -24,472 6,94 -9,191 -27,284 -26,142 -63,282 -94,424 -2,10 2,21 4,43 30,-21 52,-37 73,-53 34,-25 66,-53 101,-76 45,-30 60,-26 93,13 45,54 46,56 109,31 142,-55 283,-112 425,-167 205,-79 412,-155 617,-233 32,-12 62,-27 94,-37 25,-8 52,-10 77,-14 13,43 -7,56 -33,66 -241,87 -482,174 -721,263 -140,52 -277,111 -416,167 -39,16 -78,35 -119,45 -121,28 -212,99 -297,184 -181,182 -371,353 -570,515 -200,164 -391,339 -585,509 -23,20 -43,44 -81,36 -13,-3 -33,7 -45,17 -47,36 -92,74 -141,113 35,35 68,13 96,4 180,-56 360,-113 538,-173 165,-55 329,-115 495,-171 28,-10 59,-11 91,-16 28,-68 80,-118 139,-163 211,-161 426,-315 632,-482 231,-187 480,-347 724,-514 149,-102 298,-203 447,-305 13,-9 25,-21 40,-35 -120,-19 -120,-19 -102,-90 34,2 70,5 115,8 7,-39 19,-74 19,-109 2,-314 34,-624 77,-935 14,-98 23,-196 29,-295 3,-44 -6,-89 -7,-133 -5,-135 -10,-270 -13,-405 -1,-36 0,-74 10,-108 4,-14 33,-22 51,-32 8,16 25,33 23,49 -21,188 -15,376 -1,565 5,69 -7,140 -14,210 -30,280 -62,560 -92,840 -2,14 1,28 1,42 1,82 3,163 4,245 0,24 0,49 0,77 53,0 95,-4 136,1 38,4 75,18 123,29 -23,52 -41,95 -62,137 -20,39 -47,76 14,106 -40,47 -87,53 -129,48 -78,-8 -154,-22 -241,12 10,-29 15,-45 23,-66 -70,7 -123,43 -173,83 -334,264 -665,531 -1013,776 -168,118 -331,243 -498,363 -33,24 -51,50 -52,90 -1,37 -5,73 -6,110 -4,285 -7,569 -11,854 -1,101 0,203 -2,304 0,19 0,42 -10,57 -23,37 -15,75 -14,115 2,83 22,90 108,87 99,-4 197,-11 296,-10 67,0 136,5 202,18 30,6 56,36 89,59 35,-84 13,-165 -15,-243 -12,-33 -21,-51 16,-76 25,-17 37,-55 54,-84 10,-5 21,-8 29,-14 66,-55 132,-111 198,-167 15,-13 29,-27 44,-41 -111,51 -212,112 -270,224 -9,-8 -25,-17 -25,-24 1,-13 11,-26 19,-36 107,-133 239,-230 403,-281 5,-2 12,-1 16,-4 119,-67 245,-48 360,-6 203,74 382,188 360,465 -14,179 -22,359 -25,539 -2,100 12,199 19,299 6,1 12,3 17,4 7,-14 20,-28 21,-43 3,-70 3,-141 3,-212 -1,-197 -1,-395 -4,-592 0,-39 -14,-78 -14,-117 -1,-81 2,-163 5,-244 4,-101 10,-203 13,-304 5,-158 14,-316 11,-473 -6,-290 -20,-581 -31,-871 -4,-92 -43,-112 -118,-64 -219,141 -425,298 -624,464 -166,139 -338,271 -509,405 -31,25 -65,52 -130,53 29,-27 43,-43 60,-56 252,-200 502,-402 757,-597 157,-119 322,-228 487,-336 34,-22 84,-21 133,-32 0,87 -1,162 0,237 6,262 13,524 18,786 2,101 -3,203 -3,305 -1,152 -3,303 -1,455 4,294 10,589 15,883 1,36 0,71 0,109 20,0 30,3 36,0 83,-41 166,-84 249,-125 53,-26 68,-61 63,-122 -11,-143 -9,-287 -13,-431 -2,-67 -9,-135 -8,-202 3,-129 10,-259 16,-388 7,-152 17,-304 22,-456 6,-166 7,-332 11,-498 3,-146 10,-293 11,-439 1,-155 -4,-310 -7,-464 0,-10 -7,-20 -14,-40 -67,0 -135,0 -207,0 10,-56 57,-42 84,-66 8,-59 -68,-100 -48,-176 20,13 36,19 43,30 21,37 38,75 57,113 14,27 34,48 66,40 35,-8 36,-39 36,-68 0,-84 0,-168 0,-252 81,-41 156,2 238,-9 -2,47 -4,88 -6,129 -3,67 -7,135 -10,202 -2,42 -25,51 -62,47 -38,-5 -77,-7 -118,-11 -22,51 -45,91 -9,139 9,12 12,33 9,48 -29,174 -7,349 -12,523 -3,115 -7,231 -11,346 -3,98 -8,197 -10,295 -6,265 -2,531 -19,795 -14,220 -7,439 -9,659 0,59 8,117 13,182 213,10 420,21 627,29 203,8 407,12 619,18 6,-46 17,-90 17,-134 0,-124 -7,-248 -7,-372 0,-83 24,-113 105,-127 52,-9 106,-10 160,-12 36,-2 73,2 110,0 35,-1 68,-4 84,38 3,6 26,4 50,7 0,69 2,143 0,218 -3,110 -10,219 -13,329 -1,28 6,56 9,84 0,0 1,-1 1,-1 -42,2 -51,-25 -52,-60 -4,-124 -9,-248 -14,-372 -1,-25 0,-50 0,-75 -6,0 -12,0 -18,0 0,145 0,290 0,443 -52,-19 -48,-53 -48,-82 -1,-135 -1,-270 -1,-412 -62,-6 -128,-24 -199,-11 -37,7 -57,23 -58,60 -1,135 -1,271 -1,406 0,33 18,53 50,58 30,5 61,8 92,9 39,1 77,0 114,0 12,42 -9,51 -33,52 -42,2 -86,8 -127,0 -89,-17 -176,-19 -262,13 -13,5 -28,4 -42,3 -123,-8 -246,-19 -369,-24 -179,-6 -359,-7 -538,-11 -59,-1 -118,-7 -177,-10 -22,-1 -48,-5 -66,3 -92,42 -182,87 -288,139 167,115 314,236 479,332 -3,7 -6,14 -8,21 -26,-4 -51,-8 -77,-11 -51,-34 -102,-68 -153,-101 -39,-28 -79,-57 -118,-85 -16,-16 -32,-31 -52,-50 -25,44 -8,65 18,84 -12,29 -24,58 -41,99 -35,-28 -67,-54 -105,-85 20,-14 28,-23 38,-26 34,-9 41,-33 41,-64 -1,-34 -23,-49 -49,-62 -37,-19 -63,-9 -66,32 -4,58 -1,118 3,176 1,14 15,36 27,39 82,21 165,37 264,58 -44,-65 -79,-116 -113,-167 12,-12 24,-24 36,-36 13,65 69,70 119,85 4,21 7,42 10,57 53,17 98,31 143,45z"/>
  <path class="fil0" d="M12959 27679c-1,-6 -2,-13 -3,-19 -45,6 -89,12 -134,19 1,6 2,12 3,18 45,-6 89,-12 134,-17zm264 -106c5,-14 20,-39 21,-65 5,-95 8,-190 8,-286 0,-84 -9,-168 -9,-253 0,-90 14,-180 10,-270 -15,-335 -10,-669 3,-1004 10,-270 21,-540 5,-810 -4,-59 -1,-118 -1,-178 -93,-39 -188,-27 -283,-22 -33,2 -53,17 -58,49 -5,30 -10,61 -12,91 -4,56 -7,112 -9,169 -7,132 -14,264 -19,396 -5,158 -7,315 -11,473 -4,132 -10,264 -13,396 -4,166 -5,332 -10,498 -4,129 -21,258 -17,387 4,116 -2,230 -18,345 -5,34 -15,74 19,97 130,-4 256,-9 395,-13zm-1062 340c87,-37 175,-74 263,-109 41,-17 84,-29 125,-59 -35,5 -71,6 -106,15 -152,39 -304,80 -456,119 -15,4 -32,0 -48,0 0,0 -1,1 -1,1 11,-9 27,-16 31,-28 21,-65 78,-72 132,-85 192,-44 384,-89 576,-135 96,-23 99,-27 106,-123 7,-96 17,-191 18,-287 1,-56 -14,-111 -16,-167 -3,-56 -1,-113 1,-169 7,-154 17,-309 23,-463 8,-200 14,-399 19,-599 3,-93 2,-186 5,-279 7,-237 15,-473 23,-710 1,-42 4,-85 10,-126 7,-54 31,-79 86,-88 47,-7 95,-9 143,-14 30,-3 59,-7 96,-11 -28,-78 -16,-146 -12,-216 4,-67 -10,-135 -12,-202 -3,-155 -2,-310 -3,-465 -1,-188 1,-377 -3,-565 -3,-172 -13,-343 -16,-515 -1,-33 18,-66 29,-104 -53,-55 -122,-69 -208,-27 -41,20 -78,25 -121,19 -36,-5 -73,0 -109,0 -37,1 -73,3 -110,2 -129,-4 -259,-13 -388,-14 -267,-3 -534,-1 -802,-2 -135,0 -270,1 -405,-3 -118,-3 -236,-13 -354,-20 -45,-2 -90,-3 -135,-5 -126,-6 -253,-9 -379,-18 -70,-5 -139,-20 -209,-28 -72,-8 -145,-21 -226,19 -2,-37 -9,-69 -6,-100 13,-120 37,-240 40,-361 4,-126 -10,-253 -16,-380 -2,-41 -6,-81 25,-117 6,276 30,551 -13,825 88,13 168,28 248,36 137,14 275,21 412,37 298,34 597,24 895,31 186,4 372,12 558,15 186,3 372,0 558,1 107,1 214,2 320,7 32,1 59,-12 87,-16 133,-20 269,-43 393,40 51,35 64,84 20,125 -28,26 -28,52 -27,82 6,237 14,473 16,710 2,169 -7,337 -6,506 1,121 10,241 13,362 2,78 0,157 -1,236 0,20 -2,40 -1,59 4,63 13,71 77,73 132,5 265,10 397,16 19,1 38,5 57,7 14,42 -5,56 -40,55 -51,-2 -101,-5 -152,-8 -64,-4 -129,-9 -193,-12 -55,-3 -73,9 -78,65 -8,90 -9,180 -11,270 -1,17 6,34 5,50 -5,203 -12,406 -17,609 -2,98 -1,197 -1,295 0,14 3,28 1,42 -22,217 -11,434 2,650 2,28 -1,56 0,85 3,112 -18,224 1,337 7,38 -1,79 -3,118 -4,87 -7,174 -12,261 -2,44 19,63 61,60 31,-2 62,-3 92,-9 77,-17 153,-38 238,-59 8,-159 16,-318 23,-477 8,-194 15,-389 24,-583 1,-22 13,-44 12,-66 -3,-49 -9,-99 -17,-147 -7,-41 -28,-81 -28,-121 -2,-90 4,-180 9,-270 9,-149 21,-298 32,-447 1,-17 1,-34 5,-50 12,-48 44,-63 87,-38 41,24 82,51 122,77 134,88 268,176 402,266 93,63 184,130 278,192 49,33 102,59 154,87 47,25 91,53 123,116 -382,-216 -729,-461 -1083,-697 -53,148 -43,295 -46,439 -1,49 17,98 26,148 2,14 7,29 3,42 -42,135 -21,275 -28,412 -15,313 -24,625 -37,938 -2,55 -10,111 -16,178 90,-5 170,-12 251,-15 124,-4 247,-5 371,-6 124,-1 247,4 370,1 84,-2 169,-8 252,-19 106,-15 182,-87 257,-155 17,-15 19,-53 19,-80 -3,-113 -1,-227 -19,-337 -21,-136 -9,-270 -8,-405 2,-163 10,-327 13,-490 3,-141 -77,-242 -177,-321 -168,-132 -344,-255 -522,-375 -102,-69 -212,-128 -322,-186 -136,-72 -263,-153 -368,-266 -13,-14 -24,-31 -34,-47 -2,-3 1,-10 4,-25 18,9 36,13 47,25 127,128 279,214 440,294 153,76 292,181 434,276 94,63 180,136 274,198 104,69 175,165 239,269 14,23 21,53 20,80 -2,178 -10,355 -10,533 0,106 -27,214 14,318 4,10 3,22 1,33 -20,113 17,222 27,333 5,58 11,116 18,189 -83,113 -210,182 -364,203 -145,20 -290,38 -435,56 -14,2 -32,7 -42,1 -73,-49 -148,-10 -222,-8 -143,4 -286,13 -429,17 -110,3 -218,15 -323,53 -75,28 -153,64 -230,69 -150,9 -294,46 -441,64 -22,3 -43,13 -65,17 -35,7 -71,12 -106,19 -27,5 -55,10 -82,19 -112,38 -224,77 -336,114 -24,8 -49,9 -74,13l1 1z"/>
  <path class="fil0" d="M8101 22092c110,-18 199,-124 326,-79 24,-18 47,-36 75,-56 -128,-34 -342,36 -401,135zm1661 -667c-47,-41 -89,-33 -131,-14 -225,102 -451,205 -675,308 -110,50 -219,103 -327,156 -20,10 -36,26 -54,39 148,-49 287,-109 427,-168 179,-76 363,-138 533,-234 48,-27 97,-55 159,-48 19,2 42,-22 69,-38zm1035 -1486c-4,-4 -7,-8 -11,-13 -28,21 -57,40 -84,62 -201,160 -400,321 -601,479 -226,177 -455,351 -683,526 -18,13 -39,32 -58,31 -40,-1 -63,22 -87,45 -104,95 -204,195 -311,286 -146,124 -296,242 -445,364 -46,38 -91,77 -137,116 27,13 48,19 65,12 117,-46 235,-91 350,-143 264,-120 527,-243 790,-365 37,-17 65,-39 90,-73 43,-59 91,-114 141,-167 77,-81 162,-156 237,-239 118,-132 230,-270 343,-406 47,-56 91,-114 136,-171 49,-62 99,-122 147,-185 40,-52 78,-106 116,-160zm-2818 2352c-37,-28 -75,-54 -109,-85 -22,-20 -15,-48 4,-68 41,-42 80,-88 127,-123 124,-93 257,-174 377,-271 242,-194 478,-395 715,-594 60,-51 117,-106 176,-159 10,-9 20,-23 32,-27 155,-50 261,-173 389,-262 67,-46 123,-106 203,-135 36,-13 67,-42 98,-66 108,-86 215,-172 322,-259 135,-110 269,-222 404,-333 65,-53 133,-102 199,-155 24,-19 50,-40 65,-66 85,-146 220,-238 349,-338 36,-28 68,-24 99,2 41,34 83,68 120,107 109,114 215,231 323,346 31,33 67,60 100,91 106,97 214,192 316,293 193,190 375,392 575,573 149,134 270,286 381,450 52,77 55,150 13,230 -21,40 -45,78 -31,127 4,13 -4,38 -15,46 -45,33 -36,78 -37,123 -3,169 -8,338 -12,507 -1,50 0,99 -16,154 -8,-11 -23,-22 -23,-34 -2,-51 0,-101 1,-152 1,-110 3,-219 4,-329 0,-59 -2,-118 -4,-177 -2,-38 3,-77 -41,-103 -24,-15 -13,-46 4,-68 27,-33 56,-64 81,-97 60,-79 61,-116 10,-198 -97,-157 -215,-294 -353,-418 -145,-129 -278,-273 -415,-411 -161,-162 -314,-330 -493,-475 -124,-100 -224,-230 -335,-346 -47,-49 -94,-97 -140,-147 -31,-33 -64,-36 -97,-7 -115,107 -244,200 -325,340 -49,85 -114,160 -173,240 -50,68 -100,136 -152,203 -99,126 -197,253 -301,375 -146,172 -298,338 -444,510 -47,55 -81,121 -130,195 38,4 64,9 91,9 110,0 219,-12 327,24 36,12 78,4 118,5 203,7 406,15 608,22 152,5 303,12 455,13 104,1 208,-7 312,-12 172,-7 344,-16 515,-21 256,-7 513,-12 769,-16 38,-1 75,5 126,9 -42,55 -90,51 -130,53 -155,4 -310,4 -464,3 -118,-1 -235,-9 -353,-7 -62,1 -123,17 -185,20 -152,7 -304,11 -456,15 -132,3 -264,9 -396,6 -191,-4 -383,-16 -574,-24 -62,-2 -124,-1 -186,-3 -101,-3 -201,-16 -302,-30 -85,-12 -174,5 -265,9 0,95 -86,97 -139,126 -83,45 -176,73 -264,111 -285,122 -569,246 -854,369 -34,15 -65,34 -98,49 -17,8 -38,19 -55,17 -146,-17 -258,66 -378,124 -49,24 -56,75 -68,121 0,0 1,-1 1,-1z"/>
  <path class="fil0" d="M10385 22211c4,0 7,0 11,0 0,-23 0,-47 0,-70 -2,0 -5,0 -7,0 -1,23 -2,46 -3,70zm-48 -353c32,3 51,5 70,8 82,11 107,38 108,122 1,39 -6,79 -7,118 -1,58 0,117 0,180 36,7 66,13 105,20 3,-42 8,-74 8,-107 -1,-107 -2,-214 -8,-320 -1,-24 -18,-55 -37,-69 -60,-43 -168,-23 -238,49zm348 -2c-45,55 -29,118 -27,179 3,81 9,163 14,244 4,67 -12,84 -82,78 -67,-5 -134,-10 -202,-17 -44,-4 -87,-10 -131,-16 7,-156 16,-302 20,-447 2,-66 29,-106 94,-120 14,-3 27,-9 40,-13 150,-45 220,4 272,112z"/>
  <path class="fil0" d="M12236 22267c14,-79 37,-163 0,-247 0,82 0,165 0,247zm91 -362c-3,38 -6,60 -7,82 -7,87 -15,174 -20,260 -2,30 11,57 48,56 35,-1 36,-30 37,-55 5,-115 9,-230 15,-345 2,-41 -12,-71 -45,-93 -39,-27 -132,-30 -168,-1 -11,9 -23,31 -19,41 5,15 23,30 39,34 37,10 75,14 121,21zm113 470c-89,0 -181,0 -284,0 -8,-31 -26,-73 -27,-116 -4,-138 -2,-276 0,-414 1,-72 9,-85 78,-97 48,-8 103,-12 148,2 72,22 97,84 88,160 -17,143 -29,286 4,428 2,7 -3,16 -7,36z"/>
  <path class="fil0" d="M11207 24864c-3,1 -5,1 -8,2 1,11 1,22 2,32 2,0 4,0 6,0 0,-11 0,-22 0,-33zm67 -75c98,-4 186,3 195,130 58,12 111,24 163,35 26,-94 -32,-136 -89,-170 -86,-52 -178,-67 -269,6zm433 191c-24,52 -64,65 -127,57 -91,-12 -185,-11 -277,-10 -34,0 -75,-28 -101,28 -53,-80 -48,-159 -38,-237 2,-15 15,-31 26,-43 99,-106 287,-119 402,-29 22,17 47,30 66,50 14,15 24,36 29,56 9,41 13,82 20,128z"/>
  <path class="fil0" d="M12242 28639c20,-48 54,-84 97,-114 46,-32 89,-69 133,-103 7,-5 12,-13 20,-16 170,-50 317,-155 488,-205 246,-72 492,-144 738,-215 59,-17 120,-32 180,-47 183,-45 367,-86 549,-135 103,-27 203,-68 305,-99 83,-25 167,-48 252,-68 74,-17 150,-26 224,-44 105,-26 211,-23 330,-21 -32,36 -64,32 -96,34 -78,5 -157,9 -234,19 -100,14 -200,30 -299,53 -68,15 -135,40 -200,65 -121,47 -240,100 -371,109 -14,1 -28,5 -41,9 -350,95 -702,187 -1051,286 -151,43 -301,93 -448,151 -208,82 -400,193 -566,346l-6 -5z"/>
  <path class="fil0" d="M5884 28932c16,-1 33,-7 47,-2 117,42 240,19 360,31 116,12 224,52 330,97 111,47 219,103 331,148 112,45 228,81 341,124 222,83 442,170 643,297 25,16 49,34 73,51 -3,7 -7,13 -10,20 -29,-11 -60,-19 -87,-33 -60,-31 -117,-68 -179,-96 -149,-67 -298,-132 -450,-193 -183,-73 -368,-141 -552,-211 -13,-5 -28,-9 -39,-17 -98,-72 -216,-96 -327,-133 -67,-22 -144,-22 -216,-19 -95,4 -179,-23 -266,-47 1,-6 1,-12 2,-17z"/>
  <path class="fil0" d="M11415 19683c-22,-17 -44,-34 -65,-50 -79,37 -127,101 -179,164 -111,135 -229,264 -340,398 -251,304 -499,610 -749,916 -16,19 -33,38 -53,62 -11,-47 8,-78 33,-107 100,-115 201,-228 298,-345 81,-97 154,-202 234,-299 167,-202 337,-401 505,-602 56,-67 118,-128 148,-213 12,-35 43,-64 67,-98 71,44 75,116 101,175l0 0z"/>
  <path class="fil0" d="M9356 26758c-176,-36 -336,24 -495,1 -1,-8 -1,-16 -2,-24 69,-9 138,-20 208,-27 72,-7 144,-11 215,-17 0,-94 3,-181 -1,-267 -3,-67 -21,-85 -90,-85 -106,0 -213,6 -318,9 -33,53 -26,108 -12,158 20,71 -26,130 -24,196 0,4 -13,14 -18,13 -9,-2 -23,-9 -25,-16 -4,-16 -4,-33 -3,-50 4,-67 7,-135 16,-201 5,-35 16,-72 34,-103 11,-19 37,-39 58,-41 98,-9 196,-19 294,-16 122,4 174,68 159,165 -9,60 2,123 4,185 1,36 0,72 0,119z"/>
  <path class="fil0" d="M14015 26923c5,0 10,0 16,0 0,-17 0,-35 0,-52 -4,0 -8,0 -12,0 -1,17 -2,35 -4,52zm64 -6c4,1 8,2 12,3 4,-8 11,-16 12,-23 0,-11 -5,-22 -8,-32 -5,1 -9,1 -14,2 -1,17 -2,34 -2,50zm-130 35c7,2 14,4 20,6 25,-26 7,-57 -4,-88 -5,28 -11,55 -16,83zm-47 -73c-25,24 -42,50 -5,82 31,-26 28,-53 5,-82zm298 43c-14,-49 -14,-49 -44,-75 -22,67 -22,68 44,75zm-364 98c-4,-26 -6,-48 -11,-70 -4,-19 -12,-37 -17,-55 125,-131 388,-159 521,-53 -20,43 -34,90 9,148 -97,2 -179,7 -261,5 -80,-3 -151,69 -240,25z"/>
  <path class="fil0" d="M12470 23775c-3,57 -7,111 -10,166 38,0 76,0 117,0 0,-41 -2,-74 0,-107 2,-36 8,-72 12,-105 -92,-75 -108,-76 -185,-13 21,19 40,36 66,59zm30 227c-36,6 -71,11 -107,17 -62,10 -84,-8 -86,-70 -1,-39 4,-79 0,-118 -8,-95 45,-154 119,-198 88,-52 189,8 190,110 1,56 -1,112 4,167 6,75 -19,105 -94,101 -8,0 -17,-2 -25,-4 0,-2 -1,-4 -1,-6z"/>
  <path class="fil0" d="M12177 26152c4,36 -13,42 -45,40 -47,-3 -93,-1 -152,-1 -49,-54 -31,-136 -39,-211 -5,-49 2,-102 16,-149 18,-60 84,-84 163,-70 46,8 95,66 86,118 -14,84 7,163 15,243 2,18 -3,36 -6,66 -19,-18 -29,-26 -39,-35 -1,-89 1,-178 -4,-267 -1,-21 -20,-54 -37,-58 -42,-10 -88,-13 -131,-7 -36,5 -34,43 -25,68 4,13 31,21 49,25 21,5 44,4 66,5 6,92 -41,195 84,233z"/>
  <path class="fil0" d="M10401 23872c4,-1 9,-1 13,-2 -2,-12 -4,-24 -5,-37 -3,0 -5,1 -7,1 0,13 0,25 0,38zm128 -61c-4,-1 -8,-1 -12,-2 1,14 2,28 3,42 3,0 6,0 9,0 0,-13 0,-26 0,-40zm-57 102c-4,63 -4,63 45,54 -15,-18 -30,-36 -45,-54zm100 -38c0,14 1,28 0,42 -2,38 18,94 -25,106 -53,15 -115,7 -172,3 -14,-1 -36,-27 -36,-42 0,-69 -2,-140 13,-207 7,-31 49,-62 82,-79 76,-38 149,16 143,101 -2,25 -5,50 -8,75 1,0 2,0 3,0z"/>
  <path class="fil0" d="M6318 26490c-3,19 -2,40 -8,57 -70,183 -88,378 -123,569 -41,230 -79,460 -121,690 -11,59 -5,123 -38,178 -8,13 -19,24 -43,33 0,-20 -5,-41 1,-59 62,-179 83,-367 113,-552 33,-206 69,-411 104,-616 10,-58 23,-116 37,-173 12,-46 30,-87 -14,-131 -29,-29 -2,-86 40,-103 25,-10 50,-18 94,-33 -35,42 -59,71 -91,110 17,11 34,22 50,33l-1 -1z"/>
  <path class="fil0" d="M12207 26886c-71,-16 -71,-16 -70,41 20,-12 37,-21 70,-41zm-9 -180c-18,-13 -30,-22 -41,-30 -8,13 -20,26 -21,40 -1,7 19,25 24,23 12,-4 22,-18 38,-33zm0 98c-20,-10 -33,-21 -46,-21 -7,0 -22,24 -20,28 8,11 22,22 35,25 7,1 17,-16 31,-32zm125 145c-66,34 -144,-16 -206,59 -14,-21 -27,-39 -43,-63 9,-20 59,-44 13,-82 -3,-3 -3,-16 0,-20 29,-37 7,-61 -21,-85 12,-15 34,-30 35,-46 1,-15 -21,-31 -34,-48 44,-13 90,-27 152,-46 -45,-24 -74,-40 -103,-56 59,-22 114,-29 172,9 -31,30 -61,51 -63,97 -3,72 -9,73 78,81 5,-48 10,-96 15,-144 7,0 15,1 22,1 0,98 0,195 0,296 -25,-15 -15,-46 -22,-69 -8,-30 -21,-55 -56,-49 -16,3 -30,17 -45,26 12,12 25,24 37,35 4,3 10,4 23,9 -18,8 -31,14 -45,21 4,18 8,37 13,58 26,6 52,13 78,19z"/>
  <path class="fil0" d="M8323 26287c7,13 11,18 11,23 -1,166 -1,332 -4,498 -2,152 -9,304 -11,456 -1,67 10,134 9,201 0,31 -14,62 -27,92 -43,-214 -26,-1177 21,-1271z"/>
  <path class="fil0" d="M9159 22956c0,20 2,34 0,47 -19,128 -10,254 14,380 3,14 -8,40 -20,46 -29,16 -84,-6 -92,-32 -3,-8 -4,-17 -4,-25 -1,-112 -4,-224 -1,-335 2,-78 7,-79 102,-81z"/>
  <path class="fil0" d="M10827 25776c-65,-5 -109,-8 -151,-11 -28,79 -31,209 -7,294 26,-92 -3,-186 38,-267 47,8 52,35 51,69 -2,84 0,168 0,247 -20,-27 -20,-27 -22,-86 -1,-36 -4,-72 -16,-108 -16,41 -13,83 -15,125 -2,46 -21,71 -55,67 -40,-4 -46,-34 -47,-68 -3,-70 -13,-141 -10,-211 5,-108 97,-157 192,-107 14,8 22,28 42,54z"/>
  <path class="fil0" d="M14889 26076c55,429 70,859 82,1292 -36,3 -37,-26 -38,-50 -5,-104 -8,-208 -11,-312 -3,-98 -2,-196 -5,-293 -3,-96 -10,-191 -15,-287 -5,-98 -12,-197 -17,-295 -1,-18 3,-37 4,-55z"/>
  <path class="fil0" d="M12013 21048c3,-2 6,-3 10,-5 -5,-11 -11,-21 -16,-32 -4,2 -8,4 -12,6 6,10 12,20 18,31zm-89 15c0,-14 -1,-28 0,-42 8,-91 36,-90 119,-80 29,4 41,23 42,53 1,38 7,77 11,115 3,27 18,55 -16,75 -43,25 -103,27 -124,-5 -21,-33 -31,-74 -46,-112 4,-1 8,-3 13,-4z"/>
  <path class="fil0" d="M8708 22642c105,-63 847,-281 952,-283 -19,37 -53,41 -81,50 -100,29 -201,56 -301,85 -116,34 -232,71 -347,106 -66,20 -131,48 -223,42z"/>
  <path class="fil0" d="M10678 21153c7,0 15,-1 22,-2 -4,-29 8,-60 -22,-98 0,42 0,71 0,100zm-89 -65c0,-20 1,-39 0,-59 -2,-41 19,-62 58,-68 45,-7 82,11 91,52 12,52 18,105 22,158 3,32 -18,53 -50,56 -97,9 -122,-8 -125,-97 0,-14 1,-28 2,-42 1,0 1,0 2,0z"/>
  <path class="fil0" d="M11280 28303c10,-4 20,-7 29,-11 97,-45 194,-89 291,-134 66,-30 132,-59 215,-96 -27,46 -58,57 -87,68 -150,59 -287,139 -420,231 -108,75 -224,136 -349,181l-2 -2c107,-79 215,-157 322,-236z"/>
  <path class="fil0" d="M10667 26949c41,0 82,-4 122,1 32,4 42,28 42,62 -1,72 3,145 7,218 3,50 -12,69 -60,68 -50,-2 -100,-7 -157,-11 -41,-90 8,-176 2,-264 6,0 13,0 19,0 0,71 0,141 0,220 53,0 99,0 147,0 0,-79 0,-158 0,-227 -40,-42 -95,-15 -126,-46 1,-6 3,-13 4,-19z"/>
  <path class="fil0" d="M12248 28644c-15,24 -31,47 -45,71 -56,100 -43,178 43,267 54,56 117,105 197,126 43,12 42,16 73,64 -124,-21 -231,-71 -314,-162 -100,-109 -113,-250 39,-372 0,0 6,5 6,5z"/>
  <path class="fil0" d="M8046 22807c13,-12 23,-27 38,-34 125,-57 251,-113 377,-167 25,-11 54,-14 82,-20 31,-8 54,3 75,26 22,24 47,45 73,70 -27,30 -62,25 -82,-4 -43,-62 -95,-50 -149,-28 -119,50 -236,104 -355,155 -16,7 -34,11 -51,17 -3,-4 -5,-9 -8,-13z"/>
  <path class="fil0" d="M10818 25990c-2,0 -3,-1 -5,-1 0,20 0,39 0,58 2,0 3,0 5,0 0,-19 0,-38 0,-57zm57 133c-32,-8 -56,-13 -85,-20 -6,-98 -9,-194 0,-289 7,0 15,0 23,0 0,32 0,65 0,97 6,0 11,0 17,1 4,-43 9,-86 15,-147 43,68 22,127 29,181 7,55 2,112 2,178z"/>
  <path class="fil0" d="M11939 20176c-48,-38 -101,-72 -142,-116 -98,-105 -192,-212 -312,-295 -28,-19 -46,-54 -69,-82l0 0c20,9 43,15 59,29 80,71 158,143 235,217 61,58 119,119 178,180 19,20 36,42 54,64 0,0 -2,2 -2,2z"/>
  <path class="fil0" d="M8733 24379c-46,8 -62,-12 -62,-40 -1,-75 1,-151 5,-226 1,-23 14,-46 43,-39 31,7 22,32 21,54 -4,69 -5,139 -6,208 0,13 0,26 0,43z"/>
  <path class="fil0" d="M10880 26177c-15,12 -31,35 -46,34 -79,-4 -159,-6 -247,-29 17,-18 24,-33 34,-35 86,-17 168,13 253,9 2,7 4,14 6,21z"/>
  <path class="fil0" d="M10960 28541c-33,29 -65,59 -99,87 -38,32 -78,63 -117,94 14,66 101,61 106,127 -95,-24 -140,-72 -146,-158 83,-50 168,-101 253,-152l2 2z"/>
  <path class="fil0" d="M8053 24429c-24,111 -29,211 1,310 6,22 5,51 -28,61 -31,-42 -47,-212 -29,-308 5,-26 6,-57 56,-63z"/>
  <path class="fil0" d="M8110 23526c0,21 0,42 0,62 1,50 4,100 4,150 0,19 0,40 -7,57 -4,9 -21,17 -33,18 -8,1 -22,-10 -24,-19 -5,-18 -8,-39 -6,-58 6,-59 13,-117 22,-175 2,-14 14,-27 22,-41 8,2 15,3 23,5z"/>
  <path class="fil0" d="M9406 22122c-7,-77 -15,-153 -20,-230 -1,-23 7,-46 45,-40 6,79 14,158 18,238 1,11 -11,23 -17,34 -8,-1 -17,-2 -25,-3z"/>
  <path class="fil0" d="M12006 26963c-40,-127 -10,-254 -5,-381 31,37 20,80 18,122 -2,45 -5,90 -8,134 -3,42 29,84 -6,125z"/>
  <path class="fil0" d="M9155 27457c-16,-100 2,-278 37,-336 -7,117 -14,227 -21,336 -6,0 -11,0 -17,0z"/>
  <path class="fil0" d="M12296 20530c-75,-70 -152,-139 -226,-210 -24,-23 -42,-51 -63,-77l1 -1c41,33 85,63 122,101 58,60 110,125 165,189l1 -1z"/>
  <path class="fil0" d="M9322 24010c-46,-56 -47,-109 -5,-173 22,39 24,119 5,173z"/>
  <path class="fil0" d="M8906 22267c-48,-40 -39,-84 -16,-141 48,49 27,96 16,141z"/>
  <path class="fil0" d="M12009 27965c51,-17 102,-34 152,-51l-1 -1c-51,17 -102,34 -153,51l1 1z"/>
  <path class="fil0" d="M12295 20531c27,16 54,33 80,49 -5,6 -10,13 -14,19 -27,-17 -51,-37 -65,-70l-1 1z"/>
  <path class="fil0" d="M12865 21139c-10,-9 -19,-17 -29,-26 4,-4 7,-8 11,-12 11,9 21,18 32,27 -5,4 -9,7 -14,11z"/>
  <path class="fil0" d="M12555 20817c-12,-13 -25,-25 -37,-38 5,-5 10,-11 14,-16 14,11 28,22 42,34 -6,7 -13,14 -19,20z"/>
  <path class="fil0" d="M12446 20694c-13,-12 -25,-24 -38,-36 3,-3 5,-7 8,-10 14,11 28,21 42,32 -4,5 -8,9 -12,14z"/>
  <path class="fil0" d="M12007 20243c-37,-8 -59,-31 -68,-67 0,0 2,-2 2,-2 22,23 45,45 67,68 0,0 -1,1 -1,1z"/>
  <path class="fil0" d="M12008 27964c-17,10 -35,21 -52,31 -2,-5 -5,-11 -7,-16 20,-5 40,-9 60,-14 0,0 -1,-1 -1,-1z"/>
  <path class="fil0" d="M12684 20921c-20,-16 -29,-24 -39,-32 2,-3 4,-7 6,-10 7,4 16,6 22,11 4,4 5,12 11,31z"/>
  <path class="fil1" d="M7871 27673c-8,4 -16,8 -24,11 -1,0 -5,-7 -8,-11 9,-4 18,-7 27,-11 2,4 3,7 5,11z"/>
  <path class="fil1" d="M13224 27574c-139,5 -264,9 -395,13 -34,-23 -24,-63 -19,-97 15,-115 22,-228 18,-345 -4,-129 13,-258 17,-387 5,-166 6,-332 10,-498 3,-132 9,-264 13,-396 4,-158 6,-315 11,-473 4,-132 12,-264 19,-396 3,-56 5,-112 9,-169 2,-31 8,-61 12,-91 5,-33 26,-48 58,-49 95,-4 190,-16 283,22 0,61 -3,120 1,178 16,270 5,540 -5,810 -13,335 -17,669 -3,1004 4,90 -9,180 -10,270 0,84 8,168 9,253 0,95 -3,190 -8,286 -1,26 -16,51 -21,65z"/>
  <path class="fil1" d="M10385 22211c1,-23 2,-46 3,-70 2,0 5,0 7,0 0,23 0,47 0,70 -4,0 -7,0 -11,0z"/>
  <path class="fil1" d="M11207 24864c0,11 0,22 0,33 -2,0 -4,0 -6,0 -1,-11 -1,-21 -2,-32 3,0 5,-1 8,-2z"/>
  <path class="fil1" d="M12207 26886c-33,19 -49,29 -70,41 -1,-57 -1,-57 70,-41z"/>
 </g>
</svg>
