<?xml version="1.0" encoding="UTF-8"?>
<!DOCTYPE svg PUBLIC "-//W3C//DTD SVG 1.1//EN" "http://www.w3.org/Graphics/SVG/1.1/DTD/svg11.dtd">
<!-- Creator: CorelDRAW X6 -->
<svg xmlns="http://www.w3.org/2000/svg" xml:space="preserve" width="210mm" height="297mm" version="1.1" style="shape-rendering:geometricPrecision; text-rendering:geometricPrecision; image-rendering:optimizeQuality; fill-rule:evenodd; clip-rule:evenodd"
viewBox="0 0 21000 29700"
 xmlns:xlink="http://www.w3.org/1999/xlink">
 <defs>
  <style type="text/css">
   <![CDATA[
    .fil0 {fill:#2B2A29}
    .fil1 {fill:#FEFEFE}
   ]]>
  </style>
 </defs>
 <g id="Слой_x0020_1">
  <metadata id="CorelCorpID_0Corel-Layer"/>
  <path class="fil0" d="M2 14528c35,0 69,0 104,0 1,6 2,12 3,17 -36,11 -71,22 -107,34 0,-17 0,-34 0,-51z"/>
  <path class="fil0" d="M16493 26788c3,-3 6,-5 9,-8 -7,-8 -15,-16 -22,-23 -3,3 -6,5 -8,8 7,8 14,16 21,24zm-1988 687c-4,-3 -7,-9 -11,-9 -4,0 -8,5 -12,8 5,4 10,8 15,12 3,-4 6,-8 8,-12zm-149 182c-4,0 -9,0 -13,0 3,10 5,21 8,31 2,0 4,-1 5,-1 0,-10 0,-20 0,-29zm-916 -283c-2,-4 -5,-8 -7,-12 -4,3 -10,5 -10,8 -1,3 4,8 7,12 4,-3 7,-6 11,-8zm991 107c-4,-2 -8,-7 -11,-7 -3,0 -6,6 -9,10 4,2 8,7 11,7 3,0 6,-6 9,-10zm-2699 266c5,-6 10,-11 14,-16 -3,-3 -7,-8 -10,-7 -4,1 -9,5 -10,9 -1,3 3,7 6,14zm-4251 -5917c-7,-4 -12,-8 -18,-12 -2,4 -7,9 -6,12 1,4 6,9 10,10 3,1 7,-5 13,-10zm6039 5436c7,-2 12,-4 17,-5 -3,-7 -6,-14 -11,-20 -1,-2 -9,3 -14,4 3,7 5,14 8,21zm914 60c-6,-5 -12,-10 -18,-13 -2,-1 -7,6 -11,9 5,5 10,11 16,15 1,1 7,-6 13,-11zm-1616 118c-5,-4 -10,-8 -16,-11 -5,10 -10,20 -16,30 3,2 7,5 10,7 7,-9 14,-17 21,-26zm-578 42c-2,1 -5,2 -7,3 1,12 2,25 3,38 1,0 3,0 4,0 0,-13 0,-26 0,-40zm-1719 -7503c-6,5 -12,9 -12,11 1,7 6,13 9,19 4,-3 10,-6 10,-9 0,-7 -4,-13 -7,-21zm897 7695c-6,1 -11,2 -17,3 4,12 8,24 12,35 4,-1 8,-2 12,-4 -2,-12 -5,-24 -7,-35zm-1043 -284c-4,2 -8,4 -12,6 9,16 17,32 26,47 4,-2 7,-4 11,-6 -9,-16 -17,-32 -26,-48zm4052 285c8,-9 13,-14 18,-20 -5,-4 -12,-13 -15,-12 -7,2 -14,9 -17,15 -1,2 8,10 14,17zm2034 458c0,-5 1,-9 1,-14 -15,-1 -30,-1 -45,-2 0,4 0,9 -1,13 15,1 29,2 44,3zm-6099 -7763c-3,1 -6,1 -9,2 1,18 3,36 4,54 2,0 3,0 5,0 0,-19 0,-37 0,-56zm-1624 7353c3,-1 7,-2 10,-4 -2,-10 -1,-20 -6,-28 -5,-9 -15,-16 -22,-24 -3,3 -6,6 -10,8 9,16 18,32 27,47zm2800 -294c-5,1 -9,1 -14,2 1,14 3,28 4,41 5,-1 9,-1 14,-2 -1,-14 -3,-27 -4,-41zm-100 57c5,6 9,11 14,17 12,-7 23,-15 35,-22 -6,-8 -12,-16 -18,-24 -10,10 -20,20 -30,30zm137 -146c-1,-8 -2,-17 -3,-25 -16,3 -32,6 -48,9 1,6 2,13 3,19 16,-1 32,-2 49,-3zm6101 85c5,0 9,1 14,1 0,-31 0,-61 0,-92 -2,0 -4,0 -6,0 -3,30 -5,60 -8,91zm-1474 -1061c21,67 21,67 70,92 -24,-32 -42,-55 -70,-92zm-5864 937c15,10 23,20 31,20 8,0 17,-8 25,-13 -8,-9 -15,-21 -25,-25 -5,-2 -16,9 -32,18zm4787 -7c-33,-5 -49,-9 -66,-10 -2,0 -9,16 -6,20 15,24 34,20 72,-10zm-840 376c-4,0 -8,0 -12,0 0,27 -2,54 1,80 1,10 16,17 36,37 -11,-51 -18,-84 -25,-117zm-2658 -348c16,11 32,21 54,36 4,-49 -7,-66 -54,-36zm1148 56c34,-18 62,-23 67,-63 -39,2 -64,9 -67,63zm-3901 272c11,33 15,47 20,60 17,-7 34,-14 51,-21 -1,-5 -2,-11 -3,-16 -16,-6 -32,-11 -68,-23zm7311 540c19,33 40,55 74,10 -25,-3 -49,-7 -74,-10zm-6080 -9008c10,-27 13,-48 -14,-59 -8,-3 -30,7 -32,15 -9,29 12,38 46,44zm78 8260c43,15 61,7 59,-28 0,-9 -9,-18 -18,-35 -15,23 -25,38 -42,62zm2739 -45c-4,62 -4,62 58,67 -15,-22 -29,-43 -43,-63 -2,-3 -10,-3 -15,-5zm2810 -146c-27,-10 -52,-13 -69,17 -3,4 5,14 7,22 21,-9 41,-17 62,-27 1,0 0,-5 0,-12zm-4309 174c33,-18 57,-32 47,-74 -51,2 -53,30 -47,74zm-2570 374c72,26 72,26 70,-33 -26,12 -48,22 -70,33zm7842 -718c7,-5 14,-10 21,-14 -32,-44 -63,-87 -95,-131 -4,3 -8,6 -13,9 29,45 58,91 86,136zm-3377 1088c-85,-15 -85,-15 -122,18 41,13 77,25 122,-18zm-6785 -4366c53,-26 115,-37 165,-97 -80,8 -119,59 -165,97zm2139 3927c12,47 19,77 28,114 33,-11 55,-19 89,-30 -42,-30 -71,-51 -117,-84zm5715 432c-1,6 -1,12 -2,18 55,20 109,14 159,-28 -52,3 -105,7 -157,10zm1857 -576c-2,7 -4,13 -6,20 22,13 44,25 67,39 18,-21 32,-36 48,-54 -42,-39 -75,-6 -109,-4zm-2803 -125c-36,67 -36,145 0,197 0,-67 0,-128 0,-197zm684 -1159c13,-56 25,-111 -8,-177 -34,69 -28,124 8,177zm-6512 -2751c125,-4 251,27 374,-15 -125,5 -250,10 -374,15zm953 23c-136,-33 -274,-16 -411,-17 137,6 274,11 411,17zm1678 4118c23,-46 5,-69 -24,-91 -26,-20 -48,-44 -72,-66 0,65 13,125 96,157zm3843 -106c96,-15 116,35 128,96 8,-39 15,-79 24,-120 -44,-15 -90,-31 -151,24zm-3618 -7506c-7,0 -13,1 -20,1 8,144 16,287 24,431 4,0 8,0 11,0 -5,-144 -11,-288 -16,-432zm-1704 7225c-95,17 -99,23 -65,98 85,-24 88,-28 65,-98zm166 106c-16,-47 -21,-77 -36,-102 -8,-14 -29,-25 -45,-26 -10,-1 -31,19 -31,30 0,16 10,37 22,47 20,17 47,27 90,51zm3993 119c-33,-22 -69,-24 -103,-12 -12,4 -19,22 -23,25 29,36 53,65 76,94 15,-33 32,-69 50,-107zm3249 -107c4,8 7,15 11,23 27,-14 54,-28 80,-41 29,9 57,18 87,27 10,-80 2,-90 -55,-74 -46,12 -90,28 -122,65zm-7477 -3857c-1,8 -2,16 -2,24 132,10 264,20 396,30 1,-6 1,-13 2,-19 -130,-33 -265,-6 -396,-35zm5453 3027c6,-80 17,-145 -29,-213 -24,53 -35,146 -19,177 6,12 23,18 48,36zm158 460c2,-6 4,-11 6,-17 -61,-47 -138,-23 -206,-45 -3,68 0,73 45,72 52,-2 104,-6 156,-10zm-3878 -6468c7,0 14,1 22,1 -13,-168 -26,-336 -39,-504 -14,169 -24,337 17,503zm-45 6956c-32,-55 -61,-105 -96,-166 -5,43 -8,76 -12,108 -21,9 -39,16 -55,25 -5,3 -5,13 -9,23 26,5 49,9 70,12 17,34 -11,77 35,95 2,-35 4,-69 7,-105 27,4 42,6 60,9zm1259 61c-6,34 -10,58 -13,78 -54,23 -94,23 -116,-35 -3,-8 -32,-15 -41,-9 -9,6 -15,30 -11,42 11,33 39,51 73,46 52,-8 105,-19 155,-35 28,-8 29,-34 8,-53 -14,-13 -33,-20 -56,-34zm4291 -142c-6,3 -13,6 -19,10 -25,145 -14,241 33,295 21,-42 32,-185 16,-244 -6,-21 -20,-40 -31,-60zm-5538 -6781c-64,-20 -123,-38 -190,-23 -109,25 -220,38 -330,57 -6,1 -10,10 -22,23 21,2 33,6 45,4 71,-12 142,-29 214,-38 94,-11 189,-16 283,-24zm3729 5972c-9,4 -18,7 -28,11 -1,75 -4,149 -1,224 0,14 18,35 32,40 26,8 44,-11 44,-36 0,-61 -1,-123 -8,-183 -2,-19 -25,-36 -39,-54zm-5334 -4476c11,6 16,11 20,10 147,-46 295,-91 442,-139 34,-11 62,-35 65,-79 -178,70 -350,138 -526,208zm5437 4520c0,63 -1,126 0,190 1,29 17,46 48,46 32,0 45,-18 47,-47 2,-42 5,-84 4,-125 -1,-70 -15,-79 -99,-63zm-5405 744c-48,137 -48,137 -109,111 9,-29 66,-48 25,-90 -40,19 -58,48 -59,85 0,70 64,57 90,72 28,31 8,72 53,89 2,-35 3,-65 5,-98 25,-5 48,-10 74,-16 -27,-52 -51,-98 -80,-153zm5498 -1296c-25,0 -38,-1 -52,0 -80,4 -88,14 -89,96 0,8 0,17 0,25 4,56 18,72 61,70 54,-2 77,-22 79,-74 2,-36 0,-72 0,-117zm-2 247c-55,-7 -109,-13 -117,36 -9,53 4,111 19,165 4,16 46,28 70,28 12,0 34,-30 35,-46 2,-61 -3,-121 -6,-183zm-899 1348c-66,-18 -74,-26 -74,-88 0,-31 8,-62 6,-92 -2,-36 5,-77 -40,-108 -12,29 -21,53 -35,88 -16,-37 -25,-60 -40,-95 -13,22 -24,32 -24,43 1,36 3,73 11,108 33,151 34,151 196,143zm-2567 -5896c87,107 427,188 568,148 -11,-8 -19,-17 -29,-20 -180,-43 -359,-86 -539,-128zm2717 2169c-1,6 -1,13 -2,19 399,85 806,98 1209,148 1,-6 1,-12 2,-17 -403,-50 -806,-100 -1209,-150zm738 2027c-11,-43 -17,-88 -33,-129 -18,-46 -68,-63 -111,-44 -43,18 -77,103 -70,169 6,59 53,46 89,52 22,3 44,11 66,11 36,0 57,-18 59,-58zm-4074 -2315c0,3 0,6 0,9 191,15 381,30 572,44 189,14 378,34 569,15 -130,-22 -261,-41 -392,-51 -126,-10 -253,-13 -380,-16 -123,-3 -246,-1 -369,-1zm1594 3693c5,54 7,101 13,148 6,44 16,88 24,133 -6,1 -12,2 -18,4 -5,-15 -11,-29 -13,-44 -16,-89 -32,-177 -47,-266 -5,-30 -10,-61 -50,-65 -5,7 -10,11 -11,16 -2,8 -5,18 -3,25 32,104 56,210 61,320 2,39 32,45 96,41 38,-3 59,-19 57,-57 -3,-56 -12,-111 -15,-167 -3,-54 -31,-81 -93,-87zm-1888 -7404c-52,53 -62,99 -59,147 8,143 19,286 30,429 1,11 0,26 7,32 13,12 32,26 47,25 14,-1 30,-20 38,-35 6,-11 2,-28 1,-41 -11,-152 -21,-303 -34,-454 -2,-29 -17,-57 -31,-102zm6087 4284c-140,-17 -266,-34 -393,-47 -128,-13 -257,-23 -386,-33 -126,-11 -251,-21 -377,-31 383,107 1040,173 1155,112zm903 3555c0,-142 0,-266 0,-389 0,-34 -6,-61 -49,-65 -52,-5 -79,8 -91,53 -6,24 -6,50 -6,75 0,79 2,157 1,236 0,30 10,49 38,58 29,9 58,17 107,31zm-1196 -461c7,124 12,235 20,347 1,14 14,30 26,39 159,124 335,215 523,285 16,6 34,9 51,13 -9,-20 -22,-29 -36,-34 -37,-14 -76,-22 -111,-40 -103,-53 -203,-109 -305,-163 -33,-18 -48,-39 -46,-80 5,-93 2,-186 4,-278 1,-40 -14,-65 -54,-72 -19,-4 -38,-8 -74,-16zm-1157 429c38,-10 77,-33 98,-22 47,24 88,-2 131,0 42,2 61,-23 60,-63 -1,-62 1,-124 -5,-185 -2,-21 -19,-52 -37,-58 -20,-6 -47,10 -72,17 -21,-9 -58,-37 -74,-28 -42,24 -74,-3 -122,-11 7,117 13,226 20,350zm27 -847c2,-27 5,-51 4,-76 -3,-185 -9,-371 -11,-556 -1,-81 6,-163 5,-244 -1,-93 -9,-186 -10,-279 -2,-110 -31,-211 -83,-307 -25,-47 -62,-71 -114,-75 -28,-2 -56,-3 -103,-6 156,42 211,107 225,255 9,95 18,191 20,287 5,183 18,367 4,549 -10,136 -1,270 6,404 1,26 6,52 57,48zm-4328 -6610c1,0 3,0 4,0 -7,-104 -14,-208 -21,-312 -2,-34 -15,-61 -52,-66 -38,-6 -61,17 -69,49 -13,49 -26,99 -26,148 1,121 9,242 15,362 1,14 3,28 6,42 2,7 9,20 14,19 38,-2 78,-2 115,-11 34,-9 30,-43 28,-71 -5,-53 -9,-106 -13,-159zm5988 7932c-43,8 -67,13 -92,16 -107,15 -158,100 -144,189 6,38 11,77 17,121 -20,-5 -34,-8 -49,-12 -7,28 -14,53 -18,77 -11,63 5,81 72,74 50,-5 100,-14 150,-18 40,-2 53,-22 53,-59 0,-56 0,-112 1,-168 2,-69 6,-138 10,-221zm-6397 -7662c2,-24 6,-49 5,-73 -8,-129 -22,-258 -25,-387 -1,-51 7,-108 30,-153 33,-65 97,-59 127,8 15,35 23,76 25,114 8,132 11,264 17,396 1,29 -3,61 37,86 3,-30 7,-51 6,-72 -4,-143 -7,-287 -15,-430 -3,-57 15,-103 48,-148 30,-40 66,-61 116,-52 52,9 75,45 84,94 6,34 12,67 18,101 19,-72 30,-142 129,-149 -26,-91 -103,-91 -162,-109 -182,-54 -349,-28 -487,108 4,38 12,71 10,104 -7,188 -14,376 38,562zm6171 5625c11,113 18,213 31,313 18,138 63,273 17,424 78,6 147,18 216,15 91,-4 178,-4 256,53 6,5 19,1 37,1 -94,-138 -183,-267 -272,-396 -91,-131 -182,-262 -285,-409zm-6184 -6483c141,-52 281,-70 425,-40 19,4 39,2 59,1 71,-3 104,-41 88,-109 -18,-78 -64,-135 -138,-169 -30,-14 -57,-33 -83,-53 -24,-18 -45,-40 -71,-63 -32,24 -55,50 -85,62 -74,28 -128,81 -181,134 -77,77 -79,137 -13,238zm6419 8372c-13,-15 -16,-20 -20,-23 -17,-10 -34,-20 -53,-27 -149,-56 -281,-140 -414,-228 -68,-45 -83,-98 -85,-168 -2,-90 -6,-180 -9,-270 -1,-35 -20,-49 -53,-52 -71,-6 -92,10 -90,84 3,90 12,180 15,270 1,47 -9,94 -8,142 1,77 3,77 -71,94 -10,2 -20,5 -42,11 21,10 30,15 39,18 168,56 336,113 505,169 37,12 74,33 106,-12 5,-7 20,-8 31,-8 45,-1 90,0 147,0zm-2194 -2330c65,-7 118,-19 170,-17 67,3 110,49 113,115 7,149 11,298 16,447 3,76 6,152 7,228 1,67 1,135 0,202 0,45 -4,90 -3,135 1,37 20,57 59,55 36,-2 49,-24 49,-56 -1,-25 -5,-50 -5,-76 -2,-93 -5,-186 -4,-278 1,-146 10,-292 8,-438 -2,-127 -21,-253 -23,-379 -3,-191 -59,-237 -232,-270 -59,-12 -146,37 -151,96 -6,78 -2,156 -2,236zm1910 1666c32,95 -3,195 33,296 42,-20 72,-24 110,-12 118,35 240,46 365,25 50,-9 106,7 157,19 35,8 38,36 20,66 -140,-7 -277,-17 -414,-19 -54,-1 -108,11 -154,-29 -3,-2 -13,5 -32,13 29,20 50,39 74,50 85,38 171,71 256,109 120,53 209,30 295,-76 14,-17 38,-25 48,-31 -9,-24 -22,-44 -23,-65 -1,-28 10,-56 11,-84 2,-62 1,-124 -1,-185 -1,-30 -12,-57 -50,-54 -35,3 -36,31 -37,56 -1,22 2,45 -1,68 -2,18 -9,35 -16,63 -85,-41 -45,-118 -67,-174 -14,5 -28,9 -41,13 -24,-25 -27,-63 -72,-68 -14,-2 -23,-52 -34,-81 -6,1 -13,3 -19,4 0,30 -2,59 0,89 11,128 13,128 -31,229 -8,18 -28,40 -45,43 -16,2 -39,-16 -53,-30 -18,-17 -29,-41 -45,-61 -21,-28 -22,-55 -7,-87 11,-23 17,-49 26,-73 -4,-1 -7,-3 -11,-4 -10,12 -20,24 -26,31 -31,-12 -57,-21 -84,-32 -30,78 34,153 -16,219 -38,-10 -35,-38 -38,-62 -5,-45 -9,-90 -14,-135 -3,-28 -13,-50 -63,-30zm-6677 -5572c6,-110 10,-214 19,-317 5,-53 30,-106 25,-157 -8,-87 26,-159 59,-233 9,-19 14,-39 23,-66 -66,-7 -107,26 -142,59 -86,80 -178,157 -249,250 -77,102 -162,203 -192,334 -25,107 -49,213 -73,320 -1,4 5,9 11,18 180,-49 354,-117 519,-208zm933 2886c637,-117 1255,-168 1875,22 -50,-48 -105,-69 -166,-88 -135,-43 -255,-119 -370,-202 -119,-85 -239,-169 -358,-254 -65,-46 -125,-62 -197,-6 -89,69 -185,129 -280,189 -78,50 -160,95 -240,143 -81,49 -138,131 -229,165 -9,3 -16,14 -35,30zm-2706 -2523c-53,17 -65,46 -50,88 10,26 20,53 34,77 81,145 164,288 245,433 29,51 47,109 80,158 88,130 182,257 273,386 25,36 60,43 102,46 258,14 517,31 775,47 43,3 87,4 130,6 -7,-19 -16,-25 -25,-30 -97,-45 -196,-87 -291,-135 -228,-115 -429,-270 -621,-436 -138,-120 -280,-236 -411,-364 -85,-84 -190,-153 -241,-275zm3000 -1436c-4,6 -9,12 -13,17 19,37 41,73 57,110 52,118 102,238 104,370 2,121 5,242 30,361 9,43 26,75 68,88 62,19 124,37 187,51 58,13 116,21 175,29 82,12 165,23 247,35 5,-16 11,-25 9,-32 -37,-187 -57,-380 -153,-551 -50,-89 -93,-183 -175,-247 -68,-53 -146,-95 -218,-144 -97,-67 -210,-72 -319,-89zm-2446 2614c-13,-22 -21,-39 -33,-54 -116,-153 -218,-313 -304,-485 -90,-181 -195,-355 -295,-531 -3,-6 -13,-9 -28,-18 -22,45 -43,87 -64,129 -39,75 -71,154 -119,222 -63,90 -138,170 -207,255 -151,186 -301,372 -453,557 -71,87 -147,170 -221,255 -14,16 -25,33 -38,50 58,-14 109,-37 154,-68 161,-110 336,-182 527,-217 75,-14 151,-24 223,-44 108,-31 214,-51 330,-43 162,11 325,-16 488,1 10,1 20,-4 37,-8zm2425 -1681c0,4 0,8 0,12 -7,3 -15,7 -22,8 -239,12 -477,31 -714,70 -94,15 -189,31 -283,48 -56,11 -89,43 -75,71 20,41 57,22 89,17 47,-6 94,-13 142,-17 47,-4 95,-2 142,-9 78,-11 155,-29 233,-42 66,-11 133,-22 199,-27 121,-9 242,-13 363,-19 39,-2 79,-5 106,-40 -10,-36 -25,-70 -28,-106 -10,-123 -15,-247 -23,-371 -8,-134 -49,-258 -103,-380 -24,-54 -57,-106 -67,-162 -9,-52 -29,-69 -75,-69 -110,1 -220,-4 -329,9 -72,9 -153,5 -214,64 -40,39 -89,69 -135,101 -56,39 -106,82 -138,145 -10,19 -25,40 -43,51 -53,33 -75,85 -85,141 -22,122 -44,243 -57,366 -9,79 -6,160 6,236 63,12 34,-43 55,-59 41,57 41,57 104,48 92,-14 184,-29 276,-40 145,-17 290,-34 436,-46 79,-6 159,-1 239,-1zm-1062 304c6,115 11,221 16,326 4,76 10,152 14,227 2,29 5,56 47,58 24,-92 -11,-180 -8,-269 3,-89 -23,-180 7,-269 12,9 18,18 18,28 7,144 17,287 19,431 1,80 22,142 93,186 33,21 60,51 85,81 9,11 13,42 5,49 -11,11 -35,12 -53,10 -12,-1 -23,-15 -35,-23 -58,-44 -114,-92 -175,-132 -46,-30 -79,-62 -63,-129 -83,39 -142,14 -196,-34 -65,-58 -133,-114 -196,-174 -45,-43 -86,-90 -123,-139 -10,-13 -10,-49 0,-59 21,-22 41,0 54,19 82,118 202,196 310,285 36,29 75,59 136,55 0,-174 26,-345 -62,-513 -154,42 -306,81 -457,124 -40,11 -75,37 -113,55 -17,8 -35,16 -53,16 -56,1 -113,-4 -169,-4 -132,0 -264,4 -396,3 -177,-2 -354,-7 -531,-10 -10,0 -20,5 -37,10 14,25 21,47 36,62 62,65 125,130 191,191 128,115 258,227 388,340 175,152 354,298 564,401 172,85 346,166 521,244 50,23 107,33 161,45 61,13 122,20 183,33 45,10 86,29 97,82 37,-9 71,-17 111,-26 -3,-113 -19,-223 14,-331 12,29 14,58 15,87 2,62 0,124 7,186 6,58 20,65 77,59 45,-4 90,-3 135,-8 80,-9 155,27 232,32 134,8 269,2 404,2 195,0 388,9 582,35 159,21 319,34 479,51 89,10 179,20 268,32 190,26 382,12 572,47 205,37 414,51 621,73 115,12 231,16 345,31 282,36 564,79 850,70 39,-1 79,6 118,12 134,21 267,44 402,6 16,-5 34,-6 50,-6 57,0 69,23 50,90 -36,7 -75,-47 -120,9 244,9 478,42 725,58 -12,-27 -15,-42 -23,-52 -70,-85 -140,-170 -211,-253 -53,-62 -112,-118 -164,-181 -162,-195 -323,-391 -483,-588 -32,-39 -57,-83 -82,-127 -5,-8 6,-25 10,-41 36,53 64,101 99,144 152,189 305,376 459,563 50,61 105,117 159,175 25,27 52,51 77,78 56,59 107,123 168,177 23,20 48,35 61,64 17,38 42,67 92,55 11,-2 25,11 37,13 32,3 64,4 96,6 3,-6 6,-11 9,-17 -21,-25 -40,-51 -63,-74 -66,-69 -144,-130 -197,-208 -183,-267 -413,-492 -622,-736 -31,-36 -74,-61 -102,-98 -83,-109 -172,-201 -327,-180 -24,3 -50,-7 -75,-11 -39,-6 -74,-4 -92,38 -19,43 -49,85 -3,132 16,17 26,39 39,59 -4,6 -7,12 -11,18 -39,-7 -79,-15 -118,-22 -91,-17 -182,-38 -274,-51 -116,-17 -234,-26 -350,-40 -84,-10 -167,-22 -251,-33 -123,-16 -249,-20 -368,-50 -236,-60 -477,-89 -717,-119 -226,-29 -454,-46 -677,-97 -37,-9 -75,-11 -112,-16 -6,18 -12,26 -11,33 18,157 -33,314 -3,472 14,76 -24,107 -101,102 -28,-2 -56,-1 -85,-2 -98,-5 -197,-14 -295,-16 -71,-1 -140,-42 -215,-5 3,-16 8,-34 16,-35 35,-7 72,-13 107,-11 110,6 219,18 329,22 82,3 87,-6 88,-85 0,-11 -1,-23 -1,-34 -6,-169 -14,-338 -18,-507 -3,-116 -6,-230 -33,-344 -11,-49 -14,-108 21,-158 15,90 25,180 30,270 6,93 6,186 12,279 6,93 21,185 24,278 3,91 -7,183 24,272 9,-28 9,-55 8,-83 -6,-166 -11,-332 -20,-499 -4,-75 9,-140 78,-183 38,-24 38,-56 25,-96 -17,-54 -27,-109 -41,-164 -6,-23 -14,-46 -21,-69 -5,1 -11,1 -16,2 0,32 0,65 0,97 -22,-15 -32,-32 -32,-50 -3,-79 -38,-112 -132,-119 -101,-7 -203,-18 -301,-39 -113,-24 -226,-53 -322,-123 -27,-20 -51,-13 -80,-9 -123,14 -246,25 -369,37 -22,2 -45,2 -67,6 -217,32 -434,64 -651,96 -44,7 -88,17 -141,27zm789 4489l-1 -1c9,219 18,437 28,667 19,-25 30,-41 47,-64 11,29 18,48 27,72 24,-12 42,-22 64,-33 10,17 19,31 32,54 16,-30 25,-46 36,-68 62,112 82,127 164,138 -2,24 -4,49 -6,72 -61,12 -61,12 -112,-75 -4,53 -7,89 -11,133 -35,-52 -7,-119 -70,-159 -16,131 60,253 7,382 -31,-28 -19,-103 -85,-68 -3,44 -6,85 -8,124 -103,24 -194,-18 -224,-98 -47,-123 14,-268 136,-323 3,-1 3,-10 5,-16 -16,-31 -38,-17 -56,-5 -51,34 -99,74 -153,104 -65,36 -127,102 -216,40 -20,82 4,151 22,222 0,-49 0,-99 0,-148 6,0 11,-1 17,-1 1,32 4,65 4,97 1,39 -3,79 1,118 2,16 17,31 27,46 13,-12 30,-22 37,-37 8,-16 8,-37 14,-67 23,41 41,72 58,101 162,-8 324,-16 492,-24 -1,-24 -3,-46 -4,-68 -1,-24 0,-49 0,-73 6,-1 12,-2 19,-3 5,26 10,51 14,77 4,27 -6,63 30,71 43,10 49,-27 58,-57 1,-3 9,-4 15,-6 4,7 7,16 13,20 14,11 29,20 43,30 7,-16 16,-32 21,-49 5,-15 6,-32 8,-48 32,100 46,110 139,104 38,-2 58,-18 58,-57 -1,-76 -2,-152 -5,-228 0,-9 -9,-18 -18,-36 -50,105 17,205 -8,304 -49,-12 -65,-41 -67,-81 -2,-37 -5,-73 -4,-110 1,-55 -2,-106 -63,-135 12,-11 21,-15 23,-22 24,-76 111,-98 146,-166 8,-15 36,-24 57,-28 57,-13 57,40 75,75 81,-12 112,50 149,106 33,-16 60,-54 99,-21 5,4 23,-2 31,-8 47,-37 117,-43 137,-115 58,47 111,-14 169,8 52,20 112,17 172,24 2,15 2,32 8,47 12,27 33,53 64,41 32,-12 52,-6 73,18 7,8 29,10 39,5 34,-16 66,-29 101,-2 5,4 21,3 24,-1 32,-49 103,-54 121,-122 18,-69 60,-77 120,-32 10,7 22,12 43,24 0,-50 2,-88 0,-126 -2,-34 -12,-67 -10,-101 6,-141 10,-281 0,-421 -10,-140 -9,-281 -11,-422 0,-27 9,-54 14,-81 15,11 18,19 19,27 6,160 11,321 19,481 3,62 12,123 22,184 3,17 19,46 27,46 23,-2 48,-12 66,-26 10,-8 13,-31 13,-47 1,-65 3,-130 0,-195 -16,-310 -32,-619 -51,-929 -5,-76 -15,-152 -33,-225 -22,-85 -80,-111 -175,-85 33,71 66,142 98,212 18,40 17,172 -7,223 -8,-46 -14,-93 -14,-140 -1,-42 -10,-82 -47,-102 -49,-25 -100,-49 -162,-42 0,79 -2,155 0,230 7,268 15,535 23,803 1,36 20,81 5,108 -46,80 -22,165 -29,246 -11,125 6,252 10,379 1,20 -5,39 -8,68 -52,-35 -45,-77 -45,-114 -1,-152 1,-304 1,-456 0,-254 0,-508 -3,-762 -1,-89 12,-180 -32,-265 -8,-16 -4,-39 -4,-59 0,-48 0,-96 3,-144 4,-55 3,-107 -38,-148 12,-17 25,-28 29,-43 20,-68 35,-136 18,-207 -7,-29 -7,-56 41,-61 2,34 5,65 7,95 4,70 6,141 14,211 2,22 15,52 32,62 35,20 77,29 130,47 -35,-82 -63,-148 -91,-214 194,-68 310,50 332,181 1,8 4,17 5,25 10,126 22,252 30,379 5,79 2,158 7,237 17,270 36,539 54,809 4,56 -16,71 -71,60 -40,-8 -81,-16 -124,-24 -5,26 -12,42 -11,58 9,129 19,258 29,387 13,-9 14,-19 18,-28 6,-11 15,-20 32,-41 4,40 7,65 10,89 61,11 50,-50 83,-58 41,-20 81,-40 131,-64 46,33 74,-9 95,-46 41,23 77,41 110,64 37,25 75,22 114,1 5,80 13,109 39,109 24,0 47,-19 75,-31 27,96 88,-5 135,35 -2,-66 12,-107 75,-115 11,-1 18,-25 28,-38 15,-20 29,-43 48,-58 35,-28 70,-21 94,16 38,58 74,118 112,176 4,6 12,9 18,14 15,-17 28,-31 49,-54 10,34 17,57 26,88 29,-16 52,-30 75,-43 76,30 76,30 120,-30 32,-3 63,-1 91,-9 65,-18 128,-41 192,-62 22,-7 43,-18 64,-27 -2,-5 -4,-11 -6,-16 -83,19 -165,38 -261,59 26,-107 132,-105 181,-173 -66,-1 -130,-19 -187,46 -4,-25 -8,-38 -9,-51 -1,-95 -6,-190 -2,-285 8,-157 5,-316 3,-473 -2,-166 -9,-332 -10,-498 -1,-96 2,-191 10,-287 2,-28 20,-60 41,-78 42,-36 89,-71 140,-93 118,-52 261,-17 320,74 57,89 89,190 95,295 6,118 4,236 3,354 0,48 -12,95 -12,143 1,121 5,242 9,363 4,146 9,292 14,438 33,2 57,3 83,5 1,-26 4,-49 4,-71 -4,-118 -13,-236 -14,-354 -2,-296 1,-592 0,-888 -1,-121 -8,-242 -14,-362 -2,-43 -11,-85 24,-121 14,98 24,195 25,292 2,195 -1,389 -1,584 0,243 -4,485 4,728 4,122 -14,256 105,350 35,28 22,74 -15,101 -39,29 -75,27 -117,-2 -55,-38 -111,-73 -167,-108 -23,18 -39,32 -56,45 -66,-66 -66,-66 -103,-34 61,60 122,120 200,197 11,-29 21,-53 33,-85 43,84 43,84 126,45 19,14 38,28 55,41 28,-17 50,-37 75,-44 28,-8 59,-5 93,-7 -2,-19 -4,-30 -5,-41 -5,-61 12,-99 51,-113 42,-14 84,8 110,67 16,36 36,54 74,58 14,2 27,16 39,23 -8,38 -22,71 -20,103 7,138 18,275 32,413 2,17 26,42 42,44 63,8 128,23 193,-6 0,-73 1,-146 0,-218 -2,-99 -5,-197 -7,-296 -1,-35 13,-59 47,-71 15,-5 30,-14 41,-20 21,-106 48,-133 119,-124 61,8 72,26 70,119 50,32 97,61 137,86 44,0 82,0 125,0 2,-17 6,-35 5,-54 -3,-59 -9,-118 -14,-177 -2,-28 -3,-55 41,-71 12,93 22,180 33,268 80,-24 150,-42 219,-67 38,-14 64,-4 92,20 33,29 69,55 104,83 37,-58 42,-170 16,-271 -24,-4 -60,2 -71,-13 -52,-63 -120,-50 -187,-53 -62,-3 -124,-7 -185,-13 -39,-4 -63,-27 -65,-66 -5,-81 -7,-163 -9,-244 -1,-31 5,-62 3,-93 -8,-149 -19,-297 -28,-446 -2,-37 1,-74 -48,-87 -10,-3 -21,-27 -19,-40 2,-10 22,-18 34,-26 9,-6 18,-10 31,-17 -14,-202 -22,-402 -44,-600 -30,-261 -50,-521 -46,-784 1,-89 0,-178 0,-269 -29,-5 -48,-10 -67,-12 -235,-26 -471,-48 -706,-77 -176,-22 -350,-54 -525,-76 -226,-29 -453,-52 -680,-79 -207,-25 -413,-52 -620,-78 -95,-12 -190,-38 -284,-35 -145,5 -285,-28 -429,-34 -103,-4 -206,-30 -309,-41 -193,-19 -387,-33 -580,-52 -98,-9 -195,-28 -293,-33 -262,-15 -523,-25 -785,-37 -14,-1 -28,-5 -42,-6 -157,-14 -314,-30 -471,-39 -64,-4 -129,10 -194,14 -87,6 -104,21 -102,108 2,96 12,191 13,287 3,137 2,275 2,412 0,88 8,100 98,117 42,8 87,5 138,8 11,21 26,50 44,87 193,-91 345,-238 526,-339 181,-101 350,-223 532,-341 1,28 2,46 3,58 43,30 81,58 120,85 48,34 96,69 146,100 79,49 158,98 239,143 104,57 206,117 315,162 84,35 151,87 212,149 56,57 66,178 28,247 -7,13 -24,20 -37,30 -10,-12 -20,-23 -28,-37 -4,-7 -2,-17 -2,-25 3,-49 -23,-83 -64,-100 -75,-32 -150,-67 -228,-86 -109,-26 -221,-45 -333,-53 -202,-15 -405,-25 -608,-27 -115,-1 -230,20 -345,33 -61,7 -123,13 -184,27 -81,18 -161,43 -247,67 21,50 39,104 66,152 36,63 80,122 121,183 15,22 39,43 15,73 -41,6 -47,-26 -63,-48 -78,-111 -137,-233 -191,-357 -13,-29 -32,-63 -59,-78 -43,-25 -94,-37 -142,-53 -7,-2 -16,3 -26,5 -1,19 -3,38 -4,56 -15,-1 -27,-2 -29,-2 13,420 25,834 39,1248 14,416 30,832 45,1249 86,14 90,13 172,-28 1,-12 2,-26 2,-40 -1,-138 -2,-276 -5,-414 -1,-38 0,-75 33,-100 10,-8 30,-7 43,-3 5,1 7,25 3,36 -8,23 -28,44 -30,67 -11,140 -18,279 15,421 49,-11 60,-35 57,-80 -9,-143 -10,-287 -19,-431 -7,-107 -20,-213 -35,-320 -9,-62 -49,-88 -100,-73 -41,12 -67,40 -78,81 -5,20 -11,40 -18,66 -50,-34 -29,-70 -16,-102 27,-70 105,-125 161,-117 60,8 105,74 111,161 3,36 9,72 13,108zm1054 1164c31,1 72,6 74,-35 5,-87 1,-174 -2,-260 0,-9 -19,-26 -27,-25 -14,2 -34,12 -39,23 -8,20 -6,44 -9,66 -2,23 -4,46 -7,68 -6,0 -13,0 -19,0 -5,-40 -11,-79 -16,-119 -3,0 -6,0 -9,0 -8,49 -17,99 -27,161 -19,-65 4,-121 -27,-181 -35,82 -39,155 -22,226 17,74 24,104 121,84 3,-3 5,-5 8,-8zm1689 -30c6,-49 13,-99 20,-154 -29,44 -53,80 -75,116 -45,72 -90,78 -154,19 -9,-9 -19,-18 -31,-29 -21,99 -3,123 85,104 53,-12 104,-37 155,-57 -4,13 -8,26 -12,38 52,30 84,-1 112,-35 16,13 27,23 39,30 48,27 77,13 77,-40 0,-33 -12,-66 -14,-99 -4,-74 -31,-125 -116,-116 -18,-55 -37,-104 -111,-120 19,34 32,57 45,81 50,90 42,200 -19,262zm-914 0c28,9 55,18 85,28 32,-88 1,-165 -1,-241 -1,-28 -11,-51 -44,-50 -34,1 -38,28 -38,54 -1,70 -1,140 -1,209 -10,-37 -22,-74 -29,-112 -7,-38 -4,-79 -13,-117 -3,-14 -24,-34 -37,-34 -13,0 -34,22 -35,36 -4,64 -3,129 -2,193 1,30 19,47 49,45 22,-1 43,-8 65,-12zm-4877 -4098c109,-8 219,-17 328,-25 -87,-9 -172,-7 -258,0 -24,2 -47,17 -70,26 -21,2 -43,3 -64,5 1,4 1,8 2,12 21,-6 41,-11 62,-17zm4741 254c43,6 86,11 129,17 0,-3 1,-6 1,-10 -43,-2 -87,-5 -130,-7 -96,-47 -199,-21 -299,-22 100,7 199,14 299,21zm609 51c82,13 164,26 246,39 1,-5 1,-10 2,-15 -83,-8 -166,-16 -249,-24 -97,-30 -198,-31 -298,-23 100,8 199,15 299,23zm4674 4319c-63,28 -119,64 -163,119 64,-27 115,-70 162,-120 16,-9 32,-19 47,-28 -5,-5 -9,-11 -14,-16 -11,15 -22,30 -33,45zm-5622 -677c-39,0 -77,0 -128,0 44,26 75,45 108,64 5,-17 12,-41 19,-64 33,-37 12,-73 4,-108 -6,0 -12,1 -18,1 5,36 10,72 15,107zm-1711 -3811c56,0 112,3 163,-21 -1,-6 -3,-13 -4,-19 -53,14 -106,27 -158,41 -16,0 -32,0 -47,0 1,4 1,8 2,13 15,-4 30,-9 45,-13zm7079 4149c-107,19 -182,95 -270,148 -23,14 -41,55 -43,85 -8,123 -40,246 -14,371 2,9 -6,20 -9,31 -42,0 -40,-30 -40,-53 2,-85 6,-169 9,-254 1,-47 0,-93 0,-147 -29,7 -50,12 -65,16 -55,173 -71,344 -61,525 -13,12 -31,7 -38,-16 -7,-23 -9,-50 -7,-74 6,-96 15,-191 22,-287 1,-13 -3,-27 -7,-51 -36,6 -67,11 -101,16 -1,26 -5,46 -3,65 5,47 19,94 -22,134 -7,7 -8,21 -7,32 4,95 9,190 14,293 34,-6 59,-5 75,-16 51,-34 109,-54 162,-83 90,-50 173,-115 258,-175 142,-101 285,-203 425,-307 47,-35 89,-77 134,-115 7,-6 18,-9 40,-19 -13,34 -21,54 -29,75 4,3 7,6 11,9 52,-56 105,-110 155,-167 93,-104 131,-227 119,-365 -1,-16 -7,-33 -14,-47 -17,-30 -36,-59 -59,-96 -13,5 -36,14 -59,23 -3,-4 -7,-7 -10,-11 46,-61 91,-122 139,-185 -18,-17 -37,-27 -43,-42 -11,-27 15,-65 45,-70 32,-6 48,12 55,40 8,35 22,73 17,107 -9,65 -6,128 15,190 12,33 21,67 36,114 -61,129 -115,279 -224,397 -68,74 -143,145 -224,205 -160,120 -326,232 -492,345 -34,23 -76,37 -115,52 -93,35 -178,82 -250,153 -17,17 -41,30 -64,38 -82,29 -165,53 -255,49 -61,-2 -123,13 -184,21 -275,38 -551,27 -828,33 -140,3 -280,26 -420,37 -64,5 -129,6 -193,2 -85,-5 -168,-11 -252,10 -48,12 -100,6 -150,13 -154,20 -307,44 -461,61 -87,10 -175,12 -262,11 -198,-3 -394,20 -590,42 -92,11 -185,8 -277,12 -93,4 -186,18 -278,10 -143,-12 -284,-35 -424,16 -25,9 -56,3 -84,2 -66,-3 -127,12 -191,30 -69,20 -143,32 -215,37 -126,9 -252,12 -379,14 -42,1 -84,-5 -126,-11 -148,-21 -291,14 -435,38 -292,48 -582,104 -881,98 -159,-3 -322,-6 -478,21 -205,35 -411,16 -616,37 -111,12 -225,1 -337,6 -112,5 -225,15 -337,27 -344,38 -689,74 -1035,73 -112,-1 -225,-12 -337,-12 -183,1 -366,9 -549,13 -28,1 -57,0 -84,-5 -32,-6 -67,-13 -82,-62 19,-2 37,-9 53,-6 106,23 212,11 319,4 140,-10 281,-6 422,-6 175,-1 350,3 525,-2 123,-4 247,-17 370,-32 120,-15 238,-38 357,-56 22,-3 47,-6 66,1 64,24 127,8 191,2 112,-10 225,-10 338,-14 101,-4 203,-17 304,-11 204,12 403,-36 606,-42 132,-4 264,1 396,-1 56,-1 112,-7 168,-14 128,-15 257,-30 385,-49 142,-21 283,-51 425,-67 89,-10 180,1 271,-1 147,-3 293,-15 439,-9 96,4 184,-16 272,-47 79,-28 160,-29 242,-30 92,-1 100,-5 98,-95 -5,-158 -15,-315 -23,-473 -1,-17 -2,-33 -1,-50 0,-4 8,-7 16,-14 27,16 28,44 29,71 6,144 11,287 17,431 1,30 0,60 0,107 111,-47 205,2 301,4 163,4 327,-3 490,-13 174,-11 347,-35 521,-48 50,-4 101,15 150,12 152,-11 303,-25 454,-42 120,-13 241,-25 360,-47 59,-11 118,-37 172,-65 59,-32 112,-49 172,-3 18,14 47,17 71,18 195,7 388,4 582,-28 69,-11 140,-7 210,-5 121,3 241,16 362,4 86,-9 120,-18 137,-113 16,-92 30,-183 25,-277 -2,-39 -17,-65 -55,-74 -36,-9 -71,-20 -107,-22 -248,-12 -495,-21 -743,-34 -98,-5 -196,-21 -295,-29 -155,-13 -168,-4 -169,139 -1,93 -10,185 -15,278 -2,26 -5,53 -8,79 -6,0 -11,1 -17,1 -4,-14 -12,-28 -11,-42 3,-101 8,-203 11,-304 1,-44 -3,-88 -4,-125 -16,-9 -21,-14 -26,-14 -188,10 -151,-25 -179,162 -6,39 -1,79 -3,118 -1,26 -4,53 -15,79 -26,-64 -21,-129 -14,-193 13,-115 -2,-141 -119,-155 -69,-9 -140,-6 -210,-9 -93,-4 -186,-10 -278,-14 -42,-2 -85,-3 -127,-2 -89,2 -114,26 -117,118 -2,56 1,113 -1,169 -2,79 -9,158 -10,236 -1,52 6,104 9,161 -37,23 -56,19 -59,-22 -2,-36 4,-73 3,-110 -1,-59 -4,-118 -7,-176 0,-11 -2,-22 -1,-33 6,-81 13,-161 20,-251 -18,11 -24,15 -37,23 -6,-30 -12,-59 -19,-92 -31,0 -61,0 -91,0 -5,4 -9,7 -13,12 -74,102 -14,214 -22,321 -1,21 0,42 0,76 -47,-45 -25,-93 -34,-134 -10,-43 -15,-88 -35,-132 -2,20 -5,40 -5,60 -1,118 -1,237 -3,355 -1,34 -9,69 -25,102 -7,-201 -5,-402 -20,-602 -19,-4 -31,-10 -40,-7 -91,26 -179,-7 -268,-10 -59,-2 -118,-5 -177,-6 -96,-1 -191,2 -287,-1 -65,-2 -123,33 -131,99 -10,81 -11,163 -11,244 1,67 9,134 16,201 3,31 -6,49 -45,52 -31,-63 -6,-131 -12,-196 -7,-64 -6,-130 -4,-195 2,-66 10,-132 2,-201 -10,53 -20,105 -29,158 -27,-39 -21,-80 -21,-120 0,-113 -5,-118 -120,-118 -14,0 -28,1 -42,1 -4,-3 -7,-7 -10,-10 -7,-22 -4,-42 22,-45 39,-6 78,-8 117,-10 34,-1 68,7 101,1 39,-7 69,-9 94,32 9,15 38,24 58,24 121,-2 242,-9 363,-11 70,-1 140,2 210,5 39,2 79,7 118,9 50,3 97,4 108,-64 2,-14 31,-33 50,-35 81,-10 163,-17 244,-19 21,-1 50,14 62,30 19,27 42,34 71,35 225,5 451,10 676,14 11,0 22,-1 40,-2 4,-61 51,-62 97,-64 39,-1 79,-2 118,-3 49,-2 103,-24 127,47 4,11 34,18 53,18 259,8 518,14 777,20 2,0 4,-3 16,-13 -97,-42 -187,-83 -280,-121 -43,-18 -90,-28 -120,-82 18,-2 29,-7 36,-4 108,41 215,83 323,124 97,37 195,75 293,108 33,11 72,7 112,-4 -27,-10 -54,-22 -82,-31 -102,-32 -205,-61 -306,-95 -72,-24 -142,-54 -213,-81 -26,-10 -47,-27 -33,-58 34,-73 19,-150 17,-225 -3,-95 -13,-191 -21,-292 -8,-2 -21,-7 -34,-8 -103,-8 -106,-2 -111,104 -4,107 -21,213 7,320 4,17 -10,39 -17,64 -42,-20 -40,-50 -41,-77 -1,-73 1,-147 1,-220 0,-39 2,-79 -4,-118 -2,-15 -24,-38 -34,-37 -18,2 -45,17 -50,32 -8,25 -3,55 -2,83 3,87 6,174 9,262 1,33 -11,50 -46,59 -23,6 -41,27 -68,47 -40,-37 -101,-30 -162,-33 -95,-4 -190,-17 -285,-24 -50,-4 -101,-5 -151,-1 -87,7 -172,20 -259,-1 -42,-10 -90,-5 -134,2 -38,6 -58,-11 -78,-39 18,-28 36,-55 54,-83 8,15 16,32 27,54 20,-13 35,-23 51,-33 21,10 42,27 64,29 15,2 31,-17 52,-30 54,54 124,38 203,29 -26,-24 -46,-42 -66,-60 36,-18 36,-45 21,-78 -19,-5 -39,-7 -56,-16 -28,-14 -41,-41 -31,-70 7,-20 22,-38 39,-53 16,-14 37,-27 58,-32 15,-4 34,5 58,10 -11,-42 -60,-74 -20,-117 58,-3 119,3 169,-74 -57,10 -97,17 -137,23 -31,5 -29,29 -32,51 -66,23 -106,73 -132,134 -28,64 -33,125 30,175 15,12 23,31 35,47 -118,-50 -148,-123 -93,-234 19,-38 41,-73 63,-111 -85,12 -93,25 -113,191 -9,-49 -14,-79 -20,-114 -26,0 -50,0 -78,0 -8,27 -16,54 -24,81 -4,0 -9,0 -13,0 -7,-28 -15,-56 -22,-84 -9,-3 -16,-8 -24,-9 -91,-12 -111,9 -105,99 6,84 9,169 10,253 0,15 -16,30 -25,44 -11,-10 -23,-20 -34,-32 -3,-4 -4,-11 -4,-16 -13,-131 -27,-261 -39,-392 -2,-18 7,-38 10,-56 -66,-23 -85,-15 -96,44 -9,50 -14,100 -16,151 -3,73 0,147 -3,220 -3,64 -26,76 -87,69 -69,-8 -139,-8 -209,-9 -39,0 -79,9 -118,6 -113,-7 -224,-8 -337,4 -74,8 -150,-11 -225,-19 -44,-5 -54,-40 -74,-81 44,7 79,13 113,17 53,6 64,-2 73,-56 6,-37 6,-75 23,-114 7,49 14,98 21,147 8,0 15,-1 23,-1 -15,-124 40,-242 28,-375 -90,29 -65,104 -87,167 -17,-34 -30,-59 -44,-87 -39,0 -78,0 -119,0 -28,88 29,181 -28,278 -11,-28 -21,-44 -22,-60 -3,-65 -2,-130 -4,-194 -2,-78 -7,-83 -82,-80 -22,1 -44,5 -74,8 0,28 -1,52 0,77 2,84 19,167 -3,251 -6,24 15,56 25,91 -61,24 -121,16 -178,9 -62,-8 -121,-7 -183,0 -103,12 -208,6 -312,8 -127,2 -253,6 -380,4 -30,-1 -71,-15 -88,-38 -29,-39 -50,-88 -62,-135 -13,-57 -12,-118 -19,-176 -4,-31 8,-79 -42,-76 -49,3 -35,51 -35,82 1,87 4,175 11,261 6,82 -4,96 -86,92 -48,-3 -95,-15 -143,-13 -222,8 -444,20 -666,30 -70,3 -141,4 -211,1 -69,-3 -92,-37 -98,-110 -8,-107 -19,-213 -31,-319 -7,-59 -96,-112 -152,-89 -15,6 -30,34 -30,52 -2,73 -2,147 3,220 5,61 16,123 27,183 7,36 -7,55 -40,60 -19,3 -39,2 -59,3 -98,5 -197,7 -294,14 -126,10 -252,25 -379,35 -123,10 -247,16 -371,22 -39,2 -79,0 -118,-5 -54,-7 -96,-34 -112,-89 -19,-65 -36,-129 -26,-199 8,-55 1,-112 1,-169 0,-36 -3,-73 33,-106 60,62 116,55 177,-10 -7,67 -14,134 -21,201 -5,1 -10,2 -15,3 -8,-35 -17,-70 -25,-105 -80,0 -84,3 -86,68 -2,65 -6,130 -2,194 2,35 14,72 31,102 27,50 50,46 92,-13 32,57 78,59 137,36 -3,-46 -5,-91 -8,-136 4,-1 8,-1 12,-2 9,35 13,71 27,104 7,17 29,38 45,39 31,2 29,-28 27,-50 -7,-89 -15,-178 -20,-267 -1,-16 10,-32 12,-48 3,-29 4,-58 7,-98 -28,9 -43,14 -58,19l-5 -7c17,-41 33,-83 52,-129 67,25 122,16 147,-71 41,64 88,52 140,24 33,48 74,54 129,6 -10,79 24,119 78,159 8,-26 15,-48 26,-83 16,25 26,41 38,59 43,15 70,-16 105,-53 12,35 22,63 33,93 -44,34 -1,117 -34,189 -9,-55 -19,-111 -29,-169 -51,8 -72,33 -73,84 -3,97 8,191 33,284 -42,-8 -38,-45 -43,-74 -9,-55 -15,-112 -17,-168 -3,-77 -36,-125 -113,-139 -7,15 -14,29 -24,50 -17,-55 -6,-114 -80,-134 0,69 -15,126 22,191 33,57 53,130 15,201 -16,30 -20,64 9,99 76,-8 154,-17 231,-25 31,-3 61,-5 94,-8 -6,-42 -11,-80 -16,-118 11,0 19,-1 20,0 44,115 49,117 218,100 0,-46 2,-93 -1,-139 -3,-51 -7,-102 -17,-151 -7,-34 -25,-65 -38,-99 56,-31 78,-92 104,-150 20,-47 55,-59 80,-20 38,58 94,87 148,121 16,10 29,26 54,49 5,-32 11,-55 10,-78 -4,-124 -10,-248 -14,-372 -8,-273 -13,-547 -21,-820 -11,-335 -16,-671 -38,-1006 -17,-262 -29,-523 -28,-786 0,-31 0,-62 4,-93 4,-32 -6,-57 -18,-87 -32,-81 -40,-166 12,-245 -24,-60 -64,-91 -134,-99 -69,-8 -133,-44 -202,-57 -94,-18 -189,-28 -284,-36 -185,-17 -370,-31 -555,-44 -126,-9 -253,-17 -380,-21 -304,-9 -609,-18 -912,18 -170,20 -343,26 -508,80 -11,4 -23,4 -32,9 -143,84 -286,168 -429,252 -20,12 -40,25 -70,45 1,-73 64,-81 84,-121 -50,10 -162,90 -169,129 -7,41 -8,85 -1,125 6,38 16,81 40,110 24,31 66,47 102,72 -57,37 -136,19 -158,-38 -34,-86 -51,-171 -26,-271 39,-157 140,-267 240,-382 68,-79 132,-161 199,-241 172,-206 348,-407 514,-618 95,-121 188,-245 236,-397 21,-67 70,-126 109,-192 10,-76 20,-159 32,-250 -40,0 -74,0 -125,0 40,-106 46,-212 135,-291 19,13 34,23 49,35 28,22 54,47 84,68 27,19 49,36 34,75 -22,56 -36,69 -87,64 -5,0 -11,1 -25,3 0,26 -1,52 0,79 1,31 8,61 7,91 -3,74 31,120 106,123 76,3 152,-2 228,-4 20,-1 39,-6 59,-6 211,0 422,0 633,1 91,0 103,-12 125,-102 28,-109 61,-216 90,-324 10,-38 15,-77 20,-116 11,-75 66,-122 109,-177 29,-37 61,-72 92,-108 7,-9 11,-21 20,-27 155,-110 280,-262 463,-335 69,-28 129,-80 190,-125 19,-14 40,-37 44,-59 28,-154 65,-308 24,-466 -11,-40 -12,-84 -15,-126 -5,-68 -10,-132 -56,-190 -39,-48 -31,-101 23,-141 63,-46 64,-92 39,-159 -50,-136 7,-239 109,-329 50,-44 93,-96 138,-146 10,-12 22,-36 17,-45 -34,-58 3,-102 27,-150 -19,-18 -37,-34 -59,-54 32,-47 72,-91 34,-161 -19,29 -34,52 -50,76 -5,0 -15,3 -16,1 -17,-36 -91,-9 -81,-57 8,-38 50,-68 78,-104 20,14 35,24 53,36 6,-9 13,-16 13,-23 0,-31 6,-66 -7,-91 -15,-31 -19,-53 -6,-85 17,-42 26,-87 82,-104 27,23 56,48 86,73 -16,53 -81,88 -42,162 23,-35 41,-64 57,-89 14,3 21,2 25,5 89,69 89,69 2,166 -17,-5 -36,-10 -54,-16 -32,25 -40,60 -30,92 8,26 34,46 56,73 -9,17 -21,38 -31,57 34,43 64,83 92,118 -2,14 -1,20 -3,25 -51,117 -48,128 62,196 134,82 208,195 201,355 -2,55 8,101 55,141 30,26 45,70 63,108 13,29 4,56 -21,76 -30,23 -38,55 -38,90 1,132 2,264 4,396 0,19 9,39 17,56 30,60 57,122 94,178 24,36 57,71 112,61 13,-2 30,1 40,8 104,72 227,112 318,206 83,85 132,188 187,290 84,154 103,327 140,494 5,22 9,44 13,66 6,28 21,44 51,48 25,3 52,7 73,19 16,10 34,33 34,50 2,124 39,302 90,405 10,20 20,41 24,63 9,47 -2,64 -48,81 -16,6 -33,10 -45,20 -29,24 -21,62 17,69 139,25 277,51 417,68 305,39 610,70 915,109 120,16 237,46 356,68 44,8 89,12 134,17 176,21 352,40 527,64 106,14 211,36 316,53 68,11 68,10 89,-61 1,-3 1,-6 2,-8 61,-147 18,-127 183,-140 8,-20 -17,-53 19,-69 5,-2 -12,-44 -11,-67 1,-25 11,-50 20,-85 -54,23 -96,42 -141,61 -2,-88 11,-100 129,-128 -18,-40 -47,-82 -8,-123 12,-13 31,-30 46,-29 12,1 25,25 33,41 9,17 13,37 20,59 47,-14 86,-13 95,56 -33,15 -67,30 -105,47 0,35 0,70 0,110 27,0 51,0 79,0 -17,51 -109,63 -68,138 49,7 99,15 148,22 30,5 47,21 61,50 35,76 79,145 141,207 121,122 236,250 348,381 99,115 187,240 286,355 73,85 156,162 236,242 42,42 86,82 127,124 51,52 50,54 9,112 -24,34 -40,79 -99,59 0,139 0,268 0,397 -1,115 -3,230 -3,345 0,42 -8,87 3,126 41,144 21,292 41,437 14,106 16,214 22,320 2,30 8,51 35,71 26,19 46,49 65,76 41,60 76,125 120,183 165,221 333,441 500,661 14,18 27,37 37,56 30,55 16,85 -49,90 -38,3 -78,-3 -122,-6 0,89 0,178 0,265 78,57 84,55 137,-9 17,-21 40,-43 65,-50 46,-13 63,-41 71,-84 4,-21 12,-50 27,-58 22,-12 58,-20 78,-10 19,9 30,43 35,68 4,23 -6,49 -11,79 20,3 35,7 50,6 60,-2 64,3 65,65 2,99 8,197 12,296 0,6 -1,13 2,17 12,13 25,25 37,38 11,-11 22,-21 31,-33 11,-14 19,-31 28,-46l5 4c7,11 13,23 20,34 13,-9 36,-18 37,-28 4,-65 28,-134 -27,-192 -13,-14 -20,-33 -33,-54 -16,6 -32,12 -51,20 -3,-12 -8,-21 -6,-27 27,-72 61,-80 116,-30 6,6 10,17 16,18 15,2 30,0 45,-1 -4,-13 -6,-28 -12,-40 -3,-6 -13,-9 -21,-14 7,-37 12,-73 22,-108 6,-21 17,-42 32,-57 19,-18 47,-15 54,12 9,34 20,75 9,105 -25,72 -33,141 -7,214 10,28 6,61 8,92 -7,7 -13,13 -19,20 -11,-21 -25,-41 -33,-63 -8,-23 -9,-48 -22,-73 -13,38 -13,77 -11,116 3,67 -26,112 -86,140 -40,19 -79,43 -118,64l0 0c-39,21 -77,43 -117,63 -31,16 -63,26 -87,-13 139,-74 139,-74 135,-233 -1,-37 0,-73 -3,-110 -4,-43 -13,-87 -19,-128 -35,0 -59,0 -90,0 -4,55 -10,108 -12,161 -4,103 -6,207 -9,310z"/>
  <path class="fil0" d="M5436 27494c0,-1 0,-2 0,-3 -10,0 -21,0 -31,0 0,1 0,2 0,3 10,0 21,0 31,0zm-2154 -166c-4,1 -7,1 -11,2 2,12 3,25 5,37 4,0 7,-1 10,-1 -1,-12 -3,-25 -4,-37zm-667 316c-1,5 -2,11 -3,16 15,0 31,0 46,0 0,-2 0,-4 1,-5 -15,-4 -29,-7 -44,-11zm2300 -392c-8,22 -14,29 -13,35 1,7 9,14 13,21 3,-2 7,-3 11,-5 -3,-12 -5,-24 -11,-50zm-1361 -90c-2,-6 -5,-11 -7,-17 -8,2 -16,3 -23,6 -11,5 -34,10 -7,23 8,4 24,-8 37,-12zm1311 209c0,6 0,11 0,17 18,-3 37,-7 55,-10 -1,-4 -2,-9 -2,-13 -18,2 -35,5 -53,7zm-1571 183c11,-30 11,-30 -17,-56 7,22 11,37 17,56zm70 8c6,-1 12,-2 18,-3 0,-10 3,-22 -1,-30 -4,-9 -15,-14 -23,-21 -4,2 -7,5 -11,7 5,16 11,31 16,47zm-379 25c7,-18 15,-30 12,-35 -5,-10 -17,-17 -26,-25 -5,8 -17,18 -15,25 3,11 14,19 29,36zm505 -243c19,10 29,19 41,20 6,0 13,-14 19,-22 -10,-7 -19,-18 -30,-20 -6,-1 -15,11 -30,22zm1902 61c-24,-16 -37,-32 -48,-30 -12,1 -25,18 -31,30 -2,4 15,27 21,26 16,-2 31,-13 58,-26zm-1812 129c-11,-46 -40,-43 -68,-35 -7,2 -14,28 -9,34 21,30 47,21 77,0zm-244 -147c45,-10 64,-30 49,-66 -4,-9 -26,-18 -34,-15 -38,17 -25,46 -15,81zm-200 176c35,4 61,11 86,8 10,-1 24,-24 24,-36 0,-10 -23,-27 -32,-25 -25,5 -58,1 -77,53zm1891 -117c54,25 101,17 154,5 -50,-44 -79,-44 -154,-5zm196 -194c-39,45 21,53 18,86 -20,8 -41,17 -60,24 26,30 48,57 75,88 8,-47 15,-83 22,-128 -15,-18 -34,-43 -56,-70zm-215 -3c-15,32 -8,50 21,56 27,6 54,11 81,16 24,4 46,3 50,-28 3,-27 -12,-42 -39,-43 -38,-1 -77,0 -113,0zm-786 -1122c-14,37 -32,62 -30,85 2,20 22,44 41,56 11,7 47,-1 51,-10 8,-21 9,-49 0,-69 -9,-21 -33,-35 -62,-62zm-976 1284c-5,-35 -6,-56 -11,-77 -9,-37 -40,-37 -68,-32 -16,3 -38,17 -42,30 -10,32 10,54 40,63 22,6 46,9 80,15zm112 33c50,4 61,55 89,95 -9,-85 42,-102 116,-101 -51,-30 -90,-53 -126,-75 -22,22 -49,50 -80,81zm-870 410c33,0 57,0 80,0 -67,-15 -77,-68 -90,-123 -5,70 -54,91 -114,111 35,15 59,25 79,34 15,43 -21,102 56,119 -4,-48 -7,-91 -11,-141zm712 -395c-85,-21 -124,-67 -130,-142 -16,32 -19,69 -38,90 -20,22 -56,29 -102,50 46,14 73,22 98,30 27,23 -5,82 53,83 37,-92 37,-92 119,-110zm-634 334c7,-4 14,-8 21,-12 -19,-49 -34,-99 -59,-145 -10,-18 -47,-41 -60,-35 -48,20 -97,46 -135,80 -38,33 -12,77 -1,115 69,-4 111,-29 116,-100 1,-15 20,-30 30,-43 69,26 18,122 88,140zm-482 -65c8,99 15,197 24,294 5,60 12,67 72,68 65,1 129,2 194,0 61,-1 122,-3 183,-9 36,-3 54,-28 48,-66 -4,-28 -9,-56 -18,-82 -3,-9 -23,-18 -33,-16 -9,2 -20,21 -19,31 3,24 12,48 17,69 -7,8 -10,15 -15,16 -66,19 -95,4 -124,-63 -12,-27 -8,-71 -61,-64 -3,35 -6,69 -9,103 -17,-13 -18,-26 -20,-38 -14,-69 -27,-138 -42,-206 -6,-26 -21,-49 -51,-47 -33,2 -38,29 -37,56 1,34 5,67 8,101 2,34 10,68 -8,100 -13,-32 -18,-65 -23,-97 -5,-36 -9,-72 -15,-109 -4,-28 -17,-48 -70,-40zm2585 -681c-16,-46 -39,-78 -73,-98 -53,-31 -107,-62 -164,-86 -145,-60 -289,-28 -428,21 -105,38 -204,94 -305,144 -22,11 -43,28 -59,47 -28,34 -13,74 31,81 47,7 96,12 142,5 122,-18 243,-45 366,-64 72,-11 147,-27 218,-17 94,13 175,-27 272,-33zm-568 -767c-13,-5 -25,-10 -39,-15 7,-28 21,-55 16,-78 -5,-20 -30,-36 -51,-58 15,-12 29,-31 45,-34 77,-11 141,-69 224,-57 18,3 38,-9 56,-14l4 3c-12,22 -23,45 -35,67 -10,6 -21,12 -31,18 4,4 8,7 12,11 6,-10 12,-20 18,-31 28,19 55,35 58,76 3,38 31,40 63,26 54,-22 54,-21 93,-14 -1,33 -26,40 -50,48 -16,5 -36,1 -49,9 -16,11 -33,30 -38,48 -2,9 22,27 37,37 17,10 38,15 72,27 -67,35 -107,-19 -162,-7 -15,16 -35,39 -59,66 32,43 20,117 101,124 11,1 26,23 30,37 16,70 60,105 126,132 61,25 116,69 166,114 73,66 140,139 205,212 25,28 43,65 38,124 -24,-21 -41,-29 -49,-43 -80,-142 -203,-241 -331,-334 -41,-30 -98,-39 -149,-53 -42,-11 -85,-15 -126,-45 24,-8 48,-17 75,-26 -14,-46 -49,-59 -84,-62 -38,-3 -78,1 -116,8 -8,1 -17,29 -15,43 3,13 18,30 31,34 20,7 43,4 71,6 -12,42 -47,38 -73,48 -108,42 -215,83 -322,126 -17,7 -32,19 -42,39 17,-8 34,-15 51,-24 109,-55 224,-92 344,-113 176,-30 404,69 500,220 20,31 22,73 38,129 46,20 114,37 167,75 69,50 137,33 209,28 74,-5 148,-1 233,-1 -28,20 -48,36 -78,58 30,20 52,34 80,52 14,-31 26,-58 42,-94 44,62 23,131 36,201 17,-9 32,-12 39,-21 34,-43 80,-33 115,-15 65,33 125,75 185,116 13,9 18,27 27,41l-3 3c-63,27 -105,-23 -154,-44 -25,-11 -46,-29 -79,-51 2,29 4,45 6,72 -100,24 -205,4 -307,18 -100,13 -202,15 -303,22 -102,7 -205,15 -308,14 33,-45 81,-29 127,-40 -51,-16 -110,9 -163,-42 82,-37 162,-5 246,-33 -56,-30 -77,-70 -80,-127 19,-7 42,-15 64,-23 10,-109 4,-117 -115,-156 -11,82 38,163 -7,247 -5,-14 -13,-27 -15,-41 -8,-56 -13,-112 -23,-168 -12,-69 -19,-73 -90,-69 -98,5 -197,9 -295,19 -87,9 -174,19 -258,39 -111,26 -223,30 -336,26 -14,0 -28,-2 -42,-1 -52,2 -68,13 -66,66 4,101 14,201 23,313 -60,45 -140,41 -223,51 85,11 166,-9 244,9 -6,46 -35,47 -59,49 -42,3 -85,4 -127,2 -152,-6 -304,-19 -456,-19 -104,0 -208,14 -312,25 -51,6 -64,28 -61,80 14,227 23,454 43,681 15,167 17,331 1,498 -6,66 8,135 14,202 3,29 18,48 48,50 87,5 174,10 263,15 0,-153 2,-301 -1,-449 -3,-144 -31,-288 -25,-433 7,-1 13,-2 20,-4 5,16 15,32 16,48 7,169 11,338 18,507 4,84 12,169 16,253 2,37 21,59 57,62 124,8 247,16 371,18 57,1 68,-16 66,-63 -3,-104 -3,-209 -9,-313 -10,-160 -13,-322 -41,-480 -14,-81 -72,-156 -114,-231 -16,-28 -48,-38 -82,-28 -87,25 -176,48 -219,141 -19,40 -45,36 -76,4 24,-77 82,-123 151,-157 40,-20 84,-33 127,-47 60,-19 114,-4 151,47 60,83 105,171 108,278 2,90 12,180 16,270 8,149 14,298 21,448 1,20 1,39 2,59 2,37 21,58 58,58 68,0 135,0 203,-1 36,-1 47,-21 47,-56 4,-304 -17,-608 -40,-911 -6,-79 -11,-158 -15,-236 -1,-24 -8,-52 31,-65 5,16 13,31 13,46 8,169 14,338 23,507 3,70 13,140 14,211 3,143 1,287 4,430 1,78 20,95 97,93 149,-4 297,-10 445,-16 66,-3 72,-7 81,-72 5,-39 3,-78 1,-117 -7,-107 -23,-214 -22,-320 3,-195 -22,-388 -44,-581 -9,-75 -14,-152 -36,-224 -42,-144 -172,-202 -315,-152 -68,24 -126,61 -178,110 -14,13 -29,24 -56,47 3,-27 0,-42 6,-49 81,-101 185,-164 314,-183 133,-19 263,78 286,218 15,91 17,185 26,278 19,194 43,387 32,582 -3,61 11,123 15,185 4,73 6,146 9,218 0,11 5,21 9,42 44,0 89,1 133,0 59,-2 118,-6 177,-7 25,0 56,-3 75,9 65,42 135,32 205,32 65,1 130,-1 195,0 16,0 32,10 49,15 0,6 -1,11 -1,17 -17,4 -34,11 -51,11 -169,1 -339,11 -508,-3 -141,-12 -281,-14 -422,-9 -126,4 -252,8 -378,9 -64,0 -129,-4 -193,-10 -95,-10 -188,-9 -279,27 -5,2 -11,5 -16,4 -130,-36 -267,9 -397,-35 -31,-10 -69,-11 -100,-3 -101,28 -201,18 -302,8 -58,-6 -62,-1 -66,67 20,-5 37,-10 63,-16 1,16 2,31 3,47 91,7 183,19 275,21 327,8 654,12 981,19 192,4 383,16 575,15 285,-1 569,-11 854,-16 32,-1 89,-22 87,32 -2,46 -57,19 -86,21 -101,6 -203,6 -304,9 -135,5 -270,15 -405,15 -155,0 -310,-10 -464,-13 -181,-3 -361,0 -542,-5 -239,-7 -479,-20 -718,-28 -79,-3 -158,0 -242,0 -8,18 -18,39 -32,67 -90,-84 -200,-55 -300,-71 -158,-24 -319,-35 -478,-56 -46,-6 -93,-21 -112,-77 42,-40 84,-12 122,-5 61,11 119,35 180,41 146,15 292,24 438,35 29,2 52,-5 54,-38 3,-36 -18,-51 -51,-52 -96,-6 -192,-7 -287,-19 -145,-18 -289,-43 -434,-68 -17,-3 -32,-18 -65,-37 33,-5 48,-11 61,-9 87,12 172,31 259,38 121,10 242,13 363,19 28,1 56,1 84,4 57,5 69,-2 69,-55 1,-152 0,-304 -1,-456 0,-10 -6,-20 -6,-21 -251,-8 -496,-11 -740,-26 -151,-9 -301,-34 -452,-54 -58,-7 -115,-43 -145,-87 12,-31 34,-22 56,-14 109,38 221,53 338,52 66,0 132,21 198,32 25,4 50,11 75,11 129,3 258,3 387,6 62,1 123,8 185,9 29,0 59,-8 88,-12 0,-6 0,-13 0,-19 -40,-4 -80,-9 -119,-13 -39,-4 -78,-11 -118,-11 -102,-1 -203,5 -305,0 -90,-4 -179,-19 -269,-27 -90,-9 -180,-14 -269,-23 -64,-7 -128,-18 -192,-30 -15,-3 -27,-15 -43,-24 18,-43 51,-42 80,-35 125,32 251,27 378,32 89,3 176,29 265,43 30,5 62,7 93,7 152,1 304,2 456,2 11,0 22,-2 33,-4 4,-10 9,-17 9,-25 -3,-84 -6,-169 -12,-253 -4,-57 -13,-67 -64,-69 -126,-3 -253,-5 -379,-5 -76,0 -114,-33 -118,-107 -6,-110 -15,-219 -21,-329 -1,-26 3,-52 5,-81 44,21 78,52 109,50 60,-4 124,-9 173,-56 24,-23 57,-36 86,-53 40,-24 78,-18 121,1 112,49 226,53 348,6 0,-81 0,-161 0,-256 19,22 30,32 37,45 19,30 43,38 71,16 26,-21 27,-47 2,-72 -7,-7 -12,-15 -30,-37 191,-16 367,-11 555,-4 -15,-19 -22,-32 -32,-42 -48,-43 -48,-66 -6,-110 155,-165 336,-290 548,-369 16,-6 30,-14 51,-24 -5,-19 -12,-37 -14,-55 -6,-39 0,-81 37,-95 66,-25 72,-79 86,-144 -26,6 -45,10 -64,15 -10,-21 -17,-46 -32,-64 -33,-37 -18,-66 7,-97 47,-4 32,41 46,67 18,-6 33,-11 45,-15 -21,-53 -40,-102 -64,-160 -11,42 -19,76 -27,109z"/>
  <path class="fil0" d="M7355 28550c-63,-22 -122,-6 -196,17 79,25 135,-13 196,-17zm4608 -335c0,3 -1,6 0,8 82,121 35,258 55,386 -8,1 -15,2 -23,3 -7,-54 -14,-108 -20,-161 -3,-22 -2,-45 -5,-67 -9,-51 -22,-58 -73,-57 -93,1 -186,-5 -278,-3 -135,3 -269,7 -404,16 -87,5 -173,21 -260,28 -91,8 -114,31 -108,123 5,81 15,163 22,244 2,28 3,55 4,83 -5,1 -11,3 -16,4 -8,-29 -16,-58 -25,-89 -6,18 -12,35 -24,69 -66,-179 -20,-344 -29,-508 -64,5 -128,9 -200,14 10,21 26,38 22,46 -49,104 -9,206 8,306 11,65 6,115 -47,165 -29,-69 0,-139 -14,-206 -14,-66 -23,-132 -35,-203 -2,-1 -8,-9 -15,-9 -90,1 -179,4 -268,6 -8,0 -17,4 -25,4 -276,5 -551,11 -827,14 -65,1 -106,29 -109,96 -4,90 -4,180 -7,269 -1,25 -5,49 -8,78 -59,-21 -70,-65 -71,-114 -2,-85 -1,-169 -4,-254 -1,-39 -6,-77 -10,-116 -74,0 -139,0 -215,0 -8,120 -16,233 -24,346 -47,-45 -39,-99 -36,-151 6,-78 -11,-103 -91,-101 -87,2 -174,11 -260,21 -173,20 -346,44 -520,65 -67,8 -135,10 -201,23 -128,25 -257,29 -387,28 -48,0 -75,17 -84,64l1 -1c-9,-19 -19,-38 -33,-66 -80,31 -175,-22 -263,42 11,57 27,120 34,183 5,50 0,101 -1,151 0,42 -2,84 -1,126 1,38 12,77 -20,122 -14,-17 -33,-29 -34,-43 -4,-36 1,-73 0,-109 -1,-101 -1,-202 -5,-303 -3,-67 -31,-125 -84,-177 -189,32 -383,67 -576,98 -191,31 -387,19 -580,52 -9,202 57,392 28,588 -49,0 -43,-32 -45,-58 -5,-79 -8,-157 -13,-236 -5,-79 -9,-158 -19,-236 -4,-35 -19,-68 -32,-114 25,-7 52,-19 81,-22 199,-19 399,-30 597,-56 181,-23 364,-48 540,-97 128,-36 256,-28 383,-49 46,-8 94,-6 126,47 9,15 51,19 76,16 182,-17 364,-36 545,-57 193,-23 385,-51 578,-75 39,-5 79,-1 118,-2 43,-1 84,-3 109,-49 6,-11 28,-17 43,-19 111,-15 223,-30 335,-42 16,-2 42,7 49,19 20,36 50,41 86,41 160,-4 321,15 481,-12 63,-11 129,-2 194,-4 127,-4 253,-9 380,-15 19,-1 49,-2 55,-14 46,-86 135,-51 202,-74 21,-7 47,0 66,-9 59,-26 106,-33 138,40 5,13 40,19 60,18 79,-3 158,-7 236,-18 199,-28 398,-34 598,-31 60,1 117,-2 169,-36 3,3 7,7 10,10z"/>
  <path class="fil0" d="M7025 27730c11,38 30,49 66,37 -2,-50 -30,-46 -66,-37zm152 -305c16,-27 32,-42 29,-51 -6,-18 -22,-32 -34,-47 -10,11 -28,23 -27,33 2,18 16,34 32,65zm-215 6c-34,40 -65,78 -55,138 84,-60 89,-73 55,-138zm135 -69c-76,20 -81,28 -68,97 86,-31 86,-31 68,-97zm278 124c-17,-156 -19,-158 -135,-149 -6,97 103,90 135,149zm-454 178c0,72 0,145 0,217 0,11 4,24 11,31 9,9 23,19 33,17 10,-2 25,-20 23,-28 -15,-81 -15,-166 -68,-237zm96 149c-2,15 -5,23 -5,31 5,71 13,76 82,68 86,-10 172,-20 259,-26 47,-3 66,-23 65,-67 -1,-23 -2,-47 -3,-70 -7,-4 -13,-7 -20,-11 -7,12 -11,27 -20,37 -61,60 -130,94 -219,65 -42,-14 -87,-17 -137,-27zm-444 164c0,-36 0,-67 0,-97 0,-76 0,-151 -2,-227 -2,-57 -37,-79 -91,-60 -37,13 -56,47 -53,105 4,76 11,152 15,228 2,43 24,61 65,60 22,-1 43,-5 67,-8zm585 -183c11,-44 18,-69 24,-95 23,18 30,35 38,52 8,17 18,33 27,49 107,-31 141,-85 116,-181 -10,-38 -27,-74 -46,-108 -24,-44 -31,-43 -92,1 34,20 63,36 95,55 4,39 8,79 13,132 -35,-7 -62,-13 -93,-19 18,-30 30,-49 50,-84 -92,20 -89,-59 -130,-96 -20,131 -27,137 -124,102 27,-18 48,-32 73,-48 -7,-21 -15,-44 -27,-78 -42,39 -77,69 -107,104 -7,8 0,42 11,49 39,24 81,42 136,69 7,17 19,50 37,98zm254 -380c-1,17 -3,27 -2,38 9,101 18,201 27,302 3,28 3,56 10,83 13,53 60,42 97,44 38,2 81,10 105,-34 5,-9 6,-22 5,-33 -11,-95 -22,-190 -37,-284 -6,-40 -33,-48 -69,-27 3,55 5,108 8,161 4,55 10,109 15,164 -7,1 -13,2 -20,4 -5,-25 -12,-51 -16,-77 -12,-83 -20,-167 -34,-250 -8,-48 -37,-78 -91,-91zm394 87c-52,48 -15,106 -44,163 -10,-51 -14,-92 -26,-131 -4,-15 -24,-36 -36,-35 -15,1 -29,21 -40,35 -5,5 -4,16 -4,25 9,87 16,174 28,260 2,15 21,38 35,40 28,4 35,-22 38,-46 3,-23 6,-47 9,-70 5,0 10,-1 15,-1 7,31 13,62 20,94 41,27 79,5 113,-8 15,-6 28,-41 27,-63 -1,-87 -7,-174 -13,-262 -2,-36 -8,-72 -12,-111 65,-24 109,-58 123,-129 10,-50 51,-56 90,-22 10,9 22,20 27,32 13,32 36,70 29,98 -9,38 -57,24 -89,27 -33,3 -66,7 -87,10 2,48 10,89 5,128 -12,98 -28,195 -17,294 8,79 -15,95 -97,97 -73,2 -146,13 -219,19 -56,5 -112,11 -168,12 -197,5 -393,16 -587,61 -103,24 -213,18 -319,25 -25,2 -51,0 -76,3 -59,7 -73,21 -77,80 -4,84 -5,169 -9,253 -1,20 -9,39 -17,68 -48,-35 -39,-73 -38,-108 2,-59 7,-118 9,-177 1,-25 -4,-49 -6,-77 -29,-3 -53,-6 -75,-9 -1,-7 -3,-12 -2,-13 80,-57 82,-136 73,-224 -7,-64 2,-130 0,-194 -2,-44 -11,-88 -18,-136 -58,0 -113,-2 -168,1 -41,2 -70,-11 -91,-42 9,-54 62,-32 96,-64 0,-43 0,-94 0,-150 62,8 70,53 90,88 15,28 12,81 53,76 51,-6 34,-59 33,-91 -2,-200 -10,-400 -13,-600 -3,-189 1,-378 -4,-567 -3,-146 -15,-293 -20,-439 -11,-279 -20,-558 -29,-837 -2,-66 0,-132 15,-200 4,15 11,30 11,45 3,126 0,253 8,379 8,118 27,235 41,352 4,36 8,73 9,109 7,222 15,445 19,667 4,211 2,423 4,635 1,68 10,135 9,203 -1,93 -8,186 -11,279 -1,37 2,73 2,110 0,41 27,61 59,74 33,14 60,8 69,-34 3,-15 13,-29 37,-44 4,24 8,47 13,74 82,19 118,-37 159,-114 6,36 9,53 13,75 15,4 35,9 70,18 -31,19 -51,32 -73,46 0,58 0,115 0,173 -4,0 -8,1 -12,1 -7,-41 -14,-82 -20,-122 -5,-36 -29,-44 -61,-42 -49,4 -83,23 -82,56 3,101 8,203 13,304 2,40 24,55 62,50 53,-7 106,-15 159,-21 46,-5 63,-29 60,-74 -8,-129 -15,-259 -22,-388 -2,-27 -5,-55 -8,-89 65,4 102,-25 121,-76 76,21 95,11 146,-74 12,11 24,21 40,35 20,-18 39,-35 63,-56 23,38 53,52 96,58 38,5 75,35 108,58 27,19 43,53 84,47 8,-1 18,9 25,16 46,52 46,52 97,-9 37,48 78,51 107,15 41,5 71,9 111,14 5,6 21,22 24,26l-77 39z"/>
  <path class="fil0" d="M7818 25188c110,2 210,-31 308,-5 17,85 5,108 -69,122 -52,10 -106,13 -158,24 -61,13 -70,23 -73,85 -3,67 -4,134 0,201 11,197 25,394 38,590 2,25 -4,58 9,74 52,65 13,124 -5,183 -14,49 -45,64 -98,54 -42,-8 -71,-39 -72,-81 -4,-211 -7,-422 -11,-633 -1,-62 -8,-124 -9,-185 -1,-50 2,-101 6,-151 5,-85 -9,-101 -92,-101 -62,0 -124,3 -186,4 -39,0 -65,-17 -70,-58 -5,-39 12,-63 54,-68 61,-8 123,-13 185,-21 91,-11 109,-31 92,-121 -14,-77 -17,-150 14,-224 12,-28 25,-51 58,-53 37,-3 59,20 68,52 8,28 10,59 11,89 1,70 0,139 0,222z"/>
  <path class="fil0" d="M12144 29481c79,-45 169,-49 254,-43 111,8 219,-6 329,-15 123,-11 247,-21 370,-32 104,-9 207,-22 311,-27 135,-6 271,-2 406,-8 129,-6 258,-18 387,-27 84,-6 169,-9 253,-20 240,-31 484,-4 725,-45 130,-22 259,-54 391,-65 20,-2 39,-8 59,-8 275,1 525,-91 771,-198 119,-51 237,-105 354,-160 48,-23 93,-54 139,-80 103,-57 206,-117 311,-170 209,-104 382,-249 512,-443 41,-61 84,-120 125,-181 91,-136 115,-274 15,-417 -13,-19 -21,-42 -37,-75 88,46 145,142 146,235l0 3c0,11 -1,21 -2,31 -13,90 -40,175 -97,249 -72,94 -137,193 -211,285 -117,145 -262,254 -431,334 -84,40 -164,87 -243,137 -168,105 -342,197 -527,267 -163,61 -326,125 -488,189 -45,18 -89,24 -139,22 -84,-4 -169,6 -252,17 -97,13 -193,37 -291,52 -78,12 -156,21 -235,26 -146,9 -293,7 -439,23 -165,18 -331,7 -496,39 -111,22 -229,8 -344,11 -28,1 -56,1 -84,3 -22,1 -45,8 -67,6 -161,-16 -320,14 -480,25 -6,0 -11,2 -17,3 -236,15 -472,30 -708,44 -90,5 -180,9 -270,13l1 1z"/>
  <path class="fil0" d="M6833 26418c94,9 111,-5 106,-81 -3,-45 -10,-89 -12,-134 -3,-129 -4,-258 -7,-387 -1,-38 1,-76 -31,-122 -19,38 -39,62 -45,90 -18,90 -44,181 -44,272 0,120 21,239 33,363zm-272 -862c3,17 12,35 8,51 -26,127 -4,253 8,379 12,134 21,269 31,403 2,27 5,54 7,82 48,-5 88,-9 128,-14 47,-6 49,-42 46,-77 -7,-90 -18,-179 -25,-269 -5,-65 -8,-129 -7,-194 1,-94 38,-177 105,-242 33,-32 42,-63 30,-105 -8,-30 -11,-61 -20,-91 -17,-59 -42,-71 -101,-53 -56,17 -97,54 -128,116 3,-98 13,-108 158,-177 -39,-30 -111,-26 -158,4 -56,36 -50,102 -79,158 -45,-33 -40,-70 -21,-106 50,-93 133,-135 236,-137 48,-1 84,27 100,67 27,67 55,137 66,208 15,103 18,208 18,312 1,186 -7,372 25,557 1,8 -3,16 -7,37 -115,27 -234,55 -350,81 -45,-39 -65,-78 -62,-131 11,-187 -19,-371 -40,-556 -10,-84 -6,-169 -5,-253 0,-18 12,-37 18,-55 6,1 13,2 19,3z"/>
  <path class="fil0" d="M2579 29600c63,0 127,-2 190,0 98,3 197,8 295,12 84,4 168,7 253,11 17,1 34,3 51,2 177,-4 355,-7 532,-13 127,-4 254,-21 379,-14 165,9 333,-1 495,43 29,8 62,7 93,7 240,-1 479,-3 719,-5 397,-4 795,-10 1192,-12 132,-1 265,11 397,17 13,1 25,6 59,15 -32,12 -46,21 -59,20 -65,-1 -129,-5 -194,-8 -76,-3 -152,-8 -228,-8 -344,0 -688,-1 -1032,3 -295,3 -591,13 -886,18 -53,1 -107,-5 -160,-10 -84,-8 -167,-19 -251,-28 -59,-6 -118,-14 -177,-12 -115,3 -230,14 -345,20 -64,3 -129,1 -194,0 -90,-1 -180,-2 -270,-5 -104,-3 -207,-10 -311,-13 -109,-3 -219,-2 -328,-5 -64,-2 -129,-6 -193,-10 -9,-1 -18,-8 -28,-12 1,-5 1,-10 2,-15z"/>
  <path class="fil0" d="M12143 29480c-63,12 -125,30 -188,35 -225,15 -450,30 -675,36 -231,6 -463,-2 -694,3 -146,3 -291,20 -437,27 -81,4 -163,-2 -245,0 -42,1 -84,7 -125,11 -39,3 -80,15 -117,7 -113,-22 -224,-4 -336,8 -143,15 -286,21 -429,30 -67,4 -135,8 -202,12 -23,1 -45,6 -68,3 -186,-21 -369,22 -553,33 -123,8 -247,7 -371,10 -27,1 -54,4 -81,4l-1 0c-3,0 -7,0 -10,0 -101,-4 -202,-9 -303,-15 -7,0 -14,-8 -25,-14 34,-30 66,-20 95,-20 141,-1 281,5 422,0 211,-9 421,-25 632,-39 22,-1 43,-14 65,-16 21,-3 44,-1 65,1 44,5 88,17 132,16 127,-3 253,-7 380,-17 123,-9 246,-28 369,-39 61,-5 123,0 185,1 37,1 74,11 109,5 87,-15 173,-9 260,-3 80,6 162,-11 243,-18 53,-5 106,-13 160,-14 149,-2 299,1 448,-1 76,-1 152,-18 227,-12 234,18 466,-28 700,-21 70,2 140,-12 211,-15 53,-2 106,2 160,4 0,0 -1,-1 -1,-1z"/>
  <path class="fil0" d="M6134 28028c-15,-31 -15,-67 -58,-63 -7,1 -20,15 -19,22 6,36 28,51 77,42zm-80 -336c-5,71 -10,126 -14,181 -2,23 -1,48 31,48 27,0 43,-17 42,-43 -2,-53 -5,-106 -12,-158 -1,-8 -21,-13 -47,-28zm-195 -66c-19,121 -2,239 25,356 11,49 70,51 123,8 -21,-7 -40,-14 -58,-20 23,-19 55,-33 57,-50 6,-66 4,-134 2,-201 0,-8 -20,-22 -30,-21 -10,1 -23,16 -26,27 -5,19 -3,39 -3,59 0,29 0,59 0,88 -48,-78 -32,-171 -88,-245zm-48 -78c46,26 91,52 137,78 11,7 22,14 38,25 16,-26 30,-48 47,-76 14,26 24,47 38,72 46,-42 4,-85 14,-123 61,1 75,10 73,58 -7,155 17,306 46,457 9,49 -31,73 -53,101 -30,-17 -54,-41 -79,-43 -58,-4 -118,0 -175,10 -13,2 -28,41 -27,63 2,64 6,130 19,193 18,85 -5,153 -68,229 -8,-27 -21,-46 -16,-57 37,-88 15,-178 18,-267 2,-51 1,-101 -1,-152 -5,-135 -13,-269 -18,-404 -2,-53 2,-106 4,-159 0,0 3,-3 3,-3z"/>
  <path class="fil0" d="M4955 28391c7,0 14,0 21,0 -2,-19 -3,-39 -5,-58 -6,0 -11,1 -16,1 0,19 0,38 0,57zm96 628c-7,-40 -12,-73 -17,-106 -18,-106 17,-146 127,-142 27,-33 17,-72 15,-111 -2,-44 -2,-89 -3,-133 0,-11 5,-24 2,-33 -24,-60 -9,-116 16,-172 4,-9 1,-21 1,-52 -27,43 -44,71 -60,97 -74,-12 -40,-89 -96,-130 31,74 -29,120 -16,181 3,12 -10,36 -22,43 -47,27 -32,64 -27,104 11,92 19,184 27,277 1,15 -6,30 -18,45 -29,-77 -8,-158 -25,-235 -18,-77 -33,-154 -53,-251 -3,38 -6,58 -5,77 10,112 17,225 34,336 15,99 5,196 0,294 0,3 -8,6 -15,12 -28,-23 -18,-55 -19,-84 -2,-64 -2,-129 -5,-193 -10,-191 -21,-382 -31,-573 -1,-17 5,-35 10,-66 37,45 21,86 32,135 12,-69 46,-86 98,-61 24,-36 15,-92 84,-99 9,36 17,72 26,111 8,-17 11,-40 24,-48 17,-10 43,-15 61,-10 34,10 43,43 40,76 -5,50 -16,100 -19,150 -3,53 -1,106 0,159 0,39 7,80 1,118 -10,61 -7,117 22,172 4,8 -1,21 -2,41 -20,-13 -32,-21 -53,-35 7,48 13,89 19,130 -46,-36 -57,-82 -55,-133 0,-20 8,-42 1,-58 -6,-15 -27,-27 -43,-31 -7,-2 -20,19 -23,39 11,-4 23,-7 34,-11 19,51 19,175 -10,241 -5,-37 -10,-73 -17,-120 -14,19 -24,31 -38,49z"/>
  <path class="fil0" d="M1943 27587c0,182 0,348 -1,513 0,3 -9,6 -21,14 -43,-83 3,-171 -20,-254 -21,-79 5,-168 -25,-254 -27,2 -52,2 -77,5 -32,5 -49,22 -47,57 3,62 0,124 7,185 10,98 11,195 5,295 -49,3 -64,-23 -66,-55 -2,-28 3,-56 9,-83 21,-93 4,-185 -10,-276 -2,-11 -8,-20 -14,-34 -18,1 -34,1 -50,3 -75,9 -131,-21 -175,-80 -18,-25 -37,-50 -60,-70 -51,-43 -108,-69 -185,-37 32,-62 74,-76 129,-54 62,25 111,66 144,125 30,54 78,69 135,68 34,-1 63,-10 70,-47 8,-41 37,-43 69,-46 86,-8 85,-9 104,-98 3,-15 12,-35 23,-39 12,-4 40,5 43,15 35,92 113,105 205,105 -9,21 -10,39 -19,43 -22,9 -48,16 -71,16 -35,-1 -69,-10 -103,-15z"/>
  <path class="fil0" d="M4194 28005c-50,57 -49,68 8,128 -3,-45 -5,-81 -8,-128zm106 181c27,-14 50,-27 93,-50 -13,49 -16,81 -30,109 -21,43 -23,85 -18,131 10,86 18,172 27,268 -28,5 -52,9 -76,13 -4,-4 -8,-9 -11,-13 59,-52 38,-114 29,-172 -10,-72 -26,-143 -41,-214 -2,-11 -9,-21 -16,-30 -21,-30 -41,-64 -85,-58 -34,5 -66,50 -77,93 -32,128 -25,255 -3,383 7,43 15,89 -18,136 -8,-14 -17,-22 -17,-31 -10,-131 -18,-263 -29,-394 -2,-21 -14,-42 -26,-60 -20,-30 -44,-58 -66,-86 44,-36 44,-36 109,36 30,-61 96,-103 72,-186 -5,-18 5,-45 15,-64 13,-25 31,-50 66,-40 32,9 43,33 43,65 0,20 -2,39 -1,59 2,41 14,77 60,103z"/>
  <path class="fil0" d="M5554 27562c6,58 15,115 17,173 10,256 18,512 26,768 0,6 -1,12 1,17 47,148 5,296 1,444 -2,92 6,184 12,275 3,36 -5,65 -32,92 -39,-28 -27,-64 -26,-95 4,-180 16,-360 13,-540 -4,-222 -21,-444 -31,-666 -6,-141 -11,-281 -16,-422 0,-15 7,-30 10,-45 8,0 16,0 23,0z"/>
  <path class="fil0" d="M3101 28566c-34,127 17,235 73,343 3,-86 -37,-173 16,-259 2,43 3,85 7,128 5,48 10,95 19,142 9,43 23,84 36,128 89,-44 101,-109 49,-192 7,-49 14,-93 18,-136 4,-41 -23,-87 24,-136 16,157 31,302 46,452 30,-8 50,-14 75,-21 -1,53 -35,66 -71,83 -18,-17 -36,-34 -56,-52 -19,29 -37,56 -63,98 -25,-43 -47,-74 -62,-109 -17,-39 -38,-67 -88,-71 -6,42 -12,84 -21,139 -37,-37 -31,-67 -24,-92 26,-99 14,-193 -18,-290 -12,-37 -1,-83 5,-124 2,-12 22,-22 34,-32l-1 0z"/>
  <path class="fil0" d="M3372 28470c6,-3 12,-6 18,-8 -10,-15 -20,-31 -30,-46 -4,3 -9,5 -13,8 8,15 17,31 25,46zm-235 52c17,-35 18,-58 -18,-77 -19,31 -21,53 18,77zm-36 44c-11,-20 -23,-39 -33,-59 -17,-36 -15,-69 15,-101 32,-35 59,-16 89,7 11,-35 15,-66 29,-93 25,-50 62,-51 96,-7 13,17 27,37 45,47 80,42 119,99 112,195 -8,114 -2,230 -2,345 0,13 -4,26 -22,40 -4,-19 -11,-39 -11,-58 0,-79 3,-158 3,-237 0,-101 -37,-150 -132,-182 -13,-38 -25,-75 -41,-124 -35,45 -22,78 -11,111 9,30 8,31 -28,52 15,20 31,39 51,64 -60,0 -110,0 -159,0l1 0z"/>
  <path class="fil0" d="M4914 28161c20,-105 81,-154 176,-157 98,-3 157,36 192,131 11,31 24,66 22,98 -10,177 6,353 7,530 0,116 7,229 27,342 1,3 -6,8 -15,19 -10,-13 -24,-23 -26,-36 -10,-58 -21,-117 -23,-175 -6,-185 -6,-371 -11,-556 -1,-58 -1,-119 -15,-175 -36,-138 -189,-173 -290,-69 -15,16 -29,32 -44,48z"/>
  <path class="fil0" d="M1067 29353c28,-14 38,-23 46,-22 71,17 142,33 211,57 42,15 83,38 116,67 46,40 94,58 154,54 94,-5 184,13 276,30 204,39 408,81 617,82 -110,17 -219,12 -329,-5 -209,-31 -419,-56 -628,-85 -32,-5 -68,-15 -93,-35 -84,-69 -184,-95 -287,-116 -22,-5 -44,-14 -83,-28z"/>
  <path class="fil0" d="M1518 27773c9,91 20,183 26,274 6,78 14,92 89,108 48,10 97,18 144,27 5,43 -21,51 -47,49 -47,-4 -97,-7 -140,-24 -71,-28 -143,-28 -216,-27 -27,0 -54,0 -81,-8 38,-43 89,-42 136,-48 96,-12 102,-18 88,-114 -10,-67 -19,-133 -27,-200 -1,-12 4,-25 6,-38 7,1 14,1 21,2z"/>
  <path class="fil0" d="M4224 28434c42,112 73,383 53,468 -8,-13 -17,-21 -18,-31 -18,-136 -36,-273 -53,-409 -1,-6 8,-13 18,-28z"/>
  <path class="fil0" d="M17442 27654c6,-7 13,-13 19,-20 23,-6 28,-17 25,-43 -9,-67 -14,-134 -15,-201 0,-24 15,-48 32,-71 33,88 -20,191 66,271 -26,25 -51,51 -79,74 -17,14 -36,16 -48,-9z"/>
  <path class="fil0" d="M4145 28898c-9,-102 -19,-204 -26,-306 -1,-16 13,-33 28,-49 39,102 12,211 39,312 3,12 -10,29 -15,44 -9,0 -17,-1 -26,-1z"/>
  <path class="fil0" d="M16885 27992c2,126 40,243 3,378 -12,-21 -21,-28 -21,-36 -8,-84 -15,-168 -24,-251 -4,-35 -3,-65 42,-90z"/>
  <path class="fil0" d="M7351 28685c26,6 50,15 48,48 -5,87 -11,173 -16,259 0,2 -3,4 -5,7 -37,-36 -51,-208 -26,-315l-1 1z"/>
  <path class="fil0" d="M6841 25537c0,52 -21,84 -51,81 -30,-3 -52,-34 -52,-75 0,-43 24,-79 56,-81 29,-2 47,27 47,75z"/>
  <path class="fil0" d="M17254 27684c-24,-5 -48,-11 -83,-19 11,-41 22,-82 34,-127 29,2 52,4 75,6 4,51 8,96 11,144 -12,0 -23,0 -33,0 0,0 -5,-4 -5,-4z"/>
  <path class="fil0" d="M9292 29203c-70,-74 -18,-163 -32,-245 39,56 55,162 32,245z"/>
  <path class="fil0" d="M17173 27838c10,14 29,28 29,43 2,78 0,156 -1,234 0,4 -6,8 -9,13 -51,-51 -58,-153 -19,-289l0 0z"/>
  <path class="fil0" d="M17412 27963c-33,-75 -62,-152 0,-231 0,77 0,154 0,231z"/>
  <path class="fil0" d="M8590 27400c-15,44 -30,87 -46,137 -15,-44 -29,-87 -44,-133 14,-20 29,-42 50,-72 15,26 25,44 35,62 0,0 5,7 5,7z"/>
  <path class="fil0" d="M4133 28952c55,-3 110,-20 168,6 -77,46 -120,46 -168,-6z"/>
  <path class="fil0" d="M6629 25577c36,60 9,122 5,183 -35,-59 -40,-120 -5,-183z"/>
  <path class="fil0" d="M9458 27506c-62,-112 -61,-143 0,-199 0,64 0,122 0,199z"/>
  <path class="fil0" d="M10777 28994c40,-9 68,-15 111,-25 -10,20 -13,39 -25,46 -30,19 -57,9 -87,-22z"/>
  <path class="fil0" d="M4352 26024c3,-23 4,-47 9,-69 1,-4 21,-9 28,-6 7,3 16,21 13,25 -14,19 -31,35 -46,52 0,0 -4,-3 -4,-3z"/>
  <path class="fil0" d="M4440 26084c23,-8 45,-16 82,-29 -19,60 -46,61 -77,51 -2,-8 -3,-15 -5,-23z"/>
  <path class="fil0" d="M4149 25975c-24,-13 -31,-29 -13,-51 4,-4 18,-6 21,-3 20,20 12,37 -8,53z"/>
  <path class="fil0" d="M6338 24259c-44,-35 -38,-55 -19,-72 4,-4 22,0 22,1 0,19 -1,38 -3,71z"/>
  <path class="fil0" d="M12142 28659c-6,-30 -12,-60 -21,-102 41,47 41,47 21,102z"/>
  <path class="fil0" d="M6668 26170c3,25 7,51 10,76 -6,1 -12,3 -19,4 -6,-25 -11,-49 -17,-74 9,-2 17,-4 26,-6z"/>
  <path class="fil0" d="M6767 27885c8,20 15,37 21,54 -11,3 -19,7 -20,5 -20,-24 -20,-24 -1,-59z"/>
  <path class="fil0" d="M4367 26418c37,0 56,10 58,50 -38,2 -52,-14 -58,-50z"/>
  <path class="fil0" d="M6630 25888c1,-15 2,-31 3,-47 5,0 10,0 15,0 1,15 3,31 4,46 -7,0 -15,1 -22,1z"/>
  <path class="fil0" d="M10603 29001c-12,10 -19,17 -27,24 -6,-8 -17,-16 -17,-23 0,-8 12,-16 18,-24 7,7 14,13 26,23z"/>
  <path class="fil0" d="M4020 26039c-4,-15 -9,-30 -14,-44 8,-2 21,-7 22,-6 7,12 11,26 16,39 -8,3 -16,7 -24,10z"/>
  <path class="fil0" d="M6327 24478c3,-22 5,-43 8,-65 5,1 11,1 16,2 -2,22 -3,44 -5,65 -6,-1 -13,-1 -19,-2z"/>
  <path class="fil0" d="M3945 26147c-9,-9 -14,-14 -19,-20 7,-6 13,-14 21,-16 4,-1 11,8 17,13 -6,7 -12,14 -19,23z"/>
  <path class="fil0" d="M14354 28676c10,8 17,14 24,20 -5,6 -11,16 -14,16 -9,-2 -17,-9 -24,-15 -1,-1 7,-11 13,-21z"/>
  <path class="fil0" d="M10555 28905c1,-12 3,-24 4,-37 5,0 9,1 14,1 -1,12 -2,25 -3,37 -5,0 -9,-1 -14,-1z"/>
  <path class="fil0" d="M13866 27663c3,11 5,23 8,34 -3,1 -7,2 -10,2 -3,-11 -5,-23 -8,-34 4,-1 7,-2 10,-2z"/>
  <path class="fil1" d="M9856 19778c-67,-101 -64,-161 13,-238 53,-53 107,-106 181,-134 30,-11 53,-38 85,-62 26,23 47,45 71,63 26,20 54,39 83,53 74,35 120,92 138,169 16,68 -16,106 -88,109 -20,1 -40,3 -59,-1 -144,-30 -284,-12 -425,40z"/>
  <path class="fil1" d="M9869 20636c-53,-187 -46,-374 -38,-562 1,-33 -6,-66 -10,-104 138,-136 304,-163 487,-108 59,17 136,17 162,109 -98,7 -109,77 -129,149 -6,-34 -12,-67 -18,-101 -9,-49 -32,-85 -84,-94 -50,-9 -86,12 -116,52 -33,44 -51,91 -48,148 8,143 11,287 15,430 1,21 -4,42 -6,72 -40,-25 -36,-58 -37,-86 -6,-132 -9,-264 -17,-396 -2,-39 -9,-79 -25,-114 -29,-67 -93,-73 -127,-8 -23,45 -31,102 -30,153 4,129 17,258 25,387 2,24 -3,49 -5,73z"/>
  <path class="fil1" d="M10278 20366c4,53 9,106 13,159 2,29 6,62 -28,71 -37,10 -76,9 -115,11 -4,0 -12,-12 -14,-19 -4,-13 -6,-28 -6,-42 -6,-121 -14,-242 -15,-362 0,-50 13,-100 26,-148 8,-31 31,-54 69,-49 38,6 50,32 52,66 7,104 14,208 21,312 -1,0 -3,0 -4,0z"/>
  <path class="fil1" d="M9942 20016c14,45 28,73 31,102 13,151 23,303 34,454 1,14 5,31 -1,41 -8,15 -24,33 -38,35 -15,1 -34,-13 -47,-25 -7,-6 -6,-21 -7,-32 -10,-143 -22,-286 -30,-429 -3,-48 7,-94 59,-147z"/>
  <path class="fil1" d="M10235 23736c0,-3 0,-6 0,-9 123,0 246,-2 369,1 127,3 254,6 380,16 131,10 262,30 392,51l-1141 -59z"/>
  <path class="fil1" d="M13569 24035c1,-6 1,-13 2,-19 403,50 806,100 1209,150 -1,6 -1,12 -2,17l-1209 -148z"/>
  <path class="fil1" d="M11393 21975c10,2 18,12 29,20 -141,40 -481,-41 -568,-148l539 128z"/>
  <path class="fil1" d="M14229 26700c84,-16 98,-7 99,63 1,42 -2,84 -4,125 -1,29 -15,47 -47,47 -31,0 -48,-16 -48,-46 -1,-63 0,-127 0,-190z"/>
  <path class="fil1" d="M9318 21973c-3,45 -31,68 -65,79 -147,48 -294,93 -442,139 -3,1 -9,-4 -20,-10l526 -208z"/>
  <path class="fil1" d="M14126 26656c13,18 36,35 39,54 7,61 8,122 8,183 0,26 -18,45 -44,36 -14,-4 -32,-26 -32,-40 -2,-74 0,-149 1,-224 9,-4 18,-7 28,-11z"/>
  <path class="fil1" d="M10397 20684c-94,8 -189,13 -283,24 -72,9 -143,26 -214,38 -12,2 -24,-2 -45,-4 12,-13 16,-22 22,-23 110,-19 222,-32 330,-57 67,-15 126,3 190,23z"/>
  <path class="fil1" d="M11643 27607c23,14 42,21 56,34 21,19 20,45 -8,53l-48 -87z"/>
  <path class="fil1" d="M11463 27683c-4,-12 2,-35 11,-42 8,-6 38,1 41,9 22,58 62,57 116,35l-167 -2z"/>
  <path class="fil1" d="M10384 27546c-18,-3 -33,-5 -60,-9 -2,36 -5,70 -7,105 -46,-18 -18,-62 -35,-95 -20,-3 -44,-7 -70,-12 3,-9 4,-20 9,-23 17,-9 35,-16 55,-25 4,-32 7,-65 12,-108l96 166z"/>
  <path class="fil1" d="M10429 20591c-41,-166 -30,-334 -17,-503 13,168 26,336 39,504 -7,0 -14,-1 -22,-1z"/>
  <path class="fil1" d="M14308 27059c-52,3 -104,8 -156,10 -45,2 -48,-3 -45,-72 68,23 145,-1 206,45 -2,6 -4,11 -6,17z"/>
  <path class="fil1" d="M9092 23607c-1,6 -1,13 -2,19 -132,-10 -264,-20 -396,-30 1,-8 2,-16 2,-24l396 35z"/>
  <path class="fil1" d="M8819 27320c0,-11 21,-30 31,-30 16,1 38,12 45,26 14,25 20,55 36,102l-112 -99z"/>
  <path class="fil1" d="M10469 20087c5,144 11,288 16,432 -4,0 -8,0 -11,0 -8,-144 -16,-287 -24,-431 7,0 13,-1 20,-1z"/>
  <path class="fil1" d="M10244 27698c-83,-32 -95,-93 -96,-157l96 157z"/>
  <path class="fil1" d="M8155 23562c137,1 274,-16 411,17l-411 -17z"/>
  <path class="fil1" d="M7987 23541c-123,42 -250,11 -374,15l374 -15z"/>
  <path class="fil1" d="M14193 27381l0 0c3,-22 1,-46 32,-51 40,-6 80,-13 137,-23l-169 74z"/>
  <path class="fil1" d="M7527 23579c-109,8 -219,17 -328,25l1 1c23,-9 46,-24 70,-26l258 0z"/>
  <path class="fil1" d="M13440 27467c0,70 0,131 0,197l0 -197z"/>
  <path class="fil1" d="M11641 23837c100,0 203,-26 299,22l0 0 -299 -21z"/>
  <path class="fil1" d="M16237 27611c2,-7 4,-13 6,-20 34,-2 68,-35 109,4l-116 16z"/>
  <path class="fil1" d="M14544 28157c-51,42 -104,49 -159,28 1,-6 1,-12 2,-18l157 -10z"/>
  <path class="fil1" d="M8788 27819c-34,11 -56,19 -89,30 -9,-37 -17,-67 -28,-114l117 84z"/>
  <path class="fil1" d="M13318 28175c-45,43 -81,31 -122,18l122 -18z"/>
  <path class="fil1" d="M12251 23886c101,-7 201,-7 298,23l0 -1 -299 -23z"/>
  <path class="fil1" d="M16609 26951c4,-3 8,-6 13,-9 32,44 63,87 95,131l-107 -122z"/>
  <path class="fil1" d="M17061 28347c43,-55 100,-91 163,-119l-1 -1 -162 120z"/>
  <path class="fil1" d="M8923 27772c2,59 2,59 -70,33l70 -33z"/>
  <path class="fil1" d="M11474 27550c50,0 89,0 128,0l-1 0c-7,24 -14,47 -19,64l-108 -64z"/>
  <path class="fil1" d="M12550 23909l0 1c83,8 166,16 249,24 -1,5 -1,10 -2,15l-246 -39z"/>
  <path class="fil1" d="M9892 23740c53,-14 106,-27 158,-41 1,6 3,13 4,19 -51,24 -107,21 -163,21l1 1z"/>
  <path class="fil1" d="M11469 27357c10,42 -14,56 -47,74l47 -74z"/>
  <path class="fil1" d="M15670 27296c-3,-7 -10,-17 -7,-22l7 22z"/>
  <path class="fil1" d="M15732 27257c0,7 1,12 0,12l0 -12z"/>
  <path class="fil1" d="M12980 27470c-62,-6 -62,-6 -58,-67 5,1 12,1 15,5l43 63z"/>
  <path class="fil1" d="M10182 27448c16,-25 27,-40 42,-62 9,17 17,26 18,35l-59 28z"/>
  <path class="fil1" d="M10104 19188c-35,-5 -55,-15 -46,-44 2,-8 24,-18 32,-15 27,10 24,32 14,59z"/>
  <path class="fil1" d="M16259 28206c-34,45 -55,22 -74,-10l74 10z"/>
  <path class="fil1" d="M8874 27656c35,12 51,18 68,23 1,5 2,11 3,16l-71 -40z"/>
  <path class="fil1" d="M12774 27384c2,-54 28,-61 67,-63l-67 63z"/>
  <path class="fil1" d="M11680 27364c-22,-15 -38,-26 -54,-36l54 36z"/>
  <polygon class="fil1" points="11601,27550 11602,27550 "/>
  <path class="fil1" d="M11587 27443c6,0 12,-1 18,-1l-18 1z"/>
  <path class="fil1" d="M14272 27676c4,0 8,0 12,0l-12 0z"/>
  <path class="fil1" d="M10337 27307c15,-9 27,-21 32,-18 10,4 17,16 25,25l-56 -7z"/>
  <path class="fil1" d="M16272 26462c-50,-25 -50,-25 -70,-92l70 92z"/>
  <path class="fil1" d="M17676 27431c3,-30 5,-60 8,-91 2,0 4,0 6,0 0,31 0,61 0,92 -5,0 -9,-1 -14,-1z"/>
  <path class="fil1" d="M11575 27345c-16,1 -32,2 -49,3 -1,-6 -2,-13 -3,-19l51 16z"/>
  <path class="fil1" d="M11452 27508c-5,-6 -9,-11 -14,-17 10,-10 20,-20 30,-30l-17 47z"/>
  <path class="fil1" d="M11524 27436c5,-1 9,-1 14,-2 1,14 3,27 4,41l-18 -40z"/>
  <path class="fil1" d="M12070 23866c0,3 -1,6 -1,10 -43,-6 -86,-11 -129,-17l0 0 130 7z"/>
  <path class="fil1" d="M8738 27729c-9,-16 -18,-32 -27,-47 3,-3 6,-6 10,-8 8,8 17,14 22,24 5,8 4,19 6,28 -3,1 -7,2 -10,4z"/>
  <path class="fil1" d="M10362 20376c0,19 0,37 0,56 -2,0 -3,0 -5,0 -1,-18 -3,-36 -4,-54 3,-1 6,-1 9,-2z"/>
  <path class="fil1" d="M16417 28136c0,-4 0,-9 0,-13 15,1 30,1 45,2l-45 11z"/>
  <path class="fil1" d="M14413 27663c4,-7 10,-13 17,-15l-17 15z"/>
  <path class="fil1" d="M10374 27396c9,16 17,32 26,48 -4,2 -7,4 -11,6 -9,-16 -18,-32 -26,-47 4,-2 8,-4 12,-6z"/>
  <path class="fil1" d="M11413 27719c-4,-12 -8,-24 -12,-35 6,-1 11,-2 17,-3l-5 39z"/>
  <path class="fil1" d="M10520 19984c3,8 6,14 7,21 0,3 -6,6 -10,9 -3,-6 -7,-12 -9,-19 0,-2 6,-6 12,-11z"/>
  <path class="fil1" d="M12239 27487c0,13 0,26 0,40 -1,0 -3,0 -4,0 -1,-13 -2,-25 -3,-38 2,-1 5,-2 7,-3z"/>
  <path class="fil1" d="M12785 27463c5,-10 10,-20 16,-30 5,4 10,8 16,11l-31 18z"/>
  <path class="fil1" d="M14404 27323c4,-3 9,-10 11,-9 6,3 12,8 18,13l-29 -4z"/>
  <path class="fil1" d="M13512 27245c5,-2 13,-6 14,-4 5,6 7,13 11,20l-25 -15z"/>
  <path class="fil1" d="M17224 28228c11,-15 22,-30 33,-45 5,5 9,11 14,16 -16,9 -32,19 -47,28l1 1z"/>
  <path class="fil1" d="M7481 21830c-6,5 -10,10 -13,10 -4,-1 -9,-6 -10,-10 -1,-3 4,-8 6,-12 6,4 11,7 18,12z"/>
  <path class="fil1" d="M11732 27746c-3,-6 -7,-11 -6,-14 2,-4 6,-8 10,-9 2,-1 6,5 10,7 -4,5 -9,10 -14,16z"/>
  <path class="fil1" d="M14411 27483c3,-3 5,-9 9,-10 3,0 8,4 11,7l-20 3z"/>
  <path class="fil1" d="M13429 27382c-2,-4 -7,-8 -7,-12 1,-3 7,-6 10,-8l-4 20z"/>
  <path class="fil1" d="M14356 27686c-2,0 -3,1 -5,1 -3,-10 -5,-21 -8,-31l13 30z"/>
  <path class="fil1" d="M14497 27487c-5,-4 -10,-8 -15,-12 4,-3 8,-8 12,-9l3 21z"/>
  <path class="fil1" d="M9891 23740c-15,4 -30,9 -45,13 -1,-4 -1,-8 -2,-13 16,0 32,0 47,0l-1 -1z"/>
  <path class="fil1" d="M7199 23604c-21,6 -41,11 -62,17 -1,-4 -1,-8 -2,-12 21,-2 43,-3 64,-5 0,0 -1,-1 -1,-1z"/>
  <path class="fil1" d="M16472 26764c3,-3 6,-5 8,-8 7,8 15,16 22,23l-30 -16z"/>
  <path class="fil1" d="M2499 27996c-77,-17 -41,-76 -56,-119 -21,-9 -44,-19 -79,-34 60,-20 110,-41 114,-111 12,55 23,108 90,123l-69 141z"/>
  <path class="fil1" d="M5121 27250c26,1 42,16 39,43 -4,30 -27,32 -50,28 -27,-5 -54,-10 -81,-16 -28,-6 -35,-23 -21,-56l113 0z"/>
  <path class="fil1" d="M5223 27252c22,27 41,51 56,70 -8,45 -14,82 -22,128 -27,-31 -49,-58 -75,-88l42 -110z"/>
  <path class="fil1" d="M5027 27446c75,-40 104,-39 154,5l-154 -5z"/>
  <path class="fil1" d="M4100 26279c0,0 1,1 1,1 8,-33 16,-66 27,-109 23,58 42,107 64,160 -13,4 -27,9 -45,15l-46 -67z"/>
  <path class="fil1" d="M3351 27306c8,-4 30,6 34,15 16,37 -3,56 -49,66l15 -81z"/>
  <path class="fil1" d="M3579 27534c-30,21 -56,30 -77,0 -5,-7 3,-32 9,-34l68 35z"/>
  <path class="fil1" d="M5312 27405c6,-13 19,-29 31,-30 11,-1 24,14 48,30l-80 0z"/>
  <path class="fil1" d="M3490 27344c15,-12 24,-23 30,-22 11,2 20,13 30,20l-60 2z"/>
  <path class="fil1" d="M2956 27551c-2,-6 10,-16 15,-25 9,8 21,15 26,25l-41 0z"/>
  <path class="fil1" d="M3382 27559c-6,1 -12,2 -18,3 -5,-16 -11,-31 -16,-47 4,-2 7,-5 11,-7l24 51z"/>
  <path class="fil1" d="M4866 27388c0,-6 0,-11 0,-17 18,-2 35,-5 53,-7l-53 24z"/>
  <path class="fil1" d="M3554 27163c-12,4 -28,16 -37,12 -27,-13 -4,-18 7,-23 7,-3 15,-4 23,-6 2,6 5,11 7,17z"/>
  <path class="fil1" d="M4916 27308c-5,-7 -12,-13 -13,-21 -1,-6 4,-13 13,-35l0 56z"/>
  <path class="fil1" d="M2616 27644c15,4 29,7 44,11 0,2 0,4 -1,5 -15,0 -31,0 -46,0 1,-5 2,-11 3,-16z"/>
  <path class="fil1" d="M3283 27327c1,12 3,25 4,37 -4,0 -7,1 -10,1 -2,-12 -3,-25 -5,-37 4,-1 7,-1 11,-2z"/>
  <path class="fil1" d="M5436 27494c-10,0 -21,0 -31,0 0,-1 0,-2 0,-3 10,0 21,0 31,0 0,1 0,2 0,3z"/>
  <path class="fil1" d="M4320 26093c-6,10 -12,20 -18,31 -4,-4 -8,-7 -12,-11 10,-6 20,-12 31,-18 0,0 -1,-1 -1,-1z"/>
  <path class="fil1" d="M7355 28550c-60,4 -117,42 -196,17 74,-23 133,-39 196,-17z"/>
  <path class="fil1" d="M6920 27664c53,71 54,156 68,237 1,8 -14,26 -23,28 -10,2 -25,-8 -33,-17l-12 -248z"/>
  <path class="fil1" d="M7374 27486c-31,-59 -141,-52 -135,-149l135 149z"/>
  <path class="fil1" d="M6907 27570c-10,-60 21,-98 55,-138l-55 138z"/>
  <path class="fil1" d="M7145 27361c-1,-10 17,-22 27,-33 12,16 28,30 34,47 3,8 -13,23 -29,51l-32 -65z"/>
  <path class="fil1" d="M5859 27627c56,74 40,167 88,245 0,-29 0,-59 0,-88 0,-20 -2,-40 3,-59 3,-11 16,-26 26,-27 9,-1 30,13 30,21 2,67 5,134 -2,201 -2,17 -34,31 -57,50 18,6 37,13 58,20 -53,44 -111,41 -123,-8 -27,-116 -44,-235 -25,-356z"/>
  <path class="fil1" d="M6054 27693c26,15 46,20 47,28 6,52 10,105 12,158 1,26 -15,43 -42,43 -32,0 -33,-25 -31,-48 4,-55 8,-110 14,-181z"/>
  <path class="fil1" d="M6134 28028c-49,9 -71,-6 -77,-42 -1,-6 12,-21 19,-22 43,-4 43,32 58,63z"/>
  <path class="fil1" d="M4976 28391c-7,0 -14,0 -21,0 0,-19 0,-38 0,-57l21 57z"/>
  <path class="fil1" d="M4203 28133c-57,-60 -58,-71 -8,-128l8 128z"/>
  <path class="fil1" d="M3138 28522c-40,-24 -37,-46 -18,-77l18 77z"/>
  <path class="fil1" d="M3390 28461c-6,3 -12,6 -18,8 -8,-15 -17,-31 -25,-46l43 38z"/>
  <path class="fil0" d="M11572 26472c0,-31 3,-58 -1,-84 -2,-12 -20,-20 -31,-31 -10,11 -29,22 -30,34 -1,37 6,73 62,80zm-148 115c-1,-4 -2,-8 -3,-12 -113,-7 -225,-14 -338,-21 0,6 -1,12 -1,18 114,5 227,10 341,16zm89 -281c63,0 63,-41 64,-75 1,-38 -16,-64 -71,-54 3,43 5,85 8,129zm-14 -262c9,24 -8,69 35,71 44,1 31,-44 37,-71 7,-32 5,-70 -35,-72 -48,-2 -29,43 -37,72zm129 325c-7,5 -14,11 -21,16 8,28 9,61 25,83 12,16 42,23 66,26 10,1 32,-21 31,-30 -3,-22 -11,-49 -27,-63 -19,-17 -49,-22 -74,-32zm6 -173c-43,109 -31,129 73,127 26,-105 18,-119 -73,-127zm-4 -211c-7,26 -13,47 -18,69 -2,11 -3,22 -3,33 1,37 29,47 58,48 16,0 40,-11 46,-24 28,-57 -4,-108 -83,-126zm86 -66c-5,-36 -4,-69 -15,-99 -20,-57 -60,-75 -112,-57 -53,19 -92,78 -80,123 7,27 23,38 49,20 11,-7 20,-17 31,-26 31,48 73,42 126,38zm132 662c37,-22 36,-55 37,-85 1,-82 3,-164 -1,-245 -8,-183 -19,-366 -31,-548 -6,-87 -12,-174 -23,-261 -5,-38 -20,-77 -38,-111 -39,-77 -100,-108 -172,-94 -64,12 -108,65 -114,149 -4,59 3,118 1,177 -2,61 -10,122 -16,187 47,-17 87,-38 129,-47 77,-15 150,46 150,121 1,121 1,241 2,362 1,59 -2,119 6,177 7,59 -2,126 59,169 9,6 7,29 11,49zm-1601 -13c-1,-34 -4,-68 -4,-101 0,-22 1,-49 33,-49 31,1 31,23 29,49 -3,32 -1,65 -1,109 56,-6 100,-13 144,-16 50,-3 101,-1 151,-1 67,0 134,0 201,-8 -148,-57 -314,-1 -458,-74 3,-16 3,-25 5,-26 62,-23 75,-63 59,-126 -18,-70 -30,-142 -37,-215 -6,-61 -1,-123 5,-185 11,118 77,226 60,350 -4,25 0,51 2,76 6,61 16,73 77,80 50,6 101,7 152,10 163,11 326,23 489,33 21,1 43,0 76,0 -27,-30 -48,-49 -62,-72 -6,-10 2,-30 4,-45 13,2 30,-1 38,6 48,44 106,63 168,74 16,3 33,0 61,0 2,-31 7,-60 6,-90 -3,-87 -12,-175 -13,-262 0,-90 7,-180 11,-269 3,-62 3,-124 6,-186 4,-96 6,-192 15,-287 7,-71 56,-117 120,-141 65,-25 134,-31 192,19 69,59 113,133 117,226 12,304 25,608 34,913 3,87 -5,174 -8,267 -77,9 -148,21 -220,24 -98,4 -197,-1 -295,1 -119,3 -236,1 -354,-24 -57,-12 -118,-7 -177,-9 -107,-5 -214,-14 -320,-14 -89,0 -178,11 -275,17 -7,-15 -19,-37 -30,-59l1 1z"/>
  <path class="fil0" d="M11090 26294c-13,41 -36,42 -58,31 -65,-32 -134,-61 -193,-102 -89,-63 -172,-136 -257,-205 -74,-60 -120,-141 -162,-224 -6,-12 -14,-27 -13,-40 1,-20 5,-51 16,-56 28,-11 34,17 43,38 40,96 102,175 184,237 123,93 234,203 380,264 25,11 43,39 60,56z"/>
  <path class="fil0" d="M15743 25234c-1,0 -3,0 -4,0 0,31 0,62 0,93 1,0 3,0 4,0 0,-31 0,-62 0,-93zm59 109c4,-1 7,-2 11,-3 -2,-31 -3,-63 -5,-94 -6,1 -12,1 -18,2 4,32 7,64 11,96zm-5 -179c-1,-46 -13,-66 -51,-70 -6,39 15,53 51,70zm-107 271c-4,-25 -11,-51 -13,-78 -3,-53 2,-107 -8,-158 -13,-69 13,-120 54,-169 20,-24 46,-28 65,-4 26,32 60,67 64,104 10,85 5,173 4,259 0,42 -24,61 -66,56 -30,-4 -61,-5 -100,-9z"/>
  <path class="fil0" d="M15864 26580c-6,0 -11,-1 -17,-1 1,12 1,24 2,36 4,0 8,0 12,0 1,-12 2,-24 3,-36zm-89 11c6,0 13,-1 19,-1 8,-60 1,-120 -14,-178 -6,0 -12,1 -18,1 4,59 8,119 13,178zm-59 -177c-1,-25 -4,-63 43,-77 41,-13 93,7 111,53 24,62 39,128 52,193 7,33 35,72 -4,101 -40,31 -86,14 -129,4 -35,-9 -59,-29 -61,-70 -3,-64 -8,-129 -13,-205z"/>
  <path class="fil0" d="M10178 25406c-10,28 -19,50 -33,89 -8,-26 -15,-38 -14,-49 5,-83 -27,-154 -68,-223 -37,-63 -73,-127 -108,-191 -6,-11 -9,-24 -2,-43 16,21 35,41 49,64 36,57 71,115 107,172 24,38 47,80 104,70 51,63 124,49 192,55 26,2 39,25 31,50 -10,29 -33,46 -66,39 -41,-8 -82,-20 -123,-27 -21,-4 -43,-3 -68,-4z"/>
  <path class="fil0" d="M14729 25204c0,-71 2,-142 -1,-213 -2,-53 -8,-106 -14,-159 -10,-106 -25,-211 -31,-318 -3,-49 11,-99 18,-156 40,23 25,49 25,71 -1,112 -14,225 2,335 17,120 20,239 24,359 1,27 -4,55 -6,82 -6,0 -11,0 -17,0z"/>
  <path class="fil0" d="M9989 27275c-5,-224 -10,-448 -15,-672 45,89 34,184 40,277 5,81 12,163 12,244 1,50 -9,99 -13,149 -8,0 -16,1 -24,1z"/>
  <path class="fil0" d="M10099 26597c-60,-67 -61,-95 -12,-171 85,36 91,102 12,171z"/>
  <path class="fil0" d="M12407 25887c0,-18 0,-37 0,-55 5,0 10,-1 16,-1 1,18 3,36 4,54 -7,1 -13,1 -20,2z"/>
  <path class="fil0" d="M10379 25740c0,32 0,63 0,95 -3,0 -6,0 -9,0 0,-32 0,-63 0,-95 3,0 6,0 9,-1z"/>
  <path class="fil0" d="M10724 27393c1,-16 2,-32 3,-48 5,-1 9,-1 14,-2 3,10 10,21 9,30 -1,8 -10,15 -16,23 -4,-1 -7,-3 -11,-4z"/>
  <path class="fil0" d="M10061 27637c7,-8 12,-13 16,-17 4,6 9,11 10,18 1,3 -5,8 -7,13 -6,-4 -11,-8 -19,-13z"/>
  <path class="fil0" d="M12234 25202c-5,-12 -10,-25 -15,-37 4,-2 8,-3 13,-5 5,12 10,25 15,37 -4,2 -9,3 -13,5z"/>
  <path class="fil0" d="M9911 24895c4,12 8,24 12,36 -4,2 -8,3 -11,5 -6,-11 -12,-22 -18,-33 6,-3 12,-6 17,-8z"/>
  <path class="fil0" d="M9987 27548c1,11 1,23 2,34 -4,0 -8,1 -12,1 -1,-11 -2,-23 -2,-34 4,0 8,-1 12,-1z"/>
  <path class="fil0" d="M11169 24099c-7,-10 -15,-17 -14,-22 1,-5 10,-9 16,-12 2,-1 10,7 9,10 -1,7 -6,12 -12,23z"/>
  <path class="fil0" d="M9906 22943c-53,104 -14,206 -16,311 -48,-34 -49,-34 -56,-177 -3,-61 0,-123 0,-184 73,-30 131,-13 197,17 146,67 296,124 446,181 76,29 156,49 234,72 20,6 41,7 73,13 -7,-50 -15,-88 -17,-126 -7,-132 -8,-265 -20,-397 -16,-185 13,-372 -25,-556 -10,-48 -1,-100 -1,-160 15,16 29,25 32,37 14,52 30,104 34,156 10,155 15,309 20,464 2,79 16,157 19,234 5,107 39,208 36,315 -1,43 9,86 15,144 -10,23 -43,18 -72,11 -41,-10 -81,-24 -121,-37 -97,-31 -195,-56 -289,-94 -143,-58 -283,-124 -425,-188 -20,-9 -38,-23 -63,-37z"/>
  <path class="fil0" d="M11174 22454c-4,-6 -8,-11 -12,-17 -4,3 -10,7 -10,9 2,7 6,13 9,19 3,-3 7,-6 12,-11zm-71 107c-54,107 -42,268 25,325 -9,-116 -17,-221 -25,-325zm81 324c11,-1 22,-3 32,-4 -10,-103 -20,-207 -32,-310 -1,-5 -16,-9 -30,-16 -8,118 -1,226 29,331zm99 -4c7,-1 14,-1 20,-2 2,-21 8,-43 7,-64 -10,-123 -19,-246 -35,-368 -6,-43 -28,-85 -48,-125 -14,-28 -41,-53 -75,-42 -49,17 -90,46 -104,105 31,-20 63,-41 95,-62 51,36 86,78 91,139 6,84 12,167 15,251 2,59 11,115 34,168zm85 -5c4,44 -17,73 -61,73 -103,0 -208,10 -307,-31 -4,-2 -7,-9 -16,-21 20,-17 36,-31 51,-44 -68,-154 -43,-312 -43,-468 0,-27 22,-57 42,-79 22,-24 52,-43 80,-61 58,-37 99,-38 143,11 49,55 97,112 81,200l30 419z"/>
  <path class="fil0" d="M10680 22131c0,64 2,128 0,191 -9,243 59,480 63,721 0,18 -3,35 -4,58 -38,-15 -36,-42 -36,-66 2,-127 -14,-252 -43,-376 -9,-38 -7,-78 -9,-118 -6,-98 -12,-196 -15,-294 -1,-41 -16,-89 23,-121 7,1 14,3 21,4z"/>
  <path class="fil0" d="M11538 22443c0,-14 0,-28 0,-42 3,0 5,-1 7,-1 1,14 2,28 3,42 -4,0 -7,0 -11,1z"/>
  <path class="fil0" d="M16512 27697c2,-25 3,-42 6,-67 17,34 17,34 -6,67z"/>
  <path class="fil0" d="M14286 25680c4,-42 -22,-72 -55,-70 -15,1 -38,14 -43,28 -10,25 22,57 56,58 15,0 31,-11 42,-16zm60 -16c2,54 -32,89 -88,92 -64,3 -115,-42 -118,-106 -3,-64 30,-97 97,-100 59,-2 107,48 109,114z"/>
  <path class="fil0" d="M14674 27657c3,24 6,48 11,87 -46,-31 -37,-58 -33,-84 7,-1 15,-2 22,-3z"/>
  <path class="fil0" d="M9045 27616c0,-31 0,-63 0,-94 4,0 7,0 10,0 0,31 0,63 0,94 -3,0 -7,0 -10,1z"/>
  <path class="fil0" d="M11293 27740c-11,-12 -21,-24 -32,-36 5,-4 9,-8 14,-12 9,13 17,27 26,40 -3,3 -5,5 -8,8z"/>
  <path class="fil0" d="M13286 27580c14,50 22,81 33,120 -36,-39 -36,-39 -33,-120z"/>
  <path class="fil1" d="M11697 25423c-73,-38 -101,-27 -111,40 36,-13 71,-25 111,-40zm-76 150c2,6 4,13 6,19 35,4 70,8 103,11 50,-71 50,-80 2,-152 17,98 -32,124 -111,121zm227 1008c-4,-20 -2,-42 -11,-49 -61,-43 -52,-110 -59,-169 -7,-59 -5,-118 -6,-177 -1,-121 -1,-241 -2,-362 0,-75 -73,-136 -150,-121 -42,9 -83,29 -129,47 6,-65 13,-126 16,-187 2,-59 -5,-119 -1,-177 6,-84 50,-137 114,-149 72,-14 133,18 172,94 18,35 33,73 38,111 12,86 18,174 23,261 12,183 23,365 31,548 4,82 2,163 1,245 0,30 1,62 -37,85z"/>
  <path class="fil1" d="M11716 25919c-53,4 -95,10 -126,-38 -11,10 -21,19 -31,26 -26,18 -42,6 -49,-20 -12,-45 27,-105 80,-123 52,-18 92,0 112,57 10,30 10,63 15,99z"/>
  <path class="fil1" d="M11630 25985c79,18 111,69 83,126 -6,13 -31,24 -46,24 -28,-1 -56,-11 -58,-48 0,-11 0,-22 3,-33 5,-21 11,-42 18,-69z"/>
  <path class="fil1" d="M11634 26196c91,8 99,22 73,127 -105,2 -116,-18 -73,-127z"/>
  <path class="fil1" d="M11628 26369c25,10 54,15 74,32 16,14 24,41 27,63 1,9 -21,31 -31,30 -23,-3 -54,-9 -66,-26 -16,-22 -17,-55 -25,-83 7,-5 14,-11 21,-16z"/>
  <path class="fil1" d="M11499 26044c8,-29 -10,-75 37,-72 40,2 42,40 35,72 -6,27 7,73 -37,71 -44,-1 -27,-46 -35,-71z"/>
  <path class="fil1" d="M11513 26306c-3,-44 -5,-86 -8,-129 55,-9 72,17 71,54 -1,34 0,75 -64,75z"/>
  <path class="fil1" d="M11424 26586c-114,-5 -227,-11 -341,-16 0,-6 1,-12 1,-18 113,7 225,14 338,21 1,4 2,8 3,12z"/>
  <path class="fil1" d="M11572 26472c-57,-7 -63,-44 -62,-80 0,-12 19,-23 30,-34 11,10 29,19 31,31 5,26 1,53 1,84z"/>
  <path class="fil1" d="M15813 25341c-4,1 -7,2 -11,3 -4,-32 -7,-64 -11,-96 6,-1 12,-1 18,-2l5 94z"/>
  <path class="fil1" d="M15739 25234c1,0 3,0 4,0 0,31 0,62 0,93 -1,0 -3,0 -4,0l0 -93z"/>
  <path class="fil1" d="M15762 26412c6,0 12,-1 18,-1l-18 1z"/>
  <path class="fil1" d="M15794 26589c-6,0 -13,1 -19,1l19 -1z"/>
  <path class="fil1" d="M15849 26616c-1,-12 -1,-24 -2,-36 6,0 11,1 17,1l-15 36z"/>
  <path class="fil1" d="M11283 22882c-23,-53 -32,-109 -34,-168 -2,-84 -8,-167 -15,-251 -5,-61 -40,-102 -91,-139 -32,21 -64,42 -95,62 14,-59 55,-89 104,-105 34,-12 61,14 75,42 20,40 42,82 48,125 16,122 25,245 35,368 2,21 -4,42 -7,64 -7,1 -14,1 -20,2z"/>
  <path class="fil1" d="M11216 22881c-11,1 -21,3 -32,4 -30,-105 -37,-212 -29,-331 14,7 29,11 30,16l32 310z"/>
  <path class="fil1" d="M11128 22887c-68,-57 -80,-219 -25,-325l25 325z"/>
  <path class="fil1" d="M11174 22454c-5,5 -9,8 -12,11 -3,-6 -8,-12 -9,-19 -1,-2 6,-6 10,-9 4,6 8,12 12,17z"/>
  <path class="fil0" d="M11621 25573c78,3 128,-24 111,-121 49,72 48,81 -2,152 -33,-4 -68,-8 -103,-11 -2,-6 -4,-13 -6,-19z"/>
  <path class="fil0" d="M11697 25423c-40,15 -75,27 -111,40 10,-67 37,-78 111,-40z"/>
 </g>
</svg>
