<?xml version="1.0" encoding="UTF-8"?>
<!DOCTYPE svg PUBLIC "-//W3C//DTD SVG 1.1//EN" "http://www.w3.org/Graphics/SVG/1.1/DTD/svg11.dtd">
<!-- Creator: CorelDRAW X6 -->
<svg xmlns="http://www.w3.org/2000/svg" xml:space="preserve" width="210mm" height="297mm" version="1.1" style="shape-rendering:geometricPrecision; text-rendering:geometricPrecision; image-rendering:optimizeQuality; fill-rule:evenodd; clip-rule:evenodd"
viewBox="0 0 21000 29700"
 xmlns:xlink="http://www.w3.org/1999/xlink">
 <defs>
  <style type="text/css">
   <![CDATA[
    .fil0 {fill:#2B2A29}
    .fil1 {fill:#FEFEFE}
   ]]>
  </style>
 </defs>
 <g id="Слой_x0020_1">
  <metadata id="CorelCorpID_0Corel-Layer"/>
  <path class="fil0" d="M4361 16015c4,3 9,6 13,9 6,-8 15,-15 18,-25 3,-9 2,-19 2,-29 -4,-1 -8,-1 -11,-2 -7,16 -15,31 -22,47zm477 469c-6,-1 -13,-3 -19,-4 -5,15 -10,31 -15,46 6,2 12,4 17,6 5,-16 11,-32 16,-48zm-11 4557c0,-2 0,-3 0,-5 -15,0 -31,0 -46,0 0,2 0,3 0,5 15,0 31,0 46,0zm164 -5268c-10,17 -19,33 -32,56 48,1 44,-25 32,-56zm975 12538c-7,-2 -14,-4 -21,-7 -4,30 -7,59 -11,89 5,1 10,1 15,2 6,-28 11,-56 17,-85zm-1138 -14183c-26,18 -39,28 -62,45l62 -45zm-480 4802c-6,-1 -13,-2 -20,-2 -19,23 -27,49 -1,82 7,-26 14,-53 21,-79zm1869 2163c-42,43 -41,57 0,120 0,-41 0,-78 0,-120zm-1782 -2809c6,2 11,5 17,7 39,-44 52,-86 48,-159 -23,54 -44,103 -64,152zm1952 3098c5,-87 9,-174 14,-262 -7,0 -14,0 -21,-1 -22,86 -8,173 8,262zm-1035 -7349c-50,10 -99,20 -154,31 4,12 7,33 12,34l142 -65zm1507 45c1,-6 1,-12 2,-19 -92,6 -184,13 -290,20 107,38 197,11 288,-2zm-2268 974c7,3 13,5 20,8 15,-34 35,-67 45,-103 9,-31 46,-65 1,-102 -46,63 -54,131 -66,198zm1688 6043c-53,108 -11,215 10,324 6,-57 11,-115 17,-181 -14,15 -20,22 -35,38 3,-67 6,-124 8,-182zm-560 -10588c-11,35 -18,67 19,83 18,8 47,8 63,-1 25,-14 40,-41 16,-71 -29,-3 -59,-7 -97,-11zm1934 9305c6,-4 12,-8 17,-12 -38,-85 -75,-169 -113,-254 -6,1 -12,3 -18,4 0,26 -9,58 2,78 33,63 74,123 112,183zm-1101 1393c-4,0 -8,-1 -12,-1 -5,54 -14,109 -14,163 -2,116 3,124 55,152 -10,-108 -19,-211 -28,-314zm-1667 -7066c8,12 9,16 11,17 92,20 176,-23 263,-39 5,-1 6,-30 9,-51 -101,26 -189,49 -283,74zm-304 1017c-17,14 -23,17 -25,22 -41,104 -83,208 -120,313 -3,9 18,27 27,42 6,0 13,-1 19,-1 -24,-94 41,-159 64,-238 12,-40 21,-81 35,-138zm3445 3898c-60,44 -110,88 -151,152 66,-7 123,-12 187,-19 -13,-47 -24,-87 -36,-133zm107 -74c-57,-40 -103,-50 -149,-11 -60,50 -140,94 -139,214 90,-94 155,-197 288,-203zm114 197c-50,-65 -80,-143 -176,-148 -18,157 67,200 176,148zm-3056 -5184c58,-7 65,-39 67,-73 4,-72 9,-144 12,-216 0,-14 -9,-28 -14,-44 -66,32 -91,80 -84,145 7,60 13,121 20,188zm2576 14358c-71,28 -134,50 -194,79 -17,8 -32,41 -29,60 4,33 34,26 60,21 44,-9 88,-14 132,-22 50,-9 62,-26 52,-74 -4,-19 -12,-37 -22,-64zm-1433 -7114c-45,170 -44,208 1,348 33,0 66,0 105,0 0,-131 0,-259 0,-386 -22,49 -26,101 -35,152 -8,48 11,102 -36,165 -12,-99 -22,-178 -34,-279zm1188 -1986c4,18 3,31 9,39 17,24 36,45 12,78 -6,8 1,27 6,40 35,97 72,194 107,292 4,11 7,22 10,33 9,-5 17,-11 26,-16 -6,-56 -11,-113 -18,-169 -7,-56 -13,-112 -24,-167 -11,-53 -29,-105 -45,-161 -25,9 -51,19 -84,31zm-20 9165c52,-14 88,-20 121,-34 40,-17 78,-42 125,-67 -49,-75 -95,-146 -147,-226 -42,50 -93,84 -105,129 -15,58 2,125 5,199zm-2091 -14311c59,0 111,-1 163,0 189,4 377,6 564,-27 107,-19 215,-46 324,-2 22,9 52,16 76,-23 -69,-8 -131,-9 -191,-23 -98,-22 -194,-5 -291,1 -80,5 -159,14 -239,17 -72,4 -145,1 -217,5 -55,2 -110,9 -173,15 -2,4 -8,18 -15,37zm2427 5097c-16,1 -22,0 -26,2 -7,5 -13,11 -18,18 -50,64 -42,138 -30,210 21,129 46,257 44,389 -1,46 16,93 30,139 5,17 24,31 36,46 5,-2 9,-5 14,-7 -16,-266 -33,-531 -49,-797zm-15 -98c-102,9 -174,89 -163,173 20,158 40,317 56,475 5,54 23,95 82,134 -4,-209 -27,-400 -76,-595 19,-63 97,-105 101,-188zm-2665 -5103c-7,-123 -7,-235 -58,-339 -28,-55 -56,-57 -90,-4 -61,94 -49,199 -38,302 3,29 25,50 59,47 39,-3 78,-4 127,-6zm-225 -2c0,-98 0,-187 0,-277 0,-32 69,-125 99,-135 46,-16 65,-9 90,33 11,19 21,38 33,60 41,-28 87,-45 109,-78 25,-38 15,-90 -3,-141 -133,23 -263,44 -395,67 0,22 5,45 -1,65 -42,132 -9,260 19,388 7,32 30,26 49,19zm4995 15585c-24,-84 -43,-154 -62,-223 -16,-59 -26,-65 -81,-41 -38,17 -73,41 -111,58 -69,30 -140,58 -211,83 -39,14 -79,24 -120,30 -39,6 -73,16 -105,55 231,49 455,14 690,38zm-3425 -8040c5,-158 9,-314 14,-473 -18,0 -33,0 -41,0 4,24 11,45 9,65 -10,131 -24,263 -33,394 -4,53 8,64 63,67 95,5 190,6 285,8 38,1 76,0 118,0 -3,-24 -4,-35 -6,-46 -35,-158 -113,-299 -180,-444 -35,-74 -37,-73 -115,-52 4,28 9,53 10,79 3,118 4,236 7,354 1,36 -9,65 -33,84 -35,-13 -65,-25 -98,-37zm-5293 -595c93,-2 177,-5 261,-7 20,0 39,1 59,4 61,10 121,26 182,29 295,18 585,85 881,90 19,0 38,10 58,12 78,8 157,16 235,23 143,14 287,14 430,19 176,7 342,-36 514,-52 -15,-9 -31,-18 -46,-18 -93,-4 -186,-9 -279,-7 -302,6 -603,8 -904,-19 -241,-21 -481,-47 -722,-70 -95,-9 -192,-10 -285,-31 -103,-24 -206,-23 -309,-33 -38,-4 -59,11 -75,61zm6144 7245c-29,-52 -64,-44 -91,-54 -39,-14 -86,-20 -115,-46 -41,-36 -80,-46 -125,-31 -72,-73 -72,-73 -171,-49 -14,3 -28,3 -42,5 -131,15 -262,30 -393,47 -47,6 -94,19 -141,-3 -8,-4 -22,-1 -31,2 -33,13 -64,29 -97,42 -37,15 -67,36 -81,86 428,0 849,0 1286,0zm198 1130c84,10 141,74 227,64 -60,-289 -18,-577 -54,-867 -70,10 -135,19 -201,28 0,37 -3,76 1,115 15,153 33,306 49,460 1,14 -3,28 -5,42 -6,52 -11,103 -17,159zm-2081 -15305c164,-12 325,-23 490,-35 -12,-116 -22,-220 -33,-332 -83,16 -129,-21 -167,-86 -28,-49 -63,-48 -106,-12 -17,14 -31,33 -41,52 -20,40 -50,57 -94,56 -19,-1 -39,0 -67,0 -13,120 5,234 18,357zm699 -53c2,-151 -5,-298 -34,-445 -6,-32 -26,-45 -60,-45 -73,1 -148,7 -219,-5 -171,-29 -341,-10 -514,1 -36,167 -19,331 12,494 9,47 39,46 68,40 0,-70 0,-135 0,-199 1,-65 -18,-131 -2,-194 56,0 102,0 145,0 14,-24 21,-43 34,-57 74,-84 139,-88 203,-7 56,71 117,84 203,38 -7,73 -13,135 -19,197 -6,67 -10,133 16,200 57,-6 109,-11 169,-16zm2316 5143c-53,9 -100,15 -147,25 -41,8 -63,39 -66,77 -4,61 -1,123 -1,183 106,32 203,19 300,-15 -84,82 -193,46 -299,65 5,83 9,163 14,251 209,-2 405,-30 589,-146 -43,-54 -87,-105 -125,-160 -23,-34 -46,-46 -84,-28 -12,6 -27,6 -41,8 -3,0 -7,-6 -17,-15 17,-10 33,-20 54,-33 -32,-38 -51,-84 -78,-88 -48,-8 -53,-41 -70,-71 -8,-15 -17,-29 -30,-52zm-1653 -5117c-42,-67 -43,-140 -42,-213 0,-100 0,-201 0,-310 -207,-39 -410,-29 -608,-25 18,180 35,351 51,515 120,18 230,34 340,52 86,14 172,22 259,-18zm1037 5260c-22,157 29,305 27,456 -1,33 1,66 1,99 0,28 -4,57 -1,84 9,67 19,134 33,199 6,27 23,53 37,82 117,-92 224,-176 339,-267 -62,-216 -67,-441 -58,-676 -131,33 -255,-23 -378,22zm-69 772c-42,-63 -81,-128 -125,-198 -32,39 -4,62 5,85 49,122 120,234 149,365 6,26 23,49 34,72 74,-8 141,-17 208,-21 63,-3 127,-1 191,-1 -310,33 -621,77 -932,16 153,4 306,22 458,-13 -3,-87 -21,-138 -72,-213 -164,8 -330,12 -493,-30 -18,47 3,86 18,124 47,124 96,246 143,370 27,70 33,74 110,68 11,-1 21,2 32,3 59,5 118,16 176,14 208,-10 416,-21 623,-38 259,-20 514,-68 765,-135 40,-11 80,-27 115,-48 60,-35 122,-46 190,-39 -12,11 -26,19 -41,21 -62,8 -121,22 -173,60 -15,11 -36,17 -54,22 -85,21 -170,40 -255,60 -308,75 -624,83 -938,103 -140,9 -281,12 -422,19 -18,1 -37,4 -61,6 8,29 13,50 20,71 22,63 29,70 98,70 56,0 112,-8 169,-11 24,-1 52,-2 71,8 42,23 85,28 130,26 211,-6 423,-10 634,-20 112,-5 225,-17 336,-36 175,-29 348,-65 522,-101 80,-17 157,-41 236,-60 16,-4 34,-3 51,-4 -73,34 -148,62 -224,78 -190,39 -380,76 -572,107 -125,20 -251,33 -377,41 -123,8 -247,5 -371,9 -172,5 -343,12 -515,19 -35,1 -71,6 -107,9 0,25 0,44 0,72 -24,-36 -42,-63 -64,-95 -140,15 -279,33 -419,45 -213,19 -424,46 -640,38 -205,-8 -410,9 -616,16 -138,4 -275,8 -413,15 -149,7 -297,16 -446,24 84,13 167,18 251,19 124,1 248,-1 372,-4 62,-2 123,-8 184,-14 67,-7 135,-28 200,-22 85,9 168,1 252,-1 152,-4 304,3 456,9 262,9 524,17 786,33 329,20 657,10 985,-17 151,-13 302,-12 454,0 111,9 225,2 334,-19 47,-9 90,-16 137,-10 25,3 51,6 76,4 173,-16 346,-34 520,-49 40,-4 80,-1 125,-1 -86,-104 -170,-207 -254,-307 -112,-134 -224,-267 -338,-400 -70,-81 -142,-160 -214,-239 -43,-48 -89,-94 -132,-141 -49,-54 -97,-109 -146,-163 -17,-19 -35,-37 -51,-56 -51,-61 -57,-64 -127,-28 -109,57 -226,85 -347,99 -57,6 -114,15 -172,23 10,67 12,66 48,116 11,16 13,41 13,62 0,18 -9,36 -15,61 80,3 150,-13 219,-36 66,-22 138,-18 200,-61 94,-66 143,-83 190,-78 -85,48 -170,98 -261,132 -81,31 -169,42 -254,65 -36,10 -71,26 -101,37 -27,-4 -56,-16 -73,-8 -55,27 -111,57 -159,96 -69,56 -131,122 -197,182 -9,8 -21,11 -37,19 -15,-56 42,-69 50,-115l-125 -178zm-2246 8419l1 1c18,-38 37,-77 55,-115 19,-16 -28,-38 15,-61 15,10 30,26 49,33 103,38 198,12 279,-52 55,-43 98,-100 144,-154 31,-36 23,-68 -21,-86 -26,-11 -55,-13 -81,-23 -17,-6 -31,-20 -46,-31 49,-3 93,-2 130,14 36,16 65,47 99,73 61,-24 -8,-84 34,-118 8,7 22,14 28,25 38,66 95,82 166,67 27,-6 56,-6 84,-10 131,-15 263,-25 392,-49 51,-9 92,-16 132,20 7,6 19,7 31,11 21,-60 39,-114 57,-166 -26,-22 -47,-41 -69,-58 -56,-42 -111,-79 -190,-79 -193,0 -380,36 -565,83 -32,8 -66,10 -99,15 4,-18 9,-25 16,-27 182,-46 364,-95 553,-107 110,-7 214,0 302,76 34,29 70,55 106,84 -50,54 -69,121 -73,193 65,30 123,74 187,82 76,9 115,73 176,98 28,-104 -2,-175 -87,-227 -38,-24 -68,-61 -101,-92 28,0 46,11 63,25 58,45 115,91 172,136 36,28 74,52 116,11 9,11 16,17 20,24 49,82 101,162 144,246 30,59 64,130 21,192 -33,47 -38,91 -38,142 0,110 -3,220 0,330 2,72 12,145 19,217 5,52 12,105 20,157 4,24 13,47 20,70 26,-16 45,-38 67,-40 73,-8 146,-12 219,-12 118,0 235,6 353,6 84,0 169,0 252,-9 134,-15 266,-44 400,-54 139,-10 273,-42 405,-78 187,-51 363,-136 535,-226 66,-34 103,-91 98,-172 -6,-101 -11,-203 -6,-304 14,-273 9,-544 -35,-814 -8,-47 -8,-96 -7,-143 3,-98 18,-197 11,-295 -6,-80 0,-157 16,-234 2,-11 4,-22 3,-34 -4,-320 -8,-640 -11,-960 -1,-51 0,-101 3,-152 9,-160 23,-320 29,-481 4,-100 -13,-199 -3,-300 12,-123 6,-247 11,-370 5,-112 26,-225 17,-336 -17,-209 23,-414 22,-622 0,-115 14,-230 15,-346 3,-242 2,-484 2,-726 0,-130 1,-259 -5,-389 -7,-152 -23,-303 -31,-455 -9,-178 -59,-343 -145,-498 -32,-58 -71,-112 -78,-181 -6,-60 -18,-120 -28,-186 -31,2 -59,4 -86,6 -90,8 -180,18 -270,23 -180,12 -360,17 -540,34 -210,20 -419,53 -631,49 -42,-1 -85,-3 -127,0 -137,12 -274,28 -412,40 -60,5 -123,25 -176,-27 -5,-5 -16,-4 -24,-5 -100,-14 -200,-35 -301,-42 -185,-13 -371,-19 -556,-27 -12,-1 -25,6 -43,10 31,74 60,141 86,209 27,71 63,140 75,214 11,70 78,122 65,203 -39,-14 -69,-31 -100,-34 -112,-9 -224,-14 -336,-17 -85,-3 -171,-1 -258,-1 -7,-17 -13,-33 -19,-48 -49,-144 -98,-288 -147,-431 -26,-77 -26,-78 -105,-80 -70,-2 -141,-5 -211,-2 -143,5 -286,14 -430,20 -135,6 -270,9 -405,15 -143,6 -286,19 -430,20 -149,1 -297,-7 -446,14 -187,26 -376,36 -564,50 -76,6 -152,6 -228,3 -275,-14 -551,-31 -826,-48 -79,-5 -157,-15 -235,-19 -35,-2 -77,-18 -101,23 -39,68 -113,110 -137,189 -3,9 -22,13 -33,19 3,-65 6,-123 10,-196 9,28 14,42 21,66 29,-40 55,-75 86,-117 -45,-5 -78,-9 -107,-12 -60,46 -55,118 -82,175 15,-81 15,-81 -38,-115 -8,14 -16,28 -30,54 2,-38 3,-61 4,-98 -87,92 -130,203 -231,266 68,-98 136,-195 205,-294 -93,-43 -384,-71 -481,-48 -19,64 -20,130 -16,198 2,34 -10,70 -19,104 -23,89 -55,176 -70,266 -14,85 -12,172 -13,259 0,30 14,59 19,89 5,32 14,68 6,98 -48,175 -43,351 -28,529 7,81 15,163 15,245 0,155 -9,309 -7,464 4,309 11,618 19,927 2,98 18,196 14,293 -7,197 -24,393 -35,590 -7,115 -10,230 -17,345 -2,39 -12,78 -12,118 -2,152 -3,304 -3,456 0,163 -1,325 5,488 6,199 22,399 27,598 3,101 -13,202 -13,304 0,146 6,293 11,439 7,208 15,415 24,623 2,56 8,111 13,164 98,21 189,39 279,60 81,20 164,30 241,71 68,35 148,54 224,65 161,24 324,38 486,57 75,9 150,23 225,31 168,18 336,32 504,51 145,16 290,36 435,53 14,2 28,1 42,1 107,-2 214,-7 319,22 24,7 50,5 75,8 70,9 139,18 209,27 53,7 106,18 159,23 143,14 286,28 429,36 55,3 112,-4 167,-11 146,-17 286,-69 439,-45 90,14 185,-9 278,-15 8,-1 22,-2 24,-6 14,-40 39,-17 62,-14 67,11 133,21 200,30 97,14 194,25 291,44 82,16 163,39 254,62 0,-120 0,-232 0,-343 17,58 21,116 21,173 0,43 9,81 42,131 7,-31 15,-48 14,-64 -4,-59 -13,-117 -15,-176 -2,-84 3,-169 3,-254 0,-101 -3,-203 -4,-304 0,-21 -3,-47 35,-46 0,90 1,179 0,269 -3,165 -25,330 10,494 11,51 15,104 23,154 189,59 371,107 563,66 44,-9 81,-4 122,16 31,15 69,17 108,26 4,-24 10,-41 8,-57 -10,-101 -21,-201 -32,-301 -1,-11 -2,-26 -9,-32 -32,-29 -26,-66 -27,-102 -2,-115 1,-230 -7,-345 -5,-75 -27,-149 -42,-223 -7,-35 -28,-44 -62,-40 -50,6 -101,10 -151,10 -124,-1 -247,-5 -371,-7 -154,-2 -309,-2 -463,-5 -104,-2 -207,-8 -311,-9 -15,0 -39,18 -42,31 -15,72 4,150 -38,218 50,39 -1,82 5,122 0,1 -7,3 -13,7 -2,-24 -3,-46 -6,-88 -21,103 -37,186 -54,269 -4,-111 2,-220 11,-330 3,-42 -4,-78 -35,-111 -14,57 -31,116 -22,171 19,115 -11,227 2,344 -67,-29 -68,-29 -57,-97 22,-131 11,-262 14,-395 -35,-4 -64,-2 -90,-11 -68,-24 -106,13 -142,59 -10,12 -21,23 -31,34zm-1536 -8530l-2 -1c-11,31 -22,63 -33,94 -11,29 -27,57 -32,86 -2,17 15,36 24,53 -12,5 -39,7 -46,20 -33,64 -61,130 -93,201 33,10 56,17 88,27 -107,13 -107,13 -125,90 14,2 27,6 40,5 59,-4 118,-10 177,-12 183,-8 366,-15 548,-23 251,-11 501,-18 752,-35 346,-23 691,-54 1037,-80 166,-12 332,-22 498,-29 36,-2 76,-2 109,22 -45,6 -89,3 -133,6 -239,15 -478,31 -716,47 -163,11 -326,22 -489,34 -138,10 -275,23 -413,30 -247,14 -495,25 -743,37 -141,7 -282,11 -422,17 -70,3 -140,9 -210,10 -42,1 -62,21 -83,56 -50,84 -62,181 -111,264 10,6 15,11 19,11 129,-13 259,5 386,-29 24,-6 50,-5 76,-7 101,-7 204,-4 302,-24 89,-19 178,-18 267,-24 185,-13 371,-22 556,-34 39,-3 78,-13 117,-15 160,-8 320,-14 481,-23 152,-8 303,-17 455,-30 261,-22 522,-47 783,-70 26,-2 51,-4 77,-5 1,7 1,13 2,20 -12,2 -24,5 -36,6 -174,18 -347,38 -521,52 -247,20 -494,35 -741,51 -67,4 -135,-3 -202,3 -185,16 -370,36 -554,54 -20,2 -39,-1 -59,0 -59,3 -118,7 -177,11 -56,4 -112,11 -168,14 -73,3 -146,0 -219,7 -109,10 -217,29 -326,42 -75,9 -150,17 -226,22 -95,7 -191,9 -287,17 -19,2 -42,13 -56,27 -23,24 -40,53 -68,91 53,6 94,12 135,14 171,8 343,15 514,21 186,7 369,-13 553,-38 95,-13 190,-17 286,-22 169,-10 337,-19 506,-29 56,-4 124,6 164,-22 49,-35 79,-18 119,-2 15,6 32,11 48,11 116,-2 231,-7 347,-8 146,-1 292,0 439,1 14,0 28,0 42,-1 146,-15 291,-29 437,-45 119,-13 238,-28 365,-43 -17,-38 -26,-75 -48,-102 -37,-44 -44,-99 -67,-148 -109,-230 -153,-482 -242,-718 -28,-73 -24,-76 -107,-72 -92,4 -185,13 -277,18 -155,8 -310,10 -464,22 -264,20 -528,45 -793,43 -121,-1 -242,-4 -363,-4 -113,0 -225,2 -338,3 -121,1 -242,1 -363,3 -63,1 -125,6 -188,10 9,-17 20,-23 32,-24 59,-5 118,-11 177,-11 163,0 327,5 490,5 217,-1 434,-4 651,-9 163,-4 327,-10 490,-18 225,-12 450,-27 675,-41 25,-2 50,-7 75,-9 44,-4 88,-7 133,-9 38,-1 76,0 125,0 -12,-29 -19,-44 -24,-59 -31,-90 -62,-181 -92,-272 -11,-35 -20,-70 -31,-108 5,-1 19,-4 32,-8 -3,-28 -5,-53 -8,-81 16,10 27,16 51,30 -11,-26 -15,-52 -23,-53 -61,-8 -50,-54 -53,-93 -1,-16 -4,-32 -6,-46 -32,-14 -60,-26 -88,-38 1,-6 3,-11 4,-17 22,-4 45,-8 71,-12 -10,-64 -9,-127 -29,-180 -20,-51 -62,-92 -95,-138 61,-40 65,-49 36,-117 -17,-41 -25,-81 -4,-122l-2 2c9,5 24,8 25,14 15,83 27,166 41,249 4,24 6,52 19,71 33,47 44,100 40,153 -3,46 14,74 43,91 -34,89 20,149 40,202 144,55 267,6 392,-36 -38,66 -103,80 -165,89 -64,10 -130,2 -193,2 -12,33 -19,70 -38,100 -23,35 -25,67 -12,104 34,94 37,201 119,275 4,3 4,10 6,15 27,90 54,181 80,269 170,47 332,49 508,32 -38,-87 -70,-161 -103,-236 -148,-8 -294,53 -430,-25 67,1 134,15 201,17 70,2 139,-8 223,-14 -16,-36 -23,-64 -39,-85 -61,-81 -81,-171 -75,-270 3,-61 7,-124 -4,-184 -11,-61 -3,-110 41,-153 -3,22 -5,43 -8,66 69,10 120,-10 160,-60 30,-39 68,-64 117,-78 34,-10 76,-20 91,-69 -60,-11 -118,-21 -175,-32 -30,-6 -45,14 -62,34 -32,39 -66,76 -100,113 39,-74 82,-145 143,-197 29,8 50,16 72,19 42,6 84,12 126,12 24,0 50,-9 71,-20 92,-48 160,-33 217,52 26,39 49,81 73,120 67,-6 130,-11 197,-17 -13,-14 -20,-22 -31,-35 59,-36 42,-84 18,-130 -27,-52 -57,-103 -82,-149 -32,-9 -58,33 -83,-9 21,-18 41,-36 62,-55 -30,-97 -43,-198 -144,-256 21,-18 41,-36 63,-56 -19,-69 -37,-137 -54,-201 -37,-3 -65,-4 -93,-6 -1,-5 -1,-11 -2,-16 22,-15 44,-29 64,-44 -14,-50 -23,-98 -40,-142 -14,-38 -25,-83 -85,-76 -12,2 -26,-16 -50,-31 29,-12 48,-19 76,-30 -39,-74 -41,-165 -148,-194 24,-19 40,-32 62,-49 -24,-58 -48,-114 -70,-172 -12,-31 -32,-35 -60,-28 -5,1 -12,-8 -22,-16 18,-20 34,-38 49,-55 -13,-36 -26,-67 -37,-99 -16,-49 -39,-87 -98,-88 -5,0 -10,-12 -17,-22 25,-8 47,-15 71,-23 -11,-87 -53,-152 -99,-218 -30,0 -59,0 -87,0 -1,-4 -2,-8 -3,-12 24,-17 48,-33 81,-56 -18,-50 -36,-101 -54,-149 -30,0 -49,0 -87,0 36,-32 58,-52 87,-77 -20,-65 -40,-134 -59,-196 -33,-4 -54,-6 -88,-10 73,-83 34,-152 -1,-220 -23,-8 -45,-15 -89,-31 39,-23 61,-36 85,-50 -49,-87 -23,-197 -128,-240 47,-82 16,-161 -94,-232 67,-16 42,-57 31,-93 -10,-32 -27,-62 -34,-95 -9,-41 -26,-68 -71,-68 -5,0 -10,-11 -19,-21 21,-16 39,-30 61,-47 -40,-65 4,-167 -105,-196 36,-63 37,-117 -5,-174 -19,-25 -21,-63 -31,-94 -3,-8 -6,-15 -7,-18 -26,-12 -47,-22 -76,-36 26,-22 44,-38 63,-54 -25,-76 -30,-160 -125,-184 47,-52 46,-52 17,-116 -15,-33 -26,-68 -38,-103 -18,-52 -36,-105 -55,-161 -32,2 -57,3 -82,4 -51,2 -102,8 -152,4 -83,-7 -166,-26 -249,-32 -66,-5 -136,-8 -200,6 -153,34 -307,37 -462,39 -132,2 -263,0 -405,0 -19,71 -40,152 -63,233 -11,40 -47,88 -34,117 26,63 -23,97 -31,145 -10,54 -18,109 -26,160 29,14 47,23 83,40 -76,16 -89,62 -97,110 -12,77 -23,155 -32,233 -7,66 -12,133 -17,199 25,15 46,28 78,47 -38,5 -62,8 -91,12 -17,89 -28,176 -53,259 -15,51 -22,94 20,132 -20,15 -43,24 -49,38 -33,86 -67,173 -56,269 2,13 -8,29 -14,43 -51,104 -74,215 -86,328 25,13 45,22 73,37 -55,25 -80,67 -90,116 -19,99 -34,198 -51,296 22,10 38,16 66,29 -78,32 -92,94 -93,151 -1,85 -55,162 -34,248 -37,23 -9,59 -18,88 -25,86 -53,172 -74,259 -9,37 -1,77 -1,110 -17,35 -35,68 -50,102 -6,15 -2,36 -11,48 -13,19 -41,31 -48,52 -5,15 21,39 19,57 -4,36 -14,72 -29,105 -21,46 -15,85 17,118 -65,94 -110,266 -101,370 1,10 -2,21 -5,31 -20,81 -45,162 -60,244 -5,28 12,60 20,95 -63,28 -37,95 -58,154 61,0 114,2 167,-1 110,-6 220,-24 328,-18 109,7 216,23 322,-17 8,-3 17,-3 25,-3 86,-4 172,-6 258,-13 139,-11 277,-26 416,-39 148,-14 298,20 444,-20 15,-4 34,1 50,6 82,28 175,-1 255,45 14,8 39,-3 58,-3 53,1 106,3 159,5 1,8 1,15 2,23 -26,5 -51,13 -77,15 -126,10 -249,-29 -374,-32 -45,-1 -89,-9 -133,7 -15,6 -33,10 -49,9 -202,-10 -403,9 -603,28 -173,16 -347,9 -518,49 -18,4 -39,-2 -59,-2 -24,0 -49,2 -73,2 -22,0 -44,0 -66,-2 -33,-3 -66,-11 -100,-11 -65,0 -130,4 -194,8 -78,4 -155,10 -234,15 -13,35 36,81 -23,105 -21,-14 -44,-29 -70,-47 15,-88 72,-165 69,-256 -31,0 -56,0 -104,0 83,-68 59,-181 153,-223 7,-3 8,-20 11,-31 7,-30 14,-59 20,-87 -25,-23 -47,-44 -70,-64 86,-84 129,-190 138,-340 -29,-13 -59,-26 -98,-44 93,-71 116,-174 146,-274 16,-51 36,-101 54,-153 -9,-6 -23,-14 -41,-24 98,-125 135,-269 169,-426 -16,-9 -38,-21 -64,-35 76,-84 109,-167 115,-264 3,-46 10,-90 -47,-122 61,-24 71,-66 78,-115 14,-103 33,-205 50,-307 -20,-5 -39,-11 -65,-18 48,-124 93,-241 139,-360 -14,-8 -34,-19 -56,-31 95,-83 96,-199 142,-296 -26,-14 -43,-24 -61,-34 22,-46 46,-84 60,-126 40,-115 31,-239 62,-356 10,-38 14,-77 22,-116 24,-115 48,-230 71,-342 -23,-13 -37,-22 -60,-35 63,-38 51,-99 59,-154 7,-51 51,-102 -7,-153 57,-49 65,-113 79,-177 17,-75 45,-148 69,-223 -7,-1 -15,-3 -23,-2 -104,21 -208,44 -312,63 -32,6 -46,22 -62,48 -26,42 -10,86 -19,128 -14,60 -33,119 -54,177 -18,49 -28,96 6,140 -20,28 -38,50 -53,74 -7,11 -13,24 -15,37 -11,74 -34,150 -27,223 9,91 -57,139 -87,207 -19,43 -33,89 -49,134 -3,7 -4,15 -6,23 15,8 29,16 47,26 -67,151 -134,299 -201,450 21,9 42,19 66,30 -53,94 -104,183 -154,273 23,20 39,34 54,48 -58,87 -120,166 -148,261 25,26 45,46 66,68 -66,78 -126,149 -142,245 19,15 35,27 61,48 -33,3 -52,4 -61,5 -9,31 -13,59 -25,84 -24,51 -54,99 -77,150 -29,64 -26,65 20,107 -20,26 -41,50 -58,77 -21,33 -39,69 -56,104 -9,19 -22,42 -17,59 4,14 30,22 50,36 -42,15 -79,28 -114,41 5,-58 -10,-127 56,-173 12,-8 13,-30 19,-46 19,-49 27,-98 31,-152 4,-48 50,-92 71,-141 53,-122 65,-258 122,-380 14,-30 7,-70 9,-106 1,-14 0,-28 5,-41 25,-71 53,-141 76,-213 25,-77 53,-155 68,-234 23,-113 53,-224 94,-332 13,-34 24,-69 32,-105 3,-13 -3,-28 -5,-50 -41,23 -51,53 -61,86 -12,43 -25,86 -43,127 -31,69 -67,136 -101,204 -33,64 -73,127 -9,204 -70,10 -77,67 -108,104 -41,49 -16,93 0,138 -23,15 -50,24 -59,42 -53,103 -123,200 -117,325 0,7 -7,15 -11,22 -28,52 -54,104 -84,155 -18,31 -26,60 -3,79 -25,33 -49,59 -64,88 -25,49 -45,102 -70,158 0,0 5,7 9,14 4,7 7,13 5,10 -96,118 -139,248 -167,397 -32,47 -73,103 -110,162 -21,33 -48,69 -50,105 -3,47 -22,80 -46,114 -56,81 -96,168 -94,270 0,12 -10,25 -17,36 -40,58 -82,114 -119,173 -20,32 -47,69 -45,103 3,52 -47,61 -61,99 -33,89 -80,173 -121,260 -2,4 -1,11 -1,16 11,5 23,11 43,20 -37,38 -70,72 -116,120 56,-12 91,-19 126,-29 35,-10 70,-23 105,-33 33,-9 67,-21 100,17 -124,29 -241,56 -375,88 -36,39 -86,94 -150,164 177,-11 333,-24 502,-1 -23,13 -34,25 -45,25 -73,-4 -145,-13 -218,-14 -45,-1 -90,12 -135,12 -47,-1 -85,39 -133,23 -75,63 -152,124 -191,218l2 -3c-76,47 -135,109 -191,187 65,0 115,0 166,0 54,0 107,0 161,-2 104,-4 104,-4 144,18 -22,0 -35,0 -49,0 -121,4 -242,12 -363,9 -100,-2 -152,53 -204,142 206,-1 400,7 594,-32 11,39 -9,42 -45,43 -172,2 -344,6 -515,12 -95,3 -164,66 -191,167 134,1 268,-23 401,13 -39,7 -78,6 -117,7 -112,4 -225,8 -337,15 -17,1 -36,14 -48,28 -33,38 -63,78 -103,129 159,12 306,24 453,36 -19,12 -37,14 -56,13 -115,-6 -231,-15 -346,-18 -32,-1 -73,0 -96,19 -45,36 -80,84 -126,135 33,3 62,7 92,8 116,3 231,4 347,8 22,1 44,8 66,12 -155,5 -306,5 -458,5 -84,0 -124,27 -158,113 45,4 88,7 132,11 0,6 -1,11 -1,17 -32,-1 -64,0 -95,-5 -93,-15 -145,37 -192,114 103,10 197,18 292,27 81,8 162,17 243,22 21,1 48,-2 63,-15 75,-63 147,-129 219,-195 28,-26 48,-62 99,-61 -14,61 -88,84 -82,159 353,-18 697,60 1044,110 -52,6 -104,7 -155,1 -140,-18 -278,-45 -418,-59 -157,-16 -315,-15 -472,-32 -87,-9 -125,39 -179,108 154,15 292,29 431,41 154,13 308,27 463,35 177,9 354,11 532,17 83,2 136,-36 173,-110 43,-86 95,-166 139,-251 41,-79 75,-161 116,-251 -222,-20 -429,-36 -635,-57 -208,-22 -415,-48 -622,-73 212,-19 419,30 628,52 212,22 425,41 638,49 35,-76 67,-146 105,-228 -385,-45 -756,-89 -1126,-132 27,-13 52,-16 77,-13 252,29 503,60 755,89 100,11 198,38 286,27 45,-75 84,-138 123,-202zm1150 -6655l-2 -1c20,50 70,21 102,41 -9,28 -19,56 -30,89 99,0 191,1 284,0 93,-1 185,-6 278,-6 45,0 90,8 135,8 67,0 135,0 202,-6 50,-4 98,-24 148,-25 143,-5 286,-12 428,15 26,5 56,-1 82,-9 52,-18 103,-27 154,1 7,4 18,1 40,1 -56,-88 -102,-167 -154,-243 -108,-158 -219,-313 -329,-469 -40,-56 -76,-117 -138,-136 5,-30 15,-53 10,-71 -14,-48 -38,-92 -54,-139 -22,-64 -37,-130 -61,-193 -11,-29 -35,-52 -56,-82 2,-10 13,-33 6,-45 -40,-65 -29,-158 -110,-197 23,-95 -15,-229 -82,-302 10,-100 -9,-185 -90,-253 31,-30 22,-62 6,-96 -12,-25 -20,-52 -28,-79 -34,-128 -66,-256 -100,-383 -2,-8 -8,-14 -13,-23 -25,0 -49,0 -77,0 -45,142 -77,283 -85,430 -2,44 -1,104 -27,127 -37,33 -42,70 -53,108 -37,132 -75,265 -109,398 -32,125 -59,251 -89,377 -14,60 -24,121 -45,179 -47,126 -99,250 -149,375 -15,7 -45,11 -54,27 -55,95 -109,190 -157,289 -70,146 -115,305 -220,434 -14,18 -21,41 -32,62 4,3 7,6 11,9 37,-23 74,-46 112,-69 2,3 3,5 5,8 -14,20 -28,41 -45,67 37,-10 65,-27 90,-22 106,19 197,-40 296,-53 44,-6 61,-32 56,-79 -31,-4 -59,-8 -101,-14 20,-22 32,-35 44,-48zm5051 7836c-66,-7 -132,-13 -200,-20 -24,99 0,181 47,261 94,161 144,333 149,521 3,146 27,292 29,437 3,211 -6,422 -7,633 0,121 10,241 8,362 -3,191 -11,382 -17,573 -4,126 -15,253 -12,379 3,99 2,196 -11,293 -3,19 0,39 4,58 17,84 4,167 -4,250 -10,97 -9,195 -9,293 1,208 -13,416 -29,624 -7,92 -5,186 -5,278 0,101 3,202 5,304 2,125 7,250 4,375 -2,121 -15,241 -18,361 -6,213 -35,427 -7,639 27,210 29,420 27,631 -1,154 -1,309 2,463 1,40 14,81 23,129 151,-21 292,-41 434,-60 45,-6 89,-10 134,-15 98,-11 195,-22 293,-33 19,-2 39,-7 58,-6 29,2 47,18 42,55 -95,13 -191,38 -286,37 -137,-2 -269,26 -403,41 -50,6 -101,10 -151,12 -124,7 -228,67 -337,118 -196,91 -392,179 -607,227 -191,43 -386,40 -575,79 -153,32 -308,5 -460,33 -21,4 -44,-5 -67,-5 -87,-1 -173,-2 -260,-1 -38,1 -76,7 -131,12 31,9 52,9 59,19 46,68 113,63 181,55 5,-1 12,0 17,2 113,41 232,20 348,32 28,3 56,-3 84,-5 25,-2 51,-5 76,-4 101,4 203,6 303,16 107,10 204,-22 298,-66 15,-7 30,-20 45,-21 130,-10 234,-94 356,-125 29,-7 54,-29 82,-43 59,-28 112,-55 179,-2 38,30 100,35 152,43 47,7 95,2 143,5 120,9 241,20 361,30 22,2 46,6 67,3 157,-29 308,17 462,32 84,8 168,10 252,13 53,2 107,1 160,-1 126,-5 252,-14 379,-17 40,-1 80,14 120,21 0,6 0,12 1,18 -14,3 -27,9 -41,9 -101,3 -202,5 -304,5 -56,0 -111,-7 -163,27 -21,14 -54,11 -81,11 -45,1 -91,-7 -135,-2 -91,11 -180,0 -269,-18 -130,-27 -259,-45 -394,-36 -103,7 -207,-14 -311,-22 -62,-5 -124,-9 -185,-14 -66,-6 -131,-13 -203,-21 13,51 25,108 45,161 7,17 38,34 60,36 112,10 225,15 337,22 37,2 74,-1 110,7 162,36 325,29 489,23 107,-4 214,2 321,-1 101,-3 205,0 303,-21 114,-25 223,-21 336,-7 59,8 118,11 176,18 41,5 86,5 106,61 -78,-4 -153,-2 -227,-13 -141,-21 -279,-23 -420,6 -77,15 -157,19 -235,21 -214,5 -428,7 -642,9l-7 0c-40,0 -80,-6 -119,-12 -201,-31 -402,-46 -606,-42 -146,4 -293,-2 -439,-10 -112,-6 -224,-22 -336,-33 -28,-3 -56,-1 -84,-2 -146,-5 -293,-12 -439,-14 -104,-1 -207,5 -311,8 -8,0 -18,5 -25,2 -132,-56 -290,6 -413,-89 -137,-30 -260,-107 -404,-117 -41,-3 -84,-14 -122,-31 -42,-19 -84,-22 -123,-5 -88,38 -177,24 -265,14 -58,-7 -114,-28 -175,-15 -23,5 -52,-4 -73,-15 -198,-108 -420,-139 -634,-193 -75,-19 -156,-17 -234,-17 -152,0 -303,4 -455,10 -78,3 -157,10 -234,25 -278,55 -554,32 -831,-12 -205,-33 -411,-66 -621,-71 -154,-3 -307,-32 -461,-49 -53,-6 -106,-11 -159,-17 -75,-9 -151,-18 -226,-28 -111,-15 -223,-30 -334,-45 -254,-35 -508,-66 -761,-107 -144,-23 -285,-63 -427,-96 -30,-7 -60,-14 -90,-21 -12,19 -22,35 -31,50 -8,-4 -16,-6 -16,-9 -6,-43 -31,-61 -74,-66 -42,-5 -82,-21 -123,-29 -58,-12 -115,-22 -173,-33 -36,-7 -72,-12 -108,-18 -16,-3 -32,-12 -48,-13 -123,-10 -247,-13 -368,-30 -94,-13 -190,-27 -274,-79 -20,-13 -39,-28 -58,-42 2,-5 5,-10 7,-15 14,2 29,2 42,5 86,24 172,53 259,72 51,11 106,8 159,12 84,5 169,5 252,17 128,18 254,44 381,66 33,6 65,11 109,19 0,-67 1,-125 0,-184 -6,-228 -14,-456 -21,-684 -4,-110 -11,-219 -12,-329 -1,-70 13,-141 11,-211 -7,-248 -19,-495 -25,-743 -4,-155 -3,-310 -3,-465 0,-118 1,-237 4,-355 1,-48 7,-95 9,-143 8,-163 14,-327 23,-490 8,-146 22,-292 25,-439 2,-121 -9,-242 -12,-363 -7,-262 -15,-523 -18,-785 -2,-194 5,-389 4,-583 -1,-113 -12,-225 -17,-338 -3,-56 -3,-113 -4,-169 -1,-143 -6,-287 -2,-430 4,-148 -1,-298 42,-443 24,-80 53,-159 72,-241 8,-33 -1,-71 -8,-106 -9,-47 -48,-48 -87,-48 -14,0 -28,-5 -41,-10 -30,-14 -59,-30 -94,-48 38,-34 75,-61 105,-96 53,-60 101,-125 152,-188 5,-6 15,-7 21,-12 39,-32 82,-60 115,-97 65,-72 123,-152 188,-224 64,-71 134,-137 201,-205 28,-28 55,-56 82,-85 55,-59 110,-118 164,-178 35,-38 67,-78 103,-116 221,-233 439,-469 658,-705 -17,-31 -30,-55 -45,-83 11,-14 20,-33 35,-45 74,-59 109,-141 143,-225 16,-40 27,-73 -7,-103 5,-10 7,-18 11,-19 64,-16 93,-64 116,-120 17,-41 40,-81 61,-121 5,-10 17,-22 14,-30 -22,-67 34,-99 61,-144 30,-51 58,-103 79,-158 8,-21 -5,-51 -8,-82 92,-59 116,-170 174,-259 13,-20 2,-57 2,-89 69,-100 133,-207 157,-334 5,-29 29,-54 43,-81 19,-37 41,-74 55,-113 8,-23 1,-52 1,-89 60,-51 95,-130 127,-211 6,-16 11,-40 3,-54 -18,-34 -4,-58 12,-86 44,-72 89,-143 130,-218 11,-21 6,-50 8,-70 39,-70 77,-137 112,-206 5,-9 -3,-26 -7,-39 -3,-10 -9,-19 -6,-14 39,-76 74,-140 106,-204 23,-45 46,-91 63,-138 25,-68 55,-137 65,-208 9,-68 42,-125 63,-188 25,-72 55,-142 79,-214 9,-26 6,-56 9,-94 11,-21 32,-51 43,-84 48,-132 93,-265 139,-398 5,-13 15,-29 11,-40 -30,-87 35,-147 61,-217 11,-29 23,-57 37,-90 -35,-9 -66,-16 -107,-26 24,-38 39,-70 61,-98 59,-75 70,-155 57,-249 -12,-88 -1,-179 -1,-269 0,-19 0,-38 0,-61 -38,-11 -76,-31 -111,-28 -36,3 -70,30 -108,48 -17,-36 4,-55 21,-69 100,-83 157,-196 210,-310 87,-186 156,-383 278,-549 80,-109 116,-234 173,-351 61,-126 70,-266 106,-399 40,-147 81,-293 118,-440 40,-161 78,-323 114,-485 20,-87 33,-176 52,-263 6,-26 25,-50 39,-76 -30,-55 -35,-109 15,-160 11,-12 12,-36 13,-55 6,-121 7,-242 17,-362 11,-138 3,-275 0,-413 0,-14 1,-28 4,-42 1,-3 8,-5 16,-10 43,42 31,95 25,158 99,-8 191,-16 283,-24 4,6 7,12 11,18 -20,21 -41,41 -58,64 -28,38 -58,76 -79,118 -27,53 -32,57 -91,26 -76,25 -75,93 -78,153 -5,115 -1,231 -1,339 27,24 51,37 64,58 14,22 33,56 26,76 -36,103 1,200 26,295 42,163 108,321 145,485 27,118 77,226 106,343 28,115 85,223 121,337 44,139 116,266 151,409 12,50 46,96 75,140 89,133 178,266 272,396 89,123 182,241 275,361 31,41 21,110 -22,138 -33,21 -63,46 -98,64 -20,10 -46,9 -71,13 0,72 -3,145 1,218 4,70 15,139 24,211 57,21 110,41 176,66 -30,38 -53,68 -77,97 0,43 -3,87 1,130 3,29 17,58 28,86 15,39 34,76 47,115 25,71 49,143 72,216 11,34 24,69 28,104 6,54 25,100 49,150 36,78 55,164 76,248 30,116 35,236 81,350 50,127 85,260 127,390 18,56 44,109 61,165 11,37 10,78 21,115 17,56 42,110 61,166 10,29 15,60 24,89 7,24 10,53 25,70 23,25 21,49 20,78 -1,30 -3,63 7,91 37,100 81,198 117,299 24,65 35,136 60,201 39,102 87,200 128,301 15,38 21,80 32,120 11,40 19,82 34,121 40,102 84,202 124,304 31,80 61,161 85,243 14,48 15,99 25,148 11,52 23,104 41,154 21,58 52,112 73,170 31,85 73,163 127,237 34,47 55,104 87,153 89,135 165,279 279,397 41,42 85,82 125,125 46,49 89,102 133,152 41,46 83,92 124,139 100,115 198,230 298,344 39,45 79,88 118,132 125,141 249,284 376,424 32,35 69,66 105,97 40,34 59,73 35,130z"/>
  <path class="fil1" d="M7766 19433c-12,-72 -20,-146 30,-210 5,-7 11,-13 18,-18 4,-3 10,-1 26,-2l-74 230z"/>
  <path class="fil1" d="M7889 20000c-5,2 -9,5 -14,7 -12,-15 -31,-29 -36,-46 -14,-45 -31,-93 -30,-139l79 178z"/>
  <path class="fil1" d="M6336 21239c12,101 22,180 34,279 47,-63 28,-117 36,-165 9,-51 13,-102 35,-152 0,127 0,255 0,386 -39,0 -72,0 -105,0 -45,-140 -45,-178 -1,-348z"/>
  <path class="fil1" d="M6554 21206c9,103 19,206 28,314 -53,-28 -57,-36 -55,-152 1,-54 9,-109 14,-163 4,0 8,1 12,1z"/>
  <path class="fil0" d="M2420 19657c83,-25 299,-35 361,-9 -20,1 -41,1 -61,3 -67,4 -135,11 -202,13 -32,1 -64,-6 -96,-9 0,0 -2,3 -2,3z"/>
  <path class="fil1" d="M5818 10519c24,30 9,57 -16,71 -16,9 -45,9 -63,1 -36,-16 -29,-48 -19,-83l97 11z"/>
  <path class="fil1" d="M6280 21096c-3,57 -5,115 -8,182 15,-16 22,-24 35,-38 -6,66 -12,123 -17,181 -21,-109 -63,-216 -10,-324z"/>
  <path class="fil1" d="M6862 14060c-1,6 -1,12 -2,19l2 -19z"/>
  <path class="fil1" d="M5199 14065c55,-11 104,-21 154,-31l-154 31z"/>
  <path class="fil1" d="M6388 21383c-15,-89 -30,-177 -8,-262 7,0 14,0 21,1 -5,87 -9,174 -14,262z"/>
  <path class="fil1" d="M4500 18133c4,74 -8,115 -48,159 -6,-2 -11,-5 -17,-7l64 -152z"/>
  <path class="fil1" d="M6218 21094c0,42 0,79 0,120 -41,-62 -42,-77 0,-120z"/>
  <path class="fil1" d="M4329 18928c6,1 13,2 20,2 -7,26 -14,53 -21,79l1 -82z"/>
  <path class="fil1" d="M5949 28395c-5,-1 -10,-1 -15,-2 4,-30 7,-59 11,-89l4 91z"/>
  <path class="fil1" d="M4991 15773c12,31 16,57 -32,56 13,-22 22,-39 32,-56z"/>
  <path class="fil1" d="M4781 21035c15,0 31,0 46,0 0,2 0,3 0,5l-46 -5z"/>
  <path class="fil1" d="M4821 16531c-6,-2 -12,-4 -17,-6 5,-15 10,-30 15,-46 6,1 13,3 19,4l-16 48z"/>
  <path class="fil1" d="M4383 15968c4,1 8,1 11,2 -1,10 1,21 -2,29 -4,9 -12,17 -18,25l9 -56z"/>
  <path class="fil0" d="M6479 24790c5,5 10,10 14,15 19,-15 38,-30 57,-45 -4,-5 -9,-11 -13,-16 -19,16 -39,31 -58,47zm633 -100c49,31 87,29 131,-2 -3,-21 -7,-44 -10,-65 -42,0 -75,0 -111,0 -4,24 -7,45 -11,67zm0 44c3,120 6,236 9,352 1,32 21,44 50,43 34,-2 73,28 101,-12 7,-10 4,-27 6,-41 2,-28 6,-55 6,-83 0,-58 4,-118 -4,-175 -11,-80 -15,-79 -95,-78 -24,0 -49,-4 -73,-7zm-38 404c-119,0 -230,-1 -342,0 -110,1 -220,5 -344,8 12,50 22,91 30,128 235,-8 459,-4 690,-33 -13,-37 -22,-66 -35,-104zm-219 -241c-30,-5 -52,-8 -74,-12 -82,-15 -160,9 -240,20 -89,13 -89,10 -91,99 0,17 -9,33 -8,49 2,23 11,45 15,61 144,-6 276,-12 416,-18 -7,-73 -12,-136 -18,-200zm-5 -56c0,-59 0,-118 0,-177 3,0 7,0 10,0 9,140 18,279 28,424 60,22 125,21 194,3 0,-154 0,-304 0,-448 -45,-9 -77,-17 -110,-21 -33,-5 -67,-12 -99,-7 -91,15 -181,36 -273,54 -15,95 -15,95 21,171 70,0 142,0 228,0zm374 -367c-130,8 -253,16 -379,23 43,89 123,91 202,95 22,1 44,-4 65,0 92,19 118,2 133,-94 1,-7 6,-14 19,-40 4,38 11,59 7,78 -14,73 -6,140 22,211 31,78 36,164 16,250 -14,61 -8,71 43,119 -50,68 -124,64 -201,61 -15,63 17,153 -91,166 2,-16 4,-32 8,-56 -123,-19 -244,12 -365,10 -122,-3 -244,7 -371,-2 13,-8 27,-17 44,-28 -7,-19 -14,-39 -22,-63 -26,10 -46,23 -67,24 -27,2 -54,-4 -81,-10 -26,-7 -51,-18 -85,-31 73,-150 76,-315 72,-481 14,145 27,290 -25,427 82,94 92,93 244,-26 -6,-155 -12,-315 -18,-482 163,6 317,19 468,-45 -29,-33 -48,-66 -77,-86 -31,-21 -69,-40 -105,-42 -76,-3 -152,5 -227,10 -88,6 -177,14 -267,10 21,-5 41,-12 62,-14 123,-13 246,-28 370,-36 52,-3 108,0 157,15l449 38z"/>
  <path class="fil0" d="M6416 23834c0,-5 -1,-11 -1,-16 -13,3 -27,5 -40,8 1,3 1,6 2,8 13,0 27,0 40,0zm915 -18c-1,-7 -1,-14 -2,-21 -14,4 -29,8 -43,12 1,5 2,9 3,14 14,-2 28,-4 42,-6zm-75 28c-13,-23 -15,-31 -18,-31 -169,-22 -339,11 -509,-11 -52,-6 -107,18 -161,29 113,9 224,2 336,-4 17,-1 33,1 50,2 97,5 195,10 303,16zm-8 -793c22,-4 45,-8 72,-13 1,-17 2,-36 4,-60 -311,-11 -615,32 -922,37 -3,50 -7,99 -11,155 48,3 92,10 136,8 151,-5 303,-14 454,-20 64,-3 129,-4 193,-4 23,0 47,8 68,25 -30,1 -61,3 -101,4 0,32 -1,64 0,95 2,38 15,78 -23,108l0 0c30,-67 -11,-130 -2,-192 -99,-35 -551,-15 -669,28 -8,90 -17,182 -25,274 -5,56 -9,112 -15,168 -3,36 1,70 31,91 18,13 43,15 74,24 19,-98 13,-188 14,-276 1,-88 -30,-177 17,-264 0,180 0,359 0,551 193,-50 381,-7 572,-41 6,-57 13,-117 19,-176 3,0 7,1 10,1 -1,25 0,49 -4,73 -17,99 -2,113 109,95 36,-114 19,-235 20,-354 5,30 14,60 15,90 2,84 1,168 1,259 34,0 63,0 93,0 9,41 17,75 27,119 -56,7 -114,21 -172,21 -191,2 -382,-1 -574,-3 -73,-1 -146,-4 -218,-7 -43,-2 -84,-2 -104,49 -59,-94 -41,-152 48,-170 21,-172 38,-344 37,-527 -25,7 -42,12 -59,17 -11,-44 -23,-87 -31,-131 -15,-80 22,-123 103,-128 210,-12 421,-26 631,-35 98,-4 196,-1 292,-1 32,97 32,188 17,286 -32,-5 -58,-9 -83,-12 -8,50 -15,97 -22,144 -3,-39 -6,-78 -8,-117 -3,-54 6,-62 62,-53 8,1 16,2 33,4 -3,-40 -5,-78 -8,-114l-103 -30z"/>
  <path class="fil0" d="M9928 24782c-7,1 -14,2 -21,3 -33,186 -60,373 -10,563 41,-5 59,-17 62,-54 13,-156 15,-312 -12,-467 -3,-16 -13,-30 -20,-45zm16 -133c17,26 30,47 47,74 -43,40 -17,84 2,130 9,22 20,46 19,69 -7,150 -18,300 -28,449 -36,8 -77,18 -122,29 -21,-126 -23,-247 -10,-370 3,-30 7,-62 2,-92 -14,-74 7,-143 24,-213 10,-41 14,-40 66,-77z"/>
  <path class="fil0" d="M9736 24899c18,6 33,11 44,15 -10,97 -20,193 -32,307 -3,-77 -9,-138 -7,-198 2,-56 4,-109 -75,-128 68,-41 95,-94 111,-154 18,-68 33,-137 52,-204 22,-77 40,-88 120,-85 19,1 38,3 60,6 24,122 -4,250 72,365 -53,-36 -53,-36 -71,-151 -9,-58 -15,-116 -22,-173 -104,-26 -121,-19 -147,78 -19,70 -25,143 -45,213 -10,36 -37,68 -61,110z"/>
  <path class="fil0" d="M1481 25250c-37,-50 7,-104 2,-155 -5,-56 -1,-113 -4,-169 -3,-56 -11,-112 -13,-168 -2,-55 -1,-110 -15,-172 -26,42 -53,84 -79,126 -3,-58 20,-105 52,-148 16,-22 35,-39 64,-24 31,16 41,41 34,77 -13,60 -23,121 -28,182 -4,50 2,101 5,152 5,84 11,167 15,251 1,15 -7,31 -10,46 -8,1 -15,1 -23,2z"/>
  <path class="fil0" d="M1366 24238c-6,52 -14,104 -19,156 -4,38 -23,47 -53,40 15,-72 30,-143 46,-216 109,-41 157,-21 201,84 19,47 46,90 64,137 17,43 27,89 39,133 -26,19 -60,19 -57,-6 12,-88 -51,-146 -74,-219 -2,-8 -8,-15 -10,-23 -16,-70 -65,-91 -137,-86z"/>
  <path class="fil0" d="M1597 24701c3,-3 15,-16 35,-38 -34,-5 -58,-8 -91,-13 33,-48 67,-43 114,-24 -6,57 -11,115 -18,172 -13,107 -8,213 29,316 14,40 29,81 5,122 -6,11 -17,19 -31,27 30,-69 2,-131 -8,-196 -14,-91 -12,-184 -18,-275 -2,-27 -9,-54 -15,-91z"/>
  <path class="fil0" d="M5559 28444c24,126 1,256 44,381 18,51 8,111 11,178 45,10 92,20 140,30 -64,-12 -122,46 -187,25 11,-27 26,-49 25,-69 -4,-64 -15,-128 -21,-191 -6,-58 -10,-116 -15,-174 -2,-22 -7,-44 -6,-66 1,-37 6,-74 10,-112 0,0 -2,-1 -2,-1z"/>
  <path class="fil0" d="M1631 21446c71,-34 205,-35 293,-2 -27,18 -51,33 -75,48 -3,2 -11,2 -14,0 -58,-48 -128,-26 -192,-36 -2,0 -4,-3 -12,-10z"/>
  <path class="fil0" d="M6751 28901c207,5 414,11 632,17 -60,23 -243,22 -318,13 -104,-11 -210,-12 -315,-17 0,-4 0,-9 1,-13z"/>
  <path class="fil0" d="M1265 25438c109,0 218,0 334,0 -75,46 -258,49 -334,0z"/>
  <path class="fil0" d="M5907 28842c19,38 39,77 61,120 -39,6 -68,11 -98,16 -19,-48 -17,-46 19,-80 12,-12 12,-37 17,-56z"/>
  <path class="fil0" d="M6370 24624c-55,24 -112,21 -169,9 -47,-9 -53,-32 -33,-95 19,65 19,65 86,68 38,1 76,0 113,0 1,6 1,12 2,18z"/>
  <path class="fil0" d="M6615 28306c0,68 0,136 0,196 -24,-42 -29,-127 0,-196z"/>
  <path class="fil0" d="M10060 25120c-5,-71 -25,-143 12,-211 -4,70 -8,141 -12,211z"/>
  <path class="fil0" d="M1372 24749c7,29 13,58 20,87 -14,9 -25,15 -45,28 3,-43 6,-79 9,-116 5,1 11,1 16,2z"/>
  <path class="fil0" d="M9803 25505c57,-25 113,-49 170,-74 -47,47 -100,82 -170,74z"/>
  <path class="fil0" d="M1474 25331c-46,29 -80,5 -130,-24 59,-18 94,3 130,24z"/>
  <path class="fil0" d="M6555 28941c-58,-7 -115,-14 -173,-21 1,-7 2,-14 2,-21 56,6 113,12 169,18 1,8 1,16 2,24z"/>
  <path class="fil0" d="M1651 25391c-38,-33 -32,-62 6,-89 -2,30 -4,59 -6,89z"/>
  <path class="fil0" d="M6148 27842c-41,-5 -65,-8 -93,-12 5,-13 10,-24 19,-46 24,18 43,34 74,58z"/>
  <path class="fil0" d="M9754 25308c0,17 0,33 0,50 -1,0 -2,0 -3,0 0,-17 0,-33 0,-50 1,0 2,0 3,0z"/>
  <path class="fil0" d="M6081 28893c26,0 52,0 79,0 0,1 0,3 0,4 -26,0 -52,0 -79,0 0,-1 0,-3 0,-4z"/>
  <path class="fil0" d="M5856 28021c6,-18 13,-35 19,-53 3,0 6,0 9,1 -1,9 1,20 -2,28 -3,10 -11,19 -16,29 -3,-1 -7,-3 -10,-4z"/>
  <path class="fil0" d="M6230 28892c16,0 32,0 49,0 0,2 0,3 0,5 -15,0 -31,0 -47,0 -1,-2 -1,-3 -2,-5z"/>
  <path class="fil0" d="M6504 16219c-4,1 -9,3 -13,4 3,16 7,33 10,49zm-32 -347c7,-3 15,-7 22,-10 -11,-20 -23,-41 -34,-61 -5,2 -9,5 -14,7 9,21 17,43 26,64zm-71 -367c8,-1 16,-1 24,-2 8,-64 6,-126 -44,-196 8,77 14,138 20,198zm-33 22c37,-104 -30,-206 -18,-314 -28,-6 -48,-10 -78,-16 37,-27 66,-48 100,-73 -18,-59 3,-128 -40,-187 0,15 0,30 0,45 -5,1 -10,1 -14,2 -12,-80 -25,-159 -37,-241 -22,-3 -44,-6 -72,-10 77,-66 77,-66 45,-164 -15,-46 -31,-91 -49,-144 42,-21 28,-68 21,-112 -8,-50 -22,-99 -30,-149 -6,-35 -3,-36 55,-39 1,27 3,55 4,83 1,61 -9,124 27,181 7,12 0,32 0,49 -1,31 -11,66 0,91 61,135 44,286 96,424 27,71 25,153 36,232 -21,0 -36,0 -51,0 0,9 -1,16 1,19 47,61 83,126 87,205 4,70 6,139 8,209 2,71 3,140 47,202 13,19 15,57 5,77 -21,39 -17,76 -8,114 17,65 35,130 52,195 3,13 7,28 4,40 -26,81 -26,107 -7,179 11,40 14,83 23,124 6,27 12,55 23,80 26,61 25,65 -44,82 -7,2 -15,2 -29,4 0,-63 -11,-125 4,-181 10,-39 8,-63 -7,-99 -18,-42 -17,-93 -24,-144 -18,-6 -38,-13 -70,-25 22,-27 38,-47 63,-77 -9,-66 -19,-143 -32,-220 -4,-24 -18,-46 -27,-69 -4,-11 -8,-24 -9,-35 0,-36 2,-71 1,-107 -1,-37 -19,-70 -3,-114 9,-27 -29,-71 -52,-118z"/>
  <path class="fil0" d="M3673 18134c-8,-2 -15,-4 -23,-6 -7,25 -14,49 -20,74 30,-17 52,-37 43,-67zm-374 825c80,-45 88,-131 120,-205 -13,-25 -26,-50 -43,-82 88,-15 101,-87 125,-152 13,-37 29,-73 46,-114 -8,-14 -21,-30 -28,-48 -12,-30 -6,-64 24,-70 45,-9 52,-39 58,-72 10,-56 54,-109 15,-174 100,-54 122,-149 147,-246 14,-58 47,-112 76,-180 9,28 13,41 19,63 40,-43 46,-109 96,-137 5,4 11,8 16,12 -48,69 -96,137 -148,211 12,15 32,37 52,60 -93,51 -131,148 -203,227 30,19 51,33 74,48 -63,78 -96,180 -198,226 32,25 60,47 95,74 -28,6 -52,12 -80,19 14,54 -14,99 -43,139 -49,69 -59,134 -1,202 -82,63 -114,161 -176,237l2 2c-3,-26 -11,-48 -45,-39z"/>
  <path class="fil0" d="M6824 19522c-97,10 -194,25 -292,29 -324,13 -647,24 -971,31 -301,6 -602,6 -903,11 -101,2 -202,11 -304,16 -21,1 -43,-2 -65,-13 13,-3 25,-9 38,-10 214,-6 428,-13 642,-18 268,-6 535,-10 803,-16 211,-5 422,-10 633,-18 87,-3 174,-15 261,-22 53,-4 106,-6 159,-8 0,6 0,12 -1,19z"/>
  <path class="fil0" d="M4931 20207c23,-8 45,-21 68,-22 101,-4 203,-2 304,-6 166,-7 332,-17 498,-24 172,-8 343,-13 515,-21 90,-4 180,-16 269,-21 148,-8 297,-13 445,-20 4,7 9,14 13,21 -7,1 -14,2 -22,3 -8,1 -17,2 -25,2 -121,3 -243,-3 -363,11 -336,40 -674,44 -1011,57 -211,8 -422,10 -633,15 -19,0 -39,4 -58,7l0 0z"/>
  <path class="fil0" d="M4023 19913c-17,-12 -33,-32 -52,-34 -224,-25 -448,-48 -673,-70 -120,-12 -240,-23 -359,-44 364,21 728,52 1095,102 78,-149 153,-293 228,-436 -41,152 -125,285 -204,428 30,11 53,18 76,26 -38,9 -76,18 -113,26 0,0 2,1 2,1z"/>
  <path class="fil0" d="M3505 20629c-410,-23 -811,-122 -1233,-116 14,-17 18,-28 24,-29 118,-15 1102,101 1209,145z"/>
  <path class="fil0" d="M3365 19162c68,-23 132,-9 194,-4 90,8 181,13 272,29 79,15 164,0 246,-2 8,0 15,3 28,6 -13,38 -42,46 -72,46 -70,0 -139,0 -209,-6 -125,-10 -250,-24 -374,-35 -29,-3 -61,3 -84,-35z"/>
  <path class="fil0" d="M6628 17099c39,92 86,182 104,282 2,11 7,25 3,32 -44,65 -15,131 1,194 23,90 25,90 -71,134 -27,-54 31,-44 48,-64 -1,-68 -37,-215 -69,-242 3,16 7,31 9,47 2,18 3,37 4,66 -28,-39 -48,-68 -73,-102 9,-27 20,-60 31,-90 23,17 49,36 85,63 -1,-75 -5,-131 -38,-184 -21,-33 -33,-71 -46,-108 -2,-6 9,-17 14,-25l-2 -2z"/>
  <path class="fil0" d="M4122 19532c-343,-4 -687,-9 -1035,-13 31,-24 69,-29 105,-28 76,1 152,8 228,9 206,3 411,4 617,7 29,0 58,4 87,7 -1,6 -1,12 -2,18z"/>
  <path class="fil0" d="M6630 17101c-11,0 -22,0 -33,-1 1,28 0,56 2,83 3,37 9,74 -2,112 -6,-41 -11,-82 -17,-122 -3,-22 -2,-49 -15,-63 -35,-39 -17,-71 2,-104 21,17 41,35 68,57 21,-60 -27,-93 -32,-137 -5,-43 -27,-86 -4,-149 7,26 10,37 13,47 17,59 37,117 52,176 7,26 8,55 5,81 -1,7 -26,12 -40,18 0,0 2,2 2,2z"/>
  <path class="fil0" d="M6816 18455c-16,-13 -43,-23 -46,-38 -7,-38 -2,-77 4,-117 3,26 7,52 10,79 24,10 38,4 39,-24 2,-67 -22,-127 -64,-177 -33,-39 -34,-38 -31,-96 70,83 117,168 132,270 4,29 -4,47 -30,62 -10,6 -11,28 -16,42l2 -2z"/>
  <path class="fil0" d="M6672 18034c8,-34 20,-58 18,-81 -6,-61 -17,-121 -28,-188 41,42 96,212 98,298 -43,19 -65,-17 -89,-30z"/>
  <path class="fil0" d="M7411 19530c-125,28 -249,15 -371,-12 -1,-7 -1,-14 -1,-21 23,-3 50,-17 67,-9 98,46 202,32 306,42z"/>
  <path class="fil0" d="M4584 20216c-138,0 -276,0 -413,0 0,-4 0,-8 0,-12 138,0 276,0 413,0 0,4 0,8 0,12z"/>
  <path class="fil0" d="M3342 18997c32,47 -9,77 -32,114 8,-44 -11,-70 -44,-94 -28,-20 -16,-43 11,-57 1,49 34,44 67,40l-2 -2z"/>
  <path class="fil0" d="M4931 20207c-78,4 -156,8 -235,12 0,-4 0,-8 0,-12 78,0 157,0 235,0 0,0 0,0 0,0z"/>
  <path class="fil0" d="M5383 12348c25,-58 69,-112 33,-181 -3,-5 4,-15 6,-23 24,-98 66,-195 69,-294 5,-153 85,-292 74,-446 -2,-26 14,-53 21,-79 22,47 -59,118 39,147 -52,87 -92,176 -106,279 20,0 38,0 55,0 1,8 4,14 1,17 -73,98 -97,213 -117,330 -2,13 -2,32 5,38 25,22 23,48 8,68 -32,46 -23,118 -90,141 0,0 1,2 1,2z"/>
  <path class="fil0" d="M5293 12718c9,13 36,36 49,42 0,5 1,15 -1,16 -42,15 -57,51 -73,88 -27,61 -58,119 -87,180 35,14 62,24 102,40 -38,60 -75,116 -111,173 0,0 2,1 2,1 20,-53 40,-107 64,-171 -37,6 -63,10 -100,16 15,-38 27,-72 42,-106 33,-78 79,-152 89,-239 2,-14 17,-26 27,-39l-2 -2z"/>
  <path class="fil0" d="M6026 12284c-53,-33 -36,-94 -54,-141 -12,-31 -16,-65 -24,-101 -26,3 -49,6 -72,9 -4,-6 -9,-12 -13,-18 10,-4 21,-9 31,-12 44,-13 45,-41 33,-79 -20,-67 -38,-135 -55,-203 -3,-10 0,-21 4,-33 66,189 108,385 148,580l1 -2z"/>
  <path class="fil0" d="M6091 12719c-44,20 -80,37 -117,54 -2,-3 -4,-6 -6,-10 28,-21 56,-41 90,-66 -23,-71 -46,-142 -69,-212 15,8 30,38 52,102 14,42 32,84 51,133z"/>
  <path class="fil0" d="M5888 11637c-34,-12 -59,-20 -94,-32 53,-24 65,-58 47,-107 -13,-34 -17,-71 -22,-107 -2,-11 5,-23 19,-33 17,90 33,181 51,278z"/>
  <path class="fil0" d="M6135 13053c-56,-13 -93,-22 -130,-30 0,-5 -1,-9 -1,-14 24,-1 49,-3 76,-4 26,-68 -13,-128 -28,-191 63,64 41,154 83,240z"/>
  <path class="fil0" d="M5340 12594c14,-82 29,-163 43,-245 0,0 -1,-2 -2,-2 5,24 10,48 16,76 17,3 37,6 56,9 -78,29 -77,109 -115,161 0,0 2,2 2,2z"/>
  <path class="fil0" d="M5757 11048c6,6 16,12 17,18 7,90 12,181 18,276 -23,-2 -38,-3 -65,-5 21,-22 35,-37 49,-52 -6,-79 -12,-159 -18,-238l-1 2z"/>
  <path class="fil0" d="M5758 11046c-9,-82 -18,-164 -28,-246 34,81 34,164 27,248 0,0 1,-1 1,-1z"/>
  <path class="fil0" d="M6025 12286c13,44 27,89 41,136 -36,7 -67,13 -99,19 -1,-3 -2,-6 -3,-9 23,-14 45,-27 62,-37 0,-41 0,-76 0,-111 0,0 -1,1 -1,1z"/>
  <path class="fil0" d="M6083 13338c64,-50 64,-51 54,-146 9,41 18,81 28,127 -31,7 -56,13 -82,19z"/>
  <path class="fil0" d="M5839 13203c-20,-5 -40,-11 -69,-18 36,-40 56,-28 74,-5 -2,8 -3,15 -5,23z"/>
  <path class="fil0" d="M5295 12720c15,-42 30,-84 46,-126 0,0 -2,-2 -2,-2 -15,42 -30,84 -45,126 0,0 2,2 2,2z"/>
  <path class="fil0" d="M5736 11701c20,-3 39,-6 59,-9 1,6 2,11 3,17 -20,3 -39,7 -59,10 -1,-6 -2,-12 -3,-18z"/>
  <path class="fil0" d="M8894 20145c-3,4 -6,11 -10,13 -131,62 -342,117 -516,129 25,-7 50,-16 75,-19 118,-15 228,-56 339,-94 37,-12 75,-18 113,-26l-2 -2z"/>
  <path class="fil0" d="M8895 20147c22,-11 45,-21 67,-32 37,-19 75,-35 109,-58 38,-25 78,-42 127,-32 -77,37 -154,75 -232,109 -22,10 -49,7 -73,10 0,0 2,2 2,2z"/>
  <path class="fil0" d="M6614 13660c-7,-96 -14,-111 -56,-116 -73,-9 -72,57 -98,103 -28,-3 -58,-6 -96,-9 -35,79 -30,162 -17,245 4,24 13,43 -22,58 -36,-119 -25,-236 -6,-362 69,26 110,6 150,-45 52,-65 140,-46 180,28 19,36 43,69 65,104 0,44 -3,94 1,144 4,50 16,99 24,150 -35,-14 -36,-14 -56,-120 -9,-46 -13,-94 -20,-147 -13,-8 -31,-20 -49,-32z"/>
  <path class="fil0" d="M6786 23429c62,11 62,11 63,-38 -24,14 -43,26 -63,38zm335 -41c8,22 17,44 27,73 -110,24 -210,45 -282,131 -5,-6 -10,-12 -15,-19 13,-14 25,-29 39,-42 15,-13 32,-22 47,-33 -45,-57 -79,-17 -114,-13 -2,31 -6,59 -6,87 0,12 8,24 15,35 24,36 49,72 69,116 -49,-55 -99,5 -156,-6 20,-15 33,-24 39,-29 2,-47 2,-91 7,-134 7,-53 -55,-132 -103,-117 -54,17 -79,-6 -109,-54 109,42 203,22 293,-45 10,20 16,32 21,44 36,89 151,117 221,51 9,-8 5,-30 7,-45 0,0 0,0 0,0z"/>
  <path class="fil0" d="M7219 23053c-2,10 -2,14 -4,15 -6,5 -13,12 -19,12 -244,6 -487,12 -731,18 -7,0 -13,-6 -23,-11 13,-38 42,-34 69,-34 176,2 353,5 529,6 47,0 95,-7 142,-10 12,-1 24,3 36,4z"/>
  <path class="fil0" d="M6591 23474c33,81 118,16 171,74 -41,0 -73,0 -115,0 45,70 24,122 -20,182 -4,-18 -9,-27 -6,-31 32,-55 26,-104 -18,-152 -14,-15 -17,-41 -25,-63 5,-4 10,-8 14,-11z"/>
  <path class="fil0" d="M7060 23507c-7,60 -15,120 -22,179 -47,-50 -39,-116 22,-179z"/>
  <path class="fil1" d="M7243 24687c-43,31 -82,33 -131,2 3,-22 7,-43 11,-67l120 65z"/>
  <path class="fil1" d="M6550 24759c-19,15 -38,30 -57,45 -5,-5 -10,-10 -14,-15l71 -30z"/>
  <path class="fil1" d="M6953 23827c-17,-1 -33,-3 -50,-2 -111,6 -223,13 -336,4 54,-10 109,-35 161,-29 170,21 340,-11 509,11 3,0 6,9 18,31l-303 -16z"/>
  <path class="fil1" d="M7332 23816c-14,2 -28,4 -42,6 -1,-5 -2,-9 -3,-14 14,-4 29,-8 43,-12 1,7 1,14 2,21z"/>
  <path class="fil1" d="M6416 23834c-13,0 -27,0 -40,0 -1,-3 -1,-6 -2,-8 13,-3 27,-5 40,-8 0,5 1,11 1,16z"/>
  <path class="fil1" d="M9908 24784c7,-1 14,-2 21,-3 7,15 17,30 20,45 27,155 25,311 12,467 -3,37 -21,48 -62,54l10 -563z"/>
  <path class="fil1" d="M6421 15556c-8,1 -16,1 -24,2l24 -2z"/>
  <path class="fil1" d="M6442 15861c5,-2 9,-5 14,-7l-14 7z"/>
  <path class="fil1" d="M6501 16272c-3,-16 -7,-33 -10,-49 4,-1 9,-3 13,-4l-3 53z"/>
  <path class="fil1" d="M3650 18128c8,2 15,4 23,6 9,31 -13,50 -43,67l20 -74z"/>
  <path class="fil1" d="M6786 23429c19,-12 39,-23 63,-38 -1,48 -1,48 -63,38z"/>
 </g>
</svg>
