<?xml version="1.0" encoding="UTF-8"?>
<!DOCTYPE svg PUBLIC "-//W3C//DTD SVG 1.1//EN" "http://www.w3.org/Graphics/SVG/1.1/DTD/svg11.dtd">
<!-- Creator: CorelDRAW X6 -->
<svg xmlns="http://www.w3.org/2000/svg" xml:space="preserve" width="210mm" height="297mm" version="1.1" style="shape-rendering:geometricPrecision; text-rendering:geometricPrecision; image-rendering:optimizeQuality; fill-rule:evenodd; clip-rule:evenodd"
viewBox="0 0 21000 29700"
 xmlns:xlink="http://www.w3.org/1999/xlink">
 <defs>
  <style type="text/css">
   <![CDATA[
    .fil0 {fill:#2B2A29}
    .fil1 {fill:#FEFEFE}
   ]]>
  </style>
 </defs>
 <g id="Слой_x0020_1">
  <metadata id="CorelCorpID_0Corel-Layer"/>
  <path class="fil0" d="M8629 13666c-4,3 -9,5 -13,8 7,11 14,23 21,34 4,-3 9,-5 13,-8 -7,-11 -14,-23 -21,-34zm2397 2775c-6,5 -11,9 -17,14 7,8 13,18 21,25 5,5 13,7 32,15 -18,-27 -27,-40 -36,-54zm925 3212c0,2 0,3 0,5 25,0 50,0 75,0 0,-2 0,-3 0,-5 -25,0 -50,0 -75,0zm-1962 -4187c0,8 -1,15 -1,23 21,2 41,3 62,5 1,-6 1,-13 2,-19 -21,-3 -42,-6 -63,-9zm1408 -4685c-37,-14 -37,-14 -72,11 27,10 51,17 72,-11zm-807 6666c37,-87 18,-171 -4,-255 -30,86 -11,170 4,255zm927 -216c-2,-7 -4,-14 -5,-21 -110,0 -220,0 -331,0 -24,138 -18,205 23,259 123,-56 198,-172 313,-237zm792 -3317c-24,-84 -44,-165 -70,-244 -47,-145 -98,-288 -145,-432 -32,-99 -62,-199 -91,-299 -37,-127 -70,-255 -107,-382 -41,-141 -94,-277 -164,-406 -13,-24 -16,-54 -22,-81 -5,-22 -3,-48 -15,-65 -62,-96 -70,-207 -89,-315 -6,-37 -19,-73 -29,-110 -6,1 -12,2 -19,4 3,29 4,59 11,87 90,363 179,727 274,1090 64,243 137,483 207,724 35,122 71,243 110,364 40,123 86,244 191,332 36,30 63,72 93,109 65,81 132,161 194,244 38,52 85,54 142,46 -2,-13 -2,-21 -5,-28 -88,-181 -210,-340 -335,-496 -5,-6 -14,-17 -18,-16 -52,12 -66,-29 -90,-59 -9,-12 -29,-15 -44,-21 -17,-7 -35,-13 -52,-20 0,-4 1,-8 1,-12 25,-5 51,-10 72,-14zm-6525 6709c-29,8 -58,23 -87,24 -82,3 -163,3 -245,-1 -236,-10 -472,-23 -708,-35 -11,-1 -22,-2 -34,-3 -140,-10 -280,-19 -420,-29 -143,-10 -286,-22 -429,-30 -32,-2 -73,-1 -96,17 -51,41 -92,94 -138,156 49,20 87,47 125,49 270,16 540,27 810,40 191,9 383,16 574,24 121,5 242,7 363,11 191,5 383,10 574,14 18,0 36,-4 57,-7 -120,-80 -234,-156 -346,-230zm5094 -6655c1,7 2,14 3,21 -83,24 -167,47 -249,73 -22,7 -49,18 -62,36 -42,60 -79,123 -116,186 -40,68 -80,136 -119,205 -35,63 -77,123 -84,200 41,3 77,7 112,7 65,-1 119,-17 147,-89 21,-54 57,-103 90,-152 79,-117 161,-232 242,-347 89,-127 140,-263 139,-424 -1,-160 23,-320 41,-479 17,-151 41,-302 60,-453 28,-227 55,-453 81,-680 14,-128 24,-256 36,-384 -40,126 -81,253 -98,383 -37,289 -117,568 -177,852 -43,201 -95,400 -152,598 -48,168 -56,348 -150,511 94,-14 171,-61 257,-63zm-2782 -2178c-7,2 -13,4 -20,6 0,16 -3,33 0,48 27,138 55,276 84,413 5,21 13,46 29,60 39,35 47,81 59,127 18,65 43,127 68,190 14,37 27,75 48,108 30,48 20,102 32,152 15,65 21,134 73,185 0,85 47,155 68,234 32,115 86,218 143,321 16,28 32,69 23,94 -23,63 -2,117 20,170 13,30 16,56 16,87 0,60 9,123 85,148 -11,22 -20,41 -26,53 34,83 118,144 65,245 -4,8 -3,25 3,32 47,51 64,112 60,180 0,5 2,11 5,16 42,76 86,151 74,244 -1,7 6,16 9,24 53,157 108,313 159,471 25,80 40,163 63,244 23,82 57,159 121,219 25,23 33,46 28,82 -4,30 5,68 22,94 25,40 59,75 93,108 28,26 39,47 24,88 -11,28 -7,67 5,95 13,33 41,60 64,88 30,37 65,68 58,125 -3,23 21,51 37,73 25,34 54,65 82,97 21,24 41,45 23,82 -5,11 9,36 21,49 29,32 75,56 46,113 -3,6 6,23 14,28 25,15 52,36 80,39 187,24 375,46 562,66 120,13 241,28 362,33 152,6 304,3 456,3 56,0 113,-1 169,-4 14,-1 28,-10 56,-20 -81,-40 -141,-85 -184,-148 -31,-45 -61,-90 -130,-63 -11,4 -36,-7 -41,-17 -5,-10 7,-29 13,-43 4,-9 12,-16 25,-33 -65,-40 -124,-77 -188,-117 7,-15 18,-36 29,-59 -30,-24 -65,-41 -86,-69 -33,-42 -75,-2 -119,-24 9,-33 19,-66 28,-99 -41,-59 -86,-91 -152,-112 -105,-33 -105,-33 -53,-128 -29,-50 -73,-83 -131,-96 -41,-9 -62,-28 -45,-71 12,-31 -8,-47 -26,-65 -50,-52 -107,-92 -175,-115 -27,-9 -62,-26 -49,-58 21,-52 -14,-72 -40,-98 -46,-46 -93,-90 -139,-134 -166,0 -334,0 -502,0 -71,0 -141,1 -212,0 -13,0 -26,-10 -39,-15 62,-30 124,-21 184,-24 62,-3 124,-7 186,-8 61,-1 122,0 180,0 24,-37 48,-73 69,-105 -19,-50 -37,-98 -59,-153 -21,-5 -59,41 -99,-5 23,-19 42,-36 59,-49 -24,-59 -47,-115 -71,-173 -15,-1 -34,-3 -63,-5 42,-53 20,-91 -14,-130 -23,-26 -38,-59 -56,-89 -4,-6 -6,-13 -9,-19 -27,3 -51,6 -74,9 -2,-38 5,-75 -8,-100 -38,-69 -84,-132 -90,-214 -1,-10 -13,-18 -18,-28 -21,-33 -53,-64 -60,-100 -25,-120 -103,-207 -171,-301 -2,-2 -1,-5 -3,-14 49,-50 27,-99 -15,-144 -30,-33 -61,-67 -96,-94 -26,-20 -40,-37 -42,-74 -4,-63 -36,-121 -88,-156 -32,-22 -43,-47 -55,-79 -25,-66 -50,-132 -83,-194 -37,-68 -86,-130 -123,-198 -45,-82 -54,-186 -148,-238 -6,-3 -9,-14 -11,-22 -10,-35 -22,-70 -28,-106 -10,-64 -36,-117 -83,-161 -13,-13 -24,-29 -32,-46 -23,-48 -37,-102 -66,-145 -83,-122 -149,-252 -213,-384 -6,-12 -7,-26 -10,-39 4,-1 7,-2 11,-3 14,20 27,40 41,61 4,-2 9,-5 13,-7 -32,-69 -65,-138 -97,-206zm-859 3740l1 1c1,-30 -8,-64 3,-89 41,-84 67,-166 6,-248 73,-96 94,-192 39,-285 23,-72 67,-138 59,-197 -11,-82 28,-142 41,-213 18,-98 37,-196 49,-295 7,-58 1,-117 4,-176 1,-19 9,-38 17,-55 33,-72 50,-143 8,-217 54,-73 67,-156 79,-240 15,-106 26,-212 46,-316 35,-188 72,-375 131,-558 9,-26 8,-56 13,-83 5,-32 11,-65 18,-97 11,-55 42,-107 32,-172 -48,49 -93,155 -90,214 1,30 3,56 -33,68 -9,3 -21,14 -22,23 -10,77 -77,141 -50,226 3,11 -2,34 -10,38 -56,24 -65,82 -95,124 -30,42 -43,84 -4,124 -73,84 -125,170 -108,264 -30,52 -64,90 -75,133 -23,91 -117,145 -119,245 0,2 -4,4 -5,6 -51,70 -102,141 -157,215 53,56 6,99 -20,143 -26,43 -58,82 -86,121 18,23 32,40 45,58 -3,4 -6,8 -8,11 -29,-10 -59,-21 -88,-31 -4,4 -8,8 -12,12 15,21 31,43 46,65 -127,78 -164,197 -162,323 -43,79 -92,147 -116,222 -15,47 -31,88 -60,126 -29,38 -59,75 -88,113 4,35 44,62 5,101 -51,52 -95,111 -141,168 -3,4 -2,11 -3,15 14,17 28,33 57,68 -121,-13 -127,64 -144,143 93,-21 180,-42 268,-59 88,-17 177,-32 266,-46 22,-3 49,-7 71,24 -44,4 -81,5 -116,12 -193,43 -385,86 -577,132 -24,6 -47,20 -66,35 -139,110 -277,221 -415,333 -20,16 -36,36 -54,54 -35,36 -69,73 -105,107 -18,18 -44,29 -59,48 -61,78 -137,136 -217,194 -111,81 -209,180 -310,273 -54,49 -97,112 -155,153 -75,54 -147,110 -206,181 -10,12 -27,20 -42,25 -74,24 -100,79 -108,156 25,0 44,3 62,0 263,-49 525,-101 788,-149 200,-36 401,-62 604,-67 118,-3 236,-15 354,-24 34,-2 68,-4 101,-11 50,-10 86,-60 67,-105 -19,-47 -2,-69 36,-88 13,-6 28,-9 38,-18 32,-27 84,-42 57,-105 -4,-10 22,-45 41,-53 64,-27 104,-76 138,-132 8,-14 19,-36 13,-45 -36,-59 7,-79 45,-106 29,-21 54,-49 80,-75 37,-38 47,-80 5,-127 45,-41 87,-79 128,-117 39,-36 85,-67 54,-135 -5,-11 13,-44 29,-54 115,-72 164,-196 257,-304 -34,-3 -55,-6 -75,-8zm-846 1558c-36,17 -71,33 -108,-4 -11,-11 -38,-9 -57,-8 -56,3 -112,10 -168,14 -79,6 -157,15 -236,15 -193,-1 -382,28 -571,59 -247,41 -493,89 -739,135 -57,10 -112,47 -174,1 -12,19 -25,34 -31,51 -13,37 -23,76 -33,114 -24,95 -48,191 -71,287 -6,26 -24,59 14,73 34,12 51,-18 64,-42 26,-47 50,-95 73,-143 44,-91 86,-184 132,-274 11,-22 32,-40 49,-60 5,3 10,6 15,8 0,12 4,27 -1,37 -51,105 -54,217 -46,330 5,79 15,157 18,236 1,49 -8,98 -12,152 -29,-4 -45,-6 -61,-8 -73,-9 -96,5 -100,77 -5,93 -11,187 0,279 24,196 30,393 34,590 3,132 16,264 24,396 1,14 4,28 3,42 -22,299 22,597 1,895 -3,42 4,84 4,127 1,61 5,68 63,71 101,6 203,12 304,17 231,11 462,25 693,31 95,3 192,-5 286,-20 48,-7 81,4 115,32 94,76 192,145 307,189 51,20 95,58 140,91 22,16 15,44 -11,52 -10,3 -22,2 -33,2 -115,-5 -230,-9 -345,-14 -171,-8 -343,-16 -514,-25 -23,-1 -45,-6 -67,-6 -271,-8 -541,-14 -812,-23 -48,-1 -95,-9 -143,-11 -98,-3 -197,-4 -295,-7 -70,-2 -140,-8 -211,-11 -33,-1 -67,0 -100,0 -35,40 -42,86 -42,135 0,64 -5,67 -68,86 -61,19 -61,19 -55,95 14,3 31,5 45,11 49,22 63,62 47,116 -9,29 -15,60 -13,90 4,81 6,82 -73,104 -31,9 -52,25 -48,58 2,14 12,32 24,40 21,14 46,21 73,32 0,58 0,117 0,175 0,55 -45,56 -89,61 -2,35 -4,64 -5,95 33,4 59,5 83,12 45,12 60,37 59,86 -1,19 0,39 5,58 12,54 -2,94 -54,119 -18,9 -34,20 -52,28 -134,63 -167,134 -127,284 39,0 80,0 132,0 8,59 29,117 18,168 -10,47 -55,86 -89,136 29,9 47,14 65,20 32,9 52,29 35,62 -27,53 17,96 15,147 -2,46 9,92 61,120 35,19 17,86 -26,113 -29,18 -60,31 -89,48 -43,25 -77,117 -62,161 11,31 35,45 66,38 18,-4 35,-15 64,-28 17,68 13,130 3,192 -2,10 -19,19 -31,24 -95,40 -99,59 -26,145 26,-8 54,-16 95,-28 -18,110 -69,181 -157,235 27,14 51,25 75,38 22,-11 41,-24 61,-32 56,-21 103,8 95,66 -10,65 -23,132 -77,181 -39,35 -73,75 -110,113 17,49 122,3 107,101 -49,-9 -95,-18 -144,-27 -14,27 -26,51 -45,89 34,-4 54,-5 74,-8 38,-6 77,-27 98,31 4,11 40,15 61,15 147,2 293,-1 440,3 70,2 139,15 209,24 134,17 268,39 402,53 334,35 667,76 1003,75 149,-1 299,-15 448,-14 99,0 196,-9 294,-15 278,-18 557,-44 836,-11 8,1 17,2 25,1 231,-14 461,-28 692,-42 11,-1 22,-4 34,-4 155,-7 309,-17 464,-19 183,-3 367,-4 550,2 107,4 214,18 318,39 105,21 206,12 310,0 50,-6 101,-8 152,-8 186,0 372,3 558,1 222,-3 445,-3 666,-18 172,-11 343,6 515,1 51,-1 102,-4 152,-3 129,2 259,5 388,8 22,1 45,9 67,5 173,-26 344,1 513,25 174,25 343,0 513,-28 64,-11 127,-28 190,-40 12,-2 25,2 46,4 -33,53 -73,80 -124,87 -81,10 -163,10 -242,27 -137,28 -274,28 -412,12 -106,-12 -213,-27 -319,-35 -53,-4 -107,11 -160,9 -124,-3 -248,-14 -372,-15 -220,-3 -440,-3 -660,0 -220,3 -440,9 -659,16 -107,3 -213,14 -320,14 -127,0 -253,-9 -380,-10 -53,-1 -107,5 -160,13 -130,20 -258,-2 -386,-21 -179,-27 -359,-32 -540,-24 -39,2 -78,-2 -117,-1 -73,1 -146,4 -219,7 -124,5 -248,12 -372,18 -160,8 -321,16 -481,24 -87,4 -174,14 -261,14 -127,0 -253,-9 -380,-11 -70,-1 -140,5 -211,10 -174,12 -347,39 -522,36 -166,-2 -333,19 -499,14 -200,-6 -399,-27 -598,-44 -191,-16 -382,-35 -572,-55 -50,-5 -101,-11 -150,-24 -94,-25 -189,-28 -285,-29 -163,-1 -326,-8 -488,-12 -64,-2 -126,-30 -192,-9 -15,4 -35,-11 -57,-18 20,-68 108,-84 108,-163 -17,-13 -37,-27 -59,-44 36,-93 151,-50 196,-132 0,3 1,-5 -2,-12 -29,-56 -29,-64 28,-86 39,-14 53,-34 48,-75 -103,33 -103,33 -226,-12 -44,-16 -60,-47 -32,-84 24,-32 62,-53 96,-82 -7,-46 -16,-96 -62,-134 -11,-9 -13,-42 -6,-59 18,-43 37,-89 84,-113 13,-6 24,-14 34,-19 -10,-17 -12,-24 -16,-25 -100,-40 -114,-62 -112,-169 0,-14 3,-28 2,-42 -8,-71 16,-120 90,-141 26,-7 48,-29 65,-39 -14,-62 -24,-121 -42,-178 -13,-42 -27,-94 -59,-119 -48,-38 -42,-89 -59,-134 -12,-31 6,-60 34,-80 16,-11 34,-23 43,-39 9,-18 17,-46 9,-60 -8,-14 -36,-17 -56,-21 -7,-2 -16,5 -24,8 -37,11 -58,-3 -71,-39 -50,-134 -13,-273 102,-363 17,-13 40,-20 61,-27 85,-29 90,-38 75,-129 -3,-16 -7,-32 -11,-54 -25,4 -47,8 -68,10 -53,6 -66,-7 -62,-59 1,-11 7,-23 4,-33 -17,-73 -7,-127 72,-163 35,-16 18,-65 6,-103 -24,-7 -48,-15 -70,-22 -50,-152 1,-219 107,-241 4,-47 9,-97 14,-144 -29,-13 -71,-18 -79,-38 -19,-45 -30,-98 -28,-147 1,-18 44,-39 71,-50 55,-22 81,-57 66,-120 -36,0 -71,0 -110,0 -1,-55 14,-115 -56,-131 2,-47 37,-58 62,-79 36,-31 72,-63 104,-97 25,-26 60,-55 -8,-99 8,-3 17,-5 25,-8 23,1 46,0 69,5 167,31 335,49 505,45 28,-1 55,-4 89,-6 0,-180 1,-354 0,-527 -1,-141 -1,-282 -5,-423 -5,-183 -11,-366 -18,-549 -6,-144 -12,-287 -20,-431 -2,-33 -14,-66 -17,-100 -4,-45 -4,-90 -4,-134 -1,-36 0,-73 1,-109 3,-64 6,-129 11,-193 3,-37 27,-53 63,-56 30,-3 61,-8 96,-13 -6,-142 -11,-278 -17,-426 -56,70 -84,146 -115,219 -12,29 12,42 41,50 45,13 45,16 28,70 -74,0 -147,3 -219,-1 -58,-3 -74,-25 -54,-77 73,-191 98,-394 147,-590 14,-55 44,-103 103,-136 67,-38 121,-99 181,-149 28,-23 55,-50 87,-66 39,-20 74,-34 74,-90 0,-39 40,-53 73,-61 60,-16 106,-50 148,-94 10,-10 27,-22 26,-31 -9,-70 47,-82 89,-106 83,-48 169,-91 214,-185 8,-16 29,-27 46,-35 75,-37 139,-83 167,-168 6,-19 35,-38 56,-45 60,-20 98,-65 140,-106 6,-6 16,-13 15,-19 -6,-71 48,-81 96,-106 71,-38 135,-91 201,-139 64,-45 111,-111 185,-145 22,-10 40,-30 63,-47 -23,-27 -37,-44 -50,-60 3,-10 2,-20 7,-25 23,-21 48,-38 70,-60 31,-32 61,-65 88,-101 9,-12 17,-37 11,-47 -35,-59 3,-83 43,-115 43,-35 77,-81 112,-119 -50,-77 -48,-75 12,-124 59,-49 106,-106 96,-194 -3,-27 12,-61 29,-85 55,-76 107,-151 95,-253 -2,-17 19,-39 32,-57 24,-31 52,-59 74,-92 17,-25 31,-56 7,-86 -29,-38 -13,-68 13,-98 30,-34 60,-68 88,-102 34,-41 59,-85 14,-137 15,-14 26,-27 39,-36 99,-74 135,-182 158,-297 3,-16 7,-32 15,-46 30,-57 62,-113 91,-170 7,-15 17,-38 10,-48 -36,-56 5,-87 32,-126 30,-44 53,-93 79,-140 4,-7 12,-18 10,-23 -30,-64 27,-95 51,-139 37,-68 87,-132 69,-220 -4,-18 14,-41 24,-60 32,-59 75,-112 78,-183 1,-10 6,-22 13,-30 87,-106 139,-231 187,-358 7,-18 11,-42 25,-53 52,-39 52,-86 34,-142 -20,-63 9,-118 48,-163 30,-34 33,-67 31,-108 -11,-185 -15,-370 -32,-555 -6,-71 6,-139 6,-209 0,-30 7,-60 41,-65 40,-6 54,24 60,56 6,29 9,59 14,94 33,12 76,24 114,45 36,19 99,0 101,74 -39,25 -66,56 -54,115 9,42 -10,49 -93,50 -25,-19 -9,-82 -78,-64 0,19 -1,40 0,61 10,138 21,275 29,413 3,44 10,83 44,114 30,28 44,62 47,104 5,64 25,125 56,184 45,87 81,179 121,269 39,87 76,176 118,262 42,85 92,166 135,251 98,192 191,387 294,578 41,77 79,156 122,230 60,104 111,212 171,316 24,43 64,78 99,115 44,46 62,102 60,162 -1,38 9,65 36,89 44,39 70,86 80,145 5,30 14,63 32,86 90,113 101,268 199,377 30,33 56,70 81,107 87,129 134,278 201,417 83,172 190,325 338,448 31,26 55,60 89,98 10,-66 9,-128 4,-190 -3,-33 1,-66 2,-100 1,-14 5,-28 5,-42 2,-143 5,-287 4,-430 0,-62 -9,-124 -14,-185 -3,-30 -11,-56 -50,-55 -37,1 -47,27 -50,56 -6,64 -15,129 -13,193 5,180 16,360 23,541 1,20 -7,40 -14,79 -54,-81 -29,-153 -36,-220 -8,-73 -12,-146 -17,-219 -5,-70 -14,-141 -13,-211 2,-69 15,-138 23,-207 -15,-5 -22,-9 -30,-10 -94,-11 -96,-17 -46,-101 138,-236 281,-469 410,-709 49,-90 68,-196 96,-297 22,-79 34,-160 54,-239 56,-218 121,-434 171,-653 54,-239 120,-475 149,-720 16,-136 63,-269 87,-404 26,-144 39,-290 61,-435 10,-64 26,-126 42,-189 12,-46 28,-91 41,-135 -11,-13 -18,-22 -26,-29 -46,-42 -54,-58 -23,-108 53,-85 52,-176 46,-270 -2,-31 -3,-62 0,-93 3,-32 -2,-59 -23,-86 -50,-66 -48,-78 2,-147 8,-11 11,-26 18,-38 5,-8 15,-13 32,-27 4,36 7,62 11,97 58,7 116,15 174,21 28,3 57,-2 84,4 19,4 44,18 50,34 12,29 -20,31 -38,43 -51,32 -104,61 -112,133 -4,41 -30,47 -119,42 -4,-59 -8,-119 -11,-179 -6,0 -12,0 -17,0 0,68 0,136 0,203 0,25 7,51 4,76 -7,61 -15,111 70,132 58,14 70,97 25,141 -43,42 -38,80 -22,129 66,198 130,396 192,595 20,64 31,131 44,197 6,28 4,57 14,83 42,113 90,223 131,336 62,172 123,345 180,519 42,131 75,265 116,396 62,196 126,391 193,586 17,50 39,101 70,144 87,118 180,231 269,347 26,33 50,68 72,105 51,87 104,174 148,265 47,94 40,104 -63,138 -31,70 -18,147 -16,222 2,62 6,124 9,185 4,79 9,157 13,236 2,44 22,66 67,69 185,14 369,23 555,2 173,-19 348,-25 523,-36 98,-6 195,-10 294,12 72,16 151,20 224,-15 17,-8 39,-9 58,-7 129,14 258,26 387,-4 16,-4 35,-3 50,3 12,5 20,22 30,33 -13,9 -25,25 -38,26 -118,5 -235,5 -353,11 -76,4 -151,18 -226,22 -56,3 -114,7 -167,-5 -140,-32 -281,-16 -421,-10 -104,4 -208,16 -312,25 -22,2 -47,-1 -67,8 -70,31 -143,20 -215,16 -28,-1 -56,-5 -84,-5 -67,-1 -134,-1 -201,-1 -10,0 -21,4 -32,6 51,98 155,150 254,137 106,-14 213,-22 319,-33 197,-21 394,2 591,4 121,1 243,2 364,2 20,0 43,2 58,-8 63,-41 129,-25 197,-21 93,5 186,2 279,1 48,-1 96,-7 143,-5 24,1 48,16 71,24 -8,46 -35,46 -61,46 -155,-3 -310,-8 -465,-11 -16,0 -40,0 -47,9 -29,39 -69,34 -108,33 -68,-1 -135,-5 -203,-8 -25,-1 -51,0 -76,0 -81,0 -163,4 -244,0 -268,-13 -537,-24 -801,28 -98,20 -175,16 -242,-64 -41,-49 -89,-92 -132,-140 -10,-11 -14,-31 -14,-47 -1,-143 -32,-285 -16,-430 10,-89 -6,-180 -10,-270 -2,-47 -31,-61 -72,-66 -67,-8 -134,-17 -200,-31 -31,-7 -59,-26 -89,-39 14,-55 48,-41 77,-37 47,6 93,13 140,19 4,-6 8,-11 12,-17 -18,-26 -36,-52 -55,-77 -37,-50 -73,-100 -111,-148 -35,-44 -71,-88 -112,-127 -20,-19 -53,-23 -92,-39 -6,-18 -15,-48 -25,-77 -22,-62 -56,-108 -130,-116 -49,-5 -97,-19 -145,-29 1,-7 2,-14 3,-21 40,3 80,5 119,11 75,10 96,-10 76,-83 -37,-130 -81,-259 -117,-389 -105,-375 -212,-749 -311,-1125 -60,-226 -107,-455 -161,-683 -2,-8 -5,-17 -5,-25 4,-123 -41,-231 -98,-336 -21,-38 -28,-85 -39,-129 -8,-32 -12,-65 -27,-97 0,19 -2,39 0,57 25,164 54,328 76,493 13,95 21,190 22,286 1,95 24,184 48,274 7,27 17,55 16,83 -2,80 17,156 33,233 46,224 88,448 131,672 9,47 19,94 28,141 41,218 82,437 125,655 6,32 22,63 35,93 3,7 13,13 15,20 44,177 182,286 292,416 34,40 70,70 122,67 17,32 4,49 -18,59 -65,31 -253,15 -330,-28 16,-50 55,-36 90,-34 35,2 70,5 104,7 4,-6 8,-12 12,-18 -17,-27 -31,-56 -51,-81 -64,-79 -118,-173 -198,-230 -100,-71 -81,-187 -141,-269 -4,-6 -7,-19 -4,-24 48,-81 5,-160 -9,-237 -61,-321 -126,-642 -191,-962 -21,-105 -49,-208 -73,-312 -5,-22 -14,-45 -12,-66 11,-81 -11,-157 -32,-232 -39,-141 -24,-286 -44,-428 -26,-184 -55,-367 -96,-550 -24,182 -50,365 -71,547 -25,221 -43,443 -69,664 -27,221 -62,441 -90,662 -14,109 -20,219 -29,328 -5,59 -13,118 -17,177 -11,140 -20,281 -32,421 -2,20 -12,50 -27,57 -43,20 -59,59 -82,93 -70,103 -140,205 -211,307 -32,46 -72,87 -77,148 -1,14 -19,27 -26,42 -9,18 -15,38 -28,70 87,-20 159,-36 231,-53 14,-3 27,-10 41,-11 109,-5 219,-8 328,-12 20,-1 39,-1 59,-2 98,-8 196,-19 294,-23 118,-4 237,-2 355,-2 27,0 65,-5 64,35 0,37 -38,37 -65,38 -96,3 -192,2 -288,3 -132,1 -263,1 -395,23 -93,15 -190,7 -285,7 -73,0 -145,-2 -215,31 -45,21 -97,28 -147,39 -68,16 -85,33 -86,103 -1,31 5,62 6,93 2,76 5,152 5,228 1,93 -1,185 0,278 1,107 6,214 7,321 0,45 6,82 50,108 21,12 35,36 51,55 92,113 180,230 277,339 35,39 91,68 142,84 80,24 127,69 138,151 16,119 104,190 183,265 94,89 196,171 284,265 84,89 130,100 -10,205 -113,84 -217,180 -326,268 -48,38 -68,82 -64,146 18,352 37,704 45,1056 6,248 -4,496 -6,744 -1,105 -22,146 130,148 188,3 376,17 564,2 160,-12 321,-1 482,-1 127,0 253,0 380,-1 20,0 39,-3 59,-3 203,0 406,0 609,2 169,2 338,3 507,11 90,4 179,19 269,2 23,-4 50,9 74,14 -7,49 -34,57 -63,57 -92,-2 -185,23 -277,-10 -18,-6 -39,-4 -59,-2 -237,23 -473,-10 -709,-12 -129,-1 -259,7 -389,12 -105,5 -211,14 -316,17 -30,1 -59,-18 -89,-19 -84,-3 -167,-1 -264,-1 59,11 105,19 151,28 0,8 0,16 0,23 -28,4 -56,12 -84,11 -129,-7 -259,-17 -388,-26 -79,-6 -157,-12 -236,-18 -98,-7 -197,-16 -295,-21 -26,-1 -53,9 -87,15 -14,-8 -36,-27 -61,-35 -23,-8 -50,-6 -75,-8 -65,-4 -130,-4 -194,-10 -147,-14 -292,-3 -438,17 -91,13 -184,15 -276,71 -23,-342 23,-667 5,-993 32,28 30,64 30,103 -3,225 -4,451 -4,676 0,33 12,66 19,102 121,-12 242,-22 363,-36 155,-18 310,-9 464,7 151,15 158,14 158,-140 0,-285 7,-570 -3,-855 -12,-335 -39,-670 -57,-1005 -6,-115 -1,-231 -1,-353 -30,-7 -56,-19 -82,-20 -95,-3 -191,-5 -286,-4 -64,1 -72,11 -74,74 -2,48 -9,95 -6,143 1,32 10,66 23,95 22,49 16,72 -32,90 -10,4 -22,6 -33,6 -35,1 -78,12 -103,-4 -16,-10 -6,-61 -8,-94 -5,-90 -9,-180 -14,-270 -3,-60 -10,-70 -66,-77 -157,-18 -313,-34 -470,-50 -17,-2 -35,-2 -50,4 -41,17 -64,-1 -82,-35 -3,-3 -6,-6 -9,-9 -34,-86 -58,-176 -131,-241 -8,-7 -12,-19 -13,-30 -10,-108 -61,-189 -160,-244 11,-25 21,-47 32,-72 -11,-16 -23,-31 -32,-48 -29,-55 -68,-108 -81,-166 -29,-125 -87,-228 -192,-316 52,-54 11,-106 -10,-159 -6,-15 -20,-28 -26,-43 -27,-65 -61,-128 -77,-196 -26,-112 -62,-216 -157,-304 27,-11 49,-20 77,-32 -18,-35 -30,-75 -56,-102 -25,-25 -65,-36 -105,-56 27,-25 45,-41 59,-53 -11,-48 -21,-89 -31,-134 -20,-9 -42,-18 -72,-32 47,-42 55,-82 35,-137 -26,-70 -96,-29 -145,-70 37,-21 67,-38 98,-56 -11,-74 -45,-131 -100,-167 12,-36 34,-70 28,-96 -8,-30 -42,-53 -65,-79 8,-47 1,-92 0,-138 -2,-69 -68,-63 -127,-106 29,-17 50,-29 70,-41 3,-68 -18,-122 -86,-152 29,-82 6,-153 -30,-222 -9,-17 -14,-37 -18,-56 -15,-64 -31,-126 -104,-155 46,-101 26,-179 -69,-225 53,-125 -17,-207 -90,-293 42,-40 30,-90 2,-122 -45,-52 -49,-113 -56,-172 -10,-80 -45,-137 -121,-166 -4,-1 -5,-9 -9,-19 16,-19 33,-39 48,-57 -12,-86 -45,-155 -108,-206 34,-78 32,-97 -20,-211 -36,50 -76,94 -43,156 -46,61 -45,61 -43,148 0,11 -2,22 -5,32 -30,84 -60,168 -89,247 22,27 38,45 53,63 -37,64 -71,125 -104,183 61,83 61,82 -3,158 -12,14 -20,32 -28,45 22,30 40,55 59,81 -88,54 -131,140 -118,224 25,5 50,10 90,18 -79,84 -166,159 -94,272 -28,55 -55,104 -77,155 -7,16 -11,43 -2,54 28,37 12,70 -2,103 -16,39 -34,78 -50,117 -11,27 -18,54 12,76 33,24 27,50 5,80 -44,59 -51,129 -61,196 23,20 43,38 55,49 -43,81 -81,155 -120,230 26,18 44,31 60,41 -35,86 -65,161 -101,249 25,14 50,27 72,40 -102,133 -117,268 -52,352 -27,66 -54,130 -80,193 29,26 51,47 78,72 -25,22 -50,41 -40,78 3,10 -17,26 -27,39 -58,72 -125,139 -173,217 -102,165 -186,340 -300,498 -5,7 -11,15 -12,22 -9,91 -74,148 -129,211 -30,34 -59,66 -66,115 -3,18 -26,34 -41,49 -80,83 -165,162 -183,285 -3,17 -21,32 -32,48l1 0z"/>
  <path class="fil0" d="M4968 29581c0,-6 0,-12 0,-18 -39,2 -77,5 -116,7 0,4 1,7 1,11 38,0 77,0 115,0zm1697 28c0,2 0,4 0,6 58,0 115,0 173,0 0,-2 0,-4 0,-6 -58,0 -115,0 -173,0zm-354 -19c-1,7 -3,13 -4,20 70,3 140,7 210,10 0,-4 0,-9 1,-13 -69,-5 -138,-11 -207,-16zm10807 -1344c-7,56 -39,74 -87,73 -79,-2 -158,1 -237,-5 -188,-15 -370,11 -551,60 -72,19 -150,23 -226,25 -383,10 -754,94 -1124,183 -184,44 -369,81 -553,123 -225,51 -452,99 -675,157 -268,70 -540,115 -814,154 -98,14 -194,37 -291,55 -216,39 -433,76 -649,116 -147,27 -293,60 -440,86 -350,61 -702,105 -1058,117 -270,9 -540,39 -809,60 -81,6 -163,10 -244,18 -272,24 -544,52 -816,74 -182,15 -365,25 -548,33 -284,13 -568,21 -852,33 -59,3 -117,20 -175,21 -180,6 -361,14 -541,10 -307,-7 -613,-37 -921,-36 -140,0 -280,-27 -420,-42 -11,-1 -22,0 -34,0 5,10 10,18 20,38 -72,8 -137,23 -203,23 -138,-1 -276,-3 -413,-18 -108,-12 -214,-9 -320,7 -144,23 -287,12 -431,12 -135,0 -270,2 -405,1 -231,-3 -462,-9 -693,-10 -87,0 -174,12 -262,15 -129,4 -259,5 -388,6 -59,0 -118,-4 -177,-6 -135,-6 -270,-14 -405,-16 -101,-2 -203,4 -304,7 -39,1 -79,7 -118,6 -176,-7 -349,21 -522,41 -134,16 -269,25 -404,36 -6,1 -13,-8 -25,-16 44,-51 103,-58 159,-65 210,-24 420,-50 630,-64 211,-14 422,-20 634,-18 222,2 445,19 667,24 104,2 209,-5 312,-16 183,-20 366,-9 549,-1 138,6 276,-8 414,-11 87,-2 174,-4 262,-3 231,3 462,3 693,-15 95,-8 191,9 286,12 45,2 91,5 134,-5 207,-47 414,-37 620,-1 33,6 67,11 101,12 186,6 372,10 558,15 53,2 107,4 160,11 43,5 82,9 117,-26 13,-13 42,-17 63,-16 67,2 134,8 202,13 8,1 17,3 25,2 152,-20 303,7 455,3 163,-4 327,-12 490,-19 279,-12 558,-19 836,-39 264,-18 527,-50 791,-74 95,-9 191,-13 287,-21 258,-22 517,-46 775,-65 132,-10 265,-15 397,-17 314,-5 623,-57 931,-109 286,-48 572,-98 858,-150 111,-20 220,-49 331,-69 208,-36 418,-63 626,-102 149,-28 295,-73 444,-106 319,-72 639,-140 958,-211 239,-53 477,-114 718,-159 213,-40 428,-70 646,-70 50,0 102,-5 150,-19 223,-66 449,-77 678,-51 49,5 99,-4 157,-7z"/>
  <path class="fil0" d="M1219 10321c-7,-40 16,-47 38,-49 181,-19 349,-90 522,-139 152,-43 307,-75 460,-113 85,-21 169,-45 254,-66 85,-21 170,-41 255,-59 172,-35 336,-96 496,-166 33,-15 62,-39 93,-59 45,-28 87,-63 135,-82 205,-79 411,-157 619,-229 184,-63 372,-113 557,-174 262,-88 521,-183 784,-271 230,-77 462,-146 694,-219 108,-34 214,-73 323,-99 225,-54 451,-103 676,-152 198,-44 395,-94 595,-128 314,-53 628,-105 945,-138 198,-21 402,-15 594,47 131,42 262,54 396,70 100,12 199,34 302,32 84,-2 169,2 252,-3 149,-9 296,-33 441,-72 397,-108 801,-190 1205,-268 169,-32 335,-76 502,-117 195,-48 394,-68 593,-87 253,-24 506,-31 760,-35l13 0 2 0 7 0c31,0 63,2 95,13 -9,3 -19,8 -28,8 -155,8 -310,14 -465,24 -174,11 -348,29 -522,40 -292,18 -570,103 -852,171 -211,50 -426,84 -638,129 -138,29 -274,66 -411,98 -181,43 -360,96 -543,125 -220,35 -442,46 -665,2 -93,-18 -190,-16 -285,-27 -38,-4 -78,-12 -112,-29 -98,-48 -200,-72 -310,-71 -50,1 -101,-12 -151,-11 -110,2 -220,2 -328,16 -282,38 -563,81 -844,128 -169,29 -337,70 -505,106 -165,35 -332,67 -496,106 -140,33 -279,70 -416,112 -305,94 -609,188 -911,289 -252,84 -500,177 -750,264 -107,37 -216,65 -323,100 -263,86 -525,173 -775,292 -81,39 -154,94 -236,132 -180,82 -367,141 -562,180 -191,38 -378,90 -566,140 -278,73 -556,148 -833,222 -26,7 -53,11 -79,16z"/>
  <path class="fil0" d="M9188 17550c-7,-122 -14,-239 -22,-357 -3,-41 -20,-53 -60,-50 -40,3 -53,29 -51,63 5,95 14,189 19,284 5,88 24,99 114,59zm-1567 -417c-35,-3 -59,-7 -83,-8 -44,-3 -63,21 -61,62 8,123 14,247 29,369 9,73 26,78 97,54 10,-3 18,-11 18,-11 0,-160 0,-310 0,-466zm2212 -56c-3,30 -24,53 -50,44 -91,-34 -179,5 -268,4 -65,-1 -130,0 -195,3 -59,3 -73,16 -81,76 -15,105 12,207 28,310 4,25 14,49 18,74 5,29 -6,54 -38,55 -75,2 -150,1 -231,1 -3,-6 -9,-16 -10,-26 -9,-126 -18,-253 -24,-379 -4,-88 -6,-95 -99,-96 -203,-1 -406,3 -609,4 -149,0 -299,-2 -448,-3 -20,0 -40,-1 -59,1 -62,4 -71,14 -77,76 -11,113 -4,225 16,336 10,57 22,116 -10,178 -36,-12 -68,-26 -102,-32 -33,-6 -68,0 -101,-6 -47,-9 -65,-39 -68,-102 -7,-138 -14,-276 -22,-414 -1,-19 -6,-38 -11,-68 -30,0 -57,-1 -84,0 -242,6 -484,11 -726,18 -53,2 -106,11 -160,14 -41,2 -50,-18 -30,-53 0,0 -1,0 -1,0 183,-7 366,-14 549,-22 20,-1 39,-4 59,-4 161,-3 321,-10 482,-9 135,1 270,13 405,17 228,6 457,10 685,13 84,1 170,-15 253,-7 229,24 456,-14 684,-15 53,0 107,-5 159,-13 55,-9 106,-3 157,18 3,3 6,6 9,9z"/>
  <path class="fil0" d="M12716 22409c-1,-17 -2,-31 -3,-45 -95,-7 -189,-13 -284,-22 -93,-9 -193,19 -268,-35 -11,-124 -23,-238 -31,-352 -3,-49 3,-98 6,-160 41,28 34,54 34,77 -2,62 -3,123 31,181 11,19 7,48 8,73 1,36 0,72 0,110 97,-15 191,-30 284,-44 42,-6 85,-7 126,-16 101,-21 113,-44 104,-146 -7,-78 -4,-157 -4,-235 0,-14 12,-28 20,-47 29,65 37,413 18,458 -164,21 -325,41 -485,61 0,5 0,10 0,15 64,6 129,13 193,17 64,4 129,5 193,6 39,0 79,-6 118,-3 132,10 240,-108 227,-254 -11,-115 -23,-229 -33,-344 -2,-25 0,-50 0,-74 -166,-140 -585,-121 -754,43 162,5 297,86 453,75 2,6 3,12 5,17 -11,13 -21,35 -34,36 -44,4 -93,13 -132,-2 -90,-35 -179,-61 -275,-70 -33,-3 -64,-28 -108,-48 21,-26 30,-48 46,-57 134,-81 271,-152 436,-137 64,6 129,0 194,-1 71,-2 131,31 190,64 31,17 37,40 33,83 -9,88 -9,181 11,267 34,147 18,284 -42,419 -7,15 -29,35 -42,34 -77,-6 -141,29 -208,58 -5,2 -11,-1 -25,-2z"/>
  <path class="fil0" d="M11400 18665c28,-80 47,-144 7,-210 -4,-7 11,-26 19,-41 46,47 46,47 47,209 45,26 97,20 147,20 49,0 93,8 138,29 105,46 162,20 213,-55 40,-57 93,-105 110,-177 6,-27 32,-53 56,-72 180,-140 386,-208 614,-198 57,2 113,27 181,44 9,-73 33,-143 20,-214 -13,-75 -2,-145 8,-218 20,-142 33,-285 49,-428 7,-64 -11,-116 -70,-151 -34,-20 -48,-50 -49,-92 -1,-84 -9,-169 -11,-253 -1,-43 -7,-89 42,-138 4,37 8,60 9,83 1,79 1,158 0,237 -1,51 12,92 59,122 55,35 74,91 66,155 -20,156 -44,312 -61,469 -8,66 -4,134 -5,201 0,25 4,50 1,75 -9,99 6,185 83,261 107,105 186,232 263,360 20,33 24,81 21,121 -10,118 -17,237 30,348 29,70 39,140 37,214 -2,55 0,110 -10,167 -20,-47 -36,-96 -25,-147 12,-58 1,-112 -19,-166 -33,-87 -61,-176 -65,-270 -1,-19 -4,-41 -14,-56 -17,-26 -13,-48 3,-70 29,-40 21,-77 -3,-117 -75,-126 -161,-243 -265,-347 -140,-139 -305,-169 -488,-122 -112,29 -223,59 -322,125 -60,40 -105,86 -125,162 -24,93 -94,162 -176,206 -37,20 -100,21 -138,3 -94,-43 -193,-29 -289,-46 -26,-5 -52,-13 -87,-22z"/>
  <path class="fil0" d="M4833 20476c5,-27 15,-54 14,-81 -3,-101 -9,-201 -13,-302 -2,-45 0,-90 -16,-136 0,59 0,119 0,178 -6,0 -12,0 -18,-1 4,-365 -61,-727 -22,-1094 7,172 14,343 20,515 6,0 12,-1 19,-1 -7,-207 -15,-414 -23,-628 -9,12 -14,17 -26,34 0,-24 -5,-41 1,-53 52,-110 21,-220 8,-331 -12,-103 -23,-207 -30,-311 -17,-247 -34,-494 -47,-741 -3,-61 6,-123 14,-184 3,-24 19,-54 50,-44 15,5 31,34 31,52 5,120 5,241 10,361 7,157 21,315 25,472 3,126 -4,253 -7,379 0,25 -4,51 1,75 21,100 21,199 17,301 -7,188 3,377 6,565 1,93 2,186 3,279 -8,-23 -16,-46 -24,-69 -3,1 -7,1 -10,2 6,44 13,88 19,132 4,0 7,-1 11,-1 1,-22 2,-44 4,-66 6,38 17,76 18,115 8,171 12,342 20,513 1,30 13,59 21,94 -34,10 -66,29 -75,-27l-1 0z"/>
  <path class="fil0" d="M12989 16766c-4,-10 -10,-20 -10,-30 -7,-107 -11,-214 -20,-320 -4,-48 12,-82 52,-107 31,-19 61,-39 94,-60 77,54 121,129 163,205 8,15 6,40 0,57 -36,105 -11,213 -13,319 -1,54 51,91 105,79 100,-22 200,-34 302,-13 3,1 6,1 8,0 139,-21 277,-42 416,-63 30,-5 44,-24 42,-53 -3,-42 -7,-84 -11,-126 -7,-75 -11,-149 1,-223 7,-1 14,-2 21,-3 4,19 9,37 11,56 6,81 8,163 17,244 10,99 24,108 124,103 14,-1 27,-4 47,-7 3,-68 5,-134 -7,-200 -9,-52 -13,-106 -21,-159 -8,-52 19,-80 63,-95 42,-14 85,-26 128,-39 -47,-90 -106,-110 -185,-65 -51,29 -103,57 -155,85 -3,2 -10,-3 -15,-4 17,-60 23,-64 258,-190 43,34 90,70 135,107 23,18 42,40 28,72 -12,30 -32,53 -68,56 -25,3 -51,4 -75,11 -65,17 -76,33 -72,102 1,14 2,28 4,42 13,103 27,206 40,309 2,16 -3,32 -4,47 -60,0 -116,0 -171,0 -155,1 -308,11 -460,43 -41,9 -84,10 -126,8 -136,-8 -270,0 -401,46 -17,6 -37,5 -54,6 -23,-48 27,-53 40,-85 -5,-97 -11,-201 -16,-305 -1,-11 -2,-24 2,-33 38,-86 -3,-150 -54,-213 -20,-24 -36,-58 -73,-44 -37,14 -74,35 -77,81 -3,31 1,62 3,93 3,79 7,158 10,236 0,10 -6,20 -9,29 -5,0 -11,0 -16,-1z"/>
  <path class="fil0" d="M15463 21882c-21,94 -7,186 -3,278 5,109 -3,219 -5,329 0,17 -4,35 1,51 58,195 2,392 13,588 11,202 23,404 28,606 2,85 -12,171 -19,271 -109,-74 -186,0 -255,41 -210,123 -432,220 -651,322 -199,92 -408,162 -613,239 -36,13 -78,36 -126,1 13,-14 21,-31 33,-33 294,-56 557,-196 826,-317 177,-80 354,-161 518,-267 42,-27 92,-42 139,-61 63,-25 91,-69 88,-137 -4,-93 -4,-186 -6,-279 -5,-186 -10,-371 -14,-557 -1,-28 9,-56 9,-84 2,-56 10,-114 -1,-168 -30,-151 -33,-301 -23,-454 5,-73 -4,-146 -6,-219 -2,-59 16,-110 68,-147z"/>
  <path class="fil0" d="M14597 19901c-25,8 -44,19 -63,20 -113,6 -225,14 -338,13 -135,-1 -270,-12 -405,-17 -177,-6 -355,-10 -532,-16 -101,-4 -202,-12 -303,-18 -104,-5 -208,-11 -312,-13 -273,-7 -547,-10 -820,-19 -197,-6 -393,-20 -590,-29 -30,-1 -61,11 -91,10 -65,-2 -129,-10 -193,-13 -163,-6 -326,-10 -489,-16 -93,-4 -185,-11 -278,-17 -6,0 -12,-9 -27,-21 25,-8 41,-19 58,-19 53,0 107,4 160,7 22,1 45,6 67,6 155,2 310,-7 464,7 251,22 503,-3 752,22 242,24 484,18 726,26 172,6 344,4 515,19 295,26 591,31 887,34 152,2 304,12 456,13 90,1 180,-9 270,-13 27,-1 57,-12 88,36z"/>
  <path class="fil0" d="M9100 24047c9,-58 1,-72 -47,-61 -34,7 -66,26 -102,41 6,94 11,180 16,266 2,31 5,62 56,64 -3,-72 -8,-141 -9,-209 0,-36 5,-73 14,-107 4,-14 26,-24 40,-36 10,15 21,29 31,44 -26,85 -23,165 20,223 -8,-86 -14,-155 -21,-224zm-15 347c30,7 57,22 79,16 94,-25 183,28 276,16 11,-1 22,1 34,2 25,0 51,6 43,36 -4,15 -30,33 -48,35 -36,3 -73,-3 -109,-6 -120,-11 -241,-23 -361,-35 -76,-7 -91,-21 -98,-99 -8,-84 -13,-168 -20,-260 -23,9 -37,16 -52,19 -12,3 -26,1 -50,1 14,-25 19,-46 32,-55 73,-48 148,-92 222,-137 7,-4 16,-7 24,-8 109,-8 218,-19 327,-23 71,-3 128,33 177,86 28,30 62,54 108,94 6,14 -7,40 -36,49 -20,6 -51,-1 -68,-14 -38,-29 -69,-67 -104,-99 -66,-61 -165,-73 -243,-33 -44,23 -46,62 -41,102 9,72 20,145 30,217 1,11 -2,22 -2,31 -33,34 -98,0 -119,68z"/>
  <path class="fil0" d="M14333 19627c36,-11 71,-29 108,-32 121,-10 242,-13 362,-21 62,-4 118,9 167,46 76,58 151,117 226,176 36,28 70,58 57,113 -2,9 6,22 12,30 64,92 97,196 109,306 16,150 27,301 44,451 4,38 14,78 33,111 36,62 57,125 57,198 0,154 10,309 14,463 1,26 13,68 -25,70 -46,2 -32,-44 -33,-72 -9,-157 -15,-315 -27,-472 -3,-40 -20,-82 -40,-117 -36,-63 -48,-128 -51,-201 -7,-162 -4,-327 -49,-485 -20,-72 -59,-138 -90,-207 -7,-15 -23,-31 -21,-45 7,-59 -36,-85 -72,-114 -59,-48 -118,-96 -180,-140 -49,-36 -104,-48 -167,-42 -106,11 -213,14 -320,18 -35,1 -71,-6 -107,-9 -2,-9 -4,-18 -6,-27z"/>
  <path class="fil0" d="M14539 22081c0,-39 0,-78 0,-117 1,-96 0,-191 5,-286 4,-65 -8,-98 -71,-114 -73,-18 -149,-28 -224,-36 -34,-4 -69,4 -112,7 49,87 47,168 46,251 -1,87 2,175 11,261 8,79 13,80 90,71 83,-10 165,-23 256,-36zm-405 43c3,-24 7,-43 7,-62 -4,-113 -8,-225 -13,-337 -1,-28 -2,-57 -12,-83 -27,-74 -91,-107 -169,-91 -29,6 -58,16 -95,12 8,-12 14,-29 25,-34 35,-17 71,-36 109,-42 148,-22 296,-36 445,-4 121,25 121,24 200,131 -69,88 -62,191 -50,295 7,61 15,123 20,184 1,18 -7,37 -9,46 -116,17 -223,38 -331,47 -90,8 -180,4 -270,4 -96,-1 -96,-1 -179,39 -5,-32 -10,-60 -13,-88 -18,-185 -49,-370 12,-553 44,53 6,115 20,171 14,57 14,117 17,176 3,61 1,121 1,189 99,0 188,0 285,0z"/>
  <path class="fil0" d="M6882 24167c-40,26 -79,54 -120,78 -35,21 -47,79 -103,70 -20,-33 0,-52 17,-69 134,-127 288,-213 474,-237 96,-12 167,42 240,88 47,30 91,65 134,102 12,10 14,32 20,49 -20,6 -42,20 -59,15 -26,-7 -48,-28 -72,-43 -14,-9 -29,-16 -50,-27 -58,66 -38,138 -24,208 4,21 21,40 27,61 6,20 13,54 4,59 -18,11 -45,10 -68,11 -10,0 -21,-9 -32,-11 -30,-4 -61,-10 -92,-8 -94,4 -189,11 -288,17 -27,-126 -50,-243 -11,-363 38,2 51,16 47,59 -5,58 4,117 9,175 2,32 24,46 54,55 94,28 181,-7 262,-17 7,-84 11,-159 22,-233 10,-67 8,-86 -55,-111 -35,-14 -79,-27 -113,-17 -77,23 -151,59 -225,90z"/>
  <path class="fil0" d="M8254 21756c82,-3 163,40 240,-11 -6,-115 -11,-227 -18,-339 -1,-13 -5,-29 -13,-38 -29,-35 -116,-49 -157,-25 -63,36 -100,83 -89,165 11,80 -8,163 37,248zm341 -342c-45,36 -49,77 -42,129 13,99 12,201 17,306 -58,0 -111,2 -162,-1 -64,-3 -129,-10 -193,-18 -33,-4 -57,-18 -57,-60 -1,-104 -6,-208 -7,-312 0,-86 83,-180 173,-202 100,-24 195,16 243,103 8,15 16,29 28,53z"/>
  <path class="fil0" d="M4082 21635c20,17 31,33 37,32 16,-5 29,-17 44,-27 -8,-9 -17,-25 -25,-25 -15,0 -31,10 -57,20zm478 94c-7,-29 -16,-58 -19,-87 -2,-16 3,-43 14,-49 27,-15 39,7 46,31 13,44 26,89 -2,130 -11,17 -31,38 -49,40 -156,22 -311,9 -471,-1 24,-40 24,-40 60,-56 -28,-7 -64,-6 -81,-24 -19,-20 -26,-56 -27,-85 -2,-52 4,-105 11,-158 2,-12 19,-23 38,-44 0,49 0,84 0,119 96,13 122,-19 108,-144 -23,-9 -47,-19 -83,-34 25,-14 38,-28 51,-28 107,0 214,-4 319,8 92,10 111,50 94,155 -39,-23 -9,-66 -47,-99 -71,-6 -159,-13 -256,-21 0,70 3,131 -1,191 -4,56 -16,112 -26,179 98,-20 205,23 321,-24z"/>
  <path class="fil0" d="M5376 21695c-39,5 -66,-3 -69,-50 -5,-84 -13,-168 -19,-252 -6,-83 14,-131 110,-128 67,2 135,-10 202,-7 73,4 109,40 94,110 -18,87 6,167 18,249 4,25 7,50 6,75 0,8 -12,20 -21,22 -9,2 -19,-7 -29,-12 -2,-1 -3,-5 -3,-7 2,-87 -46,-168 -29,-256 3,-14 5,-28 6,-42 1,-55 -12,-71 -67,-72 -117,-3 -117,-2 -120,117 -2,94 16,189 25,283 64,34 136,-10 199,40 -20,13 -33,29 -49,32 -101,24 -242,14 -303,-19 -11,-42 73,-33 46,-84 23,-17 49,-38 31,-69 -27,-47 -12,-92 -6,-140 6,-50 8,-100 11,-150 -62,-1 -71,6 -66,57 9,101 21,201 31,302z"/>
  <path class="fil0" d="M8271 19493c-62,-6 -68,-12 -69,-58 -2,-92 -4,-184 -7,-289 42,-32 92,-78 149,-112 59,-35 88,-24 128,33 40,57 55,122 54,191 -2,73 -13,146 19,217 9,21 3,50 -2,75 -6,28 -28,49 -55,39 -83,-29 -165,-27 -250,-15 -4,1 -8,-6 -13,-10 -14,-42 30,-48 45,-71 58,0 116,0 177,0 3,-14 9,-25 8,-35 -8,-101 -14,-203 -28,-303 -8,-57 -55,-70 -100,-31 -38,33 -57,75 -56,126 2,81 0,162 0,244z"/>
  <path class="fil0" d="M11658 15395c1,12 -1,24 3,27 51,35 108,38 166,26 8,-2 9,-29 16,-53 -67,0 -122,0 -186,0zm218 -313c-1,0 -1,0 -2,0 0,-17 0,-34 0,-50 -1,-91 -28,-116 -117,-106 -17,2 -33,8 -49,10 -55,9 -79,41 -91,95 -19,87 10,167 32,247 5,18 36,34 58,42 23,7 50,5 75,3 64,-4 74,-13 81,-73 6,-56 10,-112 14,-168zm-261 422c-10,-85 -18,-160 -27,-235 -3,-31 -6,-62 -9,-92 -3,-36 -9,-73 -9,-109 1,-147 80,-221 229,-218 69,1 103,30 117,98 4,19 8,39 7,59 -4,132 -8,264 -15,397 -5,100 -24,116 -125,113 -28,-1 -55,-10 -83,-12 -25,-2 -50,0 -86,0z"/>
  <path class="fil0" d="M10721 21857c0,-68 3,-132 -2,-196 -2,-28 -13,-63 -55,-61 -36,2 -57,25 -60,59 -6,66 -8,131 -11,197 47,0 83,0 128,0zm98 -330c-9,63 -20,112 -22,161 -3,70 -2,140 5,209 3,27 29,52 47,84 -18,10 -33,24 -51,27 -79,15 -157,45 -236,-5 -26,-17 -45,-30 -44,-64 4,-87 2,-175 9,-262 9,-105 36,-129 144,-138 42,-4 84,-6 147,-11z"/>
  <path class="fil0" d="M5785 17712c-7,-121 -14,-239 -21,-356 -2,-31 -20,-44 -50,-44 -31,1 -59,10 -61,44 -3,50 1,100 2,151 0,24 7,51 -2,72 -46,110 -19,152 100,145 8,0 15,-5 32,-12zm-234 -130c13,-88 27,-176 38,-265 5,-39 27,-61 63,-69 38,-9 77,-18 116,-21 58,-4 83,21 85,78 0,8 0,17 -2,25 -25,112 -4,223 9,335 2,17 6,34 5,50 -2,51 -21,70 -72,72 -42,2 -84,3 -126,0 -79,-5 -104,-32 -106,-110 -1,-31 0,-62 0,-93 -3,-1 -6,-1 -9,-2z"/>
  <path class="fil0" d="M11929 16513c7,31 13,61 19,91 7,38 27,60 68,62 17,1 33,7 50,8 75,6 101,-15 93,-90 -15,-148 -8,-192 -199,-188 -74,2 -148,17 -228,26 23,-40 58,-65 98,-69 80,-8 160,-30 242,-12 80,17 108,43 119,128 9,66 17,133 27,205 -46,68 -114,83 -201,68 -60,-11 -123,-1 -185,-2 -32,-1 -64,-6 -103,-10 42,-79 119,-30 171,-73 -3,-22 -7,-48 -11,-81 -48,-3 -93,-7 -137,-8 -38,-1 -58,16 -50,58 4,23 4,46 7,83 -62,-62 -64,-176 -13,-288 36,138 145,70 235,92z"/>
  <path class="fil0" d="M5763 19531c64,-20 67,-20 68,-62 1,-78 0,-156 -3,-234 -1,-17 -12,-34 -20,-55 -48,22 -79,56 -84,96 -11,85 -21,174 40,255zm-100 71c-11,-100 -24,-194 -31,-288 -3,-35 -4,-81 15,-104 34,-42 81,-78 130,-103 43,-22 91,9 108,66 16,56 27,115 34,173 7,64 6,129 11,193 3,34 -6,59 -40,63 -66,8 -132,10 -199,14 -7,0 -15,-7 -27,-13z"/>
  <path class="fil0" d="M6043 26694c-33,-2 -68,2 -98,-8 -109,-38 -221,-71 -322,-125 -197,-104 -404,-167 -622,-208 -307,-57 -606,-23 -904,51 -18,4 -36,7 -66,13 26,-48 64,-54 97,-63 468,-121 930,-103 1375,89 180,78 350,178 543,227 -1,8 -2,15 -3,23z"/>
  <path class="fil0" d="M15646 20280c-9,-30 -14,-63 -28,-91 -57,-123 -61,-254 -75,-386 -17,-156 -33,-319 -150,-448 -53,-59 -115,-97 -184,-130 -27,-13 -51,-31 -73,-51 -42,-37 -82,-77 -123,-116 -12,-12 -29,-20 -37,-34 -8,-15 -7,-34 -9,-51 15,1 33,-2 45,4 22,12 41,30 59,47 80,76 165,144 264,196 118,61 166,180 221,291 -15,125 65,238 43,366 -13,74 11,150 42,222 24,56 49,113 26,176 -7,2 -15,4 -22,6z"/>
  <path class="fil0" d="M10986 15461c-25,-58 -67,-83 -98,-68 -10,5 -20,21 -20,31 0,11 12,29 20,30 28,5 58,4 97,6zm-146 -265c-3,24 -5,35 -5,46 -4,69 5,79 73,81 11,0 23,0 34,0 34,1 56,-14 54,-49 -5,-101 -10,-202 -20,-302 -5,-43 -47,-57 -84,-34 -47,29 -70,71 -64,128 5,47 9,95 13,130zm6 327c-75,-112 -53,-225 -53,-336 0,-45 -10,-89 -14,-134 -8,-85 47,-169 127,-194 53,-17 115,30 123,96 4,33 1,67 4,101 5,78 5,158 19,235 11,63 3,122 -6,183 -6,42 -28,59 -68,57 -47,-2 -94,-6 -132,-8z"/>
  <path class="fil0" d="M16184 18807c-16,37 -29,76 -47,111 -31,61 -58,123 -54,193 2,25 17,50 30,73 19,34 44,64 62,98 67,125 81,261 93,399 10,125 29,250 49,373 7,43 31,83 44,125 4,15 -4,34 -6,51 -14,-6 -35,-7 -42,-18 -19,-31 -38,-63 -48,-98 -12,-46 -23,-95 -21,-142 6,-153 -36,-301 -52,-451 -9,-87 -56,-170 -86,-254 -3,-8 -9,-16 -15,-20 -78,-40 -67,-101 -53,-172 20,-96 63,-180 108,-265 3,-6 13,-9 20,-13 7,3 13,6 20,8z"/>
  <path class="fil0" d="M6445 26477c28,7 58,10 83,23 194,102 403,91 611,79 51,-3 101,-7 152,-7 279,1 557,-18 834,-48 159,-17 319,-17 479,-25 0,7 1,13 1,20 -136,13 -271,26 -407,38 -171,16 -342,30 -513,46 -8,1 -17,2 -25,2 -281,7 -563,15 -844,21 -140,3 -259,-60 -378,-124 2,-9 4,-17 6,-25z"/>
  <path class="fil0" d="M11682 21337c-7,35 -14,67 -23,114 57,-28 98,-45 126,-100 -37,-5 -65,-9 -102,-15zm155 73c-162,60 -195,114 -162,262 3,14 5,28 8,41 20,83 60,104 153,79 0,-126 0,-253 0,-383zm-164 -146c71,16 133,30 200,45 19,93 5,185 4,277 0,50 8,99 11,149 2,30 -1,61 -1,91 0,47 -28,56 -67,52 -17,-2 -33,-8 -50,-8 -37,0 -74,2 -119,4 0,1 -4,-8 -4,-18 -5,-64 -3,-129 -16,-191 -22,-110 -14,-218 8,-326 5,-24 20,-45 34,-75z"/>
  <path class="fil0" d="M17324 20607c-6,8 -10,15 -13,15 -126,2 -232,63 -339,118 -274,139 -538,294 -799,456 -139,87 -302,136 -454,201 -4,2 -10,-3 -21,-6 10,-33 39,-43 66,-55 52,-22 104,-43 157,-63 237,-89 434,-249 656,-366 184,-97 369,-192 555,-287 37,-19 79,-31 119,-43 30,-9 60,-8 75,28z"/>
  <path class="fil0" d="M6691 20589c-4,-31 -12,-62 -12,-93 -1,-265 0,-530 -2,-794 -2,-166 -12,-332 -12,-498 0,-151 7,-301 20,-452 54,602 10,1206 45,1808 1,9 -9,18 -15,27 -8,0 -16,1 -24,1z"/>
  <path class="fil0" d="M17143 21865c-21,10 -41,20 -62,29 -231,99 -456,206 -662,352 -152,107 -311,203 -461,312 -122,90 -236,192 -352,289 -21,17 -36,41 -85,40 26,-28 41,-46 59,-62 170,-152 342,-300 542,-414 112,-64 214,-146 319,-221 197,-139 416,-235 632,-339 18,-9 41,-9 61,-13 3,9 6,18 10,27z"/>
  <path class="fil0" d="M12226 14943c-46,20 -46,59 -44,94 6,115 15,231 24,346 3,33 18,57 57,63 5,-13 13,-23 13,-33 1,-124 2,-247 0,-371 -1,-35 -6,-74 -50,-99zm108 630c-57,-32 -109,-57 -157,-89 -12,-8 -14,-35 -15,-54 -9,-112 -15,-224 -24,-336 -5,-64 1,-124 35,-179 39,-62 101,-61 128,6 16,40 21,87 23,132 3,67 -3,135 -2,203 2,100 8,199 13,318z"/>
  <path class="fil0" d="M12724 16772c-14,-128 12,-262 -12,-400 -19,8 -31,10 -33,15 -51,100 -82,202 -33,314 6,14 -2,34 -4,51 -17,-6 -36,-9 -49,-19 -10,-7 -16,-24 -17,-37 -8,-125 -1,-249 77,-355 17,-24 42,-42 74,-73 15,34 32,55 34,77 5,67 5,134 7,201 2,53 3,106 6,159 1,28 8,56 7,84 -3,65 -18,76 -83,71 -34,-3 -68,-1 -100,-10 -13,-3 -22,-27 -32,-41 15,-7 32,-22 46,-20 37,5 72,13 113,-17z"/>
  <path class="fil0" d="M12614 15333c-5,0 -9,-1 -14,-1 -1,13 -3,26 -4,39 5,0 9,1 14,1 1,-13 3,-26 4,-39zm-24 -298c-20,76 -21,152 3,226 27,-76 18,-152 -3,-226zm8 -135c46,13 45,49 47,82 8,135 17,269 20,404 1,55 -8,110 -20,164 -3,15 -30,32 -48,35 -12,2 -28,-20 -41,-32 -3,-3 -2,-11 -2,-16 -6,-169 -12,-338 -17,-506 -1,-52 13,-100 61,-129z"/>
  <path class="fil0" d="M13827 26485c-51,9 -103,22 -154,27 -340,35 -674,102 -1007,170 -122,25 -242,15 -354,-45 -13,-7 -24,-19 -32,-45 20,2 42,-2 58,7 140,72 285,54 430,26 169,-32 337,-70 506,-98 147,-24 296,-40 444,-57 35,-4 72,-1 108,-1 0,5 1,10 1,16z"/>
  <path class="fil0" d="M10488 19186c9,71 -13,131 22,194 41,-68 36,-149 -22,-194zm-84 239c0,-92 -3,-173 1,-253 2,-53 24,-66 78,-57 22,3 44,10 65,16 41,10 62,37 63,78 0,67 0,134 -2,201 -1,34 -21,54 -55,48 -49,-8 -97,-21 -150,-33z"/>
  <path class="fil0" d="M6692 18659c-1,-106 -3,-213 -4,-319 0,-17 1,-34 -2,-50 -39,-204 -22,-410 -15,-616 1,-39 -6,-79 -7,-118 -1,-56 -3,-113 0,-169 2,-38 5,-79 50,-115 5,25 11,41 10,57 -2,64 -8,129 -10,193 -5,143 -10,287 -12,431 -1,73 10,146 11,219 2,163 1,325 1,488 -7,0 -14,0 -21,-1z"/>
  <path class="fil0" d="M15027 16877c-15,9 -30,25 -45,26 -115,5 -230,14 -342,-27 -43,-16 -59,-37 -58,-86 2,-95 -6,-190 -13,-285 -5,-66 -6,-75 23,-126 5,2 13,4 13,7 6,109 12,218 17,327 4,79 12,97 87,111 77,14 156,16 233,23 26,2 52,2 78,3 2,9 4,18 6,27z"/>
  <path class="fil0" d="M4609 20254c-3,-1 -5,-1 -8,-2 0,13 0,27 0,40 3,0 5,0 8,0 0,-13 0,-25 0,-38zm-15 159c0,2 0,4 0,6 12,0 25,0 37,0 0,-3 0,-6 0,-9 -12,1 -25,2 -37,2zm150 -16c-29,33 -46,55 -66,74 -41,39 -98,43 -145,12 -31,-21 -38,-50 -23,-81 30,-59 73,-111 82,-180 2,-13 27,-23 47,-39 10,21 23,35 23,49 -3,67 6,127 82,165z"/>
  <path class="fil0" d="M12002 26771c-76,16 -137,1 -191,-26 -189,-92 -387,-153 -592,-194 -11,-2 -21,-7 -31,-13 -4,-2 -4,-9 -11,-24 295,23 550,151 826,257z"/>
  <path class="fil0" d="M13058 16804c6,-141 -44,-279 -24,-418 7,-1 15,-1 22,-2 3,15 8,29 9,44 11,104 21,207 32,311 2,20 4,39 6,59 3,37 -16,58 -50,68 -36,11 -53,0 -83,-55 29,-2 54,-4 88,-7z"/>
  <path class="fil0" d="M11102 13958c196,-81 401,-19 604,-40 -12,8 -24,21 -36,22 -64,4 -129,6 -193,8 -87,3 -174,7 -261,10 -38,1 -76,0 -114,0z"/>
  <path class="fil0" d="M12445 21127c9,-18 17,-27 16,-35 -1,-6 -13,-12 -21,-15 -2,-1 -12,11 -12,17 1,9 8,16 17,34zm-1 -136c92,68 95,86 37,157 -28,34 -51,37 -82,8 -34,-32 -41,-76 -12,-113 15,-19 36,-34 57,-53z"/>
  <path class="fil0" d="M4614 17560c6,106 13,195 16,284 1,16 -14,32 -30,46 -37,-68 -20,-141 -24,-211 -2,-38 3,-76 38,-119z"/>
  <path class="fil0" d="M11170 11067c-8,-63 -25,-116 9,-170 58,78 57,134 -9,170z"/>
  <path class="fil0" d="M8240 24395c-39,-2 -78,-5 -125,-8 51,-49 64,-49 125,8z"/>
  <path class="fil0" d="M10154 17810c0,-81 0,-161 0,-242 3,0 5,0 8,0 0,80 0,160 0,240 -3,1 -5,1 -8,2z"/>
  <path class="fil0" d="M14469 16878c37,-4 74,-10 105,48 -44,-11 -77,-19 -111,-27 2,-7 4,-14 6,-21z"/>
  <path class="fil0" d="M10151 18308c0,73 0,147 0,220l1 -1c-27,-73 -24,-146 0,-219l-1 -1z"/>
  <path class="fil0" d="M4834 20475c-11,-51 -22,-102 -34,-161 36,37 36,37 33,162 0,0 1,0 1,-1z"/>
  <path class="fil0" d="M10150 18528c28,37 17,77 1,118 0,-39 0,-79 0,-118 0,0 -1,1 -1,1z"/>
  <path class="fil0" d="M14600 26530c16,-8 32,-16 49,-24 3,6 6,11 8,17 -16,8 -32,16 -49,24 -3,-6 -6,-11 -8,-17z"/>
  <path class="fil0" d="M10168 17936c-3,15 -7,30 -10,45 -4,-1 -9,-2 -13,-3 4,-15 8,-30 11,-45 4,1 8,2 12,3z"/>
  <path class="fil0" d="M10151 18309c0,-28 0,-55 0,-83 5,1 11,1 16,2 -6,27 -11,54 -17,81 0,0 1,1 1,1z"/>
  <path class="fil0" d="M12879 19708c12,2 23,4 35,6 0,4 -1,7 -1,11 -12,-1 -24,-3 -36,-4 1,-4 1,-9 2,-13z"/>
  <path class="fil1" d="M11397 10781c-22,28 -45,21 -72,11 36,-25 36,-25 72,-11z"/>
  <path class="fil1" d="M11951 19653c25,0 50,0 75,0 0,2 0,3 0,5 -25,0 -50,0 -75,0 0,-2 0,-3 0,-5z"/>
  <path class="fil1" d="M11026 16441c9,14 18,27 36,54 -19,-9 -27,-11 -32,-15 -8,-7 -14,-16 -21,-25 6,-5 11,-9 17,-14z"/>
  <path class="fil1" d="M8629 13666c7,11 14,23 21,34 -4,3 -9,5 -13,8 -7,-11 -14,-23 -21,-34 4,-3 9,-5 13,-8z"/>
  <path class="fil1" d="M6312 29590c69,5 138,11 207,16 0,5 0,9 -1,13 -70,-3 -140,-7 -210,-10 1,-7 3,-13 4,-20z"/>
  <path class="fil1" d="M6666 29609c58,0 115,0 173,0 0,2 0,4 0,6 -58,0 -115,0 -173,0 0,-2 0,-4 0,-6z"/>
  <path class="fil1" d="M4968 29581c-38,0 -77,0 -115,0 0,-4 0,-7 -1,-11 39,-2 77,-5 116,-7 0,6 0,12 0,18z"/>
  <path class="fil1" d="M4850 19781c-1,22 -2,44 -4,66 -4,0 -7,1 -11,1 -6,-44 -13,-88 -19,-132 3,-1 7,-1 10,-2 8,23 16,46 24,69 0,0 -1,-2 -1,-2z"/>
  <path class="fil1" d="M9053 23986c48,-10 56,3 47,61l1 1c-10,-15 -21,-29 -31,-44 -14,12 -36,21 -40,36 -10,35 -14,71 -14,107 0,69 5,138 9,209 -51,-1 -54,-33 -56,-64l86 -306z"/>
  <path class="fil1" d="M9101 24048l-1 -1c6,69 13,138 21,224l-20 -223z"/>
  <path class="fil1" d="M4082 21635c26,-10 41,-19 57,-20 8,0 16,16 25,25 -14,9 -28,22 -44,27 -6,2 -18,-14 -37,-32z"/>
  <path class="fil1" d="M12614 15333c-1,13 -3,26 -4,39 -5,0 -9,-1 -14,-1 1,-13 2,-26 4,-39 5,0 9,1 14,1z"/>
  <path class="fil1" d="M4594 20413c12,-1 25,-2 37,-2 0,3 0,6 0,9 -12,0 -25,0 -37,0 0,-2 0,-4 0,-6z"/>
  <path class="fil1" d="M4609 20254c0,13 0,25 0,38 -3,0 -5,0 -8,0 0,-13 0,-27 0,-40 3,1 5,1 8,2z"/>
  <path class="fil1" d="M12445 21127c-9,-17 -16,-25 -17,-34 -1,-5 10,-17 12,-17 8,3 20,9 21,15 1,8 -7,17 -16,35z"/>
  <path class="fil0" d="M7386 15577c25,-5 51,-14 76,-13 102,1 202,-10 302,-27 142,-24 285,-45 428,-49 154,-4 309,11 464,21 44,3 75,-12 97,-47 75,75 175,19 251,71 -13,35 -42,35 -69,34 -124,-4 -247,-10 -371,-14 -73,-2 -147,3 -220,-4 -218,-21 -431,25 -646,49 -78,9 -157,16 -235,21 -26,2 -52,-7 -78,-12 0,-10 -1,-20 -1,-31z"/>
  <path class="fil0" d="M7980 16962c8,-7 14,-14 21,-16 46,-10 93,-20 141,-30 -8,25 -24,50 -18,65 7,18 34,29 61,48 -81,-2 -148,-13 -204,-68z"/>
  <path class="fil0" d="M7238 15531c-20,15 -38,39 -60,43 -90,17 -182,28 -273,41 -69,10 -139,17 -208,29 -76,13 -152,30 -228,46 -2,-6 -4,-11 -7,-17 11,-9 20,-23 32,-26 153,-34 303,-85 463,-84 44,0 88,-15 132,-20 49,-6 99,-8 149,-12l-1 -1z"/>
 </g>
</svg>
