<?xml version="1.0" encoding="UTF-8"?>
<!DOCTYPE svg PUBLIC "-//W3C//DTD SVG 1.1//EN" "http://www.w3.org/Graphics/SVG/1.1/DTD/svg11.dtd">
<!-- Creator: CorelDRAW X6 -->
<svg xmlns="http://www.w3.org/2000/svg" xml:space="preserve" width="210mm" height="297mm" version="1.1" style="shape-rendering:geometricPrecision; text-rendering:geometricPrecision; image-rendering:optimizeQuality; fill-rule:evenodd; clip-rule:evenodd"
viewBox="0 0 21000 29700"
 xmlns:xlink="http://www.w3.org/1999/xlink">
 <defs>
  <style type="text/css">
   <![CDATA[
    .fil0 {fill:#2B2A29}
    .fil1 {fill:#FEFEFE}
   ]]>
  </style>
 </defs>
 <g id="Слой_x0020_1">
  <metadata id="CorelCorpID_0Corel-Layer"/>
  <path class="fil0" d="M2 29699c0,-18 0,-36 0,-54 4,-1 8,-2 13,-2 7,19 14,37 21,56 -11,0 -23,0 -34,0z"/>
  <path class="fil0" d="M8945 13021c2,3 5,6 7,9 5,-2 12,-3 14,-6 3,-7 2,-15 2,-22 -8,6 -15,13 -23,19zm2626 2065c3,5 7,10 10,15 10,-9 21,-17 31,-26 -3,-4 -5,-7 -8,-11 -11,7 -23,14 -34,21zm-2356 -2036c7,7 14,14 20,20 9,-13 17,-25 26,-38 -4,-4 -9,-9 -13,-13 -11,10 -22,20 -33,31zm-229 -105c-8,-7 -13,-12 -18,-15 -2,-1 -10,7 -10,10 0,6 5,12 7,18 6,-4 12,-7 21,-13zm215 -92c3,2 7,4 10,6 9,-13 17,-27 26,-40 -4,-2 -7,-5 -11,-7 -8,13 -17,27 -25,40zm-31 -12c-4,-3 -7,-6 -11,-9 -7,8 -16,15 -20,24 -4,10 -4,21 -6,32 4,1 8,2 11,3 8,-17 17,-33 25,-50zm5327 -64c0,-4 0,-9 0,-13 -22,1 -44,3 -66,4 0,3 1,6 1,9 22,0 43,0 65,0zm-5264 955c5,3 11,7 16,10 8,-21 17,-41 25,-62 -3,-1 -7,-3 -10,-4 -10,19 -21,37 -31,56zm-107 -970c7,5 14,11 20,16 12,-16 25,-33 37,-49 -5,-4 -10,-8 -15,-12 -14,15 -29,30 -43,45zm10818 66c5,0 11,-1 16,-1 -1,-19 -2,-38 -3,-57 -5,0 -11,1 -16,1 1,19 2,38 3,57zm-10963 309c-42,18 -42,18 -51,62 21,-25 36,-43 51,-62zm222 835c5,3 11,6 16,9 15,-33 29,-66 44,-99 -5,-2 -10,-5 -16,-7 -15,32 -29,65 -44,97zm1977 1209c22,-13 43,-25 80,-47 -53,-9 -72,9 -80,47zm8920 -1868c1,39 7,62 48,65 10,-42 -17,-50 -48,-65zm-1154 -576c37,-12 75,-24 81,-72 -29,26 -55,49 -81,72zm-9646 368c-4,-4 -8,-9 -12,-13 -53,30 -53,30 -80,90 40,-34 66,-55 92,-77zm8093 -444c79,-36 79,-36 85,-91 -33,36 -59,63 -85,91zm899 2950c40,-17 73,-22 65,-75 -36,13 -71,13 -65,75zm-820 -3174c-3,-4 -6,-8 -9,-12 -42,39 -84,79 -126,118 4,5 9,9 13,14 41,-40 81,-80 122,-120zm-2567 72c-4,-5 -8,-11 -12,-16 -67,29 -77,38 -116,107 50,-36 89,-63 128,-91zm-145 -201c44,-42 76,-72 109,-103 -54,8 -98,26 -109,103zm137 90c-64,29 -81,47 -121,135 46,-51 99,-74 121,-135zm-5673 1739c-6,-3 -12,-6 -18,-8 -27,60 -53,120 -80,181 5,2 10,4 15,7 28,-60 55,-119 83,-179zm9256 1337c49,-11 96,-26 125,-94 -59,28 -105,41 -125,94zm420 -2661c2,11 1,28 9,35 9,7 32,12 38,6 28,-29 52,-61 78,-92 -3,-3 -7,-6 -10,-9 -37,19 -73,38 -114,60zm-669 2805c-96,16 -110,27 -124,102 52,-23 102,-40 124,-102zm-331 -122c-41,46 -92,73 -92,149 35,-9 63,-16 92,-24 0,-44 0,-80 0,-125zm149 -76c-73,18 -86,36 -84,114 92,-31 94,-32 84,-114zm273 -88c-58,17 -116,33 -173,52 -25,9 -42,27 -26,63 81,-11 136,-69 199,-115zm2107 -1264c-88,-78 -136,-102 -184,-94 111,113 141,128 184,94zm-11620 -517c-2,-1 -5,-3 -7,-4 -36,45 -74,90 -109,136 -18,25 -36,51 -47,79 -5,11 7,29 12,43 7,0 13,0 20,0 44,-85 88,-170 131,-255zm580 -874c-51,44 -50,44 -47,94 3,59 4,118 6,177 1,18 5,36 8,54 67,-104 4,-214 33,-325zm-230 1084c-8,-4 -15,-8 -23,-11 -69,122 -139,244 -206,368 -5,10 5,28 9,51 77,-143 149,-275 220,-408zm8762 2123c29,-10 53,-15 75,-26 28,-14 52,-86 39,-112 -19,-38 -53,-22 -82,-17 -18,3 -35,13 -52,20 7,46 13,87 20,136zm-5676 -790c-36,-69 -74,-136 -158,-152 -75,-14 -150,-40 -225,1 97,-14 176,28 253,79 41,27 87,48 130,72zm-3219 -803c-20,-87 38,-133 58,-189 21,-60 49,-117 73,-175 -6,-3 -12,-5 -18,-8 -61,116 -142,222 -172,362 38,12 68,21 97,30 30,-62 30,-62 27,-104 -19,25 -37,48 -65,85zm8708 1694c38,-10 65,-12 85,-25 19,-12 40,-34 43,-54 4,-29 -5,-61 -12,-90 -10,-38 -36,-45 -72,-35 -35,10 -42,31 -32,64 6,21 1,48 13,63 24,32 -5,44 -24,77zm227 -379c14,45 34,55 62,42 56,-25 112,-50 167,-78 39,-20 55,-52 38,-100 -90,46 -177,90 -267,136zm-3355 -3164c3,64 6,122 9,180 1,25 7,44 37,46 32,2 47,-15 47,-45 0,-41 0,-83 -3,-124 -5,-60 -8,-61 -90,-57zm4628 2494c-5,-5 -11,-11 -16,-16 -70,54 -138,111 -212,160 -73,48 -152,87 -229,130 59,12 215,-66 374,-176 36,-25 74,-50 83,-97zm-7765 -2189c8,2 16,5 24,7 25,-49 57,-96 73,-148 31,-99 1,-147 -96,-168 0,104 0,206 0,309zm-2273 582c-5,-4 -9,-8 -14,-12 -29,41 -59,82 -87,124 -95,147 -189,294 -283,441 -21,33 -7,51 18,68 123,-209 244,-415 366,-621zm-445 523c68,-55 284,-448 293,-532 -94,88 -296,454 -293,532zm1515 -1286c0,63 -2,117 1,170 4,73 11,145 20,217 2,13 17,25 25,38 11,-13 24,-25 33,-39 4,-6 2,-16 2,-25 -2,-95 -3,-191 -7,-286 -1,-37 -21,-62 -75,-74zm-1321 1459c58,-202 212,-353 254,-558 -65,89 -128,179 -185,273 -40,65 -71,135 -107,202 -18,34 -9,59 38,83zm9353 1455c122,-34 215,-109 317,-168 11,-6 26,-22 24,-30 -9,-39 21,-50 43,-64 65,-40 131,-77 196,-116 16,-10 31,-22 47,-33 -117,37 -239,63 -318,168 -24,0 -50,0 -75,0 0,3 0,6 0,8 15,6 30,13 56,24 -29,13 -46,21 -63,30 -65,33 -130,67 -195,98 -34,16 -43,41 -30,82zm-8097 -2496c-34,-14 -53,-22 -85,-36 38,-10 60,-17 87,-24 -5,-139 15,-275 -8,-412 -139,16 -270,34 -402,46 -74,6 -136,24 -163,101 -47,-27 -63,-25 -72,10 -5,22 -5,45 -5,67 0,96 1,191 2,287 0,19 3,38 6,63 89,-6 178,4 256,-21 86,-27 167,-47 256,-37 22,3 46,2 67,-4 18,-6 34,-22 61,-41zm5616 -859c-83,-20 -725,-13 -792,8 -43,265 -41,275 1,514 32,2 66,6 99,5 135,-3 270,-8 406,-12 68,-2 136,-5 203,-5 41,0 63,-16 66,-58 5,-67 14,-135 17,-202 3,-84 1,-168 1,-251zm-3985 229c0,85 -9,157 3,225 9,48 13,93 9,141 -8,90 15,111 106,101 81,-9 162,-22 244,-30 179,-19 357,-37 543,-56 0,-192 0,-379 0,-572 -27,16 -46,33 -67,39 -90,24 -180,49 -271,66 -91,17 -184,25 -276,39 -94,14 -189,31 -290,47zm9605 444c-79,-23 -150,-49 -223,-65 -199,-42 -398,-80 -597,-119 -41,-8 -82,-21 -124,-25 -118,-12 -236,-23 -354,-32 -38,-3 -77,0 -114,0 -22,88 -7,247 30,334 37,88 37,88 127,87 99,-1 198,-6 296,-1 253,11 508,6 752,96 47,17 100,19 150,24 31,3 57,-10 57,-47 1,-81 0,-162 0,-251zm-1426 237c24,77 11,161 109,181 7,1 15,9 19,16 38,65 106,82 168,107 71,28 143,53 215,78 153,53 309,95 471,101 131,5 259,-22 379,-78 26,-12 50,-25 51,-60 3,-73 8,-145 12,-214 -87,-15 -166,-22 -242,-42 -148,-40 -294,-82 -449,-74 -28,1 -56,-7 -84,-9 -53,-3 -107,-6 -160,-8 -68,-2 -135,-4 -203,-4 -92,1 -185,4 -285,6zm-5496 -361c3,-27 5,-38 5,-49 1,-110 -2,-221 3,-331 6,-150 8,-151 -143,-146 -220,6 -440,14 -660,21 -186,6 -373,10 -559,16 -62,2 -124,7 -186,9 -63,2 -127,3 -196,4 0,186 0,359 0,536 130,0 254,4 378,-1 175,-7 350,-22 525,-29 107,-4 215,3 322,-1 169,-7 338,-19 512,-29zm-3062 1354c7,1 14,2 21,3 -3,50 -1,100 -9,149 -35,209 -72,417 -111,626 -12,67 -32,132 -46,198 -5,25 -7,50 -8,76 -1,33 17,58 46,62 21,3 52,-5 67,-20 91,-91 197,-158 309,-221 153,-87 304,-71 456,-7 24,10 47,32 62,54 50,75 96,152 144,228 7,11 18,20 40,44 5,-42 9,-69 11,-95 11,-209 15,-418 35,-626 27,-284 64,-567 98,-851 17,-143 39,-285 35,-431 -3,-124 12,-247 81,-357 6,-10 5,-25 9,-43 -153,13 -299,23 -445,37 -82,8 -165,11 -244,31 -182,47 -369,49 -553,74 -240,33 -482,57 -724,85 -90,10 -179,33 -269,32 -146,-1 -285,39 -429,47 -162,9 -322,60 -488,18 -73,-18 -155,51 -162,125 -13,146 -20,293 -33,439 -9,104 -23,208 -38,311 -5,33 -22,65 -26,98 -21,173 -41,347 -60,520 -2,14 0,28 -3,42 -15,88 -30,177 -46,265 -16,82 -42,163 -40,246 48,22 46,24 76,71 12,19 37,33 59,43 17,8 40,4 57,12 70,36 141,31 213,10 24,-7 50,-17 74,-15 69,6 131,-17 187,-46 69,-36 144,-76 191,-135 82,-101 131,-223 167,-350 45,-161 98,-319 148,-478 6,-18 18,-33 28,-49 6,3 13,6 19,9 -33,145 -85,285 -123,429 -39,144 -89,283 -159,425 103,-48 195,-90 286,-134 184,-90 354,-61 515,57 34,25 72,45 109,63 69,33 139,17 194,-40 14,-14 27,-33 44,-37 41,-11 51,-43 59,-76 15,-60 27,-122 38,-183 40,-214 80,-427 120,-641 6,-32 12,-64 19,-95zm3252 506c101,-74 185,-75 270,-16 11,8 27,8 40,15 88,49 178,95 264,149 61,38 119,68 196,66 67,-2 134,16 200,27 75,13 149,30 224,42 128,20 256,36 384,54 3,0 5,2 8,3 111,41 228,50 343,35 70,-9 108,4 140,71 22,45 65,99 109,111 98,26 206,31 293,-38 139,-111 220,-262 235,-436 10,-117 -10,-237 -19,-355 -8,-101 -23,-202 -29,-303 -13,-234 -23,-468 -34,-702 -2,-41 -5,-82 35,-129 2,32 3,48 3,65 3,98 3,197 8,295 5,96 16,191 22,287 5,71 3,142 9,212 14,158 33,315 44,472 6,84 -3,169 -1,253 1,42 10,84 24,124 16,44 55,63 102,60 76,-5 152,-8 228,-16 67,-7 139,-5 200,-30 99,-40 198,-88 283,-152 236,-176 473,-350 729,-496 105,-59 215,-101 333,-123 114,-21 230,-33 342,-61 108,-27 210,-31 317,0 53,15 110,26 174,1 -37,-173 -42,-350 -119,-513 2,-185 -97,-343 -127,-523 -211,-18 -414,-35 -616,-53 -39,-3 -78,-10 -117,-14 -42,-4 -88,-19 -125,-7 -75,25 -151,16 -224,13 -135,-6 -270,-28 -405,-42 -53,-6 -107,-15 -160,-13 -117,5 -231,-14 -343,-41 -186,-46 -372,-63 -561,-28 -24,4 -50,5 -74,2 -235,-30 -467,-79 -707,-75 -222,4 -445,1 -669,-12 -228,-14 -457,10 -686,20 -85,3 -169,17 -254,17 -135,1 -263,56 -399,46 -45,-4 -90,-2 -136,-1 -169,3 -338,9 -507,11 -99,1 -198,-5 -297,-4 -93,0 -186,5 -280,8 -169,5 -339,10 -508,14 -30,1 -61,-3 -88,-5 -77,58 -92,144 -105,232 -15,99 -1,199 -28,299 -25,91 -12,192 -28,286 -25,144 -6,291 -41,435 -24,101 -31,207 -35,311 -10,254 -13,509 -21,763 -2,64 -7,91 92,96 170,9 312,-57 435,-173 72,-67 148,-133 232,-182 80,-46 171,-72 260,-101 190,-62 381,-83 570,6 46,22 91,21 137,-6 130,-75 261,-146 392,-220 0,-56 9,-106 -2,-151 -11,-44 -4,-83 4,-124 14,-81 33,-161 37,-243 5,-104 -4,-209 -4,-314 0,-170 1,-340 4,-509 0,-34 1,-70 36,-95 8,71 9,140 8,209 -1,79 -3,158 -4,237 -1,48 -3,96 -1,144 3,90 10,180 13,270 2,45 3,91 -2,136 -11,104 -26,207 -37,311 -3,26 6,53 12,98zm-2030 1027c87,-68 168,-171 183,-239 -115,46 -225,24 -347,-21 8,58 14,98 20,139 101,20 176,-49 266,-54 -70,37 -143,65 -216,91 -24,8 -42,18 -37,47 5,28 25,34 50,34 27,0 55,3 82,4 -27,11 -64,8 -76,54 46,2 58,-31 75,-55zm6117 -272c77,6 167,-39 201,-113 -67,38 -134,76 -200,114 -50,-5 -95,6 -132,40 -10,10 -11,29 -17,44 62,-18 113,-39 147,-86zm-3943 -2650c22,10 44,23 70,-17 -31,8 -51,13 -70,18 14,-22 28,-44 46,-72 -77,20 -78,21 -110,85 25,-5 45,-10 65,-14zm6185 1528c29,-29 58,-58 87,-87 25,-24 51,-48 76,-73 30,-30 66,-57 86,-93 61,-105 116,-213 171,-322 12,-24 13,-55 22,-101 -27,19 -37,24 -44,32 -147,147 -295,294 -441,443 -26,26 -69,44 -58,95 1,6 -13,18 -22,23 -49,29 -98,56 -147,84 -12,5 -23,11 -35,16 -94,59 -188,118 -282,178 -2,2 3,15 6,28 26,-7 49,-13 73,-20 -48,36 -82,83 -105,138 -9,-54 -43,-16 -66,-18 23,-36 67,-62 48,-122 -113,58 -224,115 -336,173 -36,15 -71,32 -108,45 -63,22 -87,64 -75,128 3,16 8,32 13,48 -18,13 -36,25 -54,38 2,-37 5,-73 7,-113 -24,3 -40,6 -56,8 0,-8 1,-16 2,-35 -94,44 -182,84 -269,128 -12,6 -16,25 -24,38 53,-8 87,-52 140,-30 -63,64 -127,127 -222,137 20,-32 68,-56 28,-114 -46,29 -110,47 -132,87 -35,65 -89,108 -133,162 -52,9 -88,40 -114,85 40,-25 90,-36 114,-85 22,-12 44,-22 66,-35 58,-34 115,-68 172,-102 -17,18 -33,37 -51,55 -22,23 -39,47 -28,82 58,-19 113,-36 168,-54 -65,72 -152,109 -241,141l-4 -5c17,-30 44,-58 20,-102 -45,33 -85,62 -126,93 -53,40 -104,83 -170,105 -34,11 -70,33 -63,88 4,29 -12,64 -59,69 -23,2 -44,25 -66,36 -37,19 -75,36 -113,55 19,-16 37,-33 57,-47 35,-24 71,-45 105,-70 10,-8 14,-24 21,-36 -4,-4 -7,-9 -11,-13 -29,14 -59,27 -88,42 -60,30 -120,60 -179,91 -25,13 -49,29 -69,48 -11,11 -13,31 -17,43 63,-20 122,-39 181,-58 -6,9 -10,20 -18,28 -65,61 -158,80 -221,147 -3,3 -19,-7 -30,-11 9,-31 46,-51 22,-88 -108,69 -215,137 -323,204 -48,30 -61,69 -42,124 14,-1 26,1 36,-3 143,-54 285,-109 427,-163 29,-11 59,-21 86,-35 110,-57 228,-103 327,-175 137,-100 276,-197 423,-281 238,-136 475,-275 710,-415 104,-62 204,-133 305,-200 132,-88 265,-173 394,-265 76,-53 145,-116 216,-175 10,-5 20,-11 30,-16zm-12318 -612c32,-41 63,-81 95,-122 -6,-4 -13,-9 -19,-13 -25,45 -50,90 -75,135 -13,15 -26,31 -40,46 5,3 10,6 15,9 8,-19 16,-37 24,-56zm2821 -713c10,4 20,12 29,11 9,-1 17,-10 24,-17 1,-1 -4,-13 -6,-13 -10,0 -20,2 -29,5 -7,3 -13,10 -19,16 3,-25 6,-50 9,-76 -3,-1 -7,-2 -10,-2 -15,31 -30,61 -52,106 27,-15 40,-22 54,-30zm3271 -477c7,-18 14,-36 21,-54 25,-25 50,-51 75,-76 -4,-4 -8,-8 -13,-12 -31,30 -61,60 -92,91 -11,18 -23,37 -34,55 -2,11 -4,23 -6,34 4,1 8,3 11,5 12,-14 24,-28 36,-42zm417 2754c-15,-85 -86,-115 -151,-147 -84,-41 -171,-74 -257,-111 -26,-11 -51,-23 -81,-36 116,-9 401,133 524,258 64,-6 356,-156 430,-223 -88,-10 -156,-130 -250,-21 -79,-17 -135,-72 -201,-108 -116,-63 -234,-125 -353,-183 -36,-18 -75,-8 -114,11 -141,68 -277,139 -388,254 -58,60 -143,44 -218,41 -52,-2 -104,-23 -155,-37 -124,-34 -247,-25 -369,6 -82,21 -162,49 -242,78 -72,26 -137,64 -195,116 -82,73 -171,138 -258,206 -24,19 -49,36 -70,65 35,-8 73,-10 106,-23 134,-53 265,-113 376,-208 79,-67 162,-115 269,-131 131,-19 259,-7 388,5l-1 -1c-61,4 -123,13 -183,10 -115,-6 -228,-5 -331,51 -54,29 -100,74 -151,109 -44,30 -90,58 -136,85 -24,14 -51,24 -77,36 -68,33 -136,67 -209,103 0,7 0,22 0,39 146,32 290,8 433,16 145,8 283,-35 439,-53 -34,103 -64,192 -94,285 56,25 104,46 150,67 30,-66 56,-124 82,-182 4,2 8,3 13,5 -17,57 -35,114 -52,171 -17,59 -33,118 -50,179 -22,2 -38,3 -54,6 -45,9 -59,30 -54,77 5,43 11,87 16,130 -6,2 -11,4 -17,6 -10,-10 -25,-19 -29,-31 -9,-35 -15,-72 -19,-108 -5,-47 28,-71 61,-94 49,-35 49,-35 63,-96 -52,-41 -113,-54 -191,-46 20,-55 38,-100 53,-146 15,-45 27,-92 44,-153 -51,10 -93,20 -135,26 -58,9 -117,19 -176,21 -102,4 -204,5 -306,4 -45,0 -90,-5 -135,-11 -69,-8 -124,7 -172,65 -108,132 -231,248 -373,344 -56,38 -107,83 -162,124 -24,17 -45,45 -85,32 -3,-31 -1,-56 38,-61 13,-2 29,-5 39,-13 103,-79 204,-159 308,-241 -30,-49 -59,-91 -82,-136 -21,-42 -33,-89 -53,-132 -42,-89 -87,-177 -132,-264 -5,-10 -22,-16 -34,-21 -60,-29 -127,-48 -181,-86 -132,-95 -269,-67 -375,18 -24,19 -50,37 -72,59 -83,79 -177,109 -295,109 -109,0 -213,-18 -317,-36 -51,-9 -103,-36 -144,-67 -73,-56 -153,-98 -241,-119 -53,-13 -114,-9 -167,4 -138,33 -261,106 -385,174 -21,11 -35,36 -52,55 -29,33 -59,66 -95,93 8,-21 15,-42 27,-76 -30,8 -49,10 -65,18 -106,49 -216,85 -331,103 -44,7 -81,23 -106,62l1 1c-58,-20 -117,-37 -172,-61 -80,-35 -157,-74 -236,-112 -28,-13 -55,-31 -84,-39 -42,-10 -78,-11 -105,41 -21,41 -65,70 -98,104l-4 -3c18,-35 36,-69 56,-108 -39,-13 -68,-4 -93,22 -18,18 -35,38 -48,59 -95,157 -190,315 -282,474 -26,45 -54,90 -44,150 6,34 -21,62 -59,75 -36,-31 -18,-65 -5,-93 33,-72 69,-142 108,-211 70,-123 144,-243 214,-366 15,-25 17,-58 26,-86 5,-15 11,-32 22,-42 28,-25 48,-50 52,-92 3,-31 32,-50 75,-42 -2,23 -3,44 -5,60 91,0 182,0 280,0 2,-3 12,-15 14,-28 32,-178 65,-355 93,-534 15,-98 -57,-158 -122,-207 -28,-21 -86,-4 -141,-4 -50,-83 -2,-201 -85,-288 -23,16 -50,28 -65,49 -55,74 -114,143 -154,230 -104,222 -204,447 -344,652 -99,145 -180,301 -276,447 -71,108 -155,208 -234,311 -3,4 -15,0 -33,0 7,-21 9,-41 20,-53 142,-149 240,-329 345,-503 133,-223 291,-432 390,-675 15,-36 35,-67 16,-112 -9,-22 13,-57 25,-103 -34,26 -62,42 -84,64 -73,74 -161,124 -256,163 -54,22 -111,40 -164,65 -38,18 -74,42 -106,69 -135,112 -268,226 -402,339 -69,59 -130,124 -177,204 -28,47 -69,87 -111,126 -14,-45 11,-75 34,-103 45,-55 91,-109 140,-159 75,-77 146,-162 233,-222 93,-64 177,-135 263,-207 68,-57 154,-94 235,-132 106,-49 213,-93 294,-181 9,-10 21,-18 33,-27 123,-89 257,-166 343,-311 1,7 2,-6 -2,-8 -73,-33 -96,-118 -164,-155 -42,-23 -74,-51 -65,-111 -72,83 -127,174 -191,258 -64,85 -133,167 -207,259 23,-3 36,-4 49,-6 -35,59 -290,246 -407,300l-5 -6c62,-45 123,-90 185,-134 32,-23 66,-43 68,-90 1,-14 17,-28 28,-41 150,-170 289,-348 408,-542 47,-77 104,-148 153,-224 43,-66 82,-134 124,-204 -31,-27 -65,-26 -90,-14 -79,39 -165,33 -248,44 -151,19 -304,26 -456,35 -130,7 -260,11 -390,13 -35,1 -84,6 -89,-43 -5,-49 43,-55 78,-58 87,-9 175,-15 262,-18 129,-4 258,3 388,-27 111,-26 231,-18 346,-24 76,-4 151,-7 237,-10 4,-64 9,-125 12,-186 2,-40 1,-79 0,-119 -5,-188 11,-137 146,-201 53,-25 77,-3 78,56 1,76 2,153 5,229 1,14 9,28 27,39 0,-52 1,-104 0,-155 -1,-51 -6,-102 -5,-152 1,-51 27,-89 80,-94 77,-8 147,-62 230,-33 8,3 20,-6 29,-11 110,-52 219,-103 339,-126 38,-8 79,-14 117,-10 123,14 243,5 360,-31 35,-10 62,0 86,20 26,21 50,46 75,68 25,23 30,49 29,83 -2,104 2,209 4,313 0,11 4,25 11,31 9,8 24,13 36,12 5,0 14,-17 14,-27 -2,-84 -10,-169 -9,-253 1,-62 9,-124 19,-185 8,-49 35,-82 88,-89 59,-8 117,-20 175,-27 157,-17 315,-32 473,-48 37,-4 73,-9 110,-8 17,0 34,12 55,20 -21,56 -59,72 -107,76 -121,10 -242,19 -363,34 -39,5 -86,-5 -118,35 -4,5 -26,-5 -39,-5 -51,-1 -101,-1 -152,-1 -29,0 -48,14 -54,44 -4,22 -13,44 -12,67 2,107 7,214 11,322 1,14 6,27 8,39 51,13 677,-52 835,-87 1,-83 0,-170 3,-256 2,-70 4,-142 15,-211 11,-64 37,-74 96,-50 24,9 45,23 68,34 48,22 68,51 64,112 -6,92 6,186 16,278 6,52 30,60 110,43 0,-60 0,-121 0,-183 0,-74 -3,-147 -1,-221 1,-36 12,-72 19,-108 6,-32 26,-46 59,-50 157,-22 313,-48 470,-69 152,-20 298,-63 429,-108 46,9 80,21 114,21 153,-2 305,-9 458,-12 153,-3 305,-3 458,-8 121,-4 243,-13 364,-18 116,-4 232,-10 348,-8 104,2 122,24 125,128 1,48 -9,96 -9,144 1,57 14,65 85,61 1,-21 3,-43 4,-65 1,-71 32,-124 89,-164 27,-19 51,-43 76,-66 41,-38 89,-57 145,-60 203,-9 407,-19 610,-29 34,-2 68,-5 101,-9 81,-9 160,-17 242,13 47,18 106,7 159,4 181,-10 361,-26 542,-32 5,0 10,0 15,0l7 0c79,0 159,15 239,21 93,7 186,10 279,18 31,3 62,14 108,24 -60,49 -113,48 -165,45 -299,-19 -597,-45 -898,-23 -116,8 -230,16 -351,44 -6,75 -12,150 -17,226 -5,68 -10,135 -14,203 -6,85 16,103 100,102 113,-1 226,5 339,8 269,8 537,16 806,25 50,2 99,9 154,14 3,-31 6,-53 6,-75 3,-138 5,-277 8,-415 1,-41 3,-83 56,-123 4,53 6,90 9,135 56,-41 106,-82 160,-116 51,-32 109,-47 170,-39 90,12 179,28 268,41 243,36 486,72 729,107 39,6 79,4 119,7 25,2 58,1 55,37 -3,32 -35,33 -61,31 -109,-12 -219,-21 -328,-38 -125,-20 -249,-49 -375,-71 -55,-10 -113,-9 -168,-17 -106,-15 -211,-34 -326,-53 -4,29 -12,56 -12,82 0,156 1,311 2,467 1,44 17,58 71,66 84,12 169,18 251,36 213,48 431,56 646,80 89,10 179,2 273,2 30,-77 43,-157 45,-239 2,-90 8,-181 14,-271 1,-17 13,-34 20,-50 6,1 11,1 17,2 3,42 6,84 9,131 78,-25 118,-108 199,-109 5,10 11,17 9,19 -72,111 -37,236 -43,355 -3,50 6,101 9,157 117,50 245,41 370,52 126,11 252,23 388,36 0,-190 0,-371 0,-558 -78,-3 -155,-5 -233,-9 -76,-4 -152,-9 -227,-14 -76,-5 -156,14 -230,-35 14,-5 28,-15 42,-15 158,3 316,8 474,10 39,1 79,-6 118,-12 107,-14 132,10 125,118 -1,11 0,22 0,37 76,55 165,67 256,71 113,5 226,6 339,9 14,0 28,2 42,6 137,34 275,68 412,102 121,30 243,50 369,48 39,-1 79,7 116,19 56,19 73,65 57,121 -12,43 -23,88 -25,132 -4,115 -1,231 -2,346 0,28 4,51 33,62 113,44 95,146 103,235 0,2 0,3 0,5l0 2c0,22 -10,46 -7,68 10,67 -22,114 -56,170 -62,102 -140,189 -218,277 -50,57 -108,107 -167,155 -114,93 -228,186 -346,273 -123,90 -249,176 -377,259 -190,123 -381,243 -573,364 -43,27 -89,50 -132,77 -160,102 -315,211 -478,306 -212,124 -428,242 -647,354 -138,71 -280,136 -426,187 -165,57 -336,100 -506,140 -212,50 -426,91 -639,135 -94,19 -189,32 -284,51 -91,19 -181,42 -272,63 -11,3 -21,10 -32,10 -273,-2 -536,69 -805,98 -177,20 -354,32 -531,52 -63,7 -126,8 -187,43 -43,24 -104,16 -157,21 -220,20 -439,40 -659,60 -19,2 -39,-1 -59,-3 -91,-9 -180,-3 -270,10 -114,17 -231,28 -346,24 -191,-7 -379,17 -566,39 -266,32 -531,76 -796,120 -198,33 -396,64 -591,112 -108,27 -211,81 -310,134 -109,59 -224,117 -313,200 -89,83 -209,123 -280,225 -23,32 -50,61 -74,92 -25,31 -49,63 -107,63 60,-131 171,-209 269,-312 -30,-12 -55,-23 -80,-32 -45,-17 -90,-33 -134,-51 -133,-56 -263,-116 -398,-167 -140,-53 -283,-99 -425,-145 -175,-57 -351,-110 -526,-166 -92,-29 -182,-61 -273,-92 -316,-108 -625,-231 -923,-382 -108,-55 -221,-100 -332,-150 -23,-10 -49,-18 -69,-32 -180,-128 -397,-177 -591,-276 -54,-28 -118,-38 -179,-51 -108,-24 -216,-43 -324,-65 -26,-5 -52,-15 -75,-38 21,0 42,-3 62,1 152,31 306,59 456,97 76,19 148,54 221,84 367,149 718,334 1076,503 148,70 299,134 450,199 28,12 59,22 90,25 153,17 297,66 443,110 173,53 349,98 520,154 145,48 285,108 427,163 103,40 205,81 307,121 26,10 52,22 77,34 49,23 96,48 145,70 78,35 142,21 219,-25 164,-98 325,-201 499,-284 158,-75 322,-101 487,-136 180,-38 360,-74 541,-104 421,-70 844,-124 1273,-118 67,1 135,-13 202,-18 79,-6 158,-9 236,-13 56,-3 113,-1 169,-6 256,-21 514,-27 766,-89 95,-23 197,-16 295,-28 233,-28 465,-59 698,-90 168,-22 336,-41 504,-66 126,-19 251,-44 376,-68 222,-43 445,-83 666,-132 199,-43 397,-92 593,-145 84,-23 164,-61 244,-97 141,-64 284,-127 421,-200 200,-106 399,-212 583,-347 107,-78 225,-141 337,-211 113,-71 224,-142 337,-213 125,-78 251,-153 374,-233 111,-73 221,-147 328,-227 127,-94 249,-196 375,-292 91,-69 166,-152 233,-244 49,-68 103,-132 152,-201 15,-21 27,-51 27,-76 0,-53 -10,-106 -15,-154 -68,120 -134,245 -208,364 -99,159 -244,275 -393,382 -218,157 -440,309 -665,455 -230,149 -465,290 -700,433 -75,45 -157,79 -230,126 -113,74 -219,160 -333,233 -107,68 -218,130 -331,188 -70,36 -145,62 -218,93 -193,82 -391,145 -595,194 -129,31 -254,79 -381,116 -81,23 -163,44 -246,58 -285,48 -574,54 -861,76 -104,8 -208,24 -311,35 -93,11 -186,17 -278,31 -139,22 -278,50 -417,72 -388,62 -779,100 -1172,115 -145,50 -297,10 -446,37 -93,17 -191,5 -287,6 -45,0 -91,4 -136,1 -93,-5 -186,-15 -279,-18 -153,-3 -308,-20 -457,2 -234,34 -471,40 -704,91 -228,50 -462,86 -697,90 -14,0 -28,2 -42,0 -236,-26 -472,-52 -708,-80 -131,-16 -265,-25 -393,-54 -193,-44 -391,-55 -580,-124 -135,-50 -278,-74 -418,-109 -90,-22 -180,-48 -271,-62 -128,-19 -258,-28 -387,-42 -19,-2 -39,-7 -57,-13 -53,-19 -104,-45 -159,-57 -239,-52 -462,-150 -686,-246 -91,-39 -180,-83 -269,-126 -16,-8 -29,-22 -53,-40 54,-19 87,5 121,20 129,58 255,123 387,174 224,88 448,177 688,210 48,7 99,32 145,-8 25,45 69,43 110,47 107,12 215,18 319,40 84,18 163,59 246,83 111,32 224,59 337,83 174,37 349,69 523,103 19,4 39,4 58,5 20,0 40,-3 59,-1 73,9 145,22 217,31 238,29 476,65 716,83 137,10 277,-2 414,-17 154,-17 307,-47 461,-72 17,-3 33,-9 50,-11 41,-5 59,-27 58,-68 -2,-39 0,-78 14,-118 2,40 3,81 5,121 2,31 17,47 49,43 30,-4 44,-20 41,-52 -5,-59 -7,-118 -3,-178 22,75 4,159 52,226 87,-1 166,-44 253,-35 23,2 48,-15 73,-22 29,-8 57,-24 87,1 9,8 27,8 41,7 63,-7 126,-16 195,-25 24,-74 3,-152 10,-232 5,13 13,25 14,38 3,31 2,62 3,93 1,110 3,111 129,102 -7,-51 -13,-101 -20,-152 5,-1 11,-2 16,-3 12,53 24,105 36,161 71,-4 135,36 209,3 -14,-55 -26,-106 -43,-174 41,34 38,70 47,98 26,80 48,95 128,93 45,-1 61,-22 58,-63l-1 1c38,54 83,75 142,50 32,-13 55,-10 86,-1 29,8 62,7 92,1 19,-4 36,-24 56,-38 95,75 214,71 278,-14 59,53 123,36 187,13 9,-3 19,-14 26,-12 102,36 196,-18 301,-10 -9,-91 -54,-165 -33,-248 15,60 29,120 44,179 11,45 38,65 87,59 75,-9 152,-11 227,-20 19,-2 37,-19 56,-30l-1 1c22,21 46,26 77,20 158,-31 316,-61 474,-90 115,-22 228,-49 348,-30 51,8 108,-18 168,-30 -36,-88 -75,-163 -67,-252 8,19 17,37 23,56 12,35 21,70 34,105 35,89 43,89 139,75 95,-13 191,-17 287,-23 36,-2 72,0 127,0 -36,-61 -63,-108 -95,-163 45,4 53,33 67,55 65,101 65,108 221,75 -24,-59 -47,-118 -70,-177 5,-3 9,-5 14,-8 9,11 20,20 26,32 15,31 26,63 40,94 29,63 34,66 103,62 38,-2 76,-9 120,-14 -26,-60 -78,-96 -66,-161 14,20 28,40 40,60 31,49 76,76 134,78 83,3 162,-13 242,-47 -4,-24 -7,-44 -12,-78 23,30 38,49 52,68 77,-4 78,-92 143,-124 -6,35 -9,61 -16,104 46,-41 82,-73 123,-110 -18,-22 -35,-43 -54,-65 52,-58 19,-158 105,-201 -10,-25 -18,-45 -26,-63 4,-8 5,-15 9,-18 54,-53 112,-102 161,-160 25,-30 50,-49 87,-59 264,-69 516,-164 752,-306 86,-52 185,-82 277,-123 201,-88 403,-176 604,-266 188,-84 378,-166 562,-258 169,-85 331,-184 495,-277 17,-10 30,-26 45,-39 141,-88 267,-195 374,-323 43,-33 83,-70 109,-115 -23,-22 -41,-39 -58,-55 16,4 33,7 49,11 70,16 115,-13 137,-91 -50,12 -99,22 -148,34 -24,6 -41,18 -37,47 -61,-33 -127,-34 -206,-27 61,52 146,28 203,105 -82,-25 -147,-42 -211,-64 -72,-24 -142,-54 -214,-79 -120,-41 -241,-80 -362,-119 -16,-5 -32,-7 -48,-11 113,77 233,131 358,175 111,39 217,92 326,139 -56,-18 -112,-35 -168,-54 -189,-66 -379,-130 -553,-234 -6,-4 -15,-4 -22,-5 -2,3 -4,6 -7,9 47,42 95,84 142,126 -3,3 -6,7 -9,10 -43,-31 -86,-63 -129,-93 -33,-23 -69,-44 -108,-69 5,109 5,108 76,155 23,15 45,34 67,50l-5 5c-34,-13 -69,-25 -111,-41 36,104 147,117 207,208 -67,-34 -108,-79 -171,-87 10,84 24,104 105,148 121,66 242,131 362,198 20,11 36,32 54,48 -75,-39 -150,-78 -226,-115 -85,-41 -172,-79 -262,-112 100,95 237,135 338,233 -32,-8 -64,-15 -97,-23 -2,4 -4,8 -6,12 30,21 61,41 91,62 -2,4 -3,8 -5,12 -54,-8 -109,-17 -169,-26 -4,-54 -68,-51 -107,-85 -22,19 -40,37 -61,50 -24,15 -48,16 -79,7 -140,-39 -277,-86 -430,-45 -155,42 -317,61 -473,99 -76,19 -151,51 -217,92 -181,111 -358,228 -534,346 -56,38 -104,87 -159,127 -48,34 -101,61 -150,94 -107,73 -229,91 -353,106 -112,14 -224,22 -336,31 -21,2 -43,-6 -75,-10 14,-27 29,-45 30,-63 1,-20 -12,-41 -23,-74 -38,64 -72,117 -103,171 -73,128 -187,173 -328,168 -33,-1 -67,-3 -107,-5 5,48 30,79 53,107 26,31 62,28 92,8 68,-45 134,-93 202,-139 31,-21 50,-74 104,-44 3,2 10,-3 15,-6 106,-62 231,-50 344,-88 25,-8 54,-5 85,-7 -5,13 -6,22 -8,22 -83,16 -165,32 -249,47 -114,20 -212,74 -308,133 -63,38 -124,79 -189,114 -52,28 -91,18 -126,-30 -97,-138 -237,-189 -392,-161 -123,22 -232,-1 -345,-30 -86,-22 -144,-80 -186,-154 4,-5 8,-11 12,-16 13,11 29,19 38,33 46,67 112,101 189,119 35,8 69,24 104,32 21,5 44,5 65,2 48,-6 95,-17 142,-24 75,-12 146,1 215,33 22,10 44,19 66,29 4,-5 8,-10 12,-15 -41,-45 -83,-89 -133,-144 -130,22 -269,9 -412,-22 23,19 46,37 77,62 -59,1 -94,-27 -131,-53 -25,-17 -53,-35 -82,-40 -105,-19 -211,-34 -317,-48 -27,-3 -59,-3 -81,9 -144,77 -287,158 -432,238 -2,38 19,43 53,33 94,-26 181,-64 257,-127 43,-36 91,-67 138,-98 14,-9 35,-9 57,-2 -105,70 -208,144 -317,207 -55,32 -121,45 -170,62 -39,-32 -68,-56 -96,-80l1 1z"/>
  <path class="fil0" d="M19370 14628c-93,98 -205,171 -327,221 -222,92 -447,177 -675,253 -182,61 -369,107 -555,156 -29,8 -63,-8 -94,-8 -31,0 -62,6 -93,10 -38,5 -76,11 -114,16 -1,6 -2,11 -2,17 28,11 56,30 83,30 70,-1 142,-4 210,-19 144,-31 285,-71 428,-106 4,-1 10,3 24,8 -43,20 -79,41 -117,54 -136,45 -270,101 -415,113 -67,6 -134,12 -200,18 -5,0 -13,2 -17,-1 -69,-45 -152,-38 -226,-63 -36,-13 -59,-6 -85,13 -80,61 -124,142 -142,253 38,1 70,3 102,2 64,-2 83,18 71,81 -5,26 -21,51 -33,75 -10,20 -22,39 -33,59 -9,16 -18,32 -30,55 -26,-38 -20,-65 -5,-94 13,-25 24,-50 38,-82 -23,-9 -40,-19 -58,-22 -90,-14 -90,-14 -106,-102 -24,-3 -48,-9 -73,-8 -126,1 -246,-19 -365,-62 -82,-29 -169,-43 -256,-57 -38,-6 -78,3 -117,6 -16,1 -32,4 -67,8 25,-27 35,-44 50,-51 52,-26 109,-31 166,-17 118,29 234,67 352,88 102,18 207,18 312,22 18,1 41,-18 53,-34 57,-77 112,-156 172,-242 9,14 15,23 27,41 131,-6 271,-6 410,-20 112,-11 222,-35 332,-61 273,-63 541,-146 801,-251 161,-65 330,-118 465,-240 30,-27 75,-37 113,-55l-1 -1z"/>
  <path class="fil0" d="M15349 15429c-50,33 -83,15 -117,-16 -83,-76 -169,-149 -252,-226 -80,-74 -166,-107 -269,-51 -21,12 -44,25 -58,44 -84,120 -179,226 -321,279 -49,62 -105,119 -144,186 -35,60 -52,130 -80,203 49,24 94,46 142,69 -1,34 -25,42 -51,34 -37,-12 -73,-30 -109,-47 -29,-14 -31,-42 -20,-66 44,-97 64,-204 137,-290 51,-60 87,-132 131,-198 19,-29 41,-57 61,-85 7,4 14,7 20,11 -11,26 -22,51 -33,77 91,-10 124,-43 142,-138 2,-12 12,-25 22,-34 23,-21 45,-46 73,-57 73,-29 146,-63 223,-73 44,-6 101,22 138,52 93,73 178,156 266,235 31,28 61,56 99,91z"/>
  <path class="fil0" d="M15661 15178c54,-29 108,-58 168,-90 3,9 9,23 13,37 25,89 76,156 161,196 81,38 82,57 70,145 -16,117 -35,235 16,350 11,24 11,51 -25,64 -44,-28 -44,-74 -44,-118 1,-115 5,-231 7,-351 -42,-27 -98,-52 -139,-91 -42,-40 -70,-94 -107,-146 -83,43 -174,70 -206,174 -14,44 -41,49 -101,34 -50,144 -143,273 -147,435 -2,56 -17,71 -85,113 0,-19 -3,-35 1,-48 16,-54 33,-108 53,-160 47,-121 94,-242 145,-361 10,-23 37,-51 58,-53 62,-6 80,-45 92,-94 23,-12 46,-23 70,-35z"/>
  <path class="fil0" d="M17927 15127c15,-6 29,-12 45,-17 173,-53 346,-103 518,-159 139,-45 257,-131 379,-207 258,-160 527,-296 822,-377 106,-29 210,-60 321,-71 91,-9 178,-52 286,-86 -27,19 -39,32 -53,38 -101,44 -203,85 -318,79 -30,-2 -61,10 -91,18 -366,99 -705,260 -1023,465 -258,167 -548,253 -841,329 -13,3 -27,3 -40,4 -2,-6 -3,-11 -5,-17z"/>
  <path class="fil0" d="M18266 14975c551,-451 1166,-749 1896,-764 -171,25 -345,39 -513,79 -167,41 -331,99 -488,167 -160,69 -317,151 -466,242 -146,88 -281,194 -420,293 -3,-6 -6,-11 -8,-17z"/>
  <path class="fil0" d="M18245 14891c55,-43 109,-88 167,-127 154,-105 309,-209 466,-310 234,-151 491,-241 766,-283 92,-14 184,-32 276,-44 34,-4 70,3 104,19 -82,8 -165,12 -246,24 -386,59 -744,189 -1064,417 -127,90 -253,180 -380,270 -25,18 -51,34 -76,50 -4,-6 -9,-11 -13,-17z"/>
  <path class="fil0" d="M15887 15019c14,67 48,122 106,160 30,20 63,37 68,93 -50,-37 -96,-63 -131,-99 -35,-36 -59,-81 -89,-124 -17,4 -33,8 -50,12 -3,-3 -6,-6 -9,-9 36,-34 71,-69 114,-110 97,80 176,193 322,228 -78,19 -99,11 -173,-52 -46,-39 -95,-76 -142,-114 -6,5 -11,10 -17,15z"/>
  <path class="fil0" d="M16234 15237c114,-62 239,-78 365,-55 152,27 283,102 400,219 -49,7 -77,-20 -105,-42 -66,-53 -136,-95 -219,-122 -121,-41 -238,-32 -357,-4 -27,6 -53,14 -79,22 -1,-6 -3,-11 -4,-17z"/>
  <path class="fil0" d="M7959 13772c-220,138 -440,276 -660,414 -4,-6 -8,-12 -12,-19 212,-149 436,-280 658,-413 5,6 10,12 14,18z"/>
  <path class="fil0" d="M13275 15256c47,-24 94,-48 141,-73 22,-12 47,-21 66,-38 95,-87 216,-107 335,-123 92,-12 186,-15 273,40 -7,2 -14,7 -19,5 -88,-30 -177,-24 -267,-16 -109,10 -209,40 -298,105 -69,49 -143,88 -222,115 -3,-5 -5,-10 -8,-15z"/>
  <path class="fil0" d="M15225 15121c6,27 11,55 18,87 -38,-28 -72,-62 -113,-84 -84,-46 -171,-88 -258,-127 -20,-9 -50,-5 -73,2 -65,19 -128,43 -203,68 57,-73 162,-47 204,-134 110,53 216,106 323,156 32,15 68,22 103,33 0,0 -1,-1 -1,-1z"/>
  <path class="fil0" d="M17364 15174c232,-113 495,-80 736,-151 -65,42 -138,52 -211,64 -61,10 -124,12 -185,24 -88,17 -175,41 -263,62 -24,6 -47,14 -71,20 -2,-6 -4,-13 -7,-19z"/>
  <path class="fil0" d="M16213 15315c12,-5 24,-13 36,-15 129,-16 257,-31 380,34 64,34 137,52 206,77 25,9 49,21 73,31 -2,7 -5,13 -7,20 -28,-8 -58,-15 -85,-25 -81,-32 -161,-68 -244,-96 -103,-35 -211,-36 -318,-21 -13,2 -26,4 -39,6 -1,-4 -2,-7 -3,-11z"/>
  <path class="fil0" d="M14714 14720c127,-18 514,163 609,282 -207,-98 -387,-235 -609,-282z"/>
  <path class="fil0" d="M13192 16201c-5,-29 -10,-58 -16,-90 -21,-1 -42,-3 -64,-4 24,-115 6,-131 262,-251 -32,22 -63,48 -97,66 -51,27 -75,65 -71,123 3,50 1,101 1,152 -5,1 -10,2 -15,4z"/>
  <path class="fil0" d="M20193 14333c-180,110 -395,119 -589,193 -2,-7 -4,-15 -7,-22 199,-57 397,-114 596,-171z"/>
  <path class="fil0" d="M14244 15380c-38,59 -78,117 -113,177 -46,80 -88,164 -132,245 -13,24 -31,45 -47,68l-2 -1c0,-6 -1,-12 1,-17 68,-166 151,-324 264,-464 5,-6 13,-10 20,-15 3,3 6,5 8,8z"/>
  <path class="fil0" d="M14953 14682c143,18 296,116 435,267 -95,-34 -137,-115 -212,-151 -75,-36 -149,-77 -223,-116z"/>
  <path class="fil0" d="M15661 15178c-23,12 -47,23 -70,35 -62,21 -125,43 -187,64 -1,-4 -2,-8 -4,-12 111,-55 221,-111 335,-168 -26,29 -50,55 -74,81z"/>
  <path class="fil0" d="M13534 15264c127,-84 259,-156 407,-156 -131,50 -269,103 -407,156z"/>
  <path class="fil0" d="M11945 15917c-48,100 -126,181 -181,277 -6,-4 -13,-8 -19,-13 60,-92 121,-183 181,-275 7,4 13,7 19,11z"/>
  <path class="fil0" d="M7803 14581c-104,81 -219,143 -336,202 108,-74 210,-156 331,-208 0,0 5,6 5,6z"/>
  <path class="fil0" d="M17837 14998c106,-45 216,-54 330,-33 -110,11 -220,22 -330,33z"/>
  <path class="fil0" d="M14236 15373c67,-91 126,-192 242,-235 -40,39 -82,77 -121,118 -39,40 -75,83 -113,125 -3,-3 -6,-5 -8,-8z"/>
  <path class="fil0" d="M7821 13596c-92,55 -184,110 -276,166l1 1c75,-81 175,-122 268,-174 2,3 5,5 7,8z"/>
  <path class="fil0" d="M17489 15565c-24,73 -62,136 -120,187 26,-71 60,-137 120,-187z"/>
  <path class="fil0" d="M15846 16031c38,59 76,118 113,177 -65,-42 -109,-96 -130,-166 6,-4 11,-7 17,-11z"/>
  <path class="fil0" d="M12301 16251c10,78 19,156 29,235 -5,1 -11,2 -16,2 -21,-77 -30,-155 -12,-237z"/>
  <path class="fil0" d="M12278 15604c-41,66 -83,131 -124,197 -6,-4 -11,-7 -17,-11 41,-66 83,-131 124,-197 6,4 11,7 17,11z"/>
  <path class="fil0" d="M13865 15359c-24,65 -47,130 -71,195 -28,-72 -6,-131 72,-194l-1 -1z"/>
  <path class="fil0" d="M17291 15459c-49,69 -49,69 -101,43 35,-41 35,-41 101,-43z"/>
  <path class="fil0" d="M15566 16268c-43,-66 -55,-127 -68,-196 34,38 57,106 68,196z"/>
  <path class="fil0" d="M15355 16061c0,54 0,107 0,161 -16,-53 -35,-106 -20,-161 7,0 14,0 20,0z"/>
  <path class="fil0" d="M15022 16362c-44,-76 -27,-163 -56,-242 8,-1 16,-3 24,-4 10,82 20,164 30,247l1 -1z"/>
  <path class="fil0" d="M12601 16234c0,45 0,89 0,151 -41,-58 -13,-105 -20,-149 7,0 13,-1 20,-2z"/>
  <path class="fil0" d="M7532 15210c-63,50 -126,100 -189,151l-3 -4c62,-52 124,-103 186,-154 2,3 5,5 7,8z"/>
  <path class="fil0" d="M16237 16146c-15,-55 -29,-109 -44,-164 7,-2 15,-4 22,-6 13,55 27,110 40,165 -6,2 -12,3 -18,5z"/>
  <path class="fil0" d="M15170 16313c-12,-63 -24,-126 -35,-189 7,-1 14,-3 21,-4 11,63 22,127 32,190 -6,1 -12,2 -18,3z"/>
  <path class="fil0" d="M13458 16060c-44,-56 -40,-117 -18,-181 6,60 12,121 18,181z"/>
  <path class="fil0" d="M17251 16070c-64,-17 -86,-68 -107,-120 5,-4 10,-8 15,-11 15,21 30,42 44,63 16,23 32,45 48,68z"/>
  <path class="fil0" d="M10333 15164c-38,21 -79,44 -113,63 32,-69 66,-87 113,-63z"/>
  <path class="fil0" d="M14766 15257c45,-28 90,-57 135,-85 -26,57 -75,79 -135,85z"/>
  <path class="fil0" d="M8955 14798c-30,52 -61,105 -91,157 -5,-4 -11,-7 -16,-11 24,-57 58,-106 108,-145l-1 -1z"/>
  <path class="fil0" d="M14018 14934c57,-28 107,-5 153,34 -51,-12 -103,-23 -154,-35 0,0 1,1 1,1z"/>
  <path class="fil0" d="M12216 15450c26,-53 45,-91 70,-142 5,70 -1,81 -70,142z"/>
  <path class="fil0" d="M13336 15955c0,44 0,88 0,136 -25,-41 -25,-41 0,-136z"/>
  <path class="fil0" d="M15629 15538c-4,-30 -7,-59 -13,-106 51,40 28,74 35,103 -7,1 -15,2 -22,3z"/>
  <path class="fil0" d="M8102 14913c38,-30 76,-60 114,-90 5,6 9,13 14,19 -40,27 -80,54 -120,81 -3,-3 -6,-6 -9,-10z"/>
  <path class="fil0" d="M16391 16106c-15,-32 -30,-65 -45,-97 7,-3 13,-6 20,-9 14,32 28,64 43,97 -6,3 -12,7 -18,10z"/>
  <path class="fil0" d="M12749 16359c0,-43 0,-87 0,-130 2,0 5,0 7,0 0,43 0,87 0,130 -2,0 -5,0 -7,0z"/>
  <path class="fil0" d="M7343 15361c-30,31 -59,61 -89,92 -5,-6 -10,-11 -15,-17 34,-26 67,-52 101,-78 0,0 3,4 3,4z"/>
  <path class="fil0" d="M16824 15807c4,-27 8,-54 12,-81 5,0 9,1 14,1 0,27 0,54 0,82 -9,-1 -17,-1 -26,-2z"/>
  <path class="fil0" d="M15297 15254c20,30 39,60 48,74 -12,-10 -38,-34 -64,-57 5,-6 11,-11 16,-17z"/>
  <path class="fil0" d="M12442 16409c0,-39 0,-79 0,-118 3,0 7,0 10,0 0,40 0,79 0,119 -3,0 -7,0 -10,0z"/>
  <path class="fil0" d="M8771 15378c-20,35 -40,69 -61,104 -5,-3 -11,-7 -16,-10 15,-38 36,-73 73,-97 0,0 4,3 4,3z"/>
  <path class="fil0" d="M8107 14485c24,-17 49,-34 82,-58 -27,46 -27,47 -82,58z"/>
  <path class="fil0" d="M19371 14629c25,-41 68,-48 106,-67 3,6 6,12 9,18 -39,16 -77,31 -116,47l1 1z"/>
  <path class="fil0" d="M13971 16300c-5,-33 -9,-66 -14,-99 35,28 27,63 14,99z"/>
  <path class="fil0" d="M15702 16148c-7,-27 -15,-54 -22,-81 7,-2 13,-3 20,-5 6,27 12,55 18,82 -5,1 -11,3 -16,4z"/>
  <path class="fil0" d="M11659 15276c-20,29 -41,57 -61,86 -5,-4 -11,-8 -16,-12 24,-26 49,-51 73,-77l4 4z"/>
  <path class="fil0" d="M12324 15754c-17,34 -34,69 -51,103 -5,-3 -11,-6 -16,-8 9,-39 32,-71 59,-102 3,2 5,5 8,7z"/>
  <path class="fil0" d="M8005 15003c32,-30 65,-60 97,-90 3,3 6,6 9,10 -36,27 -71,53 -107,80l1 1z"/>
  <path class="fil0" d="M13950 15257c-28,34 -56,68 -85,102l1 1c28,-34 56,-68 84,-102l-1 -1z"/>
  <path class="fil0" d="M10985 15447c14,-18 27,-37 41,-55 4,3 8,5 12,8 -13,20 -26,40 -39,60 -5,-4 -9,-8 -14,-12z"/>
  <path class="fil0" d="M18536 15112c-21,9 -43,19 -64,28 -2,-5 -5,-10 -7,-14 21,-10 42,-20 62,-31 3,6 6,11 9,17z"/>
  <path class="fil0" d="M9465 15444c-21,23 -42,45 -63,68 -4,-5 -9,-11 -13,-16 26,-17 52,-34 77,-50l-1 -1z"/>
  <path class="fil0" d="M14581 14817c26,-27 58,-36 98,-23 -33,7 -66,15 -98,22l1 1z"/>
  <path class="fil0" d="M13797 16305c-5,-22 -9,-43 -14,-65 5,-1 9,-2 14,-3 5,21 11,43 16,64 -5,1 -11,3 -16,4z"/>
  <path class="fil0" d="M7814 13589c26,-20 51,-40 77,-60 4,5 8,10 12,15 -23,23 -51,40 -82,53 -2,-3 -5,-5 -7,-8z"/>
  <path class="fil0" d="M13475 16430c-8,-40 -16,-80 -24,-120 8,-1 15,-2 23,-3 0,41 0,82 0,123 0,0 1,-1 1,-1z"/>
  <path class="fil0" d="M15768 15430c0,23 0,47 0,70 -3,0 -6,0 -9,0 0,-23 0,-47 0,-70 3,0 6,0 9,0z"/>
  <path class="fil0" d="M14813 16192c0,21 0,42 0,64 -2,0 -4,0 -6,0 0,-21 0,-42 0,-64 2,0 4,0 6,0z"/>
  <path class="fil0" d="M14612 14934c-24,14 -49,29 -73,43 -2,-6 -5,-12 -7,-18 27,-8 54,-16 81,-24l-1 -1z"/>
  <path class="fil0" d="M15531 15804c4,-22 9,-44 13,-66 5,1 11,2 16,3 -5,22 -10,44 -15,66 -5,-1 -9,-2 -14,-3z"/>
  <path class="fil0" d="M15416 15737c0,-25 0,-50 0,-76 3,0 6,0 9,0 0,25 0,50 0,76 -3,0 -6,0 -9,0z"/>
  <path class="fil0" d="M13951 15258c18,-20 36,-39 55,-59 4,5 8,10 12,14 -23,14 -45,29 -68,43 0,0 1,1 1,1z"/>
  <path class="fil0" d="M16535 15732c0,-23 0,-46 0,-69 3,0 6,0 9,0 0,23 0,46 0,69 -3,0 -6,0 -9,0z"/>
  <path class="fil0" d="M7525 15203c20,-19 40,-38 60,-57 -3,35 -27,51 -53,64 -2,-3 -5,-5 -7,-8z"/>
  <path class="fil0" d="M7829 15128c17,-7 34,-14 54,-22 -14,14 -26,26 -38,38 -6,-5 -11,-11 -17,-16z"/>
  <path class="fil0" d="M8004 15002c-19,21 -38,41 -57,62 -5,-6 -9,-11 -14,-17 24,-15 48,-29 72,-44l-1 -1z"/>
  <path class="fil0" d="M14375 15077c-15,12 -31,24 -46,36 -3,-3 -6,-7 -8,-10 15,-13 29,-27 44,-40 3,5 7,9 10,14z"/>
  <path class="fil0" d="M11655 15273c16,-23 32,-45 48,-68 5,4 10,9 15,13 -20,20 -40,39 -60,59 0,0 -4,-4 -4,-4z"/>
  <path class="fil0" d="M8945 14606c-11,14 -23,27 -34,41 -3,-2 -7,-4 -10,-7 6,-9 10,-19 17,-27 5,-6 14,-10 21,-15 2,3 4,5 6,8z"/>
  <path class="fil0" d="M11382 15330c17,-19 33,-39 50,-58 4,3 8,7 12,10 -18,21 -36,42 -54,63 -3,-5 -5,-10 -8,-16z"/>
  <path class="fil0" d="M7546 13762c-18,15 -36,31 -54,46 5,-35 27,-44 55,-45l-1 -1z"/>
  <path class="fil0" d="M15535 15517c4,19 8,37 12,56 -4,1 -9,2 -13,4 -6,-18 -11,-35 -17,-53 6,-2 12,-5 18,-7z"/>
  <path class="fil0" d="M10374 15298c9,-13 17,-26 26,-39 3,2 7,4 10,7 -9,13 -17,26 -26,39 -3,-2 -7,-4 -10,-7z"/>
  <path class="fil0" d="M14613 14935c23,-10 46,-21 70,-31 2,6 3,13 5,19 -25,4 -50,8 -75,11 0,0 1,1 1,1z"/>
  <path class="fil0" d="M16225 15645c0,20 0,39 0,59 -3,0 -5,0 -8,0 0,-20 0,-39 0,-59 3,0 5,0 8,0z"/>
  <path class="fil0" d="M10987 15707c-8,15 -16,29 -24,44 -4,-2 -7,-4 -11,-6 8,-15 16,-29 24,-44 4,2 8,4 11,6z"/>
  <path class="fil0" d="M8521 15164c7,-13 14,-26 21,-39 4,2 7,4 11,6 -7,13 -14,26 -21,39 -4,-2 -7,-4 -11,-6z"/>
  <path class="fil0" d="M8607 15793c8,-14 15,-29 23,-43 4,2 8,4 12,6 -8,14 -16,28 -23,42 -4,-2 -7,-4 -11,-6z"/>
  <path class="fil0" d="M7340 14868c-13,8 -25,16 -38,23 -2,-3 -4,-6 -6,-8 12,-8 25,-17 37,-25 2,3 5,7 7,10z"/>
  <path class="fil0" d="M13558 15773c6,16 11,33 17,49 -3,2 -6,5 -10,7 -6,-8 -15,-16 -18,-25 -3,-9 -1,-19 -1,-29 4,-1 8,-1 12,-2z"/>
  <path class="fil0" d="M10887 15879c-8,13 -16,27 -25,40 -4,-2 -8,-5 -11,-7 9,-13 17,-26 25,-40 4,2 7,4 10,7z"/>
  <path class="fil0" d="M8404 16080c7,-13 13,-26 20,-39 4,2 8,4 12,6 -7,13 -13,26 -20,39 -4,-2 -8,-4 -12,-6z"/>
  <path class="fil0" d="M11939 15130c7,-10 15,-21 22,-31 3,2 7,5 10,7 -7,10 -15,20 -22,31 -3,-2 -7,-5 -10,-7z"/>
  <path class="fil0" d="M16701 15705c0,17 0,33 0,50 -3,0 -6,0 -9,0 0,-17 0,-33 0,-50 3,0 6,0 9,0z"/>
  <path class="fil0" d="M8313 14606c-10,5 -20,10 -31,15 -2,-3 -4,-7 -6,-10 9,-7 19,-13 28,-20 3,5 6,10 9,15z"/>
  <path class="fil0" d="M8957 14800c8,-19 16,-37 24,-56 5,4 11,8 16,12 -14,14 -27,29 -41,43l1 1z"/>
  <path class="fil0" d="M10460 15163c8,-9 16,-19 25,-28 3,2 6,5 9,7 -8,11 -15,21 -23,32 -4,-4 -7,-7 -11,-11z"/>
  <path class="fil0" d="M12038 15216c10,-10 19,-20 29,-30 3,3 6,6 9,9 -10,10 -19,20 -29,30 -3,-3 -6,-6 -9,-9z"/>
  <path class="fil0" d="M13952 15870c-4,20 -8,41 -12,61 -7,-2 -13,-4 -20,-6 10,-19 20,-37 30,-56 0,0 2,1 2,1z"/>
  <path class="fil0" d="M7819 14964c9,-7 18,-14 26,-21 4,5 9,10 13,14 -10,6 -20,12 -29,19 -4,-4 -7,-8 -11,-12z"/>
  <path class="fil0" d="M12316 15746c11,-18 21,-35 32,-53 6,3 11,7 17,11 -14,17 -27,33 -41,50 -3,-2 -5,-5 -8,-7z"/>
  <path class="fil0" d="M7902 14894c10,-4 20,-9 30,-13 -7,9 -14,18 -21,28 -3,-5 -6,-10 -9,-14z"/>
  <path class="fil0" d="M8089 13869c-8,6 -16,11 -24,17 2,-7 2,-15 6,-21 2,-3 9,-4 14,-6 2,3 3,6 5,9z"/>
  <path class="fil0" d="M10800 15246c-7,11 -14,21 -21,32 -3,-2 -7,-4 -10,-6 5,-11 11,-23 16,-34 5,2 10,5 16,7z"/>
  <path class="fil0" d="M14580 14816c-20,9 -41,19 -61,28 -1,-6 -3,-12 -4,-19 22,-3 44,-6 67,-8 0,0 -1,-1 -1,-1z"/>
  <path class="fil0" d="M8776 15537c8,-9 16,-19 24,-28 3,2 6,5 9,7 -7,11 -15,21 -22,32 -4,-4 -8,-7 -12,-11z"/>
  <path class="fil0" d="M14290 14984c10,-8 19,-15 29,-23 3,3 5,6 8,9 -9,8 -17,16 -26,25 -4,-4 -7,-7 -11,-11z"/>
  <path class="fil0" d="M11389 15345c-11,16 -23,32 -34,48 -3,-3 -7,-5 -10,-8 12,-15 24,-31 37,-46 3,2 5,4 8,6z"/>
  <path class="fil0" d="M9005 15497c18,-19 26,-28 34,-36 6,6 12,12 18,18 -12,4 -25,9 -52,19z"/>
  <path class="fil0" d="M13613 16380c-5,-14 -10,-28 -15,-41 4,-1 8,-3 12,-4 5,14 10,28 15,41 -4,1 -8,3 -12,4z"/>
  <path class="fil0" d="M8000 14815c10,-7 20,-14 30,-21 2,4 7,11 6,12 -9,7 -19,14 -28,20 -3,-4 -5,-7 -8,-11z"/>
  <path class="fil1" d="M19998 14686c-8,9 -17,18 -25,27 -25,17 -51,35 -76,52 0,0 1,0 1,0 -4,-16 -10,-32 -13,-48 -12,-64 12,-107 75,-128 37,-13 72,-30 108,-45l-1 -1c-23,48 -46,95 -69,143z"/>
  <path class="fil1" d="M19844 14803c-27,16 -54,31 -81,47 -13,-8 -26,-17 -39,-25 -15,-9 -31,-18 -47,-26l1 1c40,-34 80,-69 119,-103l-1 1c16,-2 31,-4 56,-8 -3,40 -5,77 -7,113z"/>
  <path class="fil1" d="M20610 14315c-27,19 -55,39 -82,58 -24,6 -47,13 -73,20 -3,-13 -8,-26 -6,-28 94,-60 188,-119 282,-178 -12,20 -24,40 -36,60 -4,3 -7,5 -11,7 -25,20 -49,40 -74,61z"/>
  <path class="fil1" d="M20422 14511c-33,22 -65,44 -98,66 -19,2 -37,4 -73,9 45,-40 75,-67 105,-93l-1 1c23,2 57,-36 66,18z"/>
  <path class="fil0" d="M21005 14185c-37,20 -73,39 -109,59 40,-57 56,-70 119,-94 7,6 14,12 20,19 -10,5 -20,11 -30,16z"/>
  <path class="fil0" d="M21035 14169c-7,-6 -14,-12 -20,-19 31,-31 47,-85 107,-68 -29,29 -58,58 -87,87z"/>
  <path class="fil0" d="M14801 12317c10,-1 19,-2 29,-2 -7,18 -14,36 -21,54 -14,1 -28,2 -42,4 11,-18 23,-37 34,-55z"/>
  <path class="fil1" d="M12677 15563c-18,24 -29,57 -75,55 12,-46 49,-43 76,-54 0,0 -1,-1 -1,-1z"/>
  <path class="fil0" d="M20695 14247c12,-20 24,-40 36,-60 12,-5 23,-11 35,-16 -23,26 -47,51 -70,77z"/>
  <path class="fil0" d="M20357 14492c-30,27 -60,53 -105,93 36,-4 54,-6 73,-9 -42,41 -85,79 -139,105 -50,24 -94,60 -141,90 -3,-4 -7,-9 -10,-13 57,-42 114,-85 171,-127 -2,-3 -4,-6 -6,-9 -15,3 -29,7 -52,12 35,-42 64,-77 95,-115 45,32 73,-27 115,-28z"/>
  <path class="fil0" d="M19271 15158c-90,85 -197,145 -311,223 38,-65 203,-182 307,-227 0,0 4,5 4,5z"/>
  <path class="fil0" d="M18351 15704c-72,50 -143,100 -226,158 24,-72 105,-128 226,-158z"/>
  <path class="fil0" d="M18622 15631c-54,39 -108,79 -177,129 28,-68 83,-103 178,-128l-1 -1z"/>
  <path class="fil0" d="M19945 14834c-23,15 -46,30 -70,44 -28,16 -57,32 -90,41 39,-52 103,-65 150,-102 3,6 7,12 10,18z"/>
  <path class="fil0" d="M19998 14686c23,-48 46,-95 69,-143 22,84 6,118 -69,143z"/>
  <path class="fil0" d="M19676 14798c16,9 32,17 47,26 13,8 26,17 39,25 -29,17 -58,34 -87,51 25,-34 13,-69 0,-103z"/>
  <path class="fil0" d="M18623 15632c45,-29 90,-57 136,-86l0 0c-46,28 -91,56 -137,84l1 1z"/>
  <path class="fil0" d="M20987 14015c19,-14 39,-27 58,-41 3,4 6,8 10,12 -19,15 -38,29 -56,44 -4,-5 -7,-10 -11,-15z"/>
  <path class="fil0" d="M18759 15546c18,-16 36,-32 54,-48 -4,35 -26,45 -54,48l0 0z"/>
  <path class="fil0" d="M19897 14765c25,-17 51,-35 76,-52 -25,17 -51,35 -76,52z"/>
  <path class="fil0" d="M20610 14315c25,-20 49,-40 74,-61 -25,20 -49,40 -74,61z"/>
  <path class="fil0" d="M9866 12984c21,-25 42,-41 76,-24 -34,55 -34,55 -76,24z"/>
  <path class="fil0" d="M20274 13624c133,74 277,123 420,172 47,16 90,43 134,66 -2,5 -4,10 -7,15 -16,-6 -33,-13 -49,-19 -71,-26 -142,-54 -214,-79 -104,-36 -206,-74 -290,-150 0,0 5,-5 5,-5z"/>
  <path class="fil0" d="M20378 13570c84,51 172,91 270,111 48,10 91,39 137,60 -2,3 -5,6 -7,9 -114,-38 -238,-51 -341,-119 -23,-15 -45,-33 -67,-50 3,-3 6,-7 9,-10z"/>
  <path class="fil0" d="M20725 13966c-118,-21 -235,-40 -313,-132 103,43 208,88 313,132z"/>
  <path class="fil0" d="M20785 13741c55,17 108,36 151,74 -3,5 -5,11 -8,16 -50,-27 -100,-54 -151,-82 2,-3 5,-6 7,-9z"/>
  <path class="fil0" d="M20984 13728c34,17 69,35 103,52 -40,-6 -80,-13 -103,-52z"/>
  <path class="fil0" d="M19642 14799c41,-50 92,-86 154,-103 -40,34 -80,69 -119,103 -12,0 -23,0 -35,0z"/>
 </g>
</svg>
