<?xml version="1.0" encoding="UTF-8"?>
<!DOCTYPE svg PUBLIC "-//W3C//DTD SVG 1.1//EN" "http://www.w3.org/Graphics/SVG/1.1/DTD/svg11.dtd">
<!-- Creator: CorelDRAW X6 -->
<svg xmlns="http://www.w3.org/2000/svg" xml:space="preserve" width="210mm" height="297mm" version="1.1" style="shape-rendering:geometricPrecision; text-rendering:geometricPrecision; image-rendering:optimizeQuality; fill-rule:evenodd; clip-rule:evenodd"
viewBox="0 0 21000 29700"
 xmlns:xlink="http://www.w3.org/1999/xlink">
 <defs>
  <style type="text/css">
   <![CDATA[
    .fil0 {fill:#2B2A29}
    .fil1 {fill:#FEFEFE}
   ]]>
  </style>
 </defs>
 <g id="Слой_x0020_1">
  <metadata id="CorelCorpID_0Corel-Layer"/>
  <path class="fil0" d="M2 29699c7,-20 13,-39 25,-74 12,35 19,55 26,74 -17,0 -34,0 -51,0z"/>
  <path class="fil0" d="M10133 12801c-3,2 -6,4 -9,7 6,9 13,17 19,26 3,-2 6,-4 9,-7 -6,-8 -13,-17 -19,-25zm110 168c3,-2 6,-5 10,-7 -6,-9 -13,-18 -19,-27 -3,2 -7,5 -10,7 7,9 13,18 20,27zm-818 3516c-3,-6 -7,-12 -10,-18 -9,8 -17,16 -26,24 4,3 9,10 11,9 9,-4 17,-10 25,-15zm-338 2001c5,1 9,3 14,4 5,-16 12,-32 16,-48 1,-4 -7,-11 -17,-27 -5,32 -9,51 -12,71zm545 -6996c32,-11 59,-20 106,-36 -33,-23 -50,-44 -64,-42 -31,5 -57,23 -42,78zm4014 7800c41,-3 78,-7 116,-10 8,-41 8,-74 -36,-107 -17,47 -89,44 -80,117zm-1928 -2055c50,5 87,8 123,11 15,-40 21,-73 -14,-89 -26,-12 -64,-20 -85,-9 -17,9 -15,51 -24,86zm575 -194c-51,-4 -102,-8 -154,-12 -6,74 24,102 98,103 50,1 60,-13 56,-91zm-452 60c25,-107 12,-121 -80,-105 -14,2 -32,0 -40,9 -14,14 -28,35 -28,53 0,12 21,34 35,37 38,7 77,5 114,7zm235 166c12,-88 12,-88 -50,-98 -19,-3 -39,-7 -58,-9 -25,-3 -55,-7 -63,25 -9,35 9,63 44,70 40,8 82,9 128,13zm-101 -151c36,0 55,4 69,-1 16,-6 38,-20 40,-33 2,-19 -7,-49 -21,-57 -39,-22 -86,-34 -126,-4 -17,12 -31,39 -32,60 -1,10 31,24 50,32 12,5 27,4 22,3zm214 2334c47,10 88,21 128,25 66,6 133,10 199,9 41,-1 57,-41 28,-71 -19,-20 -52,-34 -80,-36 -75,-6 -150,-5 -226,-4 -53,1 -56,8 -50,76zm317 -227c0,-1 0,-1 0,-2 -39,0 -78,-1 -118,0 -26,1 -40,18 -42,44 -2,27 2,52 34,59 22,5 44,10 66,9 114,-5 229,-11 343,-17 31,-2 44,-21 43,-50 -1,-33 -22,-42 -51,-42 -92,0 -184,0 -276,0zm-681 138c-7,-35 -13,-62 -18,-89 -6,-42 -31,-55 -71,-54 -98,2 -196,0 -294,1 -62,1 -81,24 -74,83 6,52 26,75 83,74 120,-1 239,-10 374,-16zm1163 -22c34,-5 67,-12 101,-15 45,-4 90,-3 134,-9 12,-2 31,-23 29,-33 -2,-16 -17,-41 -29,-42 -103,-8 -207,-13 -310,-16 -32,-1 -43,24 -40,53 3,22 14,43 16,64 1,16 -7,33 -11,51 -30,-8 -51,-17 -73,-19 -28,-3 -60,-6 -64,35 -3,35 24,38 50,43 108,22 216,21 325,-4 6,-103 -82,-62 -129,-107zm-3300 -7819c-68,75 -132,141 -190,211 -20,25 -32,60 -39,92 -4,19 1,52 14,60 48,31 99,64 153,79 47,12 100,3 150,-2 38,-4 72,-24 81,-64 6,-27 11,-70 -4,-85 -82,-78 -127,-175 -166,-292zm2965 4123c-34,-28 -55,-43 -72,-61 -159,-164 -318,-327 -474,-493 -100,-106 -194,-219 -295,-325 -81,-86 -169,-165 -253,-248 -25,-25 -48,-51 -73,-77 -103,125 -512,956 -543,1099 66,24 1554,120 1710,106zm-3523 2717c158,-296 332,-564 484,-858 -53,-4 -91,-10 -130,-9 -257,1 -511,-33 -765,-69 -75,-11 -151,-16 -227,-18 -45,-1 -94,7 -117,53 -55,111 -107,223 -160,335 -16,33 -30,67 -46,100 -50,106 -101,212 -149,320 -15,35 -21,74 -32,115 23,7 39,17 54,16 362,-23 724,2 1086,15zm2318 -4275l1 1c-30,-23 -63,-17 -87,2 -36,29 -73,35 -116,34 -22,0 -44,10 -65,16 -101,28 -200,60 -302,82 -117,25 -201,89 -259,191 -118,209 -231,419 -350,627 -188,327 -380,653 -570,979 -86,148 -165,299 -242,468 38,-11 66,-19 94,-28 67,-23 132,-48 199,-70 70,-23 140,-41 210,-63 118,-38 235,-78 354,-114 27,-8 62,-7 89,3 61,23 101,6 113,-59 23,-126 52,-250 99,-369 5,-13 15,-25 24,-40 7,12 13,18 12,21 -18,61 -11,129 -54,183 -9,12 -19,35 -14,45 20,42 -3,73 -15,111 -13,44 -22,100 -4,138 12,25 73,27 113,37 13,3 28,1 42,2 172,11 343,20 515,32 110,8 219,25 328,30 157,7 313,5 470,40 190,42 384,55 580,51 169,-4 338,9 507,15 152,6 303,13 455,19 7,0 14,-7 28,-14 -31,-33 -55,-71 -89,-92 -35,-21 -80,-27 -121,-39 0,-4 1,-7 1,-11 19,-3 38,-7 62,-11 -46,-87 -125,-121 -197,-163 15,-98 -67,-116 -124,-151 24,-62 -42,-132 -163,-173 13,-10 24,-18 37,-27 -30,-45 -54,-97 -110,-101 -46,-3 -92,13 -139,18 -28,3 -56,5 -84,3 -36,-2 -73,-10 -109,-12 -177,-11 -354,-21 -532,-31 -318,-18 -636,-35 -954,-54 -93,-6 -185,-19 -277,-31 -15,-2 -28,-17 -43,-25 23,-17 42,-15 59,-20 20,-6 47,-11 56,-26 33,-58 61,-120 89,-181 20,-43 33,-90 55,-132 90,-173 182,-344 272,-516 34,-65 65,-131 99,-196 24,-46 56,-85 123,-95 30,33 64,69 98,106 50,54 99,108 149,161 121,126 248,246 362,378 168,195 347,377 537,550 61,55 131,38 199,56 -6,-23 -13,-41 -25,-55 -80,-99 -157,-200 -242,-294 -155,-171 -315,-338 -473,-507 -92,-98 -185,-197 -279,-294 -70,-73 -143,-144 -213,-216 -61,-62 -121,-126 -181,-189zm-2726 -812c-39,48 -79,95 -118,143 -68,83 -141,161 -202,249 -169,244 -358,469 -587,660 -31,26 -52,62 -78,93 108,-55 205,-121 301,-187 14,-9 25,-23 35,-36 154,-201 311,-399 460,-604 72,-100 126,-212 189,-318 35,-22 54,-55 56,-99 -19,33 -37,66 -56,99zm1693 -102c-25,-60 -68,-105 -118,-145 33,53 61,111 118,145 26,46 49,95 80,138 167,229 335,459 508,684 31,40 82,67 127,94 26,16 53,5 73,-28 -26,-28 -50,-56 -75,-82 -43,-44 -89,-85 -130,-131 -83,-92 -175,-178 -241,-281 -96,-149 -215,-273 -340,-395zm3526 5289c0,52 0,105 0,174 -29,-25 -43,-37 -59,-51 -56,17 -91,54 -97,113 -6,56 -7,112 -7,168 0,31 8,62 7,93 -1,59 -12,118 -8,177 4,58 22,115 35,184 -94,9 -184,18 -273,26 -14,83 5,103 79,84 22,-6 43,-14 65,-18 28,-4 56,-4 74,33 -67,12 -133,12 -190,36 -64,27 -121,9 -182,5 -62,-4 -126,19 -187,-27 48,-3 97,-7 145,-8 50,-1 101,0 151,0 -9,-96 -10,-97 -99,-124 18,-32 49,-22 74,-24 31,-3 62,-1 93,-6 10,-2 25,-17 25,-27 0,-9 -15,-27 -24,-27 -76,-3 -152,-3 -228,-2 -28,1 -36,23 -35,48 1,30 4,60 6,91 -46,0 -94,-13 -124,4 -25,15 -28,66 -43,108 -23,3 -56,8 -89,12 -33,4 -67,7 -99,10 -19,91 -13,100 73,106 94,6 189,11 287,16 6,-29 10,-53 17,-91 34,43 19,85 42,126 -140,-5 -268,-9 -395,-15 -37,-2 -60,-23 -68,-64 -5,-28 -14,-67 -34,-79 -37,-22 -85,-38 -129,-14 -30,16 -57,22 -87,0 15,-17 37,-32 44,-52 13,-35 -6,-67 -36,-73 -43,-9 -74,11 -75,55 -1,33 4,66 7,106 -113,-8 -221,-18 -329,-21 -50,-2 -100,12 -150,16 -76,6 -151,8 -227,16 -31,3 -73,0 -78,48 -4,38 21,67 77,72 87,8 174,8 261,11 44,1 89,0 153,0 -75,46 -140,34 -201,36 -101,3 -203,2 -303,-6 -117,-9 -230,2 -343,29 -15,4 -32,1 -67,1 70,-44 134,-45 194,-54 63,-9 127,-11 189,-17 6,-90 5,-90 -68,-112 -14,-4 -27,-14 -37,-36 49,0 98,0 147,0 28,0 57,0 85,-2 44,-4 84,-18 95,-72 17,20 28,47 46,52 22,6 52,1 72,-11 15,-9 27,-35 28,-54 0,-13 -20,-35 -35,-38 -38,-8 -78,-9 -116,-9 -33,0 -65,7 -105,11 12,-58 53,-55 87,-57 90,-4 180,-4 271,-8 64,-3 87,-44 53,-94 -9,-14 -31,-29 -47,-28 -124,2 -248,8 -371,13 -7,0 -14,8 -27,15 3,34 8,70 8,106 0,51 -16,69 -67,63 -63,-8 -122,6 -183,11 -78,7 -157,-2 -236,-9 -16,-1 -29,-24 -51,-43 -33,43 -90,46 -150,44 -81,-3 -162,-1 -243,-1 -1,-6 -2,-11 -3,-17 27,-6 54,-15 81,-17 62,-4 124,-3 185,-5 111,-4 136,-29 147,-150 -88,-16 -177,4 -265,5 -87,1 -173,13 -263,20 -30,86 5,179 -29,269 -25,-22 -40,-44 -61,-50 -23,-7 -50,0 -75,1 -37,2 -73,5 -109,8 -5,-9 -10,-18 -15,-27 61,-9 121,-20 182,-26 59,-6 69,-15 64,-72 -9,-101 -34,-121 -134,-106 -21,3 -42,11 -82,23 43,-50 45,-94 40,-141 -9,-84 -13,-168 -18,-253 -2,-43 -15,-87 20,-127 52,140 32,290 62,442 31,0 59,1 86,0 172,-6 343,-15 515,-19 73,-2 146,9 219,11 76,1 152,-2 228,-4 25,-1 50,-6 76,-6 130,-5 259,-13 389,-12 141,1 281,13 422,17 118,3 236,1 354,2 70,1 141,4 211,4 124,1 248,6 372,2 81,-3 88,-20 90,-100 5,-195 -27,-388 -45,-581 -6,-65 -9,-129 -10,-194 -1,-43 -20,-63 -62,-62 -42,1 -85,-1 -127,5 -178,23 -355,11 -530,-23 -148,-29 -297,-33 -446,-36 -62,-1 -123,-10 -185,-15 -168,-15 -337,-44 -505,-42 -136,2 -270,-7 -404,-23 -25,-3 -51,-2 -76,2 -33,5 -73,6 -95,25 -16,15 -6,57 -12,86 -3,14 -14,26 -23,42 -53,-32 -28,-87 -54,-132 -32,5 -67,4 -96,17 -126,56 -262,66 -394,92 -96,19 -109,30 -98,128 10,92 25,184 37,276 1,10 0,20 0,38 -44,-23 -41,-58 -45,-91 -11,-92 -24,-184 -36,-275 -5,-38 -33,-41 -62,-41 -87,0 -175,0 -262,0 -68,0 -136,-2 -203,4 -52,5 -104,20 -156,38 86,53 182,67 278,84 0,7 -1,14 -1,21 -31,3 -64,15 -93,8 -83,-19 -174,-19 -243,-81 -10,-8 -26,-16 -38,-14 -136,20 -271,42 -407,65 -43,7 -70,36 -76,80 -12,81 -30,161 -32,243 -5,172 -3,344 0,516 1,94 13,99 106,90 78,-8 157,-6 236,-8 28,-1 52,1 71,-32 9,-15 47,-12 86,-20 4,-71 11,-154 14,-237 1,-45 -5,-90 -8,-135 -10,-129 -20,-258 -29,-388 -2,-32 -15,-67 24,-99 9,22 20,38 22,55 14,126 30,252 36,379 6,121 2,242 3,362 0,59 17,75 78,70 73,-6 146,-16 219,-22 84,-7 169,-12 253,-19 92,-7 105,-22 104,-115 0,-71 0,-141 1,-212 1,-44 -11,-77 -57,-92 -21,-7 -39,-23 -59,-32 -62,-28 -102,-70 -88,-148 -50,-14 -97,-24 -141,-40 -68,-25 -79,-69 -33,-125 5,2 14,4 14,7 5,61 42,82 99,90 41,5 79,25 118,38 -23,73 -18,89 35,125 16,11 32,23 49,32 30,15 61,29 104,49 0,137 0,288 0,435 -36,20 -65,39 -96,54 -22,10 -47,19 -71,21 -115,12 -230,23 -345,33 -48,4 -96,4 -144,5 -20,1 -45,-6 -58,3 -60,43 -123,22 -187,17 -75,-6 -151,-4 -227,-3 -65,1 -110,33 -127,105 -41,-78 -55,-155 -57,-232 -3,-158 -3,-316 -4,-474 0,-87 -1,-174 1,-261 1,-43 -11,-71 -59,-75 -39,-3 -78,-10 -118,-13 -87,-6 -174,-11 -262,-15 -31,-1 -62,2 -93,3 -62,0 -124,3 -185,-1 -51,-3 -100,-12 -148,16 -15,9 -38,6 -57,7 -32,2 -65,3 -99,18 14,9 26,21 41,27 78,32 150,69 209,136 55,61 141,80 223,91 48,6 85,30 97,70 14,51 50,64 89,79 44,17 88,34 122,47 7,114 9,215 20,315 10,96 30,191 45,286 -8,2 -15,5 -23,7 -13,-24 -26,-49 -38,-71 -163,19 -325,38 -487,57 -34,4 -67,6 -101,11 -103,14 -206,27 -309,45 -161,29 -321,61 -482,91 -17,3 -36,-1 -60,-3 18,-50 65,-41 93,-63 12,-176 -2,-352 -23,-529 -12,-101 -18,-202 -22,-303 -1,-36 12,-73 18,-109 7,0 13,1 20,1 4,17 12,35 11,51 -10,213 26,422 41,633 4,62 6,124 9,186 3,54 16,67 68,58 86,-14 174,-25 257,-51 172,-52 350,-59 526,-81 73,-9 145,-21 217,-31 44,-6 89,-12 134,-18 22,-3 43,-7 60,-10 5,-9 8,-12 8,-14 -8,-126 -16,-252 -26,-378 -3,-40 -28,-66 -68,-76 -70,-17 -134,-42 -166,-116 -6,-14 -30,-23 -48,-30 -45,-18 -90,-34 -135,-48 -57,-19 -110,-43 -143,-97 -9,-14 -22,-27 -36,-35 -83,-47 -165,-96 -251,-136 -33,-15 -78,-19 -114,-11 -71,15 -140,41 -211,61 -73,21 -145,45 -219,60 -118,25 -237,47 -360,45 -78,-1 -93,12 -133,55 33,36 67,72 100,107l1 -1c-112,-4 -191,-60 -241,-157 -9,-17 -10,-43 -5,-62 6,-24 21,-46 35,-67 60,-94 123,-186 181,-282 57,-93 109,-188 164,-283 1,-2 2,-6 4,-7 126,-120 91,-275 91,-422 0,-56 -9,-112 -12,-169 -12,-242 -22,-484 -34,-726 -2,-45 -11,-89 -17,-134 -6,-44 -32,-68 -74,-65 -49,4 -80,-18 -115,-61 42,-61 78,-128 127,-184 180,-206 354,-417 497,-652 35,-58 75,-113 118,-165 56,-67 76,-140 67,-227 -17,-162 -27,-326 -39,-488 -1,-11 4,-22 6,-31 83,-16 96,-8 95,66 -1,87 -7,175 -10,262 -1,34 -6,68 -1,101 6,36 22,70 37,113 0,67 0,145 0,229 56,-5 97,-40 144,-63 50,-25 98,-56 150,-78 34,-15 51,-34 47,-70 -8,-72 -17,-145 -26,-217 -6,-53 -13,-106 -17,-159 -10,-140 -7,-280 10,-440 22,22 40,32 43,44 5,27 3,56 3,84 0,99 0,197 1,296 0,6 -1,12 2,17 54,98 18,203 24,305 1,14 -3,29 1,42 24,80 -24,119 -84,154 -95,54 -188,112 -284,163 -22,12 -56,15 -78,6 -14,-6 -17,-42 -22,-64 -2,-10 1,-22 2,-49 -142,164 -238,343 -360,504 -120,158 -261,300 -361,475 145,-99 292,-196 434,-299 134,-98 264,-201 393,-306 93,-75 192,-143 273,-234 133,-149 267,-297 401,-445 98,-108 198,-216 297,-323 4,-4 7,-8 11,-13 17,5 35,10 52,15 -69,78 -137,157 -208,233 -134,143 -271,285 -406,427 -4,4 -10,8 -10,13 -8,70 -62,103 -110,142 -7,6 -10,18 -18,34 22,4 38,9 53,9 132,3 265,5 397,8 188,3 376,8 564,8 135,0 270,-7 405,-10 85,-2 169,-1 254,-1 34,0 68,0 79,-44 -64,-50 -127,-98 -188,-147 -169,-136 -337,-273 -506,-409 -105,-84 -224,-153 -308,-262 6,-23 17,-39 41,-20 147,122 293,246 441,368 72,59 148,112 221,169 49,38 96,77 155,125 0,-33 1,-53 0,-74 -10,-211 -21,-422 -32,-633 -5,-99 -9,-197 -12,-296 -1,-39 2,-78 57,-96 5,24 12,42 11,60 -3,118 -9,237 -11,355 -2,84 -2,169 2,253 6,127 24,253 23,379 -1,104 59,143 148,177 14,-24 28,-48 41,-71 119,-212 237,-423 356,-635 68,-120 137,-240 205,-360 14,-25 35,-48 39,-74 9,-58 47,-81 95,-95 73,-21 147,-41 220,-62 25,-7 50,-16 76,-24 -1,-5 -2,-11 -3,-16 -21,-2 -42,-7 -63,-6 -102,5 -202,-12 -302,-23 -123,-14 -248,-12 -372,-10 -155,2 -310,7 -465,20 -70,6 -137,28 -206,-3 -7,-3 -17,-2 -25,0 -51,15 -102,29 -152,48 -169,65 -345,82 -523,90 -127,6 -253,19 -379,28 -45,3 -90,3 -135,4 -96,2 -191,3 -287,6 -18,1 -37,12 -54,21 -53,32 -106,64 -158,98 -70,47 -137,96 -226,159 26,11 47,19 83,34 -37,13 -51,22 -66,23 -69,2 -91,-15 -125,-94 71,-19 101,-85 150,-131 88,-83 177,-166 265,-249 142,-134 263,-286 375,-445 47,-67 101,-128 151,-193 72,-94 139,-192 213,-284 118,-144 237,-287 362,-425 91,-100 191,-191 287,-286 62,-61 110,-128 109,-221 0,-22 4,-45 6,-67 8,-85 7,-90 -47,-162 16,-22 33,-46 51,-69 -1,-5 -1,-12 -4,-16 -76,-127 -74,-166 18,-279 19,-24 43,-45 65,-67 43,-42 65,-90 48,-152 -12,-47 -16,-94 33,-129 11,-8 11,-36 8,-54 -4,-33 -14,-64 -24,-103 34,-34 43,-80 37,-133 -8,-72 -11,-145 -17,-218 -2,-30 -21,-49 -50,-46 -37,4 -74,14 -127,24 -4,-4 -26,-17 -41,-36 -9,-11 -15,-34 -10,-44 5,-10 28,-16 43,-16 16,0 32,10 48,14 16,5 34,15 49,11 73,-19 141,3 212,15 81,14 90,16 117,105 -33,16 -58,-5 -83,-20 -17,-10 -32,-24 -50,-31 -34,-13 -62,-1 -62,34 0,79 6,157 16,235 2,18 32,32 53,51 -81,95 -55,189 2,285 12,20 16,49 12,72 -10,56 10,97 48,136 35,36 67,77 92,121 45,77 71,158 -17,228 14,22 25,38 35,54 19,30 24,58 5,94 -18,33 -21,75 -27,113 -5,32 -4,66 -7,118 -51,-61 -28,-114 -30,-163 -3,-50 -1,-101 -1,-160 -128,-37 -250,-39 -373,8 0,72 0,139 0,205 0,23 0,45 3,68 6,51 20,60 73,56 62,-5 124,-9 185,-10 40,-1 77,9 108,56 -28,0 -45,0 -62,0 -70,-1 -140,-4 -209,-2 -24,1 -55,7 -71,22 -52,49 -100,104 -152,160 11,11 23,21 34,32 -27,49 -66,83 -119,102 -15,5 -36,14 -41,27 -40,96 -152,126 -197,222 -26,55 -86,93 -134,143 21,9 33,14 46,20 -8,48 -50,60 -83,77 -39,21 -64,46 -78,92 -11,37 -49,66 -75,97 -23,27 -51,52 -15,76 -38,58 -71,112 -107,164 -14,20 -33,37 -51,54 -19,19 -40,37 -70,65 20,14 33,23 51,36 -54,26 -150,16 -110,109 -48,67 -91,128 -140,198 -58,-11 -95,36 -134,99 24,5 41,11 58,11 67,-3 135,-8 202,-13 25,-2 52,1 75,-7 96,-35 195,-23 293,-28 90,-5 179,-15 269,-24 42,-4 84,-10 126,-13 120,-8 232,-46 345,-81 26,-8 50,-25 80,-41 24,31 55,39 98,30 43,-10 90,-3 135,-5 98,-4 197,-13 295,-13 107,0 214,7 320,14 121,7 241,19 362,27 53,3 106,1 175,1 -19,-36 -29,-64 -46,-87 -88,-121 -177,-240 -266,-361 -97,-132 -191,-266 -289,-396 -63,-83 -133,-161 -195,-245 -85,-115 -168,-233 -248,-352 -38,-56 -51,-122 -53,-204 22,18 35,26 45,37 187,236 372,474 561,710 47,59 108,107 159,163 32,35 63,73 87,113 64,104 138,199 225,284 91,89 179,180 265,273 37,40 71,60 125,37 80,-34 131,-1 187,63 134,152 281,292 422,438 49,51 95,104 142,156 132,143 267,283 396,428 115,128 224,260 336,390 68,79 138,156 207,235 61,70 119,142 181,212 124,138 248,277 376,412 44,46 98,83 146,125 11,10 17,27 34,53 -39,5 -68,13 -96,11 -245,-15 -489,-34 -734,-47 -166,-9 -332,-15 -498,-12 -163,2 -318,-39 -476,-67 -44,-8 -88,-18 -133,-21 -318,-22 -636,-42 -953,-64 -152,-11 -303,-26 -454,-40 -11,-1 -27,1 -33,-6 -51,-53 -106,-23 -158,-7 -121,37 -240,84 -363,114 -152,38 -296,93 -436,160 -55,26 -80,-18 -121,-46 15,-19 27,-33 39,-47 25,-30 74,-44 60,-100 -3,-10 23,-29 38,-41 29,-22 50,-45 36,-86 -11,-32 16,-44 35,-60 30,-26 63,-50 50,-98 -1,-5 -1,-12 1,-17 35,-72 71,-143 106,-214 18,5 30,8 48,13 -3,-21 -6,-36 -8,-52 87,-33 98,-120 149,-198 -230,10 -446,21 -662,27 -121,4 -242,4 -363,0 -149,-5 -298,-16 -447,-25 -56,-3 -113,-7 -169,-11 -70,-4 -134,12 -191,56 -89,69 -177,139 -267,208 -69,53 -140,104 -209,158 -89,70 -175,142 -282,184 -33,13 -62,39 -88,64 -13,12 -17,35 -29,63 26,-2 39,2 47,-3 214,-136 445,-242 648,-398 85,-65 192,-102 304,-159 -26,59 -56,90 -98,107 -132,53 -243,140 -360,219 -119,80 -245,151 -370,221 -55,31 -83,62 -73,132 11,69 4,141 0,211 -12,224 32,444 36,666 1,59 4,118 6,177 1,21 2,42 16,67 14,-26 27,-52 43,-77 16,-24 24,-58 70,-64 -4,23 -2,43 -10,58 -56,107 -113,214 -170,320 -53,99 -107,197 -162,295 -17,29 -46,51 -60,81 -49,102 -115,193 -185,281 -11,14 -15,35 -24,55 60,33 119,17 176,12 297,-30 574,-140 859,-219 44,-12 72,-34 77,-87 4,-35 28,-72 51,-101 31,-41 64,-74 53,-135 -4,-24 20,-57 38,-80 34,-45 74,-83 58,-150 -4,-17 24,-41 35,-63 15,-29 29,-59 43,-89 20,-43 38,-87 61,-129 12,-23 31,-41 13,-69 -17,-27 -41,-39 -72,-33 -52,10 -104,24 -156,34 -144,27 -288,53 -432,77 -11,2 -24,-9 -52,-21 32,-13 48,-23 64,-25 117,-20 234,-39 351,-58 8,-1 17,-2 25,-6 55,-22 114,-38 164,-68 64,-39 27,-110 30,-164 8,-126 -3,-253 -5,-380 -2,-124 -2,-248 -4,-372 -2,-121 -5,-242 -10,-362 -2,-65 -9,-130 -10,-194 -1,-81 29,-106 108,-100 203,15 405,14 608,-4 137,-12 276,-7 414,-9 118,-2 236,-4 354,-3 20,0 41,9 78,18 -51,36 -91,41 -133,41 -90,1 -180,3 -269,3 -113,0 -226,-3 -339,0 -144,4 -287,15 -431,17 -96,2 -191,-6 -287,-10 -21,-1 -46,-11 -58,27 10,5 20,16 31,16 29,2 40,20 42,44 3,31 4,62 2,93 -7,146 -21,292 -21,439 -1,166 9,332 16,498 4,99 12,197 14,295 2,69 12,88 83,101 99,19 200,35 300,47 159,19 319,34 479,48 56,5 113,3 169,4 45,0 90,0 136,0 -5,-17 -19,-41 -20,-65 -1,-27 8,-55 15,-83 30,-112 12,-224 5,-337 -6,-96 -11,-191 -14,-287 -1,-18 11,-36 17,-57 48,5 62,34 57,70 -25,169 6,338 7,506 0,78 13,155 20,233 22,3 34,8 44,6 184,-40 376,-48 549,-132 22,-11 49,-13 73,-20 51,-15 104,-26 153,-46 78,-32 152,-74 245,-65 -4,-133 -8,-259 -11,-384 -3,-122 -19,-243 -18,-365 7,-1 15,-3 22,-4 7,13 17,25 21,38 6,25 10,50 11,75 7,161 16,321 20,482 5,169 3,171 166,192 173,21 347,39 521,54 75,6 151,2 227,3 71,2 82,-12 76,-84 -6,-73 -8,-146 -10,-219 0,-15 7,-31 11,-51 64,91 145,92 201,2 24,54 61,83 121,84 55,1 102,-1 120,-77 28,38 21,90 73,92 38,1 76,10 117,16 10,-37 17,-66 25,-94 40,113 -8,225 8,341 -49,-67 -116,-65 -192,-67 -5,27 -9,53 -16,92 71,0 133,-1 194,0 149,4 297,11 446,25 137,13 276,4 414,7 84,2 169,10 253,15 16,1 33,-3 51,-4 26,-57 10,-112 7,-168 -9,-172 -16,-343 -23,-515 -1,-12 8,-25 17,-52 17,27 31,40 33,56 5,30 3,62 4,93 1,30 14,48 44,53 36,6 72,16 109,17 206,6 412,2 616,-26 44,-6 88,-5 130,-8 49,371 201,698 322,1043 -55,28 -57,88 -50,153 -16,2 -27,5 -37,4 -72,-7 -72,-8 -101,55 -26,55 -52,63 -127,32 15,-12 26,-21 38,-29 15,-11 40,-19 44,-33 14,-59 56,-73 107,-78 8,-1 16,-6 23,-9 12,-71 3,-90 -51,-80 -150,29 -298,-4 -461,-9 45,47 84,87 121,129 37,42 73,86 108,130 36,46 70,93 108,142 -36,20 -61,0 -86,-23 -28,-27 -57,-52 -86,-78 -4,-4 -12,-7 -12,-11 7,-102 -114,-112 -139,-194 -12,-39 -57,-61 -108,-41 -8,-29 28,-55 -5,-78 -25,-18 -43,-46 -69,-62 -23,-15 -51,-21 -78,-31 -13,-77 -19,-82 -160,-127 1,-7 1,-15 4,-21 3,-7 8,-13 12,-19 -29,-35 -56,-69 -94,-115 52,1 74,22 97,41 63,51 127,101 190,152 10,8 13,24 22,33 37,38 74,77 113,113 11,11 29,18 45,19 78,4 157,8 235,8 103,-1 207,-5 320,-8 -28,-66 -16,-134 -80,-174 -9,-6 -10,-51 -16,-78 -18,-86 -14,-87 -78,-142 39,-16 34,-44 20,-74 -26,-55 -55,-108 -76,-164 -12,-30 -15,-65 -16,-98 -1,-66 -53,-117 -51,-185 1,-36 -37,-37 -66,-34 -64,6 -129,19 -193,19 -169,2 -338,0 -506,-2 -22,0 -44,-2 -73,-4 -13,108 2,210 12,313 3,34 10,67 10,101 1,46 3,90 60,120 -27,10 -42,21 -57,21 -132,-1 -264,-6 -396,-7 -81,-1 -163,3 -244,3 -81,0 -163,-1 -244,-5 -174,-8 -348,-17 -522,-26 -253,-14 -507,-26 -760,-46 -121,-9 -240,-38 -360,-51 -114,-12 -227,-47 -344,-25 -14,3 -31,-13 -47,-14 -27,-1 -54,3 -80,6 -136,46 -271,95 -409,136 -94,29 -191,47 -286,70 -33,8 -66,13 -99,20 -47,9 -75,33 -99,80 -58,115 -128,225 -194,336 -17,29 -34,58 -51,87 -50,88 -100,176 -150,264 -21,38 -41,76 -67,127 72,-15 126,-28 181,-37 108,-18 217,-33 325,-51 58,-10 116,-26 174,-31 46,-4 67,-26 87,-65 48,-92 102,-181 158,-268 41,-64 92,-122 132,-186 101,-160 198,-321 296,-482 14,6 28,13 46,21 -46,67 -89,129 -131,192 -20,30 -41,61 -58,93 -77,155 -176,295 -285,428 -55,67 -93,145 -118,232 167,38 326,36 485,4 99,-20 199,-39 297,-64 81,-21 160,-50 249,-78 -17,-60 -26,-122 -53,-176 -37,-74 -63,-152 -101,-225 -55,-106 -119,-207 -178,-310 -9,-16 -11,-35 -20,-70 27,17 42,22 51,32 55,64 112,127 161,195 22,30 38,70 43,107 6,41 16,75 42,108 14,17 24,39 27,61 10,62 36,112 95,149 -51,53 6,91 10,137 163,4 320,8 477,13 158,5 315,9 473,16 155,7 309,27 464,26 137,-1 270,16 403,38 152,26 303,16 455,17 146,1 293,10 439,14 135,3 270,4 405,7 34,1 67,3 100,10 6,1 8,25 12,39l1 -1c-243,55 -490,26 -736,24 23,300 44,588 67,896 28,-25 50,-35 53,-48 10,-44 18,-89 17,-133 -4,-98 -15,-196 -21,-294 -1,-22 2,-44 4,-68 24,-3 53,1 59,-9 33,-52 111,-61 121,-133 1,-7 17,-12 26,-18 2,3 4,7 7,10z"/>
  <path class="fil0" d="M19421 19194c5,-1 9,-1 14,-2 -1,-12 -3,-24 -4,-37 -5,1 -9,1 -14,2 1,12 3,24 4,37zm2477 -2608l0 -3c0,-16 -9,-34 -25,-53 -40,-47 -87,-88 -135,-127 -71,-60 -144,-117 -219,-173 -49,-37 -70,-87 -73,-145 -3,-65 -5,-130 -7,-194 -4,-118 -6,-237 -11,-355 -3,-64 17,-115 69,-154 44,-33 83,-72 128,-112 -17,-16 -26,-29 -38,-33 -79,-30 -130,-97 -192,-149 -16,-14 -35,-33 -39,-52 -16,-73 -65,-118 -123,-154 -35,-22 -61,-47 -74,-87 -23,-65 -59,-121 -125,-153 -22,-11 -39,-33 -59,-47 -12,-8 -27,-13 -49,-23 11,57 50,74 80,94 58,37 98,84 112,152 9,39 34,61 70,79 54,27 103,61 122,122 14,45 38,80 78,107 15,10 23,32 39,55 -89,0 -164,2 -240,-1 -82,-3 -163,-11 -244,-19 -22,-2 -48,-6 -62,-20 -79,-73 -153,-150 -201,-249 -20,-42 -45,-81 -68,-122 -6,3 -11,6 -17,9 55,89 76,197 154,273 24,23 35,49 19,74 -9,15 -36,22 -56,28 -16,5 -34,1 -51,2 -177,6 -355,10 -532,17 -200,8 -400,18 -599,29 -50,3 -101,8 -148,23 -108,33 -213,72 -320,107 -91,30 -183,58 -273,90 -29,10 -60,22 -77,62 207,-61 404,-119 602,-176 73,-21 84,-15 112,59 -165,56 -331,110 -496,167 -95,33 -170,-19 -261,-41 15,-40 22,-71 37,-96 68,-107 132,-218 210,-317 99,-126 147,-272 203,-417 24,-63 47,-126 70,-189 9,-24 25,-47 26,-71 3,-70 34,-130 63,-191 22,-46 41,-94 52,-143 25,-106 82,-201 99,-310 13,-86 44,-169 65,-254 51,-214 99,-428 151,-642 14,-57 45,-109 38,-171 -2,-17 7,-41 19,-54 54,-56 65,-135 105,-198 15,-25 3,-43 -27,-46l1 -1c-33,59 -67,118 -99,177 -33,63 -61,127 -57,201 1,24 -10,49 -19,72 -29,73 -60,145 -88,218 -5,12 -5,28 -2,41 17,65 -4,123 -31,179 -18,37 -27,71 -24,113 4,56 -4,112 -39,161 -12,16 -23,46 -16,61 24,51 -3,86 -28,124 -23,34 -56,64 -47,113 9,50 -10,93 -35,136 -25,42 -63,81 -35,139 5,11 -5,33 -13,47 -22,39 -47,76 -69,116 -13,24 -37,55 -31,74 21,65 -10,116 -34,168 -40,89 -85,176 -128,264 -16,33 -39,63 -50,97 -23,75 -68,135 -114,196 -99,130 -197,261 -293,392 -13,18 -18,42 -33,78 40,-6 61,-8 82,-12 112,-18 164,25 167,136 4,146 10,293 17,439 3,79 9,157 15,236 3,48 -13,88 -41,125 -31,40 -63,80 -89,123 -57,99 -120,191 -213,260 -13,10 -26,23 -35,37 -29,45 -18,74 34,86 29,7 59,10 90,15 -3,67 -8,129 -8,191 -1,104 5,208 1,312 -5,158 -22,315 -22,473 0,180 16,361 19,541 3,141 -3,281 -2,422 0,64 8,128 9,193 0,56 -4,112 -8,168 -3,39 -26,59 -66,65 -67,9 -133,22 -200,33 -198,31 -400,9 -597,56 -227,54 -452,116 -688,125 -157,6 -314,27 -471,39 -104,8 -209,7 -312,20 -210,27 -422,34 -633,24 -206,-10 -411,-19 -616,-1 -42,4 -85,4 -127,1 -118,-10 -234,-38 -353,-17 -28,5 -54,-6 -56,-37 -3,-55 -1,-110 -1,-165 33,51 -5,127 74,162 -9,-92 -16,-178 -25,-264 -1,-8 -11,-15 -20,-28 -9,27 -16,46 -28,82 -19,-41 -31,-67 -47,-102 -15,34 -26,58 -35,77 -71,32 -92,-17 -118,-76 -16,43 -26,70 -37,98 -46,5 -89,9 -133,14 4,20 5,27 6,36 17,108 1,126 -107,121 -19,-1 -38,2 -73,4 50,46 93,43 134,37 88,-13 181,-2 265,-42 17,-8 39,-6 58,-6 29,0 49,12 49,45 0,32 -20,45 -49,46 -152,4 -303,7 -460,11 -25,-86 9,-180 -35,-266 -6,10 -10,14 -11,19 -1,22 -2,45 -2,68 0,28 2,57 -1,85 -5,47 -34,65 -76,43 -21,-11 -37,-33 -50,-53 -10,-15 -14,-35 -20,-52 -4,1 -8,1 -12,2 0,34 0,68 0,104 -73,11 -140,21 -208,31 0,7 1,14 1,21 115,-8 230,-8 345,10 -202,88 -419,54 -625,90 -15,-25 -26,-43 -37,-61 -13,32 -8,69 -53,77 -75,12 -149,26 -229,41 -13,-39 -25,-75 -37,-111 -12,18 -11,33 -12,49 -2,63 -11,73 -72,80 -20,2 -39,2 -59,3 -138,11 -277,12 -412,34 -204,33 -409,41 -615,52 -84,5 -89,-5 -93,-90 -1,-25 11,-55 -21,-74 -5,9 -10,13 -11,18 -2,28 -2,56 -3,84 -2,69 -14,86 -83,90 -115,7 -231,10 -346,10 -109,-1 -219,-21 -328,5 -12,3 -26,-3 -45,-6 6,-63 12,-120 17,-174 57,-18 59,-19 88,-49 -77,-20 -219,0 -266,38 8,4 15,10 22,11 113,11 113,11 110,124 0,11 0,23 -1,34 -1,38 -20,56 -58,59 -34,2 -68,3 -101,9 -144,26 -288,53 -431,82 -74,15 -142,-5 -214,-24 10,-16 16,-26 25,-40 -117,-8 -226,-17 -335,-24 -188,-13 -377,-12 -560,-65l1 -1c-1,46 -24,58 -71,60 -135,5 -271,6 -404,28 -165,28 -329,37 -495,33 -84,-2 -168,15 -251,28 -19,3 -35,23 -52,35 0,0 6,4 6,4 56,-6 112,-17 168,-18 214,-2 429,6 640,-44 19,-4 39,1 59,-1 144,-13 293,7 431,-58 14,-7 34,-6 49,-3 152,32 307,32 462,42 67,4 135,14 201,25 28,5 54,19 81,29 -1,6 -2,13 -3,20 -116,20 -231,41 -347,59 -173,27 -345,61 -519,75 -222,17 -445,17 -668,24 -104,4 -208,9 -312,12 -28,1 -56,-2 -84,-4 -62,-4 -124,-10 -185,-11 -118,-1 -237,-3 -355,1 -197,7 -394,16 -591,27 -279,15 -557,46 -835,45 -155,0 -309,19 -464,14 -45,-1 -90,13 -135,20 31,43 68,33 102,30 205,-21 410,-15 616,-17 189,-1 378,-11 566,-22 194,-11 388,-30 582,-43 185,-12 371,20 556,-16 11,-2 23,0 34,0 141,4 281,10 422,13 302,6 603,-18 902,-48 294,-30 588,-72 880,-114 231,-34 462,-73 692,-117 100,-19 200,-39 302,-44 197,-10 394,-21 590,-33 59,-4 118,-11 177,-16 177,-15 353,-29 530,-44 31,-2 62,-3 93,-4 65,-1 130,1 194,-4 104,-9 208,-16 310,-36 188,-36 375,-79 568,-78 50,0 102,-5 151,-14 103,-18 206,-37 306,-63 101,-27 206,23 304,-25 14,-7 33,-1 50,0 50,4 102,19 150,10 105,-19 207,-6 311,0 106,6 214,-3 321,-6 37,-1 73,-4 110,-2 225,9 449,22 674,28 98,3 197,-10 295,-14 155,-7 310,-13 465,-20 17,-1 34,-4 50,-6 115,-15 229,-32 344,-44 84,-9 170,-3 252,-18 105,-19 206,-57 311,-80 93,-20 190,-48 283,-42 123,8 242,-2 362,-15 84,-9 170,-16 250,-39 104,-30 207,-54 316,-44 8,1 19,2 25,-2 32,-21 79,-37 91,-67 17,-41 9,-93 9,-141 0,-104 -4,-208 -1,-311 4,-124 14,-248 19,-371 1,-26 -5,-52 -8,-78 -8,-1 -15,-2 -23,-3 -8,18 -21,35 -22,54 -3,39 2,79 0,118 -8,225 -16,449 -26,674 -1,21 -13,41 -19,60 -75,-4 -144,-8 -214,-12 0,-62 0,-115 0,-168 -1,-84 -3,-168 -3,-252 0,-45 8,-90 6,-135 -8,-211 -21,-422 -25,-634 -2,-112 12,-225 14,-338 3,-228 3,-457 3,-685 0,-84 21,-114 102,-139 159,-49 318,-96 477,-146 48,-15 94,-35 152,-56 5,37 12,66 13,95 1,31 -5,62 -5,93 0,135 2,270 3,406 1,96 0,191 2,287 3,115 11,231 12,346 0,197 -5,395 -5,592 0,214 4,429 2,643 -1,71 -2,137 34,202 27,49 54,81 114,81 189,0 378,3 567,4 179,1 359,0 548,0 16,71 25,150 4,240 26,-4 47,-5 67,-9 27,-6 54,-22 81,-22 194,-1 389,-25 582,18 30,7 61,9 92,9 12,0 24,-13 40,-24 -267,-80 -529,-76 -795,-45 -12,-101 -22,-194 -33,-290 46,0 80,-2 114,1 15,1 37,5 44,15 29,42 70,40 113,41 185,7 371,16 556,24 65,3 130,10 194,8 54,-2 108,-16 162,-24 0,44 0,85 0,125 -89,50 -195,37 -275,99 113,5 218,-34 327,-48 -3,-61 -8,-116 -8,-172 0,-54 2,-105 -36,-152 -15,-19 -13,-53 -15,-81 -12,-220 -23,-439 -33,-659 -11,-242 -24,-484 -31,-726 -11,-358 14,-716 32,-1074 3,-58 30,-94 77,-121 38,-22 58,-44 59,-69zm-3085 -600c-4,0 -9,0 -13,0 0,24 0,49 0,73 0,8 3,16 5,24 3,0 5,0 8,0 0,-10 0,-20 0,-31 0,-22 0,-44 0,-66zm-4754 3452c12,30 15,63 34,81 30,30 68,50 116,26 27,-13 60,-15 87,-28 12,-6 24,-25 24,-38 0,-13 -12,-30 -24,-39 -13,-9 -32,-13 -47,-12 -57,1 -114,6 -190,10zm5189 -2735c-20,-45 -52,-44 -96,-35 -183,39 -347,129 -520,194 -41,15 -80,35 -124,55 30,35 59,40 90,27 54,-22 108,-46 162,-69 64,-28 127,-58 192,-84 65,-26 131,-49 198,-70 29,-9 61,-11 98,-17zm2549 -70c-1,-8 -2,-16 -3,-23 -120,-5 -235,-45 -359,-34 -191,17 -382,24 -573,36 -25,2 -50,7 -76,9 -185,14 -370,31 -556,42 -140,8 -281,13 -421,11 -112,-1 -224,-15 -336,-23 -54,-4 -109,-14 -181,13 37,21 57,40 79,42 101,9 202,15 303,17 98,2 197,-12 295,-3 148,14 292,-5 438,-23 61,-8 123,-17 185,-17 137,0 275,9 412,6 234,-5 467,-16 701,-27 31,-1 62,-16 93,-25zm-3226 165c5,5 9,11 14,16 31,-12 63,-23 94,-35 128,-50 255,-104 385,-150 85,-30 167,-58 231,-128 70,-77 145,-148 217,-224 12,-13 17,-32 30,-59 -32,0 -54,-4 -73,1 -184,49 -369,99 -552,152 -25,7 -50,27 -66,48 -95,125 -186,252 -279,378zm260 -461c14,-2 25,-2 35,-4 199,-53 398,-105 596,-159 57,-16 65,-26 64,-92 -5,-217 -13,-434 -21,-650 0,-8 -7,-15 -12,-27 -21,3 -44,3 -64,10 -180,57 -359,115 -539,172 -38,12 -53,38 -51,77 3,53 5,107 8,160 4,70 10,140 13,210 2,64 0,128 0,199 -36,17 -56,49 -30,105zm2883 397c-27,-9 -44,-20 -62,-20 -144,0 -288,2 -431,5 -110,2 -219,8 -329,10 -147,3 -295,-10 -439,8 -188,23 -375,34 -565,28 -138,-5 -276,-2 -414,-7 -72,-2 -83,2 -84,78 -4,248 -9,496 -11,744 -3,304 -2,609 -4,913 -1,198 12,396 58,587 24,102 21,193 0,290 -6,29 -5,60 -7,93 21,4 34,9 48,9 90,1 180,0 269,0 96,1 191,6 287,5 146,-1 293,-5 439,-6 94,-1 94,0 109,-93 1,-5 7,-9 12,-15 90,-6 183,-21 274,-16 207,11 414,32 621,48 69,5 138,11 193,-14 -8,-61 -20,-113 -20,-164 2,-124 14,-248 15,-372 2,-257 1,-513 0,-770 -1,-127 -8,-253 -8,-380 0,-177 3,-354 4,-531 0,-39 7,-80 1,-118 -16,-106 -32,-211 44,-312zm-290 -1378c29,-19 58,-38 87,-57 -79,-29 -154,-58 -226,-52 -102,8 -202,-3 -303,-5 -211,-4 -421,-18 -632,-6 -270,15 -541,14 -811,20 -23,1 -46,7 -69,11 -2,7 -4,13 -6,20 24,21 46,47 73,60 36,17 41,42 38,75 -4,42 -10,84 -9,126 5,178 8,355 22,532 9,116 -19,207 -107,285 -69,62 -129,135 -195,205 823,25 1632,-64 2445,-97 -16,-25 -33,-41 -52,-57 -50,-41 -102,-80 -151,-122 -38,-33 -74,-59 -128,-32 -13,7 -33,-1 -50,-1 -84,0 -169,-6 -253,1 -212,17 -422,-6 -633,-15 -143,-6 -287,-18 -430,-20 -90,-1 -180,11 -270,16 -14,1 -29,-6 -64,-14 35,-13 50,-22 65,-23 185,-16 371,-34 557,-14 90,10 180,21 270,22 262,2 524,-1 786,-3 5,0 9,-6 22,-13 0,-25 1,-56 0,-86 -3,-76 -9,-151 -12,-227 -5,-113 -8,-225 -15,-338 -4,-70 7,-135 52,-191l1 -1z"/>
  <path class="fil0" d="M18623 19719c-7,4 -14,10 -21,11 -170,21 -341,58 -511,58 -185,0 -363,25 -544,56 -158,26 -319,33 -479,43 -138,9 -276,7 -414,17 -68,5 -134,9 -201,-3 -19,-3 -40,-3 -59,-1 -146,13 -291,30 -437,41 -98,7 -197,2 -296,7 -160,8 -321,20 -481,31 -87,6 -175,8 -261,18 -67,8 -132,30 -199,37 -115,13 -230,20 -345,30 -30,3 -62,0 -80,35 -5,9 -25,17 -36,15 -95,-12 -184,19 -274,37 -169,35 -341,32 -512,50 -159,17 -321,21 -474,78 -18,7 -39,7 -58,9 -244,26 -487,52 -731,78 -8,1 -17,2 -25,1 -223,-19 -436,39 -653,72 -209,32 -419,55 -629,82 -78,10 -158,16 -234,35 -234,58 -475,63 -711,99 -162,25 -323,53 -485,75 -92,13 -185,19 -278,25 -321,18 -641,44 -963,38 -196,-4 -394,25 -590,40 -93,7 -185,21 -278,24 -253,8 -507,14 -761,16 -144,1 -287,-10 -431,-8 -81,1 -162,21 -243,28 -92,8 -185,13 -278,17 -9,0 -18,-7 -45,-18 34,-10 51,-18 68,-20 154,-17 307,-37 462,-48 75,-6 152,3 228,6 28,1 57,12 84,7 116,-23 231,3 345,0 180,-5 360,-16 540,-27 160,-10 320,-25 480,-38 62,-5 123,-11 185,-15 96,-6 191,-14 287,-15 124,-1 248,4 372,6 31,0 62,-2 93,-4 166,-13 331,-24 497,-40 140,-13 281,-25 420,-48 256,-43 512,-82 770,-105 61,-6 121,-26 183,-34 210,-28 420,-51 629,-81 190,-27 378,-62 567,-92 70,-11 140,-27 209,-25 219,7 432,-34 648,-59 78,-9 158,-11 235,-24 106,-17 209,-47 315,-61 156,-20 314,-28 471,-46 117,-13 234,-34 350,-53 97,-16 194,-35 292,-49 86,-13 171,-29 260,-29 92,1 183,-28 275,-38 123,-14 246,-25 370,-33 273,-18 546,-35 819,-51 168,-10 337,-13 506,-24 253,-16 505,-43 758,-54 204,-9 402,-62 604,-67 150,-4 297,-17 446,-28 65,-5 129,-12 194,-15 20,-1 40,7 60,11 -1,6 -2,13 -3,19z"/>
  <path class="fil0" d="M20123 11173c5,-9 9,-15 11,-21 0,-1 -9,-8 -12,-7 -6,2 -12,7 -18,11 5,5 10,9 19,17zm-225 863c-6,10 -12,20 -18,30 11,-1 22,-2 33,-3 104,-8 144,-74 96,-165 -31,-58 -74,-110 -112,-167 -63,37 -82,94 -111,144 -25,44 -16,83 21,112 26,21 60,33 91,49zm-117 356c-68,-55 -72,-137 -9,-213 -9,-21 -18,-44 -29,-69 12,-12 23,-24 35,-37 -3,-8 -5,-16 -10,-23 -52,-68 -57,-138 -16,-213 20,-37 38,-75 54,-115 9,-23 11,-48 17,-72 7,-29 9,-61 24,-85 51,-81 47,-102 -42,-144 108,-83 52,-185 33,-288 15,0 30,0 45,0 -28,-49 -28,-49 -8,-111 9,9 18,14 22,22 49,81 72,93 165,64 52,-16 93,-10 126,32 -37,71 -68,83 -123,49 -63,-38 -89,-40 -119,-7 -37,40 -40,110 -6,154 6,8 14,16 26,28 -103,56 -36,140 -39,211 -6,122 64,217 128,314 47,71 44,85 -7,154 12,16 25,32 40,51 -96,88 -51,185 -16,280 -89,19 -153,15 -204,-13 35,-5 64,-10 86,-13 7,-80 14,-154 20,-227 -112,-33 -161,-1 -151,104 6,63 -10,115 -44,166l1 -1z"/>
  <path class="fil0" d="M8994 19945c-35,12 -48,-9 -49,-38 -1,-56 2,-113 2,-169 0,-33 0,-66 0,-107 -79,0 -155,-6 -229,1 -286,27 -571,59 -856,88 -103,10 -206,14 -309,27 -52,7 -103,27 -154,40 -26,7 -53,13 -91,22 -4,-50 -7,-89 -10,-129 6,-2 12,-4 18,-6 12,24 23,49 32,68 100,-20 196,-42 294,-57 75,-11 152,-9 227,-18 122,-14 248,-4 369,-54 3,-25 5,-48 8,-76 11,3 22,3 24,7 10,20 16,41 28,72 114,-15 230,-27 346,-46 118,-20 234,-5 351,5 0,128 0,249 0,369 0,0 1,-1 1,-1z"/>
  <path class="fil0" d="M6995 18761c13,0 34,-6 39,1 36,47 90,55 142,66 60,13 105,40 111,109 3,41 28,58 66,64 29,4 54,15 57,56 -22,4 -43,7 -71,12 -18,179 35,353 18,533 -41,8 -91,18 -133,27 7,73 12,133 18,193 -15,9 -24,16 -33,20 -55,23 -57,29 -57,104 0,43 15,70 58,79 171,36 341,71 512,107 0,0 6,4 6,4 96,29 191,59 296,91 -56,37 -102,20 -150,7 -158,-42 -316,-83 -474,-123 -74,-19 -148,-36 -222,-50 -45,-8 -62,-35 -63,-76 -1,-23 -2,-45 0,-68 6,-102 -12,-83 93,-122 -8,-29 -16,-60 -24,-91 -6,-21 -16,-43 -17,-64 -1,-30 8,-55 47,-58 16,-1 32,-11 48,-15 40,-9 56,-35 54,-74 -2,-34 -4,-68 -6,-101 -5,-84 -14,-169 -14,-253 0,-83 -48,-148 -69,-224 -4,-14 -29,-24 -47,-31 -26,-10 -53,-20 -81,-24 -59,-8 -90,-41 -102,-97l-1 1z"/>
  <path class="fil0" d="M20091 12432c50,87 91,178 114,276 12,53 32,99 55,148 46,96 73,200 113,299 45,111 51,236 118,339 9,14 17,30 20,46 13,65 39,120 81,173 22,29 29,73 33,111 6,60 25,114 55,167 38,68 73,139 102,212 12,29 7,66 4,99 -3,36 3,63 32,90 35,31 61,71 92,107 -3,4 -7,9 -10,13 -13,-6 -29,-8 -37,-18 -33,-34 -68,-68 -94,-108 -16,-24 -23,-58 -22,-87 3,-56 -16,-102 -35,-153 -42,-115 -129,-214 -128,-345 0,-13 -3,-30 -12,-40 -78,-89 -82,-214 -152,-307 -8,-11 -18,-24 -19,-37 -6,-83 -40,-156 -68,-233 -28,-79 -48,-161 -74,-242 -8,-24 -14,-54 -32,-68 -56,-45 -50,-107 -63,-167 -14,-62 -48,-119 -72,-179 -12,-29 -21,-59 -31,-89 10,-3 19,-6 29,-9z"/>
  <path class="fil0" d="M14344 18235c47,7 67,38 68,82 1,28 0,56 0,84 1,205 2,410 4,615 0,33 10,67 14,100 11,90 -27,128 -119,127 -101,-1 -202,4 -303,5 -39,1 -78,0 -121,-14 14,-7 28,-19 43,-20 104,-7 208,-16 311,-17 139,-2 142,-2 129,-143 -2,-25 -1,-50 -1,-76 -1,-81 -4,-163 -4,-244 0,-110 2,-219 3,-329 0,-30 0,-61 0,-107 -59,51 -138,33 -179,96 -85,13 -156,83 -249,65 -2,-3 -4,-7 -6,-10 14,-10 26,-22 41,-28 97,-42 196,-81 292,-126 29,-13 52,-41 77,-62l-1 1z"/>
  <path class="fil0" d="M10519 19443c5,9 10,18 15,27 -48,47 -47,113 -57,179 -14,-10 -23,-13 -26,-20 -36,-86 -106,-102 -187,-87 -134,24 -268,34 -404,31 -19,0 -38,7 -62,13 0,41 0,78 0,116 -5,1 -10,2 -15,3 -8,-25 -19,-50 -24,-76 -9,-47 -44,-66 -80,-50 -94,43 -188,18 -283,16 -37,-1 -74,6 -112,9 -1,-6 -3,-11 -4,-17 13,-7 25,-17 39,-20 27,-6 56,-14 83,-11 132,16 257,-17 389,-46 4,-17 9,-37 18,-69 16,33 27,55 38,78 36,0 72,0 113,0 3,-25 3,-47 9,-68 3,-11 17,-20 26,-29 10,11 21,23 31,34 -9,2 -18,5 -27,7 5,11 10,23 14,34 4,-1 8,-2 12,-3 0,-13 0,-26 0,-39 52,55 111,70 188,52 81,-19 165,-18 257,-27 0,-50 0,-95 0,-140 6,-1 12,-2 17,-3 10,36 20,71 30,107z"/>
  <path class="fil0" d="M9630 13976c-9,-13 -15,-28 -26,-39 -56,-54 -58,-54 -18,-119 18,-29 26,-52 11,-85 -9,-18 -6,-44 -4,-65 7,-64 12,-129 27,-191 22,-88 49,-175 31,-268 -3,-17 12,-37 18,-56 6,-19 20,-42 13,-56 -46,-99 27,-201 -13,-299 -5,-11 4,-27 6,-41 5,-50 10,-100 13,-150 2,-31 2,-61 39,-87 24,77 21,148 4,218 -8,34 -10,62 1,97 9,29 2,66 -7,98 -11,39 -21,76 0,114 22,39 13,76 -6,113 -23,47 -37,94 -13,146 6,12 10,29 6,41 -23,66 -43,129 -18,202 7,22 -30,57 -43,88 -10,25 -29,62 -19,76 41,57 13,101 -20,147 8,18 18,36 24,54 6,18 8,36 11,55 -6,3 -12,5 -18,8z"/>
  <path class="fil0" d="M19848 12697c-35,130 -70,260 -104,391 -5,21 -6,45 -2,66 12,64 -5,118 -49,163 -49,51 -65,102 -44,175 22,76 0,156 -41,227 -24,41 -49,79 -37,134 5,23 -13,53 -25,78 -28,59 -47,117 -40,186 5,41 -13,89 -32,128 -25,51 -50,99 -53,158 -1,31 -21,61 -46,90 -9,-38 -21,-76 -25,-114 -2,-14 9,-33 21,-44 78,-76 113,-163 98,-275 -5,-40 24,-85 38,-127 7,-21 27,-48 21,-62 -28,-58 9,-96 34,-138 49,-82 81,-166 44,-265 -20,-52 2,-101 36,-141 45,-54 69,-106 56,-183 -10,-60 19,-127 35,-189 25,-98 54,-195 83,-292 4,-13 13,-23 34,-34 -1,22 -2,45 -3,67l1 -1z"/>
  <path class="fil0" d="M18893 18396c30,-49 30,-49 173,-99 7,32 19,63 20,94 2,82 8,165 -4,245 -17,114 -8,226 14,336 23,111 1,218 0,326 0,24 -6,48 -9,76 -47,-17 -47,-51 -48,-85 -1,-162 -4,-325 -4,-487 0,-70 9,-140 13,-210 2,-39 2,-79 2,-118 -1,-101 -21,-114 -116,-81 -12,4 -25,3 -42,4z"/>
  <path class="fil0" d="M12404 16710c-2,26 -1,43 -4,59 -11,63 -41,82 -107,77 -140,-11 -281,-18 -421,-28 -43,-3 -87,-6 -130,-10 0,-7 -1,-15 -1,-22 23,-3 45,-10 68,-9 157,7 314,16 471,24 3,0 6,1 8,1 25,3 46,-4 50,-32 5,-32 -19,-36 -43,-38 -84,-7 -168,-17 -252,-22 -87,-6 -174,-11 -262,-11 -60,0 -126,3 -111,108 -48,-36 -48,-69 -35,-100 12,-31 39,-41 76,-40 163,5 326,-2 488,26 44,8 89,2 134,5 23,1 47,7 73,11z"/>
  <path class="fil0" d="M7827 17121c69,-79 46,-195 21,-312 -20,3 -40,6 -64,9 27,-37 58,-66 70,-102 13,-39 6,-83 9,-125 1,-19 5,-38 7,-60 -50,-17 -85,60 -138,12 7,-12 12,-28 22,-38 31,-29 63,-56 96,-81 11,-8 31,-11 45,-7 7,2 14,23 13,35 -14,187 -4,374 23,560 11,75 0,87 -104,110z"/>
  <path class="fil0" d="M7470 16873c78,-61 19,-142 35,-223 -37,20 -64,35 -99,55 21,-85 57,-114 147,-127 1,37 -8,77 26,106 4,3 2,16 0,24 -25,98 -1,195 3,292 1,33 5,67 1,100 -10,79 -23,89 -129,101 106,-79 88,-179 69,-277 -3,-18 -31,-31 -53,-52z"/>
  <path class="fil0" d="M19848 12698c16,25 33,51 46,72 7,-61 -12,-132 22,-214 21,50 30,87 26,128 -9,87 -16,174 -22,261 -1,19 -6,44 3,58 52,75 8,139 -16,215 -38,-39 -51,-84 -53,-125 -7,-126 -6,-253 -8,-379 0,-6 2,-11 3,-17l-1 1z"/>
  <path class="fil0" d="M10111 16695c-19,3 -39,6 -58,10 -31,6 -51,24 -55,56 -6,45 -13,89 -14,134 -3,92 -3,185 -5,277 0,8 -6,15 -12,31 -33,-37 -27,-78 -22,-113 13,-93 12,-185 -5,-277 -5,-27 -8,-55 -13,-91 73,-41 146,-89 235,-98 5,7 11,14 16,20 -22,16 -43,33 -65,49l-2 1z"/>
  <path class="fil0" d="M19442 15119c-14,-46 2,-83 34,-114 49,-47 80,-106 117,-163 49,-77 119,-140 181,-209 6,-6 19,-5 40,-11 -18,68 -54,112 -106,139 -41,21 -62,53 -76,95 -37,105 -112,185 -189,262l0 0z"/>
  <path class="fil0" d="M19913 13782c30,35 57,66 34,118 -21,48 -22,98 18,142 29,31 21,69 9,104 -14,41 -28,78 7,119 10,12 4,42 -1,62 -10,40 -24,79 -38,124 -35,-4 -40,-33 -24,-57 36,-53 32,-105 17,-162 -6,-24 -5,-51 -2,-76 7,-46 6,-88 -22,-129 -10,-15 -14,-39 -10,-57 14,-58 15,-115 -2,-173 -1,-3 6,-8 13,-16z"/>
  <path class="fil0" d="M11307 19756c-83,-44 -164,-31 -244,-18 -50,8 -100,19 -150,27 -15,2 -32,-2 -59,-4 7,-55 14,-104 21,-154 7,0 13,1 20,1 1,17 2,34 2,50 1,51 10,61 59,57 92,-8 185,-16 277,-29 24,-3 45,-26 74,-45 0,39 0,73 0,115z"/>
  <path class="fil0" d="M20366 13852c-12,-13 -21,-19 -22,-25 -17,-100 -47,-197 -66,-297 -17,-91 -9,-192 -75,-272 -27,-34 -21,-77 8,-117 33,116 78,231 94,349 16,118 75,230 59,363z"/>
  <path class="fil0" d="M11061 19596c-18,0 -38,5 -54,-1 -72,-25 -141,-21 -214,3 -76,25 -157,42 -246,21 9,-7 13,-13 18,-14 82,-18 166,-30 246,-53 89,-25 170,-9 251,25 0,6 -1,13 -1,19z"/>
  <path class="fil0" d="M11583 19570c-84,-4 -150,-5 -215,-11 -62,-6 -121,40 -197,8 120,-47 232,-53 350,-35 4,-27 7,-50 11,-73 6,-1 11,-2 17,-3 10,32 20,64 36,114z"/>
  <path class="fil0" d="M20513 14330c-17,-19 -46,-37 -49,-58 -6,-54 -31,-107 -14,-165 8,-29 -4,-66 -12,-98 -11,-45 -27,-89 -26,-140 9,12 23,22 26,36 20,80 63,152 42,244 -9,41 -5,107 42,146 6,5 5,17 7,26 -5,3 -10,6 -15,10z"/>
  <path class="fil0" d="M10112 16693c11,21 30,42 30,63 4,126 4,252 6,379 0,11 -1,22 -2,41 -39,-28 -34,-62 -35,-93 -1,-130 -1,-259 -1,-389 0,0 2,-1 2,-1z"/>
  <path class="fil0" d="M12405 19653c143,-51 291,-37 439,-35 -68,38 -142,16 -213,27 -74,12 -148,21 -222,32 -1,-8 -3,-16 -4,-24z"/>
  <path class="fil0" d="M7974 14766c42,65 9,136 29,206 -51,7 -69,-15 -77,-52 -16,-69 0,-123 48,-154z"/>
  <path class="fil0" d="M10474 19785c46,31 54,74 51,127 30,13 62,27 100,43 -44,35 -85,26 -124,15 -12,-4 -25,-29 -26,-45 -3,-47 -1,-93 -1,-140z"/>
  <path class="fil0" d="M19806 11147c-29,19 -57,41 -87,57 -15,8 -42,14 -50,6 -13,-13 -24,-39 -20,-56 4,-16 28,-37 44,-38 37,-2 74,7 111,11 1,6 2,13 3,19z"/>
  <path class="fil0" d="M19903 14729c15,75 26,131 37,188 2,11 6,24 2,33 -25,58 -37,118 -18,183 -31,-24 -47,-57 -35,-88 25,-67 26,-128 0,-196 -11,-29 7,-69 14,-120z"/>
  <path class="fil0" d="M9648 10548c82,105 82,112 3,146 -52,-64 -53,-82 -3,-146z"/>
  <path class="fil0" d="M10606 18682c-7,-85 75,-155 182,-152 -63,53 -119,100 -182,152z"/>
  <path class="fil0" d="M20096 12723c66,102 45,230 109,333 -89,-95 -77,-221 -109,-333z"/>
  <path class="fil0" d="M18744 19685c-25,-88 -23,-186 0,-244 34,58 37,165 0,244z"/>
  <path class="fil0" d="M11059 18276c-53,71 -134,62 -212,104 37,-66 120,-103 212,-104z"/>
  <path class="fil0" d="M19911 10879c33,31 64,56 30,97 -15,18 -58,7 -73,-18 -25,-43 8,-59 43,-78z"/>
  <path class="fil0" d="M19965 13583c-32,-37 -46,-59 -66,-74 -48,-35 -51,-43 -31,-108 29,36 61,72 87,112 10,15 6,38 10,70z"/>
  <path class="fil0" d="M10833 18383c36,64 25,101 -6,148 -34,-53 -24,-91 6,-148z"/>
  <path class="fil0" d="M11093 19911c-38,-31 -39,-70 -23,-122 38,42 25,83 23,122z"/>
  <path class="fil0" d="M20622 14606c43,38 46,84 20,134 -7,-45 -13,-89 -20,-134z"/>
  <path class="fil0" d="M12342 19686c-20,-34 -38,-68 -1,-111 7,35 15,71 22,106 -7,2 -14,3 -21,5z"/>
  <path class="fil0" d="M9595 19778c-46,-16 -61,-45 -36,-90 12,30 24,60 36,90z"/>
  <path class="fil0" d="M11083 19439c7,43 11,70 16,104 -49,-34 -50,-33 -16,-104z"/>
  <path class="fil0" d="M19442 15119c-12,21 -23,43 -41,76 -17,-77 -17,-77 41,-76l0 0z"/>
  <path class="fil0" d="M12009 19769c25,35 21,65 7,95 -11,-28 -34,-55 -7,-95z"/>
  <path class="fil0" d="M12520 19812c-7,-26 -14,-52 -21,-78 41,17 38,46 21,78z"/>
  <path class="fil0" d="M20531 14376c29,62 29,62 -21,64 7,-21 13,-39 21,-64z"/>
  <path class="fil0" d="M9294 16461c-15,11 -23,22 -29,21 -8,-1 -16,-11 -21,-19 -1,-2 9,-16 14,-16 9,0 18,6 36,14z"/>
  <path class="fil0" d="M8875 14680c-3,4 -7,9 -11,13 -10,-11 -21,-21 -30,-32 0,0 6,-7 10,-10 10,10 21,20 31,30z"/>
  <path class="fil0" d="M6778 18776c-5,12 -10,24 -16,36 0,0 -9,-4 -14,-6 5,-12 11,-25 16,-37 5,2 9,4 14,6z"/>
  <path class="fil0" d="M9178 19608c15,-5 29,-10 43,-14 2,4 4,8 5,12 -13,8 -26,15 -40,23 -4,-9 -6,-13 -9,-21z"/>
  <path class="fil0" d="M7462 14260c-5,-12 -12,-20 -10,-26 3,-8 12,-13 18,-20 5,6 13,11 13,17 0,6 -8,12 -21,29z"/>
  <path class="fil0" d="M13672 16356c7,9 14,15 14,20 0,5 -9,10 -14,15 -5,-5 -14,-10 -14,-16 -1,-5 7,-11 14,-20z"/>
  <path class="fil1" d="M12989 19340c47,46 135,5 129,107 -109,24 -217,26 -325,4 -26,-5 -53,-8 -50,-43 4,-41 36,-38 64,-35 22,2 43,11 73,19 4,-17 12,-34 11,-51 -2,-22 -13,-43 -16,-64 -4,-29 8,-54 40,-53 104,3 207,8 310,16 11,1 27,27 29,42 1,10 -18,31 -29,33 -44,6 -89,5 -134,9 -34,3 -68,10 -101,15z"/>
  <path class="fil1" d="M11975 17116c6,1 -10,2 -22,-3 -19,-8 -50,-22 -50,-32 1,-21 15,-47 32,-60 41,-29 87,-18 126,4 14,8 23,38 21,57 -1,12 -24,27 -40,33 -15,6 -33,1 -69,1z"/>
  <path class="fil1" d="M12075 17267c-46,-4 -88,-5 -128,-13 -35,-7 -53,-35 -44,-70 8,-32 38,-27 63,-25 20,2 39,5 58,9 62,11 62,11 50,98z"/>
  <path class="fil1" d="M11840 17101c-37,-2 -76,0 -114,-7 -14,-3 -35,-24 -35,-37 0,-18 15,-39 28,-53 8,-8 26,-6 40,-9 92,-16 105,-1 80,105z"/>
  <path class="fil1" d="M12292 17040c3,78 -6,92 -56,91 -74,-1 -103,-29 -98,-103 52,4 103,8 154,12z"/>
  <path class="fil1" d="M11718 17235c9,-35 8,-77 24,-86 21,-12 60,-3 85,9 34,16 28,49 14,89 -36,-3 -73,-7 -123,-11z"/>
  <path class="fil1" d="M8723 13274c19,-33 37,-66 56,-99 -2,44 -21,77 -56,99 0,0 0,0 0,0z"/>
  <path class="fil1" d="M9425 16484c-8,5 -17,11 -25,15 -2,1 -7,-6 -11,-9 9,-8 17,-16 26,-24 3,6 7,12 10,18z"/>
  <path class="fil1" d="M18908 15754c-8,0 -16,0 -24,0 0,58 -3,116 1,173 5,101 25,115 127,97 5,-1 9,-7 19,-15 -6,-65 -12,-135 -20,-204 -3,-28 -6,-56 -14,-83 -12,-38 -30,-38 -71,-7 60,126 64,191 5,269 -8,-85 -15,-158 -22,-231zm356 -141c-41,0 -70,-8 -89,2 -36,18 -85,42 -94,74 -16,60 -15,128 -9,192 8,81 43,99 124,78 8,-2 16,-4 25,-6 67,-14 86,-35 79,-102 -8,-77 -23,-154 -36,-237zm94 280c98,-18 139,-74 133,-165 -4,-61 -11,-123 -20,-183 -3,-19 -16,-37 -24,-54 -70,14 -123,37 -120,107 5,97 19,193 30,295zm-527 443c-27,-56 -7,-87 30,-105 0,-71 2,-135 0,-199 -2,-70 -9,-140 -13,-210 -3,-53 -5,-107 -8,-160 -2,-39 13,-64 51,-77 180,-57 359,-115 539,-172 21,-7 43,-7 64,-10 6,12 12,19 12,27 8,217 16,434 21,650 2,67 -7,77 -64,92 -198,54 -397,106 -596,159 -11,3 -22,3 -35,4z"/>
  <path class="fil0" d="M11449 14086c-3,33 -6,66 -10,106 -53,-9 -67,29 -86,70 -141,306 -286,611 -452,905 -46,80 -76,169 -112,254 -20,48 -38,98 -59,150 -58,-19 -43,-53 -31,-83 29,-70 58,-140 92,-208 61,-121 126,-239 188,-359 60,-118 119,-236 176,-355 61,-127 117,-255 177,-383 23,-50 53,-94 117,-96 0,0 -1,-1 -1,-1z"/>
  <path class="fil0" d="M10160 16018c-16,23 -33,29 -54,9 -4,-4 -4,-19 -1,-22 23,-19 39,-8 54,14z"/>
  <path class="fil0" d="M11631 16030c11,12 22,19 22,26 1,8 -9,16 -15,25 -9,-7 -21,-14 -27,-23 -2,-3 10,-15 20,-28z"/>
  <path class="fil0" d="M21422 15357c-158,5 -314,13 -472,-6 -111,-14 -224,0 -337,2 -62,1 -124,1 -186,4 -174,9 -349,19 -523,28 -70,3 -141,5 -211,4 -19,0 -38,-13 -64,-23 16,-14 21,-23 27,-24 202,-13 404,-29 607,-36 200,-6 400,-4 600,-2 113,1 225,10 337,13 42,1 84,-5 127,-6 39,-1 80,-5 97,44l-1 1z"/>
  <path class="fil0" d="M21304 15593c25,97 26,194 10,293 -8,49 -3,100 -3,151 0,15 0,29 -7,44 -67,-76 -8,-165 -29,-250 -40,5 -59,29 -72,61 -14,34 -38,36 -68,22 -120,-59 -179,-104 -145,-307 13,64 21,111 34,156 20,72 55,88 130,66 11,-73 20,-144 33,-216 4,-19 21,-36 32,-54l1 1c-3,36 -3,72 -10,107 -9,46 -6,87 22,125 47,-15 47,-52 51,-88 4,-37 14,-74 22,-111l-1 0z"/>
  <path class="fil0" d="M19970 15848c-61,49 -92,119 -174,102 -37,-8 -73,-25 -109,-39 -45,-18 -32,-59 -35,-94 -5,-62 -13,-123 -17,-185 -6,-84 85,-173 168,-158 49,9 96,30 141,54 43,23 61,65 54,115 -6,46 -13,91 -22,154 -38,-50 -26,-90 -24,-126 3,-53 6,-99 -56,-125 -71,-29 -140,-46 -202,9 -18,15 -27,50 -26,74 3,64 10,129 23,193 17,84 115,118 187,70 24,-16 41,-46 92,-44z"/>
  <path class="fil0" d="M20135 15517c66,-64 148,-71 235,-26 55,29 98,64 96,135 -2,64 3,129 1,193 0,15 -14,41 -21,41 -52,0 -84,40 -127,56 -76,27 -131,-4 -175,-102 22,14 44,26 65,41 59,40 109,18 164,-14 54,-31 61,-76 60,-129 0,-14 -8,-28 -8,-41 -1,-66 -21,-118 -86,-149 -60,-28 -117,-40 -177,-5 -4,2 -10,0 -27,0z"/>
  <path class="fil0" d="M20714 15462c-35,22 -69,46 -105,65 -38,20 -52,49 -48,90 1,11 0,23 1,34 6,120 53,178 169,209 16,4 32,7 58,12 -34,38 -70,38 -101,24 -125,-54 -184,-168 -163,-301 11,-69 95,-135 190,-133z"/>
  <path class="fil0" d="M21219 15559c-14,-45 -51,-63 -93,-81 -30,18 -59,36 -102,63 15,-66 53,-95 92,-118 11,-7 38,3 52,13 49,35 97,72 144,110 22,18 10,34 -9,47 0,0 1,0 1,0 -28,-11 -57,-22 -85,-33l-1 -1z"/>
  <path class="fil0" d="M20746 15449c117,36 176,171 136,304 -10,-32 -22,-52 -21,-71 2,-57 -15,-103 -56,-143 -21,-21 -33,-50 -59,-90z"/>
  <path class="fil0" d="M20100 15780c-45,-58 -39,-121 -19,-185 30,59 35,120 19,185z"/>
  <path class="fil0" d="M20867 15814c-14,9 -29,19 -43,28 -3,-3 -6,-6 -9,-9 7,-9 12,-19 21,-25 7,-5 18,-4 27,-5 1,4 3,8 4,12z"/>
  <path class="fil0" d="M19425 15785c30,-65 21,-182 -17,-228 -30,42 -30,42 -16,180 2,21 0,47 33,48zm-68 108c-11,-102 -25,-198 -30,-295 -4,-70 50,-93 120,-107 8,17 21,35 24,54 9,61 16,122 20,183 6,91 -36,147 -133,165z"/>
  <path class="fil0" d="M19239 15666c-85,-22 -130,-1 -130,58 -1,63 11,126 17,189 106,-13 112,-19 113,-109 1,-45 0,-90 0,-137zm25 -53c13,83 28,160 36,237 7,67 -12,88 -79,102 -8,2 -16,3 -25,6 -81,21 -116,3 -124,-78 -6,-64 -8,-131 9,-192 8,-31 58,-55 94,-74 19,-10 48,-2 89,-2z"/>
  <path class="fil0" d="M18908 15754c7,73 14,145 22,231 59,-78 55,-143 -5,-269 41,-32 60,-31 71,7 8,27 11,55 14,83 7,69 13,139 20,204 -10,8 -14,14 -19,15 -102,18 -122,4 -127,-97 -3,-58 -1,-115 -1,-173 8,0 16,0 24,0z"/>
  <path class="fil1" d="M19425 15785c-33,-1 -30,-27 -33,-48 -15,-138 -15,-138 16,-180 39,46 48,163 17,228z"/>
  <path class="fil1" d="M19239 15666c0,48 1,93 0,137 -1,90 -8,96 -113,109 -6,-63 -17,-126 -17,-189 1,-59 45,-79 130,-58z"/>
 </g>
</svg>
