<?xml version="1.0" encoding="UTF-8"?>
<!DOCTYPE svg PUBLIC "-//W3C//DTD SVG 1.1//EN" "http://www.w3.org/Graphics/SVG/1.1/DTD/svg11.dtd">
<!-- Creator: CorelDRAW X6 -->
<svg xmlns="http://www.w3.org/2000/svg" xml:space="preserve" width="210mm" height="297mm" version="1.1" style="shape-rendering:geometricPrecision; text-rendering:geometricPrecision; image-rendering:optimizeQuality; fill-rule:evenodd; clip-rule:evenodd"
viewBox="0 0 21000 29700"
 xmlns:xlink="http://www.w3.org/1999/xlink">
 <defs>
  <style type="text/css">
   <![CDATA[
    .fil0 {fill:#2B2A29}
    .fil1 {fill:#FEFEFE}
   ]]>
  </style>
 </defs>
 <g id="Слой_x0020_1">
  <metadata id="CorelCorpID_0Corel-Layer"/>
  <path class="fil0" d="M25926 29699c12,-25 24,-49 40,-82 22,30 18,56 10,82 -17,0 -34,0 -51,0z"/>
  <path class="fil0" d="M8119 13143c7,-10 12,-16 15,-23 1,-2 -7,-11 -8,-10 -7,3 -15,6 -17,12 -2,4 6,12 11,21zm-1900 -8c8,6 14,13 19,12 6,-2 11,-9 17,-14 -5,-5 -10,-14 -15,-14 -6,0 -11,8 -20,16zm-2853 -116c-6,8 -15,15 -14,19 2,7 10,11 16,17 5,-5 14,-10 14,-15 0,-6 -8,-11 -16,-20zm2765 172c12,7 19,12 20,11 5,-5 9,-12 13,-18 -9,2 -18,4 -33,7zm14413 113c6,-1 12,-2 18,-3 -2,-8 -4,-17 -7,-25 0,-1 -7,-1 -7,0 -2,9 -3,19 -5,28zm-514 31c-4,-7 -6,-12 -9,-16 -5,4 -12,8 -16,13 -1,2 6,12 7,12 6,-2 12,-6 18,-9zm1863 17c5,-6 9,-11 12,-17 1,-2 -4,-7 -7,-10 -5,5 -11,10 -15,15 -1,1 5,6 9,12zm-18964 -184c6,-4 12,-8 18,-12 -5,-5 -10,-13 -14,-13 -6,1 -11,9 -17,13 4,3 7,6 13,11zm13525 81c-2,-5 -3,-11 -7,-13 -3,-2 -9,2 -13,4 3,6 6,12 9,18 4,-3 7,-6 11,-9zm-5641 -87c-17,6 -25,7 -25,9 -2,8 0,16 0,24 6,-8 12,-16 25,-33zm-2461 -54c-7,3 -12,4 -17,6 3,7 6,14 9,21 6,-2 12,-5 18,-7 -3,-7 -6,-14 -9,-20zm12628 113c-9,-6 -15,-10 -22,-13 -1,0 -8,9 -7,12 2,7 8,13 12,19 5,-5 9,-10 17,-18zm-4989 13c-6,5 -13,10 -16,16 -1,3 8,10 13,15 5,-6 10,-12 14,-18 1,-1 -6,-7 -11,-12zm-14162 -90c-4,5 -8,11 -13,16 4,2 10,7 12,6 6,-3 10,-9 14,-13 -4,-3 -8,-5 -14,-9zm12845 108c-2,-4 -3,-11 -6,-12 -3,-1 -8,3 -13,5 3,5 6,11 9,17 4,-3 7,-6 10,-10zm-7566 -76c5,-6 10,-12 13,-18 1,-1 -9,-9 -10,-9 -6,4 -11,10 -16,15 4,3 7,7 13,12zm3146 -47c-1,-6 -2,-11 -3,-15 -7,2 -14,4 -20,7 -1,0 2,12 3,12 7,-1 14,-2 21,-4zm8085 55c-6,12 -11,18 -12,24 -1,4 4,9 7,14 5,-4 14,-8 15,-14 1,-5 -4,-12 -10,-25zm-1592 -5c-5,-6 -9,-14 -11,-13 -7,2 -13,7 -19,11 3,4 7,12 9,11 7,-1 13,-6 21,-9zm-5046 70c-2,-7 -4,-16 -6,-16 -7,-1 -15,2 -22,3 2,6 3,16 5,17 7,1 15,-2 23,-4zm-9229 -139c4,2 8,4 13,7 5,-10 10,-19 15,-29 0,0 -8,-5 -12,-7 -5,10 -10,20 -15,29zm10075 37c-4,-5 -7,-8 -10,-11 -4,5 -9,10 -12,16 -1,1 6,6 9,10 4,-5 9,-10 13,-15zm-6570 26c3,2 6,4 9,6 4,-8 8,-15 12,-23 -2,-1 -6,-3 -6,-3 -5,7 -10,13 -15,20zm-870 -80c-2,-7 -3,-14 -4,-14 -7,1 -14,2 -21,4 1,4 2,13 4,13 7,1 14,-1 21,-2zm316 -1c-1,-5 -1,-12 -4,-13 -4,-2 -10,1 -15,2 2,6 4,12 6,18 5,-2 9,-5 14,-7zm16235 152c3,-4 9,-11 8,-12 -4,-5 -10,-8 -16,-12 -1,5 -5,11 -4,15 1,4 7,6 11,9zm-16094 -84c2,-8 4,-15 5,-22 -4,0 -10,-1 -13,1 -3,3 -6,9 -6,14 0,2 7,4 13,7zm-1149 -36c-3,-7 -5,-11 -7,-16 -5,4 -11,7 -15,12 -2,2 3,8 4,13 6,-3 11,-6 17,-10zm246 -26c-21,8 -30,9 -33,14 -4,5 -4,14 -6,22 3,1 7,2 10,4 7,-9 14,-19 29,-40zm14445 181c4,8 6,12 9,17 5,-4 12,-8 15,-14 1,-3 -4,-9 -6,-14 -6,3 -12,7 -17,10zm-5432 -103c-3,11 -7,17 -7,24 0,3 10,9 11,8 5,-4 13,-10 13,-15 0,-5 -9,-9 -17,-17zm-7112 -80c-7,8 -16,13 -16,19 0,5 10,15 14,14 6,-1 14,-8 16,-14 1,-4 -8,-11 -14,-19zm4799 14c-10,-6 -16,-11 -22,-12 -4,-1 -12,6 -12,7 2,6 6,15 10,16 6,1 12,-5 24,-11zm-1689 94c4,3 8,5 11,8 6,-9 12,-18 17,-27 -3,-2 -6,-4 -9,-6 -7,9 -13,17 -20,26zm-3929 -15c-3,-4 -4,-11 -8,-12 -4,-1 -9,3 -14,4 3,4 4,11 8,12 4,1 9,-3 14,-5zm5198 -38c-15,6 -23,8 -23,10 0,8 3,16 4,24 5,-9 10,-18 19,-34zm-6459 -93c-8,-6 -13,-14 -19,-13 -6,0 -11,8 -16,13 6,6 13,13 19,19 5,-5 10,-11 16,-18zm258 -4c-2,-4 -5,-8 -7,-12 -10,6 -21,11 -30,18 0,0 4,8 6,12 10,-6 21,-12 31,-18zm2755 159c7,-8 15,-14 16,-20 0,-5 -9,-11 -14,-16 -7,6 -13,13 -20,19 5,5 11,10 18,17zm6088 -14c-4,-10 -8,-16 -11,-23 -6,4 -15,8 -17,13 -2,6 5,13 8,20 6,-3 12,-6 20,-10zm5478 -10c-7,9 -16,15 -15,20 1,6 9,12 14,18 5,-6 14,-11 15,-17 1,-5 -7,-12 -14,-21zm-1648 66c7,-1 14,-2 21,-2 -3,-14 -6,-27 -9,-41 -4,1 -8,1 -12,2 0,14 0,28 0,42zm-11461 -169c-7,3 -16,6 -15,7 1,8 4,15 7,22 4,-2 12,-4 12,-6 0,-8 -2,-15 -4,-23zm11387 126c-5,0 -10,0 -15,-1 -3,4 -10,10 -9,12 4,8 10,14 16,21 3,-11 6,-22 9,-33zm-10963 -106c-5,-1 -10,-2 -15,-2 -1,14 -3,28 -4,41 4,0 7,1 11,1 3,-13 5,-27 8,-40zm12201 89c-8,-7 -13,-16 -19,-16 -4,-1 -15,9 -14,13 1,7 8,15 14,17 3,1 11,-8 19,-14zm-10099 -75c-16,-9 -23,-15 -25,-14 -7,5 -12,12 -17,18 11,-1 21,-2 43,-5zm8147 43c-10,12 -16,19 -22,26 6,5 12,14 17,13 6,-1 13,-9 16,-16 1,-4 -5,-11 -11,-23zm-10973 4c6,2 11,4 17,6 4,-12 9,-23 13,-35 -4,-2 -8,-4 -12,-5 -6,12 -12,23 -18,35zm9136 51c4,1 9,2 13,4 3,-10 6,-20 8,-31 0,-1 -8,-3 -13,-5 -3,11 -5,21 -8,32zm3591 87c5,0 9,0 14,1 3,-4 9,-10 8,-12 -4,-8 -10,-14 -15,-21 -2,11 -5,22 -7,33zm-14075 -137c-22,-27 -36,-32 -61,0 24,0 39,0 61,0zm4304 11c-4,9 -8,18 -11,27 0,1 12,7 12,7 6,-8 11,-17 17,-25 -5,-2 -9,-4 -18,-8zm975 5c4,5 9,10 13,15 10,-10 19,-21 29,-31 -3,-3 -6,-7 -10,-10 -11,8 -22,17 -33,25zm3928 63c-5,-6 -9,-13 -11,-13 -6,1 -12,5 -18,8 3,3 6,10 9,10 6,0 13,-3 21,-5zm1430 -19c-7,10 -14,16 -15,22 0,5 8,11 13,16 5,-6 13,-11 15,-17 1,-5 -7,-12 -12,-21zm3695 13c-4,-3 -8,-5 -11,-8 -7,11 -14,22 -22,32 4,2 7,5 11,7 7,-11 15,-21 22,-32zm-5829 43c8,-4 12,-6 17,-8 -4,-6 -7,-13 -12,-19 -1,-1 -12,5 -12,7 1,7 4,13 7,19zm5925 2c3,-7 9,-13 9,-20 0,-3 -10,-6 -16,-9 -2,7 -5,14 -5,21 0,2 7,4 12,8zm-15241 -221c4,-2 8,-4 12,-6 -5,-11 -11,-23 -16,-34 -4,3 -12,7 -12,8 5,11 10,22 16,32zm-2359 -173c-4,12 -9,20 -8,26 1,5 9,9 14,13 4,-7 10,-14 10,-20 0,-5 -9,-10 -17,-19zm16981 282c-7,9 -15,16 -14,21 1,7 10,12 15,18 5,-6 14,-11 14,-17 0,-6 -8,-12 -15,-22zm-1303 53c-10,-8 -16,-13 -21,-18 -6,8 -13,15 -16,24 -1,3 12,15 14,14 8,-4 14,-12 24,-21zm-13556 -162c5,0 11,1 16,1 0,-13 0,-26 -1,-39 0,-1 -10,0 -15,-1 0,13 0,25 0,38zm-2005 -19c-13,-7 -22,-15 -31,-16 -5,-1 -11,11 -16,17 8,6 16,14 25,17 4,1 11,-9 22,-18zm15886 161c-34,24 -46,36 -18,66 6,-22 10,-35 18,-66zm3719 35c7,-2 14,-3 21,-4 -2,-12 -3,-24 -7,-35 0,-1 -14,2 -21,3 3,12 5,24 8,36zm-16922 -191c-3,3 -5,6 -8,9 8,10 17,19 33,38 -1,-20 1,-29 -2,-34 -5,-6 -15,-9 -22,-14zm11164 181c-16,-6 -24,-12 -30,-11 -7,1 -16,8 -18,15 -2,5 5,13 8,20 8,-5 16,-10 39,-24zm-6783 -63c-5,0 -10,0 -16,0 0,13 0,26 0,39 5,0 15,0 15,0 1,-13 1,-26 1,-39zm-2569 -49c4,-3 7,-6 11,-9 -8,-10 -16,-19 -24,-29 -4,3 -7,6 -11,9 8,10 16,19 24,29zm15173 163c-9,13 -16,19 -16,24 0,7 6,14 9,20 6,-4 16,-7 16,-11 0,-9 -5,-17 -10,-34zm-3859 -122c-6,8 -13,14 -13,20 0,6 9,11 14,16 6,-8 12,-15 19,-23 -6,-4 -12,-8 -19,-14zm2373 121c-6,-2 -12,-4 -19,-6 -4,15 -9,31 -13,46 5,2 10,3 15,5 6,-15 12,-30 18,-45zm-6346 -80c-6,-4 -11,-8 -17,-12 -9,15 -18,29 -27,44 5,3 10,6 15,9 10,-14 19,-28 29,-42zm8270 90c-10,-11 -16,-20 -23,-23 -3,-1 -16,8 -16,12 0,9 5,18 8,27 8,-4 16,-9 31,-16zm-15287 -138c6,5 12,10 17,15 10,-13 21,-27 31,-40 -5,-4 -10,-8 -15,-12 -11,12 -23,24 -34,37zm-1375 34c6,-8 15,-14 15,-20 0,-5 -10,-10 -15,-16 -7,7 -14,15 -20,22 6,4 12,8 20,14zm-1245 -60c2,7 5,13 7,20 13,-6 27,-12 40,-17 -2,-5 -3,-9 -5,-14 -14,4 -29,7 -43,11zm13245 109c-7,-4 -14,-9 -21,-13 -8,15 -15,30 -23,45 5,3 9,5 14,8 10,-13 20,-27 30,-40zm3565 21c7,-2 15,-4 22,-6 -4,-12 -7,-25 -12,-37 0,-1 -14,2 -14,2 1,14 2,27 4,40zm107 4c7,-2 14,-5 20,-7 -5,-13 -9,-27 -16,-40 0,-1 -14,4 -21,7 5,13 11,27 16,40zm-16572 -181c-6,-2 -12,-4 -18,-7 -6,15 -12,30 -18,45 7,3 13,5 20,8 5,-15 11,-31 16,-46zm4813 52c-34,-12 -34,-12 -42,16 16,-6 29,-11 42,-16zm13238 156c-6,-4 -12,-8 -17,-12 -10,15 -19,31 -29,46 4,3 8,6 12,9 11,-14 22,-28 34,-42zm-18711 -260c-4,-5 -7,-9 -11,-14 -13,9 -26,18 -40,26 5,6 10,12 15,18 12,-10 24,-20 35,-30zm11295 258c14,-26 22,-35 22,-45 0,-5 -13,-10 -21,-15 -4,9 -11,18 -13,28 -1,7 5,15 12,32zm-6494 -129c-10,1 -19,3 -29,4 4,15 8,30 13,45 0,1 15,-1 15,-2 1,-16 1,-31 1,-47zm-3617 -88c-1,-7 -3,-13 -4,-20 -12,3 -24,4 -36,9 -1,1 2,14 3,21 12,-3 25,-7 37,-10zm-254 -1c0,-5 -1,-10 -2,-15 -8,-2 -17,-6 -23,-4 -7,2 -12,11 -18,17 2,3 4,7 6,10 12,-3 24,-6 36,-9zm8635 73c-16,-7 -24,-12 -33,-12 -5,0 -16,11 -15,14 4,9 11,16 17,23 8,-6 15,-12 30,-25zm-11360 -155c-18,-7 -28,-15 -35,-13 -8,3 -13,14 -19,22 8,5 16,13 24,13 8,-1 15,-11 30,-22zm12640 150c-2,-7 -5,-14 -7,-21 -16,6 -31,11 -47,17 11,17 21,22 30,20 9,-2 16,-11 24,-17zm5554 134c-7,-2 -14,-4 -21,-7 -10,14 -27,26 3,61 7,-23 12,-38 18,-54zm1277 2c-6,-1 -12,-2 -19,-3 -3,19 -6,38 -9,57 6,1 13,2 19,3 3,-19 6,-38 8,-57zm-13988 -51c12,-57 12,-57 -18,-86 6,28 10,51 18,86zm1190 -14c16,-23 26,-37 44,-64 -46,9 -65,17 -44,64zm14590 13c1,6 1,12 2,18 19,-2 37,-4 56,-6 -1,-5 -1,-10 -2,-16 -19,1 -37,2 -56,4zm-13497 -1c6,3 12,5 18,8 8,-17 16,-34 24,-51 -4,-2 -9,-4 -13,-7 -10,16 -19,33 -29,49zm156 -26c-5,-4 -9,-8 -14,-11 -14,14 -39,23 -16,63 13,-22 22,-37 30,-51zm11807 112c7,5 14,10 22,14 6,-13 13,-27 18,-40 0,-1 -17,-10 -18,-9 -8,11 -15,23 -22,35zm-11728 -100c7,6 14,12 22,19 10,-15 20,-30 30,-44 -5,-4 -11,-8 -16,-12 -12,13 -24,25 -36,38zm5260 19c13,-15 23,-22 24,-29 1,-8 -6,-22 -13,-25 -5,-3 -24,7 -24,11 0,11 6,23 13,44zm5611 60c-5,0 -10,0 -15,0 0,19 0,38 0,57 5,0 10,0 15,0 0,-19 0,-38 0,-57zm-7456 -109c-15,13 -26,18 -29,26 -3,10 1,22 2,33 6,3 12,6 17,9 5,-10 11,-19 13,-29 2,-9 -2,-19 -4,-39zm7357 105c-7,0 -15,-1 -22,-1 -1,18 -2,36 -3,54 4,1 9,1 13,2 4,-18 7,-37 11,-55zm-19052 -265c27,4 44,7 71,11 -19,-38 -34,-54 -71,-11zm19401 249c6,-2 12,-4 19,-6 4,-22 9,-44 -38,-51 8,24 14,40 19,57zm807 -11c6,-16 14,-26 12,-34 -2,-7 -14,-12 -22,-17 -5,8 -15,16 -14,23 1,8 12,14 23,28zm-16659 -175c-2,-7 -4,-14 -5,-21 -14,3 -28,7 -42,11 -1,0 3,14 5,22 14,-4 28,-8 43,-12zm-2310 5c3,7 7,14 10,21 12,-7 25,-13 37,-21 1,-1 -5,-13 -8,-20 -13,6 -26,13 -38,19zm15450 142c-5,0 -9,-1 -14,-1 -4,9 -13,19 -12,28 1,10 10,19 16,29 5,-2 10,-3 15,-5 -2,-17 -3,-34 -5,-51zm-14994 -83c37,-26 29,-44 14,-62 -2,-2 -9,0 -18,0 1,17 2,34 4,62zm63 -83c10,34 15,55 25,90 10,-52 10,-52 -25,-90zm15701 200c-7,-1 -14,-3 -20,-4 -5,24 -9,47 -14,71 7,1 13,3 20,4 5,-24 10,-47 15,-71zm-1281 -38c-44,10 -44,10 -30,50 12,-20 21,-35 30,-50zm-4386 18c49,-33 49,-33 40,-80 -14,28 -23,47 -40,80zm-4648 -99c-5,-1 -11,-3 -16,-4 -6,8 -15,16 -18,25 -3,8 2,19 4,35 16,-9 30,-13 32,-20 4,-10 -1,-24 -1,-36zm-605 0c-4,-4 -7,-8 -11,-12 -13,8 -26,15 -39,23 6,10 13,20 24,37 12,-22 19,-35 25,-47zm14371 191c25,-39 25,-39 5,-82 -2,32 -3,52 -5,82zm-14574 -131c6,1 13,3 19,4 -5,-23 37,-40 -2,-74 -7,26 -12,48 -18,70zm367 -1c15,-11 31,-23 55,-41 -43,-11 -57,4 -55,41zm5079 -79c-54,0 -54,0 -28,52 10,-19 19,-34 28,-52zm4045 141c10,4 20,8 30,12 7,-17 14,-35 19,-52 0,-1 -24,-11 -25,-10 -9,16 -16,34 -24,51zm1188 76c0,-32 0,-53 0,-81 -33,27 -36,48 0,81zm-2957 373c-5,0 -11,0 -16,1 3,47 5,94 8,141 3,0 5,0 8,0 0,-47 0,-94 0,-142zm-6599 -542c-4,-3 -8,-6 -13,-10 -18,9 -37,19 -65,34 15,20 24,31 39,51 20,-38 29,-57 39,-75zm-1574 -23c-60,17 -61,24 -22,71 7,-24 14,-46 22,-71zm2200 1118c-2,1 -5,2 -7,3 0,51 0,102 0,154 2,0 5,0 7,0 0,-52 0,-104 0,-156zm-6955 -1154c11,-17 25,-33 23,-38 -7,-12 -22,-22 -35,-27 -5,-1 -24,20 -22,25 6,13 19,23 34,39zm3682 -14c-9,20 -21,33 -18,41 5,12 20,20 30,30 7,-10 22,-22 20,-30 -3,-13 -17,-23 -32,-41zm-3809 -21c6,69 6,69 69,57 -22,-18 -39,-32 -69,-57zm2858 22c-5,0 -10,1 -15,1 -1,22 -3,43 -3,65 0,2 14,6 22,6 4,0 9,-6 15,-10 -6,-20 -12,-41 -18,-62zm10384 187c21,-30 35,-50 56,-79 -56,4 -61,31 -56,79zm-826 -144c8,32 13,53 23,89 23,-27 35,-40 51,-60 -27,-11 -44,-18 -74,-30zm1754 57c-97,-13 -97,-13 -97,46 28,-13 56,-26 97,-46zm-2950 47c-43,-20 -59,-4 -65,22 -2,8 12,20 19,30 14,-16 28,-32 46,-52zm4910 -19c-36,26 -36,56 -28,95 33,-27 53,-51 28,-95zm-16487 -144c-23,27 -39,45 -65,75 38,-3 58,-5 85,-8 -7,-24 -12,-41 -20,-68zm18982 182c-22,41 -32,67 9,94 17,-32 21,-58 -9,-94zm-13080 -45c75,-15 81,-25 44,-73 -14,24 -28,46 -44,73zm12957 -14c26,28 41,45 60,65 20,-70 20,-70 -60,-65zm-17455 -44c2,-6 5,-12 7,-18 -15,-12 -29,-35 -44,-35 -25,0 -38,20 -28,58 21,-2 43,-3 65,-5zm10291 -15c-44,-16 -61,-11 -87,30 -13,21 -10,36 14,42 26,-25 50,-49 73,-71zm-10442 1624c-41,-18 -83,-31 -135,-22 54,40 78,45 135,22zm11392 -1491c26,-44 48,-84 72,-125 -76,-15 -89,9 -72,125zm-10751 -135c-11,-45 -5,-80 44,-100 -32,-19 -55,-24 -72,5 -17,29 -8,71 28,95zm8928 118c97,-7 117,-31 85,-112 -30,39 -58,76 -85,112zm-3629 -26c53,0 92,0 138,0 -8,-33 -15,-57 -19,-74 -37,23 -69,43 -119,74zm9072 100c25,-52 48,-99 73,-150 -80,-1 -101,30 -73,150zm-16993 -343c44,-33 75,-61 71,-118 -29,-4 -57,-8 -88,-12 6,47 11,82 17,130zm8052 -440c-45,8 -41,41 -41,67 1,138 5,275 9,413 0,13 8,26 13,40 6,-1 13,-2 19,-2 0,-170 0,-340 0,-517zm6072 1391c-23,229 -47,458 -70,687 -2,19 0,39 1,58 0,2 3,5 5,6 2,1 6,0 13,0 38,-249 54,-499 51,-752zm-9483 852c-18,-380 -36,-761 -54,-1141 -4,47 -3,95 -4,143 -3,152 -6,303 -9,455 -2,120 -4,241 -4,361 0,45 5,90 10,135 4,30 16,55 61,47zm-225 -1784c45,0 77,0 117,0 4,-112 9,-219 10,-327 1,-109 -1,-218 -36,-325 -35,63 -77,120 -77,197 0,112 -9,224 -13,336 -1,36 0,72 0,119zm12452 -470c-120,184 -83,377 -74,571 28,4 47,7 66,9 39,3 57,-15 59,-54 6,-118 13,-236 18,-354 2,-61 -18,-116 -69,-171zm-56 1168c-52,126 -45,241 -53,354 -8,118 -15,236 -14,355 1,113 -45,225 -11,356 35,-29 81,-25 84,-73 7,-92 17,-186 11,-278 -11,-171 -20,-342 -11,-514 3,-60 -4,-121 -7,-200zm2593 36c-83,-19 -98,-8 -104,75 -8,127 -14,253 -23,380 -10,138 -21,275 -32,413 -4,47 -7,93 -11,149 71,-23 110,-62 120,-126 5,-30 4,-62 5,-93 6,-231 0,-462 44,-691 7,-35 1,-72 1,-106zm-5035 391c-1,0 -2,0 -3,0 2,-45 10,-90 6,-135 -8,-95 2,-191 -34,-283 -14,-35 -28,-64 -68,-62 -47,1 -50,42 -53,74 -12,126 -20,253 -28,379 -8,132 -14,264 -22,396 -3,48 -12,95 -14,143 -3,62 13,77 70,80 76,4 105,-13 109,-70 13,-174 25,-348 38,-522zm2511 -430c0,353 0,696 0,1044 57,0 105,1 152,0 60,-1 73,-19 69,-78 -15,-236 -43,-472 -21,-707 9,-98 -45,-167 -71,-249 -4,-12 -32,-21 -50,-21 -27,0 -55,8 -79,13zm2543 1021c48,3 93,5 137,10 75,9 92,-5 91,-79 -2,-163 -4,-327 -5,-490 0,-48 -4,-95 -1,-143 5,-70 16,-139 21,-209 2,-33 -3,-66 -7,-116 -45,24 -76,42 -107,59 -37,-37 -37,-37 -91,-35 0,24 1,49 0,74 -5,76 -3,153 -17,227 -45,229 -14,460 -27,690 0,2 3,5 7,12zm-17431 -45c2,-25 5,-50 6,-74 12,-259 25,-518 34,-777 2,-58 -6,-118 -14,-176 -7,-53 -29,-89 -90,-108 -88,-28 -112,-75 -100,-151 8,-52 15,-103 23,-163 -36,-2 -64,-4 -101,-6 22,65 48,116 54,169 6,54 -9,110 -15,168 58,12 89,42 78,97 -32,158 -42,318 -45,479 -2,146 -5,293 -3,439 1,89 9,93 97,103 22,2 44,0 74,0zm5899 -1131c-24,95 -24,190 -18,286 5,87 9,174 8,261 -1,76 -12,151 -14,227 -3,107 -2,214 -4,321 -1,60 16,75 73,74 87,-2 175,0 272,0 -11,-64 -20,-116 -31,-181 -36,52 4,105 -38,138 -42,-17 -43,-49 -43,-85 0,-101 -2,-203 -4,-304 -3,-121 -9,-242 -10,-363 -1,-98 2,-195 -29,-292 -33,-104 -28,-107 -138,-92 -5,1 -10,4 -25,9zm3190 1225c-1,-14 0,-34 -6,-52 -21,-74 -29,-148 -25,-225 4,-70 6,-141 3,-211 -5,-121 -13,-241 -25,-361 -10,-100 -27,-199 -41,-295 -108,-35 -162,-10 -158,111 2,50 -10,100 -14,150 -17,233 -35,466 -51,699 -3,50 -1,101 -2,152 -1,38 21,61 54,64 89,7 182,48 265,-31zm-6738 -1265c-68,6 -71,7 -74,74 -9,151 -11,302 -37,453 -24,141 -37,285 -51,428 -8,78 -10,158 -10,237 0,53 18,71 72,73 62,3 124,2 186,1 57,-1 71,-11 76,-68 8,-92 12,-185 12,-278 1,-158 -3,-315 -2,-473 1,-110 7,-219 8,-329 0,-25 -9,-50 -14,-75 -9,-43 -35,-43 -70,-29 -2,22 -3,42 -7,61 -4,17 -12,34 -21,58 -57,-33 -44,-89 -68,-133zm9745 1308c32,85 34,165 15,246 -8,33 -8,67 -10,101 -7,132 -11,265 -19,397 -6,101 -21,202 -25,303 -5,110 0,220 -4,330 -7,191 -19,382 -26,573 -8,208 -14,417 -20,625 -1,30 0,60 0,99 98,4 190,10 283,10 52,0 76,-22 80,-68 7,-67 15,-134 14,-201 -2,-163 -13,-327 -12,-490 2,-276 10,-552 17,-828 9,-344 21,-687 32,-1031 1,-24 -4,-48 -6,-76 -110,2 -212,-15 -318,9zm-5921 2673c-6,-63 -14,-110 -15,-157 -9,-324 1,-647 13,-971 8,-208 13,-416 12,-624 -1,-259 -8,-517 -15,-776 -2,-64 -12,-127 -18,-188 -97,11 -188,22 -279,30 -37,3 -49,19 -45,54 4,36 6,73 6,109 -1,73 -6,146 -7,220 -3,138 4,277 -7,414 -21,253 -29,506 -26,759 2,194 -1,389 -1,583 0,152 -1,304 2,456 1,34 13,69 22,108 122,-6 233,-11 359,-17zm-6223 -4038c31,-2 55,-3 80,-5 73,-7 145,-18 218,-19 78,-2 157,7 235,9 154,5 309,7 463,15 152,7 304,22 455,-4 16,-3 34,-2 51,-2 118,-2 237,-1 355,-7 87,-4 173,-18 260,-24 45,-3 90,2 135,2 98,0 197,-3 295,0 197,6 394,17 591,21 115,2 233,-18 346,-3 115,16 230,20 345,24 72,2 146,16 212,-31 12,-9 33,-8 49,-6 45,4 89,10 134,16 67,9 133,20 200,26 33,3 67,0 100,0 34,0 67,1 101,0 132,-7 264,-21 396,-22 138,-1 276,13 413,15 208,2 417,-1 625,-2 30,0 62,3 79,-35 14,-31 43,-30 73,-23 63,15 127,26 189,44 130,36 263,39 395,26 208,-20 417,-19 625,-9 56,3 113,2 169,4 200,9 399,21 599,29 220,8 440,12 659,19 20,1 39,6 59,7 31,2 62,5 92,5 53,-1 107,-7 160,-5 200,7 400,17 600,26 90,4 180,11 270,13 50,1 101,-8 152,-8 172,-1 343,1 515,1 96,0 193,-9 287,3 200,27 399,17 599,16 341,-2 682,-16 1023,-21 98,-2 197,11 295,13 228,6 456,0 685,13 323,18 648,14 972,18 175,2 350,-2 524,2 203,4 406,15 609,17 482,5 964,6 1446,9 59,0 118,5 177,8 39,2 79,4 118,4 155,-1 310,-7 464,-5 189,2 377,10 565,15 42,1 85,-2 127,-4 185,-12 372,-20 556,4 138,18 225,-51 312,-142 -34,-37 -72,-29 -107,-28 -34,1 -67,6 -101,5 -135,-4 -269,-11 -404,-14 -155,-3 -310,-7 -465,-3 -163,5 -326,19 -489,3 -39,-4 -79,0 -118,2 -154,5 -308,12 -463,13 -121,1 -242,-10 -362,-6 -72,3 -142,33 -213,-6 -11,-6 -28,-4 -42,-5 -76,-2 -153,-14 -227,-2 -73,11 -147,-58 -217,7 -2,2 -10,-4 -15,-5 -86,-4 -173,-9 -259,-10 -50,-1 -101,4 -151,7 -65,4 -129,8 -194,13 -22,2 -45,8 -67,6 -131,-10 -263,-20 -394,-32 -143,-13 -285,-23 -429,-18 -151,5 -304,-12 -456,-18 -90,-4 -180,-7 -269,-7 -146,1 -293,11 -439,9 -261,-5 -522,-41 -784,-21 -11,1 -22,-1 -33,-1 -90,-3 -179,-9 -269,-7 -129,2 -259,9 -388,13 -65,2 -130,5 -194,6 -79,2 -158,8 -236,4 -155,-7 -309,-20 -464,-29 -81,-4 -163,1 -244,-6 -92,-7 -183,-14 -276,2 -85,15 -173,14 -260,19 -33,2 -67,0 -100,-1 -149,-7 -298,-15 -447,-20 -123,-5 -245,-43 -368,-2 -23,7 -52,7 -75,0 -83,-27 -166,-16 -250,-7 -66,7 -134,2 -201,1 -28,-1 -56,-11 -84,-10 -140,5 -281,13 -421,18 -53,2 -107,-2 -160,-6 -98,-6 -196,-16 -294,-19 -205,-7 -411,-9 -616,-18 -149,-7 -297,-27 -446,-31 -101,-3 -202,9 -303,18 -208,20 -414,33 -624,25 -218,-9 -437,-3 -654,-27 -22,-3 -45,0 -68,-2 -56,-3 -112,-11 -168,-11 -136,-1 -274,-34 -406,27 -7,3 -17,5 -24,2 -61,-28 -126,-19 -189,-25 -127,-12 -253,-20 -379,2 -22,4 -45,1 -67,0 -214,-8 -427,-20 -641,-24 -167,-3 -335,13 -502,-1 -95,-8 -190,-16 -286,-18 -205,-4 -411,-7 -616,-6 -101,1 -202,17 -304,18 -96,1 -191,-10 -287,-15 -155,-8 -309,-17 -464,-22 -219,-7 -439,-15 -658,-15 -115,0 -229,19 -352,30 10,68 19,130 28,200zm-1514 -330c-6,-28 -12,-56 -22,-100 -30,26 -50,43 -77,66 29,13 43,21 59,25 13,4 27,5 41,7 37,15 75,31 131,54 -37,-77 30,-138 -22,-211 20,102 -2,134 -93,158 -5,1 -11,0 -17,0zm21160 130c-30,-42 -52,-52 -65,-26 -18,34 -34,72 -16,125 17,-20 26,-31 34,-41 16,-19 31,-38 47,-57zm-7637 2400c-13,214 -15,428 -24,643 -6,141 -19,281 -25,422 -5,115 -5,231 -8,347 -6,203 -8,406 -21,608 -5,77 -39,152 -56,229 -23,104 -43,209 -65,319 60,39 114,73 174,112 0,130 131,90 205,152 14,-176 9,-334 -66,-482 -14,-27 -41,-61 -6,-82 44,-26 56,26 71,51 74,123 87,260 90,399 1,28 0,56 4,88 35,-98 111,-148 214,-192 -2,28 2,49 -6,60 -15,20 -37,35 -58,49 -37,24 -65,53 -75,98 -2,11 -7,21 -13,31 -65,127 -87,105 -164,54 -32,-22 -71,-34 -108,-46 -64,-19 -116,-48 -155,-107 -25,-38 -67,-67 -106,-93 -46,-31 -84,-86 -75,-137 14,-77 30,-153 49,-229 18,-74 48,-146 58,-220 17,-125 27,-251 34,-377 10,-194 12,-389 21,-583 13,-287 29,-574 45,-861 16,-284 35,-568 53,-852 4,-70 8,-140 16,-210 18,-150 42,-300 59,-450 25,-224 49,-449 43,-675 0,-16 -5,-33 -9,-57 -35,-2 -67,-5 -100,-4 -282,4 -564,20 -845,8 -200,-8 -400,-8 -600,-11 -161,-2 -321,1 -482,-2 -144,-3 -287,-13 -431,-18 -104,-3 -208,-2 -312,-4 -50,-1 -100,-4 -157,-7 -5,37 -12,67 -12,97 -1,180 0,361 1,541 1,96 0,192 7,287 6,86 20,173 33,258 2,13 23,22 31,35 8,13 16,29 15,43 -1,8 -20,18 -32,21 -22,4 -45,5 -67,5 -113,1 -225,3 -338,2 -45,0 -91,-3 -120,-50 54,-106 60,-219 55,-335 -2,-42 7,-84 10,-125 10,-126 20,-253 30,-379 7,-87 15,-174 20,-261 1,-16 -3,-34 -8,-50 -10,-33 -23,-65 -40,-112 -68,0 -147,3 -225,-1 -222,-9 -444,-24 -667,-29 -135,-3 -268,-22 -405,-10 -122,11 -247,-9 -371,-10 -73,-1 -146,9 -219,10 -93,2 -186,3 -279,-1 -70,-3 -139,-16 -209,-20 -50,-3 -100,-1 -158,-1 0,86 -4,161 1,236 14,231 30,461 49,691 5,58 24,116 33,174 7,45 7,92 10,152 33,17 38,64 39,113 1,51 0,101 1,152 4,276 9,551 14,827 5,288 9,575 14,863 3,197 -4,396 11,592 17,221 24,445 82,661 10,35 14,72 17,108 1,11 -9,29 -18,32 -10,4 -31,-2 -36,-10 -13,-23 -25,-50 -29,-76 -16,-111 -30,-222 -41,-334 -11,-109 -20,-219 -24,-328 -8,-240 -5,-480 -19,-719 -20,-324 -12,-648 -7,-972 1,-68 -6,-135 -7,-203 -4,-197 -6,-393 -10,-590 0,-14 -8,-28 -12,-42 -6,0 -13,1 -19,1 -1,40 -4,81 -4,121 1,223 4,445 4,668 0,265 -2,530 -5,795 -3,259 -10,519 -10,778 0,81 15,162 24,244 12,118 -32,161 -151,152 -70,-5 -141,-9 -211,-11 -68,-2 -78,4 -94,69 -13,57 -21,116 -30,174 -16,106 -30,212 -50,317 -5,26 -27,50 -43,77 -52,-51 -65,-93 -35,-140 42,-68 44,-144 53,-219 12,-103 21,-207 31,-311 1,-14 -2,-33 6,-41 46,-48 18,-98 13,-150 -10,-106 -12,-213 -11,-320 1,-124 12,-248 14,-371 2,-158 -5,-316 0,-474 9,-310 25,-619 34,-929 5,-155 0,-310 -2,-465 0,-22 -12,-43 -13,-65 -1,-21 -3,-50 9,-63 34,-35 31,-74 33,-117 10,-163 27,-325 36,-487 5,-84 0,-169 -1,-253 0,-76 -3,-152 -1,-228 2,-72 -10,-92 -80,-81 -124,19 -247,1 -371,0 -250,-1 -500,-28 -750,11 -74,11 -152,3 -228,6 -47,2 -94,9 -142,13 -22,2 -46,4 -67,0 -120,-26 -243,2 -361,-10 -113,-11 -231,32 -341,-23 -7,-4 -17,-3 -25,-2 -176,23 -353,2 -529,13 -84,5 -168,1 -261,1 0,82 3,160 -1,237 -10,186 34,371 5,557 -4,24 3,50 6,75 6,50 16,100 20,151 4,56 -7,116 53,145 -4,17 -4,26 -8,33 -34,63 -32,78 23,118 19,14 41,25 30,52 -13,33 -41,23 -65,16 -24,-7 -48,-15 -73,-23 -86,-26 -173,-46 -265,-42 -109,5 -219,3 -328,3 -9,0 -17,0 -25,1 -30,1 -53,-15 -50,-44 2,-17 21,-37 38,-47 18,-11 42,-11 63,-16 3,-45 7,-84 7,-123 -2,-167 27,-331 49,-496 3,-19 7,-41 2,-59 -33,-109 -1,-213 22,-317 13,-57 15,-111 -4,-166 -26,-77 -32,-87 -111,-86 -76,1 -151,15 -227,21 -62,4 -124,3 -185,6 -104,5 -207,12 -311,18 -56,3 -113,6 -169,5 -113,-1 -225,-1 -338,-6 -56,-2 -111,-17 -167,-20 -78,-4 -157,-1 -240,-1 -4,21 -7,41 -11,64 -14,-5 -27,-7 -28,-11 -9,-41 -41,-48 -75,-55 -81,-18 -135,-14 -230,24 0,19 -4,41 1,62 37,177 11,354 9,531 -2,166 -8,333 -12,499 -1,31 10,51 39,67 51,30 71,108 51,162 -17,43 -53,32 -89,33 -21,86 -14,170 -8,253 3,39 12,78 15,117 4,43 -13,72 -62,70 -27,-81 -36,-163 -30,-249 4,-67 -1,-135 -2,-202 -1,-33 -18,-52 -51,-56 -29,-4 -58,-9 -87,-14 0,159 0,307 0,454 62,24 117,45 172,66 7,5 12,13 20,15 174,43 217,199 289,330 5,9 9,24 5,33 -7,16 -21,30 -31,44 -13,-12 -32,-21 -38,-35 -19,-46 -28,-96 -50,-141 -66,-138 -201,-178 -330,-228 -107,-41 -217,-56 -331,-47 -40,3 -67,-13 -91,-48 -26,-39 -59,-75 -93,-108 -118,-113 -237,-224 -356,-336 -25,-24 -47,-48 -21,-91 18,9 34,14 45,24 94,85 189,169 281,257 57,54 108,116 165,169 21,19 52,34 80,36 67,5 134,2 214,2 11,-133 13,-273 -25,-419 -106,22 -208,10 -311,-5 -99,-14 -200,-19 -301,-26 -52,-4 -92,-19 -108,-75 43,-13 188,-4 231,8 40,12 81,20 123,25 95,11 191,18 286,27 18,2 37,0 60,-15 -12,-6 -24,-17 -36,-18 -62,-4 -124,-8 -185,-8 -122,0 -239,-33 -356,-61 -3,-1 -5,-1 -8,-2 -23,-8 -47,-19 -33,-46 6,-12 33,-22 48,-19 56,8 111,18 165,35 133,42 268,17 415,26 -30,-339 13,-668 23,-1010 -97,0 -184,5 -270,-1 -146,-10 -291,-30 -436,-42 -109,-9 -219,-12 -329,-16 -127,-5 -253,-7 -380,-11 -107,-4 -213,-9 -320,-14 -6,0 -12,-3 -17,-1 -61,18 -113,9 -171,-22 -40,-21 -99,-8 -149,-9 -59,-1 -119,1 -178,-4 -34,-3 -68,-15 -102,-24 4,-59 39,-65 73,-63 135,5 270,12 405,19 211,11 422,22 633,33 180,9 360,15 540,29 95,7 188,30 283,42 87,11 174,17 261,23 24,2 49,-4 72,-6 20,-93 14,-99 -67,-104 -146,-8 -292,-17 -438,-29 -27,-2 -72,3 -70,-42 3,-45 46,-35 74,-34 121,7 241,18 362,28 17,1 34,1 51,1 102,-2 119,-20 110,-122 -2,-21 -9,-42 -16,-69 -93,47 -186,22 -276,23 -97,1 -194,-25 -291,-39 -16,-2 -34,-3 -50,0 -123,21 -247,18 -370,4 -22,-3 -48,-11 -67,-3 -72,31 -129,-5 -193,-26 -125,-40 -243,-102 -377,-119 -59,-7 -115,-24 -113,-108 1,-42 -36,-75 -84,-80 -36,-4 -73,-4 -109,-9 -75,-11 -150,-24 -225,-35 -38,-5 -78,-4 -115,-13 -14,-3 -24,-24 -36,-36 13,-8 26,-23 38,-22 25,1 50,10 74,17 120,35 245,59 367,45 125,-14 238,19 354,49 82,22 164,41 246,58 43,9 88,26 129,-9 5,-5 16,-4 24,-4 75,3 150,7 232,10 -19,36 -52,38 -83,40 -37,2 -73,1 -110,1 -38,0 -50,18 -38,65 30,-43 63,-61 103,-21 6,6 21,6 31,5 80,-5 80,-6 125,42 27,-36 -15,-47 -27,-76 10,-20 21,-44 32,-68 6,-4 13,-8 19,-12 14,35 29,70 43,105 -11,15 -43,54 -24,110 45,4 45,4 61,-93 21,22 37,38 57,59 -6,-35 -12,-66 -18,-102 118,-2 232,-10 346,-5 111,4 221,21 321,32 73,-66 56,-144 57,-210 3,-108 7,-218 -35,-324 -21,-54 -24,-115 -35,-175 21,-14 39,-26 54,-36 8,-38 15,-72 22,-106 7,0 15,0 22,-1 7,34 8,71 24,100 15,26 47,43 76,67 -43,41 -62,85 -45,140 2,7 2,19 -3,24 -54,60 -32,133 -33,201 -1,101 0,202 0,314 46,1 85,10 121,3 210,-43 421,-26 633,-30 25,-1 50,7 75,9 50,4 100,7 151,9 103,4 206,7 309,11 14,0 28,2 42,2 121,-3 241,-8 362,-11 20,-1 39,3 59,4 64,1 129,0 193,2 87,3 175,-2 261,13 120,20 235,9 362,-15 10,-133 21,-266 31,-400 4,-60 -18,-111 -64,-150 -40,-34 -48,-73 -33,-123 56,-33 111,-36 176,-18 53,15 113,9 171,12 6,52 13,93 14,134 1,15 -7,38 -18,44 -47,25 -45,70 -46,111 -2,121 -1,242 -1,363 0,19 7,37 11,59 130,-4 256,32 381,-5 13,-4 28,-3 42,-2 142,15 286,1 429,28 96,18 196,17 294,26 59,5 120,26 175,14 76,-16 151,-14 226,-14 118,-1 236,6 354,8 22,1 45,-2 67,-3 59,0 118,1 176,-1 59,-2 118,-6 176,-10 90,-6 180,-14 270,-18 197,-8 394,0 590,24 58,7 116,9 180,14 7,-77 18,-146 18,-215 0,-109 -5,-219 -11,-328 -1,-24 -13,-49 -26,-69 -45,-70 -38,-103 37,-142 15,-45 -39,-99 29,-150 11,58 21,107 33,169 25,-24 41,-39 54,-51 25,42 48,83 72,123 29,48 -2,86 -22,125 -12,25 -34,48 -37,73 -16,151 -13,302 3,461 84,0 161,2 239,0 76,-2 152,-18 226,-8 81,10 156,-2 234,-13 32,-4 66,2 99,3 36,2 75,14 109,5 109,-30 218,-7 327,-11 169,-6 338,1 507,-1 62,-1 123,-18 184,-17 163,1 327,18 489,9 111,-6 218,0 325,25 13,3 28,0 44,0 28,-49 27,-103 26,-156 -2,-118 -5,-237 -12,-355 -3,-56 -13,-111 -25,-166 -15,-70 29,-121 52,-179 3,-8 23,-10 40,-17 9,19 17,33 22,48 5,13 1,33 9,40 92,83 29,160 -6,238 -11,25 -26,52 -27,78 -3,155 -1,309 -1,469 20,4 39,11 57,11 93,2 187,14 277,-1 86,-15 170,12 256,-9 83,-20 173,-15 260,-20 87,-6 174,-12 262,-16 79,-3 158,-6 237,-1 49,3 97,23 146,32 112,21 223,-3 335,-2 172,2 343,8 514,14 107,4 214,10 320,18 126,10 252,22 378,33 16,1 33,-3 60,-6 1,-88 2,-175 3,-261 1,-73 1,-147 1,-220 0,-14 6,-30 1,-42 -39,-89 -12,-172 25,-259 9,8 24,14 25,23 5,35 19,55 57,61 31,6 35,32 23,60 -12,28 -16,64 -36,85 -64,68 -52,151 -53,232 -1,62 -1,124 2,185 2,44 10,89 17,137 36,0 66,0 96,0 48,-115 19,-233 20,-350 0,-28 -9,-57 -5,-84 12,-73 23,-144 -16,-214 -9,-15 -12,-45 -3,-57 42,-57 35,-129 60,-190 3,-7 9,-13 14,-20 33,8 28,32 23,54 -12,54 -15,103 32,147 16,14 17,52 14,78 -4,30 -13,64 -32,86 -46,56 -41,120 -42,185 -2,104 24,207 2,311 -9,42 11,65 53,68 34,2 67,3 101,3 42,-1 84,-6 126,-6 154,-1 308,1 462,-3 200,-4 400,-16 600,-19 273,-4 546,-2 820,-2 84,0 168,0 261,0 4,-31 8,-55 9,-79 4,-110 12,-220 9,-329 -2,-69 -20,-138 -31,-212 11,-25 67,-16 58,-66 -5,-28 1,-59 3,-98 69,28 47,79 56,121 33,16 68,32 105,50 24,-31 7,-61 7,-90 0,-26 3,-52 7,-94 60,59 34,122 56,171 111,37 115,65 25,149 -21,20 -43,49 -46,76 -10,118 -12,236 -17,355 0,13 5,27 7,39 11,4 19,9 27,10 214,11 428,14 642,-2 67,-5 135,2 202,5 67,3 134,9 201,13 37,2 73,2 110,3 180,5 360,14 540,15 66,1 131,-23 199,-24 74,-1 145,13 217,16 67,3 134,1 210,1 7,-34 17,-66 18,-98 5,-113 9,-225 10,-338 0,-50 -11,-100 -12,-150 -1,-35 6,-71 11,-106 6,-43 13,-87 21,-140 17,15 35,24 38,35 7,36 26,65 40,96 16,37 10,101 -13,135 -42,62 -44,128 -47,193 -5,123 -2,247 -2,379 39,-3 68,-4 101,-7 8,-53 19,-100 21,-147 5,-146 7,-292 9,-438 0,-19 -1,-42 -10,-57 -22,-35 -26,-63 -1,-99 10,-14 0,-43 -3,-65 -4,-27 -13,-54 12,-80 36,19 33,52 41,80 6,24 12,53 29,66 23,19 49,33 46,65 -4,41 -13,81 -22,122 -6,26 -24,52 -23,78 9,147 -8,293 -31,438 -1,8 1,16 3,35 22,3 46,11 69,9 129,-12 258,-27 387,-39 45,-4 90,-8 135,-9 107,-1 214,0 321,-1 90,-1 180,-4 269,-5 10,0 20,8 36,15 -11,16 -20,28 -28,39 171,19 344,17 518,5 109,-8 220,-1 330,-1 28,0 57,-2 84,3 33,6 65,17 95,39 73,-18 146,-38 219,-52 30,-6 62,-1 92,-1 35,0 63,-5 83,-43 17,-33 49,-59 80,-94 18,37 47,45 86,40 83,-9 166,-11 227,-14 -44,-12 -112,-30 -179,-49 1,-6 1,-11 2,-17 20,0 42,-6 58,1 97,42 199,30 300,31 45,0 89,4 134,8 20,2 39,10 58,9 154,-5 302,24 450,62 24,6 50,3 75,5 17,1 38,-4 49,5 69,50 146,30 221,32 65,1 130,-1 194,2 26,1 52,12 80,18 -16,45 -45,30 -68,31 -186,3 -372,4 -558,9 -120,3 -232,48 -341,90 -45,18 -84,56 -122,89 -48,43 -96,88 -138,137 -36,42 -64,92 -94,139 -17,26 -31,55 -52,79 48,-258 365,-579 771,-597 -77,-25 -139,-37 -206,-41 -126,-8 -251,-28 -376,-41 -33,-3 -67,2 -101,4 1,6 1,9 2,10 2,2 6,3 7,5 3,7 4,14 9,30 -49,0 -93,6 -136,-1 -96,-15 -191,-5 -286,5 -48,5 -48,6 -65,72 51,43 149,20 171,116 -57,12 -104,-12 -150,-28 -100,-33 -200,-34 -300,-10 -90,22 -178,50 -267,76 -54,16 -90,53 -126,94 -71,83 -147,163 -221,243 -9,10 -23,17 -30,28 -66,111 -128,225 -196,334 -83,133 -94,274 -68,423 6,36 9,73 10,109 0,11 -13,31 -20,31 -14,0 -29,-10 -41,-18 -6,-4 -9,-15 -10,-23 -18,-153 -54,-306 12,-456 12,-28 25,-56 40,-83 53,-92 107,-184 167,-288 -176,-2 -339,-6 -502,-4 -166,1 -332,4 -497,12 -165,8 -330,-27 -498,-2 -2,32 -3,54 -4,76 -6,180 -13,360 -16,540 -1,84 10,169 10,253 0,75 6,145 69,196l1 -1c-55,47 -124,33 -186,37 -83,5 -168,-7 -251,-1 -46,3 -90,28 -139,45 -6,205 -13,410 -19,615 -5,161 -10,321 -12,482 -2,113 4,225 1,338 -3,146 -11,293 -16,439 -4,138 -6,276 -9,414 0,17 3,35 -3,50 -6,16 -21,28 -33,42 -11,-14 -31,-28 -31,-43 -2,-59 1,-118 3,-177 5,-177 11,-355 16,-532 7,-290 15,-580 20,-870 3,-169 -4,-337 -2,-506 1,-78 10,-157 18,-235 1,-15 16,-28 23,-43 6,-15 12,-31 12,-47 4,-64 4,-128 8,-192 10,-137 23,-274 33,-411 9,-126 16,-253 21,-380 3,-91 -13,-99 -102,-95 -98,5 -197,0 -295,0 -89,0 -179,2 -268,2 -84,0 -169,-2 -253,-2 -118,0 -237,4 -355,2 -214,-4 -427,-11 -641,-17 -22,-1 -45,-3 -67,-1 -101,6 -115,21 -115,123 1,197 1,394 4,591 1,98 8,197 10,295 1,28 8,47 37,59 40,16 51,43 35,88 -10,30 2,66 1,100 -5,160 -14,320 -17,480 -3,163 4,327 0,490 -7,273 -22,546 -29,820 -3,118 5,237 8,355 3,138 6,276 6,414 0,43 -9,85 -16,138 -36,33 -92,22 -144,22 -67,0 -135,-11 -202,-14 -44,-2 -88,3 -134,5 -10,192 -20,374 -30,556 0,6 0,11 -1,17 -4,26 -9,53 -44,49 -28,-3 -40,-30 -31,-64 7,-27 15,-54 17,-82 12,-146 23,-292 34,-438 2,-33 -3,-66 0,-99 8,-82 20,-164 29,-247 9,-92 17,-185 23,-278 6,-98 9,-196 14,-294 11,-180 27,-360 32,-540 6,-220 5,-439 4,-659 -1,-138 -12,-276 -13,-414 0,-101 10,-202 15,-303 69,2 72,8 66,70 -10,101 -22,202 -24,303 -2,81 11,163 13,244 3,130 4,259 3,389 -1,166 -1,333 -10,499 -16,293 -39,585 -56,877 -6,98 -1,196 -1,303 125,13 244,26 360,39 28,-50 49,-92 16,-141 -7,-11 0,-32 1,-49 6,-87 16,-174 17,-261 1,-118 -7,-236 -7,-354 0,-104 7,-208 10,-312 3,-124 4,-248 7,-372 3,-132 8,-265 8,-397 0,-104 -10,-208 -8,-312 3,-177 13,-353 20,-542 -113,-5 -216,-12 -319,-12 -31,0 -62,19 -93,29 -11,1 -23,3 -34,3 -75,1 -72,1 -66,-77 12,-160 20,-320 31,-479 8,-110 20,-219 25,-329 4,-92 1,-183 1,-280 -71,-5 -132,-13 -193,-14 -195,-3 -389,-2 -584,-6 -152,-3 -304,-12 -456,-17 -107,-3 -214,-3 -321,-6 -121,-3 -242,-7 -363,-11 -90,-3 -180,-8 -270,-10 -27,0 -55,9 -93,15 0,173 5,345 -2,516 -7,171 -22,343 -21,509 31,20 62,30 73,50 9,16 -8,46 -12,69 -1,5 1,11 1,17 0,121 2,242 -1,363 -9,335 -21,670 -32,1006 -5,163 -16,327 -15,490 1,211 11,423 16,634 1,39 -8,78 -9,117 -1,33 -2,67 4,99 9,51 6,64 -41,70 -135,16 -270,24 -404,-3 -41,-8 -65,-28 -61,-75 5,-56 8,-112 10,-168 8,-200 15,-400 23,-600 8,-197 19,-393 27,-590 3,-70 0,-141 4,-211 9,-155 20,-309 29,-464 1,-20 2,-39 3,-59 9,-146 19,-292 25,-439 2,-45 -7,-90 -11,-142 -16,12 -24,15 -25,18l-60 791z"/>
  <path class="fil0" d="M12194 17625c-30,-3 -61,-10 -91,-10 -84,2 -168,10 -252,12 -87,2 -174,0 -257,0 -25,201 -51,409 -76,601 101,81 193,154 284,228 13,11 25,23 37,35 18,19 26,42 2,57 -10,6 -37,-2 -49,-12 -71,-55 -138,-115 -211,-167 -38,-27 -85,-41 -138,-65 4,-62 4,-131 12,-200 13,-115 31,-229 45,-343 3,-22 5,-46 0,-67 -9,-39 -2,-67 31,-77 -5,-49 -14,-89 -13,-130 2,-87 13,-174 14,-261 3,-222 6,-444 24,-666 15,-174 17,-349 25,-523 6,-118 13,-236 17,-355 3,-84 2,-169 -1,-254 -1,-22 -18,-43 -25,-59 40,-143 60,-289 58,-439 51,16 63,35 59,92 -4,48 -14,95 -17,142 -6,98 -9,197 -13,295 -14,321 -31,642 -40,963 -8,267 -48,534 -25,802 7,81 1,163 1,250 178,66 363,19 558,27 0,-111 2,-215 1,-319 -1,-121 -3,-241 -5,-362 -1,-42 5,-87 -8,-125 -29,-86 -18,-173 -17,-260 2,-130 3,-259 7,-388 4,-132 10,-265 17,-397 6,-127 16,-252 0,-380 -11,-86 -6,-174 -7,-261 0,-28 -1,-57 33,-70 19,33 40,155 39,216 -2,129 -3,258 -5,387 -3,239 -7,478 -8,717 -1,127 5,254 5,380 0,158 -4,315 -3,473 1,124 9,248 13,372 1,47 12,97 -23,138l1 -1z"/>
  <path class="fil0" d="M5088 17411c154,7 305,14 464,21 3,-31 10,-64 10,-97 -3,-152 -2,-305 -13,-456 -13,-183 -19,-365 -21,-548 -1,-146 -23,-292 -26,-438 -3,-143 7,-287 11,-430 1,-31 -1,-62 -3,-93 -6,-115 -14,-230 -18,-345 -1,-34 10,-69 15,-103 7,-2 14,-3 22,-5 11,17 27,32 30,50 7,41 9,84 10,126 3,225 5,451 6,676 0,110 -14,220 -3,329 15,160 18,320 20,481 2,186 22,371 30,556 4,81 -6,163 -5,244 0,84 -17,168 15,251 19,50 15,272 1,329 -42,4 -52,-24 -52,-57 -1,-51 2,-101 2,-152 0,-23 3,-46 -2,-67 -28,-111 -14,-124 -151,-139 -121,-14 -240,-28 -361,-7 -11,2 -21,4 -31,6 -24,136 -46,269 -70,402 -4,25 -9,51 -22,72 -8,13 -35,26 -47,22 -13,-5 -20,-29 -25,-47 -3,-9 4,-22 7,-32 44,-147 70,-296 65,-450 -1,-39 8,-78 14,-117 27,-176 42,-351 34,-530 -4,-95 10,-190 12,-285 1,-70 -8,-140 -7,-210 3,-130 12,-259 14,-389 3,-135 0,-270 1,-405 0,-118 3,-236 2,-354 -1,-87 -6,-174 -7,-262 0,-23 6,-46 9,-67 47,-5 56,23 59,46 9,72 20,145 19,218 -4,245 -12,490 -19,735 -3,96 -10,191 -12,287 -3,200 -2,399 -4,599 -1,113 -8,225 -7,337 1,84 9,168 16,253 1,16 11,31 17,45z"/>
  <path class="fil0" d="M21776 10473c-24,11 -47,23 -71,32 -50,19 -101,34 -150,56 -88,40 -179,50 -273,36 -200,-31 -400,-21 -599,-5 -234,19 -468,13 -702,2 -276,-14 -547,-74 -821,-108 -3,0 -6,-1 -8,-1 -178,2 -354,-16 -530,-32 -85,-8 -173,14 -260,23 -22,2 -45,5 -67,5 -146,1 -293,5 -439,3 -201,-3 -400,-19 -582,-119 -42,-23 -85,-44 -130,-61 -216,-84 -436,-151 -673,-129 -81,8 -164,7 -245,5 -92,-2 -179,13 -267,38 -59,17 -120,30 -180,46 -111,30 -222,62 -333,93 -39,11 -78,19 -118,28 -3,-7 -5,-14 -8,-21 38,-20 74,-46 115,-60 94,-31 189,-56 284,-82 98,-27 196,-52 294,-77 38,-9 77,-19 116,-20 141,-4 282,-8 423,-4 223,7 433,69 636,159 67,30 131,67 200,91 164,57 336,67 508,60 104,-4 208,-8 312,-14 73,-4 146,-11 218,-18 118,-11 236,-11 354,10 74,13 151,9 227,14 73,5 146,8 218,18 221,30 440,77 661,92 306,22 613,20 920,10 163,-5 327,-12 489,19 88,17 173,-4 255,-41 68,-31 140,-51 211,-76 4,9 9,19 14,28z"/>
  <path class="fil0" d="M20359 17538c35,0 54,-1 74,0 143,4 286,9 429,14 24,1 51,5 48,34 -2,16 -23,41 -39,44 -52,11 -105,18 -158,19 -115,3 -231,1 -343,1 -38,100 -47,205 -53,310 -5,92 -18,184 -30,276 -2,17 -14,34 -21,50 -60,-10 -54,-54 -51,-87 12,-129 30,-257 43,-386 4,-41 3,-84 -2,-126 -4,-30 -10,-56 20,-75 4,-3 10,-9 10,-13 -3,-66 -6,-131 -10,-197 -2,-30 -6,-61 -5,-91 1,-45 6,-89 7,-134 3,-186 3,-371 9,-557 6,-191 8,-384 29,-574 24,-212 5,-422 8,-633 1,-76 14,-151 17,-227 4,-79 3,-158 4,-236 0,-22 -1,-45 2,-67 1,-9 14,-23 20,-22 12,2 24,11 33,19 5,5 6,16 6,24 -3,118 -5,236 -9,354 -2,73 -8,146 -9,219 -1,147 5,294 0,440 -6,166 -26,332 -32,498 -9,251 -11,502 -16,752 -1,56 -3,113 0,169 3,64 11,128 18,201z"/>
  <path class="fil0" d="M10272 16933c70,43 141,86 197,150 70,80 143,159 214,238 61,67 137,125 178,202 39,74 78,149 126,216 108,150 149,325 207,495 40,117 89,231 135,346 61,155 118,311 103,481 -4,49 -18,99 -36,145 -34,83 -75,163 -114,243 -9,18 -23,33 -38,53 -55,-54 -33,-101 -12,-147 35,-74 76,-144 105,-220 39,-104 19,-212 -1,-317 -16,-84 -44,-164 -78,-244 -67,-157 -117,-322 -168,-486 -70,-224 -177,-427 -336,-599 -55,-59 -91,-131 -151,-186 -59,-55 -103,-126 -158,-186 -38,-41 -83,-76 -125,-113 -20,-18 -42,-33 -63,-50 5,-7 10,-14 15,-20z"/>
  <path class="fil0" d="M17455 17435c-40,-16 -34,-49 -32,-78 9,-132 21,-264 30,-396 14,-185 27,-371 40,-556 3,-39 5,-79 7,-118 6,-109 14,-219 15,-328 0,-18 -25,-45 -44,-51 -39,-12 -83,-19 -124,-18 -173,5 -304,-66 -395,-212 -16,-26 -31,-54 -41,-85 34,12 49,42 67,71 75,123 184,193 330,200 67,3 134,12 211,19 4,-26 11,-56 12,-85 5,-169 8,-338 14,-507 4,-124 12,-247 19,-371 1,-12 11,-24 16,-35 42,1 41,32 41,55 0,59 -5,118 -7,177 -6,141 -11,281 -19,422 -8,152 -20,303 -28,454 -9,174 -13,349 -24,523 -10,157 -29,314 -41,471 -10,124 -15,247 -22,371 -2,27 6,57 -24,76z"/>
  <path class="fil0" d="M5895 17580c-87,6 -87,6 -131,-83 48,-53 42,-116 34,-186 -15,-125 -17,-252 -26,-378 -7,-98 -18,-196 -27,-295 -4,-39 -9,-78 -11,-118 -12,-191 -23,-382 -33,-573 -6,-110 -7,-219 -13,-329 -9,-186 -20,-371 -29,-557 -1,-16 13,-32 20,-49 13,12 35,22 37,36 9,52 13,106 16,159 10,169 19,338 27,506 12,250 22,501 35,751 5,93 12,185 20,278 16,191 32,382 49,573 5,53 18,106 25,159 4,33 5,66 8,105z"/>
  <path class="fil0" d="M20760 14781c42,-11 67,5 71,47 6,59 15,118 15,177 2,293 2,586 2,879 0,276 -1,552 1,828 1,82 9,163 15,245 10,157 20,315 29,472 1,25 13,64 -30,65 -40,1 -34,-35 -35,-64 -2,-98 -3,-196 -7,-294 -9,-205 -22,-410 -29,-616 -6,-171 -8,-342 -8,-514 0,-132 9,-264 9,-397 -1,-135 -10,-270 -13,-405 -1,-62 6,-124 4,-185 -4,-80 -13,-161 -21,-241 0,0 -1,1 -1,1z"/>
  <path class="fil0" d="M16192 18472c24,14 48,24 66,39 71,62 149,108 243,131 51,13 98,42 147,63 70,30 139,60 210,88 141,56 287,102 423,169 133,66 256,152 383,230 12,7 26,15 33,26 8,15 19,40 12,50 -8,12 -34,21 -50,18 -21,-4 -40,-20 -58,-32 -170,-117 -346,-218 -539,-295 -175,-70 -360,-114 -523,-213 -33,-20 -73,-28 -111,-39 -97,-28 -177,-86 -252,-150 -12,-11 -20,-34 -19,-51 1,-11 22,-20 37,-34z"/>
  <path class="fil0" d="M4026 11203c36,0 71,0 107,0 158,0 316,1 473,-2 81,-2 163,-14 244,-20 53,-4 107,-3 160,-4 112,-2 224,-4 336,-4 99,0 198,-3 295,7 93,9 181,-1 265,-36 110,-45 227,-38 340,-59 16,-3 35,10 53,15 0,6 0,12 0,18 -57,7 -114,14 -170,22 -55,9 -116,8 -164,32 -128,64 -260,62 -397,50 -75,-6 -153,-12 -226,1 -124,22 -246,-5 -368,-2 -42,1 -85,-2 -126,2 -292,30 -585,24 -878,12 -27,-1 -55,9 -82,13 -38,6 -75,11 -114,11 79,-71 184,-81 271,-132 41,-24 89,-40 125,-70 79,-67 170,-97 269,-115 80,-14 161,-28 242,-41 17,-3 36,3 54,17 -125,28 -254,45 -373,89 -118,44 -227,115 -340,173 2,7 3,13 5,20z"/>
  <path class="fil0" d="M23315 14387c5,-113 -28,-232 72,-328 20,-20 32,-48 47,-73 -4,-4 -8,-8 -12,-12 -18,5 -36,9 -53,14 -70,20 -141,39 -211,60 -32,10 -63,24 -93,38 -25,12 -48,30 -74,39 -77,26 -132,84 -191,134 -45,38 -80,87 -119,131 -73,83 -167,121 -276,128 -48,3 -96,8 -143,10 -30,1 -59,-8 -59,-45 0,-33 27,-41 53,-43 42,-3 85,-2 127,-4 93,-3 177,-26 241,-102 38,-45 81,-86 123,-127 66,-64 128,-132 225,-152 23,-5 43,-27 66,-37 33,-15 67,-28 102,-38 62,-18 126,-29 187,-49 47,-16 91,-32 131,1 70,-78 136,-152 202,-226 5,3 10,6 15,10 -6,16 -10,34 -20,47 -87,118 -174,235 -263,351 -53,69 -40,149 -45,226 -1,17 0,34 0,51 -10,-1 -21,-3 -31,-4z"/>
  <path class="fil0" d="M14543 17713c-58,14 -81,-11 -104,-28 -103,-79 -216,-138 -334,-193 -139,-65 -281,-129 -406,-224 -78,-60 -172,-89 -274,-98 -114,-10 -228,-26 -335,-80 -51,-26 -113,-32 -168,-51 -83,-28 -164,-59 -246,-89 -50,-19 -99,-39 -150,-60 8,-33 29,-29 50,-17 134,76 282,113 428,155 5,2 11,6 16,5 105,-21 194,51 296,53 22,0 44,10 67,10 159,-2 294,65 428,140 172,96 345,191 518,285 83,45 140,116 216,191z"/>
  <path class="fil0" d="M21880 14180c-40,112 -95,213 -194,286 -112,82 -210,178 -302,282 -66,75 -82,155 -35,240 39,71 44,144 38,221 -16,202 -31,404 -49,606 -4,50 -8,103 -25,149 -36,99 -34,199 -23,301 17,154 29,308 18,463 -5,65 -3,130 -3,194 0,43 -7,82 -46,127 3,-72 2,-130 9,-186 31,-229 -1,-455 -28,-681 -5,-41 -4,-84 1,-125 15,-120 39,-239 51,-359 17,-171 29,-342 41,-513 5,-70 -7,-136 -37,-204 -40,-94 -14,-187 52,-268 84,-104 181,-193 288,-271 84,-61 154,-131 194,-228 7,-17 21,-31 32,-46 5,4 10,8 15,12z"/>
  <path class="fil0" d="M1741 14653c-21,-9 -43,-16 -63,-27 -199,-116 -409,-215 -593,-357 -20,-15 -45,-23 -68,-34 -102,-48 -203,-97 -305,-145 -94,-44 -188,-88 -283,-131 -64,-29 -129,-56 -193,-85 -41,-19 -80,-35 -129,-30 -58,5 -70,-8 -105,-73 19,2 34,2 48,5 16,3 37,17 46,11 57,-37 102,1 150,20 81,32 164,60 243,96 102,47 202,99 303,149 81,40 164,75 242,120 103,59 201,125 301,187 29,18 57,36 88,50 115,51 209,132 310,204 8,6 11,17 17,26 -3,5 -6,9 -9,14z"/>
  <path class="fil0" d="M21966 15829c48,28 44,63 43,96 -5,205 -9,410 -18,616 -4,90 -21,179 -27,269 -8,118 -8,236 -15,354 -6,93 -16,185 -25,277 -3,31 -4,62 -6,92 -7,104 -13,208 -20,312 -2,28 -11,54 -44,48 -36,-7 -32,-35 -28,-67 14,-108 23,-217 34,-325 2,-22 -2,-46 4,-67 30,-110 26,-223 30,-335 5,-143 22,-286 30,-429 6,-104 7,-208 10,-312 5,-160 11,-321 18,-481 1,-13 7,-26 14,-47z"/>
  <path class="fil0" d="M10531 10993c-46,30 -84,15 -121,9 -188,-30 -372,-85 -566,-84 -109,1 -218,-28 -327,-34 -166,-8 -332,-17 -497,-9 -172,8 -342,43 -496,126 -107,58 -218,67 -336,53 -44,-5 -89,0 -134,1 -59,0 -118,4 -177,0 -31,-2 -62,-17 -92,-26 1,-6 2,-12 3,-17 14,-1 28,-3 43,-3 73,-2 146,-4 218,-5 56,-1 114,-8 168,2 88,16 170,2 245,-39 165,-91 344,-120 527,-138 6,-1 11,-3 17,-2 225,10 450,20 675,32 84,4 168,14 252,21 34,3 68,0 101,6 116,23 231,49 346,73 36,7 72,10 108,16 12,2 23,10 43,19z"/>
  <path class="fil0" d="M17414 18300c76,33 140,94 233,84 17,-2 40,9 52,21 81,85 187,134 283,197 25,17 47,39 68,61 5,6 1,20 1,38 -22,-6 -39,-6 -52,-14 -74,-46 -147,-93 -220,-141 -26,-17 -51,-35 -74,-56 -26,-23 -50,-38 -89,-38 -37,0 -75,-19 -112,-33 -34,-13 -66,-31 -100,-44 -23,-9 -56,-6 -69,-21 -19,-21 -24,-55 -36,-89 52,-27 53,-72 59,-121 13,-111 35,-222 51,-333 5,-36 2,-73 9,-108 3,-15 22,-26 33,-39 9,12 27,24 27,36 -1,50 -5,101 -12,150 -18,134 -37,267 -56,401 -2,13 1,28 3,46z"/>
  <path class="fil0" d="M8981 17850c50,13 57,45 57,75 3,132 37,255 87,376 17,43 19,93 27,140 96,-11 144,-88 201,-152 17,-19 39,-34 62,-54 34,48 33,80 -3,113 -30,28 -56,61 -84,91 -10,10 -20,23 -32,27 -79,22 -113,86 -146,152 -25,50 -31,51 -97,23 53,-62 -7,-128 9,-195 16,-66 -10,-132 -25,-198 -26,-115 -41,-232 -60,-348 -2,-13 2,-27 4,-49z"/>
  <path class="fil0" d="M23284 15407c0,70 2,139 0,209 -4,152 -8,304 -15,455 -7,143 -19,286 -26,429 -6,118 -10,236 -13,353 -3,163 -6,326 -6,489 -1,155 0,310 3,465 5,200 -5,399 -43,596 -4,20 -17,37 -29,64 -28,-39 -20,-73 -8,-97 49,-98 45,-204 49,-306 6,-157 -5,-315 -5,-473 0,-107 9,-214 11,-321 2,-104 -1,-208 1,-312 3,-141 2,-282 15,-422 21,-225 32,-449 30,-675 -1,-151 14,-303 22,-454 5,-1 10,-1 15,-2z"/>
  <path class="fil0" d="M13366 16376c-24,-41 2,-74 5,-108 14,-137 85,-228 211,-282 33,-14 64,-38 88,-64 34,-37 73,-53 121,-45 130,20 253,57 357,142 35,29 73,54 106,84 23,21 40,49 59,73 -31,34 -49,15 -66,1 -53,-42 -105,-85 -158,-128 -87,-70 -194,-87 -298,-111 -20,-5 -48,12 -69,24 -50,31 -96,70 -148,98 -92,49 -146,121 -157,225 -4,35 -5,73 -51,90z"/>
  <path class="fil0" d="M21890 10916c8,-9 14,-24 24,-27 104,-35 204,-75 289,-151 27,-24 71,-33 109,-41 88,-19 162,-56 224,-125 28,-31 74,-53 115,-62 143,-30 288,-54 433,-77 38,-6 78,1 118,4 129,10 258,21 387,-10 57,-13 117,-11 176,-16 53,-4 107,-10 160,-11 49,-1 98,4 153,7 -8,16 -10,23 -13,24 -109,6 -219,10 -328,17 -81,6 -162,17 -243,24 -48,4 -97,13 -143,6 -147,-22 -291,-16 -436,19 -74,17 -150,26 -225,34 -60,6 -109,29 -146,75 -55,66 -124,104 -209,116 -60,9 -109,38 -158,75 -62,47 -133,83 -202,120 -22,12 -51,10 -77,15 -2,-5 -5,-10 -7,-15z"/>
  <path class="fil0" d="M13780 10508c-47,54 -89,72 -138,77 -33,3 -68,4 -101,1 -72,-5 -138,6 -205,36 -55,25 -118,38 -178,50 -56,12 -101,34 -125,91 10,7 20,15 40,31 -31,26 -56,57 -89,73 -107,50 -212,104 -308,174 -22,16 -54,19 -81,28 -3,-6 -6,-12 -9,-18 9,-7 17,-16 26,-22 73,-52 148,-101 218,-156 80,-62 164,-120 220,-208 9,-14 33,-22 51,-24 99,-10 192,-41 283,-80 32,-14 72,-13 108,-13 81,0 164,13 237,-39 7,-5 21,-1 51,-1z"/>
  <path class="fil0" d="M2029 13663c10,25 23,44 25,63 8,106 17,212 18,319 2,177 0,354 -2,531 0,21 -4,42 -9,83 -24,-26 -40,-37 -45,-51 -8,-21 -12,-44 -12,-66 -3,-154 -6,-308 -7,-463 -1,-109 0,-219 -1,-328 0,-30 -10,-61 33,-88z"/>
  <path class="fil0" d="M17009 11651c92,35 144,-18 188,-64 111,-114 251,-190 372,-290 66,-54 145,-74 227,-81 123,-11 246,-24 370,-29 58,-2 117,10 175,19 51,8 102,21 161,33 -32,37 -68,32 -96,22 -120,-47 -239,-50 -363,-15 -47,13 -101,5 -151,4 -122,-3 -234,22 -331,102 -117,96 -237,190 -357,283 -33,26 -69,50 -107,67 -35,16 -71,14 -90,-50z"/>
  <path class="fil0" d="M18189 17667c7,25 17,50 20,75 16,134 20,270 48,401 28,132 -12,246 -57,363 -11,28 -29,55 -51,76 -10,10 -34,6 -52,8 -2,-18 -11,-39 -5,-52 36,-75 81,-147 113,-223 14,-33 17,-81 4,-113 -41,-102 -32,-210 -49,-315 -8,-50 -11,-100 -13,-151 -1,-22 6,-45 9,-67 11,-1 21,-1 32,-2z"/>
  <path class="fil0" d="M7697 10994c-34,21 -70,16 -103,5 -157,-54 -327,-56 -480,-128 -83,-39 -170,-32 -257,-13 -25,5 -49,14 -74,15 -111,6 -205,45 -292,116 -74,61 -145,61 -224,21 3,-3 7,-10 10,-10 101,9 180,-35 250,-101 43,-41 97,-56 154,-63 73,-9 146,-15 218,-26 84,-13 162,4 240,29 80,25 162,46 243,66 101,25 202,47 303,70 3,1 5,8 11,18z"/>
  <path class="fil0" d="M9964 15342c78,-36 125,-1 166,43 61,66 96,150 97,238 1,72 -16,145 -34,216 -14,55 -51,62 -115,28 75,-85 72,-181 47,-284 -24,-100 -89,-170 -162,-240z"/>
  <path class="fil0" d="M2912 12352c28,-35 48,-59 68,-84 91,48 115,82 86,167 -47,136 -47,275 -49,415 0,38 8,80 -30,109 -33,-6 -28,-32 -27,-53 4,-90 8,-180 15,-269 5,-63 6,-121 -33,-177 -21,-30 -22,-74 -30,-108z"/>
  <path class="fil0" d="M22014 14740c57,41 57,84 55,125 -6,118 -13,236 -24,354 -8,89 -24,178 -36,267 -3,22 -5,45 -2,67 3,28 16,58 -17,74 -13,6 -44,3 -45,0 -5,-26 -9,-53 -6,-79 17,-128 37,-255 54,-383 12,-97 22,-195 29,-293 3,-38 -4,-77 -8,-132z"/>
  <path class="fil0" d="M11544 16575c-47,37 -75,14 -101,3 -52,-23 -106,-31 -163,-38 -57,-7 -114,-29 -165,-56 -84,-45 -165,-92 -258,-121 -99,-31 -185,-96 -255,-174 -39,-43 -57,-94 -29,-162 15,17 31,26 33,38 31,151 154,211 276,259 71,28 141,55 204,97 64,42 131,71 212,73 84,2 161,38 245,82z"/>
  <path class="fil0" d="M19379 16120c-4,-4 -10,-7 -12,-11 -80,-208 -260,-311 -439,-413 -87,-50 -187,-46 -281,-25 -45,10 -89,49 -122,85 -67,73 -118,158 -149,253 -7,20 -16,40 -30,59 -12,-71 17,-133 44,-194 10,-23 28,-42 41,-64 129,-231 347,-225 532,-129 107,55 202,133 299,204 78,57 87,152 132,228 -5,3 -10,6 -15,9z"/>
  <path class="fil0" d="M16056 12832c38,-87 73,-165 108,-243 19,-44 50,-73 99,-83 33,-7 63,-24 96,-33 68,-19 110,-64 130,-131 14,-47 32,-88 81,-111 21,-10 42,-32 52,-53 51,-108 145,-170 237,-234 26,-19 54,-35 87,-57 4,42 -21,54 -39,68 -43,32 -90,60 -128,96 -45,42 -84,90 -124,136 -63,73 -134,139 -164,239 -12,39 -55,69 -103,80 -143,33 -226,126 -262,266 -10,39 -14,38 -70,61z"/>
  <path class="fil0" d="M3504 17449c17,-26 23,-37 32,-46 39,-38 52,-85 52,-138 2,-182 -29,-353 -147,-500 -121,-152 -239,-307 -358,-461 -40,-52 -88,-100 -103,-172 12,8 26,14 35,25 160,208 321,415 479,624 120,158 133,343 121,532 -4,61 -41,100 -111,135z"/>
  <path class="fil0" d="M20927 17643c8,30 22,61 22,91 1,171 -2,342 -4,513 0,5 -5,10 -12,22 -15,-7 -40,-9 -46,-21 -15,-32 -37,-72 -29,-101 20,-70 26,-136 4,-206 -7,-22 7,-49 8,-74 4,-61 4,-122 9,-182 1,-14 14,-28 21,-41 8,0 17,0 25,0z"/>
  <path class="fil0" d="M10378 16624c-36,-11 -72,-23 -108,-32 -35,-9 -71,-15 -109,-22 -6,21 -11,38 -16,55 -10,-1 -17,0 -20,-3 -107,-110 -121,-240 -54,-374 30,-59 41,-128 60,-192 6,-22 12,-44 20,-74 46,35 36,73 28,101 -22,72 -47,143 -79,211 -27,58 -27,114 -11,172 10,37 39,50 75,58 60,14 119,32 178,50 17,5 31,19 46,29 -3,7 -6,14 -9,22z"/>
  <path class="fil0" d="M22176 15605c0,-37 0,-75 0,-119 -35,41 -27,80 0,119zm24 244c5,-43 10,-85 14,-128 -72,-4 -72,-4 -78,54 -4,34 -10,67 -16,106 -41,-24 -30,-48 -26,-73 8,-46 23,-94 -7,-139 -3,-4 -6,-11 -5,-16 31,-96 63,-192 95,-288 1,-1 5,-2 14,-5 35,25 39,70 46,108 22,136 9,312 -37,380z"/>
  <path class="fil0" d="M12192 17626c35,-4 53,12 54,47 1,28 -2,56 0,84 8,123 17,246 26,368 2,32 19,75 -30,81 -45,6 -48,-34 -53,-69 -15,-106 -22,-211 -9,-317 4,-35 -7,-73 -5,-109 2,-29 12,-58 19,-87l-1 1z"/>
  <path class="fil0" d="M23724 16502c27,40 21,80 13,121 -24,130 -58,259 -44,393 5,45 9,90 14,134 7,70 16,140 20,210 7,115 11,230 18,346 4,58 -24,103 -59,144 -6,7 -18,7 -41,16 9,-26 10,-42 19,-52 35,-41 43,-88 43,-141 1,-195 -12,-388 -43,-581 -18,-110 -9,-218 15,-327 17,-74 24,-150 36,-225 2,-13 6,-25 8,-37z"/>
  <path class="fil0" d="M11343 15801c-37,-40 -66,-73 -96,-106 -36,-38 -78,-62 -132,-66 -50,-4 -99,-19 -150,-26 -68,-10 -89,7 -108,73 -9,31 -23,61 -38,99 -28,-63 -21,-162 10,-198 38,-45 90,-42 141,-36 61,8 122,19 183,29 106,18 156,103 209,182 5,7 -10,26 -19,48z"/>
  <path class="fil0" d="M15573 18025c22,10 48,17 69,32 95,66 188,134 282,201 54,39 97,88 109,155 3,17 -7,48 -21,55 -27,14 -53,-6 -55,-34 -5,-91 -77,-125 -138,-170 -80,-58 -159,-116 -239,-174 -21,-15 -32,-32 -8,-66z"/>
  <path class="fil0" d="M17912 17993c14,25 32,48 42,75 64,173 118,427 105,486 -33,11 -48,-11 -58,-34 -15,-36 -27,-74 -37,-112 -25,-104 -49,-208 -72,-312 -7,-30 -8,-62 -11,-93 10,-3 21,-7 31,-10z"/>
  <path class="fil0" d="M11834 10957c-51,26 -91,10 -127,-11 -78,-45 -159,-56 -244,-25 -67,24 -135,20 -200,-1 -68,-22 -117,-1 -169,42 -43,34 -96,59 -148,76 -57,18 -113,5 -158,-44 72,12 141,14 205,-24 29,-17 60,-32 85,-54 49,-41 101,-57 164,-38 77,24 156,24 233,-2 53,-18 105,-16 157,4 67,25 134,51 202,76z"/>
  <path class="fil0" d="M15455 17611c8,16 22,32 25,49 7,41 12,84 13,126 3,115 3,230 5,346 0,6 1,11 0,17 -1,27 8,60 -32,67 -27,5 -46,-23 -45,-66 1,-73 3,-146 4,-219 1,-93 0,-185 1,-278 0,-12 6,-25 10,-37 7,-1 13,-3 20,-4z"/>
  <path class="fil0" d="M13492 15208c-70,-75 -156,-126 -247,-174 -89,-47 -169,-111 -254,-167 -120,-79 -248,-130 -394,-136 -89,-3 -179,-6 -266,-43 7,-5 10,-10 14,-10 129,11 259,14 386,37 76,14 150,50 217,90 148,87 292,181 434,277 45,31 79,78 118,118 -3,3 -6,5 -9,8z"/>
  <path class="fil0" d="M11919 18439c-69,-6 -72,-10 -74,-68 -3,-84 -5,-168 -11,-252 -3,-42 -12,-83 -18,-124 -3,-22 -11,-51 19,-54 15,-1 37,20 47,36 13,21 22,47 23,71 8,115 14,230 19,344 1,13 -3,27 -6,47z"/>
  <path class="fil0" d="M16748 15360c-27,31 -62,17 -90,8 -75,-25 -148,-55 -221,-83 -63,-25 -123,-58 -187,-75 -162,-42 -317,-24 -465,60 -85,48 -118,50 -198,30 45,-13 85,-21 123,-35 39,-15 76,-37 114,-55 178,-88 356,-61 532,6 63,24 120,63 183,86 67,25 137,39 210,59z"/>
  <path class="fil0" d="M10925 14987c-12,-21 -25,-41 -35,-63 -33,-74 -81,-136 -156,-172 -63,-30 -127,-61 -192,-87 -56,-22 -116,-23 -175,-6 -51,15 -103,30 -154,47 -57,20 -105,52 -141,103 -19,27 -48,48 -79,65 28,-72 61,-143 135,-172 89,-35 180,-64 273,-86 38,-9 86,-1 124,14 87,33 173,70 253,115 89,51 133,138 147,241z"/>
  <path class="fil0" d="M7642 12968c-30,-10 -51,-14 -70,-22 -214,-101 -409,-233 -607,-361 -10,-6 -13,-22 -26,-45 47,17 84,24 113,42 191,117 381,236 571,355 6,4 8,13 18,32z"/>
  <path class="fil0" d="M20987 10898c-149,54 -301,81 -457,27 -69,-24 -125,-13 -192,16 -102,44 -184,101 -242,197 -14,24 -44,39 -66,58 -5,-5 -10,-9 -15,-14 20,-23 46,-43 60,-70 56,-109 151,-167 260,-212 52,-21 100,-31 155,-17 60,15 121,32 182,33 69,1 139,-13 208,-23 35,-5 69,-14 103,-21 1,9 2,17 3,26z"/>
  <path class="fil0" d="M23703 16257c13,-130 28,-260 38,-391 10,-135 20,-270 20,-405 1,-131 -8,-262 8,-391 6,-1 12,-1 18,-2 3,14 9,27 8,41 -6,231 -8,461 -20,692 -7,140 -28,280 -43,420 -1,13 -7,26 -10,39 -6,-1 -12,-2 -19,-2z"/>
  <path class="fil0" d="M21067 11116c26,-28 53,-55 78,-83 41,-46 86,-89 120,-140 38,-58 83,-97 152,-109 70,-12 135,-39 192,-81 42,-31 89,-37 136,-19 47,18 101,25 139,72 -14,0 -29,3 -42,-1 -24,-7 -47,-18 -70,-29 -53,-24 -99,-19 -151,12 -54,33 -115,58 -177,73 -70,17 -118,51 -160,111 -51,73 -118,134 -179,199 -5,6 -19,4 -29,5 -3,-4 -6,-8 -9,-12z"/>
  <path class="fil0" d="M20075 17654c47,5 46,34 44,58 -5,61 -10,123 -22,184 -15,74 -36,147 -57,220 -5,15 -23,36 -36,37 -31,3 -36,-27 -32,-48 13,-63 28,-126 48,-187 26,-75 46,-150 43,-231 0,-10 7,-20 11,-33z"/>
  <path class="fil0" d="M12905 15849c-38,-12 -64,-19 -89,-27 -92,-29 -142,-7 -181,82 -20,46 -40,91 -92,128 -5,-23 -14,-39 -10,-51 17,-47 37,-94 59,-139 55,-113 226,-134 306,-37 4,5 3,16 6,43z"/>
  <path class="fil0" d="M11938 18621c-6,-32 -17,-52 -11,-62 26,-40 53,-80 87,-112 42,-40 92,-72 138,-108 9,-7 18,-20 26,-19 17,0 37,4 50,14 5,3 -1,33 -10,42 -35,32 -74,59 -110,90 -35,31 -68,64 -103,96 -18,16 -36,32 -68,59z"/>
  <path class="fil0" d="M8686 18309c32,13 66,18 88,36 75,63 146,131 217,199 8,8 2,30 3,45 -16,0 -36,7 -46,0 -31,-24 -58,-54 -86,-81 -56,-55 -107,-116 -189,-137 -10,-2 -24,-23 -21,-29 6,-13 21,-21 34,-33z"/>
  <path class="fil0" d="M23487 16485c-4,-18 -13,-36 -11,-54 25,-360 51,-721 78,-1088 22,28 14,56 13,81 -8,174 -16,348 -26,522 -3,48 -13,95 -17,142 -9,131 -16,263 -23,394 -5,1 -9,1 -14,2z"/>
  <path class="fil0" d="M24026 15573c0,109 10,219 -2,326 -22,198 -60,394 -86,592 -14,105 -19,212 -42,318 3,-55 1,-110 8,-165 23,-175 47,-351 73,-526 24,-164 40,-329 33,-496 -1,-16 1,-33 2,-49 5,0 10,-1 14,-1z"/>
  <path class="fil0" d="M19960 15628c-22,17 -45,34 -67,51 -42,32 -85,64 -127,96 -31,24 -59,53 -94,71 -57,30 -101,69 -128,128 -12,28 -31,53 -49,79 -16,23 -35,43 -69,37 37,-61 70,-121 108,-178 17,-25 38,-51 64,-64 68,-36 126,-83 180,-137 48,-47 110,-72 170,-97 4,5 7,10 11,15z"/>
  <path class="fil0" d="M22640 16015c-10,32 -37,24 -61,24 -140,2 -273,-32 -406,-68 -27,-7 -54,-14 -81,-22 -24,-7 -50,-14 -45,-50 196,38 392,76 593,115z"/>
  <path class="fil0" d="M22384 14593c-11,134 -10,269 -36,400 -33,167 -47,334 -40,504 2,40 -6,80 -9,124 -16,-9 -25,-11 -25,-14 3,-118 6,-236 11,-354 3,-56 6,-114 19,-168 35,-135 35,-274 42,-411 1,-29 6,-58 10,-87 9,2 18,3 28,5z"/>
  <path class="fil0" d="M23740 11624c-18,2 -26,5 -33,3 -122,-37 -219,15 -309,88 -48,39 -95,78 -144,116 -37,29 -62,63 -73,110 -16,73 -37,146 -61,218 1,-100 18,-197 55,-291 8,-19 27,-35 45,-49 53,-42 105,-85 160,-123 48,-33 99,-63 151,-89 68,-34 135,-21 209,17z"/>
  <path class="fil0" d="M12552 11009c-49,42 -107,52 -163,47 -87,-8 -172,-13 -261,-2 -88,11 -159,-35 -198,-123 22,15 45,29 67,44 54,37 111,49 177,33 34,-8 73,-10 107,-4 73,11 145,21 218,2 16,-4 35,2 53,4z"/>
  <path class="fil0" d="M15008 10437c-47,18 -94,35 -141,53 -103,42 -207,65 -321,47 -73,-12 -149,-2 -230,-2 13,-38 42,-41 68,-41 51,-1 103,-6 151,4 122,26 234,-3 344,-52 41,-18 82,-31 128,-9z"/>
  <path class="fil0" d="M4500 18238c-25,-2 -50,1 -74,-6 -89,-25 -178,-52 -266,-79 -78,-24 -110,-93 -145,-156 -18,-32 -25,-70 -38,-106 6,-3 13,-6 19,-9 11,17 25,32 34,50 14,27 25,56 38,85 27,62 76,94 139,112 99,29 198,61 296,92 -1,5 -2,11 -3,16z"/>
  <path class="fil0" d="M9435 15356c25,-9 50,-18 76,-26 61,-20 122,-38 182,-61 64,-25 103,-16 152,41 -3,4 -7,12 -10,11 -59,-13 -110,-2 -167,26 -60,30 -135,32 -204,44 -8,1 -18,-8 -28,-13 -1,-7 -1,-15 -2,-22z"/>
  <path class="fil0" d="M19104 12493c24,-50 69,-70 118,-82 46,-11 94,-19 141,-19 101,1 202,6 302,13 30,2 60,16 86,31 -100,0 -199,-1 -299,0 -78,1 -157,1 -234,10 -39,5 -76,30 -114,46z"/>
  <path class="fil0" d="M24500 15171c-28,57 -52,104 -91,149 -57,67 -91,154 -137,231 -16,27 -37,52 -55,77 -5,-3 -11,-7 -16,-10 33,-69 62,-139 99,-206 36,-67 77,-131 119,-194 16,-24 36,-50 81,-48z"/>
  <path class="fil0" d="M19117 11104c64,-51 126,-103 191,-152 39,-30 87,-24 130,-12 93,26 187,40 284,29 63,-7 112,26 163,63 -9,1 -20,7 -26,4 -60,-33 -124,-28 -189,-31 -70,-4 -141,-12 -208,-32 -70,-21 -127,-11 -182,31 -27,21 -53,43 -81,61 -25,16 -54,28 -81,41l-2 -3z"/>
  <path class="fil0" d="M19119 11107c-32,16 -64,32 -96,48 -22,11 -52,16 -66,34 -86,105 -210,153 -318,224 -21,13 -47,20 -71,24 -12,2 -27,-11 -42,-17 113,-60 220,-117 327,-175 15,-8 34,-15 41,-28 50,-88 141,-91 224,-112 0,0 2,3 2,3z"/>
  <path class="fil0" d="M2712 10786c-20,9 -38,22 -59,25 -105,13 -189,71 -275,124 -48,30 -97,56 -148,80 -18,9 -42,6 -67,8 86,-56 169,-108 249,-162 89,-60 189,-82 292,-93 2,6 4,11 7,17z"/>
  <path class="fil0" d="M23279 15330c-2,-8 -6,-16 -6,-23 26,-285 49,-571 44,-858 0,-1 4,-2 14,-7 4,19 10,36 10,53 1,214 -1,428 -33,641 -6,39 -3,79 -6,118 -2,26 -7,52 -10,78 -4,-1 -9,-1 -13,-2z"/>
  <path class="fil0" d="M23826 14400c29,-12 38,12 43,33 10,41 21,82 25,124 16,200 61,394 114,586 3,9 0,20 -11,33 -7,-13 -17,-25 -19,-39 -34,-168 -68,-336 -102,-503 -15,-76 -32,-151 -50,-234z"/>
  <path class="fil0" d="M12994 15879c106,44 170,138 242,221 16,18 20,47 20,77 -64,-30 -99,-87 -143,-134 -45,-48 -92,-95 -138,-142 6,-7 13,-14 19,-21z"/>
  <path class="fil0" d="M22319 12325c100,13 200,24 299,40 100,16 158,92 216,164 13,16 7,48 1,76 -51,-139 -157,-192 -290,-216 -76,-14 -150,-42 -225,-64l-1 1z"/>
  <path class="fil0" d="M13932 16740c13,19 32,37 37,58 17,73 1,145 -21,215 -3,10 -25,19 -39,20 -7,0 -23,-19 -22,-29 7,-85 16,-171 25,-256 7,-3 14,-6 21,-9z"/>
  <path class="fil0" d="M9948 16219c-87,-44 -155,-96 -184,-190 -10,-33 -22,-64 15,-89 8,7 20,12 20,17 1,76 58,110 107,151 22,19 38,47 54,72 4,6 -6,20 -12,38z"/>
  <path class="fil0" d="M910 10868c-189,-107 -400,-93 -619,-108 63,-33 63,-33 221,-17 70,7 141,6 208,24 68,18 131,54 196,83 -2,6 -4,13 -6,19z"/>
  <path class="fil0" d="M10557 16466c-157,18 -297,-35 -454,-58 17,-16 25,-31 37,-34 15,-4 33,-1 50,2 97,16 194,33 290,50 26,5 56,4 77,39z"/>
  <path class="fil0" d="M3378 15815c9,6 20,11 25,19 94,142 139,295 97,465 -11,43 -27,82 -88,71 70,-83 81,-179 67,-279 -13,-99 -59,-185 -116,-266 5,-3 9,-6 14,-10z"/>
  <path class="fil0" d="M23782 14427c-79,83 -201,113 -273,63 10,-42 47,-42 78,-48 33,-6 67,-5 99,-11 31,-6 60,-16 90,-25 2,7 3,14 5,20z"/>
  <path class="fil0" d="M12420 16533c-4,-20 -8,-41 -11,-61 -8,-64 -12,-128 -23,-191 -6,-34 -9,-60 30,-72 55,85 64,246 3,324z"/>
  <path class="fil0" d="M18448 12118c161,-50 325,-94 496,-32 69,25 86,34 112,85 -38,-20 -73,-41 -111,-57 -60,-27 -122,-37 -189,-28 -103,13 -206,21 -309,32z"/>
  <path class="fil0" d="M12499 16435c101,-34 247,31 281,120 -7,3 -17,10 -22,8 -82,-33 -163,-67 -245,-102 -6,-2 -8,-13 -15,-27z"/>
  <path class="fil0" d="M16095 14074c146,37 294,49 444,34 -153,62 -302,58 -444,-34z"/>
  <path class="fil0" d="M19783 14927c-167,19 -317,63 -478,22 1,-25 27,-36 49,-30 125,37 246,-14 369,-12 14,0 27,1 41,2 2,0 4,4 19,18z"/>
  <path class="fil0" d="M3751 17509c40,42 57,90 38,144 -23,63 -46,126 -73,188 -6,15 -26,25 -52,29 14,-43 21,-90 43,-128 41,-73 69,-146 43,-233z"/>
  <path class="fil0" d="M5921 11608c-116,-118 -252,-154 -417,-123 11,-11 21,-31 34,-33 107,-19 307,2 383,156z"/>
  <path class="fil0" d="M20925 14796c56,-22 107,-33 158,7 21,16 51,20 77,29 47,16 71,47 71,93 -51,-25 -100,-52 -151,-73 -50,-21 -103,-36 -155,-54z"/>
  <path class="fil0" d="M13782 16519c-68,-56 -106,-115 -126,-193 82,9 147,103 126,193z"/>
  <path class="fil0" d="M6313 17101c114,27 228,54 343,81 -2,7 -4,15 -5,22 -121,2 -231,-41 -343,-79 2,-8 4,-16 6,-24z"/>
  <path class="fil0" d="M13350 16547c11,59 -9,196 -31,226 -50,-73 -41,-161 31,-226z"/>
  <path class="fil0" d="M9655 14270c83,119 216,171 335,242 -3,5 -5,10 -8,14 -13,-4 -28,-7 -40,-13 -59,-33 -118,-65 -175,-101 -53,-33 -100,-73 -119,-137 2,-2 4,-4 6,-6z"/>
  <path class="fil0" d="M11299 13784c-49,39 -110,69 -145,119 -35,49 -43,117 -67,192 -12,-171 57,-272 212,-310z"/>
  <path class="fil0" d="M13683 15035c25,0 51,-3 76,0 92,11 184,23 276,35 15,2 31,7 44,19 -135,3 -270,6 -396,-55l0 0z"/>
  <path class="fil0" d="M11386 14795c-55,107 -148,171 -274,223 26,-49 62,-61 92,-81 32,-22 63,-46 92,-73 27,-26 49,-56 74,-85 5,5 11,11 16,16z"/>
  <path class="fil0" d="M10937 16073c-21,69 -85,91 -185,70 23,-48 23,-48 185,-70z"/>
  <path class="fil0" d="M14285 19178c100,-65 202,-52 306,-12 -102,2 -205,-29 -306,12z"/>
  <path class="fil0" d="M17501 14511c-128,-6 -257,29 -395,-22 140,0 268,0 396,0 0,7 0,15 0,22z"/>
  <path class="fil0" d="M13086 16744c46,32 93,65 150,105 -73,35 -106,-15 -145,-37 -21,-12 -37,-35 -5,-68z"/>
  <path class="fil0" d="M17531 12700c-92,49 -184,99 -274,147 21,-56 118,-116 263,-163 4,5 7,11 10,16z"/>
  <path class="fil0" d="M1333 11018c-107,-11 -204,-55 -302,-95 2,-7 4,-13 6,-20 100,32 201,64 301,97 -2,6 -4,12 -6,18z"/>
  <path class="fil0" d="M15737 18371c-86,-30 -117,-76 -105,-148 50,36 82,79 105,148z"/>
  <path class="fil0" d="M14868 18930c-95,0 -193,0 -291,0 0,-5 0,-10 -1,-15 71,-8 143,-18 214,-22 39,-2 45,5 78,37z"/>
  <path class="fil0" d="M12854 18644c-70,15 -145,31 -214,46 37,-69 151,-94 214,-46z"/>
  <path class="fil0" d="M12471 18575c-86,-11 -172,-16 -253,-50 1,-6 2,-12 3,-18 85,16 170,32 255,47 -2,7 -3,14 -5,21z"/>
  <path class="fil0" d="M11346 18435c91,-8 153,60 224,102 -76,-28 -152,-55 -228,-83 1,-6 2,-13 3,-19z"/>
  <path class="fil0" d="M20033 11936c83,-87 211,-122 303,-84l1 -1c-81,-2 -154,27 -226,58 -25,11 -52,17 -79,26l0 1z"/>
  <path class="fil0" d="M7929 15209c67,-108 132,-149 204,-141 -61,42 -128,88 -204,141z"/>
  <path class="fil0" d="M11732 18740c-72,-34 -144,-67 -213,-99 36,-34 92,-13 213,99z"/>
  <path class="fil0" d="M6791 17172c95,6 163,66 230,126 -50,2 -74,-46 -116,-61 -41,-14 -81,-32 -121,-48 2,-6 5,-12 7,-17z"/>
  <path class="fil0" d="M12841 16405c-16,-61 -12,-113 29,-162 34,61 25,108 -29,162z"/>
  <path class="fil0" d="M15622 18508c68,3 134,-36 203,-7 0,6 1,12 1,18 -68,6 -136,11 -204,17 0,-10 0,-19 0,-29z"/>
  <path class="fil0" d="M8481 16552c-6,-90 21,-163 118,-194 -25,29 -55,55 -74,87 -20,33 -29,71 -44,107z"/>
  <path class="fil0" d="M15726 14006c108,-27 168,51 249,56 -2,6 -3,12 -5,18 -76,-23 -151,-46 -244,-74z"/>
  <path class="fil0" d="M17272 14965c64,8 127,15 208,25 -24,15 -33,26 -44,28 -43,7 -107,-9 -164,-53z"/>
  <path class="fil0" d="M10103 17553c75,-35 142,-66 208,-97 -37,66 -111,103 -208,97z"/>
  <path class="fil0" d="M16633 14623c78,-9 146,-16 224,-25 -75,51 -149,59 -224,25z"/>
  <path class="fil0" d="M9591 17196c-11,-89 8,-168 61,-257 -23,98 -42,177 -61,257z"/>
  <path class="fil0" d="M7420 15647c79,6 151,11 225,16 -63,37 -146,32 -225,-16z"/>
  <path class="fil0" d="M22320 12324c-85,6 -171,12 -256,18 84,-30 168,-62 255,-17 0,0 1,-1 1,-1z"/>
  <path class="fil0" d="M24723 15017c-37,36 -73,71 -115,112 0,-68 14,-79 116,-111l-1 -1z"/>
  <path class="fil0" d="M20336 11852c67,2 126,23 179,60 -3,7 -6,15 -10,22 -56,-28 -112,-56 -168,-83 0,0 -1,1 -1,1z"/>
  <path class="fil0" d="M8434 13985c69,12 129,42 181,88 -67,-16 -128,-43 -181,-89l-1 1z"/>
  <path class="fil0" d="M14659 18607c-39,-5 -77,-10 -116,-15 1,-6 1,-13 2,-19 39,2 78,4 117,6 -1,9 -2,18 -3,28z"/>
  <path class="fil0" d="M14283 13940c-44,-9 -88,-19 -132,-28 1,-6 2,-12 3,-18 44,7 89,13 133,20 -1,9 -3,17 -4,26z"/>
  <path class="fil0" d="M12564 14854c-20,54 -55,78 -112,55 37,-18 75,-37 112,-55z"/>
  <path class="fil0" d="M13388 18674c-10,-31 3,-44 74,-47 -28,17 -56,35 -74,47z"/>
  <path class="fil0" d="M16226 14922c-42,32 -69,53 -98,75 12,-64 12,-64 98,-75z"/>
  <path class="fil0" d="M24994 14943c-38,11 -76,21 -118,33 33,-41 35,-42 118,-33z"/>
  <path class="fil0" d="M17857 21408c-21,11 -36,25 -46,23 -10,-3 -20,-21 -23,-34 -1,-5 20,-21 28,-20 12,2 22,16 41,31z"/>
  <path class="fil0" d="M12526 18891c-40,0 -74,0 -118,0 55,-36 55,-36 118,0z"/>
  <path class="fil0" d="M19139 15006c56,16 50,62 53,103 -18,-34 -35,-69 -53,-103z"/>
  <path class="fil0" d="M18712 15401c-14,51 -56,59 -91,79 -4,-6 -8,-13 -12,-19 34,-20 69,-40 103,-60z"/>
  <path class="fil0" d="M15632 18665c31,-6 63,-13 94,-19 1,6 3,13 4,19 -30,17 -61,32 -98,21 0,-7 -1,-14 -1,-21z"/>
  <path class="fil0" d="M15185 10431c-30,43 -58,52 -106,32 33,-28 62,-30 106,-32z"/>
  <path class="fil0" d="M4877 18285c-47,-6 -93,-11 -140,-17 51,-22 97,-14 139,18l1 -1z"/>
  <path class="fil0" d="M18392 12152c-36,14 -72,27 -109,41 -2,-5 -4,-11 -6,-16 36,-14 72,-29 108,-43 2,6 5,12 7,18z"/>
  <path class="fil0" d="M7345 15248c-52,13 -88,22 -124,31 29,-36 63,-52 124,-31z"/>
  <path class="fil0" d="M7362 17294c40,-21 68,-36 103,-55 -29,45 -29,45 -103,55z"/>
  <path class="fil0" d="M17229 15056c-4,33 -7,65 -11,98 -2,0 -4,0 -7,0 0,-33 0,-66 0,-99 6,1 12,1 17,2z"/>
  <path class="fil0" d="M11724 18996c-28,2 -56,4 -84,6 24,-36 52,-41 83,-29 0,8 0,15 1,23z"/>
  <path class="fil0" d="M7987 13797c28,7 56,13 83,20 -1,5 -2,11 -2,16 -29,-3 -58,-6 -87,-9 2,-9 4,-18 6,-27z"/>
  <path class="fil0" d="M9815 17279c15,-29 31,-57 52,-96 7,53 -16,79 -52,96z"/>
  <path class="fil0" d="M18857 15158c-3,25 -7,51 -10,76 -7,0 -14,-1 -21,-1 2,-26 4,-52 6,-78 8,1 16,2 25,3z"/>
  <path class="fil0" d="M13476 14649c0,38 0,76 0,115 -3,0 -6,0 -9,0 0,-37 0,-74 0,-112 3,-1 6,-2 9,-3z"/>
  <path class="fil0" d="M13843 18674c28,-3 56,-5 84,-8 1,6 1,12 2,18 -29,3 -58,6 -86,10 0,-7 0,-14 0,-20z"/>
  <path class="fil0" d="M10324 13827c11,20 22,40 33,60 -23,-13 -65,-12 -33,-60z"/>
  <path class="fil0" d="M15936 14786c-2,23 -5,46 -7,68 -6,0 -12,-1 -19,-1 2,-22 3,-45 5,-67 7,0 14,0 21,0z"/>
  <path class="fil0" d="M13501 15199c26,27 53,54 79,81 -5,5 -9,9 -14,14 -36,-18 -57,-50 -74,-87 3,-3 6,-5 9,-8z"/>
  <path class="fil0" d="M1998 11108c-26,8 -51,17 -77,25 -2,-6 -4,-13 -6,-19 26,-8 52,-15 78,-23 2,6 4,12 6,18z"/>
  <path class="fil0" d="M24724 15018c20,-15 40,-31 61,-46 -2,48 -31,47 -62,45l1 1z"/>
  <path class="fil0" d="M13525 18875c25,6 49,12 74,18 -1,6 -3,13 -4,19 -25,-5 -50,-11 -75,-16 1,-7 3,-14 4,-21z"/>
  <path class="fil0" d="M23854 17769c0,26 0,50 0,75 -2,0 -5,0 -7,0 0,-21 0,-42 0,-63 0,-5 3,-10 5,-15 1,2 2,3 3,4z"/>
  <path class="fil0" d="M15725 14137c-9,20 -18,40 -31,67 -6,-42 -6,-42 31,-67z"/>
  <path class="fil0" d="M16527 14421c-6,-26 -13,-52 -19,-78 7,-2 14,-3 21,-5 6,26 12,52 18,78 -7,2 -14,3 -21,5z"/>
  <path class="fil0" d="M14220 18939c-15,-10 -30,-20 -45,-30 2,-3 4,-7 6,-10 17,8 33,16 50,24 -4,6 -7,11 -11,17z"/>
  <path class="fil0" d="M10531 15903c-11,-11 -24,-21 -22,-25 4,-10 14,-17 22,-26 7,7 18,14 18,22 1,8 -10,16 -18,29z"/>
  <path class="fil0" d="M8435 13984c-27,-7 -54,-14 -81,-22 2,-6 5,-12 7,-19 24,14 49,27 73,41 0,0 1,-1 1,-1z"/>
  <path class="fil0" d="M23985 11794c38,28 33,53 10,81 -3,-23 -6,-46 -10,-81z"/>
  <path class="fil0" d="M19270 15418c-7,-20 -13,-40 -20,-60 5,-2 10,-3 15,-5 7,19 13,38 19,57 -5,3 -10,5 -15,8z"/>
  <path class="fil0" d="M12439 13951c16,-18 32,-36 48,-54 8,39 -12,54 -48,54z"/>
  <path class="fil0" d="M9719 16696c-7,22 -13,42 -19,62 -5,-1 -10,-3 -14,-4 6,-19 11,-38 18,-57 1,-1 8,-1 16,-1z"/>
  <path class="fil0" d="M19551 15229c18,9 37,18 55,26 -2,4 -4,9 -6,13 -18,-9 -37,-18 -55,-27 2,-4 4,-8 6,-12z"/>
  <path class="fil0" d="M10706 14058c-18,-12 -37,-24 -55,-37 3,-5 6,-10 8,-14 19,11 38,21 56,32 -3,6 -7,13 -10,19z"/>
  <path class="fil0" d="M4659 18247c-23,0 -46,0 -69,0 0,-3 0,-6 0,-8 23,0 46,0 69,0 0,3 0,6 0,8z"/>
  <path class="fil0" d="M9649 14276c-18,-20 -37,-40 -55,-60 4,-4 9,-8 13,-12 16,22 33,44 49,65 -2,2 -4,4 -6,6z"/>
  <path class="fil0" d="M16412 14252c13,16 25,32 38,47 -4,3 -7,7 -11,10 -14,-15 -28,-30 -41,-45 5,-4 10,-8 14,-12z"/>
  <path class="fil0" d="M17076 15254c-12,17 -25,34 -37,51 -4,-2 -8,-5 -12,-7 11,-18 21,-37 32,-55 6,4 11,8 17,12z"/>
  <path class="fil0" d="M14533 15256c-17,-6 -34,-12 -52,-17 0,-4 0,-7 1,-11 11,-1 22,-3 32,-1 10,2 19,10 28,15 -3,5 -6,10 -9,14z"/>
  <path class="fil0" d="M23913 14577c2,-13 4,-26 7,-39 0,-1 10,1 15,1 -2,13 -4,26 -6,40 -5,-1 -11,-2 -16,-2z"/>
  <path class="fil0" d="M20033 11935c-20,13 -39,26 -59,39 -3,-6 -6,-12 -8,-18 23,-7 45,-13 68,-20l0 -1z"/>
  <path class="fil0" d="M15734 19230c-20,0 -41,0 -61,0 0,-2 0,-5 0,-7 20,0 41,0 61,0 0,2 0,5 0,7z"/>
  <path class="fil0" d="M18971 12586c13,-10 25,-20 38,-30 3,3 5,6 8,9 -11,12 -22,23 -33,35 -4,-5 -9,-9 -13,-14z"/>
  <path class="fil0" d="M14907 13882c16,-6 31,-11 47,-16 2,6 5,11 7,17 -15,7 -31,13 -46,20 -3,-7 -5,-13 -8,-20z"/>
  <path class="fil0" d="M13683 15034c-27,0 -55,0 -82,0 1,-6 1,-12 2,-17 27,6 53,12 80,18l0 0z"/>
  <path class="fil0" d="M13070 18690c-13,-4 -26,-8 -39,-12 1,-4 2,-9 4,-13 13,4 27,7 40,11 -1,5 -3,10 -4,14z"/>
  <path class="fil0" d="M13449 18874c-18,0 -37,0 -55,0 0,-3 0,-7 0,-10 18,0 37,0 55,0 0,3 0,7 0,10z"/>
  <path class="fil0" d="M13027 18913c16,5 32,9 47,14 -1,5 -3,11 -4,16 -10,-1 -20,-1 -29,-4 -7,-3 -12,-11 -18,-16 1,-3 3,-7 4,-10z"/>
  <path class="fil0" d="M23878 11699c-12,-7 -23,-14 -35,-20 2,-3 4,-7 5,-10 12,7 24,13 35,20 -2,4 -4,7 -6,11z"/>
  <path class="fil0" d="M21919 12394c-10,7 -20,15 -30,22 -4,-5 -9,-9 -13,-14 9,-9 18,-18 28,-28 5,6 10,13 15,19z"/>
  <path class="fil0" d="M23882 17580c0,-14 0,-28 0,-42 2,0 4,0 7,0 0,14 0,28 0,42 -2,0 -4,0 -7,0z"/>
  <path class="fil0" d="M9956 16452c16,12 25,19 34,26 -9,0 -18,0 -27,-1 -2,0 -2,-9 -6,-25z"/>
  <path class="fil0" d="M9631 17790c-3,-12 -5,-24 -8,-36 4,-1 8,-2 12,-3 3,12 6,24 9,36 -4,1 -9,2 -13,3z"/>
  <path class="fil0" d="M16662 14085c-5,5 -11,12 -18,14 -3,1 -9,-8 -13,-13 7,-5 13,-10 20,-13 1,-1 6,6 11,12z"/>
  <path class="fil0" d="M4876 18287c21,3 41,7 62,10 -2,6 -5,12 -7,18 -18,-10 -36,-20 -54,-30l-1 1z"/>
  <path class="fil0" d="M2779 10765c12,0 24,0 35,0 0,4 1,7 1,11 -12,2 -24,4 -37,5 0,-5 0,-11 0,-16z"/>
  <path class="fil0" d="M15782 14808c1,16 2,31 3,47 -4,1 -7,3 -11,4 -3,-7 -8,-14 -8,-22 -1,-10 2,-21 3,-31 5,1 9,1 14,2z"/>
  <path class="fil0" d="M12255 19097c-5,-4 -11,-8 -16,-12 5,-4 12,-12 16,-10 6,2 11,10 16,15 -4,2 -9,4 -15,8z"/>
  <path class="fil0" d="M720 12882c-13,7 -26,14 -40,22 -3,-4 -6,-8 -9,-13 12,-9 24,-18 35,-27 4,6 9,12 13,18z"/>
  <path class="fil0" d="M21207 12733c5,15 10,31 14,46 -4,1 -9,3 -13,4 -5,-16 -9,-31 -14,-46 4,-1 9,-3 13,-4z"/>
  <path class="fil0" d="M14830 23403c-6,4 -12,8 -19,10 -2,1 -7,-6 -10,-9 6,-4 11,-9 18,-13 1,-1 6,6 11,11z"/>
  <path class="fil1" d="M9142 17490c-126,6 -238,11 -359,17 -8,-39 -21,-73 -22,-108 -3,-152 -2,-304 -2,-456 0,-194 3,-389 1,-583 -3,-254 5,-506 26,-759 12,-137 5,-276 7,-414 1,-73 6,-146 7,-220 1,-36 -2,-73 -6,-109 -4,-36 8,-51 45,-54 91,-8 182,-19 279,-30 6,61 16,125 18,188 7,259 14,517 15,776 1,208 -4,416 -12,624 -12,323 -23,647 -13,971 1,47 9,94 15,157z"/>
  <path class="fil1" d="M17730 14866c31,-10 62,-29 93,-29 103,0 206,7 319,12 -7,189 -16,365 -20,542 -2,104 8,208 8,312 0,132 -5,265 -8,397 -2,124 -4,248 -7,372 -3,104 -10,208 -10,312 0,118 8,236 7,354 -1,87 -11,174 -17,261 -1,17 -8,38 -1,49 33,49 12,90 -16,141 -116,-12 -235,-25 -360,-39 0,-107 -5,-205 1,-303 17,-292 41,-585 56,-877 9,-166 8,-332 10,-499 1,-130 0,-259 -3,-389 -2,-82 -15,-163 -13,-244 3,-101 14,-202 24,-303 6,-62 3,-68 -66,-70 0,0 1,1 1,1z"/>
  <path class="fil1" d="M5549 14249c3,-152 6,-303 9,-455 1,-48 0,-95 4,-143 18,380 36,761 54,1141 -45,7 -57,-17 -61,-47 -5,-45 -10,-90 -10,-135l4 -361z"/>
  <path class="fil1" d="M8986 12617c0,-25 -4,-58 41,-67 0,177 0,347 0,517 -6,1 -13,2 -19,2 -4,-13 -12,-26 -13,-40l-9 -413z"/>
  <path class="fil1" d="M975 12990c-6,-48 -11,-83 -17,-130 31,4 59,8 88,12 4,57 -27,85 -71,118z"/>
  <path class="fil1" d="M17968 13333c-28,-121 -7,-151 73,-150 -25,51 -48,99 -73,150z"/>
  <path class="fil1" d="M1406 13122c6,0 11,1 17,0 92,-24 113,-56 93,-158 51,73 -15,134 22,211 -56,-23 -93,-38 -131,-54l-1 1z"/>
  <path class="fil1" d="M8896 13233c50,-32 82,-51 119,-74 4,17 11,42 19,74l-138 0z"/>
  <path class="fil1" d="M12525 13259c27,-36 55,-73 85,-112 32,81 12,105 -85,112z"/>
  <path class="fil1" d="M3596 13141c-36,-24 -45,-66 -28,-95 17,-29 39,-24 72,-5 -48,19 -54,55 -44,100z"/>
  <path class="fil1" d="M14347 13276c-16,-116 -4,-139 72,-125 -24,41 -47,81 -72,125z"/>
  <path class="fil1" d="M2955 14767c-56,23 -80,18 -135,-22l135 22z"/>
  <path class="fil1" d="M1307 13088c27,-23 47,-40 77,-66 9,43 16,71 22,100l1 -1 -99 -32z"/>
  <path class="fil1" d="M13397 13143c-23,22 -47,46 -73,71 -24,-5 -27,-21 -14,-42 26,-41 43,-46 87,-30z"/>
  <path class="fil1" d="M22519 13309c-9,10 -17,21 -34,41 -18,-53 -2,-90 16,-125 13,-25 35,-16 65,26 -20,0 -39,0 -59,0 4,19 8,38 12,58z"/>
  <path class="fil1" d="M3106 13158c-22,2 -44,3 -65,5 -10,-38 3,-58 28,-58 15,0 29,23 44,35 -2,6 -5,12 -7,18z"/>
  <path class="fil1" d="M20561 13202c80,-4 80,-4 60,65 -19,-20 -34,-37 -60,-65z"/>
  <path class="fil1" d="M7604 13216c16,-27 29,-49 44,-73 37,47 31,57 -44,73z"/>
  <path class="fil1" d="M20683 13260c31,36 27,61 9,94 -41,-26 -31,-53 -9,-94z"/>
  <path class="fil1" d="M1701 13078c8,27 13,44 20,68 -26,2 -47,4 -85,8 26,-30 42,-49 65,-75z"/>
  <path class="fil1" d="M18188 13222c25,44 5,68 -28,95 -8,-39 -8,-69 28,-95z"/>
  <path class="fil1" d="M13278 13241c-18,21 -32,36 -46,52 -7,-10 -21,-22 -19,-30 6,-26 22,-42 65,-22z"/>
  <path class="fil1" d="M16228 13194c-42,20 -69,33 -97,46 0,-59 0,-59 97,-46z"/>
  <path class="fil1" d="M14474 13137c30,12 47,19 74,30 -16,19 -28,33 -51,60 -9,-37 -15,-57 -23,-89z"/>
  <path class="fil1" d="M15301 13281c-6,-48 -1,-75 56,-79 -21,29 -35,50 -56,79z"/>
  <path class="fil1" d="M4917 13093c6,21 12,42 18,62 -6,5 -11,10 -15,10 -8,0 -21,-4 -22,-6 0,-22 2,-43 3,-65 5,0 10,-1 15,-1z"/>
  <path class="fil1" d="M2059 13072c30,25 47,39 69,57 -63,12 -63,12 -69,-57z"/>
  <path class="fil1" d="M5868 13093c15,18 29,28 32,41 2,8 -13,20 -20,30 -11,-10 -26,-18 -30,-30 -3,-8 9,-22 18,-41z"/>
  <path class="fil1" d="M2186 13107c-15,-16 -29,-26 -34,-39 -2,-5 17,-27 22,-25 14,4 28,15 35,27 3,5 -12,20 -23,38z"/>
  <path class="fil1" d="M9141 14261c0,52 0,104 0,156 -2,0 -5,0 -7,0 0,-51 0,-102 0,-154 2,-1 5,-2 7,-3z"/>
  <path class="fil1" d="M6942 13143c-8,25 -14,47 -22,71 -40,-46 -38,-53 22,-71z"/>
  <path class="fil1" d="M8516 13166c-10,18 -19,37 -39,75 -15,-20 -24,-32 -39,-51 28,-15 47,-24 65,-34 4,3 8,6 13,10z"/>
  <path class="fil1" d="M15115 13708c0,47 0,94 0,142 -3,0 -5,0 -8,0 -3,-47 -5,-94 -8,-141 5,0 11,0 16,-1z"/>
  <path class="fil0" d="M22519 13309c-4,-19 -8,-38 -12,-58 20,0 39,0 59,0 -16,19 -31,38 -47,58z"/>
  <path class="fil1" d="M18072 13334c-36,-33 -33,-54 0,-81 0,29 0,50 0,81z"/>
  <path class="fil1" d="M16885 13259c7,-17 15,-35 24,-51 1,-1 25,9 25,10 -5,18 -12,35 -19,52 -10,-4 -20,-8 -30,-12z"/>
  <path class="fil1" d="M12840 13118c-10,18 -18,33 -28,52 -26,-52 -26,-52 28,-52z"/>
  <path class="fil1" d="M7761 13197c-1,-37 12,-52 55,-41 -25,18 -40,30 -55,41z"/>
  <path class="fil1" d="M7394 13197c6,-22 11,-44 18,-70 38,34 -3,50 2,74 -6,-1 -13,-3 -19,-4z"/>
  <path class="fil1" d="M21968 13328c2,-30 3,-50 5,-82 20,43 20,43 -5,82z"/>
  <path class="fil1" d="M7597 13138c-7,13 -14,25 -25,47 -11,-17 -17,-27 -24,-37 13,-8 26,-15 39,-23 4,4 7,8 11,12z"/>
  <path class="fil1" d="M8202 13137c1,12 5,26 1,36 -3,7 -16,11 -32,20 -2,-16 -6,-27 -4,-35 3,-9 12,-17 18,-25 5,1 11,3 16,4z"/>
  <path class="fil1" d="M12851 13236c16,-33 26,-52 40,-80 10,47 10,47 -40,80z"/>
  <path class="fil1" d="M17237 13218c-9,15 -18,30 -30,50 -14,-40 -14,-40 30,-50z"/>
  <path class="fil1" d="M18518 13255c-5,23 -10,47 -15,71 -7,-1 -13,-3 -20,-4 5,-24 9,-47 14,-71 7,1 14,3 20,4z"/>
  <path class="fil1" d="M2817 13055c35,38 35,38 25,90 -10,-35 -16,-56 -25,-90z"/>
  <path class="fil1" d="M2754 13138c-2,-28 -3,-45 -4,-62 9,0 17,-2 18,0 14,18 23,36 -14,62z"/>
  <path class="fil1" d="M17748 13221c2,17 3,34 5,51 -5,2 -10,3 -15,5 -6,-10 -15,-19 -16,-29 -1,-9 8,-18 12,-28 5,0 9,1 14,1z"/>
  <path class="fil1" d="M2298 13080c13,-6 26,-13 38,-19 3,7 9,19 8,20 -11,8 -24,14 -37,21 -3,-7 -7,-14 -10,-21z"/>
  <path class="fil1" d="M4608 13075c-14,4 -28,8 -43,12 -2,-8 -6,-21 -5,-22 14,-5 28,-8 42,-11 2,7 4,14 5,21z"/>
  <path class="fil1" d="M21267 13250c-12,-13 -22,-20 -23,-28 -1,-7 9,-15 14,-23 8,6 20,10 22,17 2,7 -6,17 -12,34z"/>
  <path class="fil1" d="M20460 13261c-5,-16 -11,-33 -19,-57 47,7 42,29 38,51 -6,2 -12,4 -19,6z"/>
  <path class="fil1" d="M1060 13012c37,-43 52,-27 71,11 -26,-4 -44,-7 -71,-11z"/>
  <path class="fil1" d="M20112 13276c-4,18 -7,37 -11,55 -4,-1 -9,-1 -13,-2 1,-18 2,-36 3,-54 7,1 15,1 22,1z"/>
  <path class="fil1" d="M12755 13171c2,20 6,30 4,39 -2,10 -9,20 -13,29 -6,-3 -12,-6 -17,-9 -1,-11 -5,-23 -2,-33 3,-8 14,-13 29,-26z"/>
  <path class="fil1" d="M20211 13280c0,19 0,38 0,57 -5,0 -10,0 -15,0 0,-19 0,-38 0,-57 5,0 10,0 15,0z"/>
  <path class="fil1" d="M14601 13220c-7,-21 -13,-32 -13,-44 0,-4 19,-14 24,-11 7,3 13,17 13,25 -1,8 -11,15 -24,29z"/>
  <path class="fil1" d="M9340 13201c12,-13 24,-25 36,-38 5,4 11,8 16,12 -10,15 -20,30 -30,44 -7,-6 -14,-12 -22,-19z"/>
  <path class="fil1" d="M21069 13301c7,-12 14,-24 22,-35 1,-1 18,8 18,9 -5,14 -12,27 -18,40 -7,-5 -14,-10 -22,-14z"/>
  <path class="fil1" d="M9262 13189c-9,15 -17,29 -30,51 -23,-40 2,-49 16,-63 5,4 9,8 14,11z"/>
  <path class="fil1" d="M9106 13215c10,-16 19,-33 29,-49 4,2 9,4 13,7 -8,17 -16,34 -24,51 -6,-3 -12,-5 -18,-8z"/>
  <path class="fil1" d="M22603 13216c19,-1 37,-2 56,-4 1,5 1,10 2,16 -19,2 -37,4 -56,6 -1,-6 -1,-12 -2,-18z"/>
  <path class="fil1" d="M8013 13203c-21,-47 -1,-55 44,-64 -18,27 -28,41 -44,64z"/>
  <path class="fil1" d="M6823 13217c-7,-35 -12,-58 -18,-86 29,29 29,29 18,86z"/>
  <path class="fil1" d="M20811 13268c-3,19 -6,38 -8,57 -6,-1 -13,-2 -19,-3 3,-19 6,-38 9,-57 6,1 12,2 19,3z"/>
  <path class="fil1" d="M19534 13267c-5,16 -10,31 -18,54 -31,-35 -13,-46 -3,-61 7,2 14,4 21,7z"/>
  <path class="fil1" d="M13980 13133c-8,6 -15,15 -24,17 -8,2 -18,-4 -30,-20 16,-6 31,-11 47,-17 2,7 5,14 7,21z"/>
  <path class="fil1" d="M1339 12983c-15,12 -22,21 -30,22 -7,1 -16,-8 -24,-13 6,-8 11,-20 19,-22 7,-2 17,6 35,13z"/>
  <path class="fil1" d="M12699 13138c-15,12 -22,19 -30,25 -6,-8 -14,-15 -17,-23 -1,-2 9,-14 15,-14 8,0 17,6 33,12z"/>
  <path class="fil1" d="M4064 13064c-12,3 -24,6 -36,9 -2,-3 -4,-7 -6,-10 6,-6 11,-15 18,-17 7,-2 15,2 23,4 1,5 1,10 2,15z"/>
  <path class="fil1" d="M4317 13066c-12,3 -25,7 -37,10 -1,-7 -5,-21 -3,-21 11,-4 24,-6 36,-9 1,7 3,13 4,20z"/>
  <path class="fil1" d="M7934 13154c0,16 0,31 -1,47 0,1 -14,3 -15,2 -5,-15 -9,-30 -13,-45 10,-1 19,-3 29,-4z"/>
  <path class="fil1" d="M14428 13283c-7,-17 -13,-25 -12,-32 2,-10 8,-19 13,-28 7,5 21,10 21,15 0,9 -8,18 -22,45z"/>
  <path class="fil1" d="M3133 13025c-12,10 -24,20 -35,30 -5,-6 -10,-12 -15,-18 13,-9 26,-18 40,-26 4,5 7,9 11,14z"/>
  <path class="fil1" d="M21844 13285c-11,14 -22,28 -34,42 -4,-3 -8,-6 -12,-9 10,-15 19,-31 29,-46 6,4 12,8 17,12z"/>
  <path class="fil1" d="M8606 13129c-13,5 -26,10 -42,16 9,-28 9,-28 42,-16z"/>
  <path class="fil1" d="M3792 13077c-5,15 -10,31 -16,46 -7,-3 -13,-5 -20,-8 6,-15 12,-30 18,-45 6,2 12,4 18,7z"/>
  <path class="fil1" d="M20364 13258c-5,-13 -11,-27 -16,-40 7,-2 21,-8 21,-7 6,13 11,26 16,40 -7,2 -14,5 -20,7z"/>
  <path class="fil1" d="M20257 13255c-1,-13 -3,-27 -4,-40 0,-1 13,-3 14,-2 5,12 8,25 12,37 -7,2 -15,4 -22,6z"/>
  <path class="fil1" d="M16692 13234c-10,13 -20,27 -30,40 -5,-3 -9,-5 -14,-8 8,-15 15,-30 23,-45 7,4 14,9 21,13z"/>
  <path class="fil1" d="M3447 13124c14,-4 29,-7 43,-11 2,5 3,9 5,14 -13,6 -27,12 -40,17 -2,-7 -5,-13 -7,-20z"/>
  <path class="fil1" d="M4692 13185c-8,-5 -14,-10 -20,-14 7,-7 14,-15 20,-22 5,5 15,11 15,16 0,6 -9,12 -15,20z"/>
  <path class="fil1" d="M6067 13151c11,-12 23,-24 34,-37 5,4 10,8 15,12 -10,13 -21,27 -31,40 -6,-5 -12,-10 -17,-15z"/>
  <path class="fil1" d="M21354 13289c-15,8 -23,12 -31,16 -3,-9 -9,-18 -8,-27 0,-5 13,-14 16,-12 8,3 13,12 23,23z"/>
  <path class="fil1" d="M13085 13199c-10,14 -19,28 -29,42 -5,-3 -10,-6 -15,-9 9,-15 18,-29 27,-44 6,4 11,8 17,12z"/>
  <path class="fil1" d="M19430 13279c-6,15 -12,30 -18,45 -5,-2 -10,-3 -15,-5 4,-15 9,-31 13,-46 6,2 12,4 19,6z"/>
  <path class="fil1" d="M17057 13158c8,6 14,10 19,14 -6,7 -12,15 -19,23 -5,-5 -13,-11 -14,-16 0,-6 7,-12 13,-20z"/>
  <path class="fil1" d="M20916 13280c5,16 10,25 10,34 0,4 -11,7 -16,11 -3,-7 -9,-14 -9,-20 0,-5 7,-11 16,-24z"/>
  <path class="fil1" d="M5743 13118c-8,-10 -16,-19 -24,-29 4,-3 7,-6 11,-9 8,10 16,19 24,29 -4,3 -7,6 -11,9z"/>
  <path class="fil1" d="M8312 13167c0,13 0,26 -1,39 0,0 -10,0 -15,0 0,-13 0,-26 0,-39 5,0 10,0 16,0z"/>
  <path class="fil1" d="M15095 13230c-23,14 -31,19 -39,24 -3,-7 -10,-15 -8,-20 2,-6 11,-14 18,-15 6,-1 14,5 30,11z"/>
  <path class="fil1" d="M3931 13048c8,4 17,7 22,14 4,5 1,14 2,34 -16,-18 -24,-28 -33,-38 3,-3 5,-6 8,-9z"/>
  <path class="fil1" d="M20853 13240c-3,-12 -5,-24 -8,-36 7,-1 21,-4 21,-3 4,11 5,23 7,35 -7,1 -14,3 -21,4z"/>
  <path class="fil1" d="M17134 13205c-8,31 -12,44 -18,66 -28,-30 -16,-41 18,-66z"/>
  <path class="fil1" d="M1247 13044c-11,9 -18,19 -22,18 -9,-3 -17,-11 -25,-17 5,-6 11,-17 16,-17 9,1 18,9 31,16z"/>
  <path class="fil1" d="M3252 13064c0,-13 0,-25 0,-38 5,0 15,0 15,1 1,13 1,26 1,39 -5,0 -11,-1 -16,-1z"/>
  <path class="fil1" d="M16809 13226c-9,9 -15,16 -24,21 -2,1 -15,-11 -14,-14 3,-9 11,-16 16,-24 6,5 11,10 21,18z"/>
  <path class="fil1" d="M18112 13173c7,10 15,16 15,22 0,6 -9,11 -14,17 -5,-6 -13,-12 -15,-18 -1,-5 7,-11 14,-21z"/>
  <path class="fil1" d="M1131 12892c8,9 16,14 17,19 0,6 -6,13 -10,20 -5,-4 -13,-8 -14,-13 -1,-7 4,-14 8,-26z"/>
  <path class="fil1" d="M3490 13065c-5,-11 -11,-21 -16,-32 0,-1 8,-5 12,-8 5,11 11,23 16,34 -4,2 -8,4 -12,6z"/>
  <path class="fil1" d="M18731 13285c-6,-3 -13,-6 -12,-8 0,-7 3,-14 5,-21 6,3 16,6 16,9 0,7 -5,13 -9,20z"/>
  <path class="fil1" d="M12806 13283c-3,-7 -6,-13 -7,-19 0,-2 11,-8 12,-7 5,6 8,12 12,19 -5,2 -9,4 -17,8z"/>
  <path class="fil1" d="M18635 13240c-7,11 -15,21 -22,32 -4,-2 -7,-5 -11,-7 7,-11 14,-22 22,-32 4,3 8,5 11,8z"/>
  <path class="fil1" d="M14940 13227c6,9 13,16 12,21 -1,6 -9,11 -15,17 -4,-5 -13,-11 -13,-16 0,-6 8,-12 15,-22z"/>
  <path class="fil1" d="M13510 13246c-8,2 -14,5 -21,5 -3,0 -6,-6 -9,-10 6,-3 12,-7 18,-8 3,0 6,6 11,13z"/>
  <path class="fil1" d="M9582 13183c11,-8 22,-17 33,-25 3,3 6,7 10,10 -10,10 -19,21 -29,31 -4,-5 -9,-10 -13,-15z"/>
  <path class="fil1" d="M8608 13178c9,4 13,6 18,8 -5,9 -10,17 -17,25 -1,1 -13,-6 -12,-7 3,-9 7,-18 11,-27z"/>
  <path class="fil1" d="M4304 13168c-22,0 -37,0 -61,0 25,-32 39,-27 61,0z"/>
  <path class="fil1" d="M18379 13304c2,-11 5,-22 7,-33 5,7 11,13 15,21 1,2 -5,8 -8,12 -5,0 -9,0 -14,-1z"/>
  <path class="fil1" d="M14788 13217c3,-11 5,-21 8,-32 5,2 13,4 13,5 -2,10 -5,21 -8,31 -4,-1 -9,-2 -13,-4z"/>
  <path class="fil1" d="M5652 13167c6,-12 12,-23 18,-35 4,2 8,4 12,5 -4,12 -9,23 -13,35 -6,-2 -11,-4 -17,-6z"/>
  <path class="fil1" d="M16626 13163c6,12 13,19 11,23 -2,7 -10,15 -16,16 -5,1 -11,-8 -17,-13 6,-7 12,-14 22,-26z"/>
  <path class="fil1" d="M8478 13120c-21,2 -32,4 -43,5 6,-6 11,-14 17,-18 2,-1 9,5 25,14z"/>
  <path class="fil1" d="M18577 13195c-8,7 -16,16 -19,14 -6,-3 -13,-11 -14,-17 -1,-4 10,-14 14,-13 6,1 11,9 19,16z"/>
  <path class="fil1" d="M6376 13105c-3,13 -5,27 -8,40 -4,0 -7,-1 -11,-1 1,-14 3,-28 4,-41 5,1 10,2 15,2z"/>
  <path class="fil1" d="M17339 13211c-3,11 -6,22 -9,33 -5,-7 -12,-13 -16,-21 -1,-2 6,-8 9,-12 5,0 10,0 15,1z"/>
  <path class="fil1" d="M5952 13085c1,8 4,16 4,23 0,2 -8,4 -12,6 -3,-7 -6,-15 -7,-22 0,-1 8,-4 15,-7z"/>
  <path class="fil1" d="M17412 13254c0,-14 0,-28 0,-42 4,-1 8,-1 12,-2 3,14 6,27 9,41 -7,1 -14,2 -21,2z"/>
  <path class="fil1" d="M19060 13188c7,9 15,16 14,21 -1,6 -9,11 -15,17 -5,-6 -13,-11 -14,-18 -1,-5 8,-11 15,-20z"/>
  <path class="fil1" d="M13582 13199c-8,4 -14,7 -20,10 -3,-7 -9,-15 -8,-20 2,-6 11,-9 17,-13 3,7 6,14 11,23z"/>
  <path class="fil1" d="M7494 13213c-7,-7 -13,-12 -18,-17 7,-6 13,-13 20,-19 5,5 14,11 14,16 0,6 -9,12 -16,20z"/>
  <path class="fil1" d="M4739 13054c-10,6 -21,12 -31,18 -2,-4 -7,-12 -6,-12 10,-6 20,-12 30,-18 2,4 4,8 7,12z"/>
  <path class="fil1" d="M4482 13058c-7,7 -11,13 -16,18 -6,-6 -13,-13 -19,-19 5,-5 11,-13 16,-13 6,0 11,8 19,13z"/>
  <path class="fil1" d="M10941 13151c-9,17 -14,25 -19,34 -2,-8 -4,-16 -4,-24 0,-2 8,-4 23,-10z"/>
  <path class="fil1" d="M5743 13189c-5,2 -10,6 -14,5 -4,-1 -5,-8 -8,-12 5,-2 10,-6 14,-4 3,1 5,8 8,12z"/>
  <path class="fil1" d="M9672 13204c7,-8 13,-17 20,-26 3,2 6,4 9,6 -6,9 -12,18 -17,27 -4,-3 -8,-5 -11,-8z"/>
  <path class="fil1" d="M11361 13110c-11,6 -18,12 -24,11 -4,0 -8,-10 -10,-16 0,-1 8,-8 12,-7 6,1 12,6 22,12z"/>
  <path class="fil1" d="M6562 13096c6,8 15,14 14,19 -2,6 -10,14 -16,14 -4,1 -14,-9 -14,-14 0,-6 9,-11 16,-19z"/>
  <path class="fil1" d="M13674 13176c8,8 17,12 17,17 0,5 -7,11 -13,15 -1,1 -11,-5 -11,-8 0,-6 4,-13 7,-24z"/>
  <path class="fil1" d="M19106 13279c6,-3 11,-7 17,-10 2,5 8,11 6,14 -3,6 -10,9 -15,14 -2,-5 -5,-9 -9,-17z"/>
  <path class="fil1" d="M4661 13098c-15,21 -22,30 -29,40 -3,-1 -7,-2 -10,-4 2,-7 1,-16 6,-22 4,-5 13,-6 33,-14z"/>
  <path class="fil1" d="M4416 13123c-5,3 -11,6 -17,10 -2,-4 -6,-10 -4,-13 3,-5 9,-8 15,-12 2,4 4,9 7,16z"/>
  <path class="fil1" d="M5564 13159c-6,-3 -13,-5 -13,-7 0,-5 2,-10 6,-14 3,-2 8,-1 13,-1 -2,7 -4,14 -5,22z"/>
  <path class="fil1" d="M21659 13243c-4,-3 -10,-5 -11,-9 -1,-4 2,-10 4,-15 5,4 11,7 16,12 1,1 -5,8 -8,12z"/>
  <path class="fil1" d="M5423 13091c-5,2 -9,5 -14,7 -2,-6 -4,-12 -6,-18 5,-1 11,-4 15,-2 3,1 3,9 4,13z"/>
  <path class="fil1" d="M5107 13092c-7,1 -14,3 -21,2 -2,0 -3,-8 -4,-13 7,-1 14,-3 21,-4 1,0 2,8 4,14z"/>
  <path class="fil1" d="M5977 13172c5,-7 10,-14 15,-20 0,0 4,2 6,3 -4,8 -8,15 -12,23 -3,-2 -6,-4 -9,-6z"/>
  <path class="fil1" d="M12547 13146c-4,5 -9,10 -13,15 -3,-3 -10,-8 -9,-10 3,-6 8,-11 12,-16 3,3 6,6 10,11z"/>
  <path class="fil1" d="M2472 13109c5,-10 10,-20 15,-29 4,2 12,6 12,7 -4,10 -10,19 -15,29 -4,-2 -8,-4 -13,-7z"/>
  <path class="fil1" d="M11702 13248c-8,2 -15,5 -23,4 -2,0 -4,-11 -5,-17 7,-1 15,-4 22,-3 2,0 3,9 6,16z"/>
  <path class="fil1" d="M16748 13178c-7,3 -14,8 -21,9 -2,0 -6,-7 -9,-11 6,-4 12,-9 19,-11 2,-1 6,7 11,13z"/>
  <path class="fil1" d="M18340 13183c5,12 11,19 10,25 -2,6 -10,9 -15,14 -2,-5 -7,-10 -7,-14 1,-7 6,-12 12,-24z"/>
  <path class="fil1" d="M10255 13128c-7,1 -14,3 -21,4 -1,0 -3,-11 -3,-12 6,-3 14,-5 20,-7 1,4 2,9 3,15z"/>
  <path class="fil1" d="M7108 13175c-6,-5 -9,-8 -13,-12 5,-5 10,-11 16,-15 1,-1 10,8 10,9 -3,6 -8,12 -13,18z"/>
  <path class="fil1" d="M14675 13251c-3,3 -7,6 -10,10 -3,-6 -6,-11 -9,-17 4,-2 10,-6 13,-5 3,1 4,8 6,12z"/>
  <path class="fil1" d="M1830 13143c6,4 10,7 14,9 -5,5 -9,11 -14,13 -3,1 -8,-4 -12,-6 4,-5 8,-11 13,-16z"/>
  <path class="fil1" d="M15991 13234c5,5 12,11 11,12 -3,7 -9,12 -14,18 -5,-5 -14,-12 -13,-15 3,-6 10,-11 16,-16z"/>
  <path class="fil1" d="M20980 13221c-7,8 -12,13 -17,18 -4,-6 -10,-12 -12,-19 -1,-3 7,-13 7,-12 7,3 12,7 22,13z"/>
  <path class="fil1" d="M8352 13108c3,7 6,13 9,20 -6,2 -12,5 -18,7 -3,-7 -6,-14 -9,-21 5,-2 10,-4 17,-6z"/>
  <path class="fil1" d="M10813 13162c-13,17 -19,25 -25,33 0,-8 -1,-16 0,-24 1,-2 8,-3 25,-9z"/>
  <path class="fil1" d="M16455 13249c-4,3 -7,6 -11,9 -3,-6 -6,-12 -9,-18 5,-1 10,-5 13,-4 4,2 5,8 7,13z"/>
  <path class="fil1" d="M2930 13168c-6,-5 -9,-8 -13,-11 6,-5 11,-12 17,-13 4,-1 10,8 14,13 -6,4 -13,8 -18,12z"/>
  <path class="fil1" d="M21893 13352c-4,-6 -10,-11 -9,-12 4,-6 10,-10 15,-15 2,3 8,8 7,10 -2,6 -7,11 -12,17z"/>
  <path class="fil1" d="M20031 13335c-6,3 -12,7 -18,9 -1,0 -8,-10 -7,-12 4,-5 10,-9 16,-13 3,4 5,9 9,16z"/>
  <path class="fil1" d="M20544 13304c1,-9 3,-19 5,-28 0,0 6,0 7,0 3,8 5,17 7,25 -6,1 -12,2 -18,3z"/>
  <path class="fil1" d="M6131 13190c15,-3 24,-5 33,-7 -4,6 -8,13 -13,18 -1,1 -8,-4 -20,-11z"/>
  <path class="fil1" d="M3366 13018c7,9 16,14 16,20 0,5 -9,10 -14,15 -5,-5 -14,-10 -16,-17 -1,-4 7,-11 14,-19z"/>
  <path class="fil1" d="M6219 13134c9,-7 14,-16 20,-16 5,0 10,9 15,14 -5,5 -10,13 -17,14 -4,1 -11,-7 -19,-12z"/>
  <path class="fil1" d="M8119 13143c-5,-10 -12,-17 -11,-21 2,-5 11,-9 17,-12 1,-1 9,8 8,10 -2,7 -8,13 -15,23z"/>
  <path class="fil1" d="M22176 15605c-27,-39 -35,-78 0,-119 0,44 0,81 0,119z"/>
 </g>
</svg>
