<?xml version="1.0" encoding="UTF-8"?>
<!DOCTYPE svg PUBLIC "-//W3C//DTD SVG 1.1//EN" "http://www.w3.org/Graphics/SVG/1.1/DTD/svg11.dtd">
<!-- Creator: CorelDRAW X6 -->
<svg xmlns="http://www.w3.org/2000/svg" xml:space="preserve" width="600mm" height="420mm" version="1.1" style="shape-rendering:geometricPrecision; text-rendering:geometricPrecision; image-rendering:optimizeQuality; fill-rule:evenodd; clip-rule:evenodd"
viewBox="0 0 60000 42000"
 xmlns:xlink="http://www.w3.org/1999/xlink">
 <defs>
  <style type="text/css">
   <![CDATA[
    .str3 {stroke:#11232F;stroke-width:7.62}
    .str2 {stroke:#11232F;stroke-width:16.93}
    .str5 {stroke:black;stroke-width:20}
    .str1 {stroke:#11232F;stroke-width:20}
    .str0 {stroke:white;stroke-width:20}
    .str4 {stroke:black;stroke-width:25.4}
    .fil3 {fill:none}
    .fil5 {fill:#2B2A29}
    .fil4 {fill:#586F41}
    .fil2 {fill:#6BA2DA}
    .fil1 {fill:#9CCA36}
    .fil0 {fill:#E9C990}
   ]]>
  </style>
 </defs>
 <g id="Слой_x0020_1">
  <metadata id="CorelCorpID_0Corel-Layer"/>
  <rect class="fil0 str0" x="1346" y="78" width="57636" height="41788"/>
  <polygon class="fil0 str1" points="17665,7270 19099,7622 18849,8654 18501,8757 18383,9246 18019,9556 16749,9576 14297,10084 14816,8035 16889,8200 16865,7901 14835,7785 14690,7417 14808,7086 15352,6986 "/>
  <polygon class="fil0 str1" points="24646,10634 23983,12536 22659,12110 23127,10478 23497,10364 "/>
  <polygon class="fil0 str1" points="25617,8544 29544,9252 28870,11569 25001,10587 "/>
  <polygon class="fil0 str1" points="29304,10952 29487,11009 29545,10818 29717,10895 29784,10681 30108,10782 29934,11638 29147,11706 "/>
  <polygon class="fil1 str2" points="24824,11426 25238,11284 28758,12061 28279,15089 24929,14245 24391,12902 "/>
  <polygon class="fil1 str3" points="24254,14439 23625,14276 23878,13386 24442,14442 "/>
  <polygon class="fil0 str1" points="29116,11996 31883,11607 33339,12160 33319,12307 33522,12360 33221,12807 32996,12902 32000,14529 28887,13689 "/>
  <polygon class="fil1 str1" points="30109,16275 31271,16660 31365,17641 "/>
  <polygon class="fil0 str1" points="30164,4033 22234,4180 20132,4105 20107,4485 21069,4782 27301,4869 28473,4435 30091,4399 "/>
  <ellipse class="fil0 str1" cx="17509" cy="18097" rx="179" ry="171"/>
  <polygon class="fil1 str1" points="17957,18149 20785,18764 21693,18598 23732,18939 24842,18977 26638,20346 24959,19592 17519,18483 "/>
  <polygon class="fil2 str1" points="-583,27120 273,27120 1450,27486 4867,31461 8423,33624 10841,34116 12991,34158 15759,34573 23293,33617 27090,33110 28660,32144 29493,31338 30199,30183 30920,27446 29993,24504 29217,23613 28903,23448 28901,22509 27945,21597 24760,20096 19325,19643 15675,18994 14542,18275 13062,17975 12121,17729 11419,17406 10214,16517 9574,15568 8974,14027 8921,12854 8506,12031 8486,11219 7834,8163 7915,5767 8590,4137 10277,3113 10646,3238 13092,2682 17553,3466 19314,4412 20902,5003 27523,5038 28920,4656 33404,4284 35289,4366 39569,5451 43018,6649 44837,7693 46367,8657 47604,10066 48033,10848 48229,12199 48019,13498 46956,15340 45508,16876 42738,18690 39647,20443 37110,21828 34399,23679 33377,25834 33598,26697 34464,27278 36624,29467 36991,29351 40069,30144 41719,30252 43239,30223 45225,29546 46865,29381 51258,29587 54701,28926 56735,28239 58766,26964 58766,27773 56798,28840 54638,29580 50984,30335 45509,30887 40714,31050 37681,30668 35458,29567 35112,29357 34120,27546 33369,27078 32595,27389 32522,26734 32975,26118 33612,23751 34394,23086 38225,20664 39923,19740 42135,18620 45617,16172 46892,15137 47799,13589 48075,11946 47758,10823 47219,10033 44856,8053 43512,7790 42457,6804 35389,4782 33589,4602 31742,5053 26913,5585 21169,5772 19361,5038 18490,4375 17196,3848 13448,2954 9360,3998 8848,4513 8380,5380 8266,8412 9071,11462 9229,13955 9703,15375 10372,16250 11470,17099 16732,18786 17356,18663 24883,19807 27113,20711 30173,22703 30281,23512 31384,25860 31898,26410 32144,28193 31604,29818 29373,32565 28151,33143 25884,33714 20305,34666 20327,35523 19273,37236 19067,38221 18505,40300 17434,41565 17104,41569 18216,40157 18683,38543 18874,37382 19510,36093 20013,35414 20097,34701 19342,34823 12844,34959 7826,34089 4212,31953 2209,29593 462,28288 -583,28035 "/>
  <polygon class="fil0 str1" points="22118,21974 23552,21817 23900,21873 24012,21671 25074,21923 26456,22902 27242,24143 27040,24178 23993,22684 23662,22428 "/>
  <polygon class="fil0 str1" points="27645,24436 28069,24135 28548,24960 28860,26298 28904,27339 29208,27368 29010,28357 28531,28076 28495,27927 27290,27925 27150,27835 27909,26610 28102,25977 27948,24993 "/>
  <polygon class="fil0 str1" points="8284,22204 10042,22662 16319,24965 17032,22887 14025,21592 13549,21530 13480,21047 8403,21927 "/>
  <polygon class="fil0 str1" points="17551,25924 20016,26826 19726,28017 19507,28173 18608,27841 17799,29690 16020,30601 15680,31126 14549,30942 14680,30253 16543,25439 17626,25789 "/>
  <polygon class="fil0 str1" points="10485,23262 13259,24343 12662,25794 12205,25658 11955,26334 9776,25536 "/>
  <polygon class="fil0 str1" points="13582,24504 16130,25423 15565,26762 13082,25826 "/>
  <polygon class="fil0 str1" points="9679,25762 11872,26584 11453,27842 9211,27100 "/>
  <polygon class="fil0 str1" points="8938,27387 14630,29278 14275,30197 13098,29828 12035,29202 11908,29374 12602,29930 14292,30421 14162,31506 13749,31667 13387,31637 12084,31410 12188,31053 8039,29965 8414,28619 "/>
  <polygon class="fil1 str1" points="7996,30220 12013,31212 11921,31366 10255,31034 10187,31592 11066,31943 11018,32212 10105,32061 9804,31649 8525,31837 8566,32217 7697,32104 7882,31041 "/>
  <polygon class="fil0 str1" points="8685,31960 9828,31825 9955,32171 11094,32333 11132,32803 9310,32627 8781,32416 "/>
  <polygon class="fil0 str1" points="7331,32176 8274,32271 9290,32757 12271,33009 14570,33448 14468,33681 11480,33340 11438,33561 8131,33045 7321,32609 "/>
  <polygon class="fil0 str1" points="6244,21924 10160,23167 8858,26979 4895,25818 "/>
  <polygon class="fil0 str1" points="6547,26644 8562,27212 8542,27573 7780,29436 7598,29483 7716,29694 6996,29851 6514,29780 6622,29199 5794,28887 "/>
  <polygon class="fil1 str3" points="5738,29100 6307,29346 6308,30008 6946,30177 7586,29948 7617,31114 5482,30562 5180,31095 5000,30789 "/>
  <polygon class="fil0 str1" points="7469,32024 6680,31968 5376,31101 5413,30685 7583,31252 "/>
  <polygon class="fil0 str1" points="4818,26159 6167,26556 5361,28842 4885,28709 4721,28882 3363,28130 "/>
  <polygon class="fil1 str1" points="3317,28355 4675,29122 4976,29017 5197,29119 4622,30499 3040,28647 "/>
  <polygon class="fil1 str1" points="1751,26838 2966,28032 2762,28189 1571,27227 "/>
  <polygon class="fil0 str1" points="1877,26615 2644,25266 4478,25984 3090,27857 "/>
  <polygon class="fil0 str1" points="34120,30755 34006,30872 33203,29964 32554,27612 33392,27234 33714,27372 34045,27692 35074,29703 35265,29582 36258,30197 35468,31399 34986,33299 34673,33700 34563,33492 34882,31484 "/>
  <polygon class="fil1 str1" points="28356,23819 28836,23515 29122,23712 29818,24525 30542,26451 30680,27402 30018,30032 29405,31107 28400,32007 26705,32970 22717,33605 22660,33444 26734,32675 27800,32001 28567,31201 28883,30524 29328,27374 29178,26276 "/>
  <polygon class="fil1 str1" points="32318,30497 32701,30388 34123,31281 34579,31828 34406,32548 34295,33711 33046,34064 32371,35051 31609,35428 31044,35234 31124,34218 30707,33880 31851,32068 "/>
  <polygon class="fil0 str1" points="37777,30776 40690,31208 40796,31524 40239,31726 38464,31761 38514,31522 37777,31428 "/>
  <polygon class="fil0 str1" points="30876,31572 31291,31785 30482,32999 30477,33251 29205,34463 28198,34744 29142,34064 "/>
  <polygon class="fil0 str1" points="37659,32281 40898,32259 42245,32495 44696,32400 46268,31914 48969,31954 50180,31673 52252,31638 55446,30460 58190,30464 58494,30827 55802,31512 55110,32245 54162,32049 49307,32639 46076,32614 43559,32725 40995,33427 39840,33614 37215,33127 "/>
  <polygon class="fil0 str1" points="34505,23785 34860,24225 34680,25029 34760,25546 35264,26259 34755,26712 35540,27639 36314,28358 37111,28685 38682,28859 42629,28649 46353,28263 47570,28432 46750,29002 43139,30075 41505,30156 40026,29976 37717,29439 36866,29087 36567,29132 34322,26938 33673,26513 33522,25786 "/>
  <polygon class="fil0 str1" points="35274,26412 35944,26746 36847,28402 36314,28358 35540,27639 34824,26793 "/>
  <polygon class="fil0 str1" points="35251,24372 35584,24664 35657,24862 36298,25113 36482,25750 36660,25745 36990,26527 36712,26654 36406,26547 36228,26318 35783,26276 35785,25648 35048,25617 34869,25357 34869,24901 "/>
  <polygon class="fil0 str1" points="37252,26675 37640,27063 38573,27259 40546,26971 40756,27080 40791,27390 39856,27732 39852,27904 42116,27702 42490,27817 42470,28331 41851,28384 37991,28501 37040,28397 36787,27882 36829,26920 "/>
  <polygon class="fil1 str1" points="55823,27002 52496,28259 49425,28647 47707,28564 47065,29113 51288,29379 54589,28723 56609,28087 58766,26591 58766,25922 56510,26515 "/>
  <polygon class="fil0 str1" points="57806,23022 56837,23567 57067,23979 57479,24246 58250,23539 "/>
  <polygon class="fil1 str1" points="58766,22985 58303,23325 57806,22780 56705,23350 56408,23333 54648,24049 56209,22867 56032,22620 58189,20356 57962,19834 58766,18853 "/>
  <polygon class="fil0 str1" points="52551,23664 51483,22310 51137,22648 51092,23225 51328,23927 50450,24339 50676,25357 52094,24968 53345,24420 52705,23643 "/>
  <polygon class="fil0 str1" points="51684,21967 54225,20644 56094,22954 54648,24049 53818,22859 53617,22955 54255,23978 53948,24338 53542,24226 52605,23275 "/>
  <polygon class="fil0 str1" points="52357,17878 50797,15885 50434,16330 50105,17114 51153,18421 51571,18388 52363,18098 "/>
  <polygon class="fil0 str1" points="52654,13155 55632,15314 55779,17250 56162,18185 55261,18765 54382,17970 53685,17967 53395,17711 53692,16515 54036,15815 53734,15799 53520,16334 53170,17641 52722,17970 50926,15575 "/>
  <polygon class="fil0 str1" points="58766,15803 56660,13832 55992,14751 55978,15562 56281,15920 56070,16491 55969,17197 56577,18000 57345,17970 58133,17462 58774,16837 "/>
  <polygon class="fil0 str1" points="58022,17970 56746,18484 57664,19785 58353,19232 58766,18581 58766,17503 "/>
  <polygon class="fil0 str1" points="58766,9016 56526,7437 56143,8091 58262,10233 58766,11291 "/>
  <polygon class="fil0 str1" points="58766,4507 56977,7144 58766,8384 "/>
  <polygon class="fil0 str1" points="58766,184 58766,1756 56504,184 "/>
  <polygon class="fil0 str1" points="52220,184 52829,719 52492,1140 53408,1800 54614,184 "/>
  <polygon class="fil0 str1" points="47605,184 47457,369 46904,184 "/>
  <polygon class="fil0 str1" points="58766,30156 58386,30403 58640,30982 57265,31795 55846,32117 55189,33742 54817,33710 54540,32894 53784,32834 52881,33678 53182,33705 53662,38398 54647,37842 54892,38105 53623,38870 53435,41137 58766,41074 58772,37521 58235,37084 58463,36792 58773,37014 58775,35550 57918,36575 57700,36125 58775,35068 "/>
  <polygon class="fil0 str1" points="51855,33845 52751,33653 53183,36730 53269,38611 52969,41143 51286,41163 51472,40047 51231,35828 "/>
  <polygon class="fil1 str1" points="39593,34458 43900,33524 51369,32958 50217,35696 50340,41174 34103,41389 34129,40181 35531,38280 35801,36470 34591,35005 36345,33413 "/>
  <polygon class="fil0 str1" points="32310,37087 32149,35621 33023,35104 33526,35120 33737,35656 34538,36242 34768,36743 34680,37644 33438,40341 33438,41375 30297,41412 30922,40974 31288,40320 31140,40208 31516,39616 32008,39829 32207,39341 32751,38872 32767,38092 "/>
  <path class="fil0 str1" d="M30874 34814c27,103 -1144,1592 -1286,1641 -1,17 229,345 247,463 14,91 121,493 179,513 378,131 34,313 676,34 330,-143 773,90 489,-225 -57,-64 -305,-1162 -97,-1215 985,-253 225,-268 49,-402 -234,-178 -154,56 -123,-676 7,-158 -95,14 -133,-133z"/>
  <path class="fil0 str1" d="M30908 40231l-291 659 -817 528 -674 8 -624 -1247 -569 -388 -864 -167 -2272 196 54 -461 1103 -665 419 -423c133,307 786,262 821,280 381,200 2085,387 2165,618 221,320 1050,898 1551,1062z"/>
  <path class="fil1 str1" d="M29357 39170c-80,-231 -1784,-418 -2165,-618 -41,-22 -943,45 -835,-484 66,-324 517,-720 700,-1052 8,-15 940,-1076 1017,-1152 340,-340 1930,-1019 2459,-1496 214,-193 303,80 341,459 -41,178 -1148,1581 -1286,1628 -1,17 229,345 247,463 14,91 121,493 179,513 378,131 34,313 676,34 330,-143 773,90 489,-225 -57,-64 -305,-1162 -97,-1215 641,-165 543,-229 348,-290 372,-182 820,-298 820,188 0,900 67,927 331,1757 137,431 469,762 171,1192 -442,639 -20,587 -573,1149 -424,-56 -387,-453 -850,-109 -167,124 -105,309 -114,352 -341,118 -1579,-692 -1857,-1094z"/>
  <polygon class="fil0 str1" points="27281,39897 27896,40021 28324,40438 28701,41431 27956,41438 27813,41125 25872,41458 24658,41469 24406,40376 24619,40145 "/>
  <polygon class="fil0 str1" points="18525,41094 18238,41098 18383,40723 18487,40723 "/>
  <polygon class="fil0 str1" points="23303,41495 17434,41565 18995,40039 19223,40154 19989,39342 20387,39462 20937,39005 21977,39541 22095,39977 22674,40301 23445,40022 23728,40365 23688,40477 23839,40500 "/>
  <polygon class="fil0 str1" points="19709,36623 20108,36874 19548,37829 19416,38388 19265,38256 19067,38221 19273,37236 "/>
  <polygon class="fil0 str1" points="14068,35268 17339,35774 19084,36281 18893,36729 18121,36731 17180,36511 17118,36795 13445,36073 13380,35865 "/>
  <polygon class="fil0 str1" points="9173,34668 13937,35156 13314,35691 13273,36579 9541,36522 9424,37188 8585,36024 9223,35066 "/>
  <polygon class="fil1 str1" points="7454,39954 8766,36894 9501,37712 9765,36855 13509,36881 13589,36383 18581,37315 17805,39966 16690,41574 7144,41574 "/>
  <polygon class="fil0 str1" points="1534,41754 2601,41742 2892,40865 1534,38854 "/>
  <polygon class="fil0 str1" points="6543,41695 3136,41715 3337,41129 3157,40296 5101,39026 4772,38735 2942,39856 1534,38193 1534,35521 3105,35807 7880,37558 6795,40085 "/>
  <polygon class="fil1 str1" points="1534,33774 2803,33854 3315,33376 4313,33872 4330,34298 4925,34471 5093,34964 6708,35095 6808,34525 7258,34030 7774,34287 8834,34618 9008,34993 8205,36088 8579,36435 7953,37392 3368,35600 1534,35309 "/>
  <polygon class="fil0 str1" points="1534,32729 2005,32914 1926,33616 1534,33602 "/>
  <polygon class="fil0 str1" points="2078,32880 3052,33311 2781,33663 2055,33473 "/>
  <polygon class="fil0 str1" points="1534,31157 3135,32041 4071,32450 5543,33307 5747,33398 5680,33569 5525,33957 6572,34385 6507,34865 5299,34767 5318,34546 5108,34248 4460,34061 4612,33635 3619,33258 2659,32682 2402,32712 2097,32510 1926,32720 1534,32648 "/>
  <polygon class="fil1 str1" points="1534,20439 3104,20869 3104,21037 1534,20660 "/>
  <polygon class="fil0 str1" points="1534,15431 2710,15419 2973,19937 1534,19554 "/>
  <polygon class="fil1 str1" points="1534,19690 2978,20079 2978,20253 1534,19904 "/>
  <polygon class="fil0 str1" points="2326,8489 1534,8489 1534,6048 2216,6048 "/>
  <polygon class="fil0 str1" points="1534,5461 2048,5461 1978,4179 1534,4179 "/>
  <polygon class="fil0 str1" points="2044,3776 1534,3776 1534,2399 1984,2399 "/>
  <rect class="fil0 str1" x="1534" y="184" width="384" height="1048"/>
  <polygon class="fil0 str1" points="40495,10220 40664,10150 41292,10620 41670,11126 39351,11696 37312,12268 37354,11577 37187,11578 36952,12509 36546,12777 36113,12613 35737,12764 34464,12361 35307,9944 36220,10247 36234,9816 38598,9909 "/>
  <polygon class="fil0 str1" points="13150,5656 16656,5452 18553,5852 19364,5861 19222,7265 17679,6868 15678,6600 13587,6574 12824,6377 12721,5895 "/>
  <polygon class="fil0 str1" points="10050,6635 10928,5885 11466,5774 12329,5833 12596,6458 13048,6739 13568,6732 14031,6892 14605,6954 14485,7478 14578,8100 14316,8931 14164,10134 12942,10297 10881,11302 13444,16039 12775,15666 10048,11541 10114,7224 "/>
  <polygon class="fil0 str1" points="16814,12941 13772,11563 13111,10738 15199,10361 16372,9956 16275,9817 17225,9726 17864,9806 "/>
  <polygon class="fil0 str1" points="18124,13438 16696,13155 13303,11671 12745,10788 11891,11157 11976,11389 12135,11274 12664,12198 14927,14664 15390,14828 15544,14618 16044,14684 16680,15029 17392,15208 17994,14406 "/>
  <polygon class="fil0 str1" points="11645,11895 11960,11857 13618,13851 15160,15327 18510,17075 19045,17170 19331,17413 22242,17480 23749,17598 23903,17780 24375,16356 28152,17358 28149,17000 24564,16021 24896,14687 26024,15133 29614,16369 30926,17697 30662,18257 30895,18384 31133,18147 31380,18262 31864,19585 32377,20207 32495,20671 32273,21082 32361,21827 31931,22504 31756,23183 31652,23357 31772,23778 31974,26544 31495,25979 31160,25101 30378,23416 30282,22604 27465,20767 24966,18762 23727,18754 21722,18392 20826,18578 17908,17937 16537,17830 14801,16847 14255,16304 "/>
  <polygon class="fil0 str1" points="18348,13652 24519,14737 24312,16109 24077,16147 23868,16472 23764,17441 22718,17147 19884,16962 19423,17106 18305,16809 15150,15098 15584,14915 16544,15286 17564,15479 18090,14780 "/>
  <polygon class="fil0 str1" points="18176,10036 18933,10904 18901,11130 19252,11635 20053,12081 23685,13122 23407,14141 17249,12976 "/>
  <polygon class="fil0 str1" points="19739,9528 20207,9569 21575,10056 22915,10307 22503,11996 19934,11372 19347,10922 19116,10256 19287,9800 "/>
  <polygon class="fil0 str1" points="19708,5846 20692,5979 27373,5621 31492,5159 32753,5420 33018,5745 39834,7056 40882,7819 42043,8176 43099,8929 45241,10941 45640,11667 45748,12782 45600,13157 44848,13515 44824,13391 43389,14177 43193,13832 44361,12788 44820,12042 44689,11235 43652,10100 42131,9124 40087,8109 32892,6645 29216,6756 26486,6919 26409,7251 27216,7457 27104,8264 25248,8054 24533,10227 20332,9195 19312,8654 "/>
  <polygon class="fil0 str1" points="27677,7503 28912,7259 29184,6965 32501,6881 38739,8203 38755,8389 39616,8431 39642,8692 39899,8709 40122,8413 42250,9552 42294,9889 41766,10760 41445,10264 40783,9875 39956,9685 38098,9507 35322,9614 34505,9526 32796,9570 32861,9700 30725,9852 30707,9510 30305,9474 30463,8845 28869,8602 28424,8422 27677,8336 "/>
  <polygon class="fil0 str1" points="41772,10956 42865,9826 43998,10684 44523,11416 44460,11992 43982,12794 43166,13610 42171,11192 "/>
  <polygon class="fil0 str1" points="30552,10099 34866,9794 34134,12194 32007,11415 30069,11627 30268,10554 30529,10519 "/>
  <polygon class="fil0 str1" points="34234,12608 34629,12755 34747,12570 36133,13340 37391,12637 41628,11481 42079,11602 42251,12244 40144,13564 39613,13794 39251,14053 39230,14450 38784,14905 38643,14781 38598,14931 37457,15122 37320,14947 37094,15154 36777,15083 36003,15455 34756,14398 34573,14662 35576,15446 33565,17271 32009,16706 34131,12954 "/>
  <polygon class="fil0 str1" points="32075,17035 33696,17600 36015,15673 36310,15724 36465,16108 36945,16011 37199,15674 36978,15428 38536,15147 38701,15297 34667,18630 34252,19141 33035,19989 32687,19962 32154,19414 31793,18618 32161,18324 32009,18055 31818,18017 31824,17070 "/>
  <polygon class="fil0 str1" points="35202,18742 38889,15432 38694,16114 38781,16262 38535,16917 32713,21094 32694,20297 33848,19760 33746,19679 "/>
  <polygon class="fil0 str1" points="41898,12874 43491,15115 43810,14984 44939,16643 42124,18603 38154,20490 34058,23029 33631,23015 34002,22348 34859,21967 36014,20491 40250,17445 40036,17236 37483,19049 35553,20570 34310,22079 33776,22176 32923,23837 32340,23807 32183,24356 32069,22952 32711,21855 32714,21362 33448,21189 35302,19693 37769,18048 37692,17683 39164,16740 38951,15956 39364,14667 39822,14328 "/>
  <polygon class="fil0 str1" points="20056,2839 25553,2484 30368,2901 32542,2804 36577,3054 40042,4510 40024,5063 39291,4775 36566,3885 33787,3523 20072,3776 "/>
  <polygon class="fil1 str1" points="2480,184 19615,365 19429,3277 19184,3569 13107,2509 11794,2679 11178,2713 10630,2998 10032,2630 8181,3773 7521,5493 7239,7565 6259,7647 4187,7149 3729,7248 2786,6965 "/>
  <polygon class="fil1 str1" points="20173,365 44402,184 46595,737 56049,7181 50471,15403 50586,15703 50135,16545 49155,16100 48532,16882 48719,17324 47787,18188 47116,17654 46594,18387 46069,17732 45260,18532 44124,19367 43924,19127 42560,19921 41544,20039 40841,20074 43134,18811 45969,16801 47337,15333 48283,13538 48449,12053 48375,10927 47828,9759 46620,8599 44763,7366 43648,6863 43676,6554 40285,5646 40310,5344 40024,5063 40042,4510 36577,3054 32542,2804 30368,2901 25553,2484 20056,2839 "/>
  <polygon class="fil0 str1" points="2786,6965 3729,7248 4187,7149 6259,7647 7239,7565 7742,10087 8178,11231 8134,12039 8648,12901 8821,14262 9647,16161 10561,17051 11988,17803 13784,18208 14491,18300 15566,19012 15419,19321 16328,19850 16441,20062 18959,20809 21288,21231 23513,21378 23532,21525 22397,21796 21111,21823 18992,21588 16558,21036 14244,20733 14206,20619 13346,20513 11443,20756 11227,19322 10981,19038 9986,18760 7622,18558 7981,17024 8692,15777 8570,15694 7826,17001 7451,18542 3277,18263 "/>
  <polygon class="fil0 str1" points="19240,4953 18490,4375 17196,3848 13448,2954 9360,3998 8848,4513 8491,5252 8369,8295 9071,11462 9317,13908 9812,15335 10451,16186 11517,16986 16251,18493 16203,18014 13123,16417 10992,13761 9947,12006 9716,11050 9776,6241 10436,5595 10755,5771 11176,5637 12542,5575 13976,5246 15216,5178 15212,5296 17068,5290 17055,5425 19186,5682 "/>
  <polygon class="fil0 str1" points="33339,4726 34594,4739 37123,5257 42588,6962 43512,7790 44997,8274 47219,10033 47758,10823 48075,11946 47799,13589 46892,15137 45617,16172 43748,14665 43561,14449 44713,13677 44982,13806 45725,13410 45976,12679 45879,11422 44818,10145 42311,8084 41091,7683 40030,6900 37479,6234 33248,5334 "/>
  <polygon class="fil0 str1" points="16738,19302 19391,19654 24754,20240 27866,21729 28781,22509 28760,23425 27973,23813 26855,22755 25104,21700 23544,20987 22283,20931 17561,20038 16725,19480 "/>
  <polygon class="fil0 str1" points="22186,22308 26930,24492 27339,25174 27470,25461 27640,26050 27394,26831 26741,27807 24758,27662 22586,27176 23768,24216 23485,24131 23162,24830 22934,24808 22823,25342 22127,27001 19774,26161 20046,25603 20901,25416 "/>
  <polygon class="fil0 str1" points="3195,18579 9940,19108 10961,19354 11248,20820 8704,21401 8377,21473 7927,21456 5988,20893 5917,20712 4244,20280 3860,20359 3604,20319 3674,20009 3301,19848 "/>
  <polygon class="fil0 str1" points="13600,20879 14262,20945 18134,21910 21498,22050 21808,22113 20590,25113 19730,25376 19422,26071 16625,25057 17407,22935 19351,23350 19420,23146 17637,22652 13799,21196 "/>
  <polygon class="fil0 str1" points="24843,28130 24596,30785 26223,31134 26504,31525 26225,31679 26044,31212 24473,30937 23721,31012 23644,31172 22469,30433 21563,32458 21541,33064 21253,33369 21349,33468 26558,32333 26639,32474 27599,31959 28189,31431 28623,30525 28975,28510 28469,28179 27014,28040 27008,28211 "/>
  <polygon class="fil0 str1" points="22527,27555 23743,27734 23741,27943 24416,28094 24170,30819 22467,30206 22286,29997 22382,29868 21887,29449 "/>
  <polygon class="fil0 str1" points="19562,28324 19942,28039 20296,26943 22198,27438 21489,29313 20571,28643 "/>
  <polygon class="fil0 str1" points="18053,30086 18648,28176 20655,29056 19591,31854 19978,32019 20999,29181 22188,30182 21029,32885 21253,33369 19764,33769 19775,32833 19220,32877 19282,33409 19080,33455 19224,33805 17828,34040 15784,33753 13862,33041 11358,32750 11200,32065 14426,32343 14564,31322 15767,31307 16385,30534 17558,30020 "/>
  <polygon class="fil0 str1" points="13582,26262 15678,26988 14791,28890 14436,28921 11840,27987 12440,26024 13484,26429 "/>
  <polygon class="fil0 str1" points="3954,21180 5866,21743 5429,23432 4459,25567 2789,24947 "/>
  <polygon class="fil0 str1" points="28246,33233 29373,32565 30489,31192 30611,31324 28502,34351 27923,34685 28146,35001 25868,37160 26324,37418 25758,38101 24561,38129 24396,37689 24426,37081 24120,36670 24182,36350 24070,35926 22523,36327 20720,36385 20698,36010 20346,34651 25724,33791 25797,34374 26558,34044 26851,34192 27171,34766 28365,34022 "/>
  <polygon class="fil0 str1" points="38103,24649 40747,23789 41172,24362 40095,26704 38444,26981 37616,26676 37161,26197 36920,25418 37349,25139 37430,25287 38040,25025 "/>
  <polygon class="fil0 str1" points="35185,24074 35966,23127 37326,22253 37377,21828 40841,20074 42560,19921 43924,19127 44124,19367 45251,18537 46069,17732 46594,18387 47116,17654 47774,18203 48719,17324 48532,16882 49155,16100 49973,16471 49866,16869 49299,17616 48887,17351 47955,18263 48164,18488 42080,23310 40888,23440 39701,23730 38055,24453 37125,25089 36425,24919 "/>
  <polygon class="fil0 str1" points="43545,22853 45725,21011 46276,24461 45275,25734 43566,26621 43185,26721 43048,26556 43728,24862 43944,23793 "/>
  <polygon class="fil0 str1" points="41757,24268 43206,23075 43568,23890 43202,25370 42674,26471 42866,27090 44295,26606 45482,25900 46463,24850 46725,24105 46529,22362 48224,21561 48902,22353 49040,22242 48214,21317 46470,22160 46160,20729 47865,19411 48736,18399 50916,21223 51027,21621 50781,21898 50976,22248 50835,22930 50929,23695 46839,25183 46903,25455 50279,24458 50565,25578 50370,25705 50437,25907 53528,24600 54236,24468 56536,23591 56720,23703 56910,24141 57352,24445 56249,25305 54625,26256 53387,26790 53453,26994 54691,26524 57742,24517 58766,23481 58766,25750 56560,26315 52706,28022 51492,28275 48931,28394 48966,27308 48807,28125 48477,28263 46503,28051 45431,28116 45252,27567 45204,27813 44568,28070 42729,28382 42709,27850 43475,27803 43355,27607 41077,27579 41069,27056 40593,26753 41142,25086 "/>
  <polygon class="fil1 str1" points="52261,30371 41030,31343 40197,32027 44006,32113 44909,31719 49935,31348 51976,31325 55062,30075 58227,30029 58766,29719 58766,28094 58140,28516 55906,29373 "/>
  <polygon class="fil0 str1" points="50783,18680 52729,18411 54040,20349 51573,21611 49935,19407 50138,19236 50066,19145 49851,19282 49634,18940 49729,18713 49586,18362 50006,18057 50241,18419 50541,18260 "/>
  <polygon class="fil0 str1" points="53180,18352 53556,18110 54443,18177 55415,19109 56243,18552 57688,20226 57445,20458 57566,20568 56048,22232 "/>
  <polygon class="fil0 str1" points="53992,11132 54224,11240 56147,13359 56291,13753 55998,14529 55610,14756 52828,12892 "/>
  <polygon class="fil0 str1" points="57879,10639 55940,8497 54204,10819 58766,15351 58766,12269 "/>
  <polygon class="fil0 str1" points="55173,184 52603,3921 56504,6648 58766,3468 58766,2410 55580,184 "/>
  <polygon class="fil0 str1" points="48237,184 51613,184 52115,527 51803,995 53275,2020 52048,3617 47813,715 "/>
  <polygon class="fil0 str1" points="22829,37035 23671,37035 24036,37212 24208,37658 23928,39504 23259,39811 22721,39790 20862,38640 20361,39085 19802,39153 18995,40039 18714,39776 19716,38362 19598,37859 20291,36861 20526,36792 21575,36835 21675,37156 22394,37087 22564,37315 "/>
  <polygon class="fil0 str1" points="1534,20660 3233,21067 3253,20888 3634,20986 2854,23650 1770,26294 1534,26179 1534,25598 1906,24924 1534,24860 "/>
  <polygon class="fil0 str1" points="1534,8957 2408,8981 2659,14800 1534,14901 "/>
  <g id="_783572464">
   <rect class="fil0" transform="matrix(0.906308 0.0480017 -0.0391651 0.739467 19351.1 3713.11)" width="723" height="2457"/>
   <path class="fil3 str4" d="M19183 3380l168 311m0 0l-96 1817m0 0l-223 322"/>
   <path class="fil3 str4" d="M20201 3434l-200 292m0 0l-96 1817m0 0l188 344"/>
  </g>
  <g id="_783570864">
   <rect class="fil0" transform="matrix(0.740157 -0.115598 0.0775502 0.734473 31991 26494.2)" width="723" height="2457"/>
   <path class="fil3 str4" d="M31806 26197l182 276m0 0l191 1804m0 0l-133 357"/>
   <path class="fil3 str4" d="M32637 26067l-118 323m0 0l191 1804m0 0l203 304"/>
  </g>
  <g id="_783569232">
   <rect class="fil0" transform="matrix(0.446938 -0.0140222 0.0114409 0.364661 19456.1 34052.6)" width="723" height="2457"/>
   <path class="fil3 str4" d="M19360 33896l95 146m0 0l28 896m0 0l-96 167"/>
   <path class="fil3 str4" d="M19862 33880l-86 152m0 0l28 896m0 0l106 161"/>
  </g>
  <path class="fil4 str5" d="M5904 30300c-173,0 -33,-17 -178,-93 -77,-40 55,-117 -40,-251 -45,-63 96,-82 96,-97 -6,-183 316,-20 219,117 -24,34 187,120 10,183 -53,19 116,141 -106,141zm31 0c-43,0 -24,54 -18,126l6 11"/>
  <path class="fil4 str5" d="M7256 30732c-173,0 -24,29 -169,-47 -53,-27 -17,-118 -13,-186 2,-32 -5,-69 -36,-112 -45,-63 96,-82 96,-97 -4,-114 161,-139 231,-75 43,39 24,140 -12,192 -24,34 187,120 10,183 -53,19 116,141 -106,141zm31 0c-43,0 -24,54 -18,126l6 11"/>
  <path class="fil4 str5" d="M7436 35029c-173,0 -24,29 -169,-47 -53,-27 -17,-118 -13,-186 2,-32 68,-50 38,-93 -45,-63 73,-68 73,-83 -4,-114 75,-193 145,-129 43,39 60,162 23,214 -24,34 187,120 10,183 -53,19 116,141 -106,141zm31 0c-43,0 -24,54 -18,126l6 11"/>
  <path class="fil4 str5" d="M7999 35077c-173,0 -24,29 -169,-47 -53,-27 -17,-118 -13,-186 2,-32 15,-104 -16,-147 -45,-63 73,-68 73,-83 -4,-114 128,-139 199,-75 43,39 67,142 96,199 18,36 114,139 -5,192 -52,23 58,146 -164,146zm31 0c-43,0 -24,54 -18,126l6 11"/>
  <path class="fil4 str5" d="M8835 38346c-173,0 -24,29 -169,-47 -53,-27 -17,-118 -13,-186 2,-32 68,-50 38,-93 -45,-63 9,-157 8,-172 -4,-114 140,-104 210,-40 43,39 60,162 23,214 -24,34 187,120 10,183 -53,19 116,141 -106,141zm31 0c-43,0 -24,54 -18,126l6 11"/>
  <path class="fil4 str5" d="M9367 38432c-173,0 -33,-17 -178,-93 -77,-40 55,-117 -40,-251 -45,-63 96,-82 96,-97 -6,-183 316,-20 219,117 -24,34 102,25 10,183 -24,40 104,125 -106,141zm31 0c-43,0 -47,63 -41,134l30 3"/>
  <path class="fil4 str5" d="M7326 36613c-173,0 -24,29 -169,-47 -53,-27 -17,-118 -13,-186 2,-32 -5,-69 -36,-112 -45,-63 96,-82 96,-97 -4,-114 161,-139 231,-75 43,39 24,140 -12,192 -24,34 187,120 10,183 -53,19 116,141 -106,141zm31 0c-43,0 -24,54 -18,126l6 11"/>
  <path class="fil4 str5" d="M6056 36242c-173,0 -24,29 -169,-47 -53,-27 -17,-118 -13,-186 2,-32 -5,-69 -36,-112 -45,-63 96,-82 96,-97 -4,-114 161,-139 231,-75 43,39 24,140 -12,192 -24,34 187,120 10,183 -53,19 116,141 -106,141zm31 0c-43,0 -24,54 -18,126l6 11"/>
  <path class="fil4 str5" d="M1986 34624c-173,0 -33,-17 -178,-93 -77,-40 55,-117 -40,-251 -45,-63 96,-82 96,-97 -6,-183 316,-20 219,117 -24,34 187,120 10,183 -53,19 116,141 -106,141zm31 0c-43,0 -24,54 -18,126l6 11"/>
  <path class="fil4 str5" d="M2536 34684c-173,0 -24,29 -169,-47 -53,-27 -17,-118 -13,-186 2,-32 -5,-69 -36,-112 -45,-63 96,-82 96,-97 -4,-114 161,-139 231,-75 43,39 24,140 -12,192 -24,34 187,120 10,183 -53,19 116,141 -106,141zm31 0c-43,0 -24,54 -18,126l6 11"/>
  <path class="fil4 str5" d="M3091 34839c-173,0 -24,29 -169,-47 -53,-27 -17,-118 -13,-186 2,-32 68,-50 38,-93 -45,-63 73,-68 73,-83 -4,-114 75,-193 145,-129 43,39 60,162 23,214 -24,34 187,120 10,183 -53,19 116,141 -106,141zm31 0c-43,0 -24,54 -18,126l6 11"/>
  <path class="fil4 str5" d="M3654 34888c-173,0 -24,29 -169,-47 -53,-27 -17,-118 -13,-186 2,-32 15,-104 -16,-147 -45,-63 73,-68 73,-83 -4,-114 128,-139 199,-75 43,39 67,142 96,199 18,36 114,139 -5,192 -52,23 58,146 -164,146zm31 0c-43,0 -24,54 -18,126l6 11"/>
  <path class="fil4 str5" d="M4171 35034c-173,0 -24,29 -169,-47 -53,-27 -17,-118 -13,-186 2,-32 68,-50 38,-93 -45,-63 9,-157 8,-172 -4,-114 140,-104 210,-40 43,39 60,162 23,214 -24,34 187,120 10,183 -53,19 116,141 -106,141zm31 0c-43,0 -24,54 -18,126l6 11"/>
  <path class="fil4 str5" d="M4703 35120c-173,0 -33,-17 -178,-93 -77,-40 55,-117 -40,-251 -45,-63 96,-82 96,-97 -6,-183 316,-20 219,117 -24,34 102,25 10,183 -24,40 104,125 -106,141zm31 0c-43,0 -47,63 -41,134l30 3"/>
  <path class="fil4 str5" d="M2086 27506c-173,0 -24,29 -169,-47 -53,-27 -17,-118 -13,-186 2,-32 -5,-69 -36,-112 -45,-63 96,-82 96,-97 -4,-114 161,-139 231,-75 43,39 24,140 -12,192 -24,34 187,120 10,183 -53,19 116,141 -106,141zm31 0c-43,0 -24,54 -18,126l6 11"/>
  <path class="fil4 str5" d="M8927 31214c-173,0 -24,29 -169,-47 -53,-27 -17,-118 -13,-186 2,-32 -5,-69 -36,-112 -45,-63 96,-82 96,-97 -4,-114 161,-139 231,-75 43,39 24,140 -12,192 -24,34 187,120 10,183 -53,19 116,141 -106,141zm31 0c-43,0 -24,54 -18,126l6 11"/>
  <path class="fil4 str5" d="M9630 31261c-173,0 -33,-17 -178,-93 -77,-40 55,-117 -40,-251 -45,-63 96,-82 96,-97 -6,-183 316,-20 219,117 -24,34 187,120 10,183 -53,19 116,141 -106,141zm31 0c-43,0 -24,54 -18,126l6 11"/>
  <path class="fil4 str5" d="M8394 31665c-173,0 -24,29 -169,-47 -53,-27 -17,-118 -13,-186 2,-32 -5,-69 -36,-112 -45,-63 96,-82 96,-97 -4,-114 161,-139 231,-75 43,39 24,140 -12,192 -24,34 187,120 10,183 -53,19 116,141 -106,141zm31 0c-43,0 -24,54 -18,126l6 11"/>
  <path class="fil4 str5" d="M26654 1769c-173,0 -24,29 -169,-47 -53,-27 -17,-118 -13,-186 2,-32 68,-50 38,-93 -45,-63 73,-68 73,-83 -4,-114 75,-193 145,-129 43,39 60,162 23,214 -24,34 187,120 10,183 -53,19 116,141 -106,141zm31 0c-43,0 -24,54 -18,126l6 11"/>
  <path class="fil4 str5" d="M27217 1817c-173,0 -24,29 -169,-47 -53,-27 -17,-118 -13,-186 2,-32 15,-104 -16,-147 -45,-63 73,-68 73,-83 -4,-114 128,-139 199,-75 43,39 67,142 96,199 18,36 114,139 -5,192 -52,23 58,146 -164,146zm31 0c-43,0 -24,54 -18,126l6 11"/>
  <path class="fil4 str5" d="M27734 1963c-173,0 -24,29 -169,-47 -53,-27 -17,-118 -13,-186 2,-32 68,-50 38,-93 -45,-63 9,-157 8,-172 -4,-114 140,-104 210,-40 43,39 60,162 23,214 -24,34 187,120 10,183 -53,19 116,141 -106,141zm31 0c-43,0 -24,54 -18,126l6 11"/>
  <path class="fil4 str5" d="M28265 2049c-173,0 -33,-17 -178,-93 -77,-40 55,-117 -40,-251 -45,-63 96,-82 96,-97 -6,-183 316,-20 219,117 -24,34 102,25 10,183 -24,40 104,125 -106,141zm31 0c-43,0 -47,63 -41,134l30 3"/>
  <path class="fil4 str5" d="M25407 1924c-173,0 -24,29 -169,-47 -53,-27 -17,-118 -13,-186 2,-32 -5,-69 -36,-112 -45,-63 96,-82 96,-97 -4,-114 161,-139 231,-75 43,39 24,140 -12,192 -24,34 187,120 10,183 -53,19 116,141 -106,141zm31 0c-43,0 -24,54 -18,126l6 11"/>
  <path class="fil4 str5" d="M24768 1811c-173,0 -24,29 -169,-47 -53,-27 -17,-118 -13,-186 2,-32 -5,-69 -36,-112 -45,-63 96,-82 96,-97 -4,-114 161,-139 231,-75 43,39 24,140 -12,192 -24,34 187,120 10,183 -53,19 116,141 -106,141zm31 0c-43,0 -24,54 -18,126l6 11"/>
  <path class="fil4 str5" d="M10378 37750c-173,0 -33,-17 -178,-93 -77,-40 55,-117 -40,-251 -45,-63 96,-82 96,-97 -6,-183 316,-20 219,117 -24,34 187,120 10,183 -53,19 116,141 -106,141zm31 0c-43,0 -24,54 -18,126l6 11"/>
  <path class="fil4 str5" d="M10929 37809c-173,0 -24,29 -169,-47 -53,-27 -17,-118 -13,-186 2,-32 -5,-69 -36,-112 -45,-63 96,-82 96,-97 -4,-114 161,-139 231,-75 43,39 24,140 -12,192 -24,34 187,120 10,183 -53,19 116,141 -106,141zm31 0c-43,0 -24,54 -18,126l6 11"/>
  <path class="fil4 str5" d="M11484 37965c-173,0 -24,29 -169,-47 -53,-27 -17,-118 -13,-186 2,-32 68,-50 38,-93 -45,-63 73,-68 73,-83 -4,-114 75,-193 145,-129 43,39 60,162 23,214 -24,34 187,120 10,183 -53,19 116,141 -106,141zm31 0c-43,0 -24,54 -18,126l6 11"/>
  <path class="fil4 str5" d="M12047 38014c-173,0 -24,29 -169,-47 -53,-27 -17,-118 -13,-186 2,-32 15,-104 -16,-147 -45,-63 73,-68 73,-83 -4,-114 128,-139 199,-75 43,39 67,142 96,199 18,36 114,139 -5,192 -52,23 58,146 -164,146zm31 0c-43,0 -24,54 -18,126l6 11"/>
  <path class="fil4 str5" d="M12564 38160c-173,0 -24,29 -169,-47 -53,-27 -17,-118 -13,-186 2,-32 68,-50 38,-93 -45,-63 9,-157 8,-172 -4,-114 140,-104 210,-40 43,39 60,162 23,214 -24,34 187,120 10,183 -53,19 116,141 -106,141zm31 0c-43,0 -24,54 -18,126l6 11"/>
  <path class="fil4 str5" d="M13096 38246c-173,0 -33,-17 -178,-93 -77,-40 55,-117 -40,-251 -45,-63 96,-82 96,-97 -6,-183 316,-20 219,117 -24,34 102,25 10,183 -24,40 104,125 -106,141zm31 0c-43,0 -47,63 -41,134l30 3"/>
  <path class="fil4 str5" d="M14524 37685c-173,0 -24,29 -169,-47 -53,-27 -17,-118 -13,-186 2,-32 -5,-69 -36,-112 -45,-63 96,-82 96,-97 -4,-114 161,-139 231,-75 43,39 24,140 -12,192 -24,34 187,120 10,183 -53,19 116,141 -106,141zm31 0c-43,0 -24,54 -18,126l6 11"/>
  <path class="fil4 str5" d="M15582 38108c-173,0 -24,29 -169,-47 -53,-27 -17,-118 -13,-186 2,-32 -5,-69 -36,-112 -45,-63 96,-82 96,-97 -4,-114 161,-139 231,-75 43,39 24,140 -12,192 -24,34 187,120 10,183 -53,19 116,141 -106,141zm31 0c-43,0 -24,54 -18,126l6 11"/>
  <path class="fil4 str5" d="M3925 29273c-173,0 -33,-17 -178,-93 -77,-40 55,-117 -40,-251 -45,-63 96,-82 96,-97 -6,-183 316,-20 219,117 -24,34 187,120 10,183 -53,19 116,141 -106,141zm31 0c-43,0 -24,54 -18,126l6 11"/>
  <path class="fil4 str5" d="M17958 2058c-173,0 -24,29 -169,-47 -53,-27 -17,-118 -13,-186 2,-32 68,-50 38,-93 -45,-63 9,-157 8,-172 -4,-114 140,-104 210,-40 43,39 60,162 23,214 -24,34 187,120 10,183 -53,19 116,141 -106,141zm31 0c-43,0 -24,54 -18,126l6 11"/>
  <path class="fil4 str5" d="M20887 1746c-173,0 -33,-17 -178,-93 -77,-40 55,-117 -40,-251 -45,-63 96,-82 96,-97 -6,-183 316,-20 219,117 -24,34 102,25 10,183 -24,40 104,125 -106,141zm31 0c-43,0 -47,63 -41,134l30 3"/>
  <path class="fil4 str5" d="M22630 1237c-173,0 -24,29 -169,-47 -53,-27 -17,-118 -13,-186 2,-32 68,-50 38,-93 -45,-63 73,-68 73,-83 -4,-114 75,-193 145,-129 43,39 60,162 23,214 -24,34 187,120 10,183 -53,19 116,141 -106,141zm31 0c-43,0 -24,54 -18,126l6 11"/>
  <path class="fil4 str5" d="M23194 1285c-173,0 -24,29 -169,-47 -53,-27 -17,-118 -13,-186 2,-32 15,-104 -16,-147 -45,-63 73,-68 73,-83 -4,-114 128,-139 199,-75 43,39 67,142 96,199 18,36 114,139 -5,192 -52,23 58,146 -164,146zm31 0c-43,0 -24,54 -18,126l6 11"/>
  <path class="fil4 str5" d="M16925 1911c-173,0 -24,29 -169,-47 -53,-27 -17,-118 -13,-186 2,-32 -5,-69 -36,-112 -45,-63 96,-82 96,-97 -4,-114 161,-139 231,-75 43,39 24,140 -12,192 -24,34 187,120 10,183 -53,19 116,141 -106,141zm31 0c-43,0 -24,54 -18,126l6 11"/>
  <path class="fil4 str5" d="M18772 1096c-173,0 -24,29 -169,-47 -53,-27 -17,-118 -13,-186 2,-32 -5,-69 -36,-112 -45,-63 96,-82 96,-97 -4,-114 161,-139 231,-75 43,39 24,140 -12,192 -24,34 187,120 10,183 -53,19 116,141 -106,141zm31 0c-43,0 -24,54 -18,126l6 11"/>
  <path class="fil4 str5" d="M13134 1641c-173,0 -24,29 -169,-47 -53,-27 -17,-118 -13,-186 2,-32 15,-104 -16,-147 -45,-63 73,-68 73,-83 -4,-114 128,-139 199,-75 43,39 67,142 96,199 18,36 114,139 -5,192 -52,23 58,146 -164,146zm31 0c-43,0 -24,54 -18,126l6 11"/>
  <path class="fil4 str5" d="M4802 3196c-173,0 -24,29 -169,-47 -53,-27 -17,-118 -13,-186 2,-32 68,-50 38,-93 -45,-63 73,-68 73,-83 -4,-114 75,-193 145,-129 43,39 60,162 23,214 -24,34 187,120 10,183 -53,19 116,141 -106,141zm31 0c-43,0 -24,54 -18,126l6 11"/>
  <path class="fil4 str5" d="M5365 3245c-173,0 -24,29 -169,-47 -53,-27 -17,-118 -13,-186 2,-32 15,-104 -16,-147 -45,-63 73,-68 73,-83 -4,-114 128,-139 199,-75 43,39 67,142 96,199 18,36 114,139 -5,192 -52,23 58,146 -164,146zm31 0c-43,0 -24,54 -18,126l6 11"/>
  <path class="fil4 str5" d="M3506 1942c-173,0 -24,29 -169,-47 -53,-27 -17,-118 -13,-186 2,-32 68,-50 38,-93 -45,-63 73,-68 73,-83 -4,-114 75,-193 145,-129 43,39 60,162 23,214 -24,34 187,120 10,183 -53,19 116,141 -106,141zm31 0c-43,0 -24,54 -18,126l6 11"/>
  <path class="fil4 str5" d="M4069 1990c-173,0 -24,29 -169,-47 -53,-27 -17,-118 -13,-186 2,-32 15,-104 -16,-147 -45,-63 73,-68 73,-83 -4,-114 128,-139 199,-75 43,39 67,142 96,199 18,36 114,139 -5,192 -52,23 58,146 -164,146zm31 0c-43,0 -24,54 -18,126l6 11"/>
  <path class="fil4 str5" d="M4586 2136c-173,0 -24,29 -169,-47 -53,-27 -17,-118 -13,-186 2,-32 68,-50 38,-93 -45,-63 9,-157 8,-172 -4,-114 140,-104 210,-40 43,39 60,162 23,214 -24,34 187,120 10,183 -53,19 116,141 -106,141zm31 0c-43,0 -24,54 -18,126l6 11"/>
  <path class="fil4 str5" d="M4273 6475c-173,0 -24,29 -169,-47 -53,-27 -17,-118 -13,-186 2,-32 68,-50 38,-93 -45,-63 73,-68 73,-83 -4,-114 75,-193 145,-129 43,39 60,162 23,214 -24,34 187,120 10,183 -53,19 116,141 -106,141zm31 0c-43,0 -24,54 -18,126l6 11"/>
  <path class="fil4 str5" d="M4837 6523c-173,0 -24,29 -169,-47 -53,-27 -17,-118 -13,-186 2,-32 15,-104 -16,-147 -45,-63 73,-68 73,-83 -4,-114 128,-139 199,-75 43,39 67,142 96,199 18,36 114,139 -5,192 -52,23 58,146 -164,146zm31 0c-43,0 -24,54 -18,126l6 11"/>
  <path class="fil4 str5" d="M5353 6670c-173,0 -24,29 -169,-47 -53,-27 -17,-118 -13,-186 2,-32 68,-50 38,-93 -45,-63 9,-157 8,-172 -4,-114 140,-104 210,-40 43,39 60,162 23,214 -24,34 187,120 10,183 -53,19 116,141 -106,141zm31 0c-43,0 -24,54 -18,126l6 11"/>
  <path class="fil4 str5" d="M5885 6756c-173,0 -33,-17 -178,-93 -77,-40 55,-117 -40,-251 -45,-63 96,-82 96,-97 -6,-183 316,-20 219,117 -24,34 102,25 10,183 -24,40 104,125 -106,141zm31 0c-43,0 -47,63 -41,134l30 3"/>
  <path class="fil4 str5" d="M18749 2952c-173,0 -24,29 -169,-47 -53,-27 -17,-118 -13,-186 2,-32 -5,-69 -36,-112 -45,-63 96,-82 96,-97 -4,-114 161,-139 231,-75 43,39 24,140 -12,192 -24,34 187,120 10,183 -53,19 116,141 -106,141zm31 0c-43,0 -24,54 -18,126l6 11"/>
  <path class="fil4 str5" d="M18110 2840c-173,0 -24,29 -169,-47 -53,-27 -17,-118 -13,-186 2,-32 -5,-69 -36,-112 -45,-63 96,-82 96,-97 -4,-114 161,-139 231,-75 43,39 24,140 -12,192 -24,34 187,120 10,183 -53,19 116,141 -106,141zm31 0c-43,0 -24,54 -18,126l6 11"/>
  <path class="fil4 str5" d="M8297 2202c-173,0 -24,29 -169,-47 -53,-27 -17,-118 -13,-186 2,-32 68,-50 38,-93 -45,-63 9,-157 8,-172 -4,-114 140,-104 210,-40 43,39 60,162 23,214 -24,34 187,120 10,183 -53,19 116,141 -106,141zm31 0c-43,0 -24,54 -18,126l6 11"/>
  <path class="fil4 str5" d="M8828 2288c-173,0 -33,-17 -178,-93 -77,-40 55,-117 -40,-251 -45,-63 96,-82 96,-97 -6,-183 316,-20 219,117 -24,34 102,25 10,183 -24,40 104,125 -106,141zm31 0c-43,0 -47,63 -41,134l30 3"/>
  <path class="fil4 str5" d="M11203 1288c-173,0 -24,29 -169,-47 -53,-27 -17,-118 -13,-186 2,-32 68,-50 38,-93 -45,-63 73,-68 73,-83 -4,-114 75,-193 145,-129 43,39 60,162 23,214 -24,34 187,120 10,183 -53,19 116,141 -106,141zm31 0c-43,0 -24,54 -18,126l6 11"/>
  <path class="fil4 str5" d="M11767 1336c-173,0 -24,29 -169,-47 -53,-27 -17,-118 -13,-186 2,-32 15,-104 -16,-147 -45,-63 73,-68 73,-83 -4,-114 128,-139 199,-75 43,39 67,142 96,199 18,36 114,139 -5,192 -52,23 58,146 -164,146zm31 0c-43,0 -24,54 -18,126l6 11"/>
  <path class="fil4 str5" d="M7259 1929c-173,0 -24,29 -169,-47 -53,-27 -17,-118 -13,-186 2,-32 -5,-69 -36,-112 -45,-63 96,-82 96,-97 -4,-114 161,-139 231,-75 43,39 24,140 -12,192 -24,34 187,120 10,183 -53,19 116,141 -106,141zm31 0c-43,0 -24,54 -18,126l6 11"/>
  <path class="fil4 str5" d="M9111 1241c-173,0 -24,29 -169,-47 -53,-27 -17,-118 -13,-186 2,-32 -5,-69 -36,-112 -45,-63 96,-82 96,-97 -4,-114 161,-139 231,-75 43,39 24,140 -12,192 -24,34 187,120 10,183 -53,19 116,141 -106,141zm31 0c-43,0 -24,54 -18,126l6 11"/>
  <path class="fil4 str5" d="M15929 1266c-173,0 -24,29 -169,-47 -53,-27 -17,-118 -13,-186 2,-32 15,-104 -16,-147 -45,-63 73,-68 73,-83 -4,-114 128,-139 199,-75 43,39 67,142 96,199 18,36 114,139 -5,192 -52,23 58,146 -164,146zm31 0c-43,0 -24,54 -18,126l6 11"/>
  <path class="fil4 str5" d="M35483 1790c-173,0 -24,29 -169,-47 -53,-27 -17,-118 -13,-186 2,-32 68,-50 38,-93 -45,-63 73,-68 73,-83 -4,-114 75,-193 145,-129 43,39 60,162 23,214 -24,34 187,120 10,183 -53,19 116,141 -106,141zm31 0c-43,0 -24,54 -18,126l6 11"/>
  <path class="fil4 str5" d="M36046 1838c-173,0 -24,29 -169,-47 -53,-27 -17,-118 -13,-186 2,-32 15,-104 -16,-147 -45,-63 73,-68 73,-83 -4,-114 128,-139 199,-75 43,39 67,142 96,199 18,36 114,139 -5,192 -52,23 58,146 -164,146zm31 0c-43,0 -24,54 -18,126l6 11"/>
  <path class="fil4 str5" d="M36563 1985c-173,0 -24,29 -169,-47 -53,-27 -17,-118 -13,-186 2,-32 68,-50 38,-93 -45,-63 9,-157 8,-172 -4,-114 140,-104 210,-40 43,39 60,162 23,214 -24,34 187,120 10,183 -53,19 116,141 -106,141zm31 0c-43,0 -24,54 -18,126l6 11"/>
  <path class="fil4 str5" d="M37095 2071c-173,0 -33,-17 -178,-93 -77,-40 55,-117 -40,-251 -45,-63 96,-82 96,-97 -6,-183 316,-20 219,117 -24,34 102,25 10,183 -24,40 104,125 -106,141zm31 0c-43,0 -47,63 -41,134l30 3"/>
  <path class="fil4 str5" d="M34237 1945c-173,0 -24,29 -169,-47 -53,-27 -17,-118 -13,-186 2,-32 -5,-69 -36,-112 -45,-63 96,-82 96,-97 -4,-114 161,-139 231,-75 43,39 24,140 -12,192 -24,34 187,120 10,183 -53,19 116,141 -106,141zm31 0c-43,0 -24,54 -18,126l6 11"/>
  <path class="fil4 str5" d="M33597 1832c-173,0 -24,29 -169,-47 -53,-27 -17,-118 -13,-186 2,-32 -5,-69 -36,-112 -45,-63 96,-82 96,-97 -4,-114 161,-139 231,-75 43,39 24,140 -12,192 -24,34 187,120 10,183 -53,19 116,141 -106,141zm31 0c-43,0 -24,54 -18,126l6 11"/>
  <path class="fil4 str5" d="M29716 1767c-173,0 -33,-17 -178,-93 -77,-40 55,-117 -40,-251 -45,-63 96,-82 96,-97 -6,-183 316,-20 219,117 -24,34 102,25 10,183 -24,40 104,125 -106,141zm31 0c-43,0 -47,63 -41,134l30 3"/>
  <path class="fil4 str5" d="M31460 1258c-173,0 -24,29 -169,-47 -53,-27 -17,-118 -13,-186 2,-32 68,-50 38,-93 -45,-63 73,-68 73,-83 -4,-114 75,-193 145,-129 43,39 60,162 23,214 -24,34 187,120 10,183 -53,19 116,141 -106,141zm31 0c-43,0 -24,54 -18,126l6 11"/>
  <path class="fil4 str5" d="M32023 1307c-173,0 -24,29 -169,-47 -53,-27 -17,-118 -13,-186 2,-32 15,-104 -16,-147 -45,-63 73,-68 73,-83 -4,-114 128,-139 199,-75 43,39 67,142 96,199 18,36 114,139 -5,192 -52,23 58,146 -164,146zm31 0c-43,0 -24,54 -18,126l6 11"/>
  <path class="fil4 str5" d="M39174 1108c-173,0 -24,29 -169,-47 -53,-27 -17,-118 -13,-186 2,-32 15,-104 -16,-147 -45,-63 73,-68 73,-83 -4,-114 128,-139 199,-75 43,39 67,142 96,199 18,36 114,139 -5,192 -52,23 58,146 -164,146zm31 0c-43,0 -24,54 -18,126l6 11"/>
  <path class="fil4 str5" d="M39691 1255c-173,0 -24,29 -169,-47 -53,-27 -17,-118 -13,-186 2,-32 68,-50 38,-93 -45,-63 9,-157 8,-172 -4,-114 140,-104 210,-40 43,39 60,162 23,214 -24,34 187,120 10,183 -53,19 116,141 -106,141zm31 0c-43,0 -24,54 -18,126l6 11"/>
  <path class="fil4 str5" d="M44247 1735c-173,0 -24,29 -169,-47 -53,-27 -17,-118 -13,-186 2,-32 68,-50 38,-93 -45,-63 73,-68 73,-83 -4,-114 75,-193 145,-129 43,39 60,162 23,214 -24,34 187,120 10,183 -53,19 116,141 -106,141zm31 0c-43,0 -24,54 -18,126l6 11"/>
  <path class="fil4 str5" d="M44810 1783c-173,0 -24,29 -169,-47 -53,-27 -17,-118 -13,-186 2,-32 15,-104 -16,-147 -45,-63 73,-68 73,-83 -4,-114 128,-139 199,-75 43,39 67,142 96,199 18,36 114,139 -5,192 -52,23 58,146 -164,146zm31 0c-43,0 -24,54 -18,126l6 11"/>
  <path class="fil4 str5" d="M45327 1930c-173,0 -24,29 -169,-47 -53,-27 -17,-118 -13,-186 2,-32 68,-50 38,-93 -45,-63 9,-157 8,-172 -4,-114 140,-104 210,-40 43,39 60,162 23,214 -24,34 187,120 10,183 -53,19 116,141 -106,141zm31 0c-43,0 -24,54 -18,126l6 11"/>
  <path class="fil4 str5" d="M43001 1890c-173,0 -24,29 -169,-47 -53,-27 -17,-118 -13,-186 2,-32 -5,-69 -36,-112 -45,-63 96,-82 96,-97 -4,-114 161,-139 231,-75 43,39 24,140 -12,192 -24,34 187,120 10,183 -53,19 116,141 -106,141zm31 0c-43,0 -24,54 -18,126l6 11"/>
  <path class="fil4 str5" d="M42362 1777c-173,0 -24,29 -169,-47 -53,-27 -17,-118 -13,-186 2,-32 -5,-69 -36,-112 -45,-63 96,-82 96,-97 -4,-114 161,-139 231,-75 43,39 24,140 -12,192 -24,34 187,120 10,183 -53,19 116,141 -106,141zm31 0c-43,0 -24,54 -18,126l6 11"/>
  <path class="fil4 str5" d="M42040 3077c-173,0 -24,29 -169,-47 -53,-27 -17,-118 -13,-186 2,-32 68,-50 38,-93 -45,-63 73,-68 73,-83 -4,-114 75,-193 145,-129 43,39 60,162 23,214 -24,34 187,120 10,183 -53,19 116,141 -106,141zm31 0c-43,0 -24,54 -18,126l6 11"/>
  <path class="fil4 str5" d="M40999 2954c-173,0 -24,29 -169,-47 -53,-27 -17,-118 -13,-186 2,-32 -5,-69 -36,-112 -45,-63 96,-82 96,-97 -4,-114 161,-139 231,-75 43,39 24,140 -12,192 -24,34 187,120 10,183 -53,19 116,141 -106,141zm31 0c-43,0 -24,54 -18,126l6 11"/>
  <path class="fil4 str5" d="M44386 6447c-173,0 -24,29 -169,-47 -53,-27 -17,-118 -13,-186 2,-32 -5,-69 -36,-112 -45,-63 96,-82 96,-97 -4,-114 161,-139 231,-75 43,39 24,140 -12,192 -24,34 187,120 10,183 -53,19 116,141 -106,141zm31 0c-43,0 -24,54 -18,126l6 11"/>
  <path class="fil4 str5" d="M38975 3045c-173,0 -24,29 -169,-47 -53,-27 -17,-118 -13,-186 2,-32 68,-50 38,-93 -45,-63 73,-68 73,-83 -4,-114 75,-193 145,-129 43,39 60,162 23,214 -24,34 187,120 10,183 -53,19 116,141 -106,141zm31 0c-43,0 -24,54 -18,126l6 11"/>
  <path class="fil4 str5" d="M39539 3094c-173,0 -24,29 -169,-47 -53,-27 -17,-118 -13,-186 2,-32 15,-104 -16,-147 -45,-63 73,-68 73,-83 -4,-114 128,-139 199,-75 43,39 67,142 96,199 18,36 114,139 -5,192 -52,23 58,146 -164,146zm31 0c-43,0 -24,54 -18,126l6 11"/>
  <path class="fil4 str5" d="M44574 3630c-173,0 -24,29 -169,-47 -53,-27 -17,-118 -13,-186 2,-32 15,-104 -16,-147 -45,-63 73,-68 73,-83 -4,-114 128,-139 199,-75 43,39 67,142 96,199 18,36 114,139 -5,192 -52,23 58,146 -164,146zm31 0c-43,0 -24,54 -18,126l6 11"/>
  <path class="fil4 str5" d="M46475 3587c-173,0 -24,29 -169,-47 -53,-27 -17,-118 -13,-186 2,-32 68,-50 38,-93 -45,-63 9,-157 8,-172 -4,-114 140,-104 210,-40 43,39 60,162 23,214 -24,34 187,120 10,183 -53,19 116,141 -106,141zm31 0c-43,0 -24,54 -18,126l6 11"/>
  <path class="fil4 str5" d="M44870 4889c-173,0 -24,29 -169,-47 -53,-27 -17,-118 -13,-186 2,-32 -5,-69 -36,-112 -45,-63 96,-82 96,-97 -4,-114 161,-139 231,-75 43,39 24,140 -12,192 -24,34 187,120 10,183 -53,19 116,141 -106,141zm31 0c-43,0 -24,54 -18,126l6 11"/>
  <path class="fil4 str5" d="M45664 4096c-173,0 -24,29 -169,-47 -53,-27 -17,-118 -13,-186 2,-32 -5,-69 -36,-112 -45,-63 96,-82 96,-97 -4,-114 161,-139 231,-75 43,39 24,140 -12,192 -24,34 187,120 10,183 -53,19 116,141 -106,141zm31 0c-43,0 -24,54 -18,126l6 11"/>
  <path class="fil4 str5" d="M43479 5271c-173,0 -24,29 -169,-47 -53,-27 -17,-118 -13,-186 2,-32 68,-50 38,-93 -45,-63 73,-68 73,-83 -4,-114 75,-193 145,-129 43,39 60,162 23,214 -24,34 187,120 10,183 -53,19 116,141 -106,141zm31 0c-43,0 -24,54 -18,126l6 11"/>
  <path class="fil4 str5" d="M42648 5418c-173,0 -24,29 -169,-47 -53,-27 -17,-118 -13,-186 2,-32 -5,-69 -36,-112 -45,-63 96,-82 96,-97 -4,-114 161,-139 231,-75 43,39 24,140 -12,192 -24,34 187,120 10,183 -53,19 116,141 -106,141zm31 0c-43,0 -24,54 -18,126l6 11"/>
  <path class="fil4 str5" d="M41627 5324c-173,0 -24,29 -169,-47 -53,-27 -17,-118 -13,-186 2,-32 -5,-69 -36,-112 -45,-63 96,-82 96,-97 -4,-114 161,-139 231,-75 43,39 24,140 -12,192 -24,34 187,120 10,183 -53,19 116,141 -106,141zm31 0c-43,0 -24,54 -18,126l6 11"/>
  <path class="fil4 str5" d="M38975 3045c-173,0 -24,29 -169,-47 -53,-27 -17,-118 -13,-186 2,-32 68,-50 38,-93 -45,-63 73,-68 73,-83 -4,-114 75,-193 145,-129 43,39 60,162 23,214 -24,34 187,120 10,183 -53,19 116,141 -106,141zm31 0c-43,0 -24,54 -18,126l6 11"/>
  <path class="fil4 str5" d="M43356 3154c-173,0 -24,29 -169,-47 -53,-27 -17,-118 -13,-186 2,-32 15,-104 -16,-147 -45,-63 73,-68 73,-83 -4,-114 128,-139 199,-75 43,39 67,142 96,199 18,36 114,139 -5,192 -52,23 58,146 -164,146zm31 0c-43,0 -24,54 -18,126l6 11"/>
  <path class="fil4 str5" d="M55280 7752c-173,0 -24,29 -169,-47 -53,-27 -17,-118 -13,-186 2,-32 68,-50 38,-93 -45,-63 73,-68 73,-83 -4,-114 75,-193 145,-129 43,39 60,162 23,214 -24,34 187,120 10,183 -53,19 116,141 -106,141zm31 0c-43,0 -24,54 -18,126l6 11"/>
  <path class="fil4 str5" d="M53180 6736c-173,0 -24,29 -169,-47 -53,-27 -17,-118 -13,-186 2,-32 15,-104 -16,-147 -45,-63 73,-68 73,-83 -4,-114 128,-139 199,-75 43,39 67,142 96,199 18,36 114,139 -5,192 -52,23 58,146 -164,146zm31 0c-43,0 -24,54 -18,126l6 11"/>
  <path class="fil4 str5" d="M53696 6883c-173,0 -24,29 -169,-47 -53,-27 -17,-118 -13,-186 2,-32 68,-50 38,-93 -45,-63 9,-157 8,-172 -4,-114 140,-104 210,-40 43,39 60,162 23,214 -24,34 187,120 10,183 -53,19 116,141 -106,141zm31 0c-43,0 -24,54 -18,126l6 11"/>
  <path class="fil4 str5" d="M51370 6843c-173,0 -24,29 -169,-47 -53,-27 -17,-118 -13,-186 2,-32 -5,-69 -36,-112 -45,-63 96,-82 96,-97 -4,-114 161,-139 231,-75 43,39 24,140 -12,192 -24,34 187,120 10,183 -53,19 116,141 -106,141zm31 0c-43,0 -24,54 -18,126l6 11"/>
  <path class="fil4 str5" d="M52943 8583c-173,0 -24,29 -169,-47 -53,-27 -17,-118 -13,-186 2,-32 15,-104 -16,-147 -45,-63 73,-68 73,-83 -4,-114 128,-139 199,-75 43,39 67,142 96,199 18,36 114,139 -5,192 -52,23 58,146 -164,146zm31 0c-43,0 -24,54 -18,126l6 11"/>
  <path class="fil4 str5" d="M54033 9048c-173,0 -24,29 -169,-47 -53,-27 -17,-118 -13,-186 2,-32 -5,-69 -36,-112 -45,-63 96,-82 96,-97 -4,-114 161,-139 231,-75 43,39 24,140 -12,192 -24,34 187,120 10,183 -53,19 116,141 -106,141zm31 0c-43,0 -24,54 -18,126l6 11"/>
  <path class="fil4 str5" d="M51355 9588c-173,0 -24,29 -169,-47 -53,-27 -17,-118 -13,-186 2,-32 15,-104 -16,-147 -45,-63 73,-68 73,-83 -4,-114 128,-139 199,-75 43,39 67,142 96,199 18,36 114,139 -5,192 -52,23 58,146 -164,146zm31 0c-43,0 -24,54 -18,126l6 11"/>
  <path class="fil4 str5" d="M49221 4169c-173,0 -24,29 -169,-47 -53,-27 -17,-118 -13,-186 2,-32 68,-50 38,-93 -45,-63 73,-68 73,-83 -4,-114 75,-193 145,-129 43,39 60,162 23,214 -24,34 187,120 10,183 -53,19 116,141 -106,141zm31 0c-43,0 -24,54 -18,126l6 11"/>
  <path class="fil4 str5" d="M49785 4217c-173,0 -24,29 -169,-47 -53,-27 -17,-118 -13,-186 2,-32 15,-104 -16,-147 -45,-63 73,-68 73,-83 -4,-114 128,-139 199,-75 43,39 67,142 96,199 18,36 114,139 -5,192 -52,23 58,146 -164,146zm31 0c-43,0 -24,54 -18,126l6 11"/>
  <path class="fil4 str5" d="M50301 4364c-173,0 -24,29 -169,-47 -53,-27 -17,-118 -13,-186 2,-32 68,-50 38,-93 -45,-63 9,-157 8,-172 -4,-114 140,-104 210,-40 43,39 60,162 23,214 -24,34 187,120 10,183 -53,19 116,141 -106,141zm31 0c-43,0 -24,54 -18,126l6 11"/>
  <path class="fil4 str5" d="M47975 4324c-173,0 -24,29 -169,-47 -53,-27 -17,-118 -13,-186 2,-32 -5,-69 -36,-112 -45,-63 96,-82 96,-97 -4,-114 161,-139 231,-75 43,39 24,140 -12,192 -24,34 187,120 10,183 -53,19 116,141 -106,141zm31 0c-43,0 -24,54 -18,126l6 11"/>
  <path class="fil4 str5" d="M47336 4211c-173,0 -24,29 -169,-47 -53,-27 -17,-118 -13,-186 2,-32 -5,-69 -36,-112 -45,-63 96,-82 96,-97 -4,-114 161,-139 231,-75 43,39 24,140 -12,192 -24,34 187,120 10,183 -53,19 116,141 -106,141zm31 0c-43,0 -24,54 -18,126l6 11"/>
  <path class="fil4 str5" d="M47015 5512c-173,0 -24,29 -169,-47 -53,-27 -17,-118 -13,-186 2,-32 68,-50 38,-93 -45,-63 73,-68 73,-83 -4,-114 75,-193 145,-129 43,39 60,162 23,214 -24,34 187,120 10,183 -53,19 116,141 -106,141zm31 0c-43,0 -24,54 -18,126l6 11"/>
  <path class="fil4 str5" d="M49548 6064c-173,0 -24,29 -169,-47 -53,-27 -17,-118 -13,-186 2,-32 15,-104 -16,-147 -45,-63 73,-68 73,-83 -4,-114 128,-139 199,-75 43,39 67,142 96,199 18,36 114,139 -5,192 -52,23 58,146 -164,146zm31 0c-43,0 -24,54 -18,126l6 11"/>
  <path class="fil4 str5" d="M50638 6530c-173,0 -24,29 -169,-47 -53,-27 -17,-118 -13,-186 2,-32 -5,-69 -36,-112 -45,-63 96,-82 96,-97 -4,-114 161,-139 231,-75 43,39 24,140 -12,192 -24,34 187,120 10,183 -53,19 116,141 -106,141zm31 0c-43,0 -24,54 -18,126l6 11"/>
  <path class="fil4 str5" d="M46953 6823c-173,0 -24,29 -169,-47 -53,-27 -17,-118 -13,-186 2,-32 15,-104 -16,-147 -45,-63 73,-68 73,-83 -4,-114 128,-139 199,-75 43,39 67,142 96,199 18,36 114,139 -5,192 -52,23 58,146 -164,146zm31 0c-43,0 -24,54 -18,126l6 11"/>
  <path class="fil4 str5" d="M47470 6970c-173,0 -24,29 -169,-47 -53,-27 -17,-118 -13,-186 2,-32 68,-50 38,-93 -45,-63 9,-157 8,-172 -4,-114 140,-104 210,-40 43,39 60,162 23,214 -24,34 187,120 10,183 -53,19 116,141 -106,141zm31 0c-43,0 -24,54 -18,126l6 11"/>
  <path class="fil4 str5" d="M50780 7605c-173,0 -24,29 -169,-47 -53,-27 -17,-118 -13,-186 2,-32 -5,-69 -36,-112 -45,-63 96,-82 96,-97 -4,-114 161,-139 231,-75 43,39 24,140 -12,192 -24,34 187,120 10,183 -53,19 116,141 -106,141zm31 0c-43,0 -24,54 -18,126l6 11"/>
  <path class="fil4 str5" d="M50140 7492c-173,0 -24,29 -169,-47 -53,-27 -17,-118 -13,-186 2,-32 -5,-69 -36,-112 -45,-63 96,-82 96,-97 -4,-114 161,-139 231,-75 43,39 24,140 -12,192 -24,34 187,120 10,183 -53,19 116,141 -106,141zm31 0c-43,0 -24,54 -18,126l6 11"/>
  <path class="fil4 str5" d="M49819 8792c-173,0 -24,29 -169,-47 -53,-27 -17,-118 -13,-186 2,-32 68,-50 38,-93 -45,-63 73,-68 73,-83 -4,-114 75,-193 145,-129 43,39 60,162 23,214 -24,34 187,120 10,183 -53,19 116,141 -106,141zm31 0c-43,0 -24,54 -18,126l6 11"/>
  <path class="fil4 str5" d="M48778 8669c-173,0 -24,29 -169,-47 -53,-27 -17,-118 -13,-186 2,-32 -5,-69 -36,-112 -45,-63 96,-82 96,-97 -4,-114 161,-139 231,-75 43,39 24,140 -12,192 -24,34 187,120 10,183 -53,19 116,141 -106,141zm31 0c-43,0 -24,54 -18,126l6 11"/>
  <path class="fil4 str5" d="M42725 19618c-173,0 -24,29 -169,-47 -53,-27 -17,-118 -13,-186 2,-32 68,-50 38,-93 -45,-63 73,-68 73,-83 -4,-114 75,-193 145,-129 43,39 60,162 23,214 -24,34 187,120 10,183 -53,19 116,141 -106,141zm31 0c-43,0 -24,54 -18,126l6 11"/>
  <path class="fil4 str5" d="M47317 8809c-173,0 -24,29 -169,-47 -53,-27 -17,-118 -13,-186 2,-32 15,-104 -16,-147 -45,-63 73,-68 73,-83 -4,-114 128,-139 199,-75 43,39 67,142 96,199 18,36 114,139 -5,192 -52,23 58,146 -164,146zm31 0c-43,0 -24,54 -18,126l6 11"/>
  <path class="fil4 str5" d="M45755 7381c-173,0 -24,29 -169,-47 -53,-27 -17,-118 -13,-186 2,-32 68,-50 38,-93 -45,-63 73,-68 73,-83 -4,-114 75,-193 145,-129 43,39 60,162 23,214 -24,34 187,120 10,183 -53,19 116,141 -106,141zm31 0c-43,0 -24,54 -18,126l6 11"/>
  <path class="fil4 str5" d="M50531 13273c-173,0 -24,29 -169,-47 -53,-27 -17,-118 -13,-186 2,-32 68,-50 38,-93 -45,-63 73,-68 73,-83 -4,-114 75,-193 145,-129 43,39 60,162 23,214 -24,34 187,120 10,183 -53,19 116,141 -106,141zm31 0c-43,0 -24,54 -18,126l6 11"/>
  <path class="fil4 str5" d="M51094 13322c-173,0 -24,29 -169,-47 -53,-27 -17,-118 -13,-186 2,-32 15,-104 -16,-147 -45,-63 73,-68 73,-83 -4,-114 128,-139 199,-75 43,39 67,142 96,199 18,36 114,139 -5,192 -52,23 58,146 -164,146zm31 0c-43,0 -24,54 -18,126l6 11"/>
  <path class="fil4 str5" d="M46562 17614c-173,0 -24,29 -169,-47 -53,-27 -17,-118 -13,-186 2,-32 68,-50 38,-93 -45,-63 9,-157 8,-172 -4,-114 140,-104 210,-40 43,39 60,162 23,214 -24,34 187,120 10,183 -53,19 116,141 -106,141zm31 0c-43,0 -24,54 -18,126l6 11"/>
  <path class="fil4 str5" d="M49285 13428c-173,0 -24,29 -169,-47 -53,-27 -17,-118 -13,-186 2,-32 -5,-69 -36,-112 -45,-63 96,-82 96,-97 -4,-114 161,-139 231,-75 43,39 24,140 -12,192 -24,34 187,120 10,183 -53,19 116,141 -106,141zm31 0c-43,0 -24,54 -18,126l6 11"/>
  <path class="fil4 str5" d="M48646 13316c-173,0 -24,29 -169,-47 -53,-27 -17,-118 -13,-186 2,-32 -5,-69 -36,-112 -45,-63 96,-82 96,-97 -4,-114 161,-139 231,-75 43,39 24,140 -12,192 -24,34 187,120 10,183 -53,19 116,141 -106,141zm31 0c-43,0 -24,54 -18,126l6 11"/>
  <path class="fil4 str5" d="M48324 14616c-173,0 -24,29 -169,-47 -53,-27 -17,-118 -13,-186 2,-32 68,-50 38,-93 -45,-63 73,-68 73,-83 -4,-114 75,-193 145,-129 43,39 60,162 23,214 -24,34 187,120 10,183 -53,19 116,141 -106,141zm31 0c-43,0 -24,54 -18,126l6 11"/>
  <path class="fil4 str5" d="M49640 14692c-173,0 -24,29 -169,-47 -53,-27 -17,-118 -13,-186 2,-32 15,-104 -16,-147 -45,-63 73,-68 73,-83 -4,-114 128,-139 199,-75 43,39 67,142 96,199 18,36 114,139 -5,192 -52,23 58,146 -164,146zm31 0c-43,0 -24,54 -18,126l6 11"/>
  <path class="fil4 str5" d="M44498 18692c-173,0 -24,29 -169,-47 -53,-27 -17,-118 -13,-186 2,-32 68,-50 38,-93 -45,-63 73,-68 73,-83 -4,-114 75,-193 145,-129 43,39 60,162 23,214 -24,34 187,120 10,183 -53,19 116,141 -106,141zm31 0c-43,0 -24,54 -18,126l6 11"/>
  <path class="fil4 str5" d="M52364 10835c-173,0 -24,29 -169,-47 -53,-27 -17,-118 -13,-186 2,-32 15,-104 -16,-147 -45,-63 73,-68 73,-83 -4,-114 128,-139 199,-75 43,39 67,142 96,199 18,36 114,139 -5,192 -52,23 58,146 -164,146zm31 0c-43,0 -24,54 -18,126l6 11"/>
  <path class="fil4 str5" d="M52881 10981c-173,0 -24,29 -169,-47 -53,-27 -17,-118 -13,-186 2,-32 68,-50 38,-93 -45,-63 9,-157 8,-172 -4,-114 140,-104 210,-40 43,39 60,162 23,214 -24,34 187,120 10,183 -53,19 116,141 -106,141zm31 0c-43,0 -24,54 -18,126l6 11"/>
  <path class="fil4 str5" d="M50555 10941c-173,0 -24,29 -169,-47 -53,-27 -17,-118 -13,-186 2,-32 -5,-69 -36,-112 -45,-63 96,-82 96,-97 -4,-114 161,-139 231,-75 43,39 24,140 -12,192 -24,34 187,120 10,183 -53,19 116,141 -106,141zm31 0c-43,0 -24,54 -18,126l6 11"/>
  <path class="fil4 str5" d="M49916 10829c-173,0 -24,29 -169,-47 -53,-27 -17,-118 -13,-186 2,-32 -5,-69 -36,-112 -45,-63 96,-82 96,-97 -4,-114 161,-139 231,-75 43,39 24,140 -12,192 -24,34 187,120 10,183 -53,19 116,141 -106,141zm31 0c-43,0 -24,54 -18,126l6 11"/>
  <path class="fil4 str5" d="M49594 12129c-173,0 -24,29 -169,-47 -53,-27 -17,-118 -13,-186 2,-32 68,-50 38,-93 -45,-63 73,-68 73,-83 -4,-114 75,-193 145,-129 43,39 60,162 23,214 -24,34 187,120 10,183 -53,19 116,141 -106,141zm31 0c-43,0 -24,54 -18,126l6 11"/>
  <path class="fil4 str5" d="M50910 12205c-173,0 -24,29 -169,-47 -53,-27 -17,-118 -13,-186 2,-32 15,-104 -16,-147 -45,-63 73,-68 73,-83 -4,-114 128,-139 199,-75 43,39 67,142 96,199 18,36 114,139 -5,192 -52,23 58,146 -164,146zm31 0c-43,0 -24,54 -18,126l6 11"/>
  <path class="fil4 str5" d="M49102 15676c-173,0 -24,29 -169,-47 -53,-27 -17,-118 -13,-186 2,-32 68,-50 38,-93 -45,-63 73,-68 73,-83 -4,-114 75,-193 145,-129 43,39 60,162 23,214 -24,34 187,120 10,183 -53,19 116,141 -106,141zm31 0c-43,0 -24,54 -18,126l6 11"/>
  <path class="fil4 str5" d="M49853 15935c-173,0 -24,29 -169,-47 -53,-27 -17,-118 -13,-186 2,-32 15,-104 -16,-147 -45,-63 73,-68 73,-83 -4,-114 128,-139 199,-75 43,39 67,142 96,199 18,36 114,139 -5,192 -52,23 58,146 -164,146zm31 0c-43,0 -24,54 -18,126l6 11"/>
  <path class="fil4 str5" d="M47885 17673c-173,0 -24,29 -169,-47 -53,-27 -17,-118 -13,-186 2,-32 68,-50 38,-93 -45,-63 9,-157 8,-172 -4,-114 140,-104 210,-40 43,39 60,162 23,214 -24,34 187,120 10,183 -53,19 116,141 -106,141zm31 0c-43,0 -24,54 -18,126l6 11"/>
  <path class="fil4 str5" d="M48105 16391c-173,0 -24,29 -169,-47 -53,-27 -17,-118 -13,-186 2,-32 -5,-69 -36,-112 -45,-63 96,-82 96,-97 -4,-114 161,-139 231,-75 43,39 24,140 -12,192 -24,34 187,120 10,183 -53,19 116,141 -106,141zm31 0c-43,0 -24,54 -18,126l6 11"/>
  <path class="fil4 str5" d="M47465 16278c-173,0 -24,29 -169,-47 -53,-27 -17,-118 -13,-186 2,-32 -5,-69 -36,-112 -45,-63 96,-82 96,-97 -4,-114 161,-139 231,-75 43,39 24,140 -12,192 -24,34 187,120 10,183 -53,19 116,141 -106,141zm31 0c-43,0 -24,54 -18,126l6 11"/>
  <path class="fil4 str5" d="M29105 24873c-173,0 -24,29 -169,-47 -53,-27 -17,-118 -13,-186 2,-32 68,-50 38,-93 -45,-63 9,-157 8,-172 -4,-114 140,-104 210,-40 43,39 60,162 23,214 -24,34 187,120 10,183 -53,19 116,141 -106,141zm31 0c-43,0 -24,54 -18,126l6 11"/>
  <path class="fil4 str5" d="M29934 28080c-173,0 -24,29 -169,-47 -53,-27 -17,-118 -13,-186 2,-32 -5,-69 -36,-112 -45,-63 96,-82 96,-97 -4,-114 161,-139 231,-75 43,39 24,140 -12,192 -24,34 187,120 10,183 -53,19 116,141 -106,141zm31 0c-43,0 -24,54 -18,126l6 11"/>
  <path class="fil4 str5" d="M29458 30250c-173,0 -24,29 -169,-47 -53,-27 -17,-118 -13,-186 2,-32 -5,-69 -36,-112 -45,-63 96,-82 96,-97 -4,-114 161,-139 231,-75 43,39 24,140 -12,192 -24,34 187,120 10,183 -53,19 116,141 -106,141zm31 0c-43,0 -24,54 -18,126l6 11"/>
  <path class="fil4 str5" d="M29803 26639c-173,0 -24,29 -169,-47 -53,-27 -17,-118 -13,-186 2,-32 -5,-69 -36,-112 -45,-63 96,-82 96,-97 -4,-114 161,-139 231,-75 43,39 24,140 -12,192 -24,34 187,120 10,183 -53,19 116,141 -106,141zm31 0c-43,0 -24,54 -18,126l6 11"/>
  <path class="fil4 str5" d="M21935 18996c-94,0 -13,16 -92,-26 -29,-15 -9,-64 -7,-101 1,-17 37,-27 20,-51 -24,-34 40,-37 40,-45 -2,-62 41,-105 79,-70 23,21 33,88 12,116 -13,18 102,65 5,100 -29,10 63,77 -58,77zm17 0c-24,0 -13,29 -10,68l3 6"/>
  <path class="fil4 str5" d="M22629 19111c-94,0 -13,16 -92,-26 -29,-15 -9,-64 -7,-101 1,-17 8,-57 -9,-80 -24,-34 40,-37 40,-45 -2,-62 70,-76 108,-41 23,21 37,77 52,108 10,19 62,76 -3,105 -28,13 32,80 -89,80zm17 0c-24,0 -13,29 -10,68l3 6"/>
  <path class="fil4 str5" d="M23221 19204c-94,0 -13,16 -92,-26 -29,-15 -9,-64 -7,-101 1,-17 37,-27 20,-51 -24,-34 5,-86 4,-94 -2,-62 76,-57 114,-22 23,21 33,88 12,116 -13,18 102,65 5,100 -29,10 63,77 -58,77zm17 0c-24,0 -13,29 -10,68l3 6"/>
  <path class="fil4 str5" d="M24694 19379c-94,0 -18,-9 -97,-51 -42,-22 30,-64 -22,-137 -24,-34 52,-45 52,-53 -3,-99 172,-11 119,64 -13,18 55,14 5,100 -13,22 57,68 -58,77zm17 0c-24,0 -26,34 -22,73l16 2"/>
  <path class="fil4 str5" d="M25691 11997c-138,0 -19,23 -135,-38 -42,-22 -14,-94 -11,-148 1,-25 -4,-55 -29,-89 -36,-50 77,-65 76,-78 -3,-91 128,-111 184,-60 34,31 19,112 -10,153 -19,27 149,96 8,146 -43,15 93,113 -84,113zm25 0c-35,0 -19,43 -14,100l5 9"/>
  <path class="fil4 str5" d="M25181 11907c-138,0 -19,23 -135,-38 -42,-22 -14,-94 -11,-148 1,-25 -4,-55 -29,-89 -36,-50 77,-65 76,-78 -3,-91 128,-111 184,-60 34,31 19,112 -10,153 -19,27 149,96 8,146 -43,15 93,113 -84,113zm25 0c-35,0 -19,43 -14,100l5 9"/>
  <path class="fil5" d="M12088 40655c24,0 48,0 71,0 90,0 179,0 269,0 6,0 13,0 19,0 0,2 0,4 0,6 -9,0 -18,0 -28,0 -76,0 -153,1 -229,0 -36,0 -70,2 -103,17 0,-8 0,-15 0,-23z"/>
  <polygon class="fil0 str1" points="31750,14950 31052,16192 28638,15425 28871,14094 "/>
  <g id="_781273520">
   <rect class="fil0" transform="matrix(0.446938 -0.0140222 0.0114409 0.364661 16320.5 18491.4)" width="723" height="2457"/>
   <path class="fil3 str4" d="M16224 18335l95 146m0 0l28 896m0 0l-96 167"/>
   <path class="fil3 str4" d="M16726 18319l-86 152m0 0l28 896m0 0l106 161"/>
  </g>
 </g>
</svg>
